<?xml version="1.0" encoding="utf-8" standalone="no"?>
<!DOCTYPE svg PUBLIC "-//W3C//DTD SVG 1.1//EN"
  "http://www.w3.org/Graphics/SVG/1.1/DTD/svg11.dtd">
<svg xmlns:xlink="http://www.w3.org/1999/xlink" width="453.945625pt" height="340.838125pt" viewBox="0 0 453.945625 340.838125" xmlns="http://www.w3.org/2000/svg" version="1.1">
 <metadata>
  <rdf:RDF xmlns:dc="http://purl.org/dc/elements/1.1/" xmlns:cc="http://creativecommons.org/ns#" xmlns:rdf="http://www.w3.org/1999/02/22-rdf-syntax-ns#">
   <cc:Work>
    <dc:type rdf:resource="http://purl.org/dc/dcmitype/StillImage"/>
    <dc:date>2025-03-01T15:55:06.937984</dc:date>
    <dc:format>image/svg+xml</dc:format>
    <dc:creator>
     <cc:Agent>
      <dc:title>Matplotlib v3.10.0, https://matplotlib.org/</dc:title>
     </cc:Agent>
    </dc:creator>
   </cc:Work>
  </rdf:RDF>
 </metadata>
 <defs>
  <style type="text/css">*{stroke-linejoin: round; stroke-linecap: butt}</style>
 </defs>
 <g id="figure_1">
  <g id="patch_1">
   <path d="M 0 340.838125 
L 453.945625 340.838125 
L 453.945625 0 
L 0 0 
z
" style="fill: #ffffff"/>
  </g>
  <g id="axes_1">
   <g id="patch_2">
    <path d="M 55.065625 300.96 
L 446.745625 300.96 
L 446.745625 7.2 
L 55.065625 7.2 
z
" style="fill: #ffffff"/>
   </g>
   <g id="FillBetweenPolyCollection_1">
    <path d="M 72.869261 268.87054 
L 72.869261 287.607273 
L 80.110387 284.373641 
L 87.351512 281.174742 
L 94.592637 278.00907 
L 101.833762 274.87606 
L 109.074887 271.775494 
L 116.316013 268.7073 
L 123.557138 265.671461 
L 130.798263 262.667939 
L 138.039388 259.69663 
L 145.280513 256.757326 
L 152.521639 253.849688 
L 159.762764 250.973235 
L 167.003889 248.127335 
L 174.245014 245.311218 
L 181.486139 242.523983 
L 188.727265 239.764623 
L 195.96839 237.032049 
L 203.209515 234.325115 
L 210.45064 231.642648 
L 217.691765 228.983468 
L 224.93289 226.346412 
L 232.174016 223.73035 
L 239.415141 221.134202 
L 246.656266 218.556943 
L 253.897391 215.997612 
L 261.138516 213.455315 
L 268.379642 210.929229 
L 275.620767 208.418595 
L 282.861892 205.922723 
L 290.103017 203.440983 
L 297.344142 200.972804 
L 304.585268 198.517673 
L 311.826393 196.075124 
L 319.067518 193.644738 
L 326.308643 191.226141 
L 333.549768 188.818996 
L 340.790894 186.423 
L 348.032019 184.037883 
L 355.273144 181.663403 
L 362.514269 179.299343 
L 369.755394 176.945509 
L 376.99652 174.60173 
L 384.237645 172.26785 
L 391.47877 169.943731 
L 398.719895 167.62925 
L 405.96102 165.324299 
L 413.202146 163.028777 
L 420.443271 160.742599 
L 427.684396 158.465686 
L 427.684396 123.694039 
L 427.684396 123.694039 
L 420.443271 126.765471 
L 413.202146 129.836873 
L 405.96102 132.908223 
L 398.719895 135.979494 
L 391.47877 139.050645 
L 384.237645 142.121626 
L 376.99652 145.192376 
L 369.755394 148.262817 
L 362.514269 151.332858 
L 355.273144 154.402388 
L 348.032019 157.47128 
L 340.790894 160.539381 
L 333.549768 163.606518 
L 326.308643 166.672486 
L 319.067518 169.737054 
L 311.826393 172.799955 
L 304.585268 175.860885 
L 297.344142 178.9195 
L 290.103017 181.975412 
L 282.861892 185.028182 
L 275.620767 188.077318 
L 268.379642 191.122274 
L 261.138516 194.162441 
L 253.897391 197.197148 
L 246.656266 200.225658 
L 239.415141 203.247169 
L 232.174016 206.260816 
L 224.93289 209.265672 
L 217.691765 212.260758 
L 210.45064 215.245049 
L 203.209515 218.217495 
L 195.96839 221.17703 
L 188.727265 224.122604 
L 181.486139 227.053199 
L 174.245014 229.967862 
L 167.003889 232.865731 
L 159.762764 235.746063 
L 152.521639 238.60825 
L 145.280513 241.451846 
L 138.039388 244.276568 
L 130.798263 247.082296 
L 123.557138 249.86907 
L 116.316013 252.637067 
L 109.074887 255.386578 
L 101.833762 258.117975 
L 94.592637 260.831675 
L 87.351512 263.528101 
L 80.110387 266.207629 
L 72.869261 268.87054 
z
" clip-path="url(#p5c3b059ce6)" style="fill: url(#hf35e67ff2f); stroke: #000000; stroke-opacity: 0.6"/>
   </g>
   <g id="FillBetweenPolyCollection_2">
    <defs>
     <path id="m6391370441" d="M 72.869261 -201.933147 
L 72.869261 -192.312387 
L 80.110387 -195.140439 
L 87.351512 -197.936244 
L 94.592637 -200.701253 
L 101.833762 -203.434967 
L 109.074887 -206.135611 
L 116.316013 -208.800178 
L 123.557138 -211.424368 
L 130.798263 -214.00266 
L 138.039388 -216.528728 
L 145.280513 -218.996476 
L 152.521639 -221.401664 
L 159.762764 -223.743559 
L 167.003889 -226.025585 
L 174.245014 -228.254487 
L 181.486139 -230.438571 
L 188.727265 -232.58604 
L 195.96839 -234.704022 
L 203.209515 -236.798257 
L 210.45064 -238.87316 
L 217.691765 -240.932054 
L 224.93289 -242.977404 
L 232.174016 -245.011034 
L 239.415141 -247.034288 
L 246.656266 -249.048156 
L 253.897391 -251.053365 
L 261.138516 -253.050448 
L 268.379642 -255.039792 
L 275.620767 -257.02167 
L 282.861892 -258.996274 
L 290.103017 -260.96373 
L 297.344142 -262.924118 
L 304.585268 -264.877474 
L 311.826393 -266.823809 
L 319.067518 -268.763109 
L 326.308643 -270.695343 
L 333.549768 -272.620465 
L 340.790894 -274.53842 
L 348.032019 -276.449144 
L 355.273144 -278.352567 
L 362.514269 -280.248614 
L 369.755394 -282.137209 
L 376.99652 -284.018271 
L 384.237645 -285.891719 
L 391.47877 -287.757473 
L 398.719895 -289.61545 
L 405.96102 -291.465572 
L 413.202146 -293.307757 
L 420.443271 -295.141928 
L 427.684396 -296.968008 
L 427.684396 -320.285398 
L 427.684396 -320.285398 
L 420.443271 -317.827717 
L 413.202146 -315.368165 
L 405.96102 -312.90661 
L 398.719895 -310.442914 
L 391.47877 -307.976939 
L 384.237645 -305.508544 
L 376.99652 -303.037587 
L 369.755394 -300.563927 
L 362.514269 -298.08742 
L 355.273144 -295.607922 
L 348.032019 -293.125292 
L 340.790894 -290.639389 
L 333.549768 -288.150078 
L 326.308643 -285.657226 
L 319.067518 -283.160708 
L 311.826393 -280.660408 
L 304.585268 -278.156223 
L 297.344142 -275.648066 
L 290.103017 -273.135869 
L 282.861892 -270.619596 
L 275.620767 -268.099245 
L 268.379642 -265.57486 
L 261.138516 -263.046551 
L 253.897391 -260.514505 
L 246.656266 -257.97902 
L 239.415141 -255.440538 
L 232.174016 -252.89969 
L 224.93289 -250.35737 
L 217.691765 -247.814821 
L 210.45064 -245.273757 
L 203.209515 -242.736536 
L 195.96839 -240.206363 
L 188.727265 -237.687533 
L 181.486139 -235.185655 
L 174.245014 -232.707722 
L 167.003889 -230.261793 
L 159.762764 -227.856017 
L 152.521639 -225.496972 
L 145.280513 -223.187903 
L 138.039388 -220.927874 
L 130.798263 -218.712427 
L 123.557138 -216.535219 
L 116.316013 -214.389643 
L 109.074887 -212.269848 
L 101.833762 -210.171146 
L 94.592637 -208.090039 
L 87.351512 -206.024113 
L 80.110387 -203.971928 
L 72.869261 -201.933147 
z
" style="stroke: #ec5d57; stroke-opacity: 0.4"/>
    </defs>
    <g clip-path="url(#p5c3b059ce6)">
     <use xlink:href="#m6391370441" x="0" y="340.838125" style="fill: #ec5d57; fill-opacity: 0.4; stroke: #ec5d57; stroke-opacity: 0.4"/>
    </g>
   </g>
   <g id="FillBetweenPolyCollection_3">
    <defs>
     <path id="m195f220f0f" d="M 72.869261 -178.690428 
L 72.869261 -171.959187 
L 80.110387 -174.900444 
L 87.351512 -177.796336 
L 94.592637 -180.644465 
L 101.833762 -183.439136 
L 109.074887 -186.17269 
L 116.316013 -188.837208 
L 123.557138 -191.427327 
L 130.798263 -193.94316 
L 138.039388 -196.391156 
L 145.280513 -198.782059 
L 152.521639 -201.127673 
L 159.762764 -203.43851 
L 167.003889 -205.722889 
L 174.245014 -207.986987 
L 181.486139 -210.235244 
L 188.727265 -212.47081 
L 195.96839 -214.695905 
L 203.209515 -216.912097 
L 210.45064 -219.120486 
L 217.691765 -221.321846 
L 224.93289 -223.516711 
L 232.174016 -225.705445 
L 239.415141 -227.888285 
L 246.656266 -230.065376 
L 253.897391 -232.236794 
L 261.138516 -234.402561 
L 268.379642 -236.562661 
L 275.620767 -238.717049 
L 282.861892 -240.865654 
L 290.103017 -243.008391 
L 297.344142 -245.145161 
L 304.585268 -247.275855 
L 311.826393 -249.400358 
L 319.067518 -251.518548 
L 326.308643 -253.630302 
L 333.549768 -255.735493 
L 340.790894 -257.833995 
L 348.032019 -259.92568 
L 355.273144 -262.010422 
L 362.514269 -264.088095 
L 369.755394 -266.158578 
L 376.99652 -268.221747 
L 384.237645 -270.277484 
L 391.47877 -272.325673 
L 398.719895 -274.366201 
L 405.96102 -276.398958 
L 413.202146 -278.423836 
L 420.443271 -280.440732 
L 427.684396 -282.449545 
L 427.684396 -306.658633 
L 427.684396 -306.658633 
L 420.443271 -304.06321 
L 413.202146 -301.466123 
L 405.96102 -298.867214 
L 398.719895 -296.266321 
L 391.47877 -293.663279 
L 384.237645 -291.057918 
L 376.99652 -288.450063 
L 369.755394 -285.839538 
L 362.514269 -283.226161 
L 355.273144 -280.609747 
L 348.032019 -277.990108 
L 340.790894 -275.367054 
L 333.549768 -272.740391 
L 326.308643 -270.109924 
L 319.067518 -267.475457 
L 311.826393 -264.836794 
L 304.585268 -262.193738 
L 297.344142 -259.546094 
L 290.103017 -256.893671 
L 282.861892 -254.236284 
L 275.620767 -251.573754 
L 268.379642 -248.905915 
L 261.138516 -246.232612 
L 253.897391 -243.553715 
L 246.656266 -240.869118 
L 239.415141 -238.178754 
L 232.174016 -235.482603 
L 224.93289 -232.780711 
L 217.691765 -230.073214 
L 210.45064 -227.360371 
L 203.209515 -224.642605 
L 195.96839 -221.920572 
L 188.727265 -219.195253 
L 181.486139 -216.468085 
L 174.245014 -213.741154 
L 167.003889 -211.017463 
L 159.762764 -208.301298 
L 152.521639 -205.598668 
L 145.280513 -202.917711 
L 138.039388 -200.26874 
L 130.798263 -197.663338 
L 123.557138 -195.112003 
L 116.316013 -192.620902 
L 109.074887 -190.18982 
L 101.833762 -187.813004 
L 94.592637 -185.482045 
L 87.351512 -183.188645 
L 80.110387 -180.926167 
L 72.869261 -178.690428 
z
" style="stroke: #70bf41; stroke-opacity: 0.4"/>
    </defs>
    <g clip-path="url(#p5c3b059ce6)">
     <use xlink:href="#m195f220f0f" x="0" y="340.838125" style="fill: #70bf41; fill-opacity: 0.4; stroke: #70bf41; stroke-opacity: 0.4"/>
    </g>
   </g>
   <g id="FillBetweenPolyCollection_4">
    <defs>
     <path id="m5e715ac6eb" d="M 72.869261 -142.523197 
L 72.869261 -134.417889 
L 80.110387 -137.472204 
L 87.351512 -140.478303 
L 94.592637 -143.435102 
L 101.833762 -146.339848 
L 109.074887 -149.189508 
L 116.316013 -151.981747 
L 123.557138 -154.715817 
L 130.798263 -157.393137 
L 138.039388 -160.017326 
L 145.280513 -162.593673 
L 152.521639 -165.128308 
L 159.762764 -167.627406 
L 167.003889 -170.096633 
L 174.245014 -172.540873 
L 181.486139 -174.964161 
L 188.727265 -177.369738 
L 195.96839 -179.760169 
L 203.209515 -182.137458 
L 210.45064 -184.503161 
L 217.691765 -186.858481 
L 224.93289 -189.204345 
L 232.174016 -191.541463 
L 239.415141 -193.870377 
L 246.656266 -196.191496 
L 253.897391 -198.505126 
L 261.138516 -200.811492 
L 268.379642 -203.110752 
L 275.620767 -205.403015 
L 282.861892 -207.688347 
L 290.103017 -209.966784 
L 297.344142 -212.238334 
L 304.585268 -214.502984 
L 311.826393 -216.760708 
L 319.067518 -219.011462 
L 326.308643 -221.255196 
L 333.549768 -223.491849 
L 340.790894 -225.721355 
L 348.032019 -227.943644 
L 355.273144 -230.158642 
L 362.514269 -232.366271 
L 369.755394 -234.566454 
L 376.99652 -236.759113 
L 384.237645 -238.944167 
L 391.47877 -241.121539 
L 398.719895 -243.291149 
L 405.96102 -245.452922 
L 413.202146 -247.60678 
L 420.443271 -249.75265 
L 427.684396 -251.89046 
L 427.684396 -278.797958 
L 427.684396 -278.797958 
L 420.443271 -276.014334 
L 413.202146 -273.229241 
L 405.96102 -270.442548 
L 398.719895 -267.654122 
L 391.47877 -264.86383 
L 384.237645 -262.071534 
L 376.99652 -259.277095 
L 369.755394 -256.480374 
L 362.514269 -253.681229 
L 355.273144 -250.879517 
L 348.032019 -248.075096 
L 340.790894 -245.267824 
L 333.549768 -242.45756 
L 326.308643 -239.644165 
L 319.067518 -236.827504 
L 311.826393 -234.007446 
L 304.585268 -231.183868 
L 297.344142 -228.356654 
L 290.103017 -225.5257 
L 282.861892 -222.690917 
L 275.620767 -219.852236 
L 268.379642 -217.009608 
L 261.138516 -214.163018 
L 253.897391 -211.312488 
L 246.656266 -208.458088 
L 239.415141 -205.599952 
L 232.174016 -202.73829 
L 224.93289 -199.873414 
L 217.691765 -197.005764 
L 210.45064 -194.135945 
L 203.209515 -191.264771 
L 195.96839 -188.393332 
L 188.727265 -185.523059 
L 181.486139 -182.65583 
L 174.245014 -179.794072 
L 167.003889 -176.940882 
L 159.762764 -174.10014 
L 152.521639 -171.276561 
L 145.280513 -168.475632 
L 138.039388 -165.703327 
L 130.798263 -162.965556 
L 123.557138 -160.267362 
L 116.316013 -157.612081 
L 109.074887 -155.000806 
L 101.833762 -152.432396 
L 94.592637 -149.904031 
L 87.351512 -147.412034 
L 80.110387 -144.952712 
L 72.869261 -142.523197 
z
" style="stroke: #51a7f9; stroke-opacity: 0.4"/>
    </defs>
    <g clip-path="url(#p5c3b059ce6)">
     <use xlink:href="#m5e715ac6eb" x="0" y="340.838125" style="fill: #51a7f9; fill-opacity: 0.4; stroke: #51a7f9; stroke-opacity: 0.4"/>
    </g>
   </g>
   <g id="FillBetweenPolyCollection_5">
    <defs>
     <path id="m80f9b93813" d="M 72.869261 -107.46755 
L 72.869261 -95.169021 
L 80.110387 -98.320638 
L 87.351512 -101.431642 
L 94.592637 -104.502964 
L 101.833762 -107.534365 
L 109.074887 -110.525248 
L 116.316013 -113.474983 
L 123.557138 -116.383123 
L 130.798263 -119.249584 
L 138.039388 -122.074767 
L 145.280513 -124.859618 
L 152.521639 -127.605624 
L 159.762764 -130.314737 
L 167.003889 -132.989262 
L 174.245014 -135.631715 
L 181.486139 -138.244688 
L 188.727265 -140.830732 
L 195.96839 -143.392271 
L 203.209515 -145.931541 
L 210.45064 -148.450563 
L 217.691765 -150.95113 
L 224.93289 -153.434812 
L 232.174016 -155.902971 
L 239.415141 -158.356777 
L 246.656266 -160.797232 
L 253.897391 -163.225187 
L 261.138516 -165.641364 
L 268.379642 -168.046373 
L 275.620767 -170.440729 
L 282.861892 -172.824864 
L 290.103017 -175.199141 
L 297.344142 -177.563862 
L 304.585268 -179.919281 
L 311.826393 -182.265606 
L 319.067518 -184.603012 
L 326.308643 -186.93164 
L 333.549768 -189.251606 
L 340.790894 -191.563005 
L 348.032019 -193.865909 
L 355.273144 -196.160379 
L 362.514269 -198.446458 
L 369.755394 -200.72418 
L 376.99652 -202.993567 
L 384.237645 -205.254635 
L 391.47877 -207.507391 
L 398.719895 -209.751837 
L 405.96102 -211.98797 
L 413.202146 -214.215782 
L 420.443271 -216.435264 
L 427.684396 -218.646401 
L 427.684396 -248.873824 
L 427.684396 -248.873824 
L 420.443271 -245.932431 
L 413.202146 -242.990012 
L 405.96102 -240.046494 
L 398.719895 -237.101811 
L 391.47877 -234.155894 
L 384.237645 -231.208683 
L 376.99652 -228.260117 
L 369.755394 -225.310143 
L 362.514269 -222.358714 
L 355.273144 -219.405789 
L 348.032019 -216.451337 
L 340.790894 -213.495337 
L 333.549768 -210.537781 
L 326.308643 -207.578674 
L 319.067518 -204.618042 
L 311.826393 -201.65593 
L 304.585268 -198.692407 
L 297.344142 -195.727573 
L 290.103017 -192.761563 
L 282.861892 -189.794551 
L 275.620767 -186.826763 
L 268.379642 -183.858478 
L 261.138516 -180.890047 
L 253.897391 -177.921897 
L 246.656266 -174.95455 
L 239.415141 -171.988637 
L 232.174016 -169.024915 
L 224.93289 -166.064286 
L 217.691765 -163.10782 
L 210.45064 -160.156772 
L 203.209515 -157.212602 
L 195.96839 -154.276987 
L 188.727265 -151.351826 
L 181.486139 -148.439226 
L 174.245014 -145.541475 
L 167.003889 -142.660979 
L 159.762764 -139.800176 
L 152.521639 -136.961413 
L 145.280513 -134.146813 
L 138.039388 -131.358131 
L 130.798263 -128.596632 
L 123.557138 -125.863016 
L 116.316013 -123.157403 
L 109.074887 -120.479379 
L 101.833762 -117.828109 
L 94.592637 -115.202473 
L 87.351512 -112.601233 
L 80.110387 -110.023211 
L 72.869261 -107.46755 
z
" style="stroke: #6a5acd; stroke-opacity: 0.4"/>
    </defs>
    <g clip-path="url(#p5c3b059ce6)">
     <use xlink:href="#m80f9b93813" x="0" y="340.838125" style="fill: #6a5acd; fill-opacity: 0.4; stroke: #6a5acd; stroke-opacity: 0.4"/>
    </g>
   </g>
   <g id="matplotlib.axis_1">
    <g id="xtick_1">
     <g id="line2d_1">
      <defs>
       <path id="m59985db1f0" d="M 0 0 
L 0 3.5 
" style="stroke: #000000; stroke-width: 0.8"/>
      </defs>
      <g>
       <use xlink:href="#m59985db1f0" x="72.483847" y="300.96" style="stroke: #000000; stroke-width: 0.8"/>
      </g>
     </g>
     <g id="text_1">
      <!-- 0.00 -->
      <g transform="translate(61.351034 315.558438) scale(0.1 -0.1)">
       <defs>
        <path id="DejaVuSans-30" d="M 2034 4250 
Q 1547 4250 1301 3770 
Q 1056 3291 1056 2328 
Q 1056 1369 1301 889 
Q 1547 409 2034 409 
Q 2525 409 2770 889 
Q 3016 1369 3016 2328 
Q 3016 3291 2770 3770 
Q 2525 4250 2034 4250 
z
M 2034 4750 
Q 2819 4750 3233 4129 
Q 3647 3509 3647 2328 
Q 3647 1150 3233 529 
Q 2819 -91 2034 -91 
Q 1250 -91 836 529 
Q 422 1150 422 2328 
Q 422 3509 836 4129 
Q 1250 4750 2034 4750 
z
" transform="scale(0.015625)"/>
        <path id="DejaVuSans-2e" d="M 684 794 
L 1344 794 
L 1344 0 
L 684 0 
L 684 794 
z
" transform="scale(0.015625)"/>
       </defs>
       <use xlink:href="#DejaVuSans-30"/>
       <use xlink:href="#DejaVuSans-2e" transform="translate(63.623047 0)"/>
       <use xlink:href="#DejaVuSans-30" transform="translate(95.410156 0)"/>
       <use xlink:href="#DejaVuSans-30" transform="translate(159.033203 0)"/>
      </g>
     </g>
    </g>
    <g id="xtick_2">
     <g id="line2d_2">
      <g>
       <use xlink:href="#m59985db1f0" x="149.566781" y="300.96" style="stroke: #000000; stroke-width: 0.8"/>
      </g>
     </g>
     <g id="text_2">
      <!-- 0.02 -->
      <g transform="translate(138.433969 315.558438) scale(0.1 -0.1)">
       <defs>
        <path id="DejaVuSans-32" d="M 1228 531 
L 3431 531 
L 3431 0 
L 469 0 
L 469 531 
Q 828 903 1448 1529 
Q 2069 2156 2228 2338 
Q 2531 2678 2651 2914 
Q 2772 3150 2772 3378 
Q 2772 3750 2511 3984 
Q 2250 4219 1831 4219 
Q 1534 4219 1204 4116 
Q 875 4013 500 3803 
L 500 4441 
Q 881 4594 1212 4672 
Q 1544 4750 1819 4750 
Q 2544 4750 2975 4387 
Q 3406 4025 3406 3419 
Q 3406 3131 3298 2873 
Q 3191 2616 2906 2266 
Q 2828 2175 2409 1742 
Q 1991 1309 1228 531 
z
" transform="scale(0.015625)"/>
       </defs>
       <use xlink:href="#DejaVuSans-30"/>
       <use xlink:href="#DejaVuSans-2e" transform="translate(63.623047 0)"/>
       <use xlink:href="#DejaVuSans-30" transform="translate(95.410156 0)"/>
       <use xlink:href="#DejaVuSans-32" transform="translate(159.033203 0)"/>
      </g>
     </g>
    </g>
    <g id="xtick_3">
     <g id="line2d_3">
      <g>
       <use xlink:href="#m59985db1f0" x="226.649716" y="300.96" style="stroke: #000000; stroke-width: 0.8"/>
      </g>
     </g>
     <g id="text_3">
      <!-- 0.04 -->
      <g transform="translate(215.516904 315.558438) scale(0.1 -0.1)">
       <defs>
        <path id="DejaVuSans-34" d="M 2419 4116 
L 825 1625 
L 2419 1625 
L 2419 4116 
z
M 2253 4666 
L 3047 4666 
L 3047 1625 
L 3713 1625 
L 3713 1100 
L 3047 1100 
L 3047 0 
L 2419 0 
L 2419 1100 
L 313 1100 
L 313 1709 
L 2253 4666 
z
" transform="scale(0.015625)"/>
       </defs>
       <use xlink:href="#DejaVuSans-30"/>
       <use xlink:href="#DejaVuSans-2e" transform="translate(63.623047 0)"/>
       <use xlink:href="#DejaVuSans-30" transform="translate(95.410156 0)"/>
       <use xlink:href="#DejaVuSans-34" transform="translate(159.033203 0)"/>
      </g>
     </g>
    </g>
    <g id="xtick_4">
     <g id="line2d_4">
      <g>
       <use xlink:href="#m59985db1f0" x="303.732651" y="300.96" style="stroke: #000000; stroke-width: 0.8"/>
      </g>
     </g>
     <g id="text_4">
      <!-- 0.06 -->
      <g transform="translate(292.599839 315.558438) scale(0.1 -0.1)">
       <defs>
        <path id="DejaVuSans-36" d="M 2113 2584 
Q 1688 2584 1439 2293 
Q 1191 2003 1191 1497 
Q 1191 994 1439 701 
Q 1688 409 2113 409 
Q 2538 409 2786 701 
Q 3034 994 3034 1497 
Q 3034 2003 2786 2293 
Q 2538 2584 2113 2584 
z
M 3366 4563 
L 3366 3988 
Q 3128 4100 2886 4159 
Q 2644 4219 2406 4219 
Q 1781 4219 1451 3797 
Q 1122 3375 1075 2522 
Q 1259 2794 1537 2939 
Q 1816 3084 2150 3084 
Q 2853 3084 3261 2657 
Q 3669 2231 3669 1497 
Q 3669 778 3244 343 
Q 2819 -91 2113 -91 
Q 1303 -91 875 529 
Q 447 1150 447 2328 
Q 447 3434 972 4092 
Q 1497 4750 2381 4750 
Q 2619 4750 2861 4703 
Q 3103 4656 3366 4563 
z
" transform="scale(0.015625)"/>
       </defs>
       <use xlink:href="#DejaVuSans-30"/>
       <use xlink:href="#DejaVuSans-2e" transform="translate(63.623047 0)"/>
       <use xlink:href="#DejaVuSans-30" transform="translate(95.410156 0)"/>
       <use xlink:href="#DejaVuSans-36" transform="translate(159.033203 0)"/>
      </g>
     </g>
    </g>
    <g id="xtick_5">
     <g id="line2d_5">
      <g>
       <use xlink:href="#m59985db1f0" x="380.815586" y="300.96" style="stroke: #000000; stroke-width: 0.8"/>
      </g>
     </g>
     <g id="text_5">
      <!-- 0.08 -->
      <g transform="translate(369.682773 315.558438) scale(0.1 -0.1)">
       <defs>
        <path id="DejaVuSans-38" d="M 2034 2216 
Q 1584 2216 1326 1975 
Q 1069 1734 1069 1313 
Q 1069 891 1326 650 
Q 1584 409 2034 409 
Q 2484 409 2743 651 
Q 3003 894 3003 1313 
Q 3003 1734 2745 1975 
Q 2488 2216 2034 2216 
z
M 1403 2484 
Q 997 2584 770 2862 
Q 544 3141 544 3541 
Q 544 4100 942 4425 
Q 1341 4750 2034 4750 
Q 2731 4750 3128 4425 
Q 3525 4100 3525 3541 
Q 3525 3141 3298 2862 
Q 3072 2584 2669 2484 
Q 3125 2378 3379 2068 
Q 3634 1759 3634 1313 
Q 3634 634 3220 271 
Q 2806 -91 2034 -91 
Q 1263 -91 848 271 
Q 434 634 434 1313 
Q 434 1759 690 2068 
Q 947 2378 1403 2484 
z
M 1172 3481 
Q 1172 3119 1398 2916 
Q 1625 2713 2034 2713 
Q 2441 2713 2670 2916 
Q 2900 3119 2900 3481 
Q 2900 3844 2670 4047 
Q 2441 4250 2034 4250 
Q 1625 4250 1398 4047 
Q 1172 3844 1172 3481 
z
" transform="scale(0.015625)"/>
       </defs>
       <use xlink:href="#DejaVuSans-30"/>
       <use xlink:href="#DejaVuSans-2e" transform="translate(63.623047 0)"/>
       <use xlink:href="#DejaVuSans-30" transform="translate(95.410156 0)"/>
       <use xlink:href="#DejaVuSans-38" transform="translate(159.033203 0)"/>
      </g>
     </g>
    </g>
    <g id="text_6">
     <!-- $l^2_F = m_\pi^2 / (4 \pi F_\pi)^2$ -->
     <g transform="translate(213.855625 330.738125) scale(0.1 -0.1)">
      <defs>
       <path id="DejaVuSans-Oblique-6c" d="M 1172 4863 
L 1747 4863 
L 800 0 
L 225 0 
L 1172 4863 
z
" transform="scale(0.015625)"/>
       <path id="DejaVuSans-Oblique-46" d="M 1081 4666 
L 3756 4666 
L 3653 4134 
L 1606 4134 
L 1338 2759 
L 3188 2759 
L 3084 2228 
L 1234 2228 
L 800 0 
L 172 0 
L 1081 4666 
z
" transform="scale(0.015625)"/>
       <path id="DejaVuSans-3d" d="M 678 2906 
L 4684 2906 
L 4684 2381 
L 678 2381 
L 678 2906 
z
M 678 1631 
L 4684 1631 
L 4684 1100 
L 678 1100 
L 678 1631 
z
" transform="scale(0.015625)"/>
       <path id="DejaVuSans-Oblique-6d" d="M 5747 2113 
L 5338 0 
L 4763 0 
L 5166 2094 
Q 5191 2228 5203 2325 
Q 5216 2422 5216 2491 
Q 5216 2772 5059 2928 
Q 4903 3084 4622 3084 
Q 4203 3084 3875 2770 
Q 3547 2456 3450 1953 
L 3066 0 
L 2491 0 
L 2900 2094 
Q 2925 2209 2937 2307 
Q 2950 2406 2950 2484 
Q 2950 2769 2794 2926 
Q 2638 3084 2363 3084 
Q 1938 3084 1609 2770 
Q 1281 2456 1184 1953 
L 800 0 
L 225 0 
L 909 3500 
L 1484 3500 
L 1375 2956 
Q 1609 3263 1923 3423 
Q 2238 3584 2597 3584 
Q 2978 3584 3223 3384 
Q 3469 3184 3519 2828 
Q 3781 3197 4126 3390 
Q 4472 3584 4856 3584 
Q 5306 3584 5551 3325 
Q 5797 3066 5797 2591 
Q 5797 2488 5784 2364 
Q 5772 2241 5747 2113 
z
" transform="scale(0.015625)"/>
       <path id="DejaVuSans-Oblique-3c0" d="M 584 3500 
L 3938 3500 
L 3825 2925 
L 3384 2925 
L 2966 775 
Q 2922 550 2981 450 
Q 3038 353 3209 353 
Q 3256 353 3325 363 
Q 3397 369 3419 372 
L 3338 -44 
Q 3222 -84 3103 -103 
Q 2981 -122 2866 -122 
Q 2491 -122 2388 81 
Q 2284 288 2391 838 
L 2797 2925 
L 1506 2925 
L 938 0 
L 350 0 
L 919 2925 
L 472 2925 
L 584 3500 
z
" transform="scale(0.015625)"/>
       <path id="DejaVuSans-2f" d="M 1625 4666 
L 2156 4666 
L 531 -594 
L 0 -594 
L 1625 4666 
z
" transform="scale(0.015625)"/>
       <path id="DejaVuSans-28" d="M 1984 4856 
Q 1566 4138 1362 3434 
Q 1159 2731 1159 2009 
Q 1159 1288 1364 580 
Q 1569 -128 1984 -844 
L 1484 -844 
Q 1016 -109 783 600 
Q 550 1309 550 2009 
Q 550 2706 781 3412 
Q 1013 4119 1484 4856 
L 1984 4856 
z
" transform="scale(0.015625)"/>
       <path id="DejaVuSans-29" d="M 513 4856 
L 1013 4856 
Q 1481 4119 1714 3412 
Q 1947 2706 1947 2009 
Q 1947 1309 1714 600 
Q 1481 -109 1013 -844 
L 513 -844 
Q 928 -128 1133 580 
Q 1338 1288 1338 2009 
Q 1338 2731 1133 3434 
Q 928 4138 513 4856 
z
" transform="scale(0.015625)"/>
      </defs>
      <use xlink:href="#DejaVuSans-Oblique-6c" transform="translate(0 0.765625)"/>
      <use xlink:href="#DejaVuSans-32" transform="translate(35.230911 39.046875) scale(0.7)"/>
      <use xlink:href="#DejaVuSans-Oblique-46" transform="translate(27.783203 -26.578125) scale(0.7)"/>
      <use xlink:href="#DejaVuSans-3d" transform="translate(101.983841 0.765625)"/>
      <use xlink:href="#DejaVuSans-Oblique-6d" transform="translate(205.255326 0.765625)"/>
      <use xlink:href="#DejaVuSans-32" transform="translate(307.317331 39.046875) scale(0.7)"/>
      <use xlink:href="#DejaVuSans-Oblique-3c0" transform="translate(302.667435 -26.578125) scale(0.7)"/>
      <use xlink:href="#DejaVuSans-2f" transform="translate(354.587839 0.765625)"/>
      <use xlink:href="#DejaVuSans-28" transform="translate(388.279245 0.765625)"/>
      <use xlink:href="#DejaVuSans-34" transform="translate(427.292917 0.765625)"/>
      <use xlink:href="#DejaVuSans-Oblique-3c0" transform="translate(490.915964 0.765625)"/>
      <use xlink:href="#DejaVuSans-Oblique-46" transform="translate(551.121042 0.765625)"/>
      <use xlink:href="#DejaVuSans-Oblique-3c0" transform="translate(608.640573 -15.640625) scale(0.7)"/>
      <use xlink:href="#DejaVuSans-29" transform="translate(653.518503 0.765625)"/>
      <use xlink:href="#DejaVuSans-32" transform="translate(693.489206 39.046875) scale(0.7)"/>
     </g>
    </g>
   </g>
   <g id="matplotlib.axis_2">
    <g id="ytick_1">
     <g id="line2d_6">
      <defs>
       <path id="mce1c96f536" d="M 0 0 
L -3.5 0 
" style="stroke: #000000; stroke-width: 0.8"/>
      </defs>
      <g>
       <use xlink:href="#mce1c96f536" x="55.065625" y="267.199881" style="stroke: #000000; stroke-width: 0.8"/>
      </g>
     </g>
     <g id="text_7">
      <!-- 1.20 -->
      <g transform="translate(25.8 270.9991) scale(0.1 -0.1)">
       <defs>
        <path id="DejaVuSans-31" d="M 794 531 
L 1825 531 
L 1825 4091 
L 703 3866 
L 703 4441 
L 1819 4666 
L 2450 4666 
L 2450 531 
L 3481 531 
L 3481 0 
L 794 0 
L 794 531 
z
" transform="scale(0.015625)"/>
       </defs>
       <use xlink:href="#DejaVuSans-31"/>
       <use xlink:href="#DejaVuSans-2e" transform="translate(63.623047 0)"/>
       <use xlink:href="#DejaVuSans-32" transform="translate(95.410156 0)"/>
       <use xlink:href="#DejaVuSans-30" transform="translate(159.033203 0)"/>
      </g>
     </g>
    </g>
    <g id="ytick_2">
     <g id="line2d_7">
      <g>
       <use xlink:href="#mce1c96f536" x="55.065625" y="216.206186" style="stroke: #000000; stroke-width: 0.8"/>
      </g>
     </g>
     <g id="text_8">
      <!-- 1.25 -->
      <g transform="translate(25.8 220.005405) scale(0.1 -0.1)">
       <defs>
        <path id="DejaVuSans-35" d="M 691 4666 
L 3169 4666 
L 3169 4134 
L 1269 4134 
L 1269 2991 
Q 1406 3038 1543 3061 
Q 1681 3084 1819 3084 
Q 2600 3084 3056 2656 
Q 3513 2228 3513 1497 
Q 3513 744 3044 326 
Q 2575 -91 1722 -91 
Q 1428 -91 1123 -41 
Q 819 9 494 109 
L 494 744 
Q 775 591 1075 516 
Q 1375 441 1709 441 
Q 2250 441 2565 725 
Q 2881 1009 2881 1497 
Q 2881 1984 2565 2268 
Q 2250 2553 1709 2553 
Q 1456 2553 1204 2497 
Q 953 2441 691 2322 
L 691 4666 
z
" transform="scale(0.015625)"/>
       </defs>
       <use xlink:href="#DejaVuSans-31"/>
       <use xlink:href="#DejaVuSans-2e" transform="translate(63.623047 0)"/>
       <use xlink:href="#DejaVuSans-32" transform="translate(95.410156 0)"/>
       <use xlink:href="#DejaVuSans-35" transform="translate(159.033203 0)"/>
      </g>
     </g>
    </g>
    <g id="ytick_3">
     <g id="line2d_8">
      <g>
       <use xlink:href="#mce1c96f536" x="55.065625" y="165.212491" style="stroke: #000000; stroke-width: 0.8"/>
      </g>
     </g>
     <g id="text_9">
      <!-- 1.30 -->
      <g transform="translate(25.8 169.011709) scale(0.1 -0.1)">
       <defs>
        <path id="DejaVuSans-33" d="M 2597 2516 
Q 3050 2419 3304 2112 
Q 3559 1806 3559 1356 
Q 3559 666 3084 287 
Q 2609 -91 1734 -91 
Q 1441 -91 1130 -33 
Q 819 25 488 141 
L 488 750 
Q 750 597 1062 519 
Q 1375 441 1716 441 
Q 2309 441 2620 675 
Q 2931 909 2931 1356 
Q 2931 1769 2642 2001 
Q 2353 2234 1838 2234 
L 1294 2234 
L 1294 2753 
L 1863 2753 
Q 2328 2753 2575 2939 
Q 2822 3125 2822 3475 
Q 2822 3834 2567 4026 
Q 2313 4219 1838 4219 
Q 1578 4219 1281 4162 
Q 984 4106 628 3988 
L 628 4550 
Q 988 4650 1302 4700 
Q 1616 4750 1894 4750 
Q 2613 4750 3031 4423 
Q 3450 4097 3450 3541 
Q 3450 3153 3228 2886 
Q 3006 2619 2597 2516 
z
" transform="scale(0.015625)"/>
       </defs>
       <use xlink:href="#DejaVuSans-31"/>
       <use xlink:href="#DejaVuSans-2e" transform="translate(63.623047 0)"/>
       <use xlink:href="#DejaVuSans-33" transform="translate(95.410156 0)"/>
       <use xlink:href="#DejaVuSans-30" transform="translate(159.033203 0)"/>
      </g>
     </g>
    </g>
    <g id="ytick_4">
     <g id="line2d_9">
      <g>
       <use xlink:href="#mce1c96f536" x="55.065625" y="114.218796" style="stroke: #000000; stroke-width: 0.8"/>
      </g>
     </g>
     <g id="text_10">
      <!-- 1.35 -->
      <g transform="translate(25.8 118.018014) scale(0.1 -0.1)">
       <use xlink:href="#DejaVuSans-31"/>
       <use xlink:href="#DejaVuSans-2e" transform="translate(63.623047 0)"/>
       <use xlink:href="#DejaVuSans-33" transform="translate(95.410156 0)"/>
       <use xlink:href="#DejaVuSans-35" transform="translate(159.033203 0)"/>
      </g>
     </g>
    </g>
    <g id="ytick_5">
     <g id="line2d_10">
      <g>
       <use xlink:href="#mce1c96f536" x="55.065625" y="63.2251" style="stroke: #000000; stroke-width: 0.8"/>
      </g>
     </g>
     <g id="text_11">
      <!-- 1.40 -->
      <g transform="translate(25.8 67.024319) scale(0.1 -0.1)">
       <use xlink:href="#DejaVuSans-31"/>
       <use xlink:href="#DejaVuSans-2e" transform="translate(63.623047 0)"/>
       <use xlink:href="#DejaVuSans-34" transform="translate(95.410156 0)"/>
       <use xlink:href="#DejaVuSans-30" transform="translate(159.033203 0)"/>
      </g>
     </g>
    </g>
    <g id="ytick_6">
     <g id="line2d_11">
      <g>
       <use xlink:href="#mce1c96f536" x="55.065625" y="12.231405" style="stroke: #000000; stroke-width: 0.8"/>
      </g>
     </g>
     <g id="text_12">
      <!-- 1.45 -->
      <g transform="translate(25.8 16.030624) scale(0.1 -0.1)">
       <use xlink:href="#DejaVuSans-31"/>
       <use xlink:href="#DejaVuSans-2e" transform="translate(63.623047 0)"/>
       <use xlink:href="#DejaVuSans-34" transform="translate(95.410156 0)"/>
       <use xlink:href="#DejaVuSans-35" transform="translate(159.033203 0)"/>
      </g>
     </g>
    </g>
    <g id="text_13">
     <!-- $m_\Omega \sqrt{t_0 / a^2}$ -->
     <g transform="translate(19.720313 178.68) rotate(-90) scale(0.1 -0.1)">
      <defs>
       <path id="DejaVuSans-3a9" d="M 4647 556 
L 4647 0 
L 2772 0 
L 2772 556 
Q 3325 859 3634 1378 
Q 3944 1897 3944 2528 
Q 3944 3278 3531 3731 
Q 3119 4184 2444 4184 
Q 1769 4184 1355 3729 
Q 941 3275 941 2528 
Q 941 1897 1250 1378 
Q 1563 859 2119 556 
L 2119 0 
L 244 0 
L 244 556 
L 1241 556 
Q 747 991 519 1456 
Q 294 1922 294 2497 
Q 294 3491 894 4106 
Q 1491 4722 2444 4722 
Q 3391 4722 3994 4106 
Q 4594 3494 4594 2528 
Q 4594 1922 4372 1459 
Q 4150 997 3647 556 
L 4647 556 
z
" transform="scale(0.015625)"/>
       <path id="STIXSizeOneSym-Regular-221a" d="M 6970 9933 
L 3373 -1888 
L 3104 -1888 
L 1626 2918 
Q 1555 3149 1465 3251 
Q 1376 3354 1229 3354 
Q 1011 3354 794 3181 
L 717 3309 
L 1766 4115 
L 1926 4115 
L 3379 -602 
L 3405 -602 
L 6605 9933 
L 6970 9933 
z
" transform="scale(0.015625)"/>
       <path id="DejaVuSans-Oblique-74" d="M 2706 3500 
L 2619 3053 
L 1472 3053 
L 1100 1153 
Q 1081 1047 1072 975 
Q 1063 903 1063 863 
Q 1063 663 1183 572 
Q 1303 481 1569 481 
L 2150 481 
L 2053 0 
L 1503 0 
Q 991 0 739 200 
Q 488 400 488 806 
Q 488 878 497 964 
Q 506 1050 525 1153 
L 897 3053 
L 409 3053 
L 500 3500 
L 978 3500 
L 1172 4494 
L 1747 4494 
L 1556 3500 
L 2706 3500 
z
" transform="scale(0.015625)"/>
       <path id="DejaVuSans-Oblique-61" d="M 3438 1997 
L 3047 0 
L 2472 0 
L 2578 531 
Q 2325 219 2001 64 
Q 1678 -91 1281 -91 
Q 834 -91 548 182 
Q 263 456 263 884 
Q 263 1497 752 1853 
Q 1241 2209 2100 2209 
L 2900 2209 
L 2931 2363 
Q 2938 2388 2941 2417 
Q 2944 2447 2944 2509 
Q 2944 2788 2717 2942 
Q 2491 3097 2081 3097 
Q 1800 3097 1504 3025 
Q 1209 2953 897 2809 
L 997 3341 
Q 1322 3463 1633 3523 
Q 1944 3584 2234 3584 
Q 2853 3584 3176 3315 
Q 3500 3047 3500 2534 
Q 3500 2431 3484 2292 
Q 3469 2153 3438 1997 
z
M 2816 1759 
L 2241 1759 
Q 1534 1759 1195 1570 
Q 856 1381 856 984 
Q 856 709 1029 553 
Q 1203 397 1509 397 
Q 1978 397 2328 733 
Q 2678 1069 2791 1631 
L 2816 1759 
z
" transform="scale(0.015625)"/>
      </defs>
      <use xlink:href="#DejaVuSans-Oblique-6d" transform="translate(0 0.870312)"/>
      <use xlink:href="#DejaVuSans-3a9" transform="translate(97.412109 -15.535937) scale(0.7)"/>
      <use xlink:href="#STIXSizeOneSym-Regular-221a" transform="translate(153.637695 5.59375) scale(0.751941)"/>
      <use xlink:href="#DejaVuSans-Oblique-74" transform="translate(245.676941 0.515625)"/>
      <use xlink:href="#DejaVuSans-30" transform="translate(284.885925 -15.890625) scale(0.7)"/>
      <use xlink:href="#DejaVuSans-2f" transform="translate(332.156433 0.515625)"/>
      <use xlink:href="#DejaVuSans-Oblique-61" transform="translate(365.847839 0.515625)"/>
      <use xlink:href="#DejaVuSans-32" transform="translate(431.777032 38.796875) scale(0.7)"/>
      <path d="M 233.176941 115.5 
L 233.176941 121.75 
L 491.54754 121.75 
L 491.54754 115.5 
L 233.176941 115.5 
z
"/>
     </g>
    </g>
   </g>
   <g id="line2d_12">
    <path d="M 124.721665 300.96 
L 124.721665 7.2 
" clip-path="url(#p5c3b059ce6)" style="fill: none; stroke-dasharray: 5.55,2.4; stroke-dashoffset: 0; stroke: #1f77b4; stroke-width: 1.5"/>
   </g>
   <g id="line2d_13">
    <path d="M 124.721665 300.96 
L 124.721665 7.2 
" clip-path="url(#p5c3b059ce6)" style="fill: none; stroke-dasharray: 5.55,2.4; stroke-dashoffset: 0; stroke: #1f77b4; stroke-width: 1.5"/>
   </g>
   <g id="line2d_14">
    <path d="M 124.721665 300.96 
L 124.721665 7.2 
" clip-path="url(#p5c3b059ce6)" style="fill: none; stroke-dasharray: 5.55,2.4; stroke-dashoffset: 0; stroke: #1f77b4; stroke-width: 1.5"/>
   </g>
   <g id="line2d_15">
    <path d="M 124.721665 300.96 
L 124.721665 7.2 
" clip-path="url(#p5c3b059ce6)" style="fill: none; stroke-dasharray: 5.55,2.4; stroke-dashoffset: 0; stroke: #1f77b4; stroke-width: 1.5"/>
   </g>
   <g id="line2d_16">
    <path d="M 124.721665 300.96 
L 124.721665 7.2 
" clip-path="url(#p5c3b059ce6)" style="fill: none; stroke-dasharray: 5.55,2.4; stroke-dashoffset: 0; stroke: #1f77b4; stroke-width: 1.5"/>
   </g>
   <g id="line2d_17">
    <path d="M 428.941989 33.784664 
L 426.426803 33.785761 
" clip-path="url(#p5c3b059ce6)" style="fill: none; stroke: #ec5d57; stroke-width: 2; stroke-linecap: square"/>
   </g>
   <g id="line2d_18">
    <path d="M 427.608287 21.565365 
L 427.760505 46.005059 
" clip-path="url(#p5c3b059ce6)" style="fill: none; stroke: #ec5d57; stroke-width: 2; stroke-linecap: square"/>
   </g>
   <g id="line2d_19">
    <path d="M 362.808512 55.989944 
L 360.648155 55.991516 
" clip-path="url(#p5c3b059ce6)" style="fill: none; stroke: #ec5d57; stroke-width: 2; stroke-linecap: square"/>
   </g>
   <g id="line2d_20">
    <path d="M 361.631524 46.671669 
L 361.825142 65.30979 
" clip-path="url(#p5c3b059ce6)" style="fill: none; stroke: #ec5d57; stroke-width: 2; stroke-linecap: square"/>
   </g>
   <g id="line2d_21">
    <path d="M 305.30648 64.786882 
L 303.521441 64.787869 
" clip-path="url(#p5c3b059ce6)" style="fill: none; stroke: #ec5d57; stroke-width: 2; stroke-linecap: square"/>
   </g>
   <g id="line2d_22">
    <path d="M 304.356748 57.539679 
L 304.471172 72.035072 
" clip-path="url(#p5c3b059ce6)" style="fill: none; stroke: #ec5d57; stroke-width: 2; stroke-linecap: square"/>
   </g>
   <g id="line2d_23">
    <path d="M 312.981129 65.734256 
L 311.662192 65.734774 
" clip-path="url(#p5c3b059ce6)" style="fill: none; stroke: #ec5d57; stroke-width: 2; stroke-linecap: square"/>
   </g>
   <g id="line2d_24">
    <path d="M 312.277607 57.883491 
L 312.365714 73.58554 
" clip-path="url(#p5c3b059ce6)" style="fill: none; stroke: #ec5d57; stroke-width: 2; stroke-linecap: square"/>
   </g>
   <g id="line2d_25">
    <path d="M 198.890061 104.297033 
L 198.04562 104.297709 
" clip-path="url(#p5c3b059ce6)" style="fill: none; stroke: #ec5d57; stroke-width: 2; stroke-linecap: square"/>
   </g>
   <g id="line2d_26">
    <path d="M 198.425732 100.616659 
L 198.509949 107.978083 
" clip-path="url(#p5c3b059ce6)" style="fill: none; stroke: #ec5d57; stroke-width: 2; stroke-linecap: square"/>
   </g>
   <g id="line2d_27">
    <path d="M 123.501133 130.364167 
L 123.164502 130.364669 
" clip-path="url(#p5c3b059ce6)" style="fill: none; stroke: #ec5d57; stroke-width: 2; stroke-linecap: square"/>
   </g>
   <g id="line2d_28">
    <path d="M 123.285431 128.141115 
L 123.380204 132.587721 
" clip-path="url(#p5c3b059ce6)" style="fill: none; stroke: #ec5d57; stroke-width: 2; stroke-linecap: square"/>
   </g>
   <g id="line2d_29">
    <path d="M 416.248908 52.301895 
L 413.90558 52.302925 
" clip-path="url(#p5c3b059ce6)" style="fill: none; stroke: #70bf41; stroke-width: 2; stroke-linecap: square"/>
   </g>
   <g id="line2d_30">
    <path d="M 415.002305 40.357667 
L 415.152183 64.247153 
" clip-path="url(#p5c3b059ce6)" style="fill: none; stroke: #70bf41; stroke-width: 2; stroke-linecap: square"/>
   </g>
   <g id="line2d_31">
    <path d="M 355.511983 80.00893 
L 352.681706 80.011756 
" clip-path="url(#p5c3b059ce6)" style="fill: none; stroke: #70bf41; stroke-width: 2; stroke-linecap: square"/>
   </g>
   <g id="line2d_32">
    <path d="M 353.956818 70.192584 
L 354.236872 89.828102 
" clip-path="url(#p5c3b059ce6)" style="fill: none; stroke: #70bf41; stroke-width: 2; stroke-linecap: square"/>
   </g>
   <g id="line2d_33">
    <path d="M 300.928592 94.102428 
L 299.158633 94.103609 
" clip-path="url(#p5c3b059ce6)" style="fill: none; stroke: #70bf41; stroke-width: 2; stroke-linecap: square"/>
   </g>
   <g id="line2d_34">
    <path d="M 299.956779 84.991199 
L 300.130445 103.214837 
" clip-path="url(#p5c3b059ce6)" style="fill: none; stroke: #70bf41; stroke-width: 2; stroke-linecap: square"/>
   </g>
   <g id="line2d_35">
    <path d="M 304.05706 91.19955 
L 302.176247 91.201256 
" clip-path="url(#p5c3b059ce6)" style="fill: none; stroke: #70bf41; stroke-width: 2; stroke-linecap: square"/>
   </g>
   <g id="line2d_36">
    <path d="M 303.006234 82.67581 
L 303.227073 99.724997 
" clip-path="url(#p5c3b059ce6)" style="fill: none; stroke: #70bf41; stroke-width: 2; stroke-linecap: square"/>
   </g>
   <g id="line2d_37">
    <path d="M 204.161327 139.348113 
L 202.903652 139.347824 
" clip-path="url(#p5c3b059ce6)" style="fill: none; stroke: #70bf41; stroke-width: 2; stroke-linecap: square"/>
   </g>
   <g id="line2d_38">
    <path d="M 203.554274 132.689996 
L 203.510705 146.005941 
" clip-path="url(#p5c3b059ce6)" style="fill: none; stroke: #70bf41; stroke-width: 2; stroke-linecap: square"/>
   </g>
   <g id="line2d_39">
    <path d="M 203.628761 124.946942 
L 202.157027 124.949344 
" clip-path="url(#p5c3b059ce6)" style="fill: none; stroke: #70bf41; stroke-width: 2; stroke-linecap: square"/>
   </g>
   <g id="line2d_40">
    <path d="M 202.774983 119.889119 
L 203.010805 130.007167 
" clip-path="url(#p5c3b059ce6)" style="fill: none; stroke: #70bf41; stroke-width: 2; stroke-linecap: square"/>
   </g>
   <g id="line2d_41">
    <path d="M 199.822207 126.142705 
L 198.659315 126.143826 
" clip-path="url(#p5c3b059ce6)" style="fill: none; stroke: #70bf41; stroke-width: 2; stroke-linecap: square"/>
   </g>
   <g id="line2d_42">
    <path d="M 199.166574 120.75765 
L 199.314948 131.528881 
" clip-path="url(#p5c3b059ce6)" style="fill: none; stroke: #70bf41; stroke-width: 2; stroke-linecap: square"/>
   </g>
   <g id="line2d_43">
    <path d="M 200.796785 128.844845 
L 199.639734 128.845462 
" clip-path="url(#p5c3b059ce6)" style="fill: none; stroke: #70bf41; stroke-width: 2; stroke-linecap: square"/>
   </g>
   <g id="line2d_44">
    <path d="M 200.150857 119.999648 
L 200.285661 137.69066 
" clip-path="url(#p5c3b059ce6)" style="fill: none; stroke: #70bf41; stroke-width: 2; stroke-linecap: square"/>
   </g>
   <g id="line2d_45">
    <path d="M 160.589977 136.747915 
L 159.885433 136.748796 
" clip-path="url(#p5c3b059ce6)" style="fill: none; stroke: #70bf41; stroke-width: 2; stroke-linecap: square"/>
   </g>
   <g id="line2d_46">
    <path d="M 160.16428 132.636724 
L 160.31113 140.859986 
" clip-path="url(#p5c3b059ce6)" style="fill: none; stroke: #70bf41; stroke-width: 2; stroke-linecap: square"/>
   </g>
   <g id="line2d_47">
    <path d="M 122.35871 158.320942 
L 121.786135 158.321564 
" clip-path="url(#p5c3b059ce6)" style="fill: none; stroke: #70bf41; stroke-width: 2; stroke-linecap: square"/>
   </g>
   <g id="line2d_48">
    <path d="M 122.01844 154.840117 
L 122.126405 161.802388 
" clip-path="url(#p5c3b059ce6)" style="fill: none; stroke: #70bf41; stroke-width: 2; stroke-linecap: square"/>
   </g>
   <g id="line2d_49">
    <path d="M 416.081251 81.332803 
L 413.624922 81.333126 
" clip-path="url(#p5c3b059ce6)" style="fill: none; stroke: #51a7f9; stroke-width: 2; stroke-linecap: square"/>
   </g>
   <g id="line2d_50">
    <path d="M 414.827653 67.795103 
L 414.87852 94.870825 
" clip-path="url(#p5c3b059ce6)" style="fill: none; stroke: #51a7f9; stroke-width: 2; stroke-linecap: square"/>
   </g>
   <g id="line2d_51">
    <path d="M 353.366399 117.464568 
L 350.938769 117.46543 
" clip-path="url(#p5c3b059ce6)" style="fill: none; stroke: #51a7f9; stroke-width: 2; stroke-linecap: square"/>
   </g>
   <g id="line2d_52">
    <path d="M 352.091896 105.500519 
L 352.213272 129.429479 
" clip-path="url(#p5c3b059ce6)" style="fill: none; stroke: #51a7f9; stroke-width: 2; stroke-linecap: square"/>
   </g>
   <g id="line2d_53">
    <path d="M 306.556179 125.435645 
L 304.838973 125.436296 
" clip-path="url(#p5c3b059ce6)" style="fill: none; stroke: #51a7f9; stroke-width: 2; stroke-linecap: square"/>
   </g>
   <g id="line2d_54">
    <path d="M 305.640674 114.923466 
L 305.754478 135.948475 
" clip-path="url(#p5c3b059ce6)" style="fill: none; stroke: #51a7f9; stroke-width: 2; stroke-linecap: square"/>
   </g>
   <g id="line2d_55">
    <path d="M 200.446376 169.172155 
L 199.407494 169.172809 
" clip-path="url(#p5c3b059ce6)" style="fill: none; stroke: #51a7f9; stroke-width: 2; stroke-linecap: square"/>
   </g>
   <g id="line2d_56">
    <path d="M 199.866681 162.473705 
L 199.98719 175.87126 
" clip-path="url(#p5c3b059ce6)" style="fill: none; stroke: #51a7f9; stroke-width: 2; stroke-linecap: square"/>
   </g>
   <g id="line2d_57">
    <path d="M 124.638754 202.45198 
L 124.07222 202.452565 
" clip-path="url(#p5c3b059ce6)" style="fill: none; stroke: #51a7f9; stroke-width: 2; stroke-linecap: square"/>
   </g>
   <g id="line2d_58">
    <path d="M 124.288854 197.928219 
L 124.42212 206.976325 
" clip-path="url(#p5c3b059ce6)" style="fill: none; stroke: #51a7f9; stroke-width: 2; stroke-linecap: square"/>
   </g>
   <g id="line2d_59">
    <path d="M 310.504113 149.698868 
L 307.826191 149.700794 
" clip-path="url(#p5c3b059ce6)" style="fill: none; stroke: #6a5acd; stroke-width: 2; stroke-linecap: square"/>
   </g>
   <g id="line2d_60">
    <path d="M 309.056353 139.106929 
L 309.273951 160.292732 
" clip-path="url(#p5c3b059ce6)" style="fill: none; stroke: #6a5acd; stroke-width: 2; stroke-linecap: square"/>
   </g>
   <g id="LineCollection_1"/>
   <g id="LineCollection_2"/>
   <g id="LineCollection_3"/>
   <g id="LineCollection_4"/>
   <g id="LineCollection_5"/>
   <g id="LineCollection_6"/>
   <g id="LineCollection_7"/>
   <g id="LineCollection_8"/>
   <g id="line2d_61"/>
   <g id="line2d_62"/>
   <g id="line2d_63"/>
   <g id="line2d_64"/>
   <g id="patch_3">
    <path d="M 55.065625 300.96 
L 55.065625 7.2 
" style="fill: none; stroke: #000000; stroke-width: 0.8; stroke-linejoin: miter; stroke-linecap: square"/>
   </g>
   <g id="patch_4">
    <path d="M 446.745625 300.96 
L 446.745625 7.2 
" style="fill: none; stroke: #000000; stroke-width: 0.8; stroke-linejoin: miter; stroke-linecap: square"/>
   </g>
   <g id="patch_5">
    <path d="M 55.065625 300.96 
L 446.745625 300.96 
" style="fill: none; stroke: #000000; stroke-width: 0.8; stroke-linejoin: miter; stroke-linecap: square"/>
   </g>
   <g id="patch_6">
    <path d="M 55.065625 7.2 
L 446.745625 7.2 
" style="fill: none; stroke: #000000; stroke-width: 0.8; stroke-linejoin: miter; stroke-linecap: square"/>
   </g>
   <g id="line2d_65">
    <path d="M 427.684396 33.785212 
" clip-path="url(#p5c3b059ce6)" style="fill: none; stroke: #ec5d57; stroke-width: 1.5; stroke-linecap: square"/>
    <defs>
     <path id="mc47fececef" d="M 0 3 
C 0.795609 3 1.55874 2.683901 2.12132 2.12132 
C 2.683901 1.55874 3 0.795609 3 0 
C 3 -0.795609 2.683901 -1.55874 2.12132 -2.12132 
C 1.55874 -2.683901 0.795609 -3 0 -3 
C -0.795609 -3 -1.55874 -2.683901 -2.12132 -2.12132 
C -2.683901 -1.55874 -3 -0.795609 -3 0 
C -3 0.795609 -2.683901 1.55874 -2.12132 2.12132 
C -1.55874 2.683901 -0.795609 3 0 3 
z
" style="stroke: #ffffff"/>
    </defs>
    <g clip-path="url(#p5c3b059ce6)">
     <use xlink:href="#mc47fececef" x="427.684396" y="33.785212" style="fill: #ec5d57; stroke: #ffffff"/>
    </g>
   </g>
   <g id="line2d_66">
    <path d="M 427.684396 33.785212 
" clip-path="url(#p5c3b059ce6)" style="fill: none; stroke: #ec5d57; stroke-width: 1.5; stroke-linecap: square"/>
    <g clip-path="url(#p5c3b059ce6)">
     <use xlink:href="#mc47fececef" x="427.684396" y="33.785212" style="fill: #ec5d57; stroke: #ffffff"/>
    </g>
   </g>
   <g id="line2d_67">
    <path d="M 361.728333 55.99073 
" clip-path="url(#p5c3b059ce6)" style="fill: none; stroke: #ec5d57; stroke-width: 1.5; stroke-linecap: square"/>
    <g clip-path="url(#p5c3b059ce6)">
     <use xlink:href="#mc47fececef" x="361.728333" y="55.99073" style="fill: #ec5d57; stroke: #ffffff"/>
    </g>
   </g>
   <g id="line2d_68">
    <path d="M 361.728333 55.99073 
" clip-path="url(#p5c3b059ce6)" style="fill: none; stroke: #ec5d57; stroke-width: 1.5; stroke-linecap: square"/>
    <g clip-path="url(#p5c3b059ce6)">
     <use xlink:href="#mc47fececef" x="361.728333" y="55.99073" style="fill: #ec5d57; stroke: #ffffff"/>
    </g>
   </g>
   <g id="line2d_69">
    <path d="M 304.41396 64.787376 
" clip-path="url(#p5c3b059ce6)" style="fill: none; stroke: #ec5d57; stroke-width: 1.5; stroke-linecap: square"/>
    <g clip-path="url(#p5c3b059ce6)">
     <use xlink:href="#mc47fececef" x="304.41396" y="64.787376" style="fill: #ec5d57; stroke: #ffffff"/>
    </g>
   </g>
   <g id="line2d_70">
    <path d="M 304.41396 64.787376 
" clip-path="url(#p5c3b059ce6)" style="fill: none; stroke: #ec5d57; stroke-width: 1.5; stroke-linecap: square"/>
    <g clip-path="url(#p5c3b059ce6)">
     <use xlink:href="#mc47fececef" x="304.41396" y="64.787376" style="fill: #ec5d57; stroke: #ffffff"/>
    </g>
   </g>
   <g id="line2d_71">
    <path d="M 312.32166 65.734515 
" clip-path="url(#p5c3b059ce6)" style="fill: none; stroke: #ec5d57; stroke-width: 1.5; stroke-linecap: square"/>
    <g clip-path="url(#p5c3b059ce6)">
     <use xlink:href="#mc47fececef" x="312.32166" y="65.734515" style="fill: #ec5d57; stroke: #ffffff"/>
    </g>
   </g>
   <g id="line2d_72">
    <path d="M 312.32166 65.734515 
" clip-path="url(#p5c3b059ce6)" style="fill: none; stroke: #ec5d57; stroke-width: 1.5; stroke-linecap: square"/>
    <g clip-path="url(#p5c3b059ce6)">
     <use xlink:href="#mc47fececef" x="312.32166" y="65.734515" style="fill: #ec5d57; stroke: #ffffff"/>
    </g>
   </g>
   <g id="line2d_73">
    <path d="M 198.46784 104.297371 
" clip-path="url(#p5c3b059ce6)" style="fill: none; stroke: #ec5d57; stroke-width: 1.5; stroke-linecap: square"/>
    <g clip-path="url(#p5c3b059ce6)">
     <use xlink:href="#mc47fececef" x="198.46784" y="104.297371" style="fill: #ec5d57; stroke: #ffffff"/>
    </g>
   </g>
   <g id="line2d_74">
    <path d="M 198.46784 104.297371 
" clip-path="url(#p5c3b059ce6)" style="fill: none; stroke: #ec5d57; stroke-width: 1.5; stroke-linecap: square"/>
    <g clip-path="url(#p5c3b059ce6)">
     <use xlink:href="#mc47fececef" x="198.46784" y="104.297371" style="fill: #ec5d57; stroke: #ffffff"/>
    </g>
   </g>
   <g id="line2d_75">
    <path d="M 123.332817 130.364418 
" clip-path="url(#p5c3b059ce6)" style="fill: none; stroke: #ec5d57; stroke-width: 1.5; stroke-linecap: square"/>
    <g clip-path="url(#p5c3b059ce6)">
     <use xlink:href="#mc47fececef" x="123.332817" y="130.364418" style="fill: #ec5d57; stroke: #ffffff"/>
    </g>
   </g>
   <g id="line2d_76">
    <path d="M 123.332817 130.364418 
" clip-path="url(#p5c3b059ce6)" style="fill: none; stroke: #ec5d57; stroke-width: 1.5; stroke-linecap: square"/>
    <g clip-path="url(#p5c3b059ce6)">
     <use xlink:href="#mc47fececef" x="123.332817" y="130.364418" style="fill: #ec5d57; stroke: #ffffff"/>
    </g>
   </g>
   <g id="line2d_77">
    <path d="M 415.077244 52.30241 
" clip-path="url(#p5c3b059ce6)" style="fill: none; stroke: #70bf41; stroke-width: 1.5; stroke-linecap: square"/>
    <defs>
     <path id="mc8ba48b90e" d="M 0 3 
C 0.795609 3 1.55874 2.683901 2.12132 2.12132 
C 2.683901 1.55874 3 0.795609 3 0 
C 3 -0.795609 2.683901 -1.55874 2.12132 -2.12132 
C 1.55874 -2.683901 0.795609 -3 0 -3 
C -0.795609 -3 -1.55874 -2.683901 -2.12132 -2.12132 
C -2.683901 -1.55874 -3 -0.795609 -3 0 
C -3 0.795609 -2.683901 1.55874 -2.12132 2.12132 
C -1.55874 2.683901 -0.795609 3 0 3 
z
" style="stroke: #ffffff"/>
    </defs>
    <g clip-path="url(#p5c3b059ce6)">
     <use xlink:href="#mc8ba48b90e" x="415.077244" y="52.30241" style="fill: #70bf41; stroke: #ffffff"/>
    </g>
   </g>
   <g id="line2d_78">
    <path d="M 415.077244 52.30241 
" clip-path="url(#p5c3b059ce6)" style="fill: none; stroke: #70bf41; stroke-width: 1.5; stroke-linecap: square"/>
    <g clip-path="url(#p5c3b059ce6)">
     <use xlink:href="#mc8ba48b90e" x="415.077244" y="52.30241" style="fill: #70bf41; stroke: #ffffff"/>
    </g>
   </g>
   <g id="line2d_79">
    <path d="M 354.096845 80.010343 
" clip-path="url(#p5c3b059ce6)" style="fill: none; stroke: #70bf41; stroke-width: 1.5; stroke-linecap: square"/>
    <g clip-path="url(#p5c3b059ce6)">
     <use xlink:href="#mc8ba48b90e" x="354.096845" y="80.010343" style="fill: #70bf41; stroke: #ffffff"/>
    </g>
   </g>
   <g id="line2d_80">
    <path d="M 354.096845 80.010343 
" clip-path="url(#p5c3b059ce6)" style="fill: none; stroke: #70bf41; stroke-width: 1.5; stroke-linecap: square"/>
    <g clip-path="url(#p5c3b059ce6)">
     <use xlink:href="#mc8ba48b90e" x="354.096845" y="80.010343" style="fill: #70bf41; stroke: #ffffff"/>
    </g>
   </g>
   <g id="line2d_81">
    <path d="M 300.043612 94.103018 
" clip-path="url(#p5c3b059ce6)" style="fill: none; stroke: #70bf41; stroke-width: 1.5; stroke-linecap: square"/>
    <g clip-path="url(#p5c3b059ce6)">
     <use xlink:href="#mc8ba48b90e" x="300.043612" y="94.103018" style="fill: #70bf41; stroke: #ffffff"/>
    </g>
   </g>
   <g id="line2d_82">
    <path d="M 300.043612 94.103018 
" clip-path="url(#p5c3b059ce6)" style="fill: none; stroke: #70bf41; stroke-width: 1.5; stroke-linecap: square"/>
    <g clip-path="url(#p5c3b059ce6)">
     <use xlink:href="#mc8ba48b90e" x="300.043612" y="94.103018" style="fill: #70bf41; stroke: #ffffff"/>
    </g>
   </g>
   <g id="line2d_83">
    <path d="M 303.116653 91.200403 
" clip-path="url(#p5c3b059ce6)" style="fill: none; stroke: #70bf41; stroke-width: 1.5; stroke-linecap: square"/>
    <g clip-path="url(#p5c3b059ce6)">
     <use xlink:href="#mc8ba48b90e" x="303.116653" y="91.200403" style="fill: #70bf41; stroke: #ffffff"/>
    </g>
   </g>
   <g id="line2d_84">
    <path d="M 303.116653 91.200403 
" clip-path="url(#p5c3b059ce6)" style="fill: none; stroke: #70bf41; stroke-width: 1.5; stroke-linecap: square"/>
    <g clip-path="url(#p5c3b059ce6)">
     <use xlink:href="#mc8ba48b90e" x="303.116653" y="91.200403" style="fill: #70bf41; stroke: #ffffff"/>
    </g>
   </g>
   <g id="line2d_85">
    <path d="M 203.53249 139.347968 
" clip-path="url(#p5c3b059ce6)" style="fill: none; stroke: #70bf41; stroke-width: 1.5; stroke-linecap: square"/>
    <g clip-path="url(#p5c3b059ce6)">
     <use xlink:href="#mc8ba48b90e" x="203.53249" y="139.347968" style="fill: #70bf41; stroke: #ffffff"/>
    </g>
   </g>
   <g id="line2d_86">
    <path d="M 203.53249 139.347968 
" clip-path="url(#p5c3b059ce6)" style="fill: none; stroke: #70bf41; stroke-width: 1.5; stroke-linecap: square"/>
    <g clip-path="url(#p5c3b059ce6)">
     <use xlink:href="#mc8ba48b90e" x="203.53249" y="139.347968" style="fill: #70bf41; stroke: #ffffff"/>
    </g>
   </g>
   <g id="line2d_87">
    <path d="M 202.892894 124.948143 
" clip-path="url(#p5c3b059ce6)" style="fill: none; stroke: #70bf41; stroke-width: 1.5; stroke-linecap: square"/>
    <g clip-path="url(#p5c3b059ce6)">
     <use xlink:href="#mc8ba48b90e" x="202.892894" y="124.948143" style="fill: #70bf41; stroke: #ffffff"/>
    </g>
   </g>
   <g id="line2d_88">
    <path d="M 202.892894 124.948143 
" clip-path="url(#p5c3b059ce6)" style="fill: none; stroke: #70bf41; stroke-width: 1.5; stroke-linecap: square"/>
    <g clip-path="url(#p5c3b059ce6)">
     <use xlink:href="#mc8ba48b90e" x="202.892894" y="124.948143" style="fill: #70bf41; stroke: #ffffff"/>
    </g>
   </g>
   <g id="line2d_89">
    <path d="M 199.240761 126.143265 
" clip-path="url(#p5c3b059ce6)" style="fill: none; stroke: #70bf41; stroke-width: 1.5; stroke-linecap: square"/>
    <g clip-path="url(#p5c3b059ce6)">
     <use xlink:href="#mc8ba48b90e" x="199.240761" y="126.143265" style="fill: #70bf41; stroke: #ffffff"/>
    </g>
   </g>
   <g id="line2d_90">
    <path d="M 199.240761 126.143265 
" clip-path="url(#p5c3b059ce6)" style="fill: none; stroke: #70bf41; stroke-width: 1.5; stroke-linecap: square"/>
    <g clip-path="url(#p5c3b059ce6)">
     <use xlink:href="#mc8ba48b90e" x="199.240761" y="126.143265" style="fill: #70bf41; stroke: #ffffff"/>
    </g>
   </g>
   <g id="line2d_91">
    <path d="M 200.218259 128.845154 
" clip-path="url(#p5c3b059ce6)" style="fill: none; stroke: #70bf41; stroke-width: 1.5; stroke-linecap: square"/>
    <g clip-path="url(#p5c3b059ce6)">
     <use xlink:href="#mc8ba48b90e" x="200.218259" y="128.845154" style="fill: #70bf41; stroke: #ffffff"/>
    </g>
   </g>
   <g id="line2d_92">
    <path d="M 200.218259 128.845154 
" clip-path="url(#p5c3b059ce6)" style="fill: none; stroke: #70bf41; stroke-width: 1.5; stroke-linecap: square"/>
    <g clip-path="url(#p5c3b059ce6)">
     <use xlink:href="#mc8ba48b90e" x="200.218259" y="128.845154" style="fill: #70bf41; stroke: #ffffff"/>
    </g>
   </g>
   <g id="line2d_93">
    <path d="M 160.237705 136.748355 
" clip-path="url(#p5c3b059ce6)" style="fill: none; stroke: #70bf41; stroke-width: 1.5; stroke-linecap: square"/>
    <g clip-path="url(#p5c3b059ce6)">
     <use xlink:href="#mc8ba48b90e" x="160.237705" y="136.748355" style="fill: #70bf41; stroke: #ffffff"/>
    </g>
   </g>
   <g id="line2d_94">
    <path d="M 160.237705 136.748355 
" clip-path="url(#p5c3b059ce6)" style="fill: none; stroke: #70bf41; stroke-width: 1.5; stroke-linecap: square"/>
    <g clip-path="url(#p5c3b059ce6)">
     <use xlink:href="#mc8ba48b90e" x="160.237705" y="136.748355" style="fill: #70bf41; stroke: #ffffff"/>
    </g>
   </g>
   <g id="line2d_95">
    <path d="M 122.072423 158.321253 
" clip-path="url(#p5c3b059ce6)" style="fill: none; stroke: #70bf41; stroke-width: 1.5; stroke-linecap: square"/>
    <g clip-path="url(#p5c3b059ce6)">
     <use xlink:href="#mc8ba48b90e" x="122.072423" y="158.321253" style="fill: #70bf41; stroke: #ffffff"/>
    </g>
   </g>
   <g id="line2d_96">
    <path d="M 122.072423 158.321253 
" clip-path="url(#p5c3b059ce6)" style="fill: none; stroke: #70bf41; stroke-width: 1.5; stroke-linecap: square"/>
    <g clip-path="url(#p5c3b059ce6)">
     <use xlink:href="#mc8ba48b90e" x="122.072423" y="158.321253" style="fill: #70bf41; stroke: #ffffff"/>
    </g>
   </g>
   <g id="line2d_97">
    <path d="M 414.853086 81.332964 
" clip-path="url(#p5c3b059ce6)" style="fill: none; stroke: #51a7f9; stroke-width: 1.5; stroke-linecap: square"/>
    <defs>
     <path id="m2c2c4fb107" d="M 0 3 
C 0.795609 3 1.55874 2.683901 2.12132 2.12132 
C 2.683901 1.55874 3 0.795609 3 0 
C 3 -0.795609 2.683901 -1.55874 2.12132 -2.12132 
C 1.55874 -2.683901 0.795609 -3 0 -3 
C -0.795609 -3 -1.55874 -2.683901 -2.12132 -2.12132 
C -2.683901 -1.55874 -3 -0.795609 -3 0 
C -3 0.795609 -2.683901 1.55874 -2.12132 2.12132 
C -1.55874 2.683901 -0.795609 3 0 3 
z
" style="stroke: #ffffff"/>
    </defs>
    <g clip-path="url(#p5c3b059ce6)">
     <use xlink:href="#m2c2c4fb107" x="414.853086" y="81.332964" style="fill: #51a7f9; stroke: #ffffff"/>
    </g>
   </g>
   <g id="line2d_98">
    <path d="M 414.853086 81.332964 
" clip-path="url(#p5c3b059ce6)" style="fill: none; stroke: #51a7f9; stroke-width: 1.5; stroke-linecap: square"/>
    <g clip-path="url(#p5c3b059ce6)">
     <use xlink:href="#m2c2c4fb107" x="414.853086" y="81.332964" style="fill: #51a7f9; stroke: #ffffff"/>
    </g>
   </g>
   <g id="line2d_99">
    <path d="M 352.152584 117.464999 
" clip-path="url(#p5c3b059ce6)" style="fill: none; stroke: #51a7f9; stroke-width: 1.5; stroke-linecap: square"/>
    <g clip-path="url(#p5c3b059ce6)">
     <use xlink:href="#m2c2c4fb107" x="352.152584" y="117.464999" style="fill: #51a7f9; stroke: #ffffff"/>
    </g>
   </g>
   <g id="line2d_100">
    <path d="M 352.152584 117.464999 
" clip-path="url(#p5c3b059ce6)" style="fill: none; stroke: #51a7f9; stroke-width: 1.5; stroke-linecap: square"/>
    <g clip-path="url(#p5c3b059ce6)">
     <use xlink:href="#m2c2c4fb107" x="352.152584" y="117.464999" style="fill: #51a7f9; stroke: #ffffff"/>
    </g>
   </g>
   <g id="line2d_101">
    <path d="M 305.697576 125.43597 
" clip-path="url(#p5c3b059ce6)" style="fill: none; stroke: #51a7f9; stroke-width: 1.5; stroke-linecap: square"/>
    <g clip-path="url(#p5c3b059ce6)">
     <use xlink:href="#m2c2c4fb107" x="305.697576" y="125.43597" style="fill: #51a7f9; stroke: #ffffff"/>
    </g>
   </g>
   <g id="line2d_102">
    <path d="M 305.697576 125.43597 
" clip-path="url(#p5c3b059ce6)" style="fill: none; stroke: #51a7f9; stroke-width: 1.5; stroke-linecap: square"/>
    <g clip-path="url(#p5c3b059ce6)">
     <use xlink:href="#m2c2c4fb107" x="305.697576" y="125.43597" style="fill: #51a7f9; stroke: #ffffff"/>
    </g>
   </g>
   <g id="line2d_103">
    <path d="M 199.926935 169.172482 
" clip-path="url(#p5c3b059ce6)" style="fill: none; stroke: #51a7f9; stroke-width: 1.5; stroke-linecap: square"/>
    <g clip-path="url(#p5c3b059ce6)">
     <use xlink:href="#m2c2c4fb107" x="199.926935" y="169.172482" style="fill: #51a7f9; stroke: #ffffff"/>
    </g>
   </g>
   <g id="line2d_104">
    <path d="M 199.926935 169.172482 
" clip-path="url(#p5c3b059ce6)" style="fill: none; stroke: #51a7f9; stroke-width: 1.5; stroke-linecap: square"/>
    <g clip-path="url(#p5c3b059ce6)">
     <use xlink:href="#m2c2c4fb107" x="199.926935" y="169.172482" style="fill: #51a7f9; stroke: #ffffff"/>
    </g>
   </g>
   <g id="line2d_105">
    <path d="M 124.355487 202.452272 
" clip-path="url(#p5c3b059ce6)" style="fill: none; stroke: #51a7f9; stroke-width: 1.5; stroke-linecap: square"/>
    <g clip-path="url(#p5c3b059ce6)">
     <use xlink:href="#m2c2c4fb107" x="124.355487" y="202.452272" style="fill: #51a7f9; stroke: #ffffff"/>
    </g>
   </g>
   <g id="line2d_106">
    <path d="M 124.355487 202.452272 
" clip-path="url(#p5c3b059ce6)" style="fill: none; stroke: #51a7f9; stroke-width: 1.5; stroke-linecap: square"/>
    <g clip-path="url(#p5c3b059ce6)">
     <use xlink:href="#m2c2c4fb107" x="124.355487" y="202.452272" style="fill: #51a7f9; stroke: #ffffff"/>
    </g>
   </g>
   <g id="line2d_107">
    <path d="M 309.165152 149.699831 
" clip-path="url(#p5c3b059ce6)" style="fill: none; stroke: #6a5acd; stroke-width: 1.5; stroke-linecap: square"/>
    <defs>
     <path id="m1391f4a8b4" d="M 0 3 
C 0.795609 3 1.55874 2.683901 2.12132 2.12132 
C 2.683901 1.55874 3 0.795609 3 0 
C 3 -0.795609 2.683901 -1.55874 2.12132 -2.12132 
C 1.55874 -2.683901 0.795609 -3 0 -3 
C -0.795609 -3 -1.55874 -2.683901 -2.12132 -2.12132 
C -2.683901 -1.55874 -3 -0.795609 -3 0 
C -3 0.795609 -2.683901 1.55874 -2.12132 2.12132 
C -1.55874 2.683901 -0.795609 3 0 3 
z
" style="stroke: #ffffff"/>
    </defs>
    <g clip-path="url(#p5c3b059ce6)">
     <use xlink:href="#m1391f4a8b4" x="309.165152" y="149.699831" style="fill: #6a5acd; stroke: #ffffff"/>
    </g>
   </g>
   <g id="line2d_108">
    <path d="M 309.165152 149.699831 
" clip-path="url(#p5c3b059ce6)" style="fill: none; stroke: #6a5acd; stroke-width: 1.5; stroke-linecap: square"/>
    <g clip-path="url(#p5c3b059ce6)">
     <use xlink:href="#m1391f4a8b4" x="309.165152" y="149.699831" style="fill: #6a5acd; stroke: #ffffff"/>
    </g>
   </g>
   <g id="legend_1">
    <g id="patch_7">
     <path d="M 243.745625 295.96 
L 439.745625 295.96 
Q 441.745625 295.96 441.745625 293.96 
L 441.745625 258.56 
Q 441.745625 256.56 439.745625 256.56 
L 243.745625 256.56 
Q 241.745625 256.56 241.745625 258.56 
L 241.745625 293.96 
Q 241.745625 295.96 243.745625 295.96 
z
" style="fill: #ffffff; opacity: 0.8; stroke: #cccccc; stroke-linejoin: miter"/>
    </g>
    <g id="LineCollection_9">
     <path d="M 250.745625 267.46 
L 260.745625 267.46 
" style="fill: none; stroke: #6a5acd; stroke-width: 3"/>
    </g>
    <g id="LineCollection_10">
     <path d="M 255.745625 272.46 
L 255.745625 262.46 
" style="fill: none; stroke: #6a5acd; stroke-width: 3"/>
    </g>
    <g id="line2d_109">
     <path d="M 245.745625 267.46 
L 265.745625 267.46 
" style="fill: none; stroke: #6a5acd; stroke-width: 1.5; stroke-linecap: square"/>
    </g>
    <g id="line2d_110">
     <defs>
      <path id="maabd8ddfe7" d="M 0 4 
C 1.060812 4 2.078319 3.578535 2.828427 2.828427 
C 3.578535 2.078319 4 1.060812 4 0 
C 4 -1.060812 3.578535 -2.078319 2.828427 -2.828427 
C 2.078319 -3.578535 1.060812 -4 0 -4 
C -1.060812 -4 -2.078319 -3.578535 -2.828427 -2.828427 
C -3.578535 -2.078319 -4 -1.060812 -4 0 
C -4 1.060812 -3.578535 2.078319 -2.828427 2.828427 
C -2.078319 3.578535 -1.060812 4 0 4 
z
" style="stroke: #ffffff; stroke-width: 2"/>
     </defs>
     <g>
      <use xlink:href="#maabd8ddfe7" x="255.745625" y="267.46" style="fill: #6a5acd; stroke: #ffffff; stroke-width: 2"/>
     </g>
    </g>
    <g id="text_14">
     <!-- $a_{06}(l_F,s_F^{\rm phys})$ -->
     <g transform="translate(273.745625 270.96) scale(0.1 -0.1)">
      <defs>
       <path id="DejaVuSans-2c" d="M 750 794 
L 1409 794 
L 1409 256 
L 897 -744 
L 494 -744 
L 750 256 
L 750 794 
z
" transform="scale(0.015625)"/>
       <path id="DejaVuSans-Oblique-73" d="M 3200 3397 
L 3091 2853 
Q 2863 2978 2609 3040 
Q 2356 3103 2088 3103 
Q 1634 3103 1373 2948 
Q 1113 2794 1113 2528 
Q 1113 2219 1719 2053 
Q 1766 2041 1788 2034 
L 1972 1978 
Q 2547 1819 2739 1644 
Q 2931 1469 2931 1166 
Q 2931 609 2489 259 
Q 2047 -91 1331 -91 
Q 1053 -91 747 -37 
Q 441 16 72 128 
L 184 722 
Q 500 559 806 475 
Q 1113 391 1394 391 
Q 1816 391 2080 572 
Q 2344 753 2344 1031 
Q 2344 1331 1650 1516 
L 1591 1531 
L 1394 1581 
Q 956 1697 753 1886 
Q 550 2075 550 2369 
Q 550 2928 970 3256 
Q 1391 3584 2113 3584 
Q 2397 3584 2667 3537 
Q 2938 3491 3200 3397 
z
" transform="scale(0.015625)"/>
       <path id="DejaVuSans-70" d="M 1159 525 
L 1159 -1331 
L 581 -1331 
L 581 3500 
L 1159 3500 
L 1159 2969 
Q 1341 3281 1617 3432 
Q 1894 3584 2278 3584 
Q 2916 3584 3314 3078 
Q 3713 2572 3713 1747 
Q 3713 922 3314 415 
Q 2916 -91 2278 -91 
Q 1894 -91 1617 61 
Q 1341 213 1159 525 
z
M 3116 1747 
Q 3116 2381 2855 2742 
Q 2594 3103 2138 3103 
Q 1681 3103 1420 2742 
Q 1159 2381 1159 1747 
Q 1159 1113 1420 752 
Q 1681 391 2138 391 
Q 2594 391 2855 752 
Q 3116 1113 3116 1747 
z
" transform="scale(0.015625)"/>
       <path id="DejaVuSans-68" d="M 3513 2113 
L 3513 0 
L 2938 0 
L 2938 2094 
Q 2938 2591 2744 2837 
Q 2550 3084 2163 3084 
Q 1697 3084 1428 2787 
Q 1159 2491 1159 1978 
L 1159 0 
L 581 0 
L 581 4863 
L 1159 4863 
L 1159 2956 
Q 1366 3272 1645 3428 
Q 1925 3584 2291 3584 
Q 2894 3584 3203 3211 
Q 3513 2838 3513 2113 
z
" transform="scale(0.015625)"/>
       <path id="DejaVuSans-79" d="M 2059 -325 
Q 1816 -950 1584 -1140 
Q 1353 -1331 966 -1331 
L 506 -1331 
L 506 -850 
L 844 -850 
Q 1081 -850 1212 -737 
Q 1344 -625 1503 -206 
L 1606 56 
L 191 3500 
L 800 3500 
L 1894 763 
L 2988 3500 
L 3597 3500 
L 2059 -325 
z
" transform="scale(0.015625)"/>
       <path id="DejaVuSans-73" d="M 2834 3397 
L 2834 2853 
Q 2591 2978 2328 3040 
Q 2066 3103 1784 3103 
Q 1356 3103 1142 2972 
Q 928 2841 928 2578 
Q 928 2378 1081 2264 
Q 1234 2150 1697 2047 
L 1894 2003 
Q 2506 1872 2764 1633 
Q 3022 1394 3022 966 
Q 3022 478 2636 193 
Q 2250 -91 1575 -91 
Q 1294 -91 989 -36 
Q 684 19 347 128 
L 347 722 
Q 666 556 975 473 
Q 1284 391 1588 391 
Q 1994 391 2212 530 
Q 2431 669 2431 922 
Q 2431 1156 2273 1281 
Q 2116 1406 1581 1522 
L 1381 1569 
Q 847 1681 609 1914 
Q 372 2147 372 2553 
Q 372 3047 722 3315 
Q 1072 3584 1716 3584 
Q 2034 3584 2315 3537 
Q 2597 3491 2834 3397 
z
" transform="scale(0.015625)"/>
      </defs>
      <use xlink:href="#DejaVuSans-Oblique-61" transform="translate(0 0.0625)"/>
      <use xlink:href="#DejaVuSans-30" transform="translate(61.279297 -16.34375) scale(0.7)"/>
      <use xlink:href="#DejaVuSans-36" transform="translate(105.81543 -16.34375) scale(0.7)"/>
      <use xlink:href="#DejaVuSans-28" transform="translate(153.085938 0.0625)"/>
      <use xlink:href="#DejaVuSans-Oblique-6c" transform="translate(192.099609 0.0625)"/>
      <use xlink:href="#DejaVuSans-Oblique-46" transform="translate(219.882812 -16.34375) scale(0.7)"/>
      <use xlink:href="#DejaVuSans-2c" transform="translate(262.880859 0.0625)"/>
      <use xlink:href="#DejaVuSans-Oblique-73" transform="translate(314.150391 0.0625)"/>
      <use xlink:href="#DejaVuSans-70" transform="translate(370.899896 50.810938) scale(0.7)"/>
      <use xlink:href="#DejaVuSans-68" transform="translate(415.33349 50.810938) scale(0.7)"/>
      <use xlink:href="#DejaVuSans-79" transform="translate(459.698724 50.810938) scale(0.7)"/>
      <use xlink:href="#DejaVuSans-73" transform="translate(501.124505 50.810938) scale(0.7)"/>
      <use xlink:href="#DejaVuSans-Oblique-46" transform="translate(366.25 -27.28125) scale(0.7)"/>
      <use xlink:href="#DejaVuSans-29" transform="translate(540.328607 0.0625)"/>
     </g>
    </g>
    <g id="LineCollection_11">
     <path d="M 250.745625 285.66 
L 260.745625 285.66 
" style="fill: none; stroke: #51a7f9; stroke-width: 3"/>
    </g>
    <g id="LineCollection_12">
     <path d="M 255.745625 290.66 
L 255.745625 280.66 
" style="fill: none; stroke: #51a7f9; stroke-width: 3"/>
    </g>
    <g id="line2d_111">
     <path d="M 245.745625 285.66 
L 265.745625 285.66 
" style="fill: none; stroke: #51a7f9; stroke-width: 1.5; stroke-linecap: square"/>
    </g>
    <g id="line2d_112">
     <defs>
      <path id="m29c3804811" d="M 0 4 
C 1.060812 4 2.078319 3.578535 2.828427 2.828427 
C 3.578535 2.078319 4 1.060812 4 0 
C 4 -1.060812 3.578535 -2.078319 2.828427 -2.828427 
C 2.078319 -3.578535 1.060812 -4 0 -4 
C -1.060812 -4 -2.078319 -3.578535 -2.828427 -2.828427 
C -3.578535 -2.078319 -4 -1.060812 -4 0 
C -4 1.060812 -3.578535 2.078319 -2.828427 2.828427 
C -2.078319 3.578535 -1.060812 4 0 4 
z
" style="stroke: #ffffff; stroke-width: 2"/>
     </defs>
     <g>
      <use xlink:href="#m29c3804811" x="255.745625" y="285.66" style="fill: #51a7f9; stroke: #ffffff; stroke-width: 2"/>
     </g>
    </g>
    <g id="text_15">
     <!-- $a_{09}(l_F,s_F^{\rm phys})$ -->
     <g transform="translate(273.745625 289.16) scale(0.1 -0.1)">
      <defs>
       <path id="DejaVuSans-39" d="M 703 97 
L 703 672 
Q 941 559 1184 500 
Q 1428 441 1663 441 
Q 2288 441 2617 861 
Q 2947 1281 2994 2138 
Q 2813 1869 2534 1725 
Q 2256 1581 1919 1581 
Q 1219 1581 811 2004 
Q 403 2428 403 3163 
Q 403 3881 828 4315 
Q 1253 4750 1959 4750 
Q 2769 4750 3195 4129 
Q 3622 3509 3622 2328 
Q 3622 1225 3098 567 
Q 2575 -91 1691 -91 
Q 1453 -91 1209 -44 
Q 966 3 703 97 
z
M 1959 2075 
Q 2384 2075 2632 2365 
Q 2881 2656 2881 3163 
Q 2881 3666 2632 3958 
Q 2384 4250 1959 4250 
Q 1534 4250 1286 3958 
Q 1038 3666 1038 3163 
Q 1038 2656 1286 2365 
Q 1534 2075 1959 2075 
z
" transform="scale(0.015625)"/>
      </defs>
      <use xlink:href="#DejaVuSans-Oblique-61" transform="translate(0 0.0625)"/>
      <use xlink:href="#DejaVuSans-30" transform="translate(61.279297 -16.34375) scale(0.7)"/>
      <use xlink:href="#DejaVuSans-39" transform="translate(105.81543 -16.34375) scale(0.7)"/>
      <use xlink:href="#DejaVuSans-28" transform="translate(153.085938 0.0625)"/>
      <use xlink:href="#DejaVuSans-Oblique-6c" transform="translate(192.099609 0.0625)"/>
      <use xlink:href="#DejaVuSans-Oblique-46" transform="translate(219.882812 -16.34375) scale(0.7)"/>
      <use xlink:href="#DejaVuSans-2c" transform="translate(262.880859 0.0625)"/>
      <use xlink:href="#DejaVuSans-Oblique-73" transform="translate(314.150391 0.0625)"/>
      <use xlink:href="#DejaVuSans-70" transform="translate(370.899896 50.810938) scale(0.7)"/>
      <use xlink:href="#DejaVuSans-68" transform="translate(415.33349 50.810938) scale(0.7)"/>
      <use xlink:href="#DejaVuSans-79" transform="translate(459.698724 50.810938) scale(0.7)"/>
      <use xlink:href="#DejaVuSans-73" transform="translate(501.124505 50.810938) scale(0.7)"/>
      <use xlink:href="#DejaVuSans-Oblique-46" transform="translate(366.25 -27.28125) scale(0.7)"/>
      <use xlink:href="#DejaVuSans-29" transform="translate(540.328607 0.0625)"/>
     </g>
    </g>
    <g id="LineCollection_13">
     <path d="M 356.745625 267.46 
L 366.745625 267.46 
" style="fill: none; stroke: #70bf41; stroke-width: 3"/>
    </g>
    <g id="LineCollection_14">
     <path d="M 361.745625 272.46 
L 361.745625 262.46 
" style="fill: none; stroke: #70bf41; stroke-width: 3"/>
    </g>
    <g id="line2d_113">
     <path d="M 351.745625 267.46 
L 371.745625 267.46 
" style="fill: none; stroke: #70bf41; stroke-width: 1.5; stroke-linecap: square"/>
    </g>
    <g id="line2d_114">
     <defs>
      <path id="med60b1518c" d="M 0 4 
C 1.060812 4 2.078319 3.578535 2.828427 2.828427 
C 3.578535 2.078319 4 1.060812 4 0 
C 4 -1.060812 3.578535 -2.078319 2.828427 -2.828427 
C 2.078319 -3.578535 1.060812 -4 0 -4 
C -1.060812 -4 -2.078319 -3.578535 -2.828427 -2.828427 
C -3.578535 -2.078319 -4 -1.060812 -4 0 
C -4 1.060812 -3.578535 2.078319 -2.828427 2.828427 
C -2.078319 3.578535 -1.060812 4 0 4 
z
" style="stroke: #ffffff; stroke-width: 2"/>
     </defs>
     <g>
      <use xlink:href="#med60b1518c" x="361.745625" y="267.46" style="fill: #70bf41; stroke: #ffffff; stroke-width: 2"/>
     </g>
    </g>
    <g id="text_16">
     <!-- $a_{12}(l_F,s_F^{\rm phys})$ -->
     <g transform="translate(379.745625 270.96) scale(0.1 -0.1)">
      <use xlink:href="#DejaVuSans-Oblique-61" transform="translate(0 0.0625)"/>
      <use xlink:href="#DejaVuSans-31" transform="translate(61.279297 -16.34375) scale(0.7)"/>
      <use xlink:href="#DejaVuSans-32" transform="translate(105.81543 -16.34375) scale(0.7)"/>
      <use xlink:href="#DejaVuSans-28" transform="translate(153.085938 0.0625)"/>
      <use xlink:href="#DejaVuSans-Oblique-6c" transform="translate(192.099609 0.0625)"/>
      <use xlink:href="#DejaVuSans-Oblique-46" transform="translate(219.882812 -16.34375) scale(0.7)"/>
      <use xlink:href="#DejaVuSans-2c" transform="translate(262.880859 0.0625)"/>
      <use xlink:href="#DejaVuSans-Oblique-73" transform="translate(314.150391 0.0625)"/>
      <use xlink:href="#DejaVuSans-70" transform="translate(370.899896 50.810938) scale(0.7)"/>
      <use xlink:href="#DejaVuSans-68" transform="translate(415.33349 50.810938) scale(0.7)"/>
      <use xlink:href="#DejaVuSans-79" transform="translate(459.698724 50.810938) scale(0.7)"/>
      <use xlink:href="#DejaVuSans-73" transform="translate(501.124505 50.810938) scale(0.7)"/>
      <use xlink:href="#DejaVuSans-Oblique-46" transform="translate(366.25 -27.28125) scale(0.7)"/>
      <use xlink:href="#DejaVuSans-29" transform="translate(540.328607 0.0625)"/>
     </g>
    </g>
    <g id="LineCollection_15">
     <path d="M 356.745625 285.66 
L 366.745625 285.66 
" style="fill: none; stroke: #ec5d57; stroke-width: 3"/>
    </g>
    <g id="LineCollection_16">
     <path d="M 361.745625 290.66 
L 361.745625 280.66 
" style="fill: none; stroke: #ec5d57; stroke-width: 3"/>
    </g>
    <g id="line2d_115">
     <path d="M 351.745625 285.66 
L 371.745625 285.66 
" style="fill: none; stroke: #ec5d57; stroke-width: 1.5; stroke-linecap: square"/>
    </g>
    <g id="line2d_116">
     <defs>
      <path id="m60678a9d0c" d="M 0 4 
C 1.060812 4 2.078319 3.578535 2.828427 2.828427 
C 3.578535 2.078319 4 1.060812 4 0 
C 4 -1.060812 3.578535 -2.078319 2.828427 -2.828427 
C 2.078319 -3.578535 1.060812 -4 0 -4 
C -1.060812 -4 -2.078319 -3.578535 -2.828427 -2.828427 
C -3.578535 -2.078319 -4 -1.060812 -4 0 
C -4 1.060812 -3.578535 2.078319 -2.828427 2.828427 
C -2.078319 3.578535 -1.060812 4 0 4 
z
" style="stroke: #ffffff; stroke-width: 2"/>
     </defs>
     <g>
      <use xlink:href="#m60678a9d0c" x="361.745625" y="285.66" style="fill: #ec5d57; stroke: #ffffff; stroke-width: 2"/>
     </g>
    </g>
    <g id="text_17">
     <!-- $a_{15}(l_F,s_F^{\rm phys})$ -->
     <g transform="translate(379.745625 289.16) scale(0.1 -0.1)">
      <use xlink:href="#DejaVuSans-Oblique-61" transform="translate(0 0.0625)"/>
      <use xlink:href="#DejaVuSans-31" transform="translate(61.279297 -16.34375) scale(0.7)"/>
      <use xlink:href="#DejaVuSans-35" transform="translate(105.81543 -16.34375) scale(0.7)"/>
      <use xlink:href="#DejaVuSans-28" transform="translate(153.085938 0.0625)"/>
      <use xlink:href="#DejaVuSans-Oblique-6c" transform="translate(192.099609 0.0625)"/>
      <use xlink:href="#DejaVuSans-Oblique-46" transform="translate(219.882812 -16.34375) scale(0.7)"/>
      <use xlink:href="#DejaVuSans-2c" transform="translate(262.880859 0.0625)"/>
      <use xlink:href="#DejaVuSans-Oblique-73" transform="translate(314.150391 0.0625)"/>
      <use xlink:href="#DejaVuSans-70" transform="translate(370.899896 50.810938) scale(0.7)"/>
      <use xlink:href="#DejaVuSans-68" transform="translate(415.33349 50.810938) scale(0.7)"/>
      <use xlink:href="#DejaVuSans-79" transform="translate(459.698724 50.810938) scale(0.7)"/>
      <use xlink:href="#DejaVuSans-73" transform="translate(501.124505 50.810938) scale(0.7)"/>
      <use xlink:href="#DejaVuSans-Oblique-46" transform="translate(366.25 -27.28125) scale(0.7)"/>
      <use xlink:href="#DejaVuSans-29" transform="translate(540.328607 0.0625)"/>
     </g>
    </g>
   </g>
  </g>
 </g>
 <defs>
  <clipPath id="p5c3b059ce6">
   <rect x="55.065625" y="7.2" width="391.68" height="293.76"/>
  </clipPath>
 </defs>
 <defs>
  <pattern id="hf35e67ff2f" patternUnits="userSpaceOnUse" x="0" y="0" width="72" height="72">
   <rect x="0" y="0" width="73" height="73" fill="none"/>
   <path d="M -36 36 
L 36 -36 
M -24 48 
L 48 -24 
M -12 60 
L 60 -12 
M 0 72 
L 72 0 
M 12 84 
L 84 12 
M 24 96 
L 96 24 
M 36 108 
L 108 36 
" style="fill: #000000; stroke: #000000; stroke-width: 1.0; stroke-linecap: butt; stroke-linejoin: miter; stroke-opacity: 0.6"/>
  </pattern>
 </defs>
</svg>
