<?xml version="1.0" encoding="utf-8" standalone="no"?>
<!DOCTYPE svg PUBLIC "-//W3C//DTD SVG 1.1//EN"
  "http://www.w3.org/Graphics/SVG/1.1/DTD/svg11.dtd">
<svg xmlns:xlink="http://www.w3.org/1999/xlink" width="453.945625pt" height="340.738125pt" viewBox="0 0 453.945625 340.738125" xmlns="http://www.w3.org/2000/svg" version="1.1">
 <metadata>
  <rdf:RDF xmlns:dc="http://purl.org/dc/elements/1.1/" xmlns:cc="http://creativecommons.org/ns#" xmlns:rdf="http://www.w3.org/1999/02/22-rdf-syntax-ns#">
   <cc:Work>
    <dc:type rdf:resource="http://purl.org/dc/dcmitype/StillImage"/>
    <dc:date>2025-03-01T15:55:07.587563</dc:date>
    <dc:format>image/svg+xml</dc:format>
    <dc:creator>
     <cc:Agent>
      <dc:title>Matplotlib v3.10.0, https://matplotlib.org/</dc:title>
     </cc:Agent>
    </dc:creator>
   </cc:Work>
  </rdf:RDF>
 </metadata>
 <defs>
  <style type="text/css">*{stroke-linejoin: round; stroke-linecap: butt}</style>
 </defs>
 <g id="figure_1">
  <g id="patch_1">
   <path d="M 0 340.738125 
L 453.945625 340.738125 
L 453.945625 0 
L 0 0 
z
" style="fill: #ffffff"/>
  </g>
  <g id="axes_1">
   <g id="patch_2">
    <path d="M 55.065625 300.96 
L 446.745625 300.96 
L 446.745625 7.2 
L 55.065625 7.2 
z
" style="fill: #ffffff"/>
   </g>
   <g id="FillBetweenPolyCollection_1">
    <path d="M 74.743518 239.340561 
L 74.743518 287.607273 
L 81.921127 284.351577 
L 89.098736 281.120606 
L 96.276345 277.914238 
L 103.453954 274.732354 
L 110.631563 271.574843 
L 117.809172 268.441599 
L 124.986781 265.332523 
L 132.164389 262.247525 
L 139.341998 259.186524 
L 146.519607 256.149451 
L 153.697216 253.136246 
L 160.874825 250.146867 
L 168.052434 247.181284 
L 175.230043 244.239486 
L 182.407651 241.321481 
L 189.58526 238.427301 
L 196.762869 235.557002 
L 203.940478 232.71067 
L 211.118087 229.888425 
L 218.295696 227.090424 
L 225.473305 224.316868 
L 232.650914 221.56801 
L 239.828522 218.844159 
L 247.006131 216.145693 
L 254.18374 213.473069 
L 261.361349 210.826835 
L 268.538958 208.207647 
L 275.716567 205.616286 
L 282.894176 203.053679 
L 290.071785 200.520928 
L 297.249393 198.019337 
L 304.427002 195.550447 
L 311.604611 193.116077 
L 318.78222 190.718367 
L 325.959829 188.359826 
L 333.137438 186.043381 
L 340.315047 183.772421 
L 347.492655 181.550833 
L 354.670264 179.383011 
L 361.847873 177.273836 
L 369.025482 175.228593 
L 376.203091 173.252822 
L 383.3807 171.352094 
L 390.558309 169.531696 
L 397.735918 167.796286 
L 404.913526 166.149537 
L 412.091135 164.593865 
L 419.268744 163.130279 
L 426.446353 161.758396 
L 426.446353 145.454123 
L 426.446353 145.454123 
L 419.268744 147.26462 
L 412.091135 149.041807 
L 404.913526 150.785038 
L 397.735918 152.495058 
L 390.558309 154.174015 
L 383.3807 155.825322 
L 376.203091 157.453368 
L 369.025482 159.063181 
L 361.847873 160.660062 
L 354.670264 162.24929 
L 347.492655 163.835885 
L 340.315047 165.424463 
L 333.137438 167.019154 
L 325.959829 168.623579 
L 318.78222 170.240865 
L 311.604611 171.873673 
L 304.427002 173.524248 
L 297.249393 175.194465 
L 290.071785 176.885879 
L 282.894176 178.599767 
L 275.716567 180.337168 
L 268.538958 182.098919 
L 261.361349 183.885684 
L 254.18374 185.697978 
L 247.006131 187.536194 
L 239.828522 189.400615 
L 232.650914 191.291433 
L 225.473305 193.208761 
L 218.295696 195.152646 
L 211.118087 197.123074 
L 203.940478 199.119982 
L 196.762869 201.143265 
L 189.58526 203.192775 
L 182.407651 205.268335 
L 175.230043 207.369738 
L 168.052434 209.496749 
L 160.874825 211.649113 
L 153.697216 213.826554 
L 146.519607 216.028779 
L 139.341998 218.25548 
L 132.164389 220.506333 
L 124.986781 222.781005 
L 117.809172 225.079149 
L 110.631563 227.400412 
L 103.453954 229.74443 
L 96.276345 232.110833 
L 89.098736 234.499245 
L 81.921127 236.909283 
L 74.743518 239.340561 
z
" clip-path="url(#pc2fe0d8788)" style="fill: url(#h30bf081149); stroke: #000000; stroke-opacity: 0.6"/>
   </g>
   <g id="FillBetweenPolyCollection_2">
    <defs>
     <path id="m087aa2a292" d="M 74.743518 -174.956845 
L 74.743518 -137.474291 
L 81.921127 -141.821691 
L 89.098736 -146.137746 
L 96.276345 -150.422593 
L 103.453954 -154.676376 
L 110.631563 -158.899254 
L 117.809172 -163.091395 
L 124.986781 -167.252977 
L 132.164389 -171.384191 
L 139.341998 -175.485235 
L 146.519607 -179.556319 
L 153.697216 -183.59766 
L 160.874825 -187.609486 
L 168.052434 -191.592029 
L 175.230043 -195.545532 
L 182.407651 -199.470242 
L 189.58526 -203.366411 
L 196.762869 -207.234296 
L 203.940478 -211.074155 
L 211.118087 -214.886251 
L 218.295696 -218.670843 
L 225.473305 -222.428192 
L 232.650914 -226.158553 
L 239.828522 -229.862177 
L 247.006131 -233.539309 
L 254.18374 -237.190179 
L 261.361349 -240.815006 
L 268.538958 -244.413993 
L 275.716567 -247.987317 
L 282.894176 -251.53513 
L 290.071785 -255.057545 
L 297.249393 -258.554632 
L 304.427002 -262.026402 
L 311.604611 -265.472793 
L 318.78222 -268.893644 
L 325.959829 -272.288669 
L 333.137438 -275.657407 
L 340.315047 -278.999168 
L 347.492655 -282.31294 
L 354.670264 -285.59726 
L 361.847873 -288.850022 
L 369.025482 -292.068186 
L 376.203091 -295.247356 
L 383.3807 -298.381158 
L 390.558309 -301.46041 
L 397.735918 -304.472218 
L 404.913526 -307.39956 
L 412.091135 -310.222648 
L 419.268744 -312.923529 
L 426.446353 -315.492847 
L 426.446353 -320.185398 
L 426.446353 -320.185398 
L 419.268744 -317.46306 
L 412.091135 -314.813758 
L 404.913526 -312.2284 
L 397.735918 -309.689297 
L 390.558309 -307.176926 
L 383.3807 -304.67453 
L 376.203091 -302.169478 
L 369.025482 -299.652854 
L 361.847873 -297.118548 
L 354.670264 -294.562427 
L 347.492655 -291.981717 
L 340.315047 -289.374576 
L 333.137438 -286.739806 
L 325.959829 -284.076659 
L 318.78222 -281.384709 
L 311.604611 -278.66376 
L 304.427002 -275.913791 
L 297.249393 -273.134904 
L 290.071785 -270.327303 
L 282.894176 -267.491262 
L 275.716567 -264.627116 
L 268.538958 -261.735243 
L 261.361349 -258.816059 
L 254.18374 -255.870007 
L 247.006131 -252.897552 
L 239.828522 -249.899177 
L 232.650914 -246.87538 
L 225.473305 -243.826667 
L 218.295696 -240.753555 
L 211.118087 -237.656564 
L 203.940478 -234.536218 
L 196.762869 -231.393042 
L 189.58526 -228.227561 
L 182.407651 -225.040301 
L 175.230043 -221.83178 
L 168.052434 -218.602517 
L 160.874825 -215.353023 
L 153.697216 -212.083803 
L 146.519607 -208.795357 
L 139.341998 -205.488175 
L 132.164389 -202.16274 
L 124.986781 -198.819525 
L 117.809172 -195.458994 
L 110.631563 -192.081601 
L 103.453954 -188.68779 
L 96.276345 -185.277992 
L 89.098736 -181.85263 
L 81.921127 -178.412115 
L 74.743518 -174.956845 
z
" style="stroke: #ec5d57; stroke-opacity: 0.4"/>
    </defs>
    <g clip-path="url(#pc2fe0d8788)">
     <use xlink:href="#m087aa2a292" x="0" y="340.738125" style="fill: #ec5d57; fill-opacity: 0.4; stroke: #ec5d57; stroke-opacity: 0.4"/>
    </g>
   </g>
   <g id="FillBetweenPolyCollection_3">
    <defs>
     <path id="m01535dcc18" d="M 74.743518 -163.913211 
L 74.743518 -136.492018 
L 81.921127 -140.420143 
L 89.098736 -144.31687 
L 96.276345 -148.182447 
L 103.453954 -152.017143 
L 110.631563 -155.821241 
L 117.809172 -159.595041 
L 124.986781 -163.338856 
L 132.164389 -167.053015 
L 139.341998 -170.737855 
L 146.519607 -174.393728 
L 153.697216 -178.020993 
L 160.874825 -181.620018 
L 168.052434 -185.191178 
L 175.230043 -188.734851 
L 182.407651 -192.251417 
L 189.58526 -195.74126 
L 196.762869 -199.204759 
L 203.940478 -202.642293 
L 211.118087 -206.054234 
L 218.295696 -209.440946 
L 225.473305 -212.802786 
L 232.650914 -216.140095 
L 239.828522 -219.4532 
L 247.006131 -222.74241 
L 254.18374 -226.00801 
L 261.361349 -229.25026 
L 268.538958 -232.469385 
L 275.716567 -235.665571 
L 282.894176 -238.838954 
L 290.071785 -241.989608 
L 297.249393 -245.117527 
L 304.427002 -248.222601 
L 311.604611 -251.304579 
L 318.78222 -254.363024 
L 325.959829 -257.397229 
L 333.137438 -260.406108 
L 340.315047 -263.388011 
L 347.492655 -266.340441 
L 354.670264 -269.259597 
L 361.847873 -272.139644 
L 369.025482 -274.971596 
L 376.203091 -277.741835 
L 383.3807 -280.43089 
L 390.558309 -283.014678 
L 397.735918 -285.471435 
L 404.913526 -287.792555 
L 412.091135 -289.986677 
L 419.268744 -292.072207 
L 426.446353 -294.067702 
L 426.446353 -299.368192 
L 426.446353 -299.368192 
L 419.268744 -296.687745 
L 412.091135 -294.038844 
L 404.913526 -291.440312 
L 397.735918 -288.910819 
L 390.558309 -286.459269 
L 383.3807 -284.077319 
L 376.203091 -281.74347 
L 369.025482 -279.433905 
L 361.847873 -277.129416 
L 354.670264 -274.816649 
L 347.492655 -272.486884 
L 340.315047 -270.134549 
L 333.137438 -267.756109 
L 325.959829 -265.349329 
L 318.78222 -262.912826 
L 311.604611 -260.445777 
L 304.427002 -257.947741 
L 297.249393 -255.418543 
L 290.071785 -252.858199 
L 282.894176 -250.266861 
L 275.716567 -247.64479 
L 268.538958 -244.992322 
L 261.361349 -242.30986 
L 254.18374 -239.597852 
L 247.006131 -236.856789 
L 239.828522 -234.087194 
L 232.650914 -231.289619 
L 225.473305 -228.464635 
L 218.295696 -225.612834 
L 211.118087 -222.734823 
L 203.940478 -219.831222 
L 196.762869 -216.902659 
L 189.58526 -213.949772 
L 182.407651 -210.973202 
L 175.230043 -207.973596 
L 168.052434 -204.9516 
L 160.874825 -201.907858 
L 153.697216 -198.843015 
L 146.519607 -195.757709 
L 139.341998 -192.652571 
L 132.164389 -189.528227 
L 124.986781 -186.38529 
L 117.809172 -183.224366 
L 110.631563 -180.046046 
L 103.453954 -176.850908 
L 96.276345 -173.639515 
L 89.098736 -170.412416 
L 81.921127 -167.170143 
L 74.743518 -163.913211 
z
" style="stroke: #70bf41; stroke-opacity: 0.4"/>
    </defs>
    <g clip-path="url(#pc2fe0d8788)">
     <use xlink:href="#m01535dcc18" x="0" y="340.738125" style="fill: #70bf41; fill-opacity: 0.4; stroke: #70bf41; stroke-opacity: 0.4"/>
    </g>
   </g>
   <g id="FillBetweenPolyCollection_4">
    <defs>
     <path id="mf69960b41c" d="M 74.743518 -144.399224 
L 74.743518 -115.09925 
L 81.921127 -118.682687 
L 89.098736 -122.2377 
L 96.276345 -125.764588 
L 103.453954 -129.263659 
L 110.631563 -132.735226 
L 117.809172 -136.179606 
L 124.986781 -139.597121 
L 132.164389 -142.988095 
L 139.341998 -146.352852 
L 146.519607 -149.691717 
L 153.697216 -153.005012 
L 160.874825 -156.293056 
L 168.052434 -159.556166 
L 175.230043 -162.794649 
L 182.407651 -166.008807 
L 189.58526 -169.198932 
L 196.762869 -172.365306 
L 203.940478 -175.508195 
L 211.118087 -178.627853 
L 218.295696 -181.724516 
L 225.473305 -184.798397 
L 232.650914 -187.849689 
L 239.828522 -190.878553 
L 247.006131 -193.885119 
L 254.18374 -196.86948 
L 261.361349 -199.831677 
L 268.538958 -202.771697 
L 275.716567 -205.689453 
L 282.894176 -208.584769 
L 290.071785 -211.457356 
L 297.249393 -214.306775 
L 304.427002 -217.132391 
L 311.604611 -219.933308 
L 318.78222 -222.708275 
L 325.959829 -225.45555 
L 333.137438 -228.172705 
L 340.315047 -230.856343 
L 347.492655 -233.501701 
L 354.670264 -236.10211 
L 361.847873 -238.648334 
L 369.025482 -241.127985 
L 376.203091 -243.52552 
L 383.3807 -245.823754 
L 390.558309 -248.007606 
L 397.735918 -250.068988 
L 404.913526 -252.00947 
L 412.091135 -253.838488 
L 419.268744 -255.568903 
L 426.446353 -257.21321 
L 426.446353 -264.624494 
L 426.446353 -264.624494 
L 419.268744 -262.218261 
L 412.091135 -259.839687 
L 404.913526 -257.501533 
L 397.735918 -255.216923 
L 390.558309 -252.995559 
L 383.3807 -250.839274 
L 376.203091 -248.740245 
L 369.025482 -246.683656 
L 361.847873 -244.652586 
L 354.670264 -242.631756 
L 347.492655 -240.609042 
L 340.315047 -238.575476 
L 333.137438 -236.524649 
L 325.959829 -234.452064 
L 318.78222 -232.35459 
L 311.604611 -230.230061 
L 304.427002 -228.077002 
L 297.249393 -225.894424 
L 290.071785 -223.681696 
L 282.894176 -221.438449 
L 275.716567 -219.164508 
L 268.538958 -216.859847 
L 261.361349 -214.524555 
L 254.18374 -212.158811 
L 247.006131 -209.762864 
L 239.828522 -207.337022 
L 232.650914 -204.88164 
L 225.473305 -202.397114 
L 218.295696 -199.88387 
L 211.118087 -197.342363 
L 203.940478 -194.773073 
L 196.762869 -192.1765 
L 189.58526 -189.553161 
L 182.407651 -186.903588 
L 175.230043 -184.228326 
L 168.052434 -181.527933 
L 160.874825 -178.802974 
L 153.697216 -176.054022 
L 146.519607 -173.281658 
L 139.341998 -170.486464 
L 132.164389 -167.669028 
L 124.986781 -164.829939 
L 117.809172 -161.969785 
L 110.631563 -159.089156 
L 103.453954 -156.188636 
L 96.276345 -153.268809 
L 89.098736 -150.330251 
L 81.921127 -147.373535 
L 74.743518 -144.399224 
z
" style="stroke: #51a7f9; stroke-opacity: 0.4"/>
    </defs>
    <g clip-path="url(#pc2fe0d8788)">
     <use xlink:href="#mf69960b41c" x="0" y="340.738125" style="fill: #51a7f9; fill-opacity: 0.4; stroke: #51a7f9; stroke-opacity: 0.4"/>
    </g>
   </g>
   <g id="FillBetweenPolyCollection_5">
    <defs>
     <path id="mf167621c66" d="M 74.743518 -123.997482 
L 74.743518 -86.1274 
L 81.921127 -89.521622 
L 89.098736 -92.889943 
L 96.276345 -96.232579 
L 103.453954 -99.549744 
L 110.631563 -102.84165 
L 117.809172 -106.10851 
L 124.986781 -109.350532 
L 132.164389 -112.567918 
L 139.341998 -115.760867 
L 146.519607 -118.929573 
L 153.697216 -122.074221 
L 160.874825 -125.194986 
L 168.052434 -128.292037 
L 175.230043 -131.365529 
L 182.407651 -134.415604 
L 189.58526 -137.442389 
L 196.762869 -140.445993 
L 203.940478 -143.426507 
L 211.118087 -146.383997 
L 218.295696 -149.318502 
L 225.473305 -152.230031 
L 232.650914 -155.118556 
L 239.828522 -157.984006 
L 247.006131 -160.826259 
L 254.18374 -163.645133 
L 261.361349 -166.440373 
L 268.538958 -169.211637 
L 275.716567 -171.958474 
L 282.894176 -174.680306 
L 290.071785 -177.376389 
L 297.249393 -180.045781 
L 304.427002 -182.687288 
L 311.604611 -185.299401 
L 318.78222 -187.880214 
L 325.959829 -190.427321 
L 333.137438 -192.937693 
L 340.315047 -195.407523 
L 347.492655 -197.83206 
L 354.670264 -200.20545 
L 361.847873 -202.52062 
L 369.025482 -204.769295 
L 376.203091 -206.942263 
L 383.3807 -209.029999 
L 390.558309 -211.023684 
L 397.735918 -212.916463 
L 404.913526 -214.704547 
L 412.091135 -216.387712 
L 419.268744 -217.968987 
L 426.446353 -219.453711 
L 426.446353 -230.137674 
L 426.446353 -230.137674 
L 419.268744 -228.037944 
L 412.091135 -225.976346 
L 404.913526 -223.958483 
L 397.735918 -221.98765 
L 390.558309 -220.063886 
L 383.3807 -218.183667 
L 376.203091 -216.340403 
L 369.025482 -214.525538 
L 361.847873 -212.729812 
L 354.670264 -210.944278 
L 347.492655 -209.160926 
L 340.315047 -207.372947 
L 333.137438 -205.57475 
L 325.959829 -203.76185 
L 318.78222 -201.930705 
L 311.604611 -200.078549 
L 304.427002 -198.203241 
L 297.249393 -196.303139 
L 290.071785 -194.376999 
L 282.894176 -192.423892 
L 275.716567 -190.443138 
L 268.538958 -188.434262 
L 261.361349 -186.396945 
L 254.18374 -184.331005 
L 247.006131 -182.236362 
L 239.828522 -180.113026 
L 232.650914 -177.961079 
L 225.473305 -175.780665 
L 218.295696 -173.571976 
L 211.118087 -171.335249 
L 203.940478 -169.070757 
L 196.762869 -166.778804 
L 189.58526 -164.459721 
L 182.407651 -162.113862 
L 175.230043 -159.741601 
L 168.052434 -157.343329 
L 160.874825 -154.919454 
L 153.697216 -152.470395 
L 146.519607 -149.996584 
L 139.341998 -147.498462 
L 132.164389 -144.976478 
L 124.986781 -142.431091 
L 117.809172 -139.862762 
L 110.631563 -137.27196 
L 103.453954 -134.659158 
L 96.276345 -132.02483 
L 89.098736 -129.369456 
L 81.921127 -126.693513 
L 74.743518 -123.997482 
z
" style="stroke: #6a5acd; stroke-opacity: 0.4"/>
    </defs>
    <g clip-path="url(#pc2fe0d8788)">
     <use xlink:href="#mf167621c66" x="0" y="340.738125" style="fill: #6a5acd; fill-opacity: 0.4; stroke: #6a5acd; stroke-opacity: 0.4"/>
    </g>
   </g>
   <g id="matplotlib.axis_1">
    <g id="xtick_1">
     <g id="line2d_1">
      <defs>
       <path id="m54a77969af" d="M 0 0 
L 0 3.5 
" style="stroke: #000000; stroke-width: 0.8"/>
      </defs>
      <g>
       <use xlink:href="#m54a77969af" x="74.673092" y="300.96" style="stroke: #000000; stroke-width: 0.8"/>
      </g>
     </g>
     <g id="text_1">
      <!-- 0.20 -->
      <g transform="translate(63.540279 315.558437) scale(0.1 -0.1)">
       <defs>
        <path id="DejaVuSans-30" d="M 2034 4250 
Q 1547 4250 1301 3770 
Q 1056 3291 1056 2328 
Q 1056 1369 1301 889 
Q 1547 409 2034 409 
Q 2525 409 2770 889 
Q 3016 1369 3016 2328 
Q 3016 3291 2770 3770 
Q 2525 4250 2034 4250 
z
M 2034 4750 
Q 2819 4750 3233 4129 
Q 3647 3509 3647 2328 
Q 3647 1150 3233 529 
Q 2819 -91 2034 -91 
Q 1250 -91 836 529 
Q 422 1150 422 2328 
Q 422 3509 836 4129 
Q 1250 4750 2034 4750 
z
" transform="scale(0.015625)"/>
        <path id="DejaVuSans-2e" d="M 684 794 
L 1344 794 
L 1344 0 
L 684 0 
L 684 794 
z
" transform="scale(0.015625)"/>
        <path id="DejaVuSans-32" d="M 1228 531 
L 3431 531 
L 3431 0 
L 469 0 
L 469 531 
Q 828 903 1448 1529 
Q 2069 2156 2228 2338 
Q 2531 2678 2651 2914 
Q 2772 3150 2772 3378 
Q 2772 3750 2511 3984 
Q 2250 4219 1831 4219 
Q 1534 4219 1204 4116 
Q 875 4013 500 3803 
L 500 4441 
Q 881 4594 1212 4672 
Q 1544 4750 1819 4750 
Q 2544 4750 2975 4387 
Q 3406 4025 3406 3419 
Q 3406 3131 3298 2873 
Q 3191 2616 2906 2266 
Q 2828 2175 2409 1742 
Q 1991 1309 1228 531 
z
" transform="scale(0.015625)"/>
       </defs>
       <use xlink:href="#DejaVuSans-30"/>
       <use xlink:href="#DejaVuSans-2e" transform="translate(63.623047 0)"/>
       <use xlink:href="#DejaVuSans-32" transform="translate(95.410156 0)"/>
       <use xlink:href="#DejaVuSans-30" transform="translate(159.033203 0)"/>
      </g>
     </g>
    </g>
    <g id="xtick_2">
     <g id="line2d_2">
      <g>
       <use xlink:href="#m54a77969af" x="118.400852" y="300.96" style="stroke: #000000; stroke-width: 0.8"/>
      </g>
     </g>
     <g id="text_2">
      <!-- 0.22 -->
      <g transform="translate(107.26804 315.558437) scale(0.1 -0.1)">
       <use xlink:href="#DejaVuSans-30"/>
       <use xlink:href="#DejaVuSans-2e" transform="translate(63.623047 0)"/>
       <use xlink:href="#DejaVuSans-32" transform="translate(95.410156 0)"/>
       <use xlink:href="#DejaVuSans-32" transform="translate(159.033203 0)"/>
      </g>
     </g>
    </g>
    <g id="xtick_3">
     <g id="line2d_3">
      <g>
       <use xlink:href="#m54a77969af" x="162.128613" y="300.96" style="stroke: #000000; stroke-width: 0.8"/>
      </g>
     </g>
     <g id="text_3">
      <!-- 0.24 -->
      <g transform="translate(150.9958 315.558437) scale(0.1 -0.1)">
       <defs>
        <path id="DejaVuSans-34" d="M 2419 4116 
L 825 1625 
L 2419 1625 
L 2419 4116 
z
M 2253 4666 
L 3047 4666 
L 3047 1625 
L 3713 1625 
L 3713 1100 
L 3047 1100 
L 3047 0 
L 2419 0 
L 2419 1100 
L 313 1100 
L 313 1709 
L 2253 4666 
z
" transform="scale(0.015625)"/>
       </defs>
       <use xlink:href="#DejaVuSans-30"/>
       <use xlink:href="#DejaVuSans-2e" transform="translate(63.623047 0)"/>
       <use xlink:href="#DejaVuSans-32" transform="translate(95.410156 0)"/>
       <use xlink:href="#DejaVuSans-34" transform="translate(159.033203 0)"/>
      </g>
     </g>
    </g>
    <g id="xtick_4">
     <g id="line2d_4">
      <g>
       <use xlink:href="#m54a77969af" x="205.856373" y="300.96" style="stroke: #000000; stroke-width: 0.8"/>
      </g>
     </g>
     <g id="text_4">
      <!-- 0.26 -->
      <g transform="translate(194.723561 315.558437) scale(0.1 -0.1)">
       <defs>
        <path id="DejaVuSans-36" d="M 2113 2584 
Q 1688 2584 1439 2293 
Q 1191 2003 1191 1497 
Q 1191 994 1439 701 
Q 1688 409 2113 409 
Q 2538 409 2786 701 
Q 3034 994 3034 1497 
Q 3034 2003 2786 2293 
Q 2538 2584 2113 2584 
z
M 3366 4563 
L 3366 3988 
Q 3128 4100 2886 4159 
Q 2644 4219 2406 4219 
Q 1781 4219 1451 3797 
Q 1122 3375 1075 2522 
Q 1259 2794 1537 2939 
Q 1816 3084 2150 3084 
Q 2853 3084 3261 2657 
Q 3669 2231 3669 1497 
Q 3669 778 3244 343 
Q 2819 -91 2113 -91 
Q 1303 -91 875 529 
Q 447 1150 447 2328 
Q 447 3434 972 4092 
Q 1497 4750 2381 4750 
Q 2619 4750 2861 4703 
Q 3103 4656 3366 4563 
z
" transform="scale(0.015625)"/>
       </defs>
       <use xlink:href="#DejaVuSans-30"/>
       <use xlink:href="#DejaVuSans-2e" transform="translate(63.623047 0)"/>
       <use xlink:href="#DejaVuSans-32" transform="translate(95.410156 0)"/>
       <use xlink:href="#DejaVuSans-36" transform="translate(159.033203 0)"/>
      </g>
     </g>
    </g>
    <g id="xtick_5">
     <g id="line2d_5">
      <g>
       <use xlink:href="#m54a77969af" x="249.584134" y="300.96" style="stroke: #000000; stroke-width: 0.8"/>
      </g>
     </g>
     <g id="text_5">
      <!-- 0.28 -->
      <g transform="translate(238.451321 315.558437) scale(0.1 -0.1)">
       <defs>
        <path id="DejaVuSans-38" d="M 2034 2216 
Q 1584 2216 1326 1975 
Q 1069 1734 1069 1313 
Q 1069 891 1326 650 
Q 1584 409 2034 409 
Q 2484 409 2743 651 
Q 3003 894 3003 1313 
Q 3003 1734 2745 1975 
Q 2488 2216 2034 2216 
z
M 1403 2484 
Q 997 2584 770 2862 
Q 544 3141 544 3541 
Q 544 4100 942 4425 
Q 1341 4750 2034 4750 
Q 2731 4750 3128 4425 
Q 3525 4100 3525 3541 
Q 3525 3141 3298 2862 
Q 3072 2584 2669 2484 
Q 3125 2378 3379 2068 
Q 3634 1759 3634 1313 
Q 3634 634 3220 271 
Q 2806 -91 2034 -91 
Q 1263 -91 848 271 
Q 434 634 434 1313 
Q 434 1759 690 2068 
Q 947 2378 1403 2484 
z
M 1172 3481 
Q 1172 3119 1398 2916 
Q 1625 2713 2034 2713 
Q 2441 2713 2670 2916 
Q 2900 3119 2900 3481 
Q 2900 3844 2670 4047 
Q 2441 4250 2034 4250 
Q 1625 4250 1398 4047 
Q 1172 3844 1172 3481 
z
" transform="scale(0.015625)"/>
       </defs>
       <use xlink:href="#DejaVuSans-30"/>
       <use xlink:href="#DejaVuSans-2e" transform="translate(63.623047 0)"/>
       <use xlink:href="#DejaVuSans-32" transform="translate(95.410156 0)"/>
       <use xlink:href="#DejaVuSans-38" transform="translate(159.033203 0)"/>
      </g>
     </g>
    </g>
    <g id="xtick_6">
     <g id="line2d_6">
      <g>
       <use xlink:href="#m54a77969af" x="293.311894" y="300.96" style="stroke: #000000; stroke-width: 0.8"/>
      </g>
     </g>
     <g id="text_6">
      <!-- 0.30 -->
      <g transform="translate(282.179082 315.558437) scale(0.1 -0.1)">
       <defs>
        <path id="DejaVuSans-33" d="M 2597 2516 
Q 3050 2419 3304 2112 
Q 3559 1806 3559 1356 
Q 3559 666 3084 287 
Q 2609 -91 1734 -91 
Q 1441 -91 1130 -33 
Q 819 25 488 141 
L 488 750 
Q 750 597 1062 519 
Q 1375 441 1716 441 
Q 2309 441 2620 675 
Q 2931 909 2931 1356 
Q 2931 1769 2642 2001 
Q 2353 2234 1838 2234 
L 1294 2234 
L 1294 2753 
L 1863 2753 
Q 2328 2753 2575 2939 
Q 2822 3125 2822 3475 
Q 2822 3834 2567 4026 
Q 2313 4219 1838 4219 
Q 1578 4219 1281 4162 
Q 984 4106 628 3988 
L 628 4550 
Q 988 4650 1302 4700 
Q 1616 4750 1894 4750 
Q 2613 4750 3031 4423 
Q 3450 4097 3450 3541 
Q 3450 3153 3228 2886 
Q 3006 2619 2597 2516 
z
" transform="scale(0.015625)"/>
       </defs>
       <use xlink:href="#DejaVuSans-30"/>
       <use xlink:href="#DejaVuSans-2e" transform="translate(63.623047 0)"/>
       <use xlink:href="#DejaVuSans-33" transform="translate(95.410156 0)"/>
       <use xlink:href="#DejaVuSans-30" transform="translate(159.033203 0)"/>
      </g>
     </g>
    </g>
    <g id="xtick_7">
     <g id="line2d_7">
      <g>
       <use xlink:href="#m54a77969af" x="337.039655" y="300.96" style="stroke: #000000; stroke-width: 0.8"/>
      </g>
     </g>
     <g id="text_7">
      <!-- 0.32 -->
      <g transform="translate(325.906842 315.558437) scale(0.1 -0.1)">
       <use xlink:href="#DejaVuSans-30"/>
       <use xlink:href="#DejaVuSans-2e" transform="translate(63.623047 0)"/>
       <use xlink:href="#DejaVuSans-33" transform="translate(95.410156 0)"/>
       <use xlink:href="#DejaVuSans-32" transform="translate(159.033203 0)"/>
      </g>
     </g>
    </g>
    <g id="xtick_8">
     <g id="line2d_8">
      <g>
       <use xlink:href="#m54a77969af" x="380.767415" y="300.96" style="stroke: #000000; stroke-width: 0.8"/>
      </g>
     </g>
     <g id="text_8">
      <!-- 0.34 -->
      <g transform="translate(369.634603 315.558437) scale(0.1 -0.1)">
       <use xlink:href="#DejaVuSans-30"/>
       <use xlink:href="#DejaVuSans-2e" transform="translate(63.623047 0)"/>
       <use xlink:href="#DejaVuSans-33" transform="translate(95.410156 0)"/>
       <use xlink:href="#DejaVuSans-34" transform="translate(159.033203 0)"/>
      </g>
     </g>
    </g>
    <g id="xtick_9">
     <g id="line2d_9">
      <g>
       <use xlink:href="#m54a77969af" x="424.495176" y="300.96" style="stroke: #000000; stroke-width: 0.8"/>
      </g>
     </g>
     <g id="text_9">
      <!-- 0.36 -->
      <g transform="translate(413.362363 315.558437) scale(0.1 -0.1)">
       <use xlink:href="#DejaVuSans-30"/>
       <use xlink:href="#DejaVuSans-2e" transform="translate(63.623047 0)"/>
       <use xlink:href="#DejaVuSans-33" transform="translate(95.410156 0)"/>
       <use xlink:href="#DejaVuSans-36" transform="translate(159.033203 0)"/>
      </g>
     </g>
    </g>
    <g id="text_10">
     <!-- $s^2_F$ -->
     <g transform="translate(245.655625 330.738125) scale(0.1 -0.1)">
      <defs>
       <path id="DejaVuSans-Oblique-73" d="M 3200 3397 
L 3091 2853 
Q 2863 2978 2609 3040 
Q 2356 3103 2088 3103 
Q 1634 3103 1373 2948 
Q 1113 2794 1113 2528 
Q 1113 2219 1719 2053 
Q 1766 2041 1788 2034 
L 1972 1978 
Q 2547 1819 2739 1644 
Q 2931 1469 2931 1166 
Q 2931 609 2489 259 
Q 2047 -91 1331 -91 
Q 1053 -91 747 -37 
Q 441 16 72 128 
L 184 722 
Q 500 559 806 475 
Q 1113 391 1394 391 
Q 1816 391 2080 572 
Q 2344 753 2344 1031 
Q 2344 1331 1650 1516 
L 1591 1531 
L 1394 1581 
Q 956 1697 753 1886 
Q 550 2075 550 2369 
Q 550 2928 970 3256 
Q 1391 3584 2113 3584 
Q 2397 3584 2667 3537 
Q 2938 3491 3200 3397 
z
" transform="scale(0.015625)"/>
       <path id="DejaVuSans-Oblique-46" d="M 1081 4666 
L 3756 4666 
L 3653 4134 
L 1606 4134 
L 1338 2759 
L 3188 2759 
L 3084 2228 
L 1234 2228 
L 800 0 
L 172 0 
L 1081 4666 
z
" transform="scale(0.015625)"/>
      </defs>
      <use xlink:href="#DejaVuSans-Oblique-73" transform="translate(0 0.765625)"/>
      <use xlink:href="#DejaVuSans-32" transform="translate(56.749505 39.046875) scale(0.7)"/>
      <use xlink:href="#DejaVuSans-Oblique-46" transform="translate(52.099609 -26.578125) scale(0.7)"/>
     </g>
    </g>
   </g>
   <g id="matplotlib.axis_2">
    <g id="ytick_1">
     <g id="line2d_10">
      <defs>
       <path id="md3f121763e" d="M 0 0 
L -3.5 0 
" style="stroke: #000000; stroke-width: 0.8"/>
      </defs>
      <g>
       <use xlink:href="#md3f121763e" x="55.065625" y="267.713769" style="stroke: #000000; stroke-width: 0.8"/>
      </g>
     </g>
     <g id="text_11">
      <!-- 1.10 -->
      <g transform="translate(25.8 271.512988) scale(0.1 -0.1)">
       <defs>
        <path id="DejaVuSans-31" d="M 794 531 
L 1825 531 
L 1825 4091 
L 703 3866 
L 703 4441 
L 1819 4666 
L 2450 4666 
L 2450 531 
L 3481 531 
L 3481 0 
L 794 0 
L 794 531 
z
" transform="scale(0.015625)"/>
       </defs>
       <use xlink:href="#DejaVuSans-31"/>
       <use xlink:href="#DejaVuSans-2e" transform="translate(63.623047 0)"/>
       <use xlink:href="#DejaVuSans-31" transform="translate(95.410156 0)"/>
       <use xlink:href="#DejaVuSans-30" transform="translate(159.033203 0)"/>
      </g>
     </g>
    </g>
    <g id="ytick_2">
     <g id="line2d_11">
      <g>
       <use xlink:href="#md3f121763e" x="55.065625" y="218.093802" style="stroke: #000000; stroke-width: 0.8"/>
      </g>
     </g>
     <g id="text_12">
      <!-- 1.15 -->
      <g transform="translate(25.8 221.893021) scale(0.1 -0.1)">
       <defs>
        <path id="DejaVuSans-35" d="M 691 4666 
L 3169 4666 
L 3169 4134 
L 1269 4134 
L 1269 2991 
Q 1406 3038 1543 3061 
Q 1681 3084 1819 3084 
Q 2600 3084 3056 2656 
Q 3513 2228 3513 1497 
Q 3513 744 3044 326 
Q 2575 -91 1722 -91 
Q 1428 -91 1123 -41 
Q 819 9 494 109 
L 494 744 
Q 775 591 1075 516 
Q 1375 441 1709 441 
Q 2250 441 2565 725 
Q 2881 1009 2881 1497 
Q 2881 1984 2565 2268 
Q 2250 2553 1709 2553 
Q 1456 2553 1204 2497 
Q 953 2441 691 2322 
L 691 4666 
z
" transform="scale(0.015625)"/>
       </defs>
       <use xlink:href="#DejaVuSans-31"/>
       <use xlink:href="#DejaVuSans-2e" transform="translate(63.623047 0)"/>
       <use xlink:href="#DejaVuSans-31" transform="translate(95.410156 0)"/>
       <use xlink:href="#DejaVuSans-35" transform="translate(159.033203 0)"/>
      </g>
     </g>
    </g>
    <g id="ytick_3">
     <g id="line2d_12">
      <g>
       <use xlink:href="#md3f121763e" x="55.065625" y="168.473835" style="stroke: #000000; stroke-width: 0.8"/>
      </g>
     </g>
     <g id="text_13">
      <!-- 1.20 -->
      <g transform="translate(25.8 172.273053) scale(0.1 -0.1)">
       <use xlink:href="#DejaVuSans-31"/>
       <use xlink:href="#DejaVuSans-2e" transform="translate(63.623047 0)"/>
       <use xlink:href="#DejaVuSans-32" transform="translate(95.410156 0)"/>
       <use xlink:href="#DejaVuSans-30" transform="translate(159.033203 0)"/>
      </g>
     </g>
    </g>
    <g id="ytick_4">
     <g id="line2d_13">
      <g>
       <use xlink:href="#md3f121763e" x="55.065625" y="118.853867" style="stroke: #000000; stroke-width: 0.8"/>
      </g>
     </g>
     <g id="text_14">
      <!-- 1.25 -->
      <g transform="translate(25.8 122.653086) scale(0.1 -0.1)">
       <use xlink:href="#DejaVuSans-31"/>
       <use xlink:href="#DejaVuSans-2e" transform="translate(63.623047 0)"/>
       <use xlink:href="#DejaVuSans-32" transform="translate(95.410156 0)"/>
       <use xlink:href="#DejaVuSans-35" transform="translate(159.033203 0)"/>
      </g>
     </g>
    </g>
    <g id="ytick_5">
     <g id="line2d_14">
      <g>
       <use xlink:href="#md3f121763e" x="55.065625" y="69.2339" style="stroke: #000000; stroke-width: 0.8"/>
      </g>
     </g>
     <g id="text_15">
      <!-- 1.30 -->
      <g transform="translate(25.8 73.033119) scale(0.1 -0.1)">
       <use xlink:href="#DejaVuSans-31"/>
       <use xlink:href="#DejaVuSans-2e" transform="translate(63.623047 0)"/>
       <use xlink:href="#DejaVuSans-33" transform="translate(95.410156 0)"/>
       <use xlink:href="#DejaVuSans-30" transform="translate(159.033203 0)"/>
      </g>
     </g>
    </g>
    <g id="ytick_6">
     <g id="line2d_15">
      <g>
       <use xlink:href="#md3f121763e" x="55.065625" y="19.613933" style="stroke: #000000; stroke-width: 0.8"/>
      </g>
     </g>
     <g id="text_16">
      <!-- 1.35 -->
      <g transform="translate(25.8 23.413151) scale(0.1 -0.1)">
       <use xlink:href="#DejaVuSans-31"/>
       <use xlink:href="#DejaVuSans-2e" transform="translate(63.623047 0)"/>
       <use xlink:href="#DejaVuSans-33" transform="translate(95.410156 0)"/>
       <use xlink:href="#DejaVuSans-35" transform="translate(159.033203 0)"/>
      </g>
     </g>
    </g>
    <g id="text_17">
     <!-- $m_\Omega \sqrt{t_0 / a^2}$ -->
     <g transform="translate(19.720313 178.68) rotate(-90) scale(0.1 -0.1)">
      <defs>
       <path id="DejaVuSans-Oblique-6d" d="M 5747 2113 
L 5338 0 
L 4763 0 
L 5166 2094 
Q 5191 2228 5203 2325 
Q 5216 2422 5216 2491 
Q 5216 2772 5059 2928 
Q 4903 3084 4622 3084 
Q 4203 3084 3875 2770 
Q 3547 2456 3450 1953 
L 3066 0 
L 2491 0 
L 2900 2094 
Q 2925 2209 2937 2307 
Q 2950 2406 2950 2484 
Q 2950 2769 2794 2926 
Q 2638 3084 2363 3084 
Q 1938 3084 1609 2770 
Q 1281 2456 1184 1953 
L 800 0 
L 225 0 
L 909 3500 
L 1484 3500 
L 1375 2956 
Q 1609 3263 1923 3423 
Q 2238 3584 2597 3584 
Q 2978 3584 3223 3384 
Q 3469 3184 3519 2828 
Q 3781 3197 4126 3390 
Q 4472 3584 4856 3584 
Q 5306 3584 5551 3325 
Q 5797 3066 5797 2591 
Q 5797 2488 5784 2364 
Q 5772 2241 5747 2113 
z
" transform="scale(0.015625)"/>
       <path id="DejaVuSans-3a9" d="M 4647 556 
L 4647 0 
L 2772 0 
L 2772 556 
Q 3325 859 3634 1378 
Q 3944 1897 3944 2528 
Q 3944 3278 3531 3731 
Q 3119 4184 2444 4184 
Q 1769 4184 1355 3729 
Q 941 3275 941 2528 
Q 941 1897 1250 1378 
Q 1563 859 2119 556 
L 2119 0 
L 244 0 
L 244 556 
L 1241 556 
Q 747 991 519 1456 
Q 294 1922 294 2497 
Q 294 3491 894 4106 
Q 1491 4722 2444 4722 
Q 3391 4722 3994 4106 
Q 4594 3494 4594 2528 
Q 4594 1922 4372 1459 
Q 4150 997 3647 556 
L 4647 556 
z
" transform="scale(0.015625)"/>
       <path id="STIXSizeOneSym-Regular-221a" d="M 6970 9933 
L 3373 -1888 
L 3104 -1888 
L 1626 2918 
Q 1555 3149 1465 3251 
Q 1376 3354 1229 3354 
Q 1011 3354 794 3181 
L 717 3309 
L 1766 4115 
L 1926 4115 
L 3379 -602 
L 3405 -602 
L 6605 9933 
L 6970 9933 
z
" transform="scale(0.015625)"/>
       <path id="DejaVuSans-Oblique-74" d="M 2706 3500 
L 2619 3053 
L 1472 3053 
L 1100 1153 
Q 1081 1047 1072 975 
Q 1063 903 1063 863 
Q 1063 663 1183 572 
Q 1303 481 1569 481 
L 2150 481 
L 2053 0 
L 1503 0 
Q 991 0 739 200 
Q 488 400 488 806 
Q 488 878 497 964 
Q 506 1050 525 1153 
L 897 3053 
L 409 3053 
L 500 3500 
L 978 3500 
L 1172 4494 
L 1747 4494 
L 1556 3500 
L 2706 3500 
z
" transform="scale(0.015625)"/>
       <path id="DejaVuSans-2f" d="M 1625 4666 
L 2156 4666 
L 531 -594 
L 0 -594 
L 1625 4666 
z
" transform="scale(0.015625)"/>
       <path id="DejaVuSans-Oblique-61" d="M 3438 1997 
L 3047 0 
L 2472 0 
L 2578 531 
Q 2325 219 2001 64 
Q 1678 -91 1281 -91 
Q 834 -91 548 182 
Q 263 456 263 884 
Q 263 1497 752 1853 
Q 1241 2209 2100 2209 
L 2900 2209 
L 2931 2363 
Q 2938 2388 2941 2417 
Q 2944 2447 2944 2509 
Q 2944 2788 2717 2942 
Q 2491 3097 2081 3097 
Q 1800 3097 1504 3025 
Q 1209 2953 897 2809 
L 997 3341 
Q 1322 3463 1633 3523 
Q 1944 3584 2234 3584 
Q 2853 3584 3176 3315 
Q 3500 3047 3500 2534 
Q 3500 2431 3484 2292 
Q 3469 2153 3438 1997 
z
M 2816 1759 
L 2241 1759 
Q 1534 1759 1195 1570 
Q 856 1381 856 984 
Q 856 709 1029 553 
Q 1203 397 1509 397 
Q 1978 397 2328 733 
Q 2678 1069 2791 1631 
L 2816 1759 
z
" transform="scale(0.015625)"/>
      </defs>
      <use xlink:href="#DejaVuSans-Oblique-6d" transform="translate(0 0.870312)"/>
      <use xlink:href="#DejaVuSans-3a9" transform="translate(97.412109 -15.535937) scale(0.7)"/>
      <use xlink:href="#STIXSizeOneSym-Regular-221a" transform="translate(153.637695 5.59375) scale(0.751941)"/>
      <use xlink:href="#DejaVuSans-Oblique-74" transform="translate(245.676941 0.515625)"/>
      <use xlink:href="#DejaVuSans-30" transform="translate(284.885925 -15.890625) scale(0.7)"/>
      <use xlink:href="#DejaVuSans-2f" transform="translate(332.156433 0.515625)"/>
      <use xlink:href="#DejaVuSans-Oblique-61" transform="translate(365.847839 0.515625)"/>
      <use xlink:href="#DejaVuSans-32" transform="translate(431.777032 38.796875) scale(0.7)"/>
      <path d="M 233.176941 115.5 
L 233.176941 121.75 
L 491.54754 121.75 
L 491.54754 115.5 
L 233.176941 115.5 
z
"/>
     </g>
    </g>
   </g>
   <g id="line2d_16">
    <path d="M 403.28851 300.96 
L 403.28851 7.2 
" clip-path="url(#pc2fe0d8788)" style="fill: none; stroke-dasharray: 5.55,2.4; stroke-dashoffset: 0; stroke: #1f77b4; stroke-width: 1.5"/>
   </g>
   <g id="line2d_17">
    <path d="M 403.28851 300.96 
L 403.28851 7.2 
" clip-path="url(#pc2fe0d8788)" style="fill: none; stroke-dasharray: 5.55,2.4; stroke-dashoffset: 0; stroke: #1f77b4; stroke-width: 1.5"/>
   </g>
   <g id="line2d_18">
    <path d="M 403.28851 300.96 
L 403.28851 7.2 
" clip-path="url(#pc2fe0d8788)" style="fill: none; stroke-dasharray: 5.55,2.4; stroke-dashoffset: 0; stroke: #1f77b4; stroke-width: 1.5"/>
   </g>
   <g id="line2d_19">
    <path d="M 403.28851 300.96 
L 403.28851 7.2 
" clip-path="url(#pc2fe0d8788)" style="fill: none; stroke-dasharray: 5.55,2.4; stroke-dashoffset: 0; stroke: #1f77b4; stroke-width: 1.5"/>
   </g>
   <g id="line2d_20">
    <path d="M 403.28851 300.96 
L 403.28851 7.2 
" clip-path="url(#pc2fe0d8788)" style="fill: none; stroke-dasharray: 5.55,2.4; stroke-dashoffset: 0; stroke: #1f77b4; stroke-width: 1.5"/>
   </g>
   <g id="line2d_21">
    <path d="M 240.132128 103.218784 
L 235.985638 103.213476 
" clip-path="url(#pc2fe0d8788)" style="fill: none; stroke: #ec5d57; stroke-width: 2; stroke-linecap: square"/>
   </g>
   <g id="line2d_22">
    <path d="M 238.126449 92.343312 
L 237.991317 114.088948 
" clip-path="url(#pc2fe0d8788)" style="fill: none; stroke: #ec5d57; stroke-width: 2; stroke-linecap: square"/>
   </g>
   <g id="line2d_23">
    <path d="M 276.715265 89.005145 
L 272.623641 88.999381 
" clip-path="url(#pc2fe0d8788)" style="fill: none; stroke: #ec5d57; stroke-width: 2; stroke-linecap: square"/>
   </g>
   <g id="line2d_24">
    <path d="M 274.729215 80.261961 
L 274.609691 97.742564 
" clip-path="url(#pc2fe0d8788)" style="fill: none; stroke: #ec5d57; stroke-width: 2; stroke-linecap: square"/>
   </g>
   <g id="line2d_25">
    <path d="M 292.252851 73.087587 
L 287.346478 73.106956 
" clip-path="url(#pc2fe0d8788)" style="fill: none; stroke: #ec5d57; stroke-width: 2; stroke-linecap: square"/>
   </g>
   <g id="line2d_26">
    <path d="M 289.649578 65.26436 
L 289.949751 80.930183 
" clip-path="url(#pc2fe0d8788)" style="fill: none; stroke: #ec5d57; stroke-width: 2; stroke-linecap: square"/>
   </g>
   <g id="line2d_27">
    <path d="M 302.763274 71.98764 
L 299.035777 71.984304 
" clip-path="url(#pc2fe0d8788)" style="fill: none; stroke: #ec5d57; stroke-width: 2; stroke-linecap: square"/>
   </g>
   <g id="line2d_28">
    <path d="M 300.932759 64.335545 
L 300.866293 79.636399 
" clip-path="url(#pc2fe0d8788)" style="fill: none; stroke: #ec5d57; stroke-width: 2; stroke-linecap: square"/>
   </g>
   <g id="line2d_29">
    <path d="M 350.62216 54.610126 
L 346.789855 54.631869 
" clip-path="url(#pc2fe0d8788)" style="fill: none; stroke: #ec5d57; stroke-width: 2; stroke-linecap: square"/>
   </g>
   <g id="line2d_30">
    <path d="M 348.572796 49.783583 
L 348.83922 59.458412 
" clip-path="url(#pc2fe0d8788)" style="fill: none; stroke: #ec5d57; stroke-width: 2; stroke-linecap: square"/>
   </g>
   <g id="line2d_31">
    <path d="M 428.941989 26.541735 
L 423.950717 26.562443 
" clip-path="url(#pc2fe0d8788)" style="fill: none; stroke: #ec5d57; stroke-width: 2; stroke-linecap: square"/>
   </g>
   <g id="line2d_32">
    <path d="M 426.404607 24.479101 
L 426.488099 28.625077 
" clip-path="url(#pc2fe0d8788)" style="fill: none; stroke: #ec5d57; stroke-width: 2; stroke-linecap: square"/>
   </g>
   <g id="line2d_33">
    <path d="M 218.469652 125.720563 
L 214.253173 125.707791 
" clip-path="url(#pc2fe0d8788)" style="fill: none; stroke: #70bf41; stroke-width: 2; stroke-linecap: square"/>
   </g>
   <g id="line2d_34">
    <path d="M 216.484755 117.324545 
L 216.23807 134.103809 
" clip-path="url(#pc2fe0d8788)" style="fill: none; stroke: #70bf41; stroke-width: 2; stroke-linecap: square"/>
   </g>
   <g id="line2d_35">
    <path d="M 254.688254 119.036248 
L 248.864916 119.032953 
" clip-path="url(#pc2fe0d8788)" style="fill: none; stroke: #70bf41; stroke-width: 2; stroke-linecap: square"/>
   </g>
   <g id="line2d_36">
    <path d="M 251.797093 111.567666 
L 251.756077 126.501534 
" clip-path="url(#pc2fe0d8788)" style="fill: none; stroke: #70bf41; stroke-width: 2; stroke-linecap: square"/>
   </g>
   <g id="line2d_37">
    <path d="M 275.877019 105.998525 
L 270.806615 106.010096 
" clip-path="url(#pc2fe0d8788)" style="fill: none; stroke: #70bf41; stroke-width: 2; stroke-linecap: square"/>
   </g>
   <g id="line2d_38">
    <path d="M 273.254461 98.117192 
L 273.429174 113.891429 
" clip-path="url(#pc2fe0d8788)" style="fill: none; stroke: #70bf41; stroke-width: 2; stroke-linecap: square"/>
   </g>
   <g id="line2d_39">
    <path d="M 281.177611 102.003348 
L 276.141071 102.012641 
" clip-path="url(#pc2fe0d8788)" style="fill: none; stroke: #70bf41; stroke-width: 2; stroke-linecap: square"/>
   </g>
   <g id="line2d_40">
    <path d="M 278.597555 95.108807 
L 278.721127 108.907182 
" clip-path="url(#pc2fe0d8788)" style="fill: none; stroke: #70bf41; stroke-width: 2; stroke-linecap: square"/>
   </g>
   <g id="line2d_41">
    <path d="M 76.617775 205.105343 
L 72.869261 205.109425 
" clip-path="url(#pc2fe0d8788)" style="fill: none; stroke: #70bf41; stroke-width: 2; stroke-linecap: square"/>
   </g>
   <g id="line2d_42">
    <path d="M 74.668787 190.966846 
L 74.81825 219.247922 
" clip-path="url(#pc2fe0d8788)" style="fill: none; stroke: #70bf41; stroke-width: 2; stroke-linecap: square"/>
   </g>
   <g id="line2d_43">
    <path d="M 343.341784 78.31132 
L 335.062825 78.341906 
" clip-path="url(#pc2fe0d8788)" style="fill: none; stroke: #70bf41; stroke-width: 2; stroke-linecap: square"/>
   </g>
   <g id="line2d_44">
    <path d="M 339.123225 73.916698 
L 339.281385 82.736528 
" clip-path="url(#pc2fe0d8788)" style="fill: none; stroke: #70bf41; stroke-width: 2; stroke-linecap: square"/>
   </g>
   <g id="line2d_45">
    <path d="M 339.16124 79.701939 
L 332.861685 79.715652 
" clip-path="url(#pc2fe0d8788)" style="fill: none; stroke: #70bf41; stroke-width: 2; stroke-linecap: square"/>
   </g>
   <g id="line2d_46">
    <path d="M 335.958453 74.692075 
L 336.064471 84.725516 
" clip-path="url(#pc2fe0d8788)" style="fill: none; stroke: #70bf41; stroke-width: 2; stroke-linecap: square"/>
   </g>
   <g id="line2d_47">
    <path d="M 340.703927 82.303655 
L 334.152603 82.32259 
" clip-path="url(#pc2fe0d8788)" style="fill: none; stroke: #70bf41; stroke-width: 2; stroke-linecap: square"/>
   </g>
   <g id="line2d_48">
    <path d="M 337.309609 73.855238 
L 337.546921 90.771007 
" clip-path="url(#pc2fe0d8788)" style="fill: none; stroke: #70bf41; stroke-width: 2; stroke-linecap: square"/>
   </g>
   <g id="line2d_49">
    <path d="M 365.837292 66.830299 
L 360.270147 66.863632 
" clip-path="url(#pc2fe0d8788)" style="fill: none; stroke: #70bf41; stroke-width: 2; stroke-linecap: square"/>
   </g>
   <g id="line2d_50">
    <path d="M 362.941018 62.968971 
L 363.16642 70.724959 
" clip-path="url(#pc2fe0d8788)" style="fill: none; stroke: #70bf41; stroke-width: 2; stroke-linecap: square"/>
   </g>
   <g id="line2d_51">
    <path d="M 390.094124 67.037325 
L 384.084833 67.062363 
" clip-path="url(#pc2fe0d8788)" style="fill: none; stroke: #70bf41; stroke-width: 2; stroke-linecap: square"/>
   </g>
   <g id="line2d_52">
    <path d="M 387.021637 63.695163 
L 387.15732 70.404525 
" clip-path="url(#pc2fe0d8788)" style="fill: none; stroke: #70bf41; stroke-width: 2; stroke-linecap: square"/>
   </g>
   <g id="line2d_53">
    <path d="M 216.17848 152.399103 
L 212.294131 152.400288 
" clip-path="url(#pc2fe0d8788)" style="fill: none; stroke: #51a7f9; stroke-width: 2; stroke-linecap: square"/>
   </g>
   <g id="line2d_54">
    <path d="M 214.221259 142.235889 
L 214.251353 162.563501 
" clip-path="url(#pc2fe0d8788)" style="fill: none; stroke: #51a7f9; stroke-width: 2; stroke-linecap: square"/>
   </g>
   <g id="line2d_55">
    <path d="M 257.796901 151.143535 
L 252.963118 151.150723 
" clip-path="url(#pc2fe0d8788)" style="fill: none; stroke: #51a7f9; stroke-width: 2; stroke-linecap: square"/>
   </g>
   <g id="line2d_56">
    <path d="M 255.308604 141.25458 
L 255.451415 161.039678 
" clip-path="url(#pc2fe0d8788)" style="fill: none; stroke: #51a7f9; stroke-width: 2; stroke-linecap: square"/>
   </g>
   <g id="line2d_57">
    <path d="M 283.707802 133.409871 
L 279.445667 133.416601 
" clip-path="url(#pc2fe0d8788)" style="fill: none; stroke: #51a7f9; stroke-width: 2; stroke-linecap: square"/>
   </g>
   <g id="line2d_58">
    <path d="M 281.506856 124.295738 
L 281.646613 142.530734 
" clip-path="url(#pc2fe0d8788)" style="fill: none; stroke: #51a7f9; stroke-width: 2; stroke-linecap: square"/>
   </g>
   <g id="line2d_59">
    <path d="M 356.942533 114.888045 
L 351.416222 114.891728 
" clip-path="url(#pc2fe0d8788)" style="fill: none; stroke: #51a7f9; stroke-width: 2; stroke-linecap: square"/>
   </g>
   <g id="line2d_60">
    <path d="M 354.159767 108.827894 
L 354.198988 120.951879 
" clip-path="url(#pc2fe0d8788)" style="fill: none; stroke: #51a7f9; stroke-width: 2; stroke-linecap: square"/>
   </g>
   <g id="line2d_61">
    <path d="M 406.522682 105.859038 
L 398.897632 105.911742 
" clip-path="url(#pc2fe0d8788)" style="fill: none; stroke: #51a7f9; stroke-width: 2; stroke-linecap: square"/>
   </g>
   <g id="line2d_62">
    <path d="M 402.563912 101.526269 
L 402.856403 110.24451 
" clip-path="url(#pc2fe0d8788)" style="fill: none; stroke: #51a7f9; stroke-width: 2; stroke-linecap: square"/>
   </g>
   <g id="line2d_63">
    <path d="M 295.418864 153.881767 
L 288.082064 153.896231 
" clip-path="url(#pc2fe0d8788)" style="fill: none; stroke: #6a5acd; stroke-width: 2; stroke-linecap: square"/>
   </g>
   <g id="line2d_64">
    <path d="M 291.657585 144.182512 
L 291.843344 163.595487 
" clip-path="url(#pc2fe0d8788)" style="fill: none; stroke: #6a5acd; stroke-width: 2; stroke-linecap: square"/>
   </g>
   <g id="LineCollection_1"/>
   <g id="LineCollection_2"/>
   <g id="LineCollection_3"/>
   <g id="LineCollection_4"/>
   <g id="LineCollection_5"/>
   <g id="LineCollection_6"/>
   <g id="LineCollection_7"/>
   <g id="LineCollection_8"/>
   <g id="line2d_65"/>
   <g id="line2d_66"/>
   <g id="line2d_67"/>
   <g id="line2d_68"/>
   <g id="patch_3">
    <path d="M 55.065625 300.96 
L 55.065625 7.2 
" style="fill: none; stroke: #000000; stroke-width: 0.8; stroke-linejoin: miter; stroke-linecap: square"/>
   </g>
   <g id="patch_4">
    <path d="M 446.745625 300.96 
L 446.745625 7.2 
" style="fill: none; stroke: #000000; stroke-width: 0.8; stroke-linejoin: miter; stroke-linecap: square"/>
   </g>
   <g id="patch_5">
    <path d="M 55.065625 300.96 
L 446.745625 300.96 
" style="fill: none; stroke: #000000; stroke-width: 0.8; stroke-linejoin: miter; stroke-linecap: square"/>
   </g>
   <g id="patch_6">
    <path d="M 55.065625 7.2 
L 446.745625 7.2 
" style="fill: none; stroke: #000000; stroke-width: 0.8; stroke-linejoin: miter; stroke-linecap: square"/>
   </g>
   <g id="line2d_69">
    <path d="M 238.058883 103.21613 
" clip-path="url(#pc2fe0d8788)" style="fill: none; stroke: #ec5d57; stroke-width: 1.5; stroke-linecap: square"/>
    <defs>
     <path id="mbe0caff971" d="M 0 3 
C 0.795609 3 1.55874 2.683901 2.12132 2.12132 
C 2.683901 1.55874 3 0.795609 3 0 
C 3 -0.795609 2.683901 -1.55874 2.12132 -2.12132 
C 1.55874 -2.683901 0.795609 -3 0 -3 
C -0.795609 -3 -1.55874 -2.683901 -2.12132 -2.12132 
C -2.683901 -1.55874 -3 -0.795609 -3 0 
C -3 0.795609 -2.683901 1.55874 -2.12132 2.12132 
C -1.55874 2.683901 -0.795609 3 0 3 
z
" style="stroke: #ffffff"/>
    </defs>
    <g clip-path="url(#pc2fe0d8788)">
     <use xlink:href="#mbe0caff971" x="238.058883" y="103.21613" style="fill: #ec5d57; stroke: #ffffff"/>
    </g>
   </g>
   <g id="line2d_70">
    <path d="M 238.058883 103.21613 
" clip-path="url(#pc2fe0d8788)" style="fill: none; stroke: #ec5d57; stroke-width: 1.5; stroke-linecap: square"/>
    <g clip-path="url(#pc2fe0d8788)">
     <use xlink:href="#mbe0caff971" x="238.058883" y="103.21613" style="fill: #ec5d57; stroke: #ffffff"/>
    </g>
   </g>
   <g id="line2d_71">
    <path d="M 274.669453 89.002263 
" clip-path="url(#pc2fe0d8788)" style="fill: none; stroke: #ec5d57; stroke-width: 1.5; stroke-linecap: square"/>
    <g clip-path="url(#pc2fe0d8788)">
     <use xlink:href="#mbe0caff971" x="274.669453" y="89.002263" style="fill: #ec5d57; stroke: #ffffff"/>
    </g>
   </g>
   <g id="line2d_72">
    <path d="M 274.669453 89.002263 
" clip-path="url(#pc2fe0d8788)" style="fill: none; stroke: #ec5d57; stroke-width: 1.5; stroke-linecap: square"/>
    <g clip-path="url(#pc2fe0d8788)">
     <use xlink:href="#mbe0caff971" x="274.669453" y="89.002263" style="fill: #ec5d57; stroke: #ffffff"/>
    </g>
   </g>
   <g id="line2d_73">
    <path d="M 289.799664 73.097271 
" clip-path="url(#pc2fe0d8788)" style="fill: none; stroke: #ec5d57; stroke-width: 1.5; stroke-linecap: square"/>
    <g clip-path="url(#pc2fe0d8788)">
     <use xlink:href="#mbe0caff971" x="289.799664" y="73.097271" style="fill: #ec5d57; stroke: #ffffff"/>
    </g>
   </g>
   <g id="line2d_74">
    <path d="M 289.799664 73.097271 
" clip-path="url(#pc2fe0d8788)" style="fill: none; stroke: #ec5d57; stroke-width: 1.5; stroke-linecap: square"/>
    <g clip-path="url(#pc2fe0d8788)">
     <use xlink:href="#mbe0caff971" x="289.799664" y="73.097271" style="fill: #ec5d57; stroke: #ffffff"/>
    </g>
   </g>
   <g id="line2d_75">
    <path d="M 300.899526 71.985972 
" clip-path="url(#pc2fe0d8788)" style="fill: none; stroke: #ec5d57; stroke-width: 1.5; stroke-linecap: square"/>
    <g clip-path="url(#pc2fe0d8788)">
     <use xlink:href="#mbe0caff971" x="300.899526" y="71.985972" style="fill: #ec5d57; stroke: #ffffff"/>
    </g>
   </g>
   <g id="line2d_76">
    <path d="M 300.899526 71.985972 
" clip-path="url(#pc2fe0d8788)" style="fill: none; stroke: #ec5d57; stroke-width: 1.5; stroke-linecap: square"/>
    <g clip-path="url(#pc2fe0d8788)">
     <use xlink:href="#mbe0caff971" x="300.899526" y="71.985972" style="fill: #ec5d57; stroke: #ffffff"/>
    </g>
   </g>
   <g id="line2d_77">
    <path d="M 348.706008 54.620998 
" clip-path="url(#pc2fe0d8788)" style="fill: none; stroke: #ec5d57; stroke-width: 1.5; stroke-linecap: square"/>
    <g clip-path="url(#pc2fe0d8788)">
     <use xlink:href="#mbe0caff971" x="348.706008" y="54.620998" style="fill: #ec5d57; stroke: #ffffff"/>
    </g>
   </g>
   <g id="line2d_78">
    <path d="M 348.706008 54.620998 
" clip-path="url(#pc2fe0d8788)" style="fill: none; stroke: #ec5d57; stroke-width: 1.5; stroke-linecap: square"/>
    <g clip-path="url(#pc2fe0d8788)">
     <use xlink:href="#mbe0caff971" x="348.706008" y="54.620998" style="fill: #ec5d57; stroke: #ffffff"/>
    </g>
   </g>
   <g id="line2d_79">
    <path d="M 426.446353 26.552089 
" clip-path="url(#pc2fe0d8788)" style="fill: none; stroke: #ec5d57; stroke-width: 1.5; stroke-linecap: square"/>
    <g clip-path="url(#pc2fe0d8788)">
     <use xlink:href="#mbe0caff971" x="426.446353" y="26.552089" style="fill: #ec5d57; stroke: #ffffff"/>
    </g>
   </g>
   <g id="line2d_80">
    <path d="M 426.446353 26.552089 
" clip-path="url(#pc2fe0d8788)" style="fill: none; stroke: #ec5d57; stroke-width: 1.5; stroke-linecap: square"/>
    <g clip-path="url(#pc2fe0d8788)">
     <use xlink:href="#mbe0caff971" x="426.446353" y="26.552089" style="fill: #ec5d57; stroke: #ffffff"/>
    </g>
   </g>
   <g id="line2d_81">
    <path d="M 216.361413 125.714177 
" clip-path="url(#pc2fe0d8788)" style="fill: none; stroke: #70bf41; stroke-width: 1.5; stroke-linecap: square"/>
    <defs>
     <path id="m0e1d909ced" d="M 0 3 
C 0.795609 3 1.55874 2.683901 2.12132 2.12132 
C 2.683901 1.55874 3 0.795609 3 0 
C 3 -0.795609 2.683901 -1.55874 2.12132 -2.12132 
C 1.55874 -2.683901 0.795609 -3 0 -3 
C -0.795609 -3 -1.55874 -2.683901 -2.12132 -2.12132 
C -2.683901 -1.55874 -3 -0.795609 -3 0 
C -3 0.795609 -2.683901 1.55874 -2.12132 2.12132 
C -1.55874 2.683901 -0.795609 3 0 3 
z
" style="stroke: #ffffff"/>
    </defs>
    <g clip-path="url(#pc2fe0d8788)">
     <use xlink:href="#m0e1d909ced" x="216.361413" y="125.714177" style="fill: #70bf41; stroke: #ffffff"/>
    </g>
   </g>
   <g id="line2d_82">
    <path d="M 216.361413 125.714177 
" clip-path="url(#pc2fe0d8788)" style="fill: none; stroke: #70bf41; stroke-width: 1.5; stroke-linecap: square"/>
    <g clip-path="url(#pc2fe0d8788)">
     <use xlink:href="#m0e1d909ced" x="216.361413" y="125.714177" style="fill: #70bf41; stroke: #ffffff"/>
    </g>
   </g>
   <g id="line2d_83">
    <path d="M 251.776585 119.0346 
" clip-path="url(#pc2fe0d8788)" style="fill: none; stroke: #70bf41; stroke-width: 1.5; stroke-linecap: square"/>
    <g clip-path="url(#pc2fe0d8788)">
     <use xlink:href="#m0e1d909ced" x="251.776585" y="119.0346" style="fill: #70bf41; stroke: #ffffff"/>
    </g>
   </g>
   <g id="line2d_84">
    <path d="M 251.776585 119.0346 
" clip-path="url(#pc2fe0d8788)" style="fill: none; stroke: #70bf41; stroke-width: 1.5; stroke-linecap: square"/>
    <g clip-path="url(#pc2fe0d8788)">
     <use xlink:href="#m0e1d909ced" x="251.776585" y="119.0346" style="fill: #70bf41; stroke: #ffffff"/>
    </g>
   </g>
   <g id="line2d_85">
    <path d="M 273.341817 106.00431 
" clip-path="url(#pc2fe0d8788)" style="fill: none; stroke: #70bf41; stroke-width: 1.5; stroke-linecap: square"/>
    <g clip-path="url(#pc2fe0d8788)">
     <use xlink:href="#m0e1d909ced" x="273.341817" y="106.00431" style="fill: #70bf41; stroke: #ffffff"/>
    </g>
   </g>
   <g id="line2d_86">
    <path d="M 273.341817 106.00431 
" clip-path="url(#pc2fe0d8788)" style="fill: none; stroke: #70bf41; stroke-width: 1.5; stroke-linecap: square"/>
    <g clip-path="url(#pc2fe0d8788)">
     <use xlink:href="#m0e1d909ced" x="273.341817" y="106.00431" style="fill: #70bf41; stroke: #ffffff"/>
    </g>
   </g>
   <g id="line2d_87">
    <path d="M 278.659341 102.007995 
" clip-path="url(#pc2fe0d8788)" style="fill: none; stroke: #70bf41; stroke-width: 1.5; stroke-linecap: square"/>
    <g clip-path="url(#pc2fe0d8788)">
     <use xlink:href="#m0e1d909ced" x="278.659341" y="102.007995" style="fill: #70bf41; stroke: #ffffff"/>
    </g>
   </g>
   <g id="line2d_88">
    <path d="M 278.659341 102.007995 
" clip-path="url(#pc2fe0d8788)" style="fill: none; stroke: #70bf41; stroke-width: 1.5; stroke-linecap: square"/>
    <g clip-path="url(#pc2fe0d8788)">
     <use xlink:href="#m0e1d909ced" x="278.659341" y="102.007995" style="fill: #70bf41; stroke: #ffffff"/>
    </g>
   </g>
   <g id="line2d_89">
    <path d="M 74.743518 205.107384 
" clip-path="url(#pc2fe0d8788)" style="fill: none; stroke: #70bf41; stroke-width: 1.5; stroke-linecap: square"/>
    <g clip-path="url(#pc2fe0d8788)">
     <use xlink:href="#m0e1d909ced" x="74.743518" y="205.107384" style="fill: #70bf41; stroke: #ffffff"/>
    </g>
   </g>
   <g id="line2d_90">
    <path d="M 74.743518 205.107384 
" clip-path="url(#pc2fe0d8788)" style="fill: none; stroke: #70bf41; stroke-width: 1.5; stroke-linecap: square"/>
    <g clip-path="url(#pc2fe0d8788)">
     <use xlink:href="#m0e1d909ced" x="74.743518" y="205.107384" style="fill: #70bf41; stroke: #ffffff"/>
    </g>
   </g>
   <g id="line2d_91">
    <path d="M 339.202305 78.326613 
" clip-path="url(#pc2fe0d8788)" style="fill: none; stroke: #70bf41; stroke-width: 1.5; stroke-linecap: square"/>
    <g clip-path="url(#pc2fe0d8788)">
     <use xlink:href="#m0e1d909ced" x="339.202305" y="78.326613" style="fill: #70bf41; stroke: #ffffff"/>
    </g>
   </g>
   <g id="line2d_92">
    <path d="M 339.202305 78.326613 
" clip-path="url(#pc2fe0d8788)" style="fill: none; stroke: #70bf41; stroke-width: 1.5; stroke-linecap: square"/>
    <g clip-path="url(#pc2fe0d8788)">
     <use xlink:href="#m0e1d909ced" x="339.202305" y="78.326613" style="fill: #70bf41; stroke: #ffffff"/>
    </g>
   </g>
   <g id="line2d_93">
    <path d="M 336.011462 79.708796 
" clip-path="url(#pc2fe0d8788)" style="fill: none; stroke: #70bf41; stroke-width: 1.5; stroke-linecap: square"/>
    <g clip-path="url(#pc2fe0d8788)">
     <use xlink:href="#m0e1d909ced" x="336.011462" y="79.708796" style="fill: #70bf41; stroke: #ffffff"/>
    </g>
   </g>
   <g id="line2d_94">
    <path d="M 336.011462 79.708796 
" clip-path="url(#pc2fe0d8788)" style="fill: none; stroke: #70bf41; stroke-width: 1.5; stroke-linecap: square"/>
    <g clip-path="url(#pc2fe0d8788)">
     <use xlink:href="#m0e1d909ced" x="336.011462" y="79.708796" style="fill: #70bf41; stroke: #ffffff"/>
    </g>
   </g>
   <g id="line2d_95">
    <path d="M 337.428265 82.313122 
" clip-path="url(#pc2fe0d8788)" style="fill: none; stroke: #70bf41; stroke-width: 1.5; stroke-linecap: square"/>
    <g clip-path="url(#pc2fe0d8788)">
     <use xlink:href="#m0e1d909ced" x="337.428265" y="82.313122" style="fill: #70bf41; stroke: #ffffff"/>
    </g>
   </g>
   <g id="line2d_96">
    <path d="M 337.428265 82.313122 
" clip-path="url(#pc2fe0d8788)" style="fill: none; stroke: #70bf41; stroke-width: 1.5; stroke-linecap: square"/>
    <g clip-path="url(#pc2fe0d8788)">
     <use xlink:href="#m0e1d909ced" x="337.428265" y="82.313122" style="fill: #70bf41; stroke: #ffffff"/>
    </g>
   </g>
   <g id="line2d_97">
    <path d="M 363.053719 66.846965 
" clip-path="url(#pc2fe0d8788)" style="fill: none; stroke: #70bf41; stroke-width: 1.5; stroke-linecap: square"/>
    <g clip-path="url(#pc2fe0d8788)">
     <use xlink:href="#m0e1d909ced" x="363.053719" y="66.846965" style="fill: #70bf41; stroke: #ffffff"/>
    </g>
   </g>
   <g id="line2d_98">
    <path d="M 363.053719 66.846965 
" clip-path="url(#pc2fe0d8788)" style="fill: none; stroke: #70bf41; stroke-width: 1.5; stroke-linecap: square"/>
    <g clip-path="url(#pc2fe0d8788)">
     <use xlink:href="#m0e1d909ced" x="363.053719" y="66.846965" style="fill: #70bf41; stroke: #ffffff"/>
    </g>
   </g>
   <g id="line2d_99">
    <path d="M 387.089479 67.049844 
" clip-path="url(#pc2fe0d8788)" style="fill: none; stroke: #70bf41; stroke-width: 1.5; stroke-linecap: square"/>
    <g clip-path="url(#pc2fe0d8788)">
     <use xlink:href="#m0e1d909ced" x="387.089479" y="67.049844" style="fill: #70bf41; stroke: #ffffff"/>
    </g>
   </g>
   <g id="line2d_100">
    <path d="M 387.089479 67.049844 
" clip-path="url(#pc2fe0d8788)" style="fill: none; stroke: #70bf41; stroke-width: 1.5; stroke-linecap: square"/>
    <g clip-path="url(#pc2fe0d8788)">
     <use xlink:href="#m0e1d909ced" x="387.089479" y="67.049844" style="fill: #70bf41; stroke: #ffffff"/>
    </g>
   </g>
   <g id="line2d_101">
    <path d="M 214.236306 152.399695 
" clip-path="url(#pc2fe0d8788)" style="fill: none; stroke: #51a7f9; stroke-width: 1.5; stroke-linecap: square"/>
    <defs>
     <path id="m1936eb45df" d="M 0 3 
C 0.795609 3 1.55874 2.683901 2.12132 2.12132 
C 2.683901 1.55874 3 0.795609 3 0 
C 3 -0.795609 2.683901 -1.55874 2.12132 -2.12132 
C 1.55874 -2.683901 0.795609 -3 0 -3 
C -0.795609 -3 -1.55874 -2.683901 -2.12132 -2.12132 
C -2.683901 -1.55874 -3 -0.795609 -3 0 
C -3 0.795609 -2.683901 1.55874 -2.12132 2.12132 
C -1.55874 2.683901 -0.795609 3 0 3 
z
" style="stroke: #ffffff"/>
    </defs>
    <g clip-path="url(#pc2fe0d8788)">
     <use xlink:href="#m1936eb45df" x="214.236306" y="152.399695" style="fill: #51a7f9; stroke: #ffffff"/>
    </g>
   </g>
   <g id="line2d_102">
    <path d="M 214.236306 152.399695 
" clip-path="url(#pc2fe0d8788)" style="fill: none; stroke: #51a7f9; stroke-width: 1.5; stroke-linecap: square"/>
    <g clip-path="url(#pc2fe0d8788)">
     <use xlink:href="#m1936eb45df" x="214.236306" y="152.399695" style="fill: #51a7f9; stroke: #ffffff"/>
    </g>
   </g>
   <g id="line2d_103">
    <path d="M 255.38001 151.147129 
" clip-path="url(#pc2fe0d8788)" style="fill: none; stroke: #51a7f9; stroke-width: 1.5; stroke-linecap: square"/>
    <g clip-path="url(#pc2fe0d8788)">
     <use xlink:href="#m1936eb45df" x="255.38001" y="151.147129" style="fill: #51a7f9; stroke: #ffffff"/>
    </g>
   </g>
   <g id="line2d_104">
    <path d="M 255.38001 151.147129 
" clip-path="url(#pc2fe0d8788)" style="fill: none; stroke: #51a7f9; stroke-width: 1.5; stroke-linecap: square"/>
    <g clip-path="url(#pc2fe0d8788)">
     <use xlink:href="#m1936eb45df" x="255.38001" y="151.147129" style="fill: #51a7f9; stroke: #ffffff"/>
    </g>
   </g>
   <g id="line2d_105">
    <path d="M 281.576734 133.413236 
" clip-path="url(#pc2fe0d8788)" style="fill: none; stroke: #51a7f9; stroke-width: 1.5; stroke-linecap: square"/>
    <g clip-path="url(#pc2fe0d8788)">
     <use xlink:href="#m1936eb45df" x="281.576734" y="133.413236" style="fill: #51a7f9; stroke: #ffffff"/>
    </g>
   </g>
   <g id="line2d_106">
    <path d="M 281.576734 133.413236 
" clip-path="url(#pc2fe0d8788)" style="fill: none; stroke: #51a7f9; stroke-width: 1.5; stroke-linecap: square"/>
    <g clip-path="url(#pc2fe0d8788)">
     <use xlink:href="#m1936eb45df" x="281.576734" y="133.413236" style="fill: #51a7f9; stroke: #ffffff"/>
    </g>
   </g>
   <g id="line2d_107">
    <path d="M 354.179378 114.889887 
" clip-path="url(#pc2fe0d8788)" style="fill: none; stroke: #51a7f9; stroke-width: 1.5; stroke-linecap: square"/>
    <g clip-path="url(#pc2fe0d8788)">
     <use xlink:href="#m1936eb45df" x="354.179378" y="114.889887" style="fill: #51a7f9; stroke: #ffffff"/>
    </g>
   </g>
   <g id="line2d_108">
    <path d="M 354.179378 114.889887 
" clip-path="url(#pc2fe0d8788)" style="fill: none; stroke: #51a7f9; stroke-width: 1.5; stroke-linecap: square"/>
    <g clip-path="url(#pc2fe0d8788)">
     <use xlink:href="#m1936eb45df" x="354.179378" y="114.889887" style="fill: #51a7f9; stroke: #ffffff"/>
    </g>
   </g>
   <g id="line2d_109">
    <path d="M 402.710157 105.88539 
" clip-path="url(#pc2fe0d8788)" style="fill: none; stroke: #51a7f9; stroke-width: 1.5; stroke-linecap: square"/>
    <g clip-path="url(#pc2fe0d8788)">
     <use xlink:href="#m1936eb45df" x="402.710157" y="105.88539" style="fill: #51a7f9; stroke: #ffffff"/>
    </g>
   </g>
   <g id="line2d_110">
    <path d="M 402.710157 105.88539 
" clip-path="url(#pc2fe0d8788)" style="fill: none; stroke: #51a7f9; stroke-width: 1.5; stroke-linecap: square"/>
    <g clip-path="url(#pc2fe0d8788)">
     <use xlink:href="#m1936eb45df" x="402.710157" y="105.88539" style="fill: #51a7f9; stroke: #ffffff"/>
    </g>
   </g>
   <g id="line2d_111">
    <path d="M 291.750464 153.888999 
" clip-path="url(#pc2fe0d8788)" style="fill: none; stroke: #6a5acd; stroke-width: 1.5; stroke-linecap: square"/>
    <defs>
     <path id="md0c8c838a3" d="M 0 3 
C 0.795609 3 1.55874 2.683901 2.12132 2.12132 
C 2.683901 1.55874 3 0.795609 3 0 
C 3 -0.795609 2.683901 -1.55874 2.12132 -2.12132 
C 1.55874 -2.683901 0.795609 -3 0 -3 
C -0.795609 -3 -1.55874 -2.683901 -2.12132 -2.12132 
C -2.683901 -1.55874 -3 -0.795609 -3 0 
C -3 0.795609 -2.683901 1.55874 -2.12132 2.12132 
C -1.55874 2.683901 -0.795609 3 0 3 
z
" style="stroke: #ffffff"/>
    </defs>
    <g clip-path="url(#pc2fe0d8788)">
     <use xlink:href="#md0c8c838a3" x="291.750464" y="153.888999" style="fill: #6a5acd; stroke: #ffffff"/>
    </g>
   </g>
   <g id="line2d_112">
    <path d="M 291.750464 153.888999 
" clip-path="url(#pc2fe0d8788)" style="fill: none; stroke: #6a5acd; stroke-width: 1.5; stroke-linecap: square"/>
    <g clip-path="url(#pc2fe0d8788)">
     <use xlink:href="#md0c8c838a3" x="291.750464" y="153.888999" style="fill: #6a5acd; stroke: #ffffff"/>
    </g>
   </g>
   <g id="legend_1">
    <g id="patch_7">
     <path d="M 62.065625 51.6 
L 258.665625 51.6 
Q 260.665625 51.6 260.665625 49.6 
L 260.665625 14.2 
Q 260.665625 12.2 258.665625 12.2 
L 62.065625 12.2 
Q 60.065625 12.2 60.065625 14.2 
L 60.065625 49.6 
Q 60.065625 51.6 62.065625 51.6 
z
" style="fill: #ffffff; opacity: 0.8; stroke: #cccccc; stroke-linejoin: miter"/>
    </g>
    <g id="LineCollection_9">
     <path d="M 69.065625 23.1 
L 79.065625 23.1 
" style="fill: none; stroke: #6a5acd; stroke-width: 3"/>
    </g>
    <g id="LineCollection_10">
     <path d="M 74.065625 28.1 
L 74.065625 18.1 
" style="fill: none; stroke: #6a5acd; stroke-width: 3"/>
    </g>
    <g id="line2d_113">
     <path d="M 64.065625 23.1 
L 84.065625 23.1 
" style="fill: none; stroke: #6a5acd; stroke-width: 1.5; stroke-linecap: square"/>
    </g>
    <g id="line2d_114">
     <defs>
      <path id="m2f56773962" d="M 0 4 
C 1.060812 4 2.078319 3.578535 2.828427 2.828427 
C 3.578535 2.078319 4 1.060812 4 0 
C 4 -1.060812 3.578535 -2.078319 2.828427 -2.828427 
C 2.078319 -3.578535 1.060812 -4 0 -4 
C -1.060812 -4 -2.078319 -3.578535 -2.828427 -2.828427 
C -3.578535 -2.078319 -4 -1.060812 -4 0 
C -4 1.060812 -3.578535 2.078319 -2.828427 2.828427 
C -2.078319 3.578535 -1.060812 4 0 4 
z
" style="stroke: #ffffff; stroke-width: 2"/>
     </defs>
     <g>
      <use xlink:href="#m2f56773962" x="74.065625" y="23.1" style="fill: #6a5acd; stroke: #ffffff; stroke-width: 2"/>
     </g>
    </g>
    <g id="text_18">
     <!-- $a_{06}(l_F^{\rm phys},s_F)$ -->
     <g transform="translate(92.065625 26.6) scale(0.1 -0.1)">
      <defs>
       <path id="DejaVuSans-28" d="M 1984 4856 
Q 1566 4138 1362 3434 
Q 1159 2731 1159 2009 
Q 1159 1288 1364 580 
Q 1569 -128 1984 -844 
L 1484 -844 
Q 1016 -109 783 600 
Q 550 1309 550 2009 
Q 550 2706 781 3412 
Q 1013 4119 1484 4856 
L 1984 4856 
z
" transform="scale(0.015625)"/>
       <path id="DejaVuSans-Oblique-6c" d="M 1172 4863 
L 1747 4863 
L 800 0 
L 225 0 
L 1172 4863 
z
" transform="scale(0.015625)"/>
       <path id="DejaVuSans-70" d="M 1159 525 
L 1159 -1331 
L 581 -1331 
L 581 3500 
L 1159 3500 
L 1159 2969 
Q 1341 3281 1617 3432 
Q 1894 3584 2278 3584 
Q 2916 3584 3314 3078 
Q 3713 2572 3713 1747 
Q 3713 922 3314 415 
Q 2916 -91 2278 -91 
Q 1894 -91 1617 61 
Q 1341 213 1159 525 
z
M 3116 1747 
Q 3116 2381 2855 2742 
Q 2594 3103 2138 3103 
Q 1681 3103 1420 2742 
Q 1159 2381 1159 1747 
Q 1159 1113 1420 752 
Q 1681 391 2138 391 
Q 2594 391 2855 752 
Q 3116 1113 3116 1747 
z
" transform="scale(0.015625)"/>
       <path id="DejaVuSans-68" d="M 3513 2113 
L 3513 0 
L 2938 0 
L 2938 2094 
Q 2938 2591 2744 2837 
Q 2550 3084 2163 3084 
Q 1697 3084 1428 2787 
Q 1159 2491 1159 1978 
L 1159 0 
L 581 0 
L 581 4863 
L 1159 4863 
L 1159 2956 
Q 1366 3272 1645 3428 
Q 1925 3584 2291 3584 
Q 2894 3584 3203 3211 
Q 3513 2838 3513 2113 
z
" transform="scale(0.015625)"/>
       <path id="DejaVuSans-79" d="M 2059 -325 
Q 1816 -950 1584 -1140 
Q 1353 -1331 966 -1331 
L 506 -1331 
L 506 -850 
L 844 -850 
Q 1081 -850 1212 -737 
Q 1344 -625 1503 -206 
L 1606 56 
L 191 3500 
L 800 3500 
L 1894 763 
L 2988 3500 
L 3597 3500 
L 2059 -325 
z
" transform="scale(0.015625)"/>
       <path id="DejaVuSans-73" d="M 2834 3397 
L 2834 2853 
Q 2591 2978 2328 3040 
Q 2066 3103 1784 3103 
Q 1356 3103 1142 2972 
Q 928 2841 928 2578 
Q 928 2378 1081 2264 
Q 1234 2150 1697 2047 
L 1894 2003 
Q 2506 1872 2764 1633 
Q 3022 1394 3022 966 
Q 3022 478 2636 193 
Q 2250 -91 1575 -91 
Q 1294 -91 989 -36 
Q 684 19 347 128 
L 347 722 
Q 666 556 975 473 
Q 1284 391 1588 391 
Q 1994 391 2212 530 
Q 2431 669 2431 922 
Q 2431 1156 2273 1281 
Q 2116 1406 1581 1522 
L 1381 1569 
Q 847 1681 609 1914 
Q 372 2147 372 2553 
Q 372 3047 722 3315 
Q 1072 3584 1716 3584 
Q 2034 3584 2315 3537 
Q 2597 3491 2834 3397 
z
" transform="scale(0.015625)"/>
       <path id="DejaVuSans-2c" d="M 750 794 
L 1409 794 
L 1409 256 
L 897 -744 
L 494 -744 
L 750 256 
L 750 794 
z
" transform="scale(0.015625)"/>
       <path id="DejaVuSans-29" d="M 513 4856 
L 1013 4856 
Q 1481 4119 1714 3412 
Q 1947 2706 1947 2009 
Q 1947 1309 1714 600 
Q 1481 -109 1013 -844 
L 513 -844 
Q 928 -128 1133 580 
Q 1338 1288 1338 2009 
Q 1338 2731 1133 3434 
Q 928 4138 513 4856 
z
" transform="scale(0.015625)"/>
      </defs>
      <use xlink:href="#DejaVuSans-Oblique-61" transform="translate(0 0.0625)"/>
      <use xlink:href="#DejaVuSans-30" transform="translate(61.279297 -16.34375) scale(0.7)"/>
      <use xlink:href="#DejaVuSans-36" transform="translate(105.81543 -16.34375) scale(0.7)"/>
      <use xlink:href="#DejaVuSans-28" transform="translate(153.085938 0.0625)"/>
      <use xlink:href="#DejaVuSans-Oblique-6c" transform="translate(192.099609 0.0625)"/>
      <use xlink:href="#DejaVuSans-70" transform="translate(227.330521 50.810938) scale(0.7)"/>
      <use xlink:href="#DejaVuSans-68" transform="translate(271.764115 50.810938) scale(0.7)"/>
      <use xlink:href="#DejaVuSans-79" transform="translate(316.129349 50.810938) scale(0.7)"/>
      <use xlink:href="#DejaVuSans-73" transform="translate(357.55513 50.810938) scale(0.7)"/>
      <use xlink:href="#DejaVuSans-Oblique-46" transform="translate(219.882812 -27.28125) scale(0.7)"/>
      <use xlink:href="#DejaVuSans-2c" transform="translate(396.759232 0.0625)"/>
      <use xlink:href="#DejaVuSans-Oblique-73" transform="translate(448.028763 0.0625)"/>
      <use xlink:href="#DejaVuSans-Oblique-46" transform="translate(500.128372 -16.34375) scale(0.7)"/>
      <use xlink:href="#DejaVuSans-29" transform="translate(543.126419 0.0625)"/>
     </g>
    </g>
    <g id="LineCollection_11">
     <path d="M 69.065625 41.3 
L 79.065625 41.3 
" style="fill: none; stroke: #51a7f9; stroke-width: 3"/>
    </g>
    <g id="LineCollection_12">
     <path d="M 74.065625 46.3 
L 74.065625 36.3 
" style="fill: none; stroke: #51a7f9; stroke-width: 3"/>
    </g>
    <g id="line2d_115">
     <path d="M 64.065625 41.3 
L 84.065625 41.3 
" style="fill: none; stroke: #51a7f9; stroke-width: 1.5; stroke-linecap: square"/>
    </g>
    <g id="line2d_116">
     <defs>
      <path id="m466f591887" d="M 0 4 
C 1.060812 4 2.078319 3.578535 2.828427 2.828427 
C 3.578535 2.078319 4 1.060812 4 0 
C 4 -1.060812 3.578535 -2.078319 2.828427 -2.828427 
C 2.078319 -3.578535 1.060812 -4 0 -4 
C -1.060812 -4 -2.078319 -3.578535 -2.828427 -2.828427 
C -3.578535 -2.078319 -4 -1.060812 -4 0 
C -4 1.060812 -3.578535 2.078319 -2.828427 2.828427 
C -2.078319 3.578535 -1.060812 4 0 4 
z
" style="stroke: #ffffff; stroke-width: 2"/>
     </defs>
     <g>
      <use xlink:href="#m466f591887" x="74.065625" y="41.3" style="fill: #51a7f9; stroke: #ffffff; stroke-width: 2"/>
     </g>
    </g>
    <g id="text_19">
     <!-- $a_{09}(l_F^{\rm phys},s_F)$ -->
     <g transform="translate(92.065625 44.8) scale(0.1 -0.1)">
      <defs>
       <path id="DejaVuSans-39" d="M 703 97 
L 703 672 
Q 941 559 1184 500 
Q 1428 441 1663 441 
Q 2288 441 2617 861 
Q 2947 1281 2994 2138 
Q 2813 1869 2534 1725 
Q 2256 1581 1919 1581 
Q 1219 1581 811 2004 
Q 403 2428 403 3163 
Q 403 3881 828 4315 
Q 1253 4750 1959 4750 
Q 2769 4750 3195 4129 
Q 3622 3509 3622 2328 
Q 3622 1225 3098 567 
Q 2575 -91 1691 -91 
Q 1453 -91 1209 -44 
Q 966 3 703 97 
z
M 1959 2075 
Q 2384 2075 2632 2365 
Q 2881 2656 2881 3163 
Q 2881 3666 2632 3958 
Q 2384 4250 1959 4250 
Q 1534 4250 1286 3958 
Q 1038 3666 1038 3163 
Q 1038 2656 1286 2365 
Q 1534 2075 1959 2075 
z
" transform="scale(0.015625)"/>
      </defs>
      <use xlink:href="#DejaVuSans-Oblique-61" transform="translate(0 0.0625)"/>
      <use xlink:href="#DejaVuSans-30" transform="translate(61.279297 -16.34375) scale(0.7)"/>
      <use xlink:href="#DejaVuSans-39" transform="translate(105.81543 -16.34375) scale(0.7)"/>
      <use xlink:href="#DejaVuSans-28" transform="translate(153.085938 0.0625)"/>
      <use xlink:href="#DejaVuSans-Oblique-6c" transform="translate(192.099609 0.0625)"/>
      <use xlink:href="#DejaVuSans-70" transform="translate(227.330521 50.810938) scale(0.7)"/>
      <use xlink:href="#DejaVuSans-68" transform="translate(271.764115 50.810938) scale(0.7)"/>
      <use xlink:href="#DejaVuSans-79" transform="translate(316.129349 50.810938) scale(0.7)"/>
      <use xlink:href="#DejaVuSans-73" transform="translate(357.55513 50.810938) scale(0.7)"/>
      <use xlink:href="#DejaVuSans-Oblique-46" transform="translate(219.882812 -27.28125) scale(0.7)"/>
      <use xlink:href="#DejaVuSans-2c" transform="translate(396.759232 0.0625)"/>
      <use xlink:href="#DejaVuSans-Oblique-73" transform="translate(448.028763 0.0625)"/>
      <use xlink:href="#DejaVuSans-Oblique-46" transform="translate(500.128372 -16.34375) scale(0.7)"/>
      <use xlink:href="#DejaVuSans-29" transform="translate(543.126419 0.0625)"/>
     </g>
    </g>
    <g id="LineCollection_13">
     <path d="M 175.365625 23.1 
L 185.365625 23.1 
" style="fill: none; stroke: #70bf41; stroke-width: 3"/>
    </g>
    <g id="LineCollection_14">
     <path d="M 180.365625 28.1 
L 180.365625 18.1 
" style="fill: none; stroke: #70bf41; stroke-width: 3"/>
    </g>
    <g id="line2d_117">
     <path d="M 170.365625 23.1 
L 190.365625 23.1 
" style="fill: none; stroke: #70bf41; stroke-width: 1.5; stroke-linecap: square"/>
    </g>
    <g id="line2d_118">
     <defs>
      <path id="m83e7f74f76" d="M 0 4 
C 1.060812 4 2.078319 3.578535 2.828427 2.828427 
C 3.578535 2.078319 4 1.060812 4 0 
C 4 -1.060812 3.578535 -2.078319 2.828427 -2.828427 
C 2.078319 -3.578535 1.060812 -4 0 -4 
C -1.060812 -4 -2.078319 -3.578535 -2.828427 -2.828427 
C -3.578535 -2.078319 -4 -1.060812 -4 0 
C -4 1.060812 -3.578535 2.078319 -2.828427 2.828427 
C -2.078319 3.578535 -1.060812 4 0 4 
z
" style="stroke: #ffffff; stroke-width: 2"/>
     </defs>
     <g>
      <use xlink:href="#m83e7f74f76" x="180.365625" y="23.1" style="fill: #70bf41; stroke: #ffffff; stroke-width: 2"/>
     </g>
    </g>
    <g id="text_20">
     <!-- $a_{12}(l_F^{\rm phys},s_F)$ -->
     <g transform="translate(198.365625 26.6) scale(0.1 -0.1)">
      <use xlink:href="#DejaVuSans-Oblique-61" transform="translate(0 0.0625)"/>
      <use xlink:href="#DejaVuSans-31" transform="translate(61.279297 -16.34375) scale(0.7)"/>
      <use xlink:href="#DejaVuSans-32" transform="translate(105.81543 -16.34375) scale(0.7)"/>
      <use xlink:href="#DejaVuSans-28" transform="translate(153.085938 0.0625)"/>
      <use xlink:href="#DejaVuSans-Oblique-6c" transform="translate(192.099609 0.0625)"/>
      <use xlink:href="#DejaVuSans-70" transform="translate(227.330521 50.810938) scale(0.7)"/>
      <use xlink:href="#DejaVuSans-68" transform="translate(271.764115 50.810938) scale(0.7)"/>
      <use xlink:href="#DejaVuSans-79" transform="translate(316.129349 50.810938) scale(0.7)"/>
      <use xlink:href="#DejaVuSans-73" transform="translate(357.55513 50.810938) scale(0.7)"/>
      <use xlink:href="#DejaVuSans-Oblique-46" transform="translate(219.882812 -27.28125) scale(0.7)"/>
      <use xlink:href="#DejaVuSans-2c" transform="translate(396.759232 0.0625)"/>
      <use xlink:href="#DejaVuSans-Oblique-73" transform="translate(448.028763 0.0625)"/>
      <use xlink:href="#DejaVuSans-Oblique-46" transform="translate(500.128372 -16.34375) scale(0.7)"/>
      <use xlink:href="#DejaVuSans-29" transform="translate(543.126419 0.0625)"/>
     </g>
    </g>
    <g id="LineCollection_15">
     <path d="M 175.365625 41.3 
L 185.365625 41.3 
" style="fill: none; stroke: #ec5d57; stroke-width: 3"/>
    </g>
    <g id="LineCollection_16">
     <path d="M 180.365625 46.3 
L 180.365625 36.3 
" style="fill: none; stroke: #ec5d57; stroke-width: 3"/>
    </g>
    <g id="line2d_119">
     <path d="M 170.365625 41.3 
L 190.365625 41.3 
" style="fill: none; stroke: #ec5d57; stroke-width: 1.5; stroke-linecap: square"/>
    </g>
    <g id="line2d_120">
     <defs>
      <path id="m3282a9a799" d="M 0 4 
C 1.060812 4 2.078319 3.578535 2.828427 2.828427 
C 3.578535 2.078319 4 1.060812 4 0 
C 4 -1.060812 3.578535 -2.078319 2.828427 -2.828427 
C 2.078319 -3.578535 1.060812 -4 0 -4 
C -1.060812 -4 -2.078319 -3.578535 -2.828427 -2.828427 
C -3.578535 -2.078319 -4 -1.060812 -4 0 
C -4 1.060812 -3.578535 2.078319 -2.828427 2.828427 
C -2.078319 3.578535 -1.060812 4 0 4 
z
" style="stroke: #ffffff; stroke-width: 2"/>
     </defs>
     <g>
      <use xlink:href="#m3282a9a799" x="180.365625" y="41.3" style="fill: #ec5d57; stroke: #ffffff; stroke-width: 2"/>
     </g>
    </g>
    <g id="text_21">
     <!-- $a_{15}(l_F^{\rm phys},s_F)$ -->
     <g transform="translate(198.365625 44.8) scale(0.1 -0.1)">
      <use xlink:href="#DejaVuSans-Oblique-61" transform="translate(0 0.0625)"/>
      <use xlink:href="#DejaVuSans-31" transform="translate(61.279297 -16.34375) scale(0.7)"/>
      <use xlink:href="#DejaVuSans-35" transform="translate(105.81543 -16.34375) scale(0.7)"/>
      <use xlink:href="#DejaVuSans-28" transform="translate(153.085938 0.0625)"/>
      <use xlink:href="#DejaVuSans-Oblique-6c" transform="translate(192.099609 0.0625)"/>
      <use xlink:href="#DejaVuSans-70" transform="translate(227.330521 50.810938) scale(0.7)"/>
      <use xlink:href="#DejaVuSans-68" transform="translate(271.764115 50.810938) scale(0.7)"/>
      <use xlink:href="#DejaVuSans-79" transform="translate(316.129349 50.810938) scale(0.7)"/>
      <use xlink:href="#DejaVuSans-73" transform="translate(357.55513 50.810938) scale(0.7)"/>
      <use xlink:href="#DejaVuSans-Oblique-46" transform="translate(219.882812 -27.28125) scale(0.7)"/>
      <use xlink:href="#DejaVuSans-2c" transform="translate(396.759232 0.0625)"/>
      <use xlink:href="#DejaVuSans-Oblique-73" transform="translate(448.028763 0.0625)"/>
      <use xlink:href="#DejaVuSans-Oblique-46" transform="translate(500.128372 -16.34375) scale(0.7)"/>
      <use xlink:href="#DejaVuSans-29" transform="translate(543.126419 0.0625)"/>
     </g>
    </g>
   </g>
  </g>
 </g>
 <defs>
  <clipPath id="pc2fe0d8788">
   <rect x="55.065625" y="7.2" width="391.68" height="293.76"/>
  </clipPath>
 </defs>
 <defs>
  <pattern id="h30bf081149" patternUnits="userSpaceOnUse" x="0" y="0" width="72" height="72">
   <rect x="0" y="0" width="73" height="73" fill="none"/>
   <path d="M -36 36 
L 36 -36 
M -24 48 
L 48 -24 
M -12 60 
L 60 -12 
M 0 72 
L 72 0 
M 12 84 
L 84 12 
M 24 96 
L 96 24 
M 36 108 
L 108 36 
" style="fill: #000000; stroke: #000000; stroke-width: 1.0; stroke-linecap: butt; stroke-linejoin: miter; stroke-opacity: 0.6"/>
  </pattern>
 </defs>
</svg>
