<?xml version="1.0" encoding="utf-8" standalone="no"?>
<!DOCTYPE svg PUBLIC "-//W3C//DTD SVG 1.1//EN"
  "http://www.w3.org/Graphics/SVG/1.1/DTD/svg11.dtd">
<svg xmlns:xlink="http://www.w3.org/1999/xlink" width="449.02375pt" height="340.738125pt" viewBox="0 0 449.02375 340.738125" xmlns="http://www.w3.org/2000/svg" version="1.1">
 <metadata>
  <rdf:RDF xmlns:dc="http://purl.org/dc/elements/1.1/" xmlns:cc="http://creativecommons.org/ns#" xmlns:rdf="http://www.w3.org/1999/02/22-rdf-syntax-ns#">
   <cc:Work>
    <dc:type rdf:resource="http://purl.org/dc/dcmitype/StillImage"/>
    <dc:date>2025-03-01T15:55:07.263273</dc:date>
    <dc:format>image/svg+xml</dc:format>
    <dc:creator>
     <cc:Agent>
      <dc:title>Matplotlib v3.10.0, https://matplotlib.org/</dc:title>
     </cc:Agent>
    </dc:creator>
   </cc:Work>
  </rdf:RDF>
 </metadata>
 <defs>
  <style type="text/css">*{stroke-linejoin: round; stroke-linecap: butt}</style>
 </defs>
 <g id="figure_1">
  <g id="patch_1">
   <path d="M 0 340.738125 
L 449.02375 340.738125 
L 449.02375 0 
L 0 0 
z
" style="fill: #ffffff"/>
  </g>
  <g id="axes_1">
   <g id="patch_2">
    <path d="M 50.14375 300.96 
L 441.82375 300.96 
L 441.82375 7.2 
L 50.14375 7.2 
z
" style="fill: #ffffff"/>
   </g>
   <g id="FillBetweenPolyCollection_1">
    <path d="M 69.82194 133.26763 
L 69.82194 181.592833 
L 76.999539 178.016877 
L 84.177137 174.465724 
L 91.354736 170.939209 
L 98.532334 167.437171 
L 105.709933 163.959454 
L 112.887531 160.505911 
L 120.06513 157.076402 
L 127.242729 153.670798 
L 134.420327 150.288981 
L 141.597926 146.930848 
L 148.775524 143.596308 
L 155.953123 140.285289 
L 163.130721 136.99774 
L 170.30832 133.733631 
L 177.485918 130.492957 
L 184.663517 127.275742 
L 191.841115 124.082043 
L 199.018714 120.911954 
L 206.196312 117.765612 
L 213.373911 114.643198 
L 220.55151 111.544952 
L 227.729108 108.471174 
L 234.906707 105.422234 
L 242.084305 102.398585 
L 249.261904 99.400771 
L 256.439502 96.429446 
L 263.617101 93.485383 
L 270.794699 90.569497 
L 277.972298 87.682865 
L 285.149896 84.826747 
L 292.327495 82.002614 
L 299.505093 79.212173 
L 306.682692 76.457402 
L 313.860291 73.740571 
L 321.037889 71.06428 
L 328.215488 68.43147 
L 335.393086 65.845443 
L 342.570685 63.309856 
L 349.748283 60.828688 
L 356.925882 58.406186 
L 364.10348 56.046762 
L 371.281079 53.754854 
L 378.458677 51.53475 
L 385.636276 49.390381 
L 392.813874 47.325112 
L 399.991473 45.341565 
L 407.169072 43.441484 
L 414.34667 41.625682 
L 421.524269 39.894072 
L 421.524269 20.552727 
L 421.524269 20.552727 
L 414.34667 22.777052 
L 407.169072 24.973104 
L 399.991473 27.140513 
L 392.813874 29.279813 
L 385.636276 31.392464 
L 378.458677 33.480807 
L 371.281079 35.547926 
L 364.10348 37.597472 
L 356.925882 39.633448 
L 349.748283 41.660012 
L 342.570685 43.681295 
L 335.393086 45.701262 
L 328.215488 47.723611 
L 321.037889 49.751716 
L 313.860291 51.788598 
L 306.682692 53.836918 
L 299.505093 55.898993 
L 292.327495 57.976812 
L 285.149896 60.07207 
L 277.972298 62.186194 
L 270.794699 64.320373 
L 263.617101 66.475586 
L 256.439502 68.652627 
L 249.261904 70.852131 
L 242.084305 73.074589 
L 234.906707 75.320372 
L 227.729108 77.589745 
L 220.55151 79.882877 
L 213.373911 82.199858 
L 206.196312 84.540706 
L 199.018714 86.905379 
L 191.841115 89.293777 
L 184.663517 91.705756 
L 177.485918 94.141127 
L 170.30832 96.599666 
L 163.130721 99.081116 
L 155.953123 101.58519 
L 148.775524 104.111577 
L 141.597926 106.659943 
L 134.420327 109.229936 
L 127.242729 111.821183 
L 120.06513 114.433299 
L 112.887531 117.065884 
L 105.709933 119.718529 
L 98.532334 122.390811 
L 91.354736 125.082302 
L 84.177137 127.792564 
L 76.999539 130.521156 
L 69.82194 133.26763 
z
" clip-path="url(#p6f8779a26b)" style="fill: url(#h6f8d34a1d3); stroke: #000000; stroke-opacity: 0.6"/>
   </g>
   <g id="FillBetweenPolyCollection_2">
    <defs>
     <path id="m6bb03ff424" d="M 69.82194 -89.849585 
L 69.82194 -53.130852 
L 76.999539 -57.376379 
L 84.177137 -61.593564 
L 91.354736 -65.782625 
L 98.532334 -69.943797 
L 105.709933 -74.07733 
L 112.887531 -78.183486 
L 120.06513 -82.262543 
L 127.242729 -86.314791 
L 134.420327 -90.340533 
L 141.597926 -94.340082 
L 148.775524 -98.313765 
L 155.953123 -102.261913 
L 163.130721 -106.184869 
L 170.30832 -110.082983 
L 177.485918 -113.956608 
L 184.663517 -117.806103 
L 191.841115 -121.63183 
L 199.018714 -125.434152 
L 206.196312 -129.21343 
L 213.373911 -132.970024 
L 220.55151 -136.70429 
L 227.729108 -140.416576 
L 234.906707 -144.107224 
L 242.084305 -147.776563 
L 249.261904 -151.424908 
L 256.439502 -155.052558 
L 263.617101 -158.65979 
L 270.794699 -162.246856 
L 277.972298 -165.813975 
L 285.149896 -169.361328 
L 292.327495 -172.889045 
L 299.505093 -176.397197 
L 306.682692 -179.885772 
L 313.860291 -183.354656 
L 321.037889 -186.803598 
L 328.215488 -190.232158 
L 335.393086 -193.639637 
L 342.570685 -197.02497 
L 349.748283 -200.386557 
L 356.925882 -203.722006 
L 364.10348 -207.027726 
L 371.281079 -210.29827 
L 378.458677 -213.525319 
L 385.636276 -216.696196 
L 392.813874 -219.79214 
L 399.991473 -222.78765 
L 407.169072 -225.654201 
L 414.34667 -228.370883 
L 421.524269 -230.935617 
L 421.524269 -235.557585 
L 421.524269 -235.557585 
L 414.34667 -232.659115 
L 407.169072 -229.86072 
L 399.991473 -227.160601 
L 392.813874 -224.538132 
L 385.636276 -221.965066 
L 378.458677 -219.416188 
L 371.281079 -216.873015 
L 364.10348 -214.323154 
L 356.925882 -211.758565 
L 349.748283 -209.174086 
L 342.570685 -206.566404 
L 335.393086 -203.93341 
L 328.215488 -201.273787 
L 321.037889 -198.586749 
L 313.860291 -195.87188 
L 306.682692 -193.129021 
L 299.505093 -190.358204 
L 292.327495 -187.559594 
L 285.149896 -184.733463 
L 277.972298 -181.880162 
L 270.794699 -179.000104 
L 263.617101 -176.09375 
L 256.439502 -173.161602 
L 249.261904 -170.204193 
L 242.084305 -167.222081 
L 234.906707 -164.215846 
L 227.729108 -161.186086 
L 220.55151 -158.133412 
L 213.373911 -155.058445 
L 206.196312 -151.961817 
L 199.018714 -148.844165 
L 191.841115 -145.70613 
L 184.663517 -142.548355 
L 177.485918 -139.371485 
L 170.30832 -136.176162 
L 163.130721 -132.963027 
L 155.953123 -129.732717 
L 148.775524 -126.485861 
L 141.597926 -123.223083 
L 134.420327 -119.944998 
L 127.242729 -116.652213 
L 120.06513 -113.345323 
L 112.887531 -110.024912 
L 105.709933 -106.691552 
L 98.532334 -103.345802 
L 91.354736 -99.988207 
L 84.177137 -96.619298 
L 76.999539 -93.23959 
L 69.82194 -89.849585 
z
" style="stroke: #ec5d57; stroke-opacity: 0.4"/>
    </defs>
    <g clip-path="url(#p6f8779a26b)">
     <use xlink:href="#m6bb03ff424" x="0" y="340.738125" style="fill: #ec5d57; fill-opacity: 0.4; stroke: #ec5d57; stroke-opacity: 0.4"/>
    </g>
   </g>
   <g id="FillBetweenPolyCollection_3">
    <defs>
     <path id="m39077dce0b" d="M 69.82194 -120.01701 
L 69.82194 -89.485032 
L 76.999539 -93.433904 
L 84.177137 -97.354276 
L 91.354736 -101.246449 
L 98.532334 -105.110741 
L 105.709933 -108.947486 
L 112.887531 -112.757034 
L 120.06513 -116.539745 
L 127.242729 -120.295995 
L 134.420327 -124.026168 
L 141.597926 -127.730659 
L 148.775524 -131.409868 
L 155.953123 -135.064202 
L 163.130721 -138.694073 
L 170.30832 -142.299893 
L 177.485918 -145.882074 
L 184.663517 -149.441026 
L 191.841115 -152.977156 
L 199.018714 -156.490861 
L 206.196312 -159.982533 
L 213.373911 -163.452549 
L 220.55151 -166.901273 
L 227.729108 -170.32905 
L 234.906707 -173.736204 
L 242.084305 -177.123035 
L 249.261904 -180.489809 
L 256.439502 -183.836756 
L 263.617101 -187.164061 
L 270.794699 -190.471852 
L 277.972298 -193.760185 
L 285.149896 -197.029028 
L 292.327495 -200.278233 
L 299.505093 -203.507495 
L 306.682692 -206.716302 
L 313.860291 -209.903855 
L 321.037889 -213.068945 
L 328.215488 -216.209776 
L 335.393086 -219.323685 
L 342.570685 -222.406703 
L 349.748283 -225.452886 
L 356.925882 -228.453315 
L 364.10348 -231.394786 
L 371.281079 -234.25864 
L 378.458677 -237.021302 
L 385.636276 -239.659206 
L 392.813874 -242.158256 
L 399.991473 -244.520652 
L 407.169072 -246.761673 
L 414.34667 -248.900607 
L 421.524269 -250.954296 
L 421.524269 -257.713493 
L 421.524269 -257.713493 
L 414.34667 -254.833996 
L 407.169072 -251.98649 
L 399.991473 -249.188097 
L 392.813874 -246.458389 
L 385.636276 -243.812924 
L 378.458677 -241.254186 
L 371.281079 -238.76836 
L 364.10348 -236.332159 
L 356.925882 -233.922293 
L 349.748283 -231.520384 
L 342.570685 -229.113508 
L 335.393086 -226.693028 
L 328.215488 -224.253281 
L 321.037889 -221.790582 
L 313.860291 -219.302547 
L 306.682692 -216.787663 
L 299.505093 -214.245002 
L 292.327495 -211.674046 
L 285.149896 -209.074566 
L 277.972298 -206.446538 
L 270.794699 -203.790095 
L 263.617101 -201.105486 
L 256.439502 -198.39305 
L 249.261904 -195.653196 
L 242.084305 -192.886391 
L 234.906707 -190.093145 
L 227.729108 -187.274008 
L 220.55151 -184.42956 
L 213.373911 -181.560406 
L 206.196312 -178.667174 
L 199.018714 -175.750509 
L 191.841115 -172.811069 
L 184.663517 -169.849528 
L 177.485918 -166.866565 
L 170.30832 -163.862868 
L 163.130721 -160.839129 
L 155.953123 -157.79604 
L 148.775524 -154.734298 
L 141.597926 -151.654593 
L 134.420327 -148.557614 
L 127.242729 -145.444045 
L 120.06513 -142.314561 
L 112.887531 -139.169828 
L 105.709933 -136.010501 
L 98.532334 -132.837226 
L 91.354736 -129.650632 
L 84.177137 -126.451334 
L 76.999539 -123.239932 
L 69.82194 -120.01701 
z
" style="stroke: #70bf41; stroke-opacity: 0.4"/>
    </defs>
    <g clip-path="url(#p6f8779a26b)">
     <use xlink:href="#m39077dce0b" x="0" y="340.738125" style="fill: #70bf41; fill-opacity: 0.4; stroke: #70bf41; stroke-opacity: 0.4"/>
    </g>
   </g>
   <g id="FillBetweenPolyCollection_4">
    <defs>
     <path id="mf163cda204" d="M 69.82194 -156.623817 
L 69.82194 -122.056304 
L 76.999539 -125.799555 
L 84.177137 -129.516325 
L 91.354736 -133.206913 
L 98.532334 -136.871627 
L 105.709933 -140.510778 
L 112.887531 -144.124681 
L 120.06513 -147.713655 
L 127.242729 -151.278022 
L 134.420327 -154.818102 
L 141.597926 -158.334215 
L 148.775524 -161.826677 
L 155.953123 -165.295802 
L 163.130721 -168.741895 
L 170.30832 -172.165254 
L 177.485918 -175.566168 
L 184.663517 -178.944911 
L 191.841115 -182.301745 
L 199.018714 -185.636912 
L 206.196312 -188.950634 
L 213.373911 -192.243107 
L 220.55151 -195.514499 
L 227.729108 -198.764942 
L 234.906707 -201.994529 
L 242.084305 -205.2033 
L 249.261904 -208.391239 
L 256.439502 -211.558255 
L 263.617101 -214.704171 
L 270.794699 -217.828697 
L 277.972298 -220.931407 
L 285.149896 -224.0117 
L 292.327495 -227.068753 
L 299.505093 -230.101454 
L 306.682692 -233.108316 
L 313.860291 -236.087355 
L 321.037889 -239.03594 
L 328.215488 -241.950574 
L 335.393086 -244.826635 
L 342.570685 -247.658051 
L 349.748283 -250.43697 
L 356.925882 -253.153517 
L 364.10348 -255.795881 
L 371.281079 -258.351047 
L 378.458677 -260.806461 
L 385.636276 -263.152444 
L 392.813874 -265.384431 
L 399.991473 -267.503771 
L 407.169072 -269.516658 
L 414.34667 -271.431937 
L 421.524269 -273.259006 
L 421.524269 -283.017654 
L 421.524269 -283.017654 
L 414.34667 -280.382021 
L 407.169072 -277.780082 
L 399.991473 -275.221515 
L 392.813874 -272.715449 
L 385.636276 -270.268356 
L 378.458677 -267.88187 
L 371.281079 -265.551706 
L 364.10348 -263.268466 
L 356.925882 -261.019879 
L 349.748283 -258.793211 
L 342.570685 -256.576931 
L 335.393086 -254.361448 
L 328.215488 -252.13919 
L 321.037889 -249.904367 
L 313.860291 -247.652639 
L 306.682692 -245.38079 
L 299.505093 -243.08647 
L 292.327495 -240.767978 
L 285.149896 -238.424108 
L 277.972298 -236.05403 
L 270.794699 -233.657201 
L 263.617101 -231.233303 
L 256.439502 -228.78219 
L 249.261904 -226.303856 
L 242.084305 -223.798403 
L 234.906707 -221.266024 
L 227.729108 -218.706982 
L 220.55151 -216.121601 
L 213.373911 -213.510254 
L 206.196312 -210.873355 
L 199.018714 -208.211353 
L 191.841115 -205.524727 
L 184.663517 -202.813979 
L 177.485918 -200.079634 
L 170.30832 -197.322234 
L 163.130721 -194.542335 
L 155.953123 -191.740509 
L 148.775524 -188.917333 
L 141.597926 -186.073397 
L 134.420327 -183.209293 
L 127.242729 -180.325621 
L 120.06513 -177.422981 
L 112.887531 -174.501976 
L 105.709933 -171.563209 
L 98.532334 -168.607279 
L 91.354736 -165.634785 
L 84.177137 -162.646319 
L 76.999539 -159.642469 
L 69.82194 -156.623817 
z
" style="stroke: #51a7f9; stroke-opacity: 0.4"/>
    </defs>
    <g clip-path="url(#p6f8779a26b)">
     <use xlink:href="#mf163cda204" x="0" y="340.738125" style="fill: #51a7f9; fill-opacity: 0.4; stroke: #51a7f9; stroke-opacity: 0.4"/>
    </g>
   </g>
   <g id="FillBetweenPolyCollection_5">
    <defs>
     <path id="m48ea370ddc" d="M 69.82194 -184.623446 
L 69.82194 -143.163157 
L 76.999539 -146.805238 
L 84.177137 -150.422062 
L 91.354736 -154.013862 
L 98.532334 -157.580871 
L 105.709933 -161.12332 
L 112.887531 -164.641437 
L 120.06513 -168.135448 
L 127.242729 -171.605571 
L 134.420327 -175.052018 
L 141.597926 -178.474994 
L 148.775524 -181.874693 
L 155.953123 -185.251297 
L 163.130721 -188.604975 
L 170.30832 -191.935879 
L 177.485918 -195.24414 
L 184.663517 -198.529872 
L 191.841115 -201.793159 
L 199.018714 -205.034059 
L 206.196312 -208.252593 
L 213.373911 -211.448747 
L 220.55151 -214.622458 
L 227.729108 -217.773612 
L 234.906707 -220.902032 
L 242.084305 -224.00747 
L 249.261904 -227.089592 
L 256.439502 -230.147961 
L 263.617101 -233.182022 
L 270.794699 -236.191075 
L 277.972298 -239.174251 
L 285.149896 -242.130472 
L 292.327495 -245.058415 
L 299.505093 -247.956459 
L 306.682692 -250.82263 
L 313.860291 -253.654528 
L 321.037889 -256.449257 
L 328.215488 -259.203343 
L 335.393086 -261.912659 
L 342.570685 -264.572372 
L 349.748283 -267.176932 
L 356.925882 -269.720132 
L 364.10348 -272.19529 
L 371.281079 -274.595565 
L 378.458677 -276.914427 
L 385.636276 -279.146215 
L 392.813874 -281.286695 
L 399.991473 -283.333468 
L 407.169072 -285.286114 
L 414.34667 -287.146042 
L 421.524269 -288.916097 
L 421.524269 -303.015143 
L 421.524269 -303.015143 
L 414.34667 -300.616405 
L 407.169072 -298.252215 
L 399.991473 -295.925701 
L 392.813874 -293.638553 
L 385.636276 -291.390632 
L 378.458677 -289.179822 
L 371.281079 -287.002169 
L 364.10348 -284.852295 
L 356.925882 -282.72395 
L 349.748283 -280.610575 
L 342.570685 -278.50577 
L 335.393086 -276.40361 
L 328.215488 -274.298826 
L 321.037889 -272.186865 
L 313.860291 -270.063885 
L 306.682692 -267.926691 
L 299.505093 -265.772669 
L 292.327495 -263.599701 
L 285.149896 -261.406095 
L 277.972298 -259.19051 
L 270.794699 -256.951905 
L 263.617101 -254.689486 
L 256.439502 -252.402662 
L 249.261904 -250.091016 
L 242.084305 -247.754275 
L 234.906707 -245.392283 
L 227.729108 -243.004989 
L 220.55151 -240.592425 
L 213.373911 -238.154695 
L 206.196312 -235.691968 
L 199.018714 -233.204463 
L 191.841115 -230.692445 
L 184.663517 -228.156219 
L 177.485918 -225.596123 
L 170.30832 -223.012525 
L 163.130721 -220.405817 
L 155.953123 -217.776414 
L 148.775524 -215.12475 
L 141.597926 -212.451274 
L 134.420327 -209.75645 
L 127.242729 -207.040753 
L 120.06513 -204.304671 
L 112.887531 -201.548696 
L 105.709933 -198.773329 
L 98.532334 -195.979077 
L 91.354736 -193.166449 
L 84.177137 -190.335958 
L 76.999539 -187.488119 
L 69.82194 -184.623446 
z
" style="stroke: #6a5acd; stroke-opacity: 0.4"/>
    </defs>
    <g clip-path="url(#p6f8779a26b)">
     <use xlink:href="#m48ea370ddc" x="0" y="340.738125" style="fill: #6a5acd; fill-opacity: 0.4; stroke: #6a5acd; stroke-opacity: 0.4"/>
    </g>
   </g>
   <g id="matplotlib.axis_1">
    <g id="xtick_1">
     <g id="line2d_1">
      <defs>
       <path id="m0a077f8f86" d="M 0 0 
L 0 3.5 
" style="stroke: #000000; stroke-width: 0.8"/>
      </defs>
      <g>
       <use xlink:href="#m0a077f8f86" x="69.751514" y="300.96" style="stroke: #000000; stroke-width: 0.8"/>
      </g>
     </g>
     <g id="text_1">
      <!-- 0.20 -->
      <g transform="translate(58.618701 315.558438) scale(0.1 -0.1)">
       <defs>
        <path id="DejaVuSans-30" d="M 2034 4250 
Q 1547 4250 1301 3770 
Q 1056 3291 1056 2328 
Q 1056 1369 1301 889 
Q 1547 409 2034 409 
Q 2525 409 2770 889 
Q 3016 1369 3016 2328 
Q 3016 3291 2770 3770 
Q 2525 4250 2034 4250 
z
M 2034 4750 
Q 2819 4750 3233 4129 
Q 3647 3509 3647 2328 
Q 3647 1150 3233 529 
Q 2819 -91 2034 -91 
Q 1250 -91 836 529 
Q 422 1150 422 2328 
Q 422 3509 836 4129 
Q 1250 4750 2034 4750 
z
" transform="scale(0.015625)"/>
        <path id="DejaVuSans-2e" d="M 684 794 
L 1344 794 
L 1344 0 
L 684 0 
L 684 794 
z
" transform="scale(0.015625)"/>
        <path id="DejaVuSans-32" d="M 1228 531 
L 3431 531 
L 3431 0 
L 469 0 
L 469 531 
Q 828 903 1448 1529 
Q 2069 2156 2228 2338 
Q 2531 2678 2651 2914 
Q 2772 3150 2772 3378 
Q 2772 3750 2511 3984 
Q 2250 4219 1831 4219 
Q 1534 4219 1204 4116 
Q 875 4013 500 3803 
L 500 4441 
Q 881 4594 1212 4672 
Q 1544 4750 1819 4750 
Q 2544 4750 2975 4387 
Q 3406 4025 3406 3419 
Q 3406 3131 3298 2873 
Q 3191 2616 2906 2266 
Q 2828 2175 2409 1742 
Q 1991 1309 1228 531 
z
" transform="scale(0.015625)"/>
       </defs>
       <use xlink:href="#DejaVuSans-30"/>
       <use xlink:href="#DejaVuSans-2e" transform="translate(63.623047 0)"/>
       <use xlink:href="#DejaVuSans-32" transform="translate(95.410156 0)"/>
       <use xlink:href="#DejaVuSans-30" transform="translate(159.033203 0)"/>
      </g>
     </g>
    </g>
    <g id="xtick_2">
     <g id="line2d_2">
      <g>
       <use xlink:href="#m0a077f8f86" x="113.479211" y="300.96" style="stroke: #000000; stroke-width: 0.8"/>
      </g>
     </g>
     <g id="text_2">
      <!-- 0.22 -->
      <g transform="translate(102.346399 315.558438) scale(0.1 -0.1)">
       <use xlink:href="#DejaVuSans-30"/>
       <use xlink:href="#DejaVuSans-2e" transform="translate(63.623047 0)"/>
       <use xlink:href="#DejaVuSans-32" transform="translate(95.410156 0)"/>
       <use xlink:href="#DejaVuSans-32" transform="translate(159.033203 0)"/>
      </g>
     </g>
    </g>
    <g id="xtick_3">
     <g id="line2d_3">
      <g>
       <use xlink:href="#m0a077f8f86" x="157.206909" y="300.96" style="stroke: #000000; stroke-width: 0.8"/>
      </g>
     </g>
     <g id="text_3">
      <!-- 0.24 -->
      <g transform="translate(146.074096 315.558438) scale(0.1 -0.1)">
       <defs>
        <path id="DejaVuSans-34" d="M 2419 4116 
L 825 1625 
L 2419 1625 
L 2419 4116 
z
M 2253 4666 
L 3047 4666 
L 3047 1625 
L 3713 1625 
L 3713 1100 
L 3047 1100 
L 3047 0 
L 2419 0 
L 2419 1100 
L 313 1100 
L 313 1709 
L 2253 4666 
z
" transform="scale(0.015625)"/>
       </defs>
       <use xlink:href="#DejaVuSans-30"/>
       <use xlink:href="#DejaVuSans-2e" transform="translate(63.623047 0)"/>
       <use xlink:href="#DejaVuSans-32" transform="translate(95.410156 0)"/>
       <use xlink:href="#DejaVuSans-34" transform="translate(159.033203 0)"/>
      </g>
     </g>
    </g>
    <g id="xtick_4">
     <g id="line2d_4">
      <g>
       <use xlink:href="#m0a077f8f86" x="200.934606" y="300.96" style="stroke: #000000; stroke-width: 0.8"/>
      </g>
     </g>
     <g id="text_4">
      <!-- 0.26 -->
      <g transform="translate(189.801794 315.558438) scale(0.1 -0.1)">
       <defs>
        <path id="DejaVuSans-36" d="M 2113 2584 
Q 1688 2584 1439 2293 
Q 1191 2003 1191 1497 
Q 1191 994 1439 701 
Q 1688 409 2113 409 
Q 2538 409 2786 701 
Q 3034 994 3034 1497 
Q 3034 2003 2786 2293 
Q 2538 2584 2113 2584 
z
M 3366 4563 
L 3366 3988 
Q 3128 4100 2886 4159 
Q 2644 4219 2406 4219 
Q 1781 4219 1451 3797 
Q 1122 3375 1075 2522 
Q 1259 2794 1537 2939 
Q 1816 3084 2150 3084 
Q 2853 3084 3261 2657 
Q 3669 2231 3669 1497 
Q 3669 778 3244 343 
Q 2819 -91 2113 -91 
Q 1303 -91 875 529 
Q 447 1150 447 2328 
Q 447 3434 972 4092 
Q 1497 4750 2381 4750 
Q 2619 4750 2861 4703 
Q 3103 4656 3366 4563 
z
" transform="scale(0.015625)"/>
       </defs>
       <use xlink:href="#DejaVuSans-30"/>
       <use xlink:href="#DejaVuSans-2e" transform="translate(63.623047 0)"/>
       <use xlink:href="#DejaVuSans-32" transform="translate(95.410156 0)"/>
       <use xlink:href="#DejaVuSans-36" transform="translate(159.033203 0)"/>
      </g>
     </g>
    </g>
    <g id="xtick_5">
     <g id="line2d_5">
      <g>
       <use xlink:href="#m0a077f8f86" x="244.662304" y="300.96" style="stroke: #000000; stroke-width: 0.8"/>
      </g>
     </g>
     <g id="text_5">
      <!-- 0.28 -->
      <g transform="translate(233.529491 315.558438) scale(0.1 -0.1)">
       <defs>
        <path id="DejaVuSans-38" d="M 2034 2216 
Q 1584 2216 1326 1975 
Q 1069 1734 1069 1313 
Q 1069 891 1326 650 
Q 1584 409 2034 409 
Q 2484 409 2743 651 
Q 3003 894 3003 1313 
Q 3003 1734 2745 1975 
Q 2488 2216 2034 2216 
z
M 1403 2484 
Q 997 2584 770 2862 
Q 544 3141 544 3541 
Q 544 4100 942 4425 
Q 1341 4750 2034 4750 
Q 2731 4750 3128 4425 
Q 3525 4100 3525 3541 
Q 3525 3141 3298 2862 
Q 3072 2584 2669 2484 
Q 3125 2378 3379 2068 
Q 3634 1759 3634 1313 
Q 3634 634 3220 271 
Q 2806 -91 2034 -91 
Q 1263 -91 848 271 
Q 434 634 434 1313 
Q 434 1759 690 2068 
Q 947 2378 1403 2484 
z
M 1172 3481 
Q 1172 3119 1398 2916 
Q 1625 2713 2034 2713 
Q 2441 2713 2670 2916 
Q 2900 3119 2900 3481 
Q 2900 3844 2670 4047 
Q 2441 4250 2034 4250 
Q 1625 4250 1398 4047 
Q 1172 3844 1172 3481 
z
" transform="scale(0.015625)"/>
       </defs>
       <use xlink:href="#DejaVuSans-30"/>
       <use xlink:href="#DejaVuSans-2e" transform="translate(63.623047 0)"/>
       <use xlink:href="#DejaVuSans-32" transform="translate(95.410156 0)"/>
       <use xlink:href="#DejaVuSans-38" transform="translate(159.033203 0)"/>
      </g>
     </g>
    </g>
    <g id="xtick_6">
     <g id="line2d_6">
      <g>
       <use xlink:href="#m0a077f8f86" x="288.390001" y="300.96" style="stroke: #000000; stroke-width: 0.8"/>
      </g>
     </g>
     <g id="text_6">
      <!-- 0.30 -->
      <g transform="translate(277.257189 315.558438) scale(0.1 -0.1)">
       <defs>
        <path id="DejaVuSans-33" d="M 2597 2516 
Q 3050 2419 3304 2112 
Q 3559 1806 3559 1356 
Q 3559 666 3084 287 
Q 2609 -91 1734 -91 
Q 1441 -91 1130 -33 
Q 819 25 488 141 
L 488 750 
Q 750 597 1062 519 
Q 1375 441 1716 441 
Q 2309 441 2620 675 
Q 2931 909 2931 1356 
Q 2931 1769 2642 2001 
Q 2353 2234 1838 2234 
L 1294 2234 
L 1294 2753 
L 1863 2753 
Q 2328 2753 2575 2939 
Q 2822 3125 2822 3475 
Q 2822 3834 2567 4026 
Q 2313 4219 1838 4219 
Q 1578 4219 1281 4162 
Q 984 4106 628 3988 
L 628 4550 
Q 988 4650 1302 4700 
Q 1616 4750 1894 4750 
Q 2613 4750 3031 4423 
Q 3450 4097 3450 3541 
Q 3450 3153 3228 2886 
Q 3006 2619 2597 2516 
z
" transform="scale(0.015625)"/>
       </defs>
       <use xlink:href="#DejaVuSans-30"/>
       <use xlink:href="#DejaVuSans-2e" transform="translate(63.623047 0)"/>
       <use xlink:href="#DejaVuSans-33" transform="translate(95.410156 0)"/>
       <use xlink:href="#DejaVuSans-30" transform="translate(159.033203 0)"/>
      </g>
     </g>
    </g>
    <g id="xtick_7">
     <g id="line2d_7">
      <g>
       <use xlink:href="#m0a077f8f86" x="332.117699" y="300.96" style="stroke: #000000; stroke-width: 0.8"/>
      </g>
     </g>
     <g id="text_7">
      <!-- 0.32 -->
      <g transform="translate(320.984886 315.558438) scale(0.1 -0.1)">
       <use xlink:href="#DejaVuSans-30"/>
       <use xlink:href="#DejaVuSans-2e" transform="translate(63.623047 0)"/>
       <use xlink:href="#DejaVuSans-33" transform="translate(95.410156 0)"/>
       <use xlink:href="#DejaVuSans-32" transform="translate(159.033203 0)"/>
      </g>
     </g>
    </g>
    <g id="xtick_8">
     <g id="line2d_8">
      <g>
       <use xlink:href="#m0a077f8f86" x="375.845396" y="300.96" style="stroke: #000000; stroke-width: 0.8"/>
      </g>
     </g>
     <g id="text_8">
      <!-- 0.34 -->
      <g transform="translate(364.712584 315.558438) scale(0.1 -0.1)">
       <use xlink:href="#DejaVuSans-30"/>
       <use xlink:href="#DejaVuSans-2e" transform="translate(63.623047 0)"/>
       <use xlink:href="#DejaVuSans-33" transform="translate(95.410156 0)"/>
       <use xlink:href="#DejaVuSans-34" transform="translate(159.033203 0)"/>
      </g>
     </g>
    </g>
    <g id="xtick_9">
     <g id="line2d_9">
      <g>
       <use xlink:href="#m0a077f8f86" x="419.573094" y="300.96" style="stroke: #000000; stroke-width: 0.8"/>
      </g>
     </g>
     <g id="text_9">
      <!-- 0.36 -->
      <g transform="translate(408.440281 315.558438) scale(0.1 -0.1)">
       <use xlink:href="#DejaVuSans-30"/>
       <use xlink:href="#DejaVuSans-2e" transform="translate(63.623047 0)"/>
       <use xlink:href="#DejaVuSans-33" transform="translate(95.410156 0)"/>
       <use xlink:href="#DejaVuSans-36" transform="translate(159.033203 0)"/>
      </g>
     </g>
    </g>
    <g id="text_10">
     <!-- $s^2_F$ -->
     <g transform="translate(240.73375 330.738125) scale(0.1 -0.1)">
      <defs>
       <path id="DejaVuSans-Oblique-73" d="M 3200 3397 
L 3091 2853 
Q 2863 2978 2609 3040 
Q 2356 3103 2088 3103 
Q 1634 3103 1373 2948 
Q 1113 2794 1113 2528 
Q 1113 2219 1719 2053 
Q 1766 2041 1788 2034 
L 1972 1978 
Q 2547 1819 2739 1644 
Q 2931 1469 2931 1166 
Q 2931 609 2489 259 
Q 2047 -91 1331 -91 
Q 1053 -91 747 -37 
Q 441 16 72 128 
L 184 722 
Q 500 559 806 475 
Q 1113 391 1394 391 
Q 1816 391 2080 572 
Q 2344 753 2344 1031 
Q 2344 1331 1650 1516 
L 1591 1531 
L 1394 1581 
Q 956 1697 753 1886 
Q 550 2075 550 2369 
Q 550 2928 970 3256 
Q 1391 3584 2113 3584 
Q 2397 3584 2667 3537 
Q 2938 3491 3200 3397 
z
" transform="scale(0.015625)"/>
       <path id="DejaVuSans-Oblique-46" d="M 1081 4666 
L 3756 4666 
L 3653 4134 
L 1606 4134 
L 1338 2759 
L 3188 2759 
L 3084 2228 
L 1234 2228 
L 800 0 
L 172 0 
L 1081 4666 
z
" transform="scale(0.015625)"/>
      </defs>
      <use xlink:href="#DejaVuSans-Oblique-73" transform="translate(0 0.765625)"/>
      <use xlink:href="#DejaVuSans-32" transform="translate(56.749505 39.046875) scale(0.7)"/>
      <use xlink:href="#DejaVuSans-Oblique-46" transform="translate(52.099609 -26.578125) scale(0.7)"/>
     </g>
    </g>
   </g>
   <g id="matplotlib.axis_2">
    <g id="ytick_1">
     <g id="line2d_10">
      <defs>
       <path id="m5e477d1591" d="M 0 0 
L -3.5 0 
" style="stroke: #000000; stroke-width: 0.8"/>
      </defs>
      <g>
       <use xlink:href="#m5e477d1591" x="50.14375" y="248.546713" style="stroke: #000000; stroke-width: 0.8"/>
      </g>
     </g>
     <g id="text_11">
      <!-- 1.25 -->
      <g transform="translate(20.878125 252.345932) scale(0.1 -0.1)">
       <defs>
        <path id="DejaVuSans-31" d="M 794 531 
L 1825 531 
L 1825 4091 
L 703 3866 
L 703 4441 
L 1819 4666 
L 2450 4666 
L 2450 531 
L 3481 531 
L 3481 0 
L 794 0 
L 794 531 
z
" transform="scale(0.015625)"/>
        <path id="DejaVuSans-35" d="M 691 4666 
L 3169 4666 
L 3169 4134 
L 1269 4134 
L 1269 2991 
Q 1406 3038 1543 3061 
Q 1681 3084 1819 3084 
Q 2600 3084 3056 2656 
Q 3513 2228 3513 1497 
Q 3513 744 3044 326 
Q 2575 -91 1722 -91 
Q 1428 -91 1123 -41 
Q 819 9 494 109 
L 494 744 
Q 775 591 1075 516 
Q 1375 441 1709 441 
Q 2250 441 2565 725 
Q 2881 1009 2881 1497 
Q 2881 1984 2565 2268 
Q 2250 2553 1709 2553 
Q 1456 2553 1204 2497 
Q 953 2441 691 2322 
L 691 4666 
z
" transform="scale(0.015625)"/>
       </defs>
       <use xlink:href="#DejaVuSans-31"/>
       <use xlink:href="#DejaVuSans-2e" transform="translate(63.623047 0)"/>
       <use xlink:href="#DejaVuSans-32" transform="translate(95.410156 0)"/>
       <use xlink:href="#DejaVuSans-35" transform="translate(159.033203 0)"/>
      </g>
     </g>
    </g>
    <g id="ytick_2">
     <g id="line2d_11">
      <g>
       <use xlink:href="#m5e477d1591" x="50.14375" y="195.362794" style="stroke: #000000; stroke-width: 0.8"/>
      </g>
     </g>
     <g id="text_12">
      <!-- 1.30 -->
      <g transform="translate(20.878125 199.162012) scale(0.1 -0.1)">
       <use xlink:href="#DejaVuSans-31"/>
       <use xlink:href="#DejaVuSans-2e" transform="translate(63.623047 0)"/>
       <use xlink:href="#DejaVuSans-33" transform="translate(95.410156 0)"/>
       <use xlink:href="#DejaVuSans-30" transform="translate(159.033203 0)"/>
      </g>
     </g>
    </g>
    <g id="ytick_3">
     <g id="line2d_12">
      <g>
       <use xlink:href="#m5e477d1591" x="50.14375" y="142.178874" style="stroke: #000000; stroke-width: 0.8"/>
      </g>
     </g>
     <g id="text_13">
      <!-- 1.35 -->
      <g transform="translate(20.878125 145.978093) scale(0.1 -0.1)">
       <use xlink:href="#DejaVuSans-31"/>
       <use xlink:href="#DejaVuSans-2e" transform="translate(63.623047 0)"/>
       <use xlink:href="#DejaVuSans-33" transform="translate(95.410156 0)"/>
       <use xlink:href="#DejaVuSans-35" transform="translate(159.033203 0)"/>
      </g>
     </g>
    </g>
    <g id="ytick_4">
     <g id="line2d_13">
      <g>
       <use xlink:href="#m5e477d1591" x="50.14375" y="88.994955" style="stroke: #000000; stroke-width: 0.8"/>
      </g>
     </g>
     <g id="text_14">
      <!-- 1.40 -->
      <g transform="translate(20.878125 92.794174) scale(0.1 -0.1)">
       <use xlink:href="#DejaVuSans-31"/>
       <use xlink:href="#DejaVuSans-2e" transform="translate(63.623047 0)"/>
       <use xlink:href="#DejaVuSans-34" transform="translate(95.410156 0)"/>
       <use xlink:href="#DejaVuSans-30" transform="translate(159.033203 0)"/>
      </g>
     </g>
    </g>
    <g id="ytick_5">
     <g id="line2d_14">
      <g>
       <use xlink:href="#m5e477d1591" x="50.14375" y="35.811036" style="stroke: #000000; stroke-width: 0.8"/>
      </g>
     </g>
     <g id="text_15">
      <!-- 1.45 -->
      <g transform="translate(20.878125 39.610255) scale(0.1 -0.1)">
       <use xlink:href="#DejaVuSans-31"/>
       <use xlink:href="#DejaVuSans-2e" transform="translate(63.623047 0)"/>
       <use xlink:href="#DejaVuSans-34" transform="translate(95.410156 0)"/>
       <use xlink:href="#DejaVuSans-35" transform="translate(159.033203 0)"/>
      </g>
     </g>
    </g>
    <g id="text_16">
     <!-- $w_0 m_\Omega$ -->
     <g transform="translate(14.798437 168.23) rotate(-90) scale(0.1 -0.1)">
      <defs>
       <path id="DejaVuSans-Oblique-77" d="M 544 3500 
L 1113 3500 
L 1259 684 
L 2566 3500 
L 3231 3500 
L 3425 684 
L 4666 3500 
L 5241 3500 
L 3641 0 
L 2969 0 
L 2797 2900 
L 1459 0 
L 781 0 
L 544 3500 
z
" transform="scale(0.015625)"/>
       <path id="DejaVuSans-Oblique-6d" d="M 5747 2113 
L 5338 0 
L 4763 0 
L 5166 2094 
Q 5191 2228 5203 2325 
Q 5216 2422 5216 2491 
Q 5216 2772 5059 2928 
Q 4903 3084 4622 3084 
Q 4203 3084 3875 2770 
Q 3547 2456 3450 1953 
L 3066 0 
L 2491 0 
L 2900 2094 
Q 2925 2209 2937 2307 
Q 2950 2406 2950 2484 
Q 2950 2769 2794 2926 
Q 2638 3084 2363 3084 
Q 1938 3084 1609 2770 
Q 1281 2456 1184 1953 
L 800 0 
L 225 0 
L 909 3500 
L 1484 3500 
L 1375 2956 
Q 1609 3263 1923 3423 
Q 2238 3584 2597 3584 
Q 2978 3584 3223 3384 
Q 3469 3184 3519 2828 
Q 3781 3197 4126 3390 
Q 4472 3584 4856 3584 
Q 5306 3584 5551 3325 
Q 5797 3066 5797 2591 
Q 5797 2488 5784 2364 
Q 5772 2241 5747 2113 
z
" transform="scale(0.015625)"/>
       <path id="DejaVuSans-3a9" d="M 4647 556 
L 4647 0 
L 2772 0 
L 2772 556 
Q 3325 859 3634 1378 
Q 3944 1897 3944 2528 
Q 3944 3278 3531 3731 
Q 3119 4184 2444 4184 
Q 1769 4184 1355 3729 
Q 941 3275 941 2528 
Q 941 1897 1250 1378 
Q 1563 859 2119 556 
L 2119 0 
L 244 0 
L 244 556 
L 1241 556 
Q 747 991 519 1456 
Q 294 1922 294 2497 
Q 294 3491 894 4106 
Q 1491 4722 2444 4722 
Q 3391 4722 3994 4106 
Q 4594 3494 4594 2528 
Q 4594 1922 4372 1459 
Q 4150 997 3647 556 
L 4647 556 
z
" transform="scale(0.015625)"/>
      </defs>
      <use xlink:href="#DejaVuSans-Oblique-77"/>
      <use xlink:href="#DejaVuSans-30" transform="translate(81.787109 -16.40625) scale(0.7)"/>
      <use xlink:href="#DejaVuSans-Oblique-6d" transform="translate(129.057617 0)"/>
      <use xlink:href="#DejaVuSans-3a9" transform="translate(226.469727 -16.40625) scale(0.7)"/>
     </g>
    </g>
   </g>
   <g id="line2d_15">
    <path d="M 398.366459 300.96 
L 398.366459 7.2 
" clip-path="url(#p6f8779a26b)" style="fill: none; stroke-dasharray: 5.55,2.4; stroke-dashoffset: 0; stroke: #1f77b4; stroke-width: 1.5"/>
   </g>
   <g id="line2d_16">
    <path d="M 398.366459 300.96 
L 398.366459 7.2 
" clip-path="url(#p6f8779a26b)" style="fill: none; stroke-dasharray: 5.55,2.4; stroke-dashoffset: 0; stroke: #1f77b4; stroke-width: 1.5"/>
   </g>
   <g id="line2d_17">
    <path d="M 398.366459 300.96 
L 398.366459 7.2 
" clip-path="url(#p6f8779a26b)" style="fill: none; stroke-dasharray: 5.55,2.4; stroke-dashoffset: 0; stroke: #1f77b4; stroke-width: 1.5"/>
   </g>
   <g id="line2d_18">
    <path d="M 398.366459 300.96 
L 398.366459 7.2 
" clip-path="url(#p6f8779a26b)" style="fill: none; stroke-dasharray: 5.55,2.4; stroke-dashoffset: 0; stroke: #1f77b4; stroke-width: 1.5"/>
   </g>
   <g id="line2d_19">
    <path d="M 398.366459 300.96 
L 398.366459 7.2 
" clip-path="url(#p6f8779a26b)" style="fill: none; stroke-dasharray: 5.55,2.4; stroke-dashoffset: 0; stroke: #1f77b4; stroke-width: 1.5"/>
   </g>
   <g id="line2d_20">
    <path d="M 235.210755 194.081278 
L 231.063385 194.076888 
" clip-path="url(#p6f8779a26b)" style="fill: none; stroke: #ec5d57; stroke-width: 2; stroke-linecap: square"/>
   </g>
   <g id="line2d_21">
    <path d="M 233.189312 182.397097 
L 233.084827 205.761069 
" clip-path="url(#p6f8779a26b)" style="fill: none; stroke: #ec5d57; stroke-width: 2; stroke-linecap: square"/>
   </g>
   <g id="line2d_22">
    <path d="M 271.793698 178.315441 
L 267.701476 178.310526 
" clip-path="url(#p6f8779a26b)" style="fill: none; stroke: #ec5d57; stroke-width: 2; stroke-linecap: square"/>
   </g>
   <g id="line2d_23">
    <path d="M 269.795927 168.788166 
L 269.699247 187.8378 
" clip-path="url(#p6f8779a26b)" style="fill: none; stroke: #ec5d57; stroke-width: 2; stroke-linecap: square"/>
   </g>
   <g id="line2d_24">
    <path d="M 287.332797 161.341252 
L 282.422756 161.356976 
" clip-path="url(#p6f8779a26b)" style="fill: none; stroke: #ec5d57; stroke-width: 2; stroke-linecap: square"/>
   </g>
   <g id="line2d_25">
    <path d="M 284.761563 152.760011 
L 284.99399 169.938217 
" clip-path="url(#p6f8779a26b)" style="fill: none; stroke: #ec5d57; stroke-width: 2; stroke-linecap: square"/>
   </g>
   <g id="line2d_26">
    <path d="M 297.841557 158.867747 
L 294.113687 158.865646 
" clip-path="url(#p6f8779a26b)" style="fill: none; stroke: #ec5d57; stroke-width: 2; stroke-linecap: square"/>
   </g>
   <g id="line2d_27">
    <path d="M 295.997601 150.479963 
L 295.957644 167.25343 
" clip-path="url(#p6f8779a26b)" style="fill: none; stroke: #ec5d57; stroke-width: 2; stroke-linecap: square"/>
   </g>
   <g id="line2d_28">
    <path d="M 345.701911 138.970846 
L 341.866159 138.988532 
" clip-path="url(#p6f8779a26b)" style="fill: none; stroke: #ec5d57; stroke-width: 2; stroke-linecap: square"/>
   </g>
   <g id="line2d_29">
    <path d="M 343.67855 133.565048 
L 343.88952 144.39433 
" clip-path="url(#p6f8779a26b)" style="fill: none; stroke: #ec5d57; stroke-width: 2; stroke-linecap: square"/>
   </g>
   <g id="line2d_30">
    <path d="M 424.020114 108.6788 
L 419.028424 108.692138 
" clip-path="url(#p6f8779a26b)" style="fill: none; stroke: #ec5d57; stroke-width: 2; stroke-linecap: square"/>
   </g>
   <g id="line2d_31">
    <path d="M 421.498203 106.376838 
L 421.550334 110.9941 
" clip-path="url(#p6f8779a26b)" style="fill: none; stroke: #ec5d57; stroke-width: 2; stroke-linecap: square"/>
   </g>
   <g id="line2d_32">
    <path d="M 213.548885 171.719185 
L 209.330376 171.708267 
" clip-path="url(#p6f8779a26b)" style="fill: none; stroke: #70bf41; stroke-width: 2; stroke-linecap: square"/>
   </g>
   <g id="line2d_33">
    <path d="M 211.544132 162.157023 
L 211.33513 181.27043 
" clip-path="url(#p6f8779a26b)" style="fill: none; stroke: #70bf41; stroke-width: 2; stroke-linecap: square"/>
   </g>
   <g id="line2d_34">
    <path d="M 249.766482 164.253491 
L 243.943022 164.252445 
" clip-path="url(#p6f8779a26b)" style="fill: none; stroke: #70bf41; stroke-width: 2; stroke-linecap: square"/>
   </g>
   <g id="line2d_35">
    <path d="M 246.861223 155.733648 
L 246.848281 172.772288 
" clip-path="url(#p6f8779a26b)" style="fill: none; stroke: #70bf41; stroke-width: 2; stroke-linecap: square"/>
   </g>
   <g id="line2d_36">
    <path d="M 270.954499 148.785712 
L 265.885407 148.799745 
" clip-path="url(#p6f8779a26b)" style="fill: none; stroke: #70bf41; stroke-width: 2; stroke-linecap: square"/>
   </g>
   <g id="line2d_37">
    <path d="M 268.315378 139.852131 
L 268.524528 157.733325 
" clip-path="url(#p6f8779a26b)" style="fill: none; stroke: #70bf41; stroke-width: 2; stroke-linecap: square"/>
   </g>
   <g id="line2d_38">
    <path d="M 276.255667 143.730338 
L 271.219271 143.740081 
" clip-path="url(#p6f8779a26b)" style="fill: none; stroke: #70bf41; stroke-width: 2; stroke-linecap: square"/>
   </g>
   <g id="line2d_39">
    <path d="M 273.672976 135.844005 
L 273.801962 151.626414 
" clip-path="url(#p6f8779a26b)" style="fill: none; stroke: #70bf41; stroke-width: 2; stroke-linecap: square"/>
   </g>
   <g id="line2d_40">
    <path d="M 71.696494 244.289351 
L 67.947386 244.292996 
" clip-path="url(#p6f8779a26b)" style="fill: none; stroke: #70bf41; stroke-width: 2; stroke-linecap: square"/>
   </g>
   <g id="line2d_41">
    <path d="M 69.755143 228.026658 
L 69.888737 260.555689 
" clip-path="url(#p6f8779a26b)" style="fill: none; stroke: #70bf41; stroke-width: 2; stroke-linecap: square"/>
   </g>
   <g id="line2d_42">
    <path d="M 338.419762 115.63766 
L 330.14093 115.668808 
" clip-path="url(#p6f8779a26b)" style="fill: none; stroke: #70bf41; stroke-width: 2; stroke-linecap: square"/>
   </g>
   <g id="line2d_43">
    <path d="M 334.198322 110.493265 
L 334.36237 120.813202 
" clip-path="url(#p6f8779a26b)" style="fill: none; stroke: #70bf41; stroke-width: 2; stroke-linecap: square"/>
   </g>
   <g id="line2d_44">
    <path d="M 334.239506 116.461263 
L 327.93951 116.471003 
" clip-path="url(#p6f8779a26b)" style="fill: none; stroke: #70bf41; stroke-width: 2; stroke-linecap: square"/>
   </g>
   <g id="line2d_45">
    <path d="M 331.052168 110.749747 
L 331.126848 122.182519 
" clip-path="url(#p6f8779a26b)" style="fill: none; stroke: #70bf41; stroke-width: 2; stroke-linecap: square"/>
   </g>
   <g id="line2d_46">
    <path d="M 335.78216 119.064664 
L 329.230458 119.082839 
" clip-path="url(#p6f8779a26b)" style="fill: none; stroke: #70bf41; stroke-width: 2; stroke-linecap: square"/>
   </g>
   <g id="line2d_47">
    <path d="M 332.393141 109.418416 
L 332.619477 128.729087 
" clip-path="url(#p6f8779a26b)" style="fill: none; stroke: #70bf41; stroke-width: 2; stroke-linecap: square"/>
   </g>
   <g id="line2d_48">
    <path d="M 360.916001 102.002637 
L 355.347452 102.03052 
" clip-path="url(#p6f8779a26b)" style="fill: none; stroke: #70bf41; stroke-width: 2; stroke-linecap: square"/>
   </g>
   <g id="line2d_49">
    <path d="M 358.038081 97.590125 
L 358.225371 106.443032 
" clip-path="url(#p6f8779a26b)" style="fill: none; stroke: #70bf41; stroke-width: 2; stroke-linecap: square"/>
   </g>
   <g id="line2d_50">
    <path d="M 385.172298 101.604513 
L 379.162604 101.625875 
" clip-path="url(#p6f8779a26b)" style="fill: none; stroke: #70bf41; stroke-width: 2; stroke-linecap: square"/>
   </g>
   <g id="line2d_51">
    <path d="M 382.109419 97.751077 
L 382.225482 105.479311 
" clip-path="url(#p6f8779a26b)" style="fill: none; stroke: #70bf41; stroke-width: 2; stroke-linecap: square"/>
   </g>
   <g id="line2d_52">
    <path d="M 211.256743 140.492549 
L 207.372311 140.493165 
" clip-path="url(#p6f8779a26b)" style="fill: none; stroke: #51a7f9; stroke-width: 2; stroke-linecap: square"/>
   </g>
   <g id="line2d_53">
    <path d="M 209.307079 129.374838 
L 209.321975 151.610877 
" clip-path="url(#p6f8779a26b)" style="fill: none; stroke: #51a7f9; stroke-width: 2; stroke-linecap: square"/>
   </g>
   <g id="line2d_54">
    <path d="M 252.875439 136.868624 
L 248.040904 136.874544 
" clip-path="url(#p6f8779a26b)" style="fill: none; stroke: #51a7f9; stroke-width: 2; stroke-linecap: square"/>
   </g>
   <g id="line2d_55">
    <path d="M 250.40102 125.825078 
L 250.515323 147.91809 
" clip-path="url(#p6f8779a26b)" style="fill: none; stroke: #51a7f9; stroke-width: 2; stroke-linecap: square"/>
   </g>
   <g id="line2d_56">
    <path d="M 278.78641 114.304026 
L 274.523307 114.309232 
" clip-path="url(#p6f8779a26b)" style="fill: none; stroke: #51a7f9; stroke-width: 2; stroke-linecap: square"/>
   </g>
   <g id="line2d_57">
    <path d="M 276.601901 104.043232 
L 276.707816 124.570027 
" clip-path="url(#p6f8779a26b)" style="fill: none; stroke: #51a7f9; stroke-width: 2; stroke-linecap: square"/>
   </g>
   <g id="line2d_58">
    <path d="M 352.020511 90.549863 
L 346.494283 90.5544 
" clip-path="url(#p6f8779a26b)" style="fill: none; stroke: #51a7f9; stroke-width: 2; stroke-linecap: square"/>
   </g>
   <g id="line2d_59">
    <path d="M 349.233021 83.525855 
L 349.281773 97.578408 
" clip-path="url(#p6f8779a26b)" style="fill: none; stroke: #51a7f9; stroke-width: 2; stroke-linecap: square"/>
   </g>
   <g id="line2d_60">
    <path d="M 401.601531 79.175972 
L 393.974684 79.217245 
" clip-path="url(#p6f8779a26b)" style="fill: none; stroke: #51a7f9; stroke-width: 2; stroke-linecap: square"/>
   </g>
   <g id="line2d_61">
    <path d="M 397.667715 73.931136 
L 397.908499 84.46208 
" clip-path="url(#p6f8779a26b)" style="fill: none; stroke: #51a7f9; stroke-width: 2; stroke-linecap: square"/>
   </g>
   <g id="line2d_62">
    <path d="M 290.497397 79.136884 
L 283.159751 79.149176 
" clip-path="url(#p6f8779a26b)" style="fill: none; stroke: #6a5acd; stroke-width: 2; stroke-linecap: square"/>
   </g>
   <g id="line2d_63">
    <path d="M 286.754523 68.680957 
L 286.902625 89.605103 
" clip-path="url(#p6f8779a26b)" style="fill: none; stroke: #6a5acd; stroke-width: 2; stroke-linecap: square"/>
   </g>
   <g id="LineCollection_1"/>
   <g id="LineCollection_2"/>
   <g id="LineCollection_3"/>
   <g id="LineCollection_4"/>
   <g id="LineCollection_5"/>
   <g id="LineCollection_6"/>
   <g id="LineCollection_7"/>
   <g id="LineCollection_8"/>
   <g id="line2d_64"/>
   <g id="line2d_65"/>
   <g id="line2d_66"/>
   <g id="line2d_67"/>
   <g id="patch_3">
    <path d="M 50.14375 300.96 
L 50.14375 7.2 
" style="fill: none; stroke: #000000; stroke-width: 0.8; stroke-linejoin: miter; stroke-linecap: square"/>
   </g>
   <g id="patch_4">
    <path d="M 441.82375 300.96 
L 441.82375 7.2 
" style="fill: none; stroke: #000000; stroke-width: 0.8; stroke-linejoin: miter; stroke-linecap: square"/>
   </g>
   <g id="patch_5">
    <path d="M 50.14375 300.96 
L 441.82375 300.96 
" style="fill: none; stroke: #000000; stroke-width: 0.8; stroke-linejoin: miter; stroke-linecap: square"/>
   </g>
   <g id="patch_6">
    <path d="M 50.14375 7.2 
L 441.82375 7.2 
" style="fill: none; stroke: #000000; stroke-width: 0.8; stroke-linejoin: miter; stroke-linecap: square"/>
   </g>
   <g id="line2d_68">
    <path d="M 233.13707 194.079083 
" clip-path="url(#p6f8779a26b)" style="fill: none; stroke: #ec5d57; stroke-width: 1.5; stroke-linecap: square"/>
    <defs>
     <path id="md3d93e03b2" d="M 0 3 
C 0.795609 3 1.55874 2.683901 2.12132 2.12132 
C 2.683901 1.55874 3 0.795609 3 0 
C 3 -0.795609 2.683901 -1.55874 2.12132 -2.12132 
C 1.55874 -2.683901 0.795609 -3 0 -3 
C -0.795609 -3 -1.55874 -2.683901 -2.12132 -2.12132 
C -2.683901 -1.55874 -3 -0.795609 -3 0 
C -3 0.795609 -2.683901 1.55874 -2.12132 2.12132 
C -1.55874 2.683901 -0.795609 3 0 3 
z
" style="stroke: #ffffff"/>
    </defs>
    <g clip-path="url(#p6f8779a26b)">
     <use xlink:href="#md3d93e03b2" x="233.13707" y="194.079083" style="fill: #ec5d57; stroke: #ffffff"/>
    </g>
   </g>
   <g id="line2d_69">
    <path d="M 233.13707 194.079083 
" clip-path="url(#p6f8779a26b)" style="fill: none; stroke: #ec5d57; stroke-width: 1.5; stroke-linecap: square"/>
    <g clip-path="url(#p6f8779a26b)">
     <use xlink:href="#md3d93e03b2" x="233.13707" y="194.079083" style="fill: #ec5d57; stroke: #ffffff"/>
    </g>
   </g>
   <g id="line2d_70">
    <path d="M 269.747587 178.312983 
" clip-path="url(#p6f8779a26b)" style="fill: none; stroke: #ec5d57; stroke-width: 1.5; stroke-linecap: square"/>
    <g clip-path="url(#p6f8779a26b)">
     <use xlink:href="#md3d93e03b2" x="269.747587" y="178.312983" style="fill: #ec5d57; stroke: #ffffff"/>
    </g>
   </g>
   <g id="line2d_71">
    <path d="M 269.747587 178.312983 
" clip-path="url(#p6f8779a26b)" style="fill: none; stroke: #ec5d57; stroke-width: 1.5; stroke-linecap: square"/>
    <g clip-path="url(#p6f8779a26b)">
     <use xlink:href="#md3d93e03b2" x="269.747587" y="178.312983" style="fill: #ec5d57; stroke: #ffffff"/>
    </g>
   </g>
   <g id="line2d_72">
    <path d="M 284.877777 161.349114 
" clip-path="url(#p6f8779a26b)" style="fill: none; stroke: #ec5d57; stroke-width: 1.5; stroke-linecap: square"/>
    <g clip-path="url(#p6f8779a26b)">
     <use xlink:href="#md3d93e03b2" x="284.877777" y="161.349114" style="fill: #ec5d57; stroke: #ffffff"/>
    </g>
   </g>
   <g id="line2d_73">
    <path d="M 284.877777 161.349114 
" clip-path="url(#p6f8779a26b)" style="fill: none; stroke: #ec5d57; stroke-width: 1.5; stroke-linecap: square"/>
    <g clip-path="url(#p6f8779a26b)">
     <use xlink:href="#md3d93e03b2" x="284.877777" y="161.349114" style="fill: #ec5d57; stroke: #ffffff"/>
    </g>
   </g>
   <g id="line2d_74">
    <path d="M 295.977622 158.866696 
" clip-path="url(#p6f8779a26b)" style="fill: none; stroke: #ec5d57; stroke-width: 1.5; stroke-linecap: square"/>
    <g clip-path="url(#p6f8779a26b)">
     <use xlink:href="#md3d93e03b2" x="295.977622" y="158.866696" style="fill: #ec5d57; stroke: #ffffff"/>
    </g>
   </g>
   <g id="line2d_75">
    <path d="M 295.977622 158.866696 
" clip-path="url(#p6f8779a26b)" style="fill: none; stroke: #ec5d57; stroke-width: 1.5; stroke-linecap: square"/>
    <g clip-path="url(#p6f8779a26b)">
     <use xlink:href="#md3d93e03b2" x="295.977622" y="158.866696" style="fill: #ec5d57; stroke: #ffffff"/>
    </g>
   </g>
   <g id="line2d_76">
    <path d="M 343.784035 138.979689 
" clip-path="url(#p6f8779a26b)" style="fill: none; stroke: #ec5d57; stroke-width: 1.5; stroke-linecap: square"/>
    <g clip-path="url(#p6f8779a26b)">
     <use xlink:href="#md3d93e03b2" x="343.784035" y="138.979689" style="fill: #ec5d57; stroke: #ffffff"/>
    </g>
   </g>
   <g id="line2d_77">
    <path d="M 343.784035 138.979689 
" clip-path="url(#p6f8779a26b)" style="fill: none; stroke: #ec5d57; stroke-width: 1.5; stroke-linecap: square"/>
    <g clip-path="url(#p6f8779a26b)">
     <use xlink:href="#md3d93e03b2" x="343.784035" y="138.979689" style="fill: #ec5d57; stroke: #ffffff"/>
    </g>
   </g>
   <g id="line2d_78">
    <path d="M 421.524269 108.685469 
" clip-path="url(#p6f8779a26b)" style="fill: none; stroke: #ec5d57; stroke-width: 1.5; stroke-linecap: square"/>
    <g clip-path="url(#p6f8779a26b)">
     <use xlink:href="#md3d93e03b2" x="421.524269" y="108.685469" style="fill: #ec5d57; stroke: #ffffff"/>
    </g>
   </g>
   <g id="line2d_79">
    <path d="M 421.524269 108.685469 
" clip-path="url(#p6f8779a26b)" style="fill: none; stroke: #ec5d57; stroke-width: 1.5; stroke-linecap: square"/>
    <g clip-path="url(#p6f8779a26b)">
     <use xlink:href="#md3d93e03b2" x="421.524269" y="108.685469" style="fill: #ec5d57; stroke: #ffffff"/>
    </g>
   </g>
   <g id="line2d_80">
    <path d="M 211.439631 171.713726 
" clip-path="url(#p6f8779a26b)" style="fill: none; stroke: #70bf41; stroke-width: 1.5; stroke-linecap: square"/>
    <defs>
     <path id="m11552e98b9" d="M 0 3 
C 0.795609 3 1.55874 2.683901 2.12132 2.12132 
C 2.683901 1.55874 3 0.795609 3 0 
C 3 -0.795609 2.683901 -1.55874 2.12132 -2.12132 
C 1.55874 -2.683901 0.795609 -3 0 -3 
C -0.795609 -3 -1.55874 -2.683901 -2.12132 -2.12132 
C -2.683901 -1.55874 -3 -0.795609 -3 0 
C -3 0.795609 -2.683901 1.55874 -2.12132 2.12132 
C -1.55874 2.683901 -0.795609 3 0 3 
z
" style="stroke: #ffffff"/>
    </defs>
    <g clip-path="url(#p6f8779a26b)">
     <use xlink:href="#m11552e98b9" x="211.439631" y="171.713726" style="fill: #70bf41; stroke: #ffffff"/>
    </g>
   </g>
   <g id="line2d_81">
    <path d="M 211.439631 171.713726 
" clip-path="url(#p6f8779a26b)" style="fill: none; stroke: #70bf41; stroke-width: 1.5; stroke-linecap: square"/>
    <g clip-path="url(#p6f8779a26b)">
     <use xlink:href="#m11552e98b9" x="211.439631" y="171.713726" style="fill: #70bf41; stroke: #ffffff"/>
    </g>
   </g>
   <g id="line2d_82">
    <path d="M 246.854752 164.252968 
" clip-path="url(#p6f8779a26b)" style="fill: none; stroke: #70bf41; stroke-width: 1.5; stroke-linecap: square"/>
    <g clip-path="url(#p6f8779a26b)">
     <use xlink:href="#m11552e98b9" x="246.854752" y="164.252968" style="fill: #70bf41; stroke: #ffffff"/>
    </g>
   </g>
   <g id="line2d_83">
    <path d="M 246.854752 164.252968 
" clip-path="url(#p6f8779a26b)" style="fill: none; stroke: #70bf41; stroke-width: 1.5; stroke-linecap: square"/>
    <g clip-path="url(#p6f8779a26b)">
     <use xlink:href="#m11552e98b9" x="246.854752" y="164.252968" style="fill: #70bf41; stroke: #ffffff"/>
    </g>
   </g>
   <g id="line2d_84">
    <path d="M 268.419953 148.792728 
" clip-path="url(#p6f8779a26b)" style="fill: none; stroke: #70bf41; stroke-width: 1.5; stroke-linecap: square"/>
    <g clip-path="url(#p6f8779a26b)">
     <use xlink:href="#m11552e98b9" x="268.419953" y="148.792728" style="fill: #70bf41; stroke: #ffffff"/>
    </g>
   </g>
   <g id="line2d_85">
    <path d="M 268.419953 148.792728 
" clip-path="url(#p6f8779a26b)" style="fill: none; stroke: #70bf41; stroke-width: 1.5; stroke-linecap: square"/>
    <g clip-path="url(#p6f8779a26b)">
     <use xlink:href="#m11552e98b9" x="268.419953" y="148.792728" style="fill: #70bf41; stroke: #ffffff"/>
    </g>
   </g>
   <g id="line2d_86">
    <path d="M 273.737469 143.735209 
" clip-path="url(#p6f8779a26b)" style="fill: none; stroke: #70bf41; stroke-width: 1.5; stroke-linecap: square"/>
    <g clip-path="url(#p6f8779a26b)">
     <use xlink:href="#m11552e98b9" x="273.737469" y="143.735209" style="fill: #70bf41; stroke: #ffffff"/>
    </g>
   </g>
   <g id="line2d_87">
    <path d="M 273.737469 143.735209 
" clip-path="url(#p6f8779a26b)" style="fill: none; stroke: #70bf41; stroke-width: 1.5; stroke-linecap: square"/>
    <g clip-path="url(#p6f8779a26b)">
     <use xlink:href="#m11552e98b9" x="273.737469" y="143.735209" style="fill: #70bf41; stroke: #ffffff"/>
    </g>
   </g>
   <g id="line2d_88">
    <path d="M 69.82194 244.291173 
" clip-path="url(#p6f8779a26b)" style="fill: none; stroke: #70bf41; stroke-width: 1.5; stroke-linecap: square"/>
    <g clip-path="url(#p6f8779a26b)">
     <use xlink:href="#m11552e98b9" x="69.82194" y="244.291173" style="fill: #70bf41; stroke: #ffffff"/>
    </g>
   </g>
   <g id="line2d_89">
    <path d="M 69.82194 244.291173 
" clip-path="url(#p6f8779a26b)" style="fill: none; stroke: #70bf41; stroke-width: 1.5; stroke-linecap: square"/>
    <g clip-path="url(#p6f8779a26b)">
     <use xlink:href="#m11552e98b9" x="69.82194" y="244.291173" style="fill: #70bf41; stroke: #ffffff"/>
    </g>
   </g>
   <g id="line2d_90">
    <path d="M 334.280346 115.653234 
" clip-path="url(#p6f8779a26b)" style="fill: none; stroke: #70bf41; stroke-width: 1.5; stroke-linecap: square"/>
    <g clip-path="url(#p6f8779a26b)">
     <use xlink:href="#m11552e98b9" x="334.280346" y="115.653234" style="fill: #70bf41; stroke: #ffffff"/>
    </g>
   </g>
   <g id="line2d_91">
    <path d="M 334.280346 115.653234 
" clip-path="url(#p6f8779a26b)" style="fill: none; stroke: #70bf41; stroke-width: 1.5; stroke-linecap: square"/>
    <g clip-path="url(#p6f8779a26b)">
     <use xlink:href="#m11552e98b9" x="334.280346" y="115.653234" style="fill: #70bf41; stroke: #ffffff"/>
    </g>
   </g>
   <g id="line2d_92">
    <path d="M 331.089508 116.466133 
" clip-path="url(#p6f8779a26b)" style="fill: none; stroke: #70bf41; stroke-width: 1.5; stroke-linecap: square"/>
    <g clip-path="url(#p6f8779a26b)">
     <use xlink:href="#m11552e98b9" x="331.089508" y="116.466133" style="fill: #70bf41; stroke: #ffffff"/>
    </g>
   </g>
   <g id="line2d_93">
    <path d="M 331.089508 116.466133 
" clip-path="url(#p6f8779a26b)" style="fill: none; stroke: #70bf41; stroke-width: 1.5; stroke-linecap: square"/>
    <g clip-path="url(#p6f8779a26b)">
     <use xlink:href="#m11552e98b9" x="331.089508" y="116.466133" style="fill: #70bf41; stroke: #ffffff"/>
    </g>
   </g>
   <g id="line2d_94">
    <path d="M 332.506309 119.073751 
" clip-path="url(#p6f8779a26b)" style="fill: none; stroke: #70bf41; stroke-width: 1.5; stroke-linecap: square"/>
    <g clip-path="url(#p6f8779a26b)">
     <use xlink:href="#m11552e98b9" x="332.506309" y="119.073751" style="fill: #70bf41; stroke: #ffffff"/>
    </g>
   </g>
   <g id="line2d_95">
    <path d="M 332.506309 119.073751 
" clip-path="url(#p6f8779a26b)" style="fill: none; stroke: #70bf41; stroke-width: 1.5; stroke-linecap: square"/>
    <g clip-path="url(#p6f8779a26b)">
     <use xlink:href="#m11552e98b9" x="332.506309" y="119.073751" style="fill: #70bf41; stroke: #ffffff"/>
    </g>
   </g>
   <g id="line2d_96">
    <path d="M 358.131726 102.016578 
" clip-path="url(#p6f8779a26b)" style="fill: none; stroke: #70bf41; stroke-width: 1.5; stroke-linecap: square"/>
    <g clip-path="url(#p6f8779a26b)">
     <use xlink:href="#m11552e98b9" x="358.131726" y="102.016578" style="fill: #70bf41; stroke: #ffffff"/>
    </g>
   </g>
   <g id="line2d_97">
    <path d="M 358.131726 102.016578 
" clip-path="url(#p6f8779a26b)" style="fill: none; stroke: #70bf41; stroke-width: 1.5; stroke-linecap: square"/>
    <g clip-path="url(#p6f8779a26b)">
     <use xlink:href="#m11552e98b9" x="358.131726" y="102.016578" style="fill: #70bf41; stroke: #ffffff"/>
    </g>
   </g>
   <g id="line2d_98">
    <path d="M 382.167451 101.615194 
" clip-path="url(#p6f8779a26b)" style="fill: none; stroke: #70bf41; stroke-width: 1.5; stroke-linecap: square"/>
    <g clip-path="url(#p6f8779a26b)">
     <use xlink:href="#m11552e98b9" x="382.167451" y="101.615194" style="fill: #70bf41; stroke: #ffffff"/>
    </g>
   </g>
   <g id="line2d_99">
    <path d="M 382.167451 101.615194 
" clip-path="url(#p6f8779a26b)" style="fill: none; stroke: #70bf41; stroke-width: 1.5; stroke-linecap: square"/>
    <g clip-path="url(#p6f8779a26b)">
     <use xlink:href="#m11552e98b9" x="382.167451" y="101.615194" style="fill: #70bf41; stroke: #ffffff"/>
    </g>
   </g>
   <g id="line2d_100">
    <path d="M 209.314527 140.492857 
" clip-path="url(#p6f8779a26b)" style="fill: none; stroke: #51a7f9; stroke-width: 1.5; stroke-linecap: square"/>
    <defs>
     <path id="m257a0afb3e" d="M 0 3 
C 0.795609 3 1.55874 2.683901 2.12132 2.12132 
C 2.683901 1.55874 3 0.795609 3 0 
C 3 -0.795609 2.683901 -1.55874 2.12132 -2.12132 
C 1.55874 -2.683901 0.795609 -3 0 -3 
C -0.795609 -3 -1.55874 -2.683901 -2.12132 -2.12132 
C -2.683901 -1.55874 -3 -0.795609 -3 0 
C -3 0.795609 -2.683901 1.55874 -2.12132 2.12132 
C -1.55874 2.683901 -0.795609 3 0 3 
z
" style="stroke: #ffffff"/>
    </defs>
    <g clip-path="url(#p6f8779a26b)">
     <use xlink:href="#m257a0afb3e" x="209.314527" y="140.492857" style="fill: #51a7f9; stroke: #ffffff"/>
    </g>
   </g>
   <g id="line2d_101">
    <path d="M 209.314527 140.492857 
" clip-path="url(#p6f8779a26b)" style="fill: none; stroke: #51a7f9; stroke-width: 1.5; stroke-linecap: square"/>
    <g clip-path="url(#p6f8779a26b)">
     <use xlink:href="#m257a0afb3e" x="209.314527" y="140.492857" style="fill: #51a7f9; stroke: #ffffff"/>
    </g>
   </g>
   <g id="line2d_102">
    <path d="M 250.458171 136.871584 
" clip-path="url(#p6f8779a26b)" style="fill: none; stroke: #51a7f9; stroke-width: 1.5; stroke-linecap: square"/>
    <g clip-path="url(#p6f8779a26b)">
     <use xlink:href="#m257a0afb3e" x="250.458171" y="136.871584" style="fill: #51a7f9; stroke: #ffffff"/>
    </g>
   </g>
   <g id="line2d_103">
    <path d="M 250.458171 136.871584 
" clip-path="url(#p6f8779a26b)" style="fill: none; stroke: #51a7f9; stroke-width: 1.5; stroke-linecap: square"/>
    <g clip-path="url(#p6f8779a26b)">
     <use xlink:href="#m257a0afb3e" x="250.458171" y="136.871584" style="fill: #51a7f9; stroke: #ffffff"/>
    </g>
   </g>
   <g id="line2d_104">
    <path d="M 276.654859 114.306629 
" clip-path="url(#p6f8779a26b)" style="fill: none; stroke: #51a7f9; stroke-width: 1.5; stroke-linecap: square"/>
    <g clip-path="url(#p6f8779a26b)">
     <use xlink:href="#m257a0afb3e" x="276.654859" y="114.306629" style="fill: #51a7f9; stroke: #ffffff"/>
    </g>
   </g>
   <g id="line2d_105">
    <path d="M 276.654859 114.306629 
" clip-path="url(#p6f8779a26b)" style="fill: none; stroke: #51a7f9; stroke-width: 1.5; stroke-linecap: square"/>
    <g clip-path="url(#p6f8779a26b)">
     <use xlink:href="#m257a0afb3e" x="276.654859" y="114.306629" style="fill: #51a7f9; stroke: #ffffff"/>
    </g>
   </g>
   <g id="line2d_106">
    <path d="M 349.257397 90.552132 
" clip-path="url(#p6f8779a26b)" style="fill: none; stroke: #51a7f9; stroke-width: 1.5; stroke-linecap: square"/>
    <g clip-path="url(#p6f8779a26b)">
     <use xlink:href="#m257a0afb3e" x="349.257397" y="90.552132" style="fill: #51a7f9; stroke: #ffffff"/>
    </g>
   </g>
   <g id="line2d_107">
    <path d="M 349.257397 90.552132 
" clip-path="url(#p6f8779a26b)" style="fill: none; stroke: #51a7f9; stroke-width: 1.5; stroke-linecap: square"/>
    <g clip-path="url(#p6f8779a26b)">
     <use xlink:href="#m257a0afb3e" x="349.257397" y="90.552132" style="fill: #51a7f9; stroke: #ffffff"/>
    </g>
   </g>
   <g id="line2d_108">
    <path d="M 397.788107 79.196608 
" clip-path="url(#p6f8779a26b)" style="fill: none; stroke: #51a7f9; stroke-width: 1.5; stroke-linecap: square"/>
    <g clip-path="url(#p6f8779a26b)">
     <use xlink:href="#m257a0afb3e" x="397.788107" y="79.196608" style="fill: #51a7f9; stroke: #ffffff"/>
    </g>
   </g>
   <g id="line2d_109">
    <path d="M 397.788107 79.196608 
" clip-path="url(#p6f8779a26b)" style="fill: none; stroke: #51a7f9; stroke-width: 1.5; stroke-linecap: square"/>
    <g clip-path="url(#p6f8779a26b)">
     <use xlink:href="#m257a0afb3e" x="397.788107" y="79.196608" style="fill: #51a7f9; stroke: #ffffff"/>
    </g>
   </g>
   <g id="line2d_110">
    <path d="M 286.828574 79.14303 
" clip-path="url(#p6f8779a26b)" style="fill: none; stroke: #6a5acd; stroke-width: 1.5; stroke-linecap: square"/>
    <defs>
     <path id="me4030b8226" d="M 0 3 
C 0.795609 3 1.55874 2.683901 2.12132 2.12132 
C 2.683901 1.55874 3 0.795609 3 0 
C 3 -0.795609 2.683901 -1.55874 2.12132 -2.12132 
C 1.55874 -2.683901 0.795609 -3 0 -3 
C -0.795609 -3 -1.55874 -2.683901 -2.12132 -2.12132 
C -2.683901 -1.55874 -3 -0.795609 -3 0 
C -3 0.795609 -2.683901 1.55874 -2.12132 2.12132 
C -1.55874 2.683901 -0.795609 3 0 3 
z
" style="stroke: #ffffff"/>
    </defs>
    <g clip-path="url(#p6f8779a26b)">
     <use xlink:href="#me4030b8226" x="286.828574" y="79.14303" style="fill: #6a5acd; stroke: #ffffff"/>
    </g>
   </g>
   <g id="line2d_111">
    <path d="M 286.828574 79.14303 
" clip-path="url(#p6f8779a26b)" style="fill: none; stroke: #6a5acd; stroke-width: 1.5; stroke-linecap: square"/>
    <g clip-path="url(#p6f8779a26b)">
     <use xlink:href="#me4030b8226" x="286.828574" y="79.14303" style="fill: #6a5acd; stroke: #ffffff"/>
    </g>
   </g>
   <g id="legend_1">
    <g id="patch_7">
     <path d="M 57.14375 51.6 
L 253.74375 51.6 
Q 255.74375 51.6 255.74375 49.6 
L 255.74375 14.2 
Q 255.74375 12.2 253.74375 12.2 
L 57.14375 12.2 
Q 55.14375 12.2 55.14375 14.2 
L 55.14375 49.6 
Q 55.14375 51.6 57.14375 51.6 
z
" style="fill: #ffffff; opacity: 0.8; stroke: #cccccc; stroke-linejoin: miter"/>
    </g>
    <g id="LineCollection_9">
     <path d="M 64.14375 23.1 
L 74.14375 23.1 
" style="fill: none; stroke: #6a5acd; stroke-width: 3"/>
    </g>
    <g id="LineCollection_10">
     <path d="M 69.14375 28.1 
L 69.14375 18.1 
" style="fill: none; stroke: #6a5acd; stroke-width: 3"/>
    </g>
    <g id="line2d_112">
     <path d="M 59.14375 23.1 
L 79.14375 23.1 
" style="fill: none; stroke: #6a5acd; stroke-width: 1.5; stroke-linecap: square"/>
    </g>
    <g id="line2d_113">
     <defs>
      <path id="maefff45b6b" d="M 0 4 
C 1.060812 4 2.078319 3.578535 2.828427 2.828427 
C 3.578535 2.078319 4 1.060812 4 0 
C 4 -1.060812 3.578535 -2.078319 2.828427 -2.828427 
C 2.078319 -3.578535 1.060812 -4 0 -4 
C -1.060812 -4 -2.078319 -3.578535 -2.828427 -2.828427 
C -3.578535 -2.078319 -4 -1.060812 -4 0 
C -4 1.060812 -3.578535 2.078319 -2.828427 2.828427 
C -2.078319 3.578535 -1.060812 4 0 4 
z
" style="stroke: #ffffff; stroke-width: 2"/>
     </defs>
     <g>
      <use xlink:href="#maefff45b6b" x="69.14375" y="23.1" style="fill: #6a5acd; stroke: #ffffff; stroke-width: 2"/>
     </g>
    </g>
    <g id="text_17">
     <!-- $a_{06}(l_F^{\rm phys},s_F)$ -->
     <g transform="translate(87.14375 26.6) scale(0.1 -0.1)">
      <defs>
       <path id="DejaVuSans-Oblique-61" d="M 3438 1997 
L 3047 0 
L 2472 0 
L 2578 531 
Q 2325 219 2001 64 
Q 1678 -91 1281 -91 
Q 834 -91 548 182 
Q 263 456 263 884 
Q 263 1497 752 1853 
Q 1241 2209 2100 2209 
L 2900 2209 
L 2931 2363 
Q 2938 2388 2941 2417 
Q 2944 2447 2944 2509 
Q 2944 2788 2717 2942 
Q 2491 3097 2081 3097 
Q 1800 3097 1504 3025 
Q 1209 2953 897 2809 
L 997 3341 
Q 1322 3463 1633 3523 
Q 1944 3584 2234 3584 
Q 2853 3584 3176 3315 
Q 3500 3047 3500 2534 
Q 3500 2431 3484 2292 
Q 3469 2153 3438 1997 
z
M 2816 1759 
L 2241 1759 
Q 1534 1759 1195 1570 
Q 856 1381 856 984 
Q 856 709 1029 553 
Q 1203 397 1509 397 
Q 1978 397 2328 733 
Q 2678 1069 2791 1631 
L 2816 1759 
z
" transform="scale(0.015625)"/>
       <path id="DejaVuSans-28" d="M 1984 4856 
Q 1566 4138 1362 3434 
Q 1159 2731 1159 2009 
Q 1159 1288 1364 580 
Q 1569 -128 1984 -844 
L 1484 -844 
Q 1016 -109 783 600 
Q 550 1309 550 2009 
Q 550 2706 781 3412 
Q 1013 4119 1484 4856 
L 1984 4856 
z
" transform="scale(0.015625)"/>
       <path id="DejaVuSans-Oblique-6c" d="M 1172 4863 
L 1747 4863 
L 800 0 
L 225 0 
L 1172 4863 
z
" transform="scale(0.015625)"/>
       <path id="DejaVuSans-70" d="M 1159 525 
L 1159 -1331 
L 581 -1331 
L 581 3500 
L 1159 3500 
L 1159 2969 
Q 1341 3281 1617 3432 
Q 1894 3584 2278 3584 
Q 2916 3584 3314 3078 
Q 3713 2572 3713 1747 
Q 3713 922 3314 415 
Q 2916 -91 2278 -91 
Q 1894 -91 1617 61 
Q 1341 213 1159 525 
z
M 3116 1747 
Q 3116 2381 2855 2742 
Q 2594 3103 2138 3103 
Q 1681 3103 1420 2742 
Q 1159 2381 1159 1747 
Q 1159 1113 1420 752 
Q 1681 391 2138 391 
Q 2594 391 2855 752 
Q 3116 1113 3116 1747 
z
" transform="scale(0.015625)"/>
       <path id="DejaVuSans-68" d="M 3513 2113 
L 3513 0 
L 2938 0 
L 2938 2094 
Q 2938 2591 2744 2837 
Q 2550 3084 2163 3084 
Q 1697 3084 1428 2787 
Q 1159 2491 1159 1978 
L 1159 0 
L 581 0 
L 581 4863 
L 1159 4863 
L 1159 2956 
Q 1366 3272 1645 3428 
Q 1925 3584 2291 3584 
Q 2894 3584 3203 3211 
Q 3513 2838 3513 2113 
z
" transform="scale(0.015625)"/>
       <path id="DejaVuSans-79" d="M 2059 -325 
Q 1816 -950 1584 -1140 
Q 1353 -1331 966 -1331 
L 506 -1331 
L 506 -850 
L 844 -850 
Q 1081 -850 1212 -737 
Q 1344 -625 1503 -206 
L 1606 56 
L 191 3500 
L 800 3500 
L 1894 763 
L 2988 3500 
L 3597 3500 
L 2059 -325 
z
" transform="scale(0.015625)"/>
       <path id="DejaVuSans-73" d="M 2834 3397 
L 2834 2853 
Q 2591 2978 2328 3040 
Q 2066 3103 1784 3103 
Q 1356 3103 1142 2972 
Q 928 2841 928 2578 
Q 928 2378 1081 2264 
Q 1234 2150 1697 2047 
L 1894 2003 
Q 2506 1872 2764 1633 
Q 3022 1394 3022 966 
Q 3022 478 2636 193 
Q 2250 -91 1575 -91 
Q 1294 -91 989 -36 
Q 684 19 347 128 
L 347 722 
Q 666 556 975 473 
Q 1284 391 1588 391 
Q 1994 391 2212 530 
Q 2431 669 2431 922 
Q 2431 1156 2273 1281 
Q 2116 1406 1581 1522 
L 1381 1569 
Q 847 1681 609 1914 
Q 372 2147 372 2553 
Q 372 3047 722 3315 
Q 1072 3584 1716 3584 
Q 2034 3584 2315 3537 
Q 2597 3491 2834 3397 
z
" transform="scale(0.015625)"/>
       <path id="DejaVuSans-2c" d="M 750 794 
L 1409 794 
L 1409 256 
L 897 -744 
L 494 -744 
L 750 256 
L 750 794 
z
" transform="scale(0.015625)"/>
       <path id="DejaVuSans-29" d="M 513 4856 
L 1013 4856 
Q 1481 4119 1714 3412 
Q 1947 2706 1947 2009 
Q 1947 1309 1714 600 
Q 1481 -109 1013 -844 
L 513 -844 
Q 928 -128 1133 580 
Q 1338 1288 1338 2009 
Q 1338 2731 1133 3434 
Q 928 4138 513 4856 
z
" transform="scale(0.015625)"/>
      </defs>
      <use xlink:href="#DejaVuSans-Oblique-61" transform="translate(0 0.0625)"/>
      <use xlink:href="#DejaVuSans-30" transform="translate(61.279297 -16.34375) scale(0.7)"/>
      <use xlink:href="#DejaVuSans-36" transform="translate(105.81543 -16.34375) scale(0.7)"/>
      <use xlink:href="#DejaVuSans-28" transform="translate(153.085938 0.0625)"/>
      <use xlink:href="#DejaVuSans-Oblique-6c" transform="translate(192.099609 0.0625)"/>
      <use xlink:href="#DejaVuSans-70" transform="translate(227.330521 50.810938) scale(0.7)"/>
      <use xlink:href="#DejaVuSans-68" transform="translate(271.764115 50.810938) scale(0.7)"/>
      <use xlink:href="#DejaVuSans-79" transform="translate(316.129349 50.810938) scale(0.7)"/>
      <use xlink:href="#DejaVuSans-73" transform="translate(357.55513 50.810938) scale(0.7)"/>
      <use xlink:href="#DejaVuSans-Oblique-46" transform="translate(219.882812 -27.28125) scale(0.7)"/>
      <use xlink:href="#DejaVuSans-2c" transform="translate(396.759232 0.0625)"/>
      <use xlink:href="#DejaVuSans-Oblique-73" transform="translate(448.028763 0.0625)"/>
      <use xlink:href="#DejaVuSans-Oblique-46" transform="translate(500.128372 -16.34375) scale(0.7)"/>
      <use xlink:href="#DejaVuSans-29" transform="translate(543.126419 0.0625)"/>
     </g>
    </g>
    <g id="LineCollection_11">
     <path d="M 64.14375 41.3 
L 74.14375 41.3 
" style="fill: none; stroke: #51a7f9; stroke-width: 3"/>
    </g>
    <g id="LineCollection_12">
     <path d="M 69.14375 46.3 
L 69.14375 36.3 
" style="fill: none; stroke: #51a7f9; stroke-width: 3"/>
    </g>
    <g id="line2d_114">
     <path d="M 59.14375 41.3 
L 79.14375 41.3 
" style="fill: none; stroke: #51a7f9; stroke-width: 1.5; stroke-linecap: square"/>
    </g>
    <g id="line2d_115">
     <defs>
      <path id="m01adb3ce76" d="M 0 4 
C 1.060812 4 2.078319 3.578535 2.828427 2.828427 
C 3.578535 2.078319 4 1.060812 4 0 
C 4 -1.060812 3.578535 -2.078319 2.828427 -2.828427 
C 2.078319 -3.578535 1.060812 -4 0 -4 
C -1.060812 -4 -2.078319 -3.578535 -2.828427 -2.828427 
C -3.578535 -2.078319 -4 -1.060812 -4 0 
C -4 1.060812 -3.578535 2.078319 -2.828427 2.828427 
C -2.078319 3.578535 -1.060812 4 0 4 
z
" style="stroke: #ffffff; stroke-width: 2"/>
     </defs>
     <g>
      <use xlink:href="#m01adb3ce76" x="69.14375" y="41.3" style="fill: #51a7f9; stroke: #ffffff; stroke-width: 2"/>
     </g>
    </g>
    <g id="text_18">
     <!-- $a_{09}(l_F^{\rm phys},s_F)$ -->
     <g transform="translate(87.14375 44.8) scale(0.1 -0.1)">
      <defs>
       <path id="DejaVuSans-39" d="M 703 97 
L 703 672 
Q 941 559 1184 500 
Q 1428 441 1663 441 
Q 2288 441 2617 861 
Q 2947 1281 2994 2138 
Q 2813 1869 2534 1725 
Q 2256 1581 1919 1581 
Q 1219 1581 811 2004 
Q 403 2428 403 3163 
Q 403 3881 828 4315 
Q 1253 4750 1959 4750 
Q 2769 4750 3195 4129 
Q 3622 3509 3622 2328 
Q 3622 1225 3098 567 
Q 2575 -91 1691 -91 
Q 1453 -91 1209 -44 
Q 966 3 703 97 
z
M 1959 2075 
Q 2384 2075 2632 2365 
Q 2881 2656 2881 3163 
Q 2881 3666 2632 3958 
Q 2384 4250 1959 4250 
Q 1534 4250 1286 3958 
Q 1038 3666 1038 3163 
Q 1038 2656 1286 2365 
Q 1534 2075 1959 2075 
z
" transform="scale(0.015625)"/>
      </defs>
      <use xlink:href="#DejaVuSans-Oblique-61" transform="translate(0 0.0625)"/>
      <use xlink:href="#DejaVuSans-30" transform="translate(61.279297 -16.34375) scale(0.7)"/>
      <use xlink:href="#DejaVuSans-39" transform="translate(105.81543 -16.34375) scale(0.7)"/>
      <use xlink:href="#DejaVuSans-28" transform="translate(153.085938 0.0625)"/>
      <use xlink:href="#DejaVuSans-Oblique-6c" transform="translate(192.099609 0.0625)"/>
      <use xlink:href="#DejaVuSans-70" transform="translate(227.330521 50.810938) scale(0.7)"/>
      <use xlink:href="#DejaVuSans-68" transform="translate(271.764115 50.810938) scale(0.7)"/>
      <use xlink:href="#DejaVuSans-79" transform="translate(316.129349 50.810938) scale(0.7)"/>
      <use xlink:href="#DejaVuSans-73" transform="translate(357.55513 50.810938) scale(0.7)"/>
      <use xlink:href="#DejaVuSans-Oblique-46" transform="translate(219.882812 -27.28125) scale(0.7)"/>
      <use xlink:href="#DejaVuSans-2c" transform="translate(396.759232 0.0625)"/>
      <use xlink:href="#DejaVuSans-Oblique-73" transform="translate(448.028763 0.0625)"/>
      <use xlink:href="#DejaVuSans-Oblique-46" transform="translate(500.128372 -16.34375) scale(0.7)"/>
      <use xlink:href="#DejaVuSans-29" transform="translate(543.126419 0.0625)"/>
     </g>
    </g>
    <g id="LineCollection_13">
     <path d="M 170.44375 23.1 
L 180.44375 23.1 
" style="fill: none; stroke: #70bf41; stroke-width: 3"/>
    </g>
    <g id="LineCollection_14">
     <path d="M 175.44375 28.1 
L 175.44375 18.1 
" style="fill: none; stroke: #70bf41; stroke-width: 3"/>
    </g>
    <g id="line2d_116">
     <path d="M 165.44375 23.1 
L 185.44375 23.1 
" style="fill: none; stroke: #70bf41; stroke-width: 1.5; stroke-linecap: square"/>
    </g>
    <g id="line2d_117">
     <defs>
      <path id="m4ab33584d1" d="M 0 4 
C 1.060812 4 2.078319 3.578535 2.828427 2.828427 
C 3.578535 2.078319 4 1.060812 4 0 
C 4 -1.060812 3.578535 -2.078319 2.828427 -2.828427 
C 2.078319 -3.578535 1.060812 -4 0 -4 
C -1.060812 -4 -2.078319 -3.578535 -2.828427 -2.828427 
C -3.578535 -2.078319 -4 -1.060812 -4 0 
C -4 1.060812 -3.578535 2.078319 -2.828427 2.828427 
C -2.078319 3.578535 -1.060812 4 0 4 
z
" style="stroke: #ffffff; stroke-width: 2"/>
     </defs>
     <g>
      <use xlink:href="#m4ab33584d1" x="175.44375" y="23.1" style="fill: #70bf41; stroke: #ffffff; stroke-width: 2"/>
     </g>
    </g>
    <g id="text_19">
     <!-- $a_{12}(l_F^{\rm phys},s_F)$ -->
     <g transform="translate(193.44375 26.6) scale(0.1 -0.1)">
      <use xlink:href="#DejaVuSans-Oblique-61" transform="translate(0 0.0625)"/>
      <use xlink:href="#DejaVuSans-31" transform="translate(61.279297 -16.34375) scale(0.7)"/>
      <use xlink:href="#DejaVuSans-32" transform="translate(105.81543 -16.34375) scale(0.7)"/>
      <use xlink:href="#DejaVuSans-28" transform="translate(153.085938 0.0625)"/>
      <use xlink:href="#DejaVuSans-Oblique-6c" transform="translate(192.099609 0.0625)"/>
      <use xlink:href="#DejaVuSans-70" transform="translate(227.330521 50.810938) scale(0.7)"/>
      <use xlink:href="#DejaVuSans-68" transform="translate(271.764115 50.810938) scale(0.7)"/>
      <use xlink:href="#DejaVuSans-79" transform="translate(316.129349 50.810938) scale(0.7)"/>
      <use xlink:href="#DejaVuSans-73" transform="translate(357.55513 50.810938) scale(0.7)"/>
      <use xlink:href="#DejaVuSans-Oblique-46" transform="translate(219.882812 -27.28125) scale(0.7)"/>
      <use xlink:href="#DejaVuSans-2c" transform="translate(396.759232 0.0625)"/>
      <use xlink:href="#DejaVuSans-Oblique-73" transform="translate(448.028763 0.0625)"/>
      <use xlink:href="#DejaVuSans-Oblique-46" transform="translate(500.128372 -16.34375) scale(0.7)"/>
      <use xlink:href="#DejaVuSans-29" transform="translate(543.126419 0.0625)"/>
     </g>
    </g>
    <g id="LineCollection_15">
     <path d="M 170.44375 41.3 
L 180.44375 41.3 
" style="fill: none; stroke: #ec5d57; stroke-width: 3"/>
    </g>
    <g id="LineCollection_16">
     <path d="M 175.44375 46.3 
L 175.44375 36.3 
" style="fill: none; stroke: #ec5d57; stroke-width: 3"/>
    </g>
    <g id="line2d_118">
     <path d="M 165.44375 41.3 
L 185.44375 41.3 
" style="fill: none; stroke: #ec5d57; stroke-width: 1.5; stroke-linecap: square"/>
    </g>
    <g id="line2d_119">
     <defs>
      <path id="ma15e2e13b1" d="M 0 4 
C 1.060812 4 2.078319 3.578535 2.828427 2.828427 
C 3.578535 2.078319 4 1.060812 4 0 
C 4 -1.060812 3.578535 -2.078319 2.828427 -2.828427 
C 2.078319 -3.578535 1.060812 -4 0 -4 
C -1.060812 -4 -2.078319 -3.578535 -2.828427 -2.828427 
C -3.578535 -2.078319 -4 -1.060812 -4 0 
C -4 1.060812 -3.578535 2.078319 -2.828427 2.828427 
C -2.078319 3.578535 -1.060812 4 0 4 
z
" style="stroke: #ffffff; stroke-width: 2"/>
     </defs>
     <g>
      <use xlink:href="#ma15e2e13b1" x="175.44375" y="41.3" style="fill: #ec5d57; stroke: #ffffff; stroke-width: 2"/>
     </g>
    </g>
    <g id="text_20">
     <!-- $a_{15}(l_F^{\rm phys},s_F)$ -->
     <g transform="translate(193.44375 44.8) scale(0.1 -0.1)">
      <use xlink:href="#DejaVuSans-Oblique-61" transform="translate(0 0.0625)"/>
      <use xlink:href="#DejaVuSans-31" transform="translate(61.279297 -16.34375) scale(0.7)"/>
      <use xlink:href="#DejaVuSans-35" transform="translate(105.81543 -16.34375) scale(0.7)"/>
      <use xlink:href="#DejaVuSans-28" transform="translate(153.085938 0.0625)"/>
      <use xlink:href="#DejaVuSans-Oblique-6c" transform="translate(192.099609 0.0625)"/>
      <use xlink:href="#DejaVuSans-70" transform="translate(227.330521 50.810938) scale(0.7)"/>
      <use xlink:href="#DejaVuSans-68" transform="translate(271.764115 50.810938) scale(0.7)"/>
      <use xlink:href="#DejaVuSans-79" transform="translate(316.129349 50.810938) scale(0.7)"/>
      <use xlink:href="#DejaVuSans-73" transform="translate(357.55513 50.810938) scale(0.7)"/>
      <use xlink:href="#DejaVuSans-Oblique-46" transform="translate(219.882812 -27.28125) scale(0.7)"/>
      <use xlink:href="#DejaVuSans-2c" transform="translate(396.759232 0.0625)"/>
      <use xlink:href="#DejaVuSans-Oblique-73" transform="translate(448.028763 0.0625)"/>
      <use xlink:href="#DejaVuSans-Oblique-46" transform="translate(500.128372 -16.34375) scale(0.7)"/>
      <use xlink:href="#DejaVuSans-29" transform="translate(543.126419 0.0625)"/>
     </g>
    </g>
   </g>
  </g>
 </g>
 <defs>
  <clipPath id="p6f8779a26b">
   <rect x="50.14375" y="7.2" width="391.68" height="293.76"/>
  </clipPath>
 </defs>
 <defs>
  <pattern id="h6f8d34a1d3" patternUnits="userSpaceOnUse" x="0" y="0" width="72" height="72">
   <rect x="0" y="0" width="73" height="73" fill="none"/>
   <path d="M -36 36 
L 36 -36 
M -24 48 
L 48 -24 
M -12 60 
L 60 -12 
M 0 72 
L 72 0 
M 12 84 
L 84 12 
M 24 96 
L 96 24 
M 36 108 
L 108 36 
" style="fill: #000000; stroke: #000000; stroke-width: 1.0; stroke-linecap: butt; stroke-linejoin: miter; stroke-opacity: 0.6"/>
  </pattern>
 </defs>
</svg>
