<?xml version="1.0" encoding="utf-8" standalone="no"?>
<!DOCTYPE svg PUBLIC "-//W3C//DTD SVG 1.1//EN"
  "http://www.w3.org/Graphics/SVG/1.1/DTD/svg11.dtd">
<svg xmlns:xlink="http://www.w3.org/1999/xlink" width="449.02375pt" height="340.838125pt" viewBox="0 0 449.02375 340.838125" xmlns="http://www.w3.org/2000/svg" version="1.1">
 <metadata>
  <rdf:RDF xmlns:dc="http://purl.org/dc/elements/1.1/" xmlns:cc="http://creativecommons.org/ns#" xmlns:rdf="http://www.w3.org/1999/02/22-rdf-syntax-ns#">
   <cc:Work>
    <dc:type rdf:resource="http://purl.org/dc/dcmitype/StillImage"/>
    <dc:date>2025-03-01T15:55:06.552060</dc:date>
    <dc:format>image/svg+xml</dc:format>
    <dc:creator>
     <cc:Agent>
      <dc:title>Matplotlib v3.10.0, https://matplotlib.org/</dc:title>
     </cc:Agent>
    </dc:creator>
   </cc:Work>
  </rdf:RDF>
 </metadata>
 <defs>
  <style type="text/css">*{stroke-linejoin: round; stroke-linecap: butt}</style>
 </defs>
 <g id="figure_1">
  <g id="patch_1">
   <path d="M 0 340.838125 
L 449.02375 340.838125 
L 449.02375 0 
L 0 0 
z
" style="fill: #ffffff"/>
  </g>
  <g id="axes_1">
   <g id="patch_2">
    <path d="M 50.14375 300.96 
L 441.82375 300.96 
L 441.82375 7.2 
L 50.14375 7.2 
z
" style="fill: #ffffff"/>
   </g>
   <g id="FillBetweenPolyCollection_1">
    <path d="M 67.947386 178.849452 
L 67.947386 203.776549 
L 75.188497 200.085867 
L 82.429608 196.449788 
L 89.670718 192.863272 
L 96.911829 189.323547 
L 104.15294 185.828665 
L 111.394051 182.377103 
L 118.635161 178.967584 
L 125.876272 175.598966 
L 133.117383 172.270187 
L 140.358493 168.980216 
L 147.599604 165.728031 
L 154.840715 162.512596 
L 162.081825 159.332858 
L 169.322936 156.187737 
L 176.564047 153.076134 
L 183.805158 149.996928 
L 191.046268 146.948989 
L 198.287379 143.931183 
L 205.52849 140.942385 
L 212.7696 137.981482 
L 220.010711 135.047387 
L 227.251822 132.139045 
L 234.492932 129.255436 
L 241.734043 126.395585 
L 248.975154 123.558563 
L 256.216265 120.74349 
L 263.457375 117.949536 
L 270.698486 115.175922 
L 277.939597 112.421918 
L 285.180707 109.686845 
L 292.421818 106.97007 
L 299.662929 104.271007 
L 306.904039 101.589111 
L 314.14515 98.92388 
L 321.386261 96.274847 
L 328.627372 93.641584 
L 335.868482 91.023693 
L 343.109593 88.42081 
L 350.350704 85.832597 
L 357.591814 83.25874 
L 364.832925 80.698954 
L 372.074036 78.152971 
L 379.315146 75.620545 
L 386.556257 73.101448 
L 393.797368 70.595468 
L 401.038479 68.10241 
L 408.279589 65.622091 
L 415.5207 63.154341 
L 422.761811 60.699001 
L 422.761811 20.552727 
L 422.761811 20.552727 
L 415.5207 23.85275 
L 408.279589 27.152035 
L 401.038479 30.450636 
L 393.797368 33.748601 
L 386.556257 37.045972 
L 379.315146 40.342777 
L 372.074036 43.639039 
L 364.832925 46.934765 
L 357.591814 50.22995 
L 350.350704 53.524575 
L 343.109593 56.818605 
L 335.868482 60.111987 
L 328.627372 63.404647 
L 321.386261 66.696491 
L 314.14515 69.987401 
L 306.904039 73.277232 
L 299.662929 76.565813 
L 292.421818 79.852942 
L 285.180707 83.138386 
L 277.939597 86.421878 
L 270.698486 89.703113 
L 263.457375 92.981754 
L 256.216265 96.257421 
L 248.975154 99.529702 
L 241.734043 102.798141 
L 234.492932 106.062253 
L 227.251822 109.321514 
L 220.010711 112.575373 
L 212.7696 115.823255 
L 205.52849 119.064567 
L 198.287379 122.298708 
L 191.046268 125.525077 
L 183.805158 128.743086 
L 176.564047 131.952171 
L 169.322936 135.151809 
L 162.081825 138.341525 
L 154.840715 141.520911 
L 147.599604 144.689633 
L 140.358493 147.847448 
L 133.117383 150.994206 
L 125.876272 154.12986 
L 118.635161 157.254472 
L 111.394051 160.368214 
L 104.15294 163.471372 
L 96.911829 166.564353 
L 89.670718 169.647704 
L 82.429608 172.722154 
L 75.188497 175.788749 
L 67.947386 178.849452 
z
" clip-path="url(#p84bb95d653)" style="fill: url(#h89b7ed6d0e); stroke: #000000; stroke-opacity: 0.6"/>
   </g>
   <g id="FillBetweenPolyCollection_2">
    <defs>
     <path id="mfb1b66f809" d="M 67.947386 -64.487726 
L 67.947386 -53.230852 
L 75.188497 -56.504888 
L 82.429608 -59.724072 
L 89.670718 -62.89235 
L 96.911829 -66.009678 
L 104.15294 -69.07343 
L 111.394051 -72.078386 
L 118.635161 -75.01651 
L 125.876272 -77.877145 
L 133.117383 -80.648504 
L 140.358493 -83.321146 
L 147.599604 -85.892485 
L 154.840715 -88.3691 
L 162.081825 -90.764595 
L 169.322936 -93.094921 
L 176.564047 -95.374617 
L 183.805158 -97.615262 
L 191.046268 -99.825448 
L 198.287379 -102.011351 
L 205.52849 -104.177362 
L 212.7696 -106.326603 
L 220.010711 -108.461311 
L 227.251822 -110.583098 
L 234.492932 -112.693137 
L 241.734043 -114.792284 
L 248.975154 -116.881168 
L 256.216265 -118.960252 
L 263.457375 -121.029873 
L 270.698486 -123.090276 
L 277.939597 -125.141634 
L 285.180707 -127.184068 
L 292.421818 -129.217656 
L 299.662929 -131.242443 
L 306.904039 -133.25845 
L 314.14515 -135.265678 
L 321.386261 -137.264113 
L 328.627372 -139.253728 
L 335.868482 -141.234489 
L 343.109593 -143.206353 
L 350.350704 -145.169273 
L 357.591814 -147.123198 
L 364.832925 -149.068073 
L 372.074036 -151.003843 
L 379.315146 -152.930451 
L 386.556257 -154.847842 
L 393.797368 -156.755959 
L 401.038479 -158.654746 
L 408.279589 -160.54415 
L 415.5207 -162.424117 
L 422.761811 -164.294598 
L 422.761811 -193.976462 
L 422.761811 -193.976462 
L 415.5207 -191.33041 
L 408.279589 -188.682275 
L 401.038479 -186.031793 
L 393.797368 -183.378691 
L 386.556257 -180.722694 
L 379.315146 -178.063519 
L 372.074036 -175.400879 
L 364.832925 -172.73448 
L 357.591814 -170.064024 
L 350.350704 -167.389209 
L 343.109593 -164.709728 
L 335.868482 -162.025273 
L 328.627372 -159.335529 
L 321.386261 -156.640185 
L 314.14515 -153.938926 
L 306.904039 -151.23144 
L 299.662929 -148.517421 
L 292.421818 -145.796568 
L 285.180707 -143.06859 
L 277.939597 -140.333215 
L 270.698486 -137.59019 
L 263.457375 -134.839295 
L 256.216265 -132.080353 
L 248.975154 -129.313243 
L 241.734043 -126.537927 
L 234.492932 -123.754474 
L 227.251822 -120.963106 
L 220.010711 -118.164257 
L 212.7696 -115.358654 
L 205.52849 -112.547448 
L 198.287379 -109.732388 
L 191.046268 -106.916086 
L 183.805158 -104.102396 
L 176.564047 -101.296921 
L 169.322936 -98.50765 
L 162.081825 -95.745514 
L 154.840715 -93.024361 
L 147.599604 -90.359396 
L 140.358493 -87.763413 
L 133.117383 -85.242107 
L 125.876272 -82.791913 
L 118.635161 -80.402301 
L 111.394051 -78.060247 
L 104.15294 -75.753668 
L 96.911829 -73.472843 
L 89.670718 -71.210483 
L 82.429608 -68.961284 
L 75.188497 -66.721383 
L 67.947386 -64.487726 
z
" style="stroke: #ec5d57; stroke-opacity: 0.4"/>
    </defs>
    <g clip-path="url(#p84bb95d653)">
     <use xlink:href="#mfb1b66f809" x="0" y="340.838125" style="fill: #ec5d57; fill-opacity: 0.4; stroke: #ec5d57; stroke-opacity: 0.4"/>
    </g>
   </g>
   <g id="FillBetweenPolyCollection_3">
    <defs>
     <path id="mb0d27f6929" d="M 67.947386 -87.93343 
L 67.947386 -79.092577 
L 75.188497 -82.493523 
L 82.429608 -85.817325 
L 89.670718 -89.062601 
L 96.911829 -92.223578 
L 104.15294 -95.293207 
L 111.394051 -98.26593 
L 118.635161 -101.140614 
L 125.876272 -103.92225 
L 133.117383 -106.621218 
L 140.358493 -109.250665 
L 147.599604 -111.823749 
L 154.840715 -114.351924 
L 162.081825 -116.844377 
L 169.322936 -119.30814 
L 176.564047 -121.748471 
L 183.805158 -124.169267 
L 191.046268 -126.573407 
L 198.287379 -128.963026 
L 205.52849 -131.339714 
L 212.7696 -133.704657 
L 220.010711 -136.058746 
L 227.251822 -138.402647 
L 234.492932 -140.73686 
L 241.734043 -143.061759 
L 248.975154 -145.377616 
L 256.216265 -147.684631 
L 263.457375 -149.982942 
L 270.698486 -152.272641 
L 277.939597 -154.553784 
L 285.180707 -156.826396 
L 292.421818 -159.090482 
L 299.662929 -161.346025 
L 306.904039 -163.592994 
L 314.14515 -165.831349 
L 321.386261 -168.061038 
L 328.627372 -170.282004 
L 335.868482 -172.494181 
L 343.109593 -174.697505 
L 350.350704 -176.891903 
L 357.591814 -179.077304 
L 364.832925 -181.253635 
L 372.074036 -183.420823 
L 379.315146 -185.578795 
L 386.556257 -187.727479 
L 393.797368 -189.866804 
L 401.038479 -191.9967 
L 408.279589 -194.117102 
L 415.5207 -196.227943 
L 422.761811 -198.329162 
L 422.761811 -230.191145 
L 422.761811 -230.191145 
L 415.5207 -227.349277 
L 408.279589 -224.505426 
L 401.038479 -221.659318 
L 393.797368 -218.810667 
L 386.556257 -215.959186 
L 379.315146 -213.104576 
L 372.074036 -210.246537 
L 364.832925 -207.38476 
L 357.591814 -204.518929 
L 350.350704 -201.648726 
L 343.109593 -198.773823 
L 335.868482 -195.893892 
L 328.627372 -193.008596 
L 321.386261 -190.117597 
L 314.14515 -187.220554 
L 306.904039 -184.317123 
L 299.662929 -181.406959 
L 292.421818 -178.489719 
L 285.180707 -175.565063 
L 277.939597 -172.632655 
L 270.698486 -169.692169 
L 263.457375 -166.74329 
L 256.216265 -163.785722 
L 248.975154 -160.819194 
L 241.734043 -157.843467 
L 234.492932 -154.858347 
L 227.251822 -151.863701 
L 220.010711 -148.859477 
L 212.7696 -145.845733 
L 205.52849 -142.822671 
L 198.287379 -139.790697 
L 191.046268 -136.750486 
L 183.805158 -133.703089 
L 176.564047 -130.65007 
L 169.322936 -127.593704 
L 162.081825 -124.53724 
L 154.840715 -121.485247 
L 147.599604 -118.444009 
L 140.358493 -115.421903 
L 133.117383 -112.4295 
L 125.876272 -109.478977 
L 118.635161 -106.582395 
L 111.394051 -103.748895 
L 104.15294 -100.982043 
L 96.911829 -98.279018 
L 89.670718 -95.632197 
L 82.429608 -93.031852 
L 75.188497 -90.468391 
L 67.947386 -87.93343 
z
" style="stroke: #70bf41; stroke-opacity: 0.4"/>
    </defs>
    <g clip-path="url(#p84bb95d653)">
     <use xlink:href="#mb0d27f6929" x="0" y="340.838125" style="fill: #70bf41; fill-opacity: 0.4; stroke: #70bf41; stroke-opacity: 0.4"/>
    </g>
   </g>
   <g id="FillBetweenPolyCollection_4">
    <defs>
     <path id="me0a7ab1314" d="M 67.947386 -117.528962 
L 67.947386 -105.348731 
L 75.188497 -108.878385 
L 82.429608 -112.336056 
L 89.670718 -115.724776 
L 96.911829 -119.04496 
L 104.15294 -122.296451 
L 111.394051 -125.47936 
L 118.635161 -128.594601 
L 125.876272 -131.644217 
L 133.117383 -134.631442 
L 140.358493 -137.560543 
L 147.599604 -140.436486 
L 154.840715 -143.264548 
L 162.081825 -146.049958 
L 169.322936 -148.797629 
L 176.564047 -151.511996 
L 183.805158 -154.19695 
L 191.046268 -156.85583 
L 198.287379 -159.491457 
L 205.52849 -162.106192 
L 212.7696 -164.701999 
L 220.010711 -167.280501 
L 227.251822 -169.843037 
L 234.492932 -172.390712 
L 241.734043 -174.924434 
L 248.975154 -177.444951 
L 256.216265 -179.952879 
L 263.457375 -182.448723 
L 270.698486 -184.932896 
L 277.939597 -187.405741 
L 285.180707 -189.867534 
L 292.421818 -192.318501 
L 299.662929 -194.758826 
L 306.904039 -197.188658 
L 314.14515 -199.608113 
L 321.386261 -202.017286 
L 328.627372 -204.416248 
L 335.868482 -206.805055 
L 343.109593 -209.183748 
L 350.350704 -211.552357 
L 357.591814 -213.9109 
L 364.832925 -216.25939 
L 372.074036 -218.597831 
L 379.315146 -220.926223 
L 386.556257 -223.244562 
L 393.797368 -225.55284 
L 401.038479 -227.851047 
L 408.279589 -230.139171 
L 415.5207 -232.417199 
L 422.761811 -234.685118 
L 422.761811 -268.668787 
L 422.761811 -268.668787 
L 415.5207 -265.606992 
L 408.279589 -262.54367 
L 401.038479 -259.478593 
L 393.797368 -256.41153 
L 386.556257 -253.342247 
L 379.315146 -250.270508 
L 372.074036 -247.196071 
L 364.832925 -244.118698 
L 357.591814 -241.038146 
L 350.350704 -237.954173 
L 343.109593 -234.866537 
L 335.868482 -231.775001 
L 328.627372 -228.679327 
L 321.386261 -225.579287 
L 314.14515 -222.474657 
L 306.904039 -219.365225 
L 299.662929 -216.250789 
L 292.421818 -213.131167 
L 285.180707 -210.006197 
L 277.939597 -206.875741 
L 270.698486 -203.739697 
L 263.457375 -200.598002 
L 256.216265 -197.450644 
L 248.975154 -194.297674 
L 241.734043 -191.139221 
L 234.492932 -187.975507 
L 227.251822 -184.806874 
L 220.010711 -181.633804 
L 212.7696 -178.456961 
L 205.52849 -175.277219 
L 198.287379 -172.095717 
L 191.046268 -168.913906 
L 183.805158 -165.733609 
L 176.564047 -162.557079 
L 169.322936 -159.387047 
L 162.081825 -156.226758 
L 154.840715 -153.079956 
L 147.599604 -149.950809 
L 140.358493 -146.843734 
L 133.117383 -143.763124 
L 125.876272 -140.712968 
L 118.635161 -137.696441 
L 111.394051 -134.715544 
L 104.15294 -131.770891 
L 96.911829 -128.861711 
L 89.670718 -125.986047 
L 82.429608 -123.141065 
L 75.188497 -120.32336 
L 67.947386 -117.528962 
z
" style="stroke: #51a7f9; stroke-opacity: 0.4"/>
    </defs>
    <g clip-path="url(#p84bb95d653)">
     <use xlink:href="#me0a7ab1314" x="0" y="340.838125" style="fill: #51a7f9; fill-opacity: 0.4; stroke: #51a7f9; stroke-opacity: 0.4"/>
    </g>
   </g>
   <g id="FillBetweenPolyCollection_5">
    <defs>
     <path id="ma6ad76a900" d="M 67.947386 -141.484606 
L 67.947386 -123.311813 
L 75.188497 -126.931838 
L 82.429608 -130.490625 
L 89.670718 -133.992946 
L 96.911829 -137.441187 
L 104.15294 -140.836934 
L 111.394051 -144.181445 
L 118.635161 -147.47588 
L 125.876272 -150.721442 
L 133.117383 -153.919461 
L 140.358493 -157.071437 
L 147.599604 -160.179054 
L 154.840715 -163.244167 
L 162.081825 -166.268775 
L 169.322936 -169.254973 
L 176.564047 -172.204905 
L 183.805158 -175.120718 
L 191.046268 -178.004511 
L 198.287379 -180.858308 
L 205.52849 -183.684024 
L 212.7696 -186.483446 
L 220.010711 -189.258228 
L 227.251822 -192.009883 
L 234.492932 -194.739781 
L 241.734043 -197.449162 
L 248.975154 -200.139136 
L 256.216265 -202.810696 
L 263.457375 -205.464726 
L 270.698486 -208.10201 
L 277.939597 -210.723245 
L 285.180707 -213.329049 
L 292.421818 -215.919966 
L 299.662929 -218.496479 
L 306.904039 -221.059015 
L 314.14515 -223.60795 
L 321.386261 -226.14362 
L 328.627372 -228.66632 
L 335.868482 -231.17631 
L 343.109593 -233.673824 
L 350.350704 -236.159067 
L 357.591814 -238.632224 
L 364.832925 -241.093456 
L 372.074036 -243.542911 
L 379.315146 -245.980719 
L 386.556257 -248.406997 
L 393.797368 -250.82185 
L 401.038479 -253.225374 
L 408.279589 -255.617655 
L 415.5207 -257.99877 
L 422.761811 -260.368793 
L 422.761811 -296.964103 
L 422.761811 -296.964103 
L 415.5207 -293.758769 
L 408.279589 -290.552871 
L 401.038479 -287.346267 
L 393.797368 -284.138818 
L 386.556257 -280.930387 
L 379.315146 -277.720843 
L 372.074036 -274.510058 
L 364.832925 -271.297915 
L 357.591814 -268.084301 
L 350.350704 -264.869116 
L 343.109593 -261.65227 
L 335.868482 -258.433689 
L 328.627372 -255.213314 
L 321.386261 -251.991105 
L 314.14515 -248.767047 
L 306.904039 -245.541149 
L 299.662929 -242.313452 
L 292.421818 -239.084031 
L 285.180707 -235.853003 
L 277.939597 -232.620532 
L 270.698486 -229.386831 
L 263.457375 -226.152179 
L 256.216265 -222.91692 
L 248.975154 -219.681475 
L 241.734043 -216.446351 
L 234.492932 -213.212148 
L 227.251822 -209.979569 
L 220.010711 -206.74943 
L 212.7696 -203.522658 
L 205.52849 -200.300303 
L 198.287379 -197.083531 
L 191.046268 -193.873622 
L 183.805158 -190.67195 
L 176.564047 -187.479967 
L 169.322936 -184.299171 
L 162.081825 -181.131059 
L 154.840715 -177.977085 
L 147.599604 -174.838597 
L 140.358493 -171.716785 
L 133.117383 -168.612619 
L 125.876272 -165.526806 
L 118.635161 -162.459755 
L 111.394051 -159.411559 
L 104.15294 -156.381996 
L 96.911829 -153.37054 
L 89.670718 -150.376381 
L 82.429608 -147.398427 
L 75.188497 -144.435245 
L 67.947386 -141.484606 
z
" style="stroke: #6a5acd; stroke-opacity: 0.4"/>
    </defs>
    <g clip-path="url(#p84bb95d653)">
     <use xlink:href="#ma6ad76a900" x="0" y="340.838125" style="fill: #6a5acd; fill-opacity: 0.4; stroke: #6a5acd; stroke-opacity: 0.4"/>
    </g>
   </g>
   <g id="matplotlib.axis_1">
    <g id="xtick_1">
     <g id="line2d_1">
      <defs>
       <path id="m0adc7565fe" d="M 0 0 
L 0 3.5 
" style="stroke: #000000; stroke-width: 0.8"/>
      </defs>
      <g>
       <use xlink:href="#m0adc7565fe" x="67.561972" y="300.96" style="stroke: #000000; stroke-width: 0.8"/>
      </g>
     </g>
     <g id="text_1">
      <!-- 0.00 -->
      <g transform="translate(56.42916 315.558437) scale(0.1 -0.1)">
       <defs>
        <path id="DejaVuSans-30" d="M 2034 4250 
Q 1547 4250 1301 3770 
Q 1056 3291 1056 2328 
Q 1056 1369 1301 889 
Q 1547 409 2034 409 
Q 2525 409 2770 889 
Q 3016 1369 3016 2328 
Q 3016 3291 2770 3770 
Q 2525 4250 2034 4250 
z
M 2034 4750 
Q 2819 4750 3233 4129 
Q 3647 3509 3647 2328 
Q 3647 1150 3233 529 
Q 2819 -91 2034 -91 
Q 1250 -91 836 529 
Q 422 1150 422 2328 
Q 422 3509 836 4129 
Q 1250 4750 2034 4750 
z
" transform="scale(0.015625)"/>
        <path id="DejaVuSans-2e" d="M 684 794 
L 1344 794 
L 1344 0 
L 684 0 
L 684 794 
z
" transform="scale(0.015625)"/>
       </defs>
       <use xlink:href="#DejaVuSans-30"/>
       <use xlink:href="#DejaVuSans-2e" transform="translate(63.623047 0)"/>
       <use xlink:href="#DejaVuSans-30" transform="translate(95.410156 0)"/>
       <use xlink:href="#DejaVuSans-30" transform="translate(159.033203 0)"/>
      </g>
     </g>
    </g>
    <g id="xtick_2">
     <g id="line2d_2">
      <g>
       <use xlink:href="#m0adc7565fe" x="144.644753" y="300.96" style="stroke: #000000; stroke-width: 0.8"/>
      </g>
     </g>
     <g id="text_2">
      <!-- 0.02 -->
      <g transform="translate(133.51194 315.558437) scale(0.1 -0.1)">
       <defs>
        <path id="DejaVuSans-32" d="M 1228 531 
L 3431 531 
L 3431 0 
L 469 0 
L 469 531 
Q 828 903 1448 1529 
Q 2069 2156 2228 2338 
Q 2531 2678 2651 2914 
Q 2772 3150 2772 3378 
Q 2772 3750 2511 3984 
Q 2250 4219 1831 4219 
Q 1534 4219 1204 4116 
Q 875 4013 500 3803 
L 500 4441 
Q 881 4594 1212 4672 
Q 1544 4750 1819 4750 
Q 2544 4750 2975 4387 
Q 3406 4025 3406 3419 
Q 3406 3131 3298 2873 
Q 3191 2616 2906 2266 
Q 2828 2175 2409 1742 
Q 1991 1309 1228 531 
z
" transform="scale(0.015625)"/>
       </defs>
       <use xlink:href="#DejaVuSans-30"/>
       <use xlink:href="#DejaVuSans-2e" transform="translate(63.623047 0)"/>
       <use xlink:href="#DejaVuSans-30" transform="translate(95.410156 0)"/>
       <use xlink:href="#DejaVuSans-32" transform="translate(159.033203 0)"/>
      </g>
     </g>
    </g>
    <g id="xtick_3">
     <g id="line2d_3">
      <g>
       <use xlink:href="#m0adc7565fe" x="221.727533" y="300.96" style="stroke: #000000; stroke-width: 0.8"/>
      </g>
     </g>
     <g id="text_3">
      <!-- 0.04 -->
      <g transform="translate(210.594721 315.558437) scale(0.1 -0.1)">
       <defs>
        <path id="DejaVuSans-34" d="M 2419 4116 
L 825 1625 
L 2419 1625 
L 2419 4116 
z
M 2253 4666 
L 3047 4666 
L 3047 1625 
L 3713 1625 
L 3713 1100 
L 3047 1100 
L 3047 0 
L 2419 0 
L 2419 1100 
L 313 1100 
L 313 1709 
L 2253 4666 
z
" transform="scale(0.015625)"/>
       </defs>
       <use xlink:href="#DejaVuSans-30"/>
       <use xlink:href="#DejaVuSans-2e" transform="translate(63.623047 0)"/>
       <use xlink:href="#DejaVuSans-30" transform="translate(95.410156 0)"/>
       <use xlink:href="#DejaVuSans-34" transform="translate(159.033203 0)"/>
      </g>
     </g>
    </g>
    <g id="xtick_4">
     <g id="line2d_4">
      <g>
       <use xlink:href="#m0adc7565fe" x="298.810314" y="300.96" style="stroke: #000000; stroke-width: 0.8"/>
      </g>
     </g>
     <g id="text_4">
      <!-- 0.06 -->
      <g transform="translate(287.677501 315.558437) scale(0.1 -0.1)">
       <defs>
        <path id="DejaVuSans-36" d="M 2113 2584 
Q 1688 2584 1439 2293 
Q 1191 2003 1191 1497 
Q 1191 994 1439 701 
Q 1688 409 2113 409 
Q 2538 409 2786 701 
Q 3034 994 3034 1497 
Q 3034 2003 2786 2293 
Q 2538 2584 2113 2584 
z
M 3366 4563 
L 3366 3988 
Q 3128 4100 2886 4159 
Q 2644 4219 2406 4219 
Q 1781 4219 1451 3797 
Q 1122 3375 1075 2522 
Q 1259 2794 1537 2939 
Q 1816 3084 2150 3084 
Q 2853 3084 3261 2657 
Q 3669 2231 3669 1497 
Q 3669 778 3244 343 
Q 2819 -91 2113 -91 
Q 1303 -91 875 529 
Q 447 1150 447 2328 
Q 447 3434 972 4092 
Q 1497 4750 2381 4750 
Q 2619 4750 2861 4703 
Q 3103 4656 3366 4563 
z
" transform="scale(0.015625)"/>
       </defs>
       <use xlink:href="#DejaVuSans-30"/>
       <use xlink:href="#DejaVuSans-2e" transform="translate(63.623047 0)"/>
       <use xlink:href="#DejaVuSans-30" transform="translate(95.410156 0)"/>
       <use xlink:href="#DejaVuSans-36" transform="translate(159.033203 0)"/>
      </g>
     </g>
    </g>
    <g id="xtick_5">
     <g id="line2d_5">
      <g>
       <use xlink:href="#m0adc7565fe" x="375.893094" y="300.96" style="stroke: #000000; stroke-width: 0.8"/>
      </g>
     </g>
     <g id="text_5">
      <!-- 0.08 -->
      <g transform="translate(364.760282 315.558437) scale(0.1 -0.1)">
       <defs>
        <path id="DejaVuSans-38" d="M 2034 2216 
Q 1584 2216 1326 1975 
Q 1069 1734 1069 1313 
Q 1069 891 1326 650 
Q 1584 409 2034 409 
Q 2484 409 2743 651 
Q 3003 894 3003 1313 
Q 3003 1734 2745 1975 
Q 2488 2216 2034 2216 
z
M 1403 2484 
Q 997 2584 770 2862 
Q 544 3141 544 3541 
Q 544 4100 942 4425 
Q 1341 4750 2034 4750 
Q 2731 4750 3128 4425 
Q 3525 4100 3525 3541 
Q 3525 3141 3298 2862 
Q 3072 2584 2669 2484 
Q 3125 2378 3379 2068 
Q 3634 1759 3634 1313 
Q 3634 634 3220 271 
Q 2806 -91 2034 -91 
Q 1263 -91 848 271 
Q 434 634 434 1313 
Q 434 1759 690 2068 
Q 947 2378 1403 2484 
z
M 1172 3481 
Q 1172 3119 1398 2916 
Q 1625 2713 2034 2713 
Q 2441 2713 2670 2916 
Q 2900 3119 2900 3481 
Q 2900 3844 2670 4047 
Q 2441 4250 2034 4250 
Q 1625 4250 1398 4047 
Q 1172 3844 1172 3481 
z
" transform="scale(0.015625)"/>
       </defs>
       <use xlink:href="#DejaVuSans-30"/>
       <use xlink:href="#DejaVuSans-2e" transform="translate(63.623047 0)"/>
       <use xlink:href="#DejaVuSans-30" transform="translate(95.410156 0)"/>
       <use xlink:href="#DejaVuSans-38" transform="translate(159.033203 0)"/>
      </g>
     </g>
    </g>
    <g id="text_6">
     <!-- $l^2_F = m_\pi^2 / (4 \pi F_\pi)^2$ -->
     <g transform="translate(208.93375 330.738125) scale(0.1 -0.1)">
      <defs>
       <path id="DejaVuSans-Oblique-6c" d="M 1172 4863 
L 1747 4863 
L 800 0 
L 225 0 
L 1172 4863 
z
" transform="scale(0.015625)"/>
       <path id="DejaVuSans-Oblique-46" d="M 1081 4666 
L 3756 4666 
L 3653 4134 
L 1606 4134 
L 1338 2759 
L 3188 2759 
L 3084 2228 
L 1234 2228 
L 800 0 
L 172 0 
L 1081 4666 
z
" transform="scale(0.015625)"/>
       <path id="DejaVuSans-3d" d="M 678 2906 
L 4684 2906 
L 4684 2381 
L 678 2381 
L 678 2906 
z
M 678 1631 
L 4684 1631 
L 4684 1100 
L 678 1100 
L 678 1631 
z
" transform="scale(0.015625)"/>
       <path id="DejaVuSans-Oblique-6d" d="M 5747 2113 
L 5338 0 
L 4763 0 
L 5166 2094 
Q 5191 2228 5203 2325 
Q 5216 2422 5216 2491 
Q 5216 2772 5059 2928 
Q 4903 3084 4622 3084 
Q 4203 3084 3875 2770 
Q 3547 2456 3450 1953 
L 3066 0 
L 2491 0 
L 2900 2094 
Q 2925 2209 2937 2307 
Q 2950 2406 2950 2484 
Q 2950 2769 2794 2926 
Q 2638 3084 2363 3084 
Q 1938 3084 1609 2770 
Q 1281 2456 1184 1953 
L 800 0 
L 225 0 
L 909 3500 
L 1484 3500 
L 1375 2956 
Q 1609 3263 1923 3423 
Q 2238 3584 2597 3584 
Q 2978 3584 3223 3384 
Q 3469 3184 3519 2828 
Q 3781 3197 4126 3390 
Q 4472 3584 4856 3584 
Q 5306 3584 5551 3325 
Q 5797 3066 5797 2591 
Q 5797 2488 5784 2364 
Q 5772 2241 5747 2113 
z
" transform="scale(0.015625)"/>
       <path id="DejaVuSans-Oblique-3c0" d="M 584 3500 
L 3938 3500 
L 3825 2925 
L 3384 2925 
L 2966 775 
Q 2922 550 2981 450 
Q 3038 353 3209 353 
Q 3256 353 3325 363 
Q 3397 369 3419 372 
L 3338 -44 
Q 3222 -84 3103 -103 
Q 2981 -122 2866 -122 
Q 2491 -122 2388 81 
Q 2284 288 2391 838 
L 2797 2925 
L 1506 2925 
L 938 0 
L 350 0 
L 919 2925 
L 472 2925 
L 584 3500 
z
" transform="scale(0.015625)"/>
       <path id="DejaVuSans-2f" d="M 1625 4666 
L 2156 4666 
L 531 -594 
L 0 -594 
L 1625 4666 
z
" transform="scale(0.015625)"/>
       <path id="DejaVuSans-28" d="M 1984 4856 
Q 1566 4138 1362 3434 
Q 1159 2731 1159 2009 
Q 1159 1288 1364 580 
Q 1569 -128 1984 -844 
L 1484 -844 
Q 1016 -109 783 600 
Q 550 1309 550 2009 
Q 550 2706 781 3412 
Q 1013 4119 1484 4856 
L 1984 4856 
z
" transform="scale(0.015625)"/>
       <path id="DejaVuSans-29" d="M 513 4856 
L 1013 4856 
Q 1481 4119 1714 3412 
Q 1947 2706 1947 2009 
Q 1947 1309 1714 600 
Q 1481 -109 1013 -844 
L 513 -844 
Q 928 -128 1133 580 
Q 1338 1288 1338 2009 
Q 1338 2731 1133 3434 
Q 928 4138 513 4856 
z
" transform="scale(0.015625)"/>
      </defs>
      <use xlink:href="#DejaVuSans-Oblique-6c" transform="translate(0 0.765625)"/>
      <use xlink:href="#DejaVuSans-32" transform="translate(35.230911 39.046875) scale(0.7)"/>
      <use xlink:href="#DejaVuSans-Oblique-46" transform="translate(27.783203 -26.578125) scale(0.7)"/>
      <use xlink:href="#DejaVuSans-3d" transform="translate(101.983841 0.765625)"/>
      <use xlink:href="#DejaVuSans-Oblique-6d" transform="translate(205.255326 0.765625)"/>
      <use xlink:href="#DejaVuSans-32" transform="translate(307.317331 39.046875) scale(0.7)"/>
      <use xlink:href="#DejaVuSans-Oblique-3c0" transform="translate(302.667435 -26.578125) scale(0.7)"/>
      <use xlink:href="#DejaVuSans-2f" transform="translate(354.587839 0.765625)"/>
      <use xlink:href="#DejaVuSans-28" transform="translate(388.279245 0.765625)"/>
      <use xlink:href="#DejaVuSans-34" transform="translate(427.292917 0.765625)"/>
      <use xlink:href="#DejaVuSans-Oblique-3c0" transform="translate(490.915964 0.765625)"/>
      <use xlink:href="#DejaVuSans-Oblique-46" transform="translate(551.121042 0.765625)"/>
      <use xlink:href="#DejaVuSans-Oblique-3c0" transform="translate(608.640573 -15.640625) scale(0.7)"/>
      <use xlink:href="#DejaVuSans-29" transform="translate(653.518503 0.765625)"/>
      <use xlink:href="#DejaVuSans-32" transform="translate(693.489206 39.046875) scale(0.7)"/>
     </g>
    </g>
   </g>
   <g id="matplotlib.axis_2">
    <g id="ytick_1">
     <g id="line2d_6">
      <defs>
       <path id="mae19ef1a7a" d="M 0 0 
L -3.5 0 
" style="stroke: #000000; stroke-width: 0.8"/>
      </defs>
      <g>
       <use xlink:href="#mae19ef1a7a" x="50.14375" y="293.476911" style="stroke: #000000; stroke-width: 0.8"/>
      </g>
     </g>
     <g id="text_7">
      <!-- 1.35 -->
      <g transform="translate(20.878125 297.27613) scale(0.1 -0.1)">
       <defs>
        <path id="DejaVuSans-31" d="M 794 531 
L 1825 531 
L 1825 4091 
L 703 3866 
L 703 4441 
L 1819 4666 
L 2450 4666 
L 2450 531 
L 3481 531 
L 3481 0 
L 794 0 
L 794 531 
z
" transform="scale(0.015625)"/>
        <path id="DejaVuSans-33" d="M 2597 2516 
Q 3050 2419 3304 2112 
Q 3559 1806 3559 1356 
Q 3559 666 3084 287 
Q 2609 -91 1734 -91 
Q 1441 -91 1130 -33 
Q 819 25 488 141 
L 488 750 
Q 750 597 1062 519 
Q 1375 441 1716 441 
Q 2309 441 2620 675 
Q 2931 909 2931 1356 
Q 2931 1769 2642 2001 
Q 2353 2234 1838 2234 
L 1294 2234 
L 1294 2753 
L 1863 2753 
Q 2328 2753 2575 2939 
Q 2822 3125 2822 3475 
Q 2822 3834 2567 4026 
Q 2313 4219 1838 4219 
Q 1578 4219 1281 4162 
Q 984 4106 628 3988 
L 628 4550 
Q 988 4650 1302 4700 
Q 1616 4750 1894 4750 
Q 2613 4750 3031 4423 
Q 3450 4097 3450 3541 
Q 3450 3153 3228 2886 
Q 3006 2619 2597 2516 
z
" transform="scale(0.015625)"/>
        <path id="DejaVuSans-35" d="M 691 4666 
L 3169 4666 
L 3169 4134 
L 1269 4134 
L 1269 2991 
Q 1406 3038 1543 3061 
Q 1681 3084 1819 3084 
Q 2600 3084 3056 2656 
Q 3513 2228 3513 1497 
Q 3513 744 3044 326 
Q 2575 -91 1722 -91 
Q 1428 -91 1123 -41 
Q 819 9 494 109 
L 494 744 
Q 775 591 1075 516 
Q 1375 441 1709 441 
Q 2250 441 2565 725 
Q 2881 1009 2881 1497 
Q 2881 1984 2565 2268 
Q 2250 2553 1709 2553 
Q 1456 2553 1204 2497 
Q 953 2441 691 2322 
L 691 4666 
z
" transform="scale(0.015625)"/>
       </defs>
       <use xlink:href="#DejaVuSans-31"/>
       <use xlink:href="#DejaVuSans-2e" transform="translate(63.623047 0)"/>
       <use xlink:href="#DejaVuSans-33" transform="translate(95.410156 0)"/>
       <use xlink:href="#DejaVuSans-35" transform="translate(159.033203 0)"/>
      </g>
     </g>
    </g>
    <g id="ytick_2">
     <g id="line2d_7">
      <g>
       <use xlink:href="#mae19ef1a7a" x="50.14375" y="229.998713" style="stroke: #000000; stroke-width: 0.8"/>
      </g>
     </g>
     <g id="text_8">
      <!-- 1.40 -->
      <g transform="translate(20.878125 233.797932) scale(0.1 -0.1)">
       <use xlink:href="#DejaVuSans-31"/>
       <use xlink:href="#DejaVuSans-2e" transform="translate(63.623047 0)"/>
       <use xlink:href="#DejaVuSans-34" transform="translate(95.410156 0)"/>
       <use xlink:href="#DejaVuSans-30" transform="translate(159.033203 0)"/>
      </g>
     </g>
    </g>
    <g id="ytick_3">
     <g id="line2d_8">
      <g>
       <use xlink:href="#mae19ef1a7a" x="50.14375" y="166.520516" style="stroke: #000000; stroke-width: 0.8"/>
      </g>
     </g>
     <g id="text_9">
      <!-- 1.45 -->
      <g transform="translate(20.878125 170.319735) scale(0.1 -0.1)">
       <use xlink:href="#DejaVuSans-31"/>
       <use xlink:href="#DejaVuSans-2e" transform="translate(63.623047 0)"/>
       <use xlink:href="#DejaVuSans-34" transform="translate(95.410156 0)"/>
       <use xlink:href="#DejaVuSans-35" transform="translate(159.033203 0)"/>
      </g>
     </g>
    </g>
    <g id="ytick_4">
     <g id="line2d_9">
      <g>
       <use xlink:href="#mae19ef1a7a" x="50.14375" y="103.042318" style="stroke: #000000; stroke-width: 0.8"/>
      </g>
     </g>
     <g id="text_10">
      <!-- 1.50 -->
      <g transform="translate(20.878125 106.841537) scale(0.1 -0.1)">
       <use xlink:href="#DejaVuSans-31"/>
       <use xlink:href="#DejaVuSans-2e" transform="translate(63.623047 0)"/>
       <use xlink:href="#DejaVuSans-35" transform="translate(95.410156 0)"/>
       <use xlink:href="#DejaVuSans-30" transform="translate(159.033203 0)"/>
      </g>
     </g>
    </g>
    <g id="ytick_5">
     <g id="line2d_10">
      <g>
       <use xlink:href="#mae19ef1a7a" x="50.14375" y="39.56412" style="stroke: #000000; stroke-width: 0.8"/>
      </g>
     </g>
     <g id="text_11">
      <!-- 1.55 -->
      <g transform="translate(20.878125 43.363339) scale(0.1 -0.1)">
       <use xlink:href="#DejaVuSans-31"/>
       <use xlink:href="#DejaVuSans-2e" transform="translate(63.623047 0)"/>
       <use xlink:href="#DejaVuSans-35" transform="translate(95.410156 0)"/>
       <use xlink:href="#DejaVuSans-35" transform="translate(159.033203 0)"/>
      </g>
     </g>
    </g>
    <g id="text_12">
     <!-- $w_0 m_\Omega$ -->
     <g transform="translate(14.798437 168.23) rotate(-90) scale(0.1 -0.1)">
      <defs>
       <path id="DejaVuSans-Oblique-77" d="M 544 3500 
L 1113 3500 
L 1259 684 
L 2566 3500 
L 3231 3500 
L 3425 684 
L 4666 3500 
L 5241 3500 
L 3641 0 
L 2969 0 
L 2797 2900 
L 1459 0 
L 781 0 
L 544 3500 
z
" transform="scale(0.015625)"/>
       <path id="DejaVuSans-3a9" d="M 4647 556 
L 4647 0 
L 2772 0 
L 2772 556 
Q 3325 859 3634 1378 
Q 3944 1897 3944 2528 
Q 3944 3278 3531 3731 
Q 3119 4184 2444 4184 
Q 1769 4184 1355 3729 
Q 941 3275 941 2528 
Q 941 1897 1250 1378 
Q 1563 859 2119 556 
L 2119 0 
L 244 0 
L 244 556 
L 1241 556 
Q 747 991 519 1456 
Q 294 1922 294 2497 
Q 294 3491 894 4106 
Q 1491 4722 2444 4722 
Q 3391 4722 3994 4106 
Q 4594 3494 4594 2528 
Q 4594 1922 4372 1459 
Q 4150 997 3647 556 
L 4647 556 
z
" transform="scale(0.015625)"/>
      </defs>
      <use xlink:href="#DejaVuSans-Oblique-77"/>
      <use xlink:href="#DejaVuSans-30" transform="translate(81.787109 -16.40625) scale(0.7)"/>
      <use xlink:href="#DejaVuSans-Oblique-6d" transform="translate(129.057617 0)"/>
      <use xlink:href="#DejaVuSans-3a9" transform="translate(226.469727 -16.40625) scale(0.7)"/>
     </g>
    </g>
   </g>
   <g id="line2d_11">
    <path d="M 119.799686 300.96 
L 119.799686 7.2 
" clip-path="url(#p84bb95d653)" style="fill: none; stroke-dasharray: 5.55,2.4; stroke-dashoffset: 0; stroke: #1f77b4; stroke-width: 1.5"/>
   </g>
   <g id="line2d_12">
    <path d="M 119.799686 300.96 
L 119.799686 7.2 
" clip-path="url(#p84bb95d653)" style="fill: none; stroke-dasharray: 5.55,2.4; stroke-dashoffset: 0; stroke: #1f77b4; stroke-width: 1.5"/>
   </g>
   <g id="line2d_13">
    <path d="M 119.799686 300.96 
L 119.799686 7.2 
" clip-path="url(#p84bb95d653)" style="fill: none; stroke-dasharray: 5.55,2.4; stroke-dashoffset: 0; stroke: #1f77b4; stroke-width: 1.5"/>
   </g>
   <g id="line2d_14">
    <path d="M 119.799686 300.96 
L 119.799686 7.2 
" clip-path="url(#p84bb95d653)" style="fill: none; stroke-dasharray: 5.55,2.4; stroke-dashoffset: 0; stroke: #1f77b4; stroke-width: 1.5"/>
   </g>
   <g id="line2d_15">
    <path d="M 119.799686 300.96 
L 119.799686 7.2 
" clip-path="url(#p84bb95d653)" style="fill: none; stroke-dasharray: 5.55,2.4; stroke-dashoffset: 0; stroke: #1f77b4; stroke-width: 1.5"/>
   </g>
   <g id="line2d_16">
    <path d="M 424.020114 170.340096 
L 421.503508 170.341213 
" clip-path="url(#p84bb95d653)" style="fill: none; stroke: #ec5d57; stroke-width: 2; stroke-linecap: square"/>
   </g>
   <g id="line2d_17">
    <path d="M 422.698571 154.889651 
L 422.82505 185.791658 
" clip-path="url(#p84bb95d653)" style="fill: none; stroke: #ec5d57; stroke-width: 2; stroke-linecap: square"/>
   </g>
   <g id="line2d_18">
    <path d="M 357.887169 192.000466 
L 355.72459 192.002111 
" clip-path="url(#p84bb95d653)" style="fill: none; stroke: #ec5d57; stroke-width: 2; stroke-linecap: square"/>
   </g>
   <g id="line2d_19">
    <path d="M 356.722416 180.1016 
L 356.889344 203.900977 
" clip-path="url(#p84bb95d653)" style="fill: none; stroke: #ec5d57; stroke-width: 2; stroke-linecap: square"/>
   </g>
   <g id="line2d_20">
    <path d="M 300.383519 198.869302 
L 298.599725 198.870687 
" clip-path="url(#p84bb95d653)" style="fill: none; stroke: #ec5d57; stroke-width: 2; stroke-linecap: square"/>
   </g>
   <g id="line2d_21">
    <path d="M 299.425431 189.618182 
L 299.557813 208.121806 
" clip-path="url(#p84bb95d653)" style="fill: none; stroke: #ec5d57; stroke-width: 2; stroke-linecap: square"/>
   </g>
   <g id="line2d_22">
    <path d="M 308.059155 198.862518 
L 306.739457 198.863057 
" clip-path="url(#p84bb95d653)" style="fill: none; stroke: #ec5d57; stroke-width: 2; stroke-linecap: square"/>
   </g>
   <g id="line2d_23">
    <path d="M 307.361395 188.807807 
L 307.437218 208.917768 
" clip-path="url(#p84bb95d653)" style="fill: none; stroke: #ec5d57; stroke-width: 2; stroke-linecap: square"/>
   </g>
   <g id="line2d_24">
    <path d="M 193.967564 237.311667 
L 193.123864 237.312543 
" clip-path="url(#p84bb95d653)" style="fill: none; stroke: #ec5d57; stroke-width: 2; stroke-linecap: square"/>
   </g>
   <g id="line2d_25">
    <path d="M 193.500054 232.538956 
L 193.591375 242.085254 
" clip-path="url(#p84bb95d653)" style="fill: none; stroke: #ec5d57; stroke-width: 2; stroke-linecap: square"/>
   </g>
   <g id="line2d_26">
    <path d="M 118.579453 264.465797 
L 118.24223 264.466383 
" clip-path="url(#p84bb95d653)" style="fill: none; stroke: #ec5d57; stroke-width: 2; stroke-linecap: square"/>
   </g>
   <g id="line2d_27">
    <path d="M 118.364518 261.574926 
L 118.457165 267.357253 
" clip-path="url(#p84bb95d653)" style="fill: none; stroke: #ec5d57; stroke-width: 2; stroke-linecap: square"/>
   </g>
   <g id="line2d_28">
    <path d="M 411.326713 134.302361 
L 408.982655 134.303496 
" clip-path="url(#p84bb95d653)" style="fill: none; stroke: #70bf41; stroke-width: 2; stroke-linecap: square"/>
   </g>
   <g id="line2d_29">
    <path d="M 410.085716 118.855841 
L 410.223652 149.750016 
" clip-path="url(#p84bb95d653)" style="fill: none; stroke: #70bf41; stroke-width: 2; stroke-linecap: square"/>
   </g>
   <g id="line2d_30">
    <path d="M 350.591533 164.015518 
L 347.757281 164.018355 
" clip-path="url(#p84bb95d653)" style="fill: none; stroke: #70bf41; stroke-width: 2; stroke-linecap: square"/>
   </g>
   <g id="line2d_31">
    <path d="M 349.056208 151.204386 
L 349.292606 176.829486 
" clip-path="url(#p84bb95d653)" style="fill: none; stroke: #70bf41; stroke-width: 2; stroke-linecap: square"/>
   </g>
   <g id="line2d_32">
    <path d="M 296.006863 176.062802 
L 294.235702 176.064099 
" clip-path="url(#p84bb95d653)" style="fill: none; stroke: #70bf41; stroke-width: 2; stroke-linecap: square"/>
   </g>
   <g id="line2d_33">
    <path d="M 295.040832 164.139728 
L 295.201733 187.987173 
" clip-path="url(#p84bb95d653)" style="fill: none; stroke: #70bf41; stroke-width: 2; stroke-linecap: square"/>
   </g>
   <g id="line2d_34">
    <path d="M 299.135851 171.777412 
L 297.252785 171.77924 
" clip-path="url(#p84bb95d653)" style="fill: none; stroke: #70bf41; stroke-width: 2; stroke-linecap: square"/>
   </g>
   <g id="line2d_35">
    <path d="M 298.093973 160.561385 
L 298.294662 182.995267 
" clip-path="url(#p84bb95d653)" style="fill: none; stroke: #70bf41; stroke-width: 2; stroke-linecap: square"/>
   </g>
   <g id="line2d_36">
    <path d="M 199.239354 216.887575 
L 197.981352 216.887323 
" clip-path="url(#p84bb95d653)" style="fill: none; stroke: #70bf41; stroke-width: 2; stroke-linecap: square"/>
   </g>
   <g id="line2d_37">
    <path d="M 198.6267 208.032294 
L 198.594006 225.742604 
" clip-path="url(#p84bb95d653)" style="fill: none; stroke: #70bf41; stroke-width: 2; stroke-linecap: square"/>
   </g>
   <g id="line2d_38">
    <path d="M 198.708215 204.201375 
L 197.233303 204.203873 
" clip-path="url(#p84bb95d653)" style="fill: none; stroke: #70bf41; stroke-width: 2; stroke-linecap: square"/>
   </g>
   <g id="line2d_39">
    <path d="M 197.863242 197.314263 
L 198.078275 211.090985 
" clip-path="url(#p84bb95d653)" style="fill: none; stroke: #70bf41; stroke-width: 2; stroke-linecap: square"/>
   </g>
   <g id="line2d_40">
    <path d="M 194.900437 204.614749 
L 193.736829 204.616007 
" clip-path="url(#p84bb95d653)" style="fill: none; stroke: #70bf41; stroke-width: 2; stroke-linecap: square"/>
   </g>
   <g id="line2d_41">
    <path d="M 194.247317 197.456644 
L 194.389949 211.774113 
" clip-path="url(#p84bb95d653)" style="fill: none; stroke: #70bf41; stroke-width: 2; stroke-linecap: square"/>
   </g>
   <g id="line2d_42">
    <path d="M 195.875036 207.825035 
L 194.717222 207.82572 
" clip-path="url(#p84bb95d653)" style="fill: none; stroke: #70bf41; stroke-width: 2; stroke-linecap: square"/>
   </g>
   <g id="line2d_43">
    <path d="M 195.232099 196.073698 
L 195.360159 219.577057 
" clip-path="url(#p84bb95d653)" style="fill: none; stroke: #70bf41; stroke-width: 2; stroke-linecap: square"/>
   </g>
   <g id="line2d_44">
    <path d="M 155.668571 214.860608 
L 154.962739 214.861588 
" clip-path="url(#p84bb95d653)" style="fill: none; stroke: #70bf41; stroke-width: 2; stroke-linecap: square"/>
   </g>
   <g id="line2d_45">
    <path d="M 155.245396 209.371557 
L 155.385914 220.350638 
" clip-path="url(#p84bb95d653)" style="fill: none; stroke: #70bf41; stroke-width: 2; stroke-linecap: square"/>
   </g>
   <g id="line2d_46">
    <path d="M 117.437 239.04058 
L 116.863898 239.041279 
" clip-path="url(#p84bb95d653)" style="fill: none; stroke: #70bf41; stroke-width: 2; stroke-linecap: square"/>
   </g>
   <g id="line2d_47">
    <path d="M 117.097885 234.367714 
L 117.203013 243.714146 
" clip-path="url(#p84bb95d653)" style="fill: none; stroke: #70bf41; stroke-width: 2; stroke-linecap: square"/>
   </g>
   <g id="line2d_48">
    <path d="M 411.158397 95.493906 
L 408.702657 95.494491 
" clip-path="url(#p84bb95d653)" style="fill: none; stroke: #51a7f9; stroke-width: 2; stroke-linecap: square"/>
   </g>
   <g id="line2d_49">
    <path d="M 409.89359 78.676414 
L 409.967464 112.311983 
" clip-path="url(#p84bb95d653)" style="fill: none; stroke: #51a7f9; stroke-width: 2; stroke-linecap: square"/>
   </g>
   <g id="line2d_50">
    <path d="M 348.443623 133.961502 
L 346.016677 133.962657 
" clip-path="url(#p84bb95d653)" style="fill: none; stroke: #51a7f9; stroke-width: 2; stroke-linecap: square"/>
   </g>
   <g id="line2d_51">
    <path d="M 347.163012 118.654279 
L 347.297288 149.269879 
" clip-path="url(#p84bb95d653)" style="fill: none; stroke: #51a7f9; stroke-width: 2; stroke-linecap: square"/>
   </g>
   <g id="line2d_52">
    <path d="M 301.633377 136.991542 
L 299.917093 136.992405 
" clip-path="url(#p84bb95d653)" style="fill: none; stroke: #51a7f9; stroke-width: 2; stroke-linecap: square"/>
   </g>
   <g id="line2d_53">
    <path d="M 300.711788 123.306632 
L 300.838682 150.677316 
" clip-path="url(#p84bb95d653)" style="fill: none; stroke: #51a7f9; stroke-width: 2; stroke-linecap: square"/>
   </g>
   <g id="line2d_54">
    <path d="M 195.524732 181.412491 
L 194.48488 181.413184 
" clip-path="url(#p84bb95d653)" style="fill: none; stroke: #51a7f9; stroke-width: 2; stroke-linecap: square"/>
   </g>
   <g id="line2d_55">
    <path d="M 194.948904 172.306383 
L 195.060708 190.519292 
" clip-path="url(#p84bb95d653)" style="fill: none; stroke: #51a7f9; stroke-width: 2; stroke-linecap: square"/>
   </g>
   <g id="line2d_56">
    <path d="M 119.717607 217.700363 
L 119.149411 217.700976 
" clip-path="url(#p84bb95d653)" style="fill: none; stroke: #51a7f9; stroke-width: 2; stroke-linecap: square"/>
   </g>
   <g id="line2d_57">
    <path d="M 119.370517 211.360156 
L 119.496501 224.041184 
" clip-path="url(#p84bb95d653)" style="fill: none; stroke: #51a7f9; stroke-width: 2; stroke-linecap: square"/>
   </g>
   <g id="line2d_58">
    <path d="M 305.580723 97.827315 
L 302.904885 97.829964 
" clip-path="url(#p84bb95d653)" style="fill: none; stroke: #6a5acd; stroke-width: 2; stroke-linecap: square"/>
   </g>
   <g id="line2d_59">
    <path d="M 304.121889 84.575968 
L 304.363719 111.08131 
" clip-path="url(#p84bb95d653)" style="fill: none; stroke: #6a5acd; stroke-width: 2; stroke-linecap: square"/>
   </g>
   <g id="LineCollection_1"/>
   <g id="LineCollection_2"/>
   <g id="LineCollection_3"/>
   <g id="LineCollection_4"/>
   <g id="LineCollection_5"/>
   <g id="LineCollection_6"/>
   <g id="LineCollection_7"/>
   <g id="LineCollection_8"/>
   <g id="line2d_60"/>
   <g id="line2d_61"/>
   <g id="line2d_62"/>
   <g id="line2d_63"/>
   <g id="patch_3">
    <path d="M 50.14375 300.96 
L 50.14375 7.2 
" style="fill: none; stroke: #000000; stroke-width: 0.8; stroke-linejoin: miter; stroke-linecap: square"/>
   </g>
   <g id="patch_4">
    <path d="M 441.82375 300.96 
L 441.82375 7.2 
" style="fill: none; stroke: #000000; stroke-width: 0.8; stroke-linejoin: miter; stroke-linecap: square"/>
   </g>
   <g id="patch_5">
    <path d="M 50.14375 300.96 
L 441.82375 300.96 
" style="fill: none; stroke: #000000; stroke-width: 0.8; stroke-linejoin: miter; stroke-linecap: square"/>
   </g>
   <g id="patch_6">
    <path d="M 50.14375 7.2 
L 441.82375 7.2 
" style="fill: none; stroke: #000000; stroke-width: 0.8; stroke-linejoin: miter; stroke-linecap: square"/>
   </g>
   <g id="line2d_64">
    <path d="M 422.761811 170.340655 
" clip-path="url(#p84bb95d653)" style="fill: none; stroke: #ec5d57; stroke-width: 1.5; stroke-linecap: square"/>
    <defs>
     <path id="m2823c2dd3f" d="M 0 3 
C 0.795609 3 1.55874 2.683901 2.12132 2.12132 
C 2.683901 1.55874 3 0.795609 3 0 
C 3 -0.795609 2.683901 -1.55874 2.12132 -2.12132 
C 1.55874 -2.683901 0.795609 -3 0 -3 
C -0.795609 -3 -1.55874 -2.683901 -2.12132 -2.12132 
C -2.683901 -1.55874 -3 -0.795609 -3 0 
C -3 0.795609 -2.683901 1.55874 -2.12132 2.12132 
C -1.55874 2.683901 -0.795609 3 0 3 
z
" style="stroke: #ffffff"/>
    </defs>
    <g clip-path="url(#p84bb95d653)">
     <use xlink:href="#m2823c2dd3f" x="422.761811" y="170.340655" style="fill: #ec5d57; stroke: #ffffff"/>
    </g>
   </g>
   <g id="line2d_65">
    <path d="M 422.761811 170.340655 
" clip-path="url(#p84bb95d653)" style="fill: none; stroke: #ec5d57; stroke-width: 1.5; stroke-linecap: square"/>
    <g clip-path="url(#p84bb95d653)">
     <use xlink:href="#m2823c2dd3f" x="422.761811" y="170.340655" style="fill: #ec5d57; stroke: #ffffff"/>
    </g>
   </g>
   <g id="line2d_66">
    <path d="M 356.80588 192.001288 
" clip-path="url(#p84bb95d653)" style="fill: none; stroke: #ec5d57; stroke-width: 1.5; stroke-linecap: square"/>
    <g clip-path="url(#p84bb95d653)">
     <use xlink:href="#m2823c2dd3f" x="356.80588" y="192.001288" style="fill: #ec5d57; stroke: #ffffff"/>
    </g>
   </g>
   <g id="line2d_67">
    <path d="M 356.80588 192.001288 
" clip-path="url(#p84bb95d653)" style="fill: none; stroke: #ec5d57; stroke-width: 1.5; stroke-linecap: square"/>
    <g clip-path="url(#p84bb95d653)">
     <use xlink:href="#m2823c2dd3f" x="356.80588" y="192.001288" style="fill: #ec5d57; stroke: #ffffff"/>
    </g>
   </g>
   <g id="line2d_68">
    <path d="M 299.491622 198.869994 
" clip-path="url(#p84bb95d653)" style="fill: none; stroke: #ec5d57; stroke-width: 1.5; stroke-linecap: square"/>
    <g clip-path="url(#p84bb95d653)">
     <use xlink:href="#m2823c2dd3f" x="299.491622" y="198.869994" style="fill: #ec5d57; stroke: #ffffff"/>
    </g>
   </g>
   <g id="line2d_69">
    <path d="M 299.491622 198.869994 
" clip-path="url(#p84bb95d653)" style="fill: none; stroke: #ec5d57; stroke-width: 1.5; stroke-linecap: square"/>
    <g clip-path="url(#p84bb95d653)">
     <use xlink:href="#m2823c2dd3f" x="299.491622" y="198.869994" style="fill: #ec5d57; stroke: #ffffff"/>
    </g>
   </g>
   <g id="line2d_70">
    <path d="M 307.399306 198.862787 
" clip-path="url(#p84bb95d653)" style="fill: none; stroke: #ec5d57; stroke-width: 1.5; stroke-linecap: square"/>
    <g clip-path="url(#p84bb95d653)">
     <use xlink:href="#m2823c2dd3f" x="307.399306" y="198.862787" style="fill: #ec5d57; stroke: #ffffff"/>
    </g>
   </g>
   <g id="line2d_71">
    <path d="M 307.399306 198.862787 
" clip-path="url(#p84bb95d653)" style="fill: none; stroke: #ec5d57; stroke-width: 1.5; stroke-linecap: square"/>
    <g clip-path="url(#p84bb95d653)">
     <use xlink:href="#m2823c2dd3f" x="307.399306" y="198.862787" style="fill: #ec5d57; stroke: #ffffff"/>
    </g>
   </g>
   <g id="line2d_72">
    <path d="M 193.545714 237.312105 
" clip-path="url(#p84bb95d653)" style="fill: none; stroke: #ec5d57; stroke-width: 1.5; stroke-linecap: square"/>
    <g clip-path="url(#p84bb95d653)">
     <use xlink:href="#m2823c2dd3f" x="193.545714" y="237.312105" style="fill: #ec5d57; stroke: #ffffff"/>
    </g>
   </g>
   <g id="line2d_73">
    <path d="M 193.545714 237.312105 
" clip-path="url(#p84bb95d653)" style="fill: none; stroke: #ec5d57; stroke-width: 1.5; stroke-linecap: square"/>
    <g clip-path="url(#p84bb95d653)">
     <use xlink:href="#m2823c2dd3f" x="193.545714" y="237.312105" style="fill: #ec5d57; stroke: #ffffff"/>
    </g>
   </g>
   <g id="line2d_74">
    <path d="M 118.410841 264.46609 
" clip-path="url(#p84bb95d653)" style="fill: none; stroke: #ec5d57; stroke-width: 1.5; stroke-linecap: square"/>
    <g clip-path="url(#p84bb95d653)">
     <use xlink:href="#m2823c2dd3f" x="118.410841" y="264.46609" style="fill: #ec5d57; stroke: #ffffff"/>
    </g>
   </g>
   <g id="line2d_75">
    <path d="M 118.410841 264.46609 
" clip-path="url(#p84bb95d653)" style="fill: none; stroke: #ec5d57; stroke-width: 1.5; stroke-linecap: square"/>
    <g clip-path="url(#p84bb95d653)">
     <use xlink:href="#m2823c2dd3f" x="118.410841" y="264.46609" style="fill: #ec5d57; stroke: #ffffff"/>
    </g>
   </g>
   <g id="line2d_76">
    <path d="M 410.154684 134.302928 
" clip-path="url(#p84bb95d653)" style="fill: none; stroke: #70bf41; stroke-width: 1.5; stroke-linecap: square"/>
    <defs>
     <path id="m5b904baea5" d="M 0 3 
C 0.795609 3 1.55874 2.683901 2.12132 2.12132 
C 2.683901 1.55874 3 0.795609 3 0 
C 3 -0.795609 2.683901 -1.55874 2.12132 -2.12132 
C 1.55874 -2.683901 0.795609 -3 0 -3 
C -0.795609 -3 -1.55874 -2.683901 -2.12132 -2.12132 
C -2.683901 -1.55874 -3 -0.795609 -3 0 
C -3 0.795609 -2.683901 1.55874 -2.12132 2.12132 
C -1.55874 2.683901 -0.795609 3 0 3 
z
" style="stroke: #ffffff"/>
    </defs>
    <g clip-path="url(#p84bb95d653)">
     <use xlink:href="#m5b904baea5" x="410.154684" y="134.302928" style="fill: #70bf41; stroke: #ffffff"/>
    </g>
   </g>
   <g id="line2d_77">
    <path d="M 410.154684 134.302928 
" clip-path="url(#p84bb95d653)" style="fill: none; stroke: #70bf41; stroke-width: 1.5; stroke-linecap: square"/>
    <g clip-path="url(#p84bb95d653)">
     <use xlink:href="#m5b904baea5" x="410.154684" y="134.302928" style="fill: #70bf41; stroke: #ffffff"/>
    </g>
   </g>
   <g id="line2d_78">
    <path d="M 349.174407 164.016936 
" clip-path="url(#p84bb95d653)" style="fill: none; stroke: #70bf41; stroke-width: 1.5; stroke-linecap: square"/>
    <g clip-path="url(#p84bb95d653)">
     <use xlink:href="#m5b904baea5" x="349.174407" y="164.016936" style="fill: #70bf41; stroke: #ffffff"/>
    </g>
   </g>
   <g id="line2d_79">
    <path d="M 349.174407 164.016936 
" clip-path="url(#p84bb95d653)" style="fill: none; stroke: #70bf41; stroke-width: 1.5; stroke-linecap: square"/>
    <g clip-path="url(#p84bb95d653)">
     <use xlink:href="#m5b904baea5" x="349.174407" y="164.016936" style="fill: #70bf41; stroke: #ffffff"/>
    </g>
   </g>
   <g id="line2d_80">
    <path d="M 295.121282 176.06345 
" clip-path="url(#p84bb95d653)" style="fill: none; stroke: #70bf41; stroke-width: 1.5; stroke-linecap: square"/>
    <g clip-path="url(#p84bb95d653)">
     <use xlink:href="#m5b904baea5" x="295.121282" y="176.06345" style="fill: #70bf41; stroke: #ffffff"/>
    </g>
   </g>
   <g id="line2d_81">
    <path d="M 295.121282 176.06345 
" clip-path="url(#p84bb95d653)" style="fill: none; stroke: #70bf41; stroke-width: 1.5; stroke-linecap: square"/>
    <g clip-path="url(#p84bb95d653)">
     <use xlink:href="#m5b904baea5" x="295.121282" y="176.06345" style="fill: #70bf41; stroke: #ffffff"/>
    </g>
   </g>
   <g id="line2d_82">
    <path d="M 298.194318 171.778326 
" clip-path="url(#p84bb95d653)" style="fill: none; stroke: #70bf41; stroke-width: 1.5; stroke-linecap: square"/>
    <g clip-path="url(#p84bb95d653)">
     <use xlink:href="#m5b904baea5" x="298.194318" y="171.778326" style="fill: #70bf41; stroke: #ffffff"/>
    </g>
   </g>
   <g id="line2d_83">
    <path d="M 298.194318 171.778326 
" clip-path="url(#p84bb95d653)" style="fill: none; stroke: #70bf41; stroke-width: 1.5; stroke-linecap: square"/>
    <g clip-path="url(#p84bb95d653)">
     <use xlink:href="#m5b904baea5" x="298.194318" y="171.778326" style="fill: #70bf41; stroke: #ffffff"/>
    </g>
   </g>
   <g id="line2d_84">
    <path d="M 198.610353 216.887449 
" clip-path="url(#p84bb95d653)" style="fill: none; stroke: #70bf41; stroke-width: 1.5; stroke-linecap: square"/>
    <g clip-path="url(#p84bb95d653)">
     <use xlink:href="#m5b904baea5" x="198.610353" y="216.887449" style="fill: #70bf41; stroke: #ffffff"/>
    </g>
   </g>
   <g id="line2d_85">
    <path d="M 198.610353 216.887449 
" clip-path="url(#p84bb95d653)" style="fill: none; stroke: #70bf41; stroke-width: 1.5; stroke-linecap: square"/>
    <g clip-path="url(#p84bb95d653)">
     <use xlink:href="#m5b904baea5" x="198.610353" y="216.887449" style="fill: #70bf41; stroke: #ffffff"/>
    </g>
   </g>
   <g id="line2d_86">
    <path d="M 197.970759 204.202624 
" clip-path="url(#p84bb95d653)" style="fill: none; stroke: #70bf41; stroke-width: 1.5; stroke-linecap: square"/>
    <g clip-path="url(#p84bb95d653)">
     <use xlink:href="#m5b904baea5" x="197.970759" y="204.202624" style="fill: #70bf41; stroke: #ffffff"/>
    </g>
   </g>
   <g id="line2d_87">
    <path d="M 197.970759 204.202624 
" clip-path="url(#p84bb95d653)" style="fill: none; stroke: #70bf41; stroke-width: 1.5; stroke-linecap: square"/>
    <g clip-path="url(#p84bb95d653)">
     <use xlink:href="#m5b904baea5" x="197.970759" y="204.202624" style="fill: #70bf41; stroke: #ffffff"/>
    </g>
   </g>
   <g id="line2d_88">
    <path d="M 194.318633 204.615378 
" clip-path="url(#p84bb95d653)" style="fill: none; stroke: #70bf41; stroke-width: 1.5; stroke-linecap: square"/>
    <g clip-path="url(#p84bb95d653)">
     <use xlink:href="#m5b904baea5" x="194.318633" y="204.615378" style="fill: #70bf41; stroke: #ffffff"/>
    </g>
   </g>
   <g id="line2d_89">
    <path d="M 194.318633 204.615378 
" clip-path="url(#p84bb95d653)" style="fill: none; stroke: #70bf41; stroke-width: 1.5; stroke-linecap: square"/>
    <g clip-path="url(#p84bb95d653)">
     <use xlink:href="#m5b904baea5" x="194.318633" y="204.615378" style="fill: #70bf41; stroke: #ffffff"/>
    </g>
   </g>
   <g id="line2d_90">
    <path d="M 195.296129 207.825378 
" clip-path="url(#p84bb95d653)" style="fill: none; stroke: #70bf41; stroke-width: 1.5; stroke-linecap: square"/>
    <g clip-path="url(#p84bb95d653)">
     <use xlink:href="#m5b904baea5" x="195.296129" y="207.825378" style="fill: #70bf41; stroke: #ffffff"/>
    </g>
   </g>
   <g id="line2d_91">
    <path d="M 195.296129 207.825378 
" clip-path="url(#p84bb95d653)" style="fill: none; stroke: #70bf41; stroke-width: 1.5; stroke-linecap: square"/>
    <g clip-path="url(#p84bb95d653)">
     <use xlink:href="#m5b904baea5" x="195.296129" y="207.825378" style="fill: #70bf41; stroke: #ffffff"/>
    </g>
   </g>
   <g id="line2d_92">
    <path d="M 155.315655 214.861098 
" clip-path="url(#p84bb95d653)" style="fill: none; stroke: #70bf41; stroke-width: 1.5; stroke-linecap: square"/>
    <g clip-path="url(#p84bb95d653)">
     <use xlink:href="#m5b904baea5" x="155.315655" y="214.861098" style="fill: #70bf41; stroke: #ffffff"/>
    </g>
   </g>
   <g id="line2d_93">
    <path d="M 155.315655 214.861098 
" clip-path="url(#p84bb95d653)" style="fill: none; stroke: #70bf41; stroke-width: 1.5; stroke-linecap: square"/>
    <g clip-path="url(#p84bb95d653)">
     <use xlink:href="#m5b904baea5" x="155.315655" y="214.861098" style="fill: #70bf41; stroke: #ffffff"/>
    </g>
   </g>
   <g id="line2d_94">
    <path d="M 117.150449 239.04093 
" clip-path="url(#p84bb95d653)" style="fill: none; stroke: #70bf41; stroke-width: 1.5; stroke-linecap: square"/>
    <g clip-path="url(#p84bb95d653)">
     <use xlink:href="#m5b904baea5" x="117.150449" y="239.04093" style="fill: #70bf41; stroke: #ffffff"/>
    </g>
   </g>
   <g id="line2d_95">
    <path d="M 117.150449 239.04093 
" clip-path="url(#p84bb95d653)" style="fill: none; stroke: #70bf41; stroke-width: 1.5; stroke-linecap: square"/>
    <g clip-path="url(#p84bb95d653)">
     <use xlink:href="#m5b904baea5" x="117.150449" y="239.04093" style="fill: #70bf41; stroke: #ffffff"/>
    </g>
   </g>
   <g id="line2d_96">
    <path d="M 409.930527 95.494199 
" clip-path="url(#p84bb95d653)" style="fill: none; stroke: #51a7f9; stroke-width: 1.5; stroke-linecap: square"/>
    <defs>
     <path id="m98a64384fe" d="M 0 3 
C 0.795609 3 1.55874 2.683901 2.12132 2.12132 
C 2.683901 1.55874 3 0.795609 3 0 
C 3 -0.795609 2.683901 -1.55874 2.12132 -2.12132 
C 1.55874 -2.683901 0.795609 -3 0 -3 
C -0.795609 -3 -1.55874 -2.683901 -2.12132 -2.12132 
C -2.683901 -1.55874 -3 -0.795609 -3 0 
C -3 0.795609 -2.683901 1.55874 -2.12132 2.12132 
C -1.55874 2.683901 -0.795609 3 0 3 
z
" style="stroke: #ffffff"/>
    </defs>
    <g clip-path="url(#p84bb95d653)">
     <use xlink:href="#m98a64384fe" x="409.930527" y="95.494199" style="fill: #51a7f9; stroke: #ffffff"/>
    </g>
   </g>
   <g id="line2d_97">
    <path d="M 409.930527 95.494199 
" clip-path="url(#p84bb95d653)" style="fill: none; stroke: #51a7f9; stroke-width: 1.5; stroke-linecap: square"/>
    <g clip-path="url(#p84bb95d653)">
     <use xlink:href="#m98a64384fe" x="409.930527" y="95.494199" style="fill: #51a7f9; stroke: #ffffff"/>
    </g>
   </g>
   <g id="line2d_98">
    <path d="M 347.23015 133.962079 
" clip-path="url(#p84bb95d653)" style="fill: none; stroke: #51a7f9; stroke-width: 1.5; stroke-linecap: square"/>
    <g clip-path="url(#p84bb95d653)">
     <use xlink:href="#m98a64384fe" x="347.23015" y="133.962079" style="fill: #51a7f9; stroke: #ffffff"/>
    </g>
   </g>
   <g id="line2d_99">
    <path d="M 347.23015 133.962079 
" clip-path="url(#p84bb95d653)" style="fill: none; stroke: #51a7f9; stroke-width: 1.5; stroke-linecap: square"/>
    <g clip-path="url(#p84bb95d653)">
     <use xlink:href="#m98a64384fe" x="347.23015" y="133.962079" style="fill: #51a7f9; stroke: #ffffff"/>
    </g>
   </g>
   <g id="line2d_100">
    <path d="M 300.775235 136.991974 
" clip-path="url(#p84bb95d653)" style="fill: none; stroke: #51a7f9; stroke-width: 1.5; stroke-linecap: square"/>
    <g clip-path="url(#p84bb95d653)">
     <use xlink:href="#m98a64384fe" x="300.775235" y="136.991974" style="fill: #51a7f9; stroke: #ffffff"/>
    </g>
   </g>
   <g id="line2d_101">
    <path d="M 300.775235 136.991974 
" clip-path="url(#p84bb95d653)" style="fill: none; stroke: #51a7f9; stroke-width: 1.5; stroke-linecap: square"/>
    <g clip-path="url(#p84bb95d653)">
     <use xlink:href="#m98a64384fe" x="300.775235" y="136.991974" style="fill: #51a7f9; stroke: #ffffff"/>
    </g>
   </g>
   <g id="line2d_102">
    <path d="M 195.004806 181.412838 
" clip-path="url(#p84bb95d653)" style="fill: none; stroke: #51a7f9; stroke-width: 1.5; stroke-linecap: square"/>
    <g clip-path="url(#p84bb95d653)">
     <use xlink:href="#m98a64384fe" x="195.004806" y="181.412838" style="fill: #51a7f9; stroke: #ffffff"/>
    </g>
   </g>
   <g id="line2d_103">
    <path d="M 195.004806 181.412838 
" clip-path="url(#p84bb95d653)" style="fill: none; stroke: #51a7f9; stroke-width: 1.5; stroke-linecap: square"/>
    <g clip-path="url(#p84bb95d653)">
     <use xlink:href="#m98a64384fe" x="195.004806" y="181.412838" style="fill: #51a7f9; stroke: #ffffff"/>
    </g>
   </g>
   <g id="line2d_104">
    <path d="M 119.433509 217.70067 
" clip-path="url(#p84bb95d653)" style="fill: none; stroke: #51a7f9; stroke-width: 1.5; stroke-linecap: square"/>
    <g clip-path="url(#p84bb95d653)">
     <use xlink:href="#m98a64384fe" x="119.433509" y="217.70067" style="fill: #51a7f9; stroke: #ffffff"/>
    </g>
   </g>
   <g id="line2d_105">
    <path d="M 119.433509 217.70067 
" clip-path="url(#p84bb95d653)" style="fill: none; stroke: #51a7f9; stroke-width: 1.5; stroke-linecap: square"/>
    <g clip-path="url(#p84bb95d653)">
     <use xlink:href="#m98a64384fe" x="119.433509" y="217.70067" style="fill: #51a7f9; stroke: #ffffff"/>
    </g>
   </g>
   <g id="line2d_106">
    <path d="M 304.242804 97.828639 
" clip-path="url(#p84bb95d653)" style="fill: none; stroke: #6a5acd; stroke-width: 1.5; stroke-linecap: square"/>
    <defs>
     <path id="mf1a0717b78" d="M 0 3 
C 0.795609 3 1.55874 2.683901 2.12132 2.12132 
C 2.683901 1.55874 3 0.795609 3 0 
C 3 -0.795609 2.683901 -1.55874 2.12132 -2.12132 
C 1.55874 -2.683901 0.795609 -3 0 -3 
C -0.795609 -3 -1.55874 -2.683901 -2.12132 -2.12132 
C -2.683901 -1.55874 -3 -0.795609 -3 0 
C -3 0.795609 -2.683901 1.55874 -2.12132 2.12132 
C -1.55874 2.683901 -0.795609 3 0 3 
z
" style="stroke: #ffffff"/>
    </defs>
    <g clip-path="url(#p84bb95d653)">
     <use xlink:href="#mf1a0717b78" x="304.242804" y="97.828639" style="fill: #6a5acd; stroke: #ffffff"/>
    </g>
   </g>
   <g id="line2d_107">
    <path d="M 304.242804 97.828639 
" clip-path="url(#p84bb95d653)" style="fill: none; stroke: #6a5acd; stroke-width: 1.5; stroke-linecap: square"/>
    <g clip-path="url(#p84bb95d653)">
     <use xlink:href="#mf1a0717b78" x="304.242804" y="97.828639" style="fill: #6a5acd; stroke: #ffffff"/>
    </g>
   </g>
   <g id="legend_1">
    <g id="patch_7">
     <path d="M 238.82375 295.96 
L 434.82375 295.96 
Q 436.82375 295.96 436.82375 293.96 
L 436.82375 258.56 
Q 436.82375 256.56 434.82375 256.56 
L 238.82375 256.56 
Q 236.82375 256.56 236.82375 258.56 
L 236.82375 293.96 
Q 236.82375 295.96 238.82375 295.96 
z
" style="fill: #ffffff; opacity: 0.8; stroke: #cccccc; stroke-linejoin: miter"/>
    </g>
    <g id="LineCollection_9">
     <path d="M 245.82375 267.46 
L 255.82375 267.46 
" style="fill: none; stroke: #6a5acd; stroke-width: 3"/>
    </g>
    <g id="LineCollection_10">
     <path d="M 250.82375 272.46 
L 250.82375 262.46 
" style="fill: none; stroke: #6a5acd; stroke-width: 3"/>
    </g>
    <g id="line2d_108">
     <path d="M 240.82375 267.46 
L 260.82375 267.46 
" style="fill: none; stroke: #6a5acd; stroke-width: 1.5; stroke-linecap: square"/>
    </g>
    <g id="line2d_109">
     <defs>
      <path id="m2640c073fd" d="M 0 4 
C 1.060812 4 2.078319 3.578535 2.828427 2.828427 
C 3.578535 2.078319 4 1.060812 4 0 
C 4 -1.060812 3.578535 -2.078319 2.828427 -2.828427 
C 2.078319 -3.578535 1.060812 -4 0 -4 
C -1.060812 -4 -2.078319 -3.578535 -2.828427 -2.828427 
C -3.578535 -2.078319 -4 -1.060812 -4 0 
C -4 1.060812 -3.578535 2.078319 -2.828427 2.828427 
C -2.078319 3.578535 -1.060812 4 0 4 
z
" style="stroke: #ffffff; stroke-width: 2"/>
     </defs>
     <g>
      <use xlink:href="#m2640c073fd" x="250.82375" y="267.46" style="fill: #6a5acd; stroke: #ffffff; stroke-width: 2"/>
     </g>
    </g>
    <g id="text_13">
     <!-- $a_{06}(l_F,s_F^{\rm phys})$ -->
     <g transform="translate(268.82375 270.96) scale(0.1 -0.1)">
      <defs>
       <path id="DejaVuSans-Oblique-61" d="M 3438 1997 
L 3047 0 
L 2472 0 
L 2578 531 
Q 2325 219 2001 64 
Q 1678 -91 1281 -91 
Q 834 -91 548 182 
Q 263 456 263 884 
Q 263 1497 752 1853 
Q 1241 2209 2100 2209 
L 2900 2209 
L 2931 2363 
Q 2938 2388 2941 2417 
Q 2944 2447 2944 2509 
Q 2944 2788 2717 2942 
Q 2491 3097 2081 3097 
Q 1800 3097 1504 3025 
Q 1209 2953 897 2809 
L 997 3341 
Q 1322 3463 1633 3523 
Q 1944 3584 2234 3584 
Q 2853 3584 3176 3315 
Q 3500 3047 3500 2534 
Q 3500 2431 3484 2292 
Q 3469 2153 3438 1997 
z
M 2816 1759 
L 2241 1759 
Q 1534 1759 1195 1570 
Q 856 1381 856 984 
Q 856 709 1029 553 
Q 1203 397 1509 397 
Q 1978 397 2328 733 
Q 2678 1069 2791 1631 
L 2816 1759 
z
" transform="scale(0.015625)"/>
       <path id="DejaVuSans-2c" d="M 750 794 
L 1409 794 
L 1409 256 
L 897 -744 
L 494 -744 
L 750 256 
L 750 794 
z
" transform="scale(0.015625)"/>
       <path id="DejaVuSans-Oblique-73" d="M 3200 3397 
L 3091 2853 
Q 2863 2978 2609 3040 
Q 2356 3103 2088 3103 
Q 1634 3103 1373 2948 
Q 1113 2794 1113 2528 
Q 1113 2219 1719 2053 
Q 1766 2041 1788 2034 
L 1972 1978 
Q 2547 1819 2739 1644 
Q 2931 1469 2931 1166 
Q 2931 609 2489 259 
Q 2047 -91 1331 -91 
Q 1053 -91 747 -37 
Q 441 16 72 128 
L 184 722 
Q 500 559 806 475 
Q 1113 391 1394 391 
Q 1816 391 2080 572 
Q 2344 753 2344 1031 
Q 2344 1331 1650 1516 
L 1591 1531 
L 1394 1581 
Q 956 1697 753 1886 
Q 550 2075 550 2369 
Q 550 2928 970 3256 
Q 1391 3584 2113 3584 
Q 2397 3584 2667 3537 
Q 2938 3491 3200 3397 
z
" transform="scale(0.015625)"/>
       <path id="DejaVuSans-70" d="M 1159 525 
L 1159 -1331 
L 581 -1331 
L 581 3500 
L 1159 3500 
L 1159 2969 
Q 1341 3281 1617 3432 
Q 1894 3584 2278 3584 
Q 2916 3584 3314 3078 
Q 3713 2572 3713 1747 
Q 3713 922 3314 415 
Q 2916 -91 2278 -91 
Q 1894 -91 1617 61 
Q 1341 213 1159 525 
z
M 3116 1747 
Q 3116 2381 2855 2742 
Q 2594 3103 2138 3103 
Q 1681 3103 1420 2742 
Q 1159 2381 1159 1747 
Q 1159 1113 1420 752 
Q 1681 391 2138 391 
Q 2594 391 2855 752 
Q 3116 1113 3116 1747 
z
" transform="scale(0.015625)"/>
       <path id="DejaVuSans-68" d="M 3513 2113 
L 3513 0 
L 2938 0 
L 2938 2094 
Q 2938 2591 2744 2837 
Q 2550 3084 2163 3084 
Q 1697 3084 1428 2787 
Q 1159 2491 1159 1978 
L 1159 0 
L 581 0 
L 581 4863 
L 1159 4863 
L 1159 2956 
Q 1366 3272 1645 3428 
Q 1925 3584 2291 3584 
Q 2894 3584 3203 3211 
Q 3513 2838 3513 2113 
z
" transform="scale(0.015625)"/>
       <path id="DejaVuSans-79" d="M 2059 -325 
Q 1816 -950 1584 -1140 
Q 1353 -1331 966 -1331 
L 506 -1331 
L 506 -850 
L 844 -850 
Q 1081 -850 1212 -737 
Q 1344 -625 1503 -206 
L 1606 56 
L 191 3500 
L 800 3500 
L 1894 763 
L 2988 3500 
L 3597 3500 
L 2059 -325 
z
" transform="scale(0.015625)"/>
       <path id="DejaVuSans-73" d="M 2834 3397 
L 2834 2853 
Q 2591 2978 2328 3040 
Q 2066 3103 1784 3103 
Q 1356 3103 1142 2972 
Q 928 2841 928 2578 
Q 928 2378 1081 2264 
Q 1234 2150 1697 2047 
L 1894 2003 
Q 2506 1872 2764 1633 
Q 3022 1394 3022 966 
Q 3022 478 2636 193 
Q 2250 -91 1575 -91 
Q 1294 -91 989 -36 
Q 684 19 347 128 
L 347 722 
Q 666 556 975 473 
Q 1284 391 1588 391 
Q 1994 391 2212 530 
Q 2431 669 2431 922 
Q 2431 1156 2273 1281 
Q 2116 1406 1581 1522 
L 1381 1569 
Q 847 1681 609 1914 
Q 372 2147 372 2553 
Q 372 3047 722 3315 
Q 1072 3584 1716 3584 
Q 2034 3584 2315 3537 
Q 2597 3491 2834 3397 
z
" transform="scale(0.015625)"/>
      </defs>
      <use xlink:href="#DejaVuSans-Oblique-61" transform="translate(0 0.0625)"/>
      <use xlink:href="#DejaVuSans-30" transform="translate(61.279297 -16.34375) scale(0.7)"/>
      <use xlink:href="#DejaVuSans-36" transform="translate(105.81543 -16.34375) scale(0.7)"/>
      <use xlink:href="#DejaVuSans-28" transform="translate(153.085938 0.0625)"/>
      <use xlink:href="#DejaVuSans-Oblique-6c" transform="translate(192.099609 0.0625)"/>
      <use xlink:href="#DejaVuSans-Oblique-46" transform="translate(219.882812 -16.34375) scale(0.7)"/>
      <use xlink:href="#DejaVuSans-2c" transform="translate(262.880859 0.0625)"/>
      <use xlink:href="#DejaVuSans-Oblique-73" transform="translate(314.150391 0.0625)"/>
      <use xlink:href="#DejaVuSans-70" transform="translate(370.899896 50.810938) scale(0.7)"/>
      <use xlink:href="#DejaVuSans-68" transform="translate(415.33349 50.810938) scale(0.7)"/>
      <use xlink:href="#DejaVuSans-79" transform="translate(459.698724 50.810938) scale(0.7)"/>
      <use xlink:href="#DejaVuSans-73" transform="translate(501.124505 50.810938) scale(0.7)"/>
      <use xlink:href="#DejaVuSans-Oblique-46" transform="translate(366.25 -27.28125) scale(0.7)"/>
      <use xlink:href="#DejaVuSans-29" transform="translate(540.328607 0.0625)"/>
     </g>
    </g>
    <g id="LineCollection_11">
     <path d="M 245.82375 285.66 
L 255.82375 285.66 
" style="fill: none; stroke: #51a7f9; stroke-width: 3"/>
    </g>
    <g id="LineCollection_12">
     <path d="M 250.82375 290.66 
L 250.82375 280.66 
" style="fill: none; stroke: #51a7f9; stroke-width: 3"/>
    </g>
    <g id="line2d_110">
     <path d="M 240.82375 285.66 
L 260.82375 285.66 
" style="fill: none; stroke: #51a7f9; stroke-width: 1.5; stroke-linecap: square"/>
    </g>
    <g id="line2d_111">
     <defs>
      <path id="m2879b15f22" d="M 0 4 
C 1.060812 4 2.078319 3.578535 2.828427 2.828427 
C 3.578535 2.078319 4 1.060812 4 0 
C 4 -1.060812 3.578535 -2.078319 2.828427 -2.828427 
C 2.078319 -3.578535 1.060812 -4 0 -4 
C -1.060812 -4 -2.078319 -3.578535 -2.828427 -2.828427 
C -3.578535 -2.078319 -4 -1.060812 -4 0 
C -4 1.060812 -3.578535 2.078319 -2.828427 2.828427 
C -2.078319 3.578535 -1.060812 4 0 4 
z
" style="stroke: #ffffff; stroke-width: 2"/>
     </defs>
     <g>
      <use xlink:href="#m2879b15f22" x="250.82375" y="285.66" style="fill: #51a7f9; stroke: #ffffff; stroke-width: 2"/>
     </g>
    </g>
    <g id="text_14">
     <!-- $a_{09}(l_F,s_F^{\rm phys})$ -->
     <g transform="translate(268.82375 289.16) scale(0.1 -0.1)">
      <defs>
       <path id="DejaVuSans-39" d="M 703 97 
L 703 672 
Q 941 559 1184 500 
Q 1428 441 1663 441 
Q 2288 441 2617 861 
Q 2947 1281 2994 2138 
Q 2813 1869 2534 1725 
Q 2256 1581 1919 1581 
Q 1219 1581 811 2004 
Q 403 2428 403 3163 
Q 403 3881 828 4315 
Q 1253 4750 1959 4750 
Q 2769 4750 3195 4129 
Q 3622 3509 3622 2328 
Q 3622 1225 3098 567 
Q 2575 -91 1691 -91 
Q 1453 -91 1209 -44 
Q 966 3 703 97 
z
M 1959 2075 
Q 2384 2075 2632 2365 
Q 2881 2656 2881 3163 
Q 2881 3666 2632 3958 
Q 2384 4250 1959 4250 
Q 1534 4250 1286 3958 
Q 1038 3666 1038 3163 
Q 1038 2656 1286 2365 
Q 1534 2075 1959 2075 
z
" transform="scale(0.015625)"/>
      </defs>
      <use xlink:href="#DejaVuSans-Oblique-61" transform="translate(0 0.0625)"/>
      <use xlink:href="#DejaVuSans-30" transform="translate(61.279297 -16.34375) scale(0.7)"/>
      <use xlink:href="#DejaVuSans-39" transform="translate(105.81543 -16.34375) scale(0.7)"/>
      <use xlink:href="#DejaVuSans-28" transform="translate(153.085938 0.0625)"/>
      <use xlink:href="#DejaVuSans-Oblique-6c" transform="translate(192.099609 0.0625)"/>
      <use xlink:href="#DejaVuSans-Oblique-46" transform="translate(219.882812 -16.34375) scale(0.7)"/>
      <use xlink:href="#DejaVuSans-2c" transform="translate(262.880859 0.0625)"/>
      <use xlink:href="#DejaVuSans-Oblique-73" transform="translate(314.150391 0.0625)"/>
      <use xlink:href="#DejaVuSans-70" transform="translate(370.899896 50.810938) scale(0.7)"/>
      <use xlink:href="#DejaVuSans-68" transform="translate(415.33349 50.810938) scale(0.7)"/>
      <use xlink:href="#DejaVuSans-79" transform="translate(459.698724 50.810938) scale(0.7)"/>
      <use xlink:href="#DejaVuSans-73" transform="translate(501.124505 50.810938) scale(0.7)"/>
      <use xlink:href="#DejaVuSans-Oblique-46" transform="translate(366.25 -27.28125) scale(0.7)"/>
      <use xlink:href="#DejaVuSans-29" transform="translate(540.328607 0.0625)"/>
     </g>
    </g>
    <g id="LineCollection_13">
     <path d="M 351.82375 267.46 
L 361.82375 267.46 
" style="fill: none; stroke: #70bf41; stroke-width: 3"/>
    </g>
    <g id="LineCollection_14">
     <path d="M 356.82375 272.46 
L 356.82375 262.46 
" style="fill: none; stroke: #70bf41; stroke-width: 3"/>
    </g>
    <g id="line2d_112">
     <path d="M 346.82375 267.46 
L 366.82375 267.46 
" style="fill: none; stroke: #70bf41; stroke-width: 1.5; stroke-linecap: square"/>
    </g>
    <g id="line2d_113">
     <defs>
      <path id="m61e6e711cc" d="M 0 4 
C 1.060812 4 2.078319 3.578535 2.828427 2.828427 
C 3.578535 2.078319 4 1.060812 4 0 
C 4 -1.060812 3.578535 -2.078319 2.828427 -2.828427 
C 2.078319 -3.578535 1.060812 -4 0 -4 
C -1.060812 -4 -2.078319 -3.578535 -2.828427 -2.828427 
C -3.578535 -2.078319 -4 -1.060812 -4 0 
C -4 1.060812 -3.578535 2.078319 -2.828427 2.828427 
C -2.078319 3.578535 -1.060812 4 0 4 
z
" style="stroke: #ffffff; stroke-width: 2"/>
     </defs>
     <g>
      <use xlink:href="#m61e6e711cc" x="356.82375" y="267.46" style="fill: #70bf41; stroke: #ffffff; stroke-width: 2"/>
     </g>
    </g>
    <g id="text_15">
     <!-- $a_{12}(l_F,s_F^{\rm phys})$ -->
     <g transform="translate(374.82375 270.96) scale(0.1 -0.1)">
      <use xlink:href="#DejaVuSans-Oblique-61" transform="translate(0 0.0625)"/>
      <use xlink:href="#DejaVuSans-31" transform="translate(61.279297 -16.34375) scale(0.7)"/>
      <use xlink:href="#DejaVuSans-32" transform="translate(105.81543 -16.34375) scale(0.7)"/>
      <use xlink:href="#DejaVuSans-28" transform="translate(153.085938 0.0625)"/>
      <use xlink:href="#DejaVuSans-Oblique-6c" transform="translate(192.099609 0.0625)"/>
      <use xlink:href="#DejaVuSans-Oblique-46" transform="translate(219.882812 -16.34375) scale(0.7)"/>
      <use xlink:href="#DejaVuSans-2c" transform="translate(262.880859 0.0625)"/>
      <use xlink:href="#DejaVuSans-Oblique-73" transform="translate(314.150391 0.0625)"/>
      <use xlink:href="#DejaVuSans-70" transform="translate(370.899896 50.810938) scale(0.7)"/>
      <use xlink:href="#DejaVuSans-68" transform="translate(415.33349 50.810938) scale(0.7)"/>
      <use xlink:href="#DejaVuSans-79" transform="translate(459.698724 50.810938) scale(0.7)"/>
      <use xlink:href="#DejaVuSans-73" transform="translate(501.124505 50.810938) scale(0.7)"/>
      <use xlink:href="#DejaVuSans-Oblique-46" transform="translate(366.25 -27.28125) scale(0.7)"/>
      <use xlink:href="#DejaVuSans-29" transform="translate(540.328607 0.0625)"/>
     </g>
    </g>
    <g id="LineCollection_15">
     <path d="M 351.82375 285.66 
L 361.82375 285.66 
" style="fill: none; stroke: #ec5d57; stroke-width: 3"/>
    </g>
    <g id="LineCollection_16">
     <path d="M 356.82375 290.66 
L 356.82375 280.66 
" style="fill: none; stroke: #ec5d57; stroke-width: 3"/>
    </g>
    <g id="line2d_114">
     <path d="M 346.82375 285.66 
L 366.82375 285.66 
" style="fill: none; stroke: #ec5d57; stroke-width: 1.5; stroke-linecap: square"/>
    </g>
    <g id="line2d_115">
     <defs>
      <path id="m14f63ad9dc" d="M 0 4 
C 1.060812 4 2.078319 3.578535 2.828427 2.828427 
C 3.578535 2.078319 4 1.060812 4 0 
C 4 -1.060812 3.578535 -2.078319 2.828427 -2.828427 
C 2.078319 -3.578535 1.060812 -4 0 -4 
C -1.060812 -4 -2.078319 -3.578535 -2.828427 -2.828427 
C -3.578535 -2.078319 -4 -1.060812 -4 0 
C -4 1.060812 -3.578535 2.078319 -2.828427 2.828427 
C -2.078319 3.578535 -1.060812 4 0 4 
z
" style="stroke: #ffffff; stroke-width: 2"/>
     </defs>
     <g>
      <use xlink:href="#m14f63ad9dc" x="356.82375" y="285.66" style="fill: #ec5d57; stroke: #ffffff; stroke-width: 2"/>
     </g>
    </g>
    <g id="text_16">
     <!-- $a_{15}(l_F,s_F^{\rm phys})$ -->
     <g transform="translate(374.82375 289.16) scale(0.1 -0.1)">
      <use xlink:href="#DejaVuSans-Oblique-61" transform="translate(0 0.0625)"/>
      <use xlink:href="#DejaVuSans-31" transform="translate(61.279297 -16.34375) scale(0.7)"/>
      <use xlink:href="#DejaVuSans-35" transform="translate(105.81543 -16.34375) scale(0.7)"/>
      <use xlink:href="#DejaVuSans-28" transform="translate(153.085938 0.0625)"/>
      <use xlink:href="#DejaVuSans-Oblique-6c" transform="translate(192.099609 0.0625)"/>
      <use xlink:href="#DejaVuSans-Oblique-46" transform="translate(219.882812 -16.34375) scale(0.7)"/>
      <use xlink:href="#DejaVuSans-2c" transform="translate(262.880859 0.0625)"/>
      <use xlink:href="#DejaVuSans-Oblique-73" transform="translate(314.150391 0.0625)"/>
      <use xlink:href="#DejaVuSans-70" transform="translate(370.899896 50.810938) scale(0.7)"/>
      <use xlink:href="#DejaVuSans-68" transform="translate(415.33349 50.810938) scale(0.7)"/>
      <use xlink:href="#DejaVuSans-79" transform="translate(459.698724 50.810938) scale(0.7)"/>
      <use xlink:href="#DejaVuSans-73" transform="translate(501.124505 50.810938) scale(0.7)"/>
      <use xlink:href="#DejaVuSans-Oblique-46" transform="translate(366.25 -27.28125) scale(0.7)"/>
      <use xlink:href="#DejaVuSans-29" transform="translate(540.328607 0.0625)"/>
     </g>
    </g>
   </g>
  </g>
 </g>
 <defs>
  <clipPath id="p84bb95d653">
   <rect x="50.14375" y="7.2" width="391.68" height="293.76"/>
  </clipPath>
 </defs>
 <defs>
  <pattern id="h89b7ed6d0e" patternUnits="userSpaceOnUse" x="0" y="0" width="72" height="72">
   <rect x="0" y="0" width="73" height="73" fill="none"/>
   <path d="M -36 36 
L 36 -36 
M -24 48 
L 48 -24 
M -12 60 
L 60 -12 
M 0 72 
L 72 0 
M 12 84 
L 84 12 
M 24 96 
L 96 24 
M 36 108 
L 108 36 
" style="fill: #000000; stroke: #000000; stroke-width: 1.0; stroke-linecap: butt; stroke-linejoin: miter; stroke-opacity: 0.6"/>
  </pattern>
 </defs>
</svg>
