<?xml version="1.0" encoding="utf-8" standalone="no"?>
<!DOCTYPE svg PUBLIC "-//W3C//DTD SVG 1.1//EN"
  "http://www.w3.org/Graphics/SVG/1.1/DTD/svg11.dtd">
<svg xmlns:xlink="http://www.w3.org/1999/xlink" width="460.308125pt" height="342.81687pt" viewBox="0 0 460.308125 342.81687" xmlns="http://www.w3.org/2000/svg" version="1.1">
 <metadata>
  <rdf:RDF xmlns:dc="http://purl.org/dc/elements/1.1/" xmlns:cc="http://creativecommons.org/ns#" xmlns:rdf="http://www.w3.org/1999/02/22-rdf-syntax-ns#">
   <cc:Work>
    <dc:type rdf:resource="http://purl.org/dc/dcmitype/StillImage"/>
    <dc:date>2025-03-01T21:40:32.190166</dc:date>
    <dc:format>image/svg+xml</dc:format>
    <dc:creator>
     <cc:Agent>
      <dc:title>Matplotlib v3.10.0, https://matplotlib.org/</dc:title>
     </cc:Agent>
    </dc:creator>
   </cc:Work>
  </rdf:RDF>
 </metadata>
 <defs>
  <style type="text/css">*{stroke-linejoin: round; stroke-linecap: butt}</style>
 </defs>
 <g id="figure_1">
  <g id="patch_1">
   <path d="M 0 342.81687 
L 460.308125 342.81687 
L 460.308125 0 
L 0 0 
L 0 342.81687 
z
" style="fill: none"/>
  </g>
  <g id="axes_1">
   <g id="patch_2">
    <path d="M 61.428125 303.038745 
L 453.108125 303.038745 
L 453.108125 9.278745 
L 61.428125 9.278745 
L 61.428125 303.038745 
z
" style="fill: none"/>
   </g>
   <g id="FillBetweenPolyCollection_1">
    <path d="M 81.105925 140.271634 
L 81.105925 202.741059 
L 88.283541 198.325238 
L 95.461158 193.954548 
L 102.638774 189.628735 
L 109.81639 185.347546 
L 116.994006 181.110733 
L 124.171623 176.918056 
L 131.349239 172.769283 
L 138.526855 168.664192 
L 145.704471 164.602573 
L 152.882088 160.584231 
L 160.059704 156.608988 
L 167.23732 152.676685 
L 174.414936 148.787184 
L 181.592552 144.940374 
L 188.770169 141.136175 
L 195.947785 137.374535 
L 203.125401 133.655446 
L 210.303017 129.978937 
L 217.480634 126.345092 
L 224.65825 122.754047 
L 231.835866 119.206005 
L 239.013482 115.701243 
L 246.191099 112.240124 
L 253.368715 108.823112 
L 260.546331 105.450785 
L 267.723947 102.123859 
L 274.901564 98.843206 
L 282.07918 95.609886 
L 289.256796 92.425178 
L 296.434412 89.290619 
L 303.612029 86.208052 
L 310.789645 83.179677 
L 317.967261 80.208116 
L 325.144877 77.296484 
L 332.322494 74.448467 
L 339.50011 71.668399 
L 346.677726 68.96134 
L 353.855342 66.333138 
L 361.032959 63.790449 
L 368.210575 61.340706 
L 375.388191 58.991989 
L 382.565807 56.752783 
L 389.743424 54.631596 
L 396.92104 52.636452 
L 404.098656 50.77432 
L 411.276272 49.050562 
L 418.453889 47.468526 
L 425.631505 46.02938 
L 432.809121 44.732207 
L 432.809121 22.631473 
L 432.809121 22.631473 
L 425.631505 24.636356 
L 418.453889 26.604014 
L 411.276272 28.533025 
L 404.098656 30.424049 
L 396.92104 32.279928 
L 389.743424 34.105517 
L 382.565807 35.907278 
L 375.388191 37.692729 
L 368.210575 39.46987 
L 361.032959 41.246679 
L 353.855342 43.030732 
L 346.677726 44.828952 
L 339.50011 46.647491 
L 332.322494 48.491687 
L 325.144877 50.366096 
L 317.967261 52.274545 
L 310.789645 54.220212 
L 303.612029 56.205705 
L 296.434412 58.233141 
L 289.256796 60.304212 
L 282.07918 62.420255 
L 274.901564 64.5823 
L 267.723947 66.791119 
L 260.546331 69.047264 
L 253.368715 71.351103 
L 246.191099 73.702843 
L 239.013482 76.102557 
L 231.835866 78.550201 
L 224.65825 81.045631 
L 217.480634 83.588618 
L 210.303017 86.178857 
L 203.125401 88.81598 
L 195.947785 91.499562 
L 188.770169 94.229126 
L 181.592552 97.004156 
L 174.414936 99.824095 
L 167.23732 102.688356 
L 160.059704 105.596319 
L 152.882088 108.547342 
L 145.704471 111.540759 
L 138.526855 114.575884 
L 131.349239 117.652015 
L 124.171623 120.768437 
L 116.994006 123.92442 
L 109.81639 127.119225 
L 102.638774 130.352105 
L 95.461158 133.622307 
L 88.283541 136.929071 
L 81.105925 140.271634 
z
" clip-path="url(#paca5d142fa)" style="fill: url(#h5ab0c3c51c); stroke: #000000; stroke-opacity: 0.6"/>
   </g>
   <g id="FillBetweenPolyCollection_2">
    <defs>
     <path id="m81d54f0493" d="M 81.105925 -118.966702 
L 81.105925 -53.130852 
L 88.283541 -59.292927 
L 95.461158 -65.404091 
L 102.638774 -71.464533 
L 109.81639 -77.474455 
L 116.994006 -83.434076 
L 124.171623 -89.343628 
L 131.349239 -95.203357 
L 138.526855 -101.013522 
L 145.704471 -106.774391 
L 152.882088 -112.486244 
L 160.059704 -118.14937 
L 167.23732 -123.764066 
L 174.414936 -129.330633 
L 181.592552 -134.849375 
L 188.770169 -140.320602 
L 195.947785 -145.744621 
L 203.125401 -151.121737 
L 210.303017 -156.452249 
L 217.480634 -161.736452 
L 224.65825 -166.974627 
L 231.835866 -172.167043 
L 239.013482 -177.31395 
L 246.191099 -182.415577 
L 253.368715 -187.472127 
L 260.546331 -192.48377 
L 267.723947 -197.45064 
L 274.901564 -202.372826 
L 282.07918 -207.250362 
L 289.256796 -212.08322 
L 296.434412 -216.871299 
L 303.612029 -221.614407 
L 310.789645 -226.312249 
L 317.967261 -230.964403 
L 325.144877 -235.570295 
L 332.322494 -240.129171 
L 339.50011 -244.640057 
L 346.677726 -249.101711 
L 353.855342 -253.512566 
L 361.032959 -257.870659 
L 368.210575 -262.173543 
L 375.388191 -266.418185 
L 382.565807 -270.600839 
L 389.743424 -274.716907 
L 396.92104 -278.7608 
L 404.098656 -282.725798 
L 411.276272 -286.603965 
L 418.453889 -290.386168 
L 425.631505 -294.062265 
L 432.809121 -297.62156 
L 432.809121 -313.072383 
L 432.809121 -313.072383 
L 425.631505 -309.905613 
L 418.453889 -306.755005 
L 411.276272 -303.610366 
L 404.098656 -300.462062 
L 396.92104 -297.301466 
L 389.743424 -294.12115 
L 382.565807 -290.914901 
L 375.388191 -287.677634 
L 368.210575 -284.405261 
L 361.032959 -281.094542 
L 353.855342 -277.742949 
L 346.677726 -274.348543 
L 339.50011 -270.909867 
L 332.322494 -267.425862 
L 325.144877 -263.895793 
L 317.967261 -260.319192 
L 310.789645 -256.695811 
L 303.612029 -253.025583 
L 296.434412 -249.308595 
L 289.256796 -245.545055 
L 282.07918 -241.735281 
L 274.901564 -237.879676 
L 267.723947 -233.978721 
L 260.546331 -230.032956 
L 253.368715 -226.042978 
L 246.191099 -222.009425 
L 239.013482 -217.932975 
L 231.835866 -213.814339 
L 224.65825 -209.654251 
L 217.480634 -205.453468 
L 210.303017 -201.212767 
L 203.125401 -196.932936 
L 195.947785 -192.614775 
L 188.770169 -188.25909 
L 181.592552 -183.866693 
L 174.414936 -179.4384 
L 167.23732 -174.975024 
L 160.059704 -170.477378 
L 152.882088 -165.946269 
L 145.704471 -161.382502 
L 138.526855 -156.786871 
L 131.349239 -152.160163 
L 124.171623 -147.503154 
L 116.994006 -142.81661 
L 109.81639 -138.101282 
L 102.638774 -133.35791 
L 95.461158 -128.587218 
L 88.283541 -123.789917 
L 81.105925 -118.966702 
z
" style="stroke: #ec5d57; stroke-opacity: 0.4"/>
    </defs>
    <g clip-path="url(#paca5d142fa)">
     <use xlink:href="#m81d54f0493" x="0" y="342.81687" style="fill: #ec5d57; fill-opacity: 0.4; stroke: #ec5d57; stroke-opacity: 0.4"/>
    </g>
   </g>
   <g id="FillBetweenPolyCollection_3">
    <defs>
     <path id="m6acd8099e1" d="M 81.105925 -128.959671 
L 81.105925 -90.245865 
L 88.283541 -95.673108 
L 95.461158 -101.04591 
L 102.638774 -106.364702 
L 109.81639 -111.629954 
L 116.994006 -116.842177 
L 124.171623 -122.001922 
L 131.349239 -127.109773 
L 138.526855 -132.166348 
L 145.704471 -137.172296 
L 152.882088 -142.12829 
L 160.059704 -147.035027 
L 167.23732 -151.89322 
L 174.414936 -156.7036 
L 181.592552 -161.466904 
L 188.770169 -166.183878 
L 195.947785 -170.855268 
L 203.125401 -175.481817 
L 210.303017 -180.064262 
L 217.480634 -184.60333 
L 224.65825 -189.099734 
L 231.835866 -193.554167 
L 239.013482 -197.967304 
L 246.191099 -202.339793 
L 253.368715 -206.672255 
L 260.546331 -210.965278 
L 267.723947 -215.219417 
L 274.901564 -219.435185 
L 282.07918 -223.613054 
L 289.256796 -227.753443 
L 296.434412 -231.856714 
L 303.612029 -235.923161 
L 310.789645 -239.952996 
L 317.967261 -243.946329 
L 325.144877 -247.903141 
L 332.322494 -251.823241 
L 339.50011 -255.706201 
L 346.677726 -259.551261 
L 353.855342 -263.357165 
L 361.032959 -267.121903 
L 368.210575 -270.842254 
L 375.388191 -274.512991 
L 382.565807 -278.125418 
L 389.743424 -281.664711 
L 396.92104 -285.10532 
L 404.098656 -288.405016 
L 411.276272 -291.505098 
L 418.453889 -294.35454 
L 425.631505 -296.949234 
L 432.809121 -299.330046 
L 432.809121 -304.839142 
L 432.809121 -304.839142 
L 425.631505 -301.620466 
L 418.453889 -298.513695 
L 411.276272 -295.560202 
L 404.098656 -292.756386 
L 396.92104 -290.051726 
L 389.743424 -287.388029 
L 382.565807 -284.723572 
L 375.388191 -282.033314 
L 368.210575 -279.302934 
L 361.032959 -276.524246 
L 353.855342 -273.692528 
L 346.677726 -270.805068 
L 339.50011 -267.860359 
L 332.322494 -264.857655 
L 325.144877 -261.7967 
L 317.967261 -258.677576 
L 310.789645 -255.500597 
L 303.612029 -252.26625 
L 296.434412 -248.975154 
L 289.256796 -245.628025 
L 282.07918 -242.225665 
L 274.901564 -238.768943 
L 267.723947 -235.258786 
L 260.546331 -231.69617 
L 253.368715 -228.082117 
L 246.191099 -224.417686 
L 239.013482 -220.703975 
L 231.835866 -216.942111 
L 224.65825 -213.133248 
L 217.480634 -209.278567 
L 210.303017 -205.379269 
L 203.125401 -201.436574 
L 195.947785 -197.451715 
L 188.770169 -193.425935 
L 181.592552 -189.360485 
L 174.414936 -185.256618 
L 167.23732 -181.115586 
L 160.059704 -176.938633 
L 152.882088 -172.726997 
L 145.704471 -168.481897 
L 138.526855 -164.204537 
L 131.349239 -159.896097 
L 124.171623 -155.557733 
L 116.994006 -151.190569 
L 109.81639 -146.795697 
L 102.638774 -142.374174 
L 95.461158 -137.927017 
L 88.283541 -133.455204 
L 81.105925 -128.959671 
z
" style="stroke: #70bf41; stroke-opacity: 0.4"/>
    </defs>
    <g clip-path="url(#paca5d142fa)">
     <use xlink:href="#m6acd8099e1" x="0" y="342.81687" style="fill: #70bf41; fill-opacity: 0.4; stroke: #70bf41; stroke-opacity: 0.4"/>
    </g>
   </g>
   <g id="FillBetweenPolyCollection_4">
    <defs>
     <path id="md24c365770" d="M 81.105925 -153.782089 
L 81.105925 -117.645473 
L 88.283541 -122.49829 
L 95.461158 -127.29918 
L 102.638774 -132.048737 
L 109.81639 -136.747581 
L 116.994006 -141.396359 
L 124.171623 -145.995741 
L 131.349239 -150.546415 
L 138.526855 -155.049085 
L 145.704471 -159.504465 
L 152.882088 -163.913273 
L 160.059704 -168.276233 
L 167.23732 -172.594063 
L 174.414936 -176.867476 
L 181.592552 -181.097177 
L 188.770169 -185.283853 
L 195.947785 -189.428177 
L 203.125401 -193.530797 
L 210.303017 -197.59234 
L 217.480634 -201.6134 
L 224.65825 -205.594543 
L 231.835866 -209.536297 
L 239.013482 -213.43915 
L 246.191099 -217.303544 
L 253.368715 -221.129875 
L 260.546331 -224.918476 
L 267.723947 -228.669619 
L 274.901564 -232.383498 
L 282.07918 -236.060213 
L 289.256796 -239.699756 
L 296.434412 -243.301979 
L 303.612029 -246.866557 
L 310.789645 -250.392935 
L 317.967261 -253.880247 
L 325.144877 -257.327202 
L 332.322494 -260.73191 
L 339.50011 -264.09162 
L 346.677726 -267.40231 
L 353.855342 -270.658061 
L 361.032959 -273.85009 
L 368.210575 -276.965348 
L 375.388191 -279.984749 
L 382.565807 -282.881772 
L 389.743424 -285.623737 
L 396.92104 -288.179146 
L 404.098656 -290.530339 
L 411.276272 -292.68139 
L 418.453889 -294.652838 
L 425.631505 -296.469879 
L 432.809121 -298.154375 
L 432.809121 -307.737696 
L 432.809121 -307.737696 
L 425.631505 -304.88382 
L 418.453889 -302.059237 
L 411.276272 -299.286321 
L 404.098656 -296.590772 
L 396.92104 -293.993637 
L 389.743424 -291.499495 
L 382.565807 -289.091194 
L 375.388191 -286.737743 
L 368.210575 -284.406968 
L 361.032959 -282.072857 
L 353.855342 -279.716828 
L 346.677726 -277.326339 
L 339.50011 -274.893115 
L 332.322494 -272.411743 
L 325.144877 -269.878708 
L 317.967261 -267.291766 
L 310.789645 -264.649533 
L 303.612029 -261.951225 
L 296.434412 -259.196484 
L 289.256796 -256.38526 
L 282.07918 -253.517736 
L 274.901564 -250.59427 
L 267.723947 -247.61536 
L 260.546331 -244.581615 
L 253.368715 -241.493735 
L 246.191099 -238.352497 
L 239.013482 -235.158743 
L 231.835866 -231.913374 
L 224.65825 -228.617339 
L 217.480634 -225.271634 
L 210.303017 -221.877294 
L 203.125401 -218.435389 
L 195.947785 -214.947023 
L 188.770169 -211.413328 
L 181.592552 -207.835459 
L 174.414936 -204.214595 
L 167.23732 -200.551932 
L 160.059704 -196.848679 
L 152.882088 -193.106057 
L 145.704471 -189.325292 
L 138.526855 -185.507613 
L 131.349239 -181.654245 
L 124.171623 -177.76641 
L 116.994006 -173.845318 
L 109.81639 -169.892162 
L 102.638774 -165.908121 
L 95.461158 -161.894349 
L 88.283541 -157.851972 
L 81.105925 -153.782089 
z
" style="stroke: #51a7f9; stroke-opacity: 0.4"/>
    </defs>
    <g clip-path="url(#paca5d142fa)">
     <use xlink:href="#md24c365770" x="0" y="342.81687" style="fill: #51a7f9; fill-opacity: 0.4; stroke: #51a7f9; stroke-opacity: 0.4"/>
    </g>
   </g>
   <g id="FillBetweenPolyCollection_5">
    <defs>
     <path id="mcb1e1d18ff" d="M 81.105925 -179.401551 
L 81.105925 -130.933965 
L 88.283541 -135.519717 
L 95.461158 -140.058279 
L 102.638774 -144.550074 
L 109.81639 -148.995533 
L 116.994006 -153.395092 
L 124.171623 -157.749188 
L 131.349239 -162.058256 
L 138.526855 -166.322731 
L 145.704471 -170.543042 
L 152.882088 -174.719612 
L 160.059704 -178.852854 
L 167.23732 -182.943171 
L 174.414936 -186.99095 
L 181.592552 -190.996561 
L 188.770169 -194.960354 
L 195.947785 -198.882659 
L 203.125401 -202.763775 
L 210.303017 -206.603973 
L 217.480634 -210.403489 
L 224.65825 -214.16252 
L 231.835866 -217.881213 
L 239.013482 -221.559667 
L 246.191099 -225.197914 
L 253.368715 -228.795916 
L 260.546331 -232.353547 
L 267.723947 -235.87058 
L 274.901564 -239.346664 
L 282.07918 -242.781296 
L 289.256796 -246.17379 
L 296.434412 -249.52323 
L 303.612029 -252.828414 
L 310.789645 -256.087779 
L 317.967261 -259.299303 
L 325.144877 -262.460376 
L 332.322494 -265.567632 
L 339.50011 -268.616741 
L 346.677726 -271.60214 
L 353.855342 -274.516719 
L 361.032959 -277.351497 
L 368.210575 -280.095339 
L 375.388191 -282.734897 
L 382.565807 -285.254996 
L 389.743424 -287.639743 
L 396.92104 -289.874477 
L 404.098656 -291.948194 
L 411.276272 -293.855569 
L 418.453889 -295.597605 
L 425.631505 -297.180616 
L 432.809121 -298.614186 
L 432.809121 -312.866283 
L 432.809121 -312.866283 
L 425.631505 -310.461804 
L 418.453889 -308.10267 
L 411.276272 -305.798971 
L 404.098656 -303.557529 
L 396.92104 -301.379853 
L 389.743424 -299.261125 
L 382.565807 -297.190848 
L 375.388191 -295.154867 
L 368.210575 -293.137797 
L 361.032959 -291.124968 
L 353.855342 -289.10354 
L 346.677726 -287.062885 
L 339.50011 -284.994527 
L 332.322494 -282.891865 
L 325.144877 -280.749841 
L 317.967261 -278.564633 
L 310.789645 -276.333381 
L 303.612029 -274.053982 
L 296.434412 -271.724921 
L 289.256796 -269.345142 
L 282.07918 -266.913948 
L 274.901564 -264.430932 
L 267.723947 -261.895913 
L 260.546331 -259.308896 
L 253.368715 -256.670036 
L 246.191099 -253.979613 
L 239.013482 -251.238008 
L 231.835866 -248.445689 
L 224.65825 -245.603197 
L 217.480634 -242.711134 
L 210.303017 -239.770157 
L 203.125401 -236.780969 
L 195.947785 -233.744311 
L 188.770169 -230.660962 
L 181.592552 -227.531729 
L 174.414936 -224.357447 
L 167.23732 -221.138973 
L 160.059704 -217.877184 
L 152.882088 -214.572975 
L 145.704471 -211.227254 
L 138.526855 -207.840941 
L 131.349239 -204.414966 
L 124.171623 -200.950265 
L 116.994006 -197.447779 
L 109.81639 -193.908451 
L 102.638774 -190.333225 
L 95.461158 -186.723043 
L 88.283541 -183.078841 
L 81.105925 -179.401551 
z
" style="stroke: #6a5acd; stroke-opacity: 0.4"/>
    </defs>
    <g clip-path="url(#paca5d142fa)">
     <use xlink:href="#mcb1e1d18ff" x="0" y="342.81687" style="fill: #6a5acd; fill-opacity: 0.4; stroke: #6a5acd; stroke-opacity: 0.4"/>
    </g>
   </g>
   <g id="matplotlib.axis_1">
    <g id="xtick_1">
     <g id="line2d_1">
      <defs>
       <path id="mdcd0db990b" d="M 0 0 
L 0 3.5 
" style="stroke: #000000; stroke-width: 0.8"/>
      </defs>
      <g>
       <use xlink:href="#mdcd0db990b" x="81.035498" y="303.038745" style="stroke: #000000; stroke-width: 0.8"/>
      </g>
     </g>
     <g id="text_1">
      <!-- 0.20 -->
      <g transform="translate(69.902686 317.637183) scale(0.1 -0.1)">
       <defs>
        <path id="DejaVuSans-30" d="M 2034 4250 
Q 1547 4250 1301 3770 
Q 1056 3291 1056 2328 
Q 1056 1369 1301 889 
Q 1547 409 2034 409 
Q 2525 409 2770 889 
Q 3016 1369 3016 2328 
Q 3016 3291 2770 3770 
Q 2525 4250 2034 4250 
z
M 2034 4750 
Q 2819 4750 3233 4129 
Q 3647 3509 3647 2328 
Q 3647 1150 3233 529 
Q 2819 -91 2034 -91 
Q 1250 -91 836 529 
Q 422 1150 422 2328 
Q 422 3509 836 4129 
Q 1250 4750 2034 4750 
z
" transform="scale(0.015625)"/>
        <path id="DejaVuSans-2e" d="M 684 794 
L 1344 794 
L 1344 0 
L 684 0 
L 684 794 
z
" transform="scale(0.015625)"/>
        <path id="DejaVuSans-32" d="M 1228 531 
L 3431 531 
L 3431 0 
L 469 0 
L 469 531 
Q 828 903 1448 1529 
Q 2069 2156 2228 2338 
Q 2531 2678 2651 2914 
Q 2772 3150 2772 3378 
Q 2772 3750 2511 3984 
Q 2250 4219 1831 4219 
Q 1534 4219 1204 4116 
Q 875 4013 500 3803 
L 500 4441 
Q 881 4594 1212 4672 
Q 1544 4750 1819 4750 
Q 2544 4750 2975 4387 
Q 3406 4025 3406 3419 
Q 3406 3131 3298 2873 
Q 3191 2616 2906 2266 
Q 2828 2175 2409 1742 
Q 1991 1309 1228 531 
z
" transform="scale(0.015625)"/>
       </defs>
       <use xlink:href="#DejaVuSans-30"/>
       <use xlink:href="#DejaVuSans-2e" transform="translate(63.623047 0)"/>
       <use xlink:href="#DejaVuSans-32" transform="translate(95.410156 0)"/>
       <use xlink:href="#DejaVuSans-30" transform="translate(159.033203 0)"/>
      </g>
     </g>
    </g>
    <g id="xtick_2">
     <g id="line2d_2">
      <g>
       <use xlink:href="#mdcd0db990b" x="124.763304" y="303.038745" style="stroke: #000000; stroke-width: 0.8"/>
      </g>
     </g>
     <g id="text_2">
      <!-- 0.22 -->
      <g transform="translate(113.630491 317.637183) scale(0.1 -0.1)">
       <use xlink:href="#DejaVuSans-30"/>
       <use xlink:href="#DejaVuSans-2e" transform="translate(63.623047 0)"/>
       <use xlink:href="#DejaVuSans-32" transform="translate(95.410156 0)"/>
       <use xlink:href="#DejaVuSans-32" transform="translate(159.033203 0)"/>
      </g>
     </g>
    </g>
    <g id="xtick_3">
     <g id="line2d_3">
      <g>
       <use xlink:href="#mdcd0db990b" x="168.491109" y="303.038745" style="stroke: #000000; stroke-width: 0.8"/>
      </g>
     </g>
     <g id="text_3">
      <!-- 0.24 -->
      <g transform="translate(157.358297 317.637183) scale(0.1 -0.1)">
       <defs>
        <path id="DejaVuSans-34" d="M 2419 4116 
L 825 1625 
L 2419 1625 
L 2419 4116 
z
M 2253 4666 
L 3047 4666 
L 3047 1625 
L 3713 1625 
L 3713 1100 
L 3047 1100 
L 3047 0 
L 2419 0 
L 2419 1100 
L 313 1100 
L 313 1709 
L 2253 4666 
z
" transform="scale(0.015625)"/>
       </defs>
       <use xlink:href="#DejaVuSans-30"/>
       <use xlink:href="#DejaVuSans-2e" transform="translate(63.623047 0)"/>
       <use xlink:href="#DejaVuSans-32" transform="translate(95.410156 0)"/>
       <use xlink:href="#DejaVuSans-34" transform="translate(159.033203 0)"/>
      </g>
     </g>
    </g>
    <g id="xtick_4">
     <g id="line2d_4">
      <g>
       <use xlink:href="#mdcd0db990b" x="212.218914" y="303.038745" style="stroke: #000000; stroke-width: 0.8"/>
      </g>
     </g>
     <g id="text_4">
      <!-- 0.26 -->
      <g transform="translate(201.086102 317.637183) scale(0.1 -0.1)">
       <defs>
        <path id="DejaVuSans-36" d="M 2113 2584 
Q 1688 2584 1439 2293 
Q 1191 2003 1191 1497 
Q 1191 994 1439 701 
Q 1688 409 2113 409 
Q 2538 409 2786 701 
Q 3034 994 3034 1497 
Q 3034 2003 2786 2293 
Q 2538 2584 2113 2584 
z
M 3366 4563 
L 3366 3988 
Q 3128 4100 2886 4159 
Q 2644 4219 2406 4219 
Q 1781 4219 1451 3797 
Q 1122 3375 1075 2522 
Q 1259 2794 1537 2939 
Q 1816 3084 2150 3084 
Q 2853 3084 3261 2657 
Q 3669 2231 3669 1497 
Q 3669 778 3244 343 
Q 2819 -91 2113 -91 
Q 1303 -91 875 529 
Q 447 1150 447 2328 
Q 447 3434 972 4092 
Q 1497 4750 2381 4750 
Q 2619 4750 2861 4703 
Q 3103 4656 3366 4563 
z
" transform="scale(0.015625)"/>
       </defs>
       <use xlink:href="#DejaVuSans-30"/>
       <use xlink:href="#DejaVuSans-2e" transform="translate(63.623047 0)"/>
       <use xlink:href="#DejaVuSans-32" transform="translate(95.410156 0)"/>
       <use xlink:href="#DejaVuSans-36" transform="translate(159.033203 0)"/>
      </g>
     </g>
    </g>
    <g id="xtick_5">
     <g id="line2d_5">
      <g>
       <use xlink:href="#mdcd0db990b" x="255.94672" y="303.038745" style="stroke: #000000; stroke-width: 0.8"/>
      </g>
     </g>
     <g id="text_5">
      <!-- 0.28 -->
      <g transform="translate(244.813907 317.637183) scale(0.1 -0.1)">
       <defs>
        <path id="DejaVuSans-38" d="M 2034 2216 
Q 1584 2216 1326 1975 
Q 1069 1734 1069 1313 
Q 1069 891 1326 650 
Q 1584 409 2034 409 
Q 2484 409 2743 651 
Q 3003 894 3003 1313 
Q 3003 1734 2745 1975 
Q 2488 2216 2034 2216 
z
M 1403 2484 
Q 997 2584 770 2862 
Q 544 3141 544 3541 
Q 544 4100 942 4425 
Q 1341 4750 2034 4750 
Q 2731 4750 3128 4425 
Q 3525 4100 3525 3541 
Q 3525 3141 3298 2862 
Q 3072 2584 2669 2484 
Q 3125 2378 3379 2068 
Q 3634 1759 3634 1313 
Q 3634 634 3220 271 
Q 2806 -91 2034 -91 
Q 1263 -91 848 271 
Q 434 634 434 1313 
Q 434 1759 690 2068 
Q 947 2378 1403 2484 
z
M 1172 3481 
Q 1172 3119 1398 2916 
Q 1625 2713 2034 2713 
Q 2441 2713 2670 2916 
Q 2900 3119 2900 3481 
Q 2900 3844 2670 4047 
Q 2441 4250 2034 4250 
Q 1625 4250 1398 4047 
Q 1172 3844 1172 3481 
z
" transform="scale(0.015625)"/>
       </defs>
       <use xlink:href="#DejaVuSans-30"/>
       <use xlink:href="#DejaVuSans-2e" transform="translate(63.623047 0)"/>
       <use xlink:href="#DejaVuSans-32" transform="translate(95.410156 0)"/>
       <use xlink:href="#DejaVuSans-38" transform="translate(159.033203 0)"/>
      </g>
     </g>
    </g>
    <g id="xtick_6">
     <g id="line2d_6">
      <g>
       <use xlink:href="#mdcd0db990b" x="299.674525" y="303.038745" style="stroke: #000000; stroke-width: 0.8"/>
      </g>
     </g>
     <g id="text_6">
      <!-- 0.30 -->
      <g transform="translate(288.541713 317.637183) scale(0.1 -0.1)">
       <defs>
        <path id="DejaVuSans-33" d="M 2597 2516 
Q 3050 2419 3304 2112 
Q 3559 1806 3559 1356 
Q 3559 666 3084 287 
Q 2609 -91 1734 -91 
Q 1441 -91 1130 -33 
Q 819 25 488 141 
L 488 750 
Q 750 597 1062 519 
Q 1375 441 1716 441 
Q 2309 441 2620 675 
Q 2931 909 2931 1356 
Q 2931 1769 2642 2001 
Q 2353 2234 1838 2234 
L 1294 2234 
L 1294 2753 
L 1863 2753 
Q 2328 2753 2575 2939 
Q 2822 3125 2822 3475 
Q 2822 3834 2567 4026 
Q 2313 4219 1838 4219 
Q 1578 4219 1281 4162 
Q 984 4106 628 3988 
L 628 4550 
Q 988 4650 1302 4700 
Q 1616 4750 1894 4750 
Q 2613 4750 3031 4423 
Q 3450 4097 3450 3541 
Q 3450 3153 3228 2886 
Q 3006 2619 2597 2516 
z
" transform="scale(0.015625)"/>
       </defs>
       <use xlink:href="#DejaVuSans-30"/>
       <use xlink:href="#DejaVuSans-2e" transform="translate(63.623047 0)"/>
       <use xlink:href="#DejaVuSans-33" transform="translate(95.410156 0)"/>
       <use xlink:href="#DejaVuSans-30" transform="translate(159.033203 0)"/>
      </g>
     </g>
    </g>
    <g id="xtick_7">
     <g id="line2d_7">
      <g>
       <use xlink:href="#mdcd0db990b" x="343.402331" y="303.038745" style="stroke: #000000; stroke-width: 0.8"/>
      </g>
     </g>
     <g id="text_7">
      <!-- 0.32 -->
      <g transform="translate(332.269518 317.637183) scale(0.1 -0.1)">
       <use xlink:href="#DejaVuSans-30"/>
       <use xlink:href="#DejaVuSans-2e" transform="translate(63.623047 0)"/>
       <use xlink:href="#DejaVuSans-33" transform="translate(95.410156 0)"/>
       <use xlink:href="#DejaVuSans-32" transform="translate(159.033203 0)"/>
      </g>
     </g>
    </g>
    <g id="xtick_8">
     <g id="line2d_8">
      <g>
       <use xlink:href="#mdcd0db990b" x="387.130136" y="303.038745" style="stroke: #000000; stroke-width: 0.8"/>
      </g>
     </g>
     <g id="text_8">
      <!-- 0.34 -->
      <g transform="translate(375.997324 317.637183) scale(0.1 -0.1)">
       <use xlink:href="#DejaVuSans-30"/>
       <use xlink:href="#DejaVuSans-2e" transform="translate(63.623047 0)"/>
       <use xlink:href="#DejaVuSans-33" transform="translate(95.410156 0)"/>
       <use xlink:href="#DejaVuSans-34" transform="translate(159.033203 0)"/>
      </g>
     </g>
    </g>
    <g id="xtick_9">
     <g id="line2d_9">
      <g>
       <use xlink:href="#mdcd0db990b" x="430.857942" y="303.038745" style="stroke: #000000; stroke-width: 0.8"/>
      </g>
     </g>
     <g id="text_9">
      <!-- 0.36 -->
      <g transform="translate(419.725129 317.637183) scale(0.1 -0.1)">
       <use xlink:href="#DejaVuSans-30"/>
       <use xlink:href="#DejaVuSans-2e" transform="translate(63.623047 0)"/>
       <use xlink:href="#DejaVuSans-33" transform="translate(95.410156 0)"/>
       <use xlink:href="#DejaVuSans-36" transform="translate(159.033203 0)"/>
      </g>
     </g>
    </g>
    <g id="text_10">
     <!-- $s^2_F$ -->
     <g transform="translate(252.018125 332.81687) scale(0.1 -0.1)">
      <defs>
       <path id="DejaVuSans-Oblique-73" d="M 3200 3397 
L 3091 2853 
Q 2863 2978 2609 3040 
Q 2356 3103 2088 3103 
Q 1634 3103 1373 2948 
Q 1113 2794 1113 2528 
Q 1113 2219 1719 2053 
Q 1766 2041 1788 2034 
L 1972 1978 
Q 2547 1819 2739 1644 
Q 2931 1469 2931 1166 
Q 2931 609 2489 259 
Q 2047 -91 1331 -91 
Q 1053 -91 747 -37 
Q 441 16 72 128 
L 184 722 
Q 500 559 806 475 
Q 1113 391 1394 391 
Q 1816 391 2080 572 
Q 2344 753 2344 1031 
Q 2344 1331 1650 1516 
L 1591 1531 
L 1394 1581 
Q 956 1697 753 1886 
Q 550 2075 550 2369 
Q 550 2928 970 3256 
Q 1391 3584 2113 3584 
Q 2397 3584 2667 3537 
Q 2938 3491 3200 3397 
z
" transform="scale(0.015625)"/>
       <path id="DejaVuSans-Oblique-46" d="M 1081 4666 
L 3756 4666 
L 3653 4134 
L 1606 4134 
L 1338 2759 
L 3188 2759 
L 3084 2228 
L 1234 2228 
L 800 0 
L 172 0 
L 1081 4666 
z
" transform="scale(0.015625)"/>
      </defs>
      <use xlink:href="#DejaVuSans-Oblique-73" transform="translate(0 0.765625)"/>
      <use xlink:href="#DejaVuSans-32" transform="translate(56.749505 39.046875) scale(0.7)"/>
      <use xlink:href="#DejaVuSans-Oblique-46" transform="translate(52.099609 -26.578125) scale(0.7)"/>
     </g>
    </g>
   </g>
   <g id="matplotlib.axis_2">
    <g id="ytick_1">
     <g id="line2d_10">
      <defs>
       <path id="mbbecc7c6f6" d="M 0 0 
L -3.5 0 
" style="stroke: #000000; stroke-width: 0.8"/>
      </defs>
      <g>
       <use xlink:href="#mbbecc7c6f6" x="61.428125" y="276.192758" style="stroke: #000000; stroke-width: 0.8"/>
      </g>
     </g>
     <g id="text_11">
      <!-- 1.025 -->
      <g transform="translate(25.8 279.991977) scale(0.1 -0.1)">
       <defs>
        <path id="DejaVuSans-31" d="M 794 531 
L 1825 531 
L 1825 4091 
L 703 3866 
L 703 4441 
L 1819 4666 
L 2450 4666 
L 2450 531 
L 3481 531 
L 3481 0 
L 794 0 
L 794 531 
z
" transform="scale(0.015625)"/>
        <path id="DejaVuSans-35" d="M 691 4666 
L 3169 4666 
L 3169 4134 
L 1269 4134 
L 1269 2991 
Q 1406 3038 1543 3061 
Q 1681 3084 1819 3084 
Q 2600 3084 3056 2656 
Q 3513 2228 3513 1497 
Q 3513 744 3044 326 
Q 2575 -91 1722 -91 
Q 1428 -91 1123 -41 
Q 819 9 494 109 
L 494 744 
Q 775 591 1075 516 
Q 1375 441 1709 441 
Q 2250 441 2565 725 
Q 2881 1009 2881 1497 
Q 2881 1984 2565 2268 
Q 2250 2553 1709 2553 
Q 1456 2553 1204 2497 
Q 953 2441 691 2322 
L 691 4666 
z
" transform="scale(0.015625)"/>
       </defs>
       <use xlink:href="#DejaVuSans-31"/>
       <use xlink:href="#DejaVuSans-2e" transform="translate(63.623047 0)"/>
       <use xlink:href="#DejaVuSans-30" transform="translate(95.410156 0)"/>
       <use xlink:href="#DejaVuSans-32" transform="translate(159.033203 0)"/>
       <use xlink:href="#DejaVuSans-35" transform="translate(222.65625 0)"/>
      </g>
     </g>
    </g>
    <g id="ytick_2">
     <g id="line2d_11">
      <g>
       <use xlink:href="#mbbecc7c6f6" x="61.428125" y="243.043565" style="stroke: #000000; stroke-width: 0.8"/>
      </g>
     </g>
     <g id="text_12">
      <!-- 1.050 -->
      <g transform="translate(25.8 246.842784) scale(0.1 -0.1)">
       <use xlink:href="#DejaVuSans-31"/>
       <use xlink:href="#DejaVuSans-2e" transform="translate(63.623047 0)"/>
       <use xlink:href="#DejaVuSans-30" transform="translate(95.410156 0)"/>
       <use xlink:href="#DejaVuSans-35" transform="translate(159.033203 0)"/>
       <use xlink:href="#DejaVuSans-30" transform="translate(222.65625 0)"/>
      </g>
     </g>
    </g>
    <g id="ytick_3">
     <g id="line2d_12">
      <g>
       <use xlink:href="#mbbecc7c6f6" x="61.428125" y="209.894373" style="stroke: #000000; stroke-width: 0.8"/>
      </g>
     </g>
     <g id="text_13">
      <!-- 1.075 -->
      <g transform="translate(25.8 213.693592) scale(0.1 -0.1)">
       <defs>
        <path id="DejaVuSans-37" d="M 525 4666 
L 3525 4666 
L 3525 4397 
L 1831 0 
L 1172 0 
L 2766 4134 
L 525 4134 
L 525 4666 
z
" transform="scale(0.015625)"/>
       </defs>
       <use xlink:href="#DejaVuSans-31"/>
       <use xlink:href="#DejaVuSans-2e" transform="translate(63.623047 0)"/>
       <use xlink:href="#DejaVuSans-30" transform="translate(95.410156 0)"/>
       <use xlink:href="#DejaVuSans-37" transform="translate(159.033203 0)"/>
       <use xlink:href="#DejaVuSans-35" transform="translate(222.65625 0)"/>
      </g>
     </g>
    </g>
    <g id="ytick_4">
     <g id="line2d_13">
      <g>
       <use xlink:href="#mbbecc7c6f6" x="61.428125" y="176.745181" style="stroke: #000000; stroke-width: 0.8"/>
      </g>
     </g>
     <g id="text_14">
      <!-- 1.100 -->
      <g transform="translate(25.8 180.544399) scale(0.1 -0.1)">
       <use xlink:href="#DejaVuSans-31"/>
       <use xlink:href="#DejaVuSans-2e" transform="translate(63.623047 0)"/>
       <use xlink:href="#DejaVuSans-31" transform="translate(95.410156 0)"/>
       <use xlink:href="#DejaVuSans-30" transform="translate(159.033203 0)"/>
       <use xlink:href="#DejaVuSans-30" transform="translate(222.65625 0)"/>
      </g>
     </g>
    </g>
    <g id="ytick_5">
     <g id="line2d_14">
      <g>
       <use xlink:href="#mbbecc7c6f6" x="61.428125" y="143.595988" style="stroke: #000000; stroke-width: 0.8"/>
      </g>
     </g>
     <g id="text_15">
      <!-- 1.125 -->
      <g transform="translate(25.8 147.395207) scale(0.1 -0.1)">
       <use xlink:href="#DejaVuSans-31"/>
       <use xlink:href="#DejaVuSans-2e" transform="translate(63.623047 0)"/>
       <use xlink:href="#DejaVuSans-31" transform="translate(95.410156 0)"/>
       <use xlink:href="#DejaVuSans-32" transform="translate(159.033203 0)"/>
       <use xlink:href="#DejaVuSans-35" transform="translate(222.65625 0)"/>
      </g>
     </g>
    </g>
    <g id="ytick_6">
     <g id="line2d_15">
      <g>
       <use xlink:href="#mbbecc7c6f6" x="61.428125" y="110.446796" style="stroke: #000000; stroke-width: 0.8"/>
      </g>
     </g>
     <g id="text_16">
      <!-- 1.150 -->
      <g transform="translate(25.8 114.246015) scale(0.1 -0.1)">
       <use xlink:href="#DejaVuSans-31"/>
       <use xlink:href="#DejaVuSans-2e" transform="translate(63.623047 0)"/>
       <use xlink:href="#DejaVuSans-31" transform="translate(95.410156 0)"/>
       <use xlink:href="#DejaVuSans-35" transform="translate(159.033203 0)"/>
       <use xlink:href="#DejaVuSans-30" transform="translate(222.65625 0)"/>
      </g>
     </g>
    </g>
    <g id="ytick_7">
     <g id="line2d_16">
      <g>
       <use xlink:href="#mbbecc7c6f6" x="61.428125" y="77.297604" style="stroke: #000000; stroke-width: 0.8"/>
      </g>
     </g>
     <g id="text_17">
      <!-- 1.175 -->
      <g transform="translate(25.8 81.096822) scale(0.1 -0.1)">
       <use xlink:href="#DejaVuSans-31"/>
       <use xlink:href="#DejaVuSans-2e" transform="translate(63.623047 0)"/>
       <use xlink:href="#DejaVuSans-31" transform="translate(95.410156 0)"/>
       <use xlink:href="#DejaVuSans-37" transform="translate(159.033203 0)"/>
       <use xlink:href="#DejaVuSans-35" transform="translate(222.65625 0)"/>
      </g>
     </g>
    </g>
    <g id="ytick_8">
     <g id="line2d_17">
      <g>
       <use xlink:href="#mbbecc7c6f6" x="61.428125" y="44.148411" style="stroke: #000000; stroke-width: 0.8"/>
      </g>
     </g>
     <g id="text_18">
      <!-- 1.200 -->
      <g transform="translate(25.8 47.94763) scale(0.1 -0.1)">
       <use xlink:href="#DejaVuSans-31"/>
       <use xlink:href="#DejaVuSans-2e" transform="translate(63.623047 0)"/>
       <use xlink:href="#DejaVuSans-32" transform="translate(95.410156 0)"/>
       <use xlink:href="#DejaVuSans-30" transform="translate(159.033203 0)"/>
       <use xlink:href="#DejaVuSans-30" transform="translate(222.65625 0)"/>
      </g>
     </g>
    </g>
    <g id="ytick_9">
     <g id="line2d_18">
      <g>
       <use xlink:href="#mbbecc7c6f6" x="61.428125" y="10.999219" style="stroke: #000000; stroke-width: 0.8"/>
      </g>
     </g>
     <g id="text_19">
      <!-- 1.225 -->
      <g transform="translate(25.8 14.798438) scale(0.1 -0.1)">
       <use xlink:href="#DejaVuSans-31"/>
       <use xlink:href="#DejaVuSans-2e" transform="translate(63.623047 0)"/>
       <use xlink:href="#DejaVuSans-32" transform="translate(95.410156 0)"/>
       <use xlink:href="#DejaVuSans-32" transform="translate(159.033203 0)"/>
       <use xlink:href="#DejaVuSans-35" transform="translate(222.65625 0)"/>
      </g>
     </g>
    </g>
    <g id="text_20">
     <!-- $m_\Omega \sqrt{t_0 / a^2}$ -->
     <g transform="translate(19.720313 180.758745) rotate(-90) scale(0.1 -0.1)">
      <defs>
       <path id="DejaVuSans-Oblique-6d" d="M 5747 2113 
L 5338 0 
L 4763 0 
L 5166 2094 
Q 5191 2228 5203 2325 
Q 5216 2422 5216 2491 
Q 5216 2772 5059 2928 
Q 4903 3084 4622 3084 
Q 4203 3084 3875 2770 
Q 3547 2456 3450 1953 
L 3066 0 
L 2491 0 
L 2900 2094 
Q 2925 2209 2937 2307 
Q 2950 2406 2950 2484 
Q 2950 2769 2794 2926 
Q 2638 3084 2363 3084 
Q 1938 3084 1609 2770 
Q 1281 2456 1184 1953 
L 800 0 
L 225 0 
L 909 3500 
L 1484 3500 
L 1375 2956 
Q 1609 3263 1923 3423 
Q 2238 3584 2597 3584 
Q 2978 3584 3223 3384 
Q 3469 3184 3519 2828 
Q 3781 3197 4126 3390 
Q 4472 3584 4856 3584 
Q 5306 3584 5551 3325 
Q 5797 3066 5797 2591 
Q 5797 2488 5784 2364 
Q 5772 2241 5747 2113 
z
" transform="scale(0.015625)"/>
       <path id="DejaVuSans-3a9" d="M 4647 556 
L 4647 0 
L 2772 0 
L 2772 556 
Q 3325 859 3634 1378 
Q 3944 1897 3944 2528 
Q 3944 3278 3531 3731 
Q 3119 4184 2444 4184 
Q 1769 4184 1355 3729 
Q 941 3275 941 2528 
Q 941 1897 1250 1378 
Q 1563 859 2119 556 
L 2119 0 
L 244 0 
L 244 556 
L 1241 556 
Q 747 991 519 1456 
Q 294 1922 294 2497 
Q 294 3491 894 4106 
Q 1491 4722 2444 4722 
Q 3391 4722 3994 4106 
Q 4594 3494 4594 2528 
Q 4594 1922 4372 1459 
Q 4150 997 3647 556 
L 4647 556 
z
" transform="scale(0.015625)"/>
       <path id="STIXSizeOneSym-Regular-221a" d="M 6970 9933 
L 3373 -1888 
L 3104 -1888 
L 1626 2918 
Q 1555 3149 1465 3251 
Q 1376 3354 1229 3354 
Q 1011 3354 794 3181 
L 717 3309 
L 1766 4115 
L 1926 4115 
L 3379 -602 
L 3405 -602 
L 6605 9933 
L 6970 9933 
z
" transform="scale(0.015625)"/>
       <path id="DejaVuSans-Oblique-74" d="M 2706 3500 
L 2619 3053 
L 1472 3053 
L 1100 1153 
Q 1081 1047 1072 975 
Q 1063 903 1063 863 
Q 1063 663 1183 572 
Q 1303 481 1569 481 
L 2150 481 
L 2053 0 
L 1503 0 
Q 991 0 739 200 
Q 488 400 488 806 
Q 488 878 497 964 
Q 506 1050 525 1153 
L 897 3053 
L 409 3053 
L 500 3500 
L 978 3500 
L 1172 4494 
L 1747 4494 
L 1556 3500 
L 2706 3500 
z
" transform="scale(0.015625)"/>
       <path id="DejaVuSans-2f" d="M 1625 4666 
L 2156 4666 
L 531 -594 
L 0 -594 
L 1625 4666 
z
" transform="scale(0.015625)"/>
       <path id="DejaVuSans-Oblique-61" d="M 3438 1997 
L 3047 0 
L 2472 0 
L 2578 531 
Q 2325 219 2001 64 
Q 1678 -91 1281 -91 
Q 834 -91 548 182 
Q 263 456 263 884 
Q 263 1497 752 1853 
Q 1241 2209 2100 2209 
L 2900 2209 
L 2931 2363 
Q 2938 2388 2941 2417 
Q 2944 2447 2944 2509 
Q 2944 2788 2717 2942 
Q 2491 3097 2081 3097 
Q 1800 3097 1504 3025 
Q 1209 2953 897 2809 
L 997 3341 
Q 1322 3463 1633 3523 
Q 1944 3584 2234 3584 
Q 2853 3584 3176 3315 
Q 3500 3047 3500 2534 
Q 3500 2431 3484 2292 
Q 3469 2153 3438 1997 
z
M 2816 1759 
L 2241 1759 
Q 1534 1759 1195 1570 
Q 856 1381 856 984 
Q 856 709 1029 553 
Q 1203 397 1509 397 
Q 1978 397 2328 733 
Q 2678 1069 2791 1631 
L 2816 1759 
z
" transform="scale(0.015625)"/>
      </defs>
      <use xlink:href="#DejaVuSans-Oblique-6d" transform="translate(0 0.870312)"/>
      <use xlink:href="#DejaVuSans-3a9" transform="translate(97.412109 -15.535937) scale(0.7)"/>
      <use xlink:href="#STIXSizeOneSym-Regular-221a" transform="translate(153.637695 5.59375) scale(0.751941)"/>
      <use xlink:href="#DejaVuSans-Oblique-74" transform="translate(245.676941 0.515625)"/>
      <use xlink:href="#DejaVuSans-30" transform="translate(284.885925 -15.890625) scale(0.7)"/>
      <use xlink:href="#DejaVuSans-2f" transform="translate(332.156433 0.515625)"/>
      <use xlink:href="#DejaVuSans-Oblique-61" transform="translate(365.847839 0.515625)"/>
      <use xlink:href="#DejaVuSans-32" transform="translate(431.777032 38.796875) scale(0.7)"/>
      <path d="M 233.176941 115.5 
L 233.176941 121.75 
L 491.54754 121.75 
L 491.54754 115.5 
L 233.176941 115.5 
z
"/>
     </g>
    </g>
   </g>
   <g id="line2d_19">
    <path d="M 409.651255 303.038745 
L 409.651255 9.278745 
" clip-path="url(#paca5d142fa)" style="fill: none; stroke-dasharray: 5.55,2.4; stroke-dashoffset: 0; stroke: #1f77b4; stroke-width: 1.5"/>
   </g>
   <g id="line2d_20">
    <path d="M 409.651255 303.038745 
L 409.651255 9.278745 
" clip-path="url(#paca5d142fa)" style="fill: none; stroke-dasharray: 5.55,2.4; stroke-dashoffset: 0; stroke: #1f77b4; stroke-width: 1.5"/>
   </g>
   <g id="line2d_21">
    <path d="M 409.651255 303.038745 
L 409.651255 9.278745 
" clip-path="url(#paca5d142fa)" style="fill: none; stroke-dasharray: 5.55,2.4; stroke-dashoffset: 0; stroke: #1f77b4; stroke-width: 1.5"/>
   </g>
   <g id="line2d_22">
    <path d="M 409.651255 303.038745 
L 409.651255 9.278745 
" clip-path="url(#paca5d142fa)" style="fill: none; stroke-dasharray: 5.55,2.4; stroke-dashoffset: 0; stroke: #1f77b4; stroke-width: 1.5"/>
   </g>
   <g id="line2d_23">
    <path d="M 409.651255 303.038745 
L 409.651255 9.278745 
" clip-path="url(#paca5d142fa)" style="fill: none; stroke-dasharray: 5.55,2.4; stroke-dashoffset: 0; stroke: #1f77b4; stroke-width: 1.5"/>
   </g>
   <g id="line2d_24">
    <path d="M 246.495169 135.719268 
L 242.347745 135.713789 
" clip-path="url(#paca5d142fa)" style="fill: none; stroke: #ec5d57; stroke-width: 2; stroke-linecap: square"/>
   </g>
   <g id="line2d_25">
    <path d="M 244.472824 121.415679 
L 244.370091 150.017378 
" clip-path="url(#paca5d142fa)" style="fill: none; stroke: #ec5d57; stroke-width: 2; stroke-linecap: square"/>
   </g>
   <g id="line2d_26">
    <path d="M 283.077775 118.48279 
L 278.986356 118.474696 
" clip-path="url(#paca5d142fa)" style="fill: none; stroke: #ec5d57; stroke-width: 2; stroke-linecap: square"/>
   </g>
   <g id="line2d_27">
    <path d="M 281.095318 106.719875 
L 280.968813 130.237611 
" clip-path="url(#paca5d142fa)" style="fill: none; stroke: #ec5d57; stroke-width: 2; stroke-linecap: square"/>
   </g>
   <g id="line2d_28">
    <path d="M 298.615342 98.960453 
L 293.709242 98.986114 
" clip-path="url(#paca5d142fa)" style="fill: none; stroke: #ec5d57; stroke-width: 2; stroke-linecap: square"/>
   </g>
   <g id="line2d_29">
    <path d="M 296.009952 88.261025 
L 296.314632 109.685542 
" clip-path="url(#paca5d142fa)" style="fill: none; stroke: #ec5d57; stroke-width: 2; stroke-linecap: square"/>
   </g>
   <g id="line2d_30">
    <path d="M 309.125696 97.969749 
L 305.398634 97.963898 
" clip-path="url(#paca5d142fa)" style="fill: none; stroke: #ec5d57; stroke-width: 2; stroke-linecap: square"/>
   </g>
   <g id="line2d_31">
    <path d="M 307.305995 87.698122 
L 307.218335 108.235525 
" clip-path="url(#paca5d142fa)" style="fill: none; stroke: #ec5d57; stroke-width: 2; stroke-linecap: square"/>
   </g>
   <g id="line2d_32">
    <path d="M 356.983338 75.898268 
L 353.154054 75.930807 
" clip-path="url(#paca5d142fa)" style="fill: none; stroke: #ec5d57; stroke-width: 2; stroke-linecap: square"/>
   </g>
   <g id="line2d_33">
    <path d="M 354.915269 69.273475 
L 355.222123 82.5556 
" clip-path="url(#paca5d142fa)" style="fill: none; stroke: #ec5d57; stroke-width: 2; stroke-linecap: square"/>
   </g>
   <g id="line2d_34">
    <path d="M 435.304489 41.092152 
L 430.313754 41.133255 
" clip-path="url(#paca5d142fa)" style="fill: none; stroke: #ec5d57; stroke-width: 2; stroke-linecap: square"/>
   </g>
   <g id="line2d_35">
    <path d="M 432.753496 38.628638 
L 432.864746 43.596769 
" clip-path="url(#paca5d142fa)" style="fill: none; stroke: #ec5d57; stroke-width: 2; stroke-linecap: square"/>
   </g>
   <g id="line2d_36">
    <path d="M 224.832018 134.063125 
L 220.615911 134.045323 
" clip-path="url(#paca5d142fa)" style="fill: none; stroke: #70bf41; stroke-width: 2; stroke-linecap: square"/>
   </g>
   <g id="line2d_37">
    <path d="M 222.850481 123.033537 
L 222.597449 145.07491 
" clip-path="url(#paca5d142fa)" style="fill: none; stroke: #70bf41; stroke-width: 2; stroke-linecap: square"/>
   </g>
   <g id="line2d_38">
    <path d="M 261.050536 124.730914 
L 255.227811 124.720768 
" clip-path="url(#paca5d142fa)" style="fill: none; stroke: #70bf41; stroke-width: 2; stroke-linecap: square"/>
   </g>
   <g id="line2d_39">
    <path d="M 258.186342 114.769911 
L 258.092005 134.681771 
" clip-path="url(#paca5d142fa)" style="fill: none; stroke: #70bf41; stroke-width: 2; stroke-linecap: square"/>
   </g>
   <g id="line2d_40">
    <path d="M 282.239406 107.842731 
L 277.16945 107.859583 
" clip-path="url(#paca5d142fa)" style="fill: none; stroke: #70bf41; stroke-width: 2; stroke-linecap: square"/>
   </g>
   <g id="line2d_41">
    <path d="M 279.610722 97.482402 
L 279.798134 118.219911 
" clip-path="url(#paca5d142fa)" style="fill: none; stroke: #70bf41; stroke-width: 2; stroke-linecap: square"/>
   </g>
   <g id="line2d_42">
    <path d="M 287.540747 103.153088 
L 282.503168 103.160127 
" clip-path="url(#paca5d142fa)" style="fill: none; stroke: #70bf41; stroke-width: 2; stroke-linecap: square"/>
   </g>
   <g id="line2d_43">
    <path d="M 284.987152 93.99535 
L 285.056762 112.317864 
" clip-path="url(#paca5d142fa)" style="fill: none; stroke: #70bf41; stroke-width: 2; stroke-linecap: square"/>
   </g>
   <g id="line2d_44">
    <path d="M 82.980089 225.452547 
L 79.231761 225.458636 
" clip-path="url(#paca5d142fa)" style="fill: none; stroke: #70bf41; stroke-width: 2; stroke-linecap: square"/>
   </g>
   <g id="line2d_45">
    <path d="M 81.028839 208.001193 
L 81.183011 242.909989 
" clip-path="url(#paca5d142fa)" style="fill: none; stroke: #70bf41; stroke-width: 2; stroke-linecap: square"/>
   </g>
   <g id="line2d_46">
    <path d="M 349.705202 71.848754 
L 341.424765 71.855643 
" clip-path="url(#paca5d142fa)" style="fill: none; stroke: #70bf41; stroke-width: 2; stroke-linecap: square"/>
   </g>
   <g id="line2d_47">
    <path d="M 345.55187 66.054304 
L 345.578096 77.650093 
" clip-path="url(#paca5d142fa)" style="fill: none; stroke: #70bf41; stroke-width: 2; stroke-linecap: square"/>
   </g>
   <g id="line2d_48">
    <path d="M 345.523812 73.483028 
L 339.224463 73.503778 
" clip-path="url(#paca5d142fa)" style="fill: none; stroke: #70bf41; stroke-width: 2; stroke-linecap: square"/>
   </g>
   <g id="line2d_49">
    <path d="M 342.31516 66.908 
L 342.433115 80.078806 
" clip-path="url(#paca5d142fa)" style="fill: none; stroke: #70bf41; stroke-width: 2; stroke-linecap: square"/>
   </g>
   <g id="line2d_50">
    <path d="M 347.066412 76.655889 
L 340.515471 76.684067 
" clip-path="url(#paca5d142fa)" style="fill: none; stroke: #70bf41; stroke-width: 2; stroke-linecap: square"/>
   </g>
   <g id="line2d_51">
    <path d="M 343.667041 66.075479 
L 343.914842 87.264477 
" clip-path="url(#paca5d142fa)" style="fill: none; stroke: #70bf41; stroke-width: 2; stroke-linecap: square"/>
   </g>
   <g id="line2d_52">
    <path d="M 372.199384 56.717444 
L 366.63346 56.769786 
" clip-path="url(#paca5d142fa)" style="fill: none; stroke: #70bf41; stroke-width: 2; stroke-linecap: square"/>
   </g>
   <g id="line2d_53">
    <path d="M 369.289479 51.778731 
L 369.543365 61.708498 
" clip-path="url(#paca5d142fa)" style="fill: none; stroke: #70bf41; stroke-width: 2; stroke-linecap: square"/>
   </g>
   <g id="line2d_54">
    <path d="M 396.456695 55.84022 
L 390.447718 55.880605 
" clip-path="url(#paca5d142fa)" style="fill: none; stroke: #70bf41; stroke-width: 2; stroke-linecap: square"/>
   </g>
   <g id="line2d_55">
    <path d="M 393.377596 51.777247 
L 393.526817 59.943578 
" clip-path="url(#paca5d142fa)" style="fill: none; stroke: #70bf41; stroke-width: 2; stroke-linecap: square"/>
   </g>
   <g id="line2d_56">
    <path d="M 222.54079 117.252527 
L 218.656921 117.256186 
" clip-path="url(#paca5d142fa)" style="fill: none; stroke: #51a7f9; stroke-width: 2; stroke-linecap: square"/>
   </g>
   <g id="line2d_57">
    <path d="M 220.564692 103.915894 
L 220.63302 130.592819 
" clip-path="url(#paca5d142fa)" style="fill: none; stroke: #51a7f9; stroke-width: 2; stroke-linecap: square"/>
   </g>
   <g id="line2d_58">
    <path d="M 264.159308 114.859193 
L 259.325895 114.869821 
" clip-path="url(#paca5d142fa)" style="fill: none; stroke: #51a7f9; stroke-width: 2; stroke-linecap: square"/>
   </g>
   <g id="line2d_59">
    <path d="M 261.665095 101.899723 
L 261.820108 127.829291 
" clip-path="url(#paca5d142fa)" style="fill: none; stroke: #51a7f9; stroke-width: 2; stroke-linecap: square"/>
   </g>
   <g id="line2d_60">
    <path d="M 290.070489 91.5852 
L 285.808219 91.594126 
" clip-path="url(#paca5d142fa)" style="fill: none; stroke: #51a7f9; stroke-width: 2; stroke-linecap: square"/>
   </g>
   <g id="line2d_61">
    <path d="M 287.871497 79.671612 
L 288.007211 103.507715 
" clip-path="url(#paca5d142fa)" style="fill: none; stroke: #51a7f9; stroke-width: 2; stroke-linecap: square"/>
   </g>
   <g id="line2d_62">
    <path d="M 363.305154 65.812361 
L 357.778989 65.819759 
" clip-path="url(#paca5d142fa)" style="fill: none; stroke: #51a7f9; stroke-width: 2; stroke-linecap: square"/>
   </g>
   <g id="line2d_63">
    <path d="M 360.513723 58.027124 
L 360.57042 73.604996 
" clip-path="url(#paca5d142fa)" style="fill: none; stroke: #51a7f9; stroke-width: 2; stroke-linecap: square"/>
   </g>
   <g id="line2d_64">
    <path d="M 412.884992 52.381054 
L 405.260811 52.461127 
" clip-path="url(#paca5d142fa)" style="fill: none; stroke: #51a7f9; stroke-width: 2; stroke-linecap: square"/>
   </g>
   <g id="line2d_65">
    <path d="M 408.915641 46.913805 
L 409.230161 57.928376 
" clip-path="url(#paca5d142fa)" style="fill: none; stroke: #51a7f9; stroke-width: 2; stroke-linecap: square"/>
   </g>
   <g id="line2d_66">
    <path d="M 301.78102 72.427007 
L 294.445168 72.450318 
" clip-path="url(#paca5d142fa)" style="fill: none; stroke: #6a5acd; stroke-width: 2; stroke-linecap: square"/>
   </g>
   <g id="line2d_67">
    <path d="M 298.002941 59.689083 
L 298.223247 85.188242 
" clip-path="url(#paca5d142fa)" style="fill: none; stroke: #6a5acd; stroke-width: 2; stroke-linecap: square"/>
   </g>
   <g id="LineCollection_1"/>
   <g id="LineCollection_2"/>
   <g id="LineCollection_3"/>
   <g id="LineCollection_4"/>
   <g id="LineCollection_5"/>
   <g id="LineCollection_6"/>
   <g id="LineCollection_7"/>
   <g id="LineCollection_8"/>
   <g id="line2d_68"/>
   <g id="line2d_69"/>
   <g id="line2d_70"/>
   <g id="line2d_71"/>
   <g id="patch_3">
    <path d="M 61.428125 303.038745 
L 61.428125 9.278745 
" style="fill: none; stroke: #000000; stroke-width: 0.8; stroke-linejoin: miter; stroke-linecap: square"/>
   </g>
   <g id="patch_4">
    <path d="M 453.108125 303.038745 
L 453.108125 9.278745 
" style="fill: none; stroke: #000000; stroke-width: 0.8; stroke-linejoin: miter; stroke-linecap: square"/>
   </g>
   <g id="patch_5">
    <path d="M 61.428125 303.038745 
L 453.108125 303.038745 
" style="fill: none; stroke: #000000; stroke-width: 0.8; stroke-linejoin: miter; stroke-linecap: square"/>
   </g>
   <g id="patch_6">
    <path d="M 61.428125 9.278745 
L 453.108125 9.278745 
" style="fill: none; stroke: #000000; stroke-width: 0.8; stroke-linejoin: miter; stroke-linecap: square"/>
   </g>
   <g id="line2d_72">
    <path d="M 244.421457 135.716529 
" clip-path="url(#paca5d142fa)" style="fill: none; stroke: #ec5d57; stroke-width: 1.5; stroke-linecap: square"/>
    <defs>
     <path id="m9ea101939d" d="M 0 3 
C 0.795609 3 1.55874 2.683901 2.12132 2.12132 
C 2.683901 1.55874 3 0.795609 3 0 
C 3 -0.795609 2.683901 -1.55874 2.12132 -2.12132 
C 1.55874 -2.683901 0.795609 -3 0 -3 
C -0.795609 -3 -1.55874 -2.683901 -2.12132 -2.12132 
C -2.683901 -1.55874 -3 -0.795609 -3 0 
C -3 0.795609 -2.683901 1.55874 -2.12132 2.12132 
C -1.55874 2.683901 -0.795609 3 0 3 
z
" style="stroke: #ffffff"/>
    </defs>
    <g clip-path="url(#paca5d142fa)">
     <use xlink:href="#m9ea101939d" x="244.421457" y="135.716529" style="fill: #ec5d57; stroke: #ffffff"/>
    </g>
   </g>
   <g id="line2d_73">
    <path d="M 244.421457 135.716529 
" clip-path="url(#paca5d142fa)" style="fill: none; stroke: #ec5d57; stroke-width: 1.5; stroke-linecap: square"/>
    <g clip-path="url(#paca5d142fa)">
     <use xlink:href="#m9ea101939d" x="244.421457" y="135.716529" style="fill: #ec5d57; stroke: #ffffff"/>
    </g>
   </g>
   <g id="line2d_74">
    <path d="M 281.032065 118.478743 
" clip-path="url(#paca5d142fa)" style="fill: none; stroke: #ec5d57; stroke-width: 1.5; stroke-linecap: square"/>
    <g clip-path="url(#paca5d142fa)">
     <use xlink:href="#m9ea101939d" x="281.032065" y="118.478743" style="fill: #ec5d57; stroke: #ffffff"/>
    </g>
   </g>
   <g id="line2d_75">
    <path d="M 281.032065 118.478743 
" clip-path="url(#paca5d142fa)" style="fill: none; stroke: #ec5d57; stroke-width: 1.5; stroke-linecap: square"/>
    <g clip-path="url(#paca5d142fa)">
     <use xlink:href="#m9ea101939d" x="281.032065" y="118.478743" style="fill: #ec5d57; stroke: #ffffff"/>
    </g>
   </g>
   <g id="line2d_76">
    <path d="M 296.162292 98.973283 
" clip-path="url(#paca5d142fa)" style="fill: none; stroke: #ec5d57; stroke-width: 1.5; stroke-linecap: square"/>
    <g clip-path="url(#paca5d142fa)">
     <use xlink:href="#m9ea101939d" x="296.162292" y="98.973283" style="fill: #ec5d57; stroke: #ffffff"/>
    </g>
   </g>
   <g id="line2d_77">
    <path d="M 296.162292 98.973283 
" clip-path="url(#paca5d142fa)" style="fill: none; stroke: #ec5d57; stroke-width: 1.5; stroke-linecap: square"/>
    <g clip-path="url(#paca5d142fa)">
     <use xlink:href="#m9ea101939d" x="296.162292" y="98.973283" style="fill: #ec5d57; stroke: #ffffff"/>
    </g>
   </g>
   <g id="line2d_78">
    <path d="M 307.262165 97.966823 
" clip-path="url(#paca5d142fa)" style="fill: none; stroke: #ec5d57; stroke-width: 1.5; stroke-linecap: square"/>
    <g clip-path="url(#paca5d142fa)">
     <use xlink:href="#m9ea101939d" x="307.262165" y="97.966823" style="fill: #ec5d57; stroke: #ffffff"/>
    </g>
   </g>
   <g id="line2d_79">
    <path d="M 307.262165 97.966823 
" clip-path="url(#paca5d142fa)" style="fill: none; stroke: #ec5d57; stroke-width: 1.5; stroke-linecap: square"/>
    <g clip-path="url(#paca5d142fa)">
     <use xlink:href="#m9ea101939d" x="307.262165" y="97.966823" style="fill: #ec5d57; stroke: #ffffff"/>
    </g>
   </g>
   <g id="line2d_80">
    <path d="M 355.068696 75.914537 
" clip-path="url(#paca5d142fa)" style="fill: none; stroke: #ec5d57; stroke-width: 1.5; stroke-linecap: square"/>
    <g clip-path="url(#paca5d142fa)">
     <use xlink:href="#m9ea101939d" x="355.068696" y="75.914537" style="fill: #ec5d57; stroke: #ffffff"/>
    </g>
   </g>
   <g id="line2d_81">
    <path d="M 355.068696 75.914537 
" clip-path="url(#paca5d142fa)" style="fill: none; stroke: #ec5d57; stroke-width: 1.5; stroke-linecap: square"/>
    <g clip-path="url(#paca5d142fa)">
     <use xlink:href="#m9ea101939d" x="355.068696" y="75.914537" style="fill: #ec5d57; stroke: #ffffff"/>
    </g>
   </g>
   <g id="line2d_82">
    <path d="M 432.809121 41.112704 
" clip-path="url(#paca5d142fa)" style="fill: none; stroke: #ec5d57; stroke-width: 1.5; stroke-linecap: square"/>
    <g clip-path="url(#paca5d142fa)">
     <use xlink:href="#m9ea101939d" x="432.809121" y="41.112704" style="fill: #ec5d57; stroke: #ffffff"/>
    </g>
   </g>
   <g id="line2d_83">
    <path d="M 432.809121 41.112704 
" clip-path="url(#paca5d142fa)" style="fill: none; stroke: #ec5d57; stroke-width: 1.5; stroke-linecap: square"/>
    <g clip-path="url(#paca5d142fa)">
     <use xlink:href="#m9ea101939d" x="432.809121" y="41.112704" style="fill: #ec5d57; stroke: #ffffff"/>
    </g>
   </g>
   <g id="line2d_84">
    <path d="M 222.723965 134.054224 
" clip-path="url(#paca5d142fa)" style="fill: none; stroke: #70bf41; stroke-width: 1.5; stroke-linecap: square"/>
    <defs>
     <path id="mce452a75b0" d="M 0 3 
C 0.795609 3 1.55874 2.683901 2.12132 2.12132 
C 2.683901 1.55874 3 0.795609 3 0 
C 3 -0.795609 2.683901 -1.55874 2.12132 -2.12132 
C 1.55874 -2.683901 0.795609 -3 0 -3 
C -0.795609 -3 -1.55874 -2.683901 -2.12132 -2.12132 
C -2.683901 -1.55874 -3 -0.795609 -3 0 
C -3 0.795609 -2.683901 1.55874 -2.12132 2.12132 
C -1.55874 2.683901 -0.795609 3 0 3 
z
" style="stroke: #ffffff"/>
    </defs>
    <g clip-path="url(#paca5d142fa)">
     <use xlink:href="#mce452a75b0" x="222.723965" y="134.054224" style="fill: #70bf41; stroke: #ffffff"/>
    </g>
   </g>
   <g id="line2d_85">
    <path d="M 222.723965 134.054224 
" clip-path="url(#paca5d142fa)" style="fill: none; stroke: #70bf41; stroke-width: 1.5; stroke-linecap: square"/>
    <g clip-path="url(#paca5d142fa)">
     <use xlink:href="#mce452a75b0" x="222.723965" y="134.054224" style="fill: #70bf41; stroke: #ffffff"/>
    </g>
   </g>
   <g id="line2d_86">
    <path d="M 258.139174 124.725841 
" clip-path="url(#paca5d142fa)" style="fill: none; stroke: #70bf41; stroke-width: 1.5; stroke-linecap: square"/>
    <g clip-path="url(#paca5d142fa)">
     <use xlink:href="#mce452a75b0" x="258.139174" y="124.725841" style="fill: #70bf41; stroke: #ffffff"/>
    </g>
   </g>
   <g id="line2d_87">
    <path d="M 258.139174 124.725841 
" clip-path="url(#paca5d142fa)" style="fill: none; stroke: #70bf41; stroke-width: 1.5; stroke-linecap: square"/>
    <g clip-path="url(#paca5d142fa)">
     <use xlink:href="#mce452a75b0" x="258.139174" y="124.725841" style="fill: #70bf41; stroke: #ffffff"/>
    </g>
   </g>
   <g id="line2d_88">
    <path d="M 279.704428 107.851157 
" clip-path="url(#paca5d142fa)" style="fill: none; stroke: #70bf41; stroke-width: 1.5; stroke-linecap: square"/>
    <g clip-path="url(#paca5d142fa)">
     <use xlink:href="#mce452a75b0" x="279.704428" y="107.851157" style="fill: #70bf41; stroke: #ffffff"/>
    </g>
   </g>
   <g id="line2d_89">
    <path d="M 279.704428 107.851157 
" clip-path="url(#paca5d142fa)" style="fill: none; stroke: #70bf41; stroke-width: 1.5; stroke-linecap: square"/>
    <g clip-path="url(#paca5d142fa)">
     <use xlink:href="#mce452a75b0" x="279.704428" y="107.851157" style="fill: #70bf41; stroke: #ffffff"/>
    </g>
   </g>
   <g id="line2d_90">
    <path d="M 285.021957 103.156607 
" clip-path="url(#paca5d142fa)" style="fill: none; stroke: #70bf41; stroke-width: 1.5; stroke-linecap: square"/>
    <g clip-path="url(#paca5d142fa)">
     <use xlink:href="#mce452a75b0" x="285.021957" y="103.156607" style="fill: #70bf41; stroke: #ffffff"/>
    </g>
   </g>
   <g id="line2d_91">
    <path d="M 285.021957 103.156607 
" clip-path="url(#paca5d142fa)" style="fill: none; stroke: #70bf41; stroke-width: 1.5; stroke-linecap: square"/>
    <g clip-path="url(#paca5d142fa)">
     <use xlink:href="#mce452a75b0" x="285.021957" y="103.156607" style="fill: #70bf41; stroke: #ffffff"/>
    </g>
   </g>
   <g id="line2d_92">
    <path d="M 81.105925 225.455591 
" clip-path="url(#paca5d142fa)" style="fill: none; stroke: #70bf41; stroke-width: 1.5; stroke-linecap: square"/>
    <g clip-path="url(#paca5d142fa)">
     <use xlink:href="#mce452a75b0" x="81.105925" y="225.455591" style="fill: #70bf41; stroke: #ffffff"/>
    </g>
   </g>
   <g id="line2d_93">
    <path d="M 81.105925 225.455591 
" clip-path="url(#paca5d142fa)" style="fill: none; stroke: #70bf41; stroke-width: 1.5; stroke-linecap: square"/>
    <g clip-path="url(#paca5d142fa)">
     <use xlink:href="#mce452a75b0" x="81.105925" y="225.455591" style="fill: #70bf41; stroke: #ffffff"/>
    </g>
   </g>
   <g id="line2d_94">
    <path d="M 345.564983 71.852199 
" clip-path="url(#paca5d142fa)" style="fill: none; stroke: #70bf41; stroke-width: 1.5; stroke-linecap: square"/>
    <g clip-path="url(#paca5d142fa)">
     <use xlink:href="#mce452a75b0" x="345.564983" y="71.852199" style="fill: #70bf41; stroke: #ffffff"/>
    </g>
   </g>
   <g id="line2d_95">
    <path d="M 345.564983 71.852199 
" clip-path="url(#paca5d142fa)" style="fill: none; stroke: #70bf41; stroke-width: 1.5; stroke-linecap: square"/>
    <g clip-path="url(#paca5d142fa)">
     <use xlink:href="#mce452a75b0" x="345.564983" y="71.852199" style="fill: #70bf41; stroke: #ffffff"/>
    </g>
   </g>
   <g id="line2d_96">
    <path d="M 342.374137 73.493403 
" clip-path="url(#paca5d142fa)" style="fill: none; stroke: #70bf41; stroke-width: 1.5; stroke-linecap: square"/>
    <g clip-path="url(#paca5d142fa)">
     <use xlink:href="#mce452a75b0" x="342.374137" y="73.493403" style="fill: #70bf41; stroke: #ffffff"/>
    </g>
   </g>
   <g id="line2d_97">
    <path d="M 342.374137 73.493403 
" clip-path="url(#paca5d142fa)" style="fill: none; stroke: #70bf41; stroke-width: 1.5; stroke-linecap: square"/>
    <g clip-path="url(#paca5d142fa)">
     <use xlink:href="#mce452a75b0" x="342.374137" y="73.493403" style="fill: #70bf41; stroke: #ffffff"/>
    </g>
   </g>
   <g id="line2d_98">
    <path d="M 343.790942 76.669978 
" clip-path="url(#paca5d142fa)" style="fill: none; stroke: #70bf41; stroke-width: 1.5; stroke-linecap: square"/>
    <g clip-path="url(#paca5d142fa)">
     <use xlink:href="#mce452a75b0" x="343.790942" y="76.669978" style="fill: #70bf41; stroke: #ffffff"/>
    </g>
   </g>
   <g id="line2d_99">
    <path d="M 343.790942 76.669978 
" clip-path="url(#paca5d142fa)" style="fill: none; stroke: #70bf41; stroke-width: 1.5; stroke-linecap: square"/>
    <g clip-path="url(#paca5d142fa)">
     <use xlink:href="#mce452a75b0" x="343.790942" y="76.669978" style="fill: #70bf41; stroke: #ffffff"/>
    </g>
   </g>
   <g id="line2d_100">
    <path d="M 369.416422 56.743615 
" clip-path="url(#paca5d142fa)" style="fill: none; stroke: #70bf41; stroke-width: 1.5; stroke-linecap: square"/>
    <g clip-path="url(#paca5d142fa)">
     <use xlink:href="#mce452a75b0" x="369.416422" y="56.743615" style="fill: #70bf41; stroke: #ffffff"/>
    </g>
   </g>
   <g id="line2d_101">
    <path d="M 369.416422 56.743615 
" clip-path="url(#paca5d142fa)" style="fill: none; stroke: #70bf41; stroke-width: 1.5; stroke-linecap: square"/>
    <g clip-path="url(#paca5d142fa)">
     <use xlink:href="#mce452a75b0" x="369.416422" y="56.743615" style="fill: #70bf41; stroke: #ffffff"/>
    </g>
   </g>
   <g id="line2d_102">
    <path d="M 393.452206 55.860412 
" clip-path="url(#paca5d142fa)" style="fill: none; stroke: #70bf41; stroke-width: 1.5; stroke-linecap: square"/>
    <g clip-path="url(#paca5d142fa)">
     <use xlink:href="#mce452a75b0" x="393.452206" y="55.860412" style="fill: #70bf41; stroke: #ffffff"/>
    </g>
   </g>
   <g id="line2d_103">
    <path d="M 393.452206 55.860412 
" clip-path="url(#paca5d142fa)" style="fill: none; stroke: #70bf41; stroke-width: 1.5; stroke-linecap: square"/>
    <g clip-path="url(#paca5d142fa)">
     <use xlink:href="#mce452a75b0" x="393.452206" y="55.860412" style="fill: #70bf41; stroke: #ffffff"/>
    </g>
   </g>
   <g id="line2d_104">
    <path d="M 220.598856 117.254357 
" clip-path="url(#paca5d142fa)" style="fill: none; stroke: #51a7f9; stroke-width: 1.5; stroke-linecap: square"/>
    <defs>
     <path id="m1f322c4554" d="M 0 3 
C 0.795609 3 1.55874 2.683901 2.12132 2.12132 
C 2.683901 1.55874 3 0.795609 3 0 
C 3 -0.795609 2.683901 -1.55874 2.12132 -2.12132 
C 1.55874 -2.683901 0.795609 -3 0 -3 
C -0.795609 -3 -1.55874 -2.683901 -2.12132 -2.12132 
C -2.683901 -1.55874 -3 -0.795609 -3 0 
C -3 0.795609 -2.683901 1.55874 -2.12132 2.12132 
C -1.55874 2.683901 -0.795609 3 0 3 
z
" style="stroke: #ffffff"/>
    </defs>
    <g clip-path="url(#paca5d142fa)">
     <use xlink:href="#m1f322c4554" x="220.598856" y="117.254357" style="fill: #51a7f9; stroke: #ffffff"/>
    </g>
   </g>
   <g id="line2d_105">
    <path d="M 220.598856 117.254357 
" clip-path="url(#paca5d142fa)" style="fill: none; stroke: #51a7f9; stroke-width: 1.5; stroke-linecap: square"/>
    <g clip-path="url(#paca5d142fa)">
     <use xlink:href="#m1f322c4554" x="220.598856" y="117.254357" style="fill: #51a7f9; stroke: #ffffff"/>
    </g>
   </g>
   <g id="line2d_106">
    <path d="M 261.742602 114.864507 
" clip-path="url(#paca5d142fa)" style="fill: none; stroke: #51a7f9; stroke-width: 1.5; stroke-linecap: square"/>
    <g clip-path="url(#paca5d142fa)">
     <use xlink:href="#m1f322c4554" x="261.742602" y="114.864507" style="fill: #51a7f9; stroke: #ffffff"/>
    </g>
   </g>
   <g id="line2d_107">
    <path d="M 261.742602 114.864507 
" clip-path="url(#paca5d142fa)" style="fill: none; stroke: #51a7f9; stroke-width: 1.5; stroke-linecap: square"/>
    <g clip-path="url(#paca5d142fa)">
     <use xlink:href="#m1f322c4554" x="261.742602" y="114.864507" style="fill: #51a7f9; stroke: #ffffff"/>
    </g>
   </g>
   <g id="line2d_108">
    <path d="M 287.939354 91.589663 
" clip-path="url(#paca5d142fa)" style="fill: none; stroke: #51a7f9; stroke-width: 1.5; stroke-linecap: square"/>
    <g clip-path="url(#paca5d142fa)">
     <use xlink:href="#m1f322c4554" x="287.939354" y="91.589663" style="fill: #51a7f9; stroke: #ffffff"/>
    </g>
   </g>
   <g id="line2d_109">
    <path d="M 287.939354 91.589663 
" clip-path="url(#paca5d142fa)" style="fill: none; stroke: #51a7f9; stroke-width: 1.5; stroke-linecap: square"/>
    <g clip-path="url(#paca5d142fa)">
     <use xlink:href="#m1f322c4554" x="287.939354" y="91.589663" style="fill: #51a7f9; stroke: #ffffff"/>
    </g>
   </g>
   <g id="line2d_110">
    <path d="M 360.542071 65.81606 
" clip-path="url(#paca5d142fa)" style="fill: none; stroke: #51a7f9; stroke-width: 1.5; stroke-linecap: square"/>
    <g clip-path="url(#paca5d142fa)">
     <use xlink:href="#m1f322c4554" x="360.542071" y="65.81606" style="fill: #51a7f9; stroke: #ffffff"/>
    </g>
   </g>
   <g id="line2d_111">
    <path d="M 360.542071 65.81606 
" clip-path="url(#paca5d142fa)" style="fill: none; stroke: #51a7f9; stroke-width: 1.5; stroke-linecap: square"/>
    <g clip-path="url(#paca5d142fa)">
     <use xlink:href="#m1f322c4554" x="360.542071" y="65.81606" style="fill: #51a7f9; stroke: #ffffff"/>
    </g>
   </g>
   <g id="line2d_112">
    <path d="M 409.072901 52.421091 
" clip-path="url(#paca5d142fa)" style="fill: none; stroke: #51a7f9; stroke-width: 1.5; stroke-linecap: square"/>
    <g clip-path="url(#paca5d142fa)">
     <use xlink:href="#m1f322c4554" x="409.072901" y="52.421091" style="fill: #51a7f9; stroke: #ffffff"/>
    </g>
   </g>
   <g id="line2d_113">
    <path d="M 409.072901 52.421091 
" clip-path="url(#paca5d142fa)" style="fill: none; stroke: #51a7f9; stroke-width: 1.5; stroke-linecap: square"/>
    <g clip-path="url(#paca5d142fa)">
     <use xlink:href="#m1f322c4554" x="409.072901" y="52.421091" style="fill: #51a7f9; stroke: #ffffff"/>
    </g>
   </g>
   <g id="line2d_114">
    <path d="M 298.113094 72.438662 
" clip-path="url(#paca5d142fa)" style="fill: none; stroke: #6a5acd; stroke-width: 1.5; stroke-linecap: square"/>
    <defs>
     <path id="m7e1af11f55" d="M 0 3 
C 0.795609 3 1.55874 2.683901 2.12132 2.12132 
C 2.683901 1.55874 3 0.795609 3 0 
C 3 -0.795609 2.683901 -1.55874 2.12132 -2.12132 
C 1.55874 -2.683901 0.795609 -3 0 -3 
C -0.795609 -3 -1.55874 -2.683901 -2.12132 -2.12132 
C -2.683901 -1.55874 -3 -0.795609 -3 0 
C -3 0.795609 -2.683901 1.55874 -2.12132 2.12132 
C -1.55874 2.683901 -0.795609 3 0 3 
z
" style="stroke: #ffffff"/>
    </defs>
    <g clip-path="url(#paca5d142fa)">
     <use xlink:href="#m7e1af11f55" x="298.113094" y="72.438662" style="fill: #6a5acd; stroke: #ffffff"/>
    </g>
   </g>
   <g id="line2d_115">
    <path d="M 298.113094 72.438662 
" clip-path="url(#paca5d142fa)" style="fill: none; stroke: #6a5acd; stroke-width: 1.5; stroke-linecap: square"/>
    <g clip-path="url(#paca5d142fa)">
     <use xlink:href="#m7e1af11f55" x="298.113094" y="72.438662" style="fill: #6a5acd; stroke: #ffffff"/>
    </g>
   </g>
   <g id="legend_1">
    <g id="patch_7">
     <path d="M 68.428125 53.678745 
L 265.028125 53.678745 
Q 267.028125 53.678745 267.028125 51.678745 
L 267.028125 16.278745 
Q 267.028125 14.278745 265.028125 14.278745 
L 68.428125 14.278745 
Q 66.428125 14.278745 66.428125 16.278745 
L 66.428125 51.678745 
Q 66.428125 53.678745 68.428125 53.678745 
z
" style="fill: #ffffff; opacity: 0.8; stroke: #cccccc; stroke-linejoin: miter"/>
    </g>
    <g id="LineCollection_9">
     <path d="M 75.428125 25.178745 
L 85.428125 25.178745 
" style="fill: none; stroke: #6a5acd; stroke-width: 3"/>
    </g>
    <g id="LineCollection_10">
     <path d="M 80.428125 30.178745 
L 80.428125 20.178745 
" style="fill: none; stroke: #6a5acd; stroke-width: 3"/>
    </g>
    <g id="line2d_116">
     <path d="M 70.428125 25.178745 
L 90.428125 25.178745 
" style="fill: none; stroke: #6a5acd; stroke-width: 1.5; stroke-linecap: square"/>
    </g>
    <g id="line2d_117">
     <defs>
      <path id="mafc0dd93e4" d="M 0 4 
C 1.060812 4 2.078319 3.578535 2.828427 2.828427 
C 3.578535 2.078319 4 1.060812 4 0 
C 4 -1.060812 3.578535 -2.078319 2.828427 -2.828427 
C 2.078319 -3.578535 1.060812 -4 0 -4 
C -1.060812 -4 -2.078319 -3.578535 -2.828427 -2.828427 
C -3.578535 -2.078319 -4 -1.060812 -4 0 
C -4 1.060812 -3.578535 2.078319 -2.828427 2.828427 
C -2.078319 3.578535 -1.060812 4 0 4 
z
" style="stroke: #ffffff; stroke-width: 2"/>
     </defs>
     <g>
      <use xlink:href="#mafc0dd93e4" x="80.428125" y="25.178745" style="fill: #6a5acd; stroke: #ffffff; stroke-width: 2"/>
     </g>
    </g>
    <g id="text_21">
     <!-- $a_{06}(l_F^{\rm phys},s_F)$ -->
     <g transform="translate(98.428125 28.678745) scale(0.1 -0.1)">
      <defs>
       <path id="DejaVuSans-28" d="M 1984 4856 
Q 1566 4138 1362 3434 
Q 1159 2731 1159 2009 
Q 1159 1288 1364 580 
Q 1569 -128 1984 -844 
L 1484 -844 
Q 1016 -109 783 600 
Q 550 1309 550 2009 
Q 550 2706 781 3412 
Q 1013 4119 1484 4856 
L 1984 4856 
z
" transform="scale(0.015625)"/>
       <path id="DejaVuSans-Oblique-6c" d="M 1172 4863 
L 1747 4863 
L 800 0 
L 225 0 
L 1172 4863 
z
" transform="scale(0.015625)"/>
       <path id="DejaVuSans-70" d="M 1159 525 
L 1159 -1331 
L 581 -1331 
L 581 3500 
L 1159 3500 
L 1159 2969 
Q 1341 3281 1617 3432 
Q 1894 3584 2278 3584 
Q 2916 3584 3314 3078 
Q 3713 2572 3713 1747 
Q 3713 922 3314 415 
Q 2916 -91 2278 -91 
Q 1894 -91 1617 61 
Q 1341 213 1159 525 
z
M 3116 1747 
Q 3116 2381 2855 2742 
Q 2594 3103 2138 3103 
Q 1681 3103 1420 2742 
Q 1159 2381 1159 1747 
Q 1159 1113 1420 752 
Q 1681 391 2138 391 
Q 2594 391 2855 752 
Q 3116 1113 3116 1747 
z
" transform="scale(0.015625)"/>
       <path id="DejaVuSans-68" d="M 3513 2113 
L 3513 0 
L 2938 0 
L 2938 2094 
Q 2938 2591 2744 2837 
Q 2550 3084 2163 3084 
Q 1697 3084 1428 2787 
Q 1159 2491 1159 1978 
L 1159 0 
L 581 0 
L 581 4863 
L 1159 4863 
L 1159 2956 
Q 1366 3272 1645 3428 
Q 1925 3584 2291 3584 
Q 2894 3584 3203 3211 
Q 3513 2838 3513 2113 
z
" transform="scale(0.015625)"/>
       <path id="DejaVuSans-79" d="M 2059 -325 
Q 1816 -950 1584 -1140 
Q 1353 -1331 966 -1331 
L 506 -1331 
L 506 -850 
L 844 -850 
Q 1081 -850 1212 -737 
Q 1344 -625 1503 -206 
L 1606 56 
L 191 3500 
L 800 3500 
L 1894 763 
L 2988 3500 
L 3597 3500 
L 2059 -325 
z
" transform="scale(0.015625)"/>
       <path id="DejaVuSans-73" d="M 2834 3397 
L 2834 2853 
Q 2591 2978 2328 3040 
Q 2066 3103 1784 3103 
Q 1356 3103 1142 2972 
Q 928 2841 928 2578 
Q 928 2378 1081 2264 
Q 1234 2150 1697 2047 
L 1894 2003 
Q 2506 1872 2764 1633 
Q 3022 1394 3022 966 
Q 3022 478 2636 193 
Q 2250 -91 1575 -91 
Q 1294 -91 989 -36 
Q 684 19 347 128 
L 347 722 
Q 666 556 975 473 
Q 1284 391 1588 391 
Q 1994 391 2212 530 
Q 2431 669 2431 922 
Q 2431 1156 2273 1281 
Q 2116 1406 1581 1522 
L 1381 1569 
Q 847 1681 609 1914 
Q 372 2147 372 2553 
Q 372 3047 722 3315 
Q 1072 3584 1716 3584 
Q 2034 3584 2315 3537 
Q 2597 3491 2834 3397 
z
" transform="scale(0.015625)"/>
       <path id="DejaVuSans-2c" d="M 750 794 
L 1409 794 
L 1409 256 
L 897 -744 
L 494 -744 
L 750 256 
L 750 794 
z
" transform="scale(0.015625)"/>
       <path id="DejaVuSans-29" d="M 513 4856 
L 1013 4856 
Q 1481 4119 1714 3412 
Q 1947 2706 1947 2009 
Q 1947 1309 1714 600 
Q 1481 -109 1013 -844 
L 513 -844 
Q 928 -128 1133 580 
Q 1338 1288 1338 2009 
Q 1338 2731 1133 3434 
Q 928 4138 513 4856 
z
" transform="scale(0.015625)"/>
      </defs>
      <use xlink:href="#DejaVuSans-Oblique-61" transform="translate(0 0.0625)"/>
      <use xlink:href="#DejaVuSans-30" transform="translate(61.279297 -16.34375) scale(0.7)"/>
      <use xlink:href="#DejaVuSans-36" transform="translate(105.81543 -16.34375) scale(0.7)"/>
      <use xlink:href="#DejaVuSans-28" transform="translate(153.085938 0.0625)"/>
      <use xlink:href="#DejaVuSans-Oblique-6c" transform="translate(192.099609 0.0625)"/>
      <use xlink:href="#DejaVuSans-70" transform="translate(227.330521 50.810938) scale(0.7)"/>
      <use xlink:href="#DejaVuSans-68" transform="translate(271.764115 50.810938) scale(0.7)"/>
      <use xlink:href="#DejaVuSans-79" transform="translate(316.129349 50.810938) scale(0.7)"/>
      <use xlink:href="#DejaVuSans-73" transform="translate(357.55513 50.810938) scale(0.7)"/>
      <use xlink:href="#DejaVuSans-Oblique-46" transform="translate(219.882812 -27.28125) scale(0.7)"/>
      <use xlink:href="#DejaVuSans-2c" transform="translate(396.759232 0.0625)"/>
      <use xlink:href="#DejaVuSans-Oblique-73" transform="translate(448.028763 0.0625)"/>
      <use xlink:href="#DejaVuSans-Oblique-46" transform="translate(500.128372 -16.34375) scale(0.7)"/>
      <use xlink:href="#DejaVuSans-29" transform="translate(543.126419 0.0625)"/>
     </g>
    </g>
    <g id="LineCollection_11">
     <path d="M 75.428125 43.378745 
L 85.428125 43.378745 
" style="fill: none; stroke: #51a7f9; stroke-width: 3"/>
    </g>
    <g id="LineCollection_12">
     <path d="M 80.428125 48.378745 
L 80.428125 38.378745 
" style="fill: none; stroke: #51a7f9; stroke-width: 3"/>
    </g>
    <g id="line2d_118">
     <path d="M 70.428125 43.378745 
L 90.428125 43.378745 
" style="fill: none; stroke: #51a7f9; stroke-width: 1.5; stroke-linecap: square"/>
    </g>
    <g id="line2d_119">
     <defs>
      <path id="mef08b88c7e" d="M 0 4 
C 1.060812 4 2.078319 3.578535 2.828427 2.828427 
C 3.578535 2.078319 4 1.060812 4 0 
C 4 -1.060812 3.578535 -2.078319 2.828427 -2.828427 
C 2.078319 -3.578535 1.060812 -4 0 -4 
C -1.060812 -4 -2.078319 -3.578535 -2.828427 -2.828427 
C -3.578535 -2.078319 -4 -1.060812 -4 0 
C -4 1.060812 -3.578535 2.078319 -2.828427 2.828427 
C -2.078319 3.578535 -1.060812 4 0 4 
z
" style="stroke: #ffffff; stroke-width: 2"/>
     </defs>
     <g>
      <use xlink:href="#mef08b88c7e" x="80.428125" y="43.378745" style="fill: #51a7f9; stroke: #ffffff; stroke-width: 2"/>
     </g>
    </g>
    <g id="text_22">
     <!-- $a_{09}(l_F^{\rm phys},s_F)$ -->
     <g transform="translate(98.428125 46.878745) scale(0.1 -0.1)">
      <defs>
       <path id="DejaVuSans-39" d="M 703 97 
L 703 672 
Q 941 559 1184 500 
Q 1428 441 1663 441 
Q 2288 441 2617 861 
Q 2947 1281 2994 2138 
Q 2813 1869 2534 1725 
Q 2256 1581 1919 1581 
Q 1219 1581 811 2004 
Q 403 2428 403 3163 
Q 403 3881 828 4315 
Q 1253 4750 1959 4750 
Q 2769 4750 3195 4129 
Q 3622 3509 3622 2328 
Q 3622 1225 3098 567 
Q 2575 -91 1691 -91 
Q 1453 -91 1209 -44 
Q 966 3 703 97 
z
M 1959 2075 
Q 2384 2075 2632 2365 
Q 2881 2656 2881 3163 
Q 2881 3666 2632 3958 
Q 2384 4250 1959 4250 
Q 1534 4250 1286 3958 
Q 1038 3666 1038 3163 
Q 1038 2656 1286 2365 
Q 1534 2075 1959 2075 
z
" transform="scale(0.015625)"/>
      </defs>
      <use xlink:href="#DejaVuSans-Oblique-61" transform="translate(0 0.0625)"/>
      <use xlink:href="#DejaVuSans-30" transform="translate(61.279297 -16.34375) scale(0.7)"/>
      <use xlink:href="#DejaVuSans-39" transform="translate(105.81543 -16.34375) scale(0.7)"/>
      <use xlink:href="#DejaVuSans-28" transform="translate(153.085938 0.0625)"/>
      <use xlink:href="#DejaVuSans-Oblique-6c" transform="translate(192.099609 0.0625)"/>
      <use xlink:href="#DejaVuSans-70" transform="translate(227.330521 50.810938) scale(0.7)"/>
      <use xlink:href="#DejaVuSans-68" transform="translate(271.764115 50.810938) scale(0.7)"/>
      <use xlink:href="#DejaVuSans-79" transform="translate(316.129349 50.810938) scale(0.7)"/>
      <use xlink:href="#DejaVuSans-73" transform="translate(357.55513 50.810938) scale(0.7)"/>
      <use xlink:href="#DejaVuSans-Oblique-46" transform="translate(219.882812 -27.28125) scale(0.7)"/>
      <use xlink:href="#DejaVuSans-2c" transform="translate(396.759232 0.0625)"/>
      <use xlink:href="#DejaVuSans-Oblique-73" transform="translate(448.028763 0.0625)"/>
      <use xlink:href="#DejaVuSans-Oblique-46" transform="translate(500.128372 -16.34375) scale(0.7)"/>
      <use xlink:href="#DejaVuSans-29" transform="translate(543.126419 0.0625)"/>
     </g>
    </g>
    <g id="LineCollection_13">
     <path d="M 181.728125 25.178745 
L 191.728125 25.178745 
" style="fill: none; stroke: #70bf41; stroke-width: 3"/>
    </g>
    <g id="LineCollection_14">
     <path d="M 186.728125 30.178745 
L 186.728125 20.178745 
" style="fill: none; stroke: #70bf41; stroke-width: 3"/>
    </g>
    <g id="line2d_120">
     <path d="M 176.728125 25.178745 
L 196.728125 25.178745 
" style="fill: none; stroke: #70bf41; stroke-width: 1.5; stroke-linecap: square"/>
    </g>
    <g id="line2d_121">
     <defs>
      <path id="m5bf3c367e1" d="M 0 4 
C 1.060812 4 2.078319 3.578535 2.828427 2.828427 
C 3.578535 2.078319 4 1.060812 4 0 
C 4 -1.060812 3.578535 -2.078319 2.828427 -2.828427 
C 2.078319 -3.578535 1.060812 -4 0 -4 
C -1.060812 -4 -2.078319 -3.578535 -2.828427 -2.828427 
C -3.578535 -2.078319 -4 -1.060812 -4 0 
C -4 1.060812 -3.578535 2.078319 -2.828427 2.828427 
C -2.078319 3.578535 -1.060812 4 0 4 
z
" style="stroke: #ffffff; stroke-width: 2"/>
     </defs>
     <g>
      <use xlink:href="#m5bf3c367e1" x="186.728125" y="25.178745" style="fill: #70bf41; stroke: #ffffff; stroke-width: 2"/>
     </g>
    </g>
    <g id="text_23">
     <!-- $a_{12}(l_F^{\rm phys},s_F)$ -->
     <g transform="translate(204.728125 28.678745) scale(0.1 -0.1)">
      <use xlink:href="#DejaVuSans-Oblique-61" transform="translate(0 0.0625)"/>
      <use xlink:href="#DejaVuSans-31" transform="translate(61.279297 -16.34375) scale(0.7)"/>
      <use xlink:href="#DejaVuSans-32" transform="translate(105.81543 -16.34375) scale(0.7)"/>
      <use xlink:href="#DejaVuSans-28" transform="translate(153.085938 0.0625)"/>
      <use xlink:href="#DejaVuSans-Oblique-6c" transform="translate(192.099609 0.0625)"/>
      <use xlink:href="#DejaVuSans-70" transform="translate(227.330521 50.810938) scale(0.7)"/>
      <use xlink:href="#DejaVuSans-68" transform="translate(271.764115 50.810938) scale(0.7)"/>
      <use xlink:href="#DejaVuSans-79" transform="translate(316.129349 50.810938) scale(0.7)"/>
      <use xlink:href="#DejaVuSans-73" transform="translate(357.55513 50.810938) scale(0.7)"/>
      <use xlink:href="#DejaVuSans-Oblique-46" transform="translate(219.882812 -27.28125) scale(0.7)"/>
      <use xlink:href="#DejaVuSans-2c" transform="translate(396.759232 0.0625)"/>
      <use xlink:href="#DejaVuSans-Oblique-73" transform="translate(448.028763 0.0625)"/>
      <use xlink:href="#DejaVuSans-Oblique-46" transform="translate(500.128372 -16.34375) scale(0.7)"/>
      <use xlink:href="#DejaVuSans-29" transform="translate(543.126419 0.0625)"/>
     </g>
    </g>
    <g id="LineCollection_15">
     <path d="M 181.728125 43.378745 
L 191.728125 43.378745 
" style="fill: none; stroke: #ec5d57; stroke-width: 3"/>
    </g>
    <g id="LineCollection_16">
     <path d="M 186.728125 48.378745 
L 186.728125 38.378745 
" style="fill: none; stroke: #ec5d57; stroke-width: 3"/>
    </g>
    <g id="line2d_122">
     <path d="M 176.728125 43.378745 
L 196.728125 43.378745 
" style="fill: none; stroke: #ec5d57; stroke-width: 1.5; stroke-linecap: square"/>
    </g>
    <g id="line2d_123">
     <defs>
      <path id="m8684d7a123" d="M 0 4 
C 1.060812 4 2.078319 3.578535 2.828427 2.828427 
C 3.578535 2.078319 4 1.060812 4 0 
C 4 -1.060812 3.578535 -2.078319 2.828427 -2.828427 
C 2.078319 -3.578535 1.060812 -4 0 -4 
C -1.060812 -4 -2.078319 -3.578535 -2.828427 -2.828427 
C -3.578535 -2.078319 -4 -1.060812 -4 0 
C -4 1.060812 -3.578535 2.078319 -2.828427 2.828427 
C -2.078319 3.578535 -1.060812 4 0 4 
z
" style="stroke: #ffffff; stroke-width: 2"/>
     </defs>
     <g>
      <use xlink:href="#m8684d7a123" x="186.728125" y="43.378745" style="fill: #ec5d57; stroke: #ffffff; stroke-width: 2"/>
     </g>
    </g>
    <g id="text_24">
     <!-- $a_{15}(l_F^{\rm phys},s_F)$ -->
     <g transform="translate(204.728125 46.878745) scale(0.1 -0.1)">
      <use xlink:href="#DejaVuSans-Oblique-61" transform="translate(0 0.0625)"/>
      <use xlink:href="#DejaVuSans-31" transform="translate(61.279297 -16.34375) scale(0.7)"/>
      <use xlink:href="#DejaVuSans-35" transform="translate(105.81543 -16.34375) scale(0.7)"/>
      <use xlink:href="#DejaVuSans-28" transform="translate(153.085938 0.0625)"/>
      <use xlink:href="#DejaVuSans-Oblique-6c" transform="translate(192.099609 0.0625)"/>
      <use xlink:href="#DejaVuSans-70" transform="translate(227.330521 50.810938) scale(0.7)"/>
      <use xlink:href="#DejaVuSans-68" transform="translate(271.764115 50.810938) scale(0.7)"/>
      <use xlink:href="#DejaVuSans-79" transform="translate(316.129349 50.810938) scale(0.7)"/>
      <use xlink:href="#DejaVuSans-73" transform="translate(357.55513 50.810938) scale(0.7)"/>
      <use xlink:href="#DejaVuSans-Oblique-46" transform="translate(219.882812 -27.28125) scale(0.7)"/>
      <use xlink:href="#DejaVuSans-2c" transform="translate(396.759232 0.0625)"/>
      <use xlink:href="#DejaVuSans-Oblique-73" transform="translate(448.028763 0.0625)"/>
      <use xlink:href="#DejaVuSans-Oblique-46" transform="translate(500.128372 -16.34375) scale(0.7)"/>
      <use xlink:href="#DejaVuSans-29" transform="translate(543.126419 0.0625)"/>
     </g>
    </g>
   </g>
  </g>
 </g>
 <defs>
  <clipPath id="paca5d142fa">
   <rect x="61.428125" y="9.278745" width="391.68" height="293.76"/>
  </clipPath>
 </defs>
 <defs>
  <pattern id="h5ab0c3c51c" patternUnits="userSpaceOnUse" x="0" y="0" width="72" height="72">
   <rect x="0" y="0" width="73" height="73" fill="none"/>
   <path d="M -36 36 
L 36 -36 
M -24 48 
L 48 -24 
M -12 60 
L 60 -12 
M 0 72 
L 72 0 
M 12 84 
L 84 12 
M 24 96 
L 96 24 
M 36 108 
L 108 36 
" style="fill: #000000; stroke: #000000; stroke-width: 1.0; stroke-linecap: butt; stroke-linejoin: miter; stroke-opacity: 0.6"/>
  </pattern>
 </defs>
</svg>
