<?xml version="1.0" encoding="utf-8" standalone="no"?>
<!DOCTYPE svg PUBLIC "-//W3C//DTD SVG 1.1//EN"
  "http://www.w3.org/Graphics/SVG/1.1/DTD/svg11.dtd">
<svg xmlns:xlink="http://www.w3.org/1999/xlink" width="449.02375pt" height="340.838125pt" viewBox="0 0 449.02375 340.838125" xmlns="http://www.w3.org/2000/svg" version="1.1">
 <metadata>
  <rdf:RDF xmlns:dc="http://purl.org/dc/elements/1.1/" xmlns:cc="http://creativecommons.org/ns#" xmlns:rdf="http://www.w3.org/1999/02/22-rdf-syntax-ns#">
   <cc:Work>
    <dc:type rdf:resource="http://purl.org/dc/dcmitype/StillImage"/>
    <dc:date>2025-03-01T21:40:30.709713</dc:date>
    <dc:format>image/svg+xml</dc:format>
    <dc:creator>
     <cc:Agent>
      <dc:title>Matplotlib v3.10.0, https://matplotlib.org/</dc:title>
     </cc:Agent>
    </dc:creator>
   </cc:Work>
  </rdf:RDF>
 </metadata>
 <defs>
  <style type="text/css">*{stroke-linejoin: round; stroke-linecap: butt}</style>
 </defs>
 <g id="figure_1">
  <g id="patch_1">
   <path d="M 0 340.838125 
L 449.02375 340.838125 
L 449.02375 0 
L 0 0 
L 0 340.838125 
z
" style="fill: none"/>
  </g>
  <g id="axes_1">
   <g id="patch_2">
    <path d="M 50.14375 300.96 
L 441.82375 300.96 
L 441.82375 7.2 
L 50.14375 7.2 
L 50.14375 300.96 
z
" style="fill: none"/>
   </g>
   <g id="FillBetweenPolyCollection_1">
    <path d="M 67.947386 169.005064 
L 67.947386 194.460762 
L 75.188492 190.898075 
L 82.429598 187.397186 
L 89.670704 183.953114 
L 96.91181 180.563154 
L 104.152916 177.225398 
L 111.394022 173.938319 
L 118.635128 170.700574 
L 125.876234 167.510895 
L 133.11734 164.368022 
L 140.358446 161.270664 
L 147.599552 158.217474 
L 154.840658 155.207043 
L 162.081764 152.237897 
L 169.32287 149.308509 
L 176.563976 146.417313 
L 183.805082 143.562721 
L 191.046188 140.743144 
L 198.287294 137.957009 
L 205.5284 135.202776 
L 212.769506 132.478956 
L 220.010612 129.784122 
L 227.251718 127.116917 
L 234.492824 124.476064 
L 241.73393 121.860367 
L 248.975036 119.268714 
L 256.216142 116.700075 
L 263.457248 114.153503 
L 270.698354 111.628131 
L 277.93946 109.123164 
L 285.180566 106.637881 
L 292.421672 104.171626 
L 299.662778 101.723802 
L 306.903884 99.293873 
L 314.14499 96.881352 
L 321.386096 94.485801 
L 328.627202 92.106823 
L 335.868308 89.744062 
L 343.109414 87.397199 
L 350.35052 85.065944 
L 357.591626 82.750038 
L 364.832732 80.449247 
L 372.073838 78.16336 
L 379.314944 75.892189 
L 386.55605 73.635563 
L 393.797156 71.393327 
L 401.038262 69.165342 
L 408.279368 66.951484 
L 415.520474 64.751638 
L 422.76158 62.5657 
L 422.76158 20.552727 
L 422.76158 20.552727 
L 415.520474 23.606061 
L 408.279368 26.661164 
L 401.038262 29.718132 
L 393.797156 32.777055 
L 386.55605 35.838014 
L 379.314944 38.901082 
L 372.073838 41.966318 
L 364.832732 45.033772 
L 357.591626 48.103478 
L 350.35052 51.175455 
L 343.109414 54.249702 
L 335.868308 57.326198 
L 328.627202 60.4049 
L 321.386096 63.485736 
L 314.14499 66.568608 
L 306.903884 69.653381 
L 299.662778 72.739888 
L 292.421672 75.827919 
L 285.180566 78.917221 
L 277.93946 82.007491 
L 270.698354 85.098377 
L 263.457248 88.189466 
L 256.216142 91.280287 
L 248.975036 94.370305 
L 241.73393 97.458918 
L 234.492824 100.545453 
L 227.251718 103.629171 
L 220.010612 106.709261 
L 212.769506 109.78485 
L 205.5284 112.855003 
L 198.287294 115.918734 
L 191.046188 118.97502 
L 183.805082 122.02281 
L 176.563976 125.06105 
L 169.32287 128.088701 
L 162.081764 131.10476 
L 154.840658 134.108292 
L 147.599552 137.098447 
L 140.358446 140.074487 
L 133.11734 143.035808 
L 125.876234 145.981952 
L 118.635128 148.912621 
L 111.394022 151.827683 
L 104.152916 154.727172 
L 96.91181 157.611289 
L 89.670704 160.480402 
L 82.429598 163.335068 
L 75.188492 166.176111 
L 67.947386 169.005064 
z
" clip-path="url(#p3f1f183a6b)" style="fill: url(#hcbe4bb7ea8); stroke: #000000; stroke-opacity: 0.6"/>
   </g>
   <g id="FillBetweenPolyCollection_2">
    <defs>
     <path id="mda2eafb9d5" d="M 67.947386 -66.040998 
L 67.947386 -53.230852 
L 75.188492 -56.261474 
L 82.429598 -59.233667 
L 89.670704 -62.151722 
L 96.91181 -65.015823 
L 104.152916 -67.823446 
L 111.394022 -70.569162 
L 118.635128 -73.244007 
L 125.876234 -75.83499 
L 133.11734 -78.325883 
L 140.358446 -80.701061 
L 147.599552 -82.952614 
L 154.840658 -85.086118 
L 162.081764 -87.119014 
L 169.32287 -89.073154 
L 176.563976 -90.96832 
L 183.805082 -92.819726 
L 191.046188 -94.638188 
L 198.287294 -96.431153 
L 205.5284 -98.203709 
L 212.769506 -99.959348 
L 220.010612 -101.700487 
L 227.251718 -103.42881 
L 234.492824 -105.145503 
L 241.73393 -106.851397 
L 248.975036 -108.547076 
L 256.216142 -110.232944 
L 263.457248 -111.909273 
L 270.698354 -113.576236 
L 277.93946 -115.233935 
L 285.180566 -116.882413 
L 292.421672 -118.521672 
L 299.662778 -120.15168 
L 306.903884 -121.77238 
L 314.14499 -123.383695 
L 321.386096 -124.985532 
L 328.627202 -126.577787 
L 335.868308 -128.160345 
L 343.109414 -129.733086 
L 350.35052 -131.295884 
L 357.591626 -132.848609 
L 364.832732 -134.391131 
L 372.073838 -135.923316 
L 379.314944 -137.445031 
L 386.55605 -138.956143 
L 393.797156 -140.456522 
L 401.038262 -141.946037 
L 408.279368 -143.424561 
L 415.520474 -144.891968 
L 422.76158 -146.348137 
L 422.76158 -176.912968 
L 422.76158 -176.912968 
L 415.520474 -174.698154 
L 408.279368 -172.478486 
L 401.038262 -170.253641 
L 393.797156 -168.023292 
L 386.55605 -165.787104 
L 379.314944 -163.544737 
L 372.073838 -161.295843 
L 364.832732 -159.040071 
L 357.591626 -156.777064 
L 350.35052 -154.50646 
L 343.109414 -152.227895 
L 335.868308 -149.941 
L 328.627202 -147.645405 
L 321.386096 -145.340739 
L 314.14499 -143.026632 
L 306.903884 -140.702717 
L 299.662778 -138.36863 
L 292.421672 -136.024018 
L 285.180566 -133.668539 
L 277.93946 -131.301868 
L 270.698354 -128.923704 
L 263.457248 -126.53378 
L 256.216142 -124.131876 
L 248.975036 -121.717831 
L 241.73393 -119.291573 
L 234.492824 -116.853149 
L 227.251718 -114.402771 
L 220.010612 -111.940884 
L 212.769506 -109.468269 
L 205.5284 -106.986191 
L 198.287294 -104.496622 
L 191.046188 -102.00259 
L 183.805082 -99.508695 
L 176.563976 -97.021864 
L 169.32287 -94.552364 
L 162.081764 -92.114821 
L 154.840658 -89.72839 
L 147.599552 -87.414242 
L 140.358446 -85.189086 
L 133.11734 -83.05769 
L 125.876234 -81.011257 
L 118.635128 -79.033166 
L 111.394022 -77.106064 
L 104.152916 -75.215657 
L 96.91181 -73.351439 
L 89.670704 -71.506082 
L 82.429598 -69.674599 
L 75.188492 -67.853646 
L 67.947386 -66.040998 
z
" style="stroke: #ec5d57; stroke-opacity: 0.4"/>
    </defs>
    <g clip-path="url(#p3f1f183a6b)">
     <use xlink:href="#mda2eafb9d5" x="0" y="340.838125" style="fill: #ec5d57; fill-opacity: 0.4; stroke: #ec5d57; stroke-opacity: 0.4"/>
    </g>
   </g>
   <g id="FillBetweenPolyCollection_3">
    <defs>
     <path id="m104a905638" d="M 67.947386 -112.117359 
L 67.947386 -102.520887 
L 75.188492 -105.739265 
L 82.429598 -108.875454 
L 89.670704 -111.926699 
L 96.91181 -114.884574 
L 104.152916 -117.738065 
L 111.394022 -120.477111 
L 118.635128 -123.097402 
L 125.876234 -125.603994 
L 133.11734 -128.010697 
L 140.358446 -130.335688 
L 147.599552 -132.596824 
L 154.840658 -134.809039 
L 162.081764 -136.983759 
L 169.32287 -139.129338 
L 176.563976 -141.251764 
L 183.805082 -143.355307 
L 191.046188 -145.443017 
L 198.287294 -147.517083 
L 205.5284 -149.57908 
L 212.769506 -151.63015 
L 220.010612 -153.671115 
L 227.251718 -155.702563 
L 234.492824 -157.724911 
L 241.73393 -159.738446 
L 248.975036 -161.743354 
L 256.216142 -163.739747 
L 263.457248 -165.727676 
L 270.698354 -167.707146 
L 277.93946 -169.678124 
L 285.180566 -171.640551 
L 292.421672 -173.594341 
L 299.662778 -175.539392 
L 306.903884 -177.475586 
L 314.14499 -179.402793 
L 321.386096 -181.320874 
L 328.627202 -183.229682 
L 335.868308 -185.129067 
L 343.109414 -187.018872 
L 350.35052 -188.898937 
L 357.591626 -190.769103 
L 364.832732 -192.629208 
L 372.073838 -194.479091 
L 379.314944 -196.31859 
L 386.55605 -198.147546 
L 393.797156 -199.965801 
L 401.038262 -201.773201 
L 408.279368 -203.569593 
L 415.520474 -205.354828 
L 422.76158 -207.128761 
L 422.76158 -239.231166 
L 422.76158 -239.231166 
L 415.520474 -236.764577 
L 408.279368 -234.293346 
L 401.038262 -231.817128 
L 393.797156 -229.33557 
L 386.55605 -226.848315 
L 379.314944 -224.354996 
L 372.073838 -221.855239 
L 364.832732 -219.348667 
L 357.591626 -216.834895 
L 350.35052 -214.313532 
L 343.109414 -211.784183 
L 335.868308 -209.246449 
L 328.627202 -206.699927 
L 321.386096 -204.144211 
L 314.14499 -201.578891 
L 306.903884 -199.00356 
L 299.662778 -196.417809 
L 292.421672 -193.82123 
L 285.180566 -191.213422 
L 277.93946 -188.593987 
L 270.698354 -185.96254 
L 263.457248 -183.318708 
L 256.216142 -180.662138 
L 248.975036 -177.992502 
L 241.73393 -175.309506 
L 234.492824 -172.612903 
L 227.251718 -169.902511 
L 220.010612 -167.178227 
L 212.769506 -164.440065 
L 205.5284 -161.688193 
L 198.287294 -158.922991 
L 191.046188 -156.145134 
L 183.805082 -153.355709 
L 176.563976 -150.556387 
L 169.32287 -147.749667 
L 162.081764 -144.939232 
L 154.840658 -142.130443 
L 147.599552 -139.330974 
L 140.358446 -136.551515 
L 133.11734 -133.806197 
L 125.876234 -131.111986 
L 118.635128 -128.486067 
L 111.394022 -125.941121 
L 104.152916 -123.480904 
L 96.91181 -121.099562 
L 89.670704 -118.785136 
L 82.429598 -116.524149 
L 75.188492 -114.304648 
L 67.947386 -112.117359 
z
" style="stroke: #70bf41; stroke-opacity: 0.4"/>
    </defs>
    <g clip-path="url(#p3f1f183a6b)">
     <use xlink:href="#m104a905638" x="0" y="340.838125" style="fill: #70bf41; fill-opacity: 0.4; stroke: #70bf41; stroke-opacity: 0.4"/>
    </g>
   </g>
   <g id="FillBetweenPolyCollection_4">
    <defs>
     <path id="mf19da42d84" d="M 67.947386 -143.539325 
L 67.947386 -130.705749 
L 75.188492 -134.081607 
L 82.429598 -137.377753 
L 89.670704 -140.596236 
L 96.91181 -143.736288 
L 104.152916 -146.796587 
L 111.394022 -149.776332 
L 118.635128 -152.676038 
L 125.876234 -155.49802 
L 133.11734 -158.246489 
L 140.358446 -160.927236 
L 147.599552 -163.547038 
L 154.840658 -166.113002 
L 162.081764 -168.632009 
L 169.32287 -171.110345 
L 176.563976 -173.553512 
L 183.805082 -175.966185 
L 191.046188 -178.352258 
L 198.287294 -180.714927 
L 205.5284 -183.056794 
L 212.769506 -185.37996 
L 220.010612 -187.686122 
L 227.251718 -189.97664 
L 234.492824 -192.252607 
L 241.73393 -194.514894 
L 248.975036 -196.764196 
L 256.216142 -199.001065 
L 263.457248 -201.225934 
L 270.698354 -203.43914 
L 277.93946 -205.640943 
L 285.180566 -207.831539 
L 292.421672 -210.011069 
L 299.662778 -212.179631 
L 306.903884 -214.337288 
L 314.14499 -216.484073 
L 321.386096 -218.619992 
L 328.627202 -220.745034 
L 335.868308 -222.859169 
L 343.109414 -224.962353 
L 350.35052 -227.054533 
L 357.591626 -229.135645 
L 364.832732 -231.205619 
L 372.073838 -233.264379 
L 379.314944 -235.311845 
L 386.55605 -237.347934 
L 393.797156 -239.37256 
L 401.038262 -241.385639 
L 408.279368 -243.387082 
L 415.520474 -245.376804 
L 422.76158 -247.354721 
L 422.76158 -281.914824 
L 422.76158 -281.914824 
L 415.520474 -279.17361 
L 408.279368 -276.428385 
L 401.038262 -273.678864 
L 393.797156 -270.924758 
L 386.55605 -268.165773 
L 379.314944 -265.401612 
L 372.073838 -262.631975 
L 364.832732 -259.856559 
L 357.591626 -257.075062 
L 350.35052 -254.287177 
L 343.109414 -251.492602 
L 335.868308 -248.691034 
L 328.627202 -245.882175 
L 321.386096 -243.06573 
L 314.14499 -240.241416 
L 306.903884 -237.408955 
L 299.662778 -234.568086 
L 292.421672 -231.718565 
L 285.180566 -228.860169 
L 277.93946 -225.992703 
L 270.698354 -223.116007 
L 263.457248 -220.229964 
L 256.216142 -217.334513 
L 248.975036 -214.429659 
L 241.73393 -211.515489 
L 234.492824 -208.592199 
L 227.251718 -205.66011 
L 220.010612 -202.71971 
L 212.769506 -199.771685 
L 205.5284 -196.816977 
L 198.287294 -193.856836 
L 191.046188 -190.892903 
L 183.805082 -187.927287 
L 176.563976 -184.962668 
L 169.32287 -182.002388 
L 162.081764 -179.050537 
L 154.840658 -176.111988 
L 147.599552 -173.192348 
L 140.358446 -170.297762 
L 133.11734 -167.434532 
L 125.876234 -164.608548 
L 118.635128 -161.824605 
L 111.394022 -159.085787 
L 104.152916 -156.39311 
L 96.91181 -153.745542 
L 89.670704 -151.140386 
L 82.429598 -148.573858 
L 75.188492 -146.04166 
L 67.947386 -143.539325 
z
" style="stroke: #51a7f9; stroke-opacity: 0.4"/>
    </defs>
    <g clip-path="url(#p3f1f183a6b)">
     <use xlink:href="#mf19da42d84" x="0" y="340.838125" style="fill: #51a7f9; fill-opacity: 0.4; stroke: #51a7f9; stroke-opacity: 0.4"/>
    </g>
   </g>
   <g id="FillBetweenPolyCollection_5">
    <defs>
     <path id="mccef0d3295" d="M 67.947386 -160.482463 
L 67.947386 -141.726924 
L 75.188492 -145.207404 
L 82.429598 -148.618892 
L 89.670704 -151.965862 
L 96.91181 -155.250381 
L 104.152916 -158.473771 
L 111.394022 -161.63713 
L 118.635128 -164.741604 
L 125.876234 -167.78855 
L 133.11734 -170.77963 
L 140.358446 -173.716846 
L 147.599552 -176.602529 
L 154.840658 -179.43929 
L 162.081764 -182.229937 
L 169.32287 -184.977392 
L 176.563976 -187.684596 
L 183.805082 -190.35443 
L 191.046188 -192.989653 
L 198.287294 -195.592853 
L 205.5284 -198.166415 
L 212.769506 -200.712512 
L 220.010612 -203.233097 
L 227.251718 -205.729912 
L 234.492824 -208.204496 
L 241.73393 -210.658204 
L 248.975036 -213.092219 
L 256.216142 -215.507573 
L 263.457248 -217.905162 
L 270.698354 -220.285761 
L 277.93946 -222.650038 
L 285.180566 -224.998571 
L 292.421672 -227.331853 
L 299.662778 -229.650309 
L 306.903884 -231.954302 
L 314.14499 -234.244142 
L 321.386096 -236.520089 
L 328.627202 -238.782368 
L 335.868308 -241.031165 
L 343.109414 -243.266638 
L 350.35052 -245.488918 
L 357.591626 -247.698114 
L 364.832732 -249.894315 
L 372.073838 -252.077594 
L 379.314944 -254.24801 
L 386.55605 -256.405609 
L 393.797156 -258.550427 
L 401.038262 -260.68249 
L 408.279368 -262.801819 
L 415.520474 -264.908427 
L 422.76158 -267.002322 
L 422.76158 -304.83171 
L 422.76158 -304.83171 
L 415.520474 -301.906589 
L 408.279368 -298.978442 
L 401.038262 -296.04708 
L 393.797156 -293.112313 
L 386.55605 -290.173952 
L 379.314944 -287.231815 
L 372.073838 -284.285723 
L 364.832732 -281.335501 
L 357.591626 -278.380985 
L 350.35052 -275.422019 
L 343.109414 -272.458459 
L 335.868308 -269.490175 
L 328.627202 -266.517053 
L 321.386096 -263.539 
L 314.14499 -260.555949 
L 306.903884 -257.567859 
L 299.662778 -254.574722 
L 292.421672 -251.576571 
L 285.180566 -248.573483 
L 277.93946 -245.56559 
L 270.698354 -242.553085 
L 263.457248 -239.536232 
L 256.216142 -236.515378 
L 248.975036 -233.490966 
L 241.73393 -230.463546 
L 234.492824 -227.433794 
L 227.251718 -224.402521 
L 220.010612 -221.370695 
L 212.769506 -218.339452 
L 205.5284 -215.310111 
L 198.287294 -212.284185 
L 191.046188 -209.26338 
L 183.805082 -206.249594 
L 176.563976 -203.244895 
L 169.32287 -200.251491 
L 162.081764 -197.271678 
L 154.840658 -194.307768 
L 147.599552 -191.362003 
L 140.358446 -188.436458 
L 133.11734 -185.532938 
L 125.876234 -182.652884 
L 118.635128 -179.797305 
L 111.394022 -176.966737 
L 104.152916 -174.161233 
L 96.91181 -171.380397 
L 89.670704 -168.623429 
L 82.429598 -165.88919 
L 75.188492 -163.176214 
L 67.947386 -160.482463 
z
" style="stroke: #6a5acd; stroke-opacity: 0.4"/>
    </defs>
    <g clip-path="url(#p3f1f183a6b)">
     <use xlink:href="#mccef0d3295" x="0" y="340.838125" style="fill: #6a5acd; fill-opacity: 0.4; stroke: #6a5acd; stroke-opacity: 0.4"/>
    </g>
   </g>
   <g id="matplotlib.axis_1">
    <g id="xtick_1">
     <g id="line2d_1">
      <defs>
       <path id="me9bc3a591b" d="M 0 0 
L 0 3.5 
" style="stroke: #000000; stroke-width: 0.8"/>
      </defs>
      <g>
       <use xlink:href="#me9bc3a591b" x="67.561973" y="300.96" style="stroke: #000000; stroke-width: 0.8"/>
      </g>
     </g>
     <g id="text_1">
      <!-- 0.00 -->
      <g transform="translate(56.42916 315.558438) scale(0.1 -0.1)">
       <defs>
        <path id="DejaVuSans-30" d="M 2034 4250 
Q 1547 4250 1301 3770 
Q 1056 3291 1056 2328 
Q 1056 1369 1301 889 
Q 1547 409 2034 409 
Q 2525 409 2770 889 
Q 3016 1369 3016 2328 
Q 3016 3291 2770 3770 
Q 2525 4250 2034 4250 
z
M 2034 4750 
Q 2819 4750 3233 4129 
Q 3647 3509 3647 2328 
Q 3647 1150 3233 529 
Q 2819 -91 2034 -91 
Q 1250 -91 836 529 
Q 422 1150 422 2328 
Q 422 3509 836 4129 
Q 1250 4750 2034 4750 
z
" transform="scale(0.015625)"/>
        <path id="DejaVuSans-2e" d="M 684 794 
L 1344 794 
L 1344 0 
L 684 0 
L 684 794 
z
" transform="scale(0.015625)"/>
       </defs>
       <use xlink:href="#DejaVuSans-30"/>
       <use xlink:href="#DejaVuSans-2e" transform="translate(63.623047 0)"/>
       <use xlink:href="#DejaVuSans-30" transform="translate(95.410156 0)"/>
       <use xlink:href="#DejaVuSans-30" transform="translate(159.033203 0)"/>
      </g>
     </g>
    </g>
    <g id="xtick_2">
     <g id="line2d_2">
      <g>
       <use xlink:href="#me9bc3a591b" x="144.644703" y="300.96" style="stroke: #000000; stroke-width: 0.8"/>
      </g>
     </g>
     <g id="text_2">
      <!-- 0.02 -->
      <g transform="translate(133.511891 315.558438) scale(0.1 -0.1)">
       <defs>
        <path id="DejaVuSans-32" d="M 1228 531 
L 3431 531 
L 3431 0 
L 469 0 
L 469 531 
Q 828 903 1448 1529 
Q 2069 2156 2228 2338 
Q 2531 2678 2651 2914 
Q 2772 3150 2772 3378 
Q 2772 3750 2511 3984 
Q 2250 4219 1831 4219 
Q 1534 4219 1204 4116 
Q 875 4013 500 3803 
L 500 4441 
Q 881 4594 1212 4672 
Q 1544 4750 1819 4750 
Q 2544 4750 2975 4387 
Q 3406 4025 3406 3419 
Q 3406 3131 3298 2873 
Q 3191 2616 2906 2266 
Q 2828 2175 2409 1742 
Q 1991 1309 1228 531 
z
" transform="scale(0.015625)"/>
       </defs>
       <use xlink:href="#DejaVuSans-30"/>
       <use xlink:href="#DejaVuSans-2e" transform="translate(63.623047 0)"/>
       <use xlink:href="#DejaVuSans-30" transform="translate(95.410156 0)"/>
       <use xlink:href="#DejaVuSans-32" transform="translate(159.033203 0)"/>
      </g>
     </g>
    </g>
    <g id="xtick_3">
     <g id="line2d_3">
      <g>
       <use xlink:href="#me9bc3a591b" x="221.727433" y="300.96" style="stroke: #000000; stroke-width: 0.8"/>
      </g>
     </g>
     <g id="text_3">
      <!-- 0.04 -->
      <g transform="translate(210.594621 315.558438) scale(0.1 -0.1)">
       <defs>
        <path id="DejaVuSans-34" d="M 2419 4116 
L 825 1625 
L 2419 1625 
L 2419 4116 
z
M 2253 4666 
L 3047 4666 
L 3047 1625 
L 3713 1625 
L 3713 1100 
L 3047 1100 
L 3047 0 
L 2419 0 
L 2419 1100 
L 313 1100 
L 313 1709 
L 2253 4666 
z
" transform="scale(0.015625)"/>
       </defs>
       <use xlink:href="#DejaVuSans-30"/>
       <use xlink:href="#DejaVuSans-2e" transform="translate(63.623047 0)"/>
       <use xlink:href="#DejaVuSans-30" transform="translate(95.410156 0)"/>
       <use xlink:href="#DejaVuSans-34" transform="translate(159.033203 0)"/>
      </g>
     </g>
    </g>
    <g id="xtick_4">
     <g id="line2d_4">
      <g>
       <use xlink:href="#me9bc3a591b" x="298.810164" y="300.96" style="stroke: #000000; stroke-width: 0.8"/>
      </g>
     </g>
     <g id="text_4">
      <!-- 0.06 -->
      <g transform="translate(287.677351 315.558438) scale(0.1 -0.1)">
       <defs>
        <path id="DejaVuSans-36" d="M 2113 2584 
Q 1688 2584 1439 2293 
Q 1191 2003 1191 1497 
Q 1191 994 1439 701 
Q 1688 409 2113 409 
Q 2538 409 2786 701 
Q 3034 994 3034 1497 
Q 3034 2003 2786 2293 
Q 2538 2584 2113 2584 
z
M 3366 4563 
L 3366 3988 
Q 3128 4100 2886 4159 
Q 2644 4219 2406 4219 
Q 1781 4219 1451 3797 
Q 1122 3375 1075 2522 
Q 1259 2794 1537 2939 
Q 1816 3084 2150 3084 
Q 2853 3084 3261 2657 
Q 3669 2231 3669 1497 
Q 3669 778 3244 343 
Q 2819 -91 2113 -91 
Q 1303 -91 875 529 
Q 447 1150 447 2328 
Q 447 3434 972 4092 
Q 1497 4750 2381 4750 
Q 2619 4750 2861 4703 
Q 3103 4656 3366 4563 
z
" transform="scale(0.015625)"/>
       </defs>
       <use xlink:href="#DejaVuSans-30"/>
       <use xlink:href="#DejaVuSans-2e" transform="translate(63.623047 0)"/>
       <use xlink:href="#DejaVuSans-30" transform="translate(95.410156 0)"/>
       <use xlink:href="#DejaVuSans-36" transform="translate(159.033203 0)"/>
      </g>
     </g>
    </g>
    <g id="xtick_5">
     <g id="line2d_5">
      <g>
       <use xlink:href="#me9bc3a591b" x="375.892894" y="300.96" style="stroke: #000000; stroke-width: 0.8"/>
      </g>
     </g>
     <g id="text_5">
      <!-- 0.08 -->
      <g transform="translate(364.760081 315.558438) scale(0.1 -0.1)">
       <defs>
        <path id="DejaVuSans-38" d="M 2034 2216 
Q 1584 2216 1326 1975 
Q 1069 1734 1069 1313 
Q 1069 891 1326 650 
Q 1584 409 2034 409 
Q 2484 409 2743 651 
Q 3003 894 3003 1313 
Q 3003 1734 2745 1975 
Q 2488 2216 2034 2216 
z
M 1403 2484 
Q 997 2584 770 2862 
Q 544 3141 544 3541 
Q 544 4100 942 4425 
Q 1341 4750 2034 4750 
Q 2731 4750 3128 4425 
Q 3525 4100 3525 3541 
Q 3525 3141 3298 2862 
Q 3072 2584 2669 2484 
Q 3125 2378 3379 2068 
Q 3634 1759 3634 1313 
Q 3634 634 3220 271 
Q 2806 -91 2034 -91 
Q 1263 -91 848 271 
Q 434 634 434 1313 
Q 434 1759 690 2068 
Q 947 2378 1403 2484 
z
M 1172 3481 
Q 1172 3119 1398 2916 
Q 1625 2713 2034 2713 
Q 2441 2713 2670 2916 
Q 2900 3119 2900 3481 
Q 2900 3844 2670 4047 
Q 2441 4250 2034 4250 
Q 1625 4250 1398 4047 
Q 1172 3844 1172 3481 
z
" transform="scale(0.015625)"/>
       </defs>
       <use xlink:href="#DejaVuSans-30"/>
       <use xlink:href="#DejaVuSans-2e" transform="translate(63.623047 0)"/>
       <use xlink:href="#DejaVuSans-30" transform="translate(95.410156 0)"/>
       <use xlink:href="#DejaVuSans-38" transform="translate(159.033203 0)"/>
      </g>
     </g>
    </g>
    <g id="text_6">
     <!-- $l^2_F = m_\pi^2 / (4 \pi F_\pi)^2$ -->
     <g transform="translate(208.93375 330.738125) scale(0.1 -0.1)">
      <defs>
       <path id="DejaVuSans-Oblique-6c" d="M 1172 4863 
L 1747 4863 
L 800 0 
L 225 0 
L 1172 4863 
z
" transform="scale(0.015625)"/>
       <path id="DejaVuSans-Oblique-46" d="M 1081 4666 
L 3756 4666 
L 3653 4134 
L 1606 4134 
L 1338 2759 
L 3188 2759 
L 3084 2228 
L 1234 2228 
L 800 0 
L 172 0 
L 1081 4666 
z
" transform="scale(0.015625)"/>
       <path id="DejaVuSans-3d" d="M 678 2906 
L 4684 2906 
L 4684 2381 
L 678 2381 
L 678 2906 
z
M 678 1631 
L 4684 1631 
L 4684 1100 
L 678 1100 
L 678 1631 
z
" transform="scale(0.015625)"/>
       <path id="DejaVuSans-Oblique-6d" d="M 5747 2113 
L 5338 0 
L 4763 0 
L 5166 2094 
Q 5191 2228 5203 2325 
Q 5216 2422 5216 2491 
Q 5216 2772 5059 2928 
Q 4903 3084 4622 3084 
Q 4203 3084 3875 2770 
Q 3547 2456 3450 1953 
L 3066 0 
L 2491 0 
L 2900 2094 
Q 2925 2209 2937 2307 
Q 2950 2406 2950 2484 
Q 2950 2769 2794 2926 
Q 2638 3084 2363 3084 
Q 1938 3084 1609 2770 
Q 1281 2456 1184 1953 
L 800 0 
L 225 0 
L 909 3500 
L 1484 3500 
L 1375 2956 
Q 1609 3263 1923 3423 
Q 2238 3584 2597 3584 
Q 2978 3584 3223 3384 
Q 3469 3184 3519 2828 
Q 3781 3197 4126 3390 
Q 4472 3584 4856 3584 
Q 5306 3584 5551 3325 
Q 5797 3066 5797 2591 
Q 5797 2488 5784 2364 
Q 5772 2241 5747 2113 
z
" transform="scale(0.015625)"/>
       <path id="DejaVuSans-Oblique-3c0" d="M 584 3500 
L 3938 3500 
L 3825 2925 
L 3384 2925 
L 2966 775 
Q 2922 550 2981 450 
Q 3038 353 3209 353 
Q 3256 353 3325 363 
Q 3397 369 3419 372 
L 3338 -44 
Q 3222 -84 3103 -103 
Q 2981 -122 2866 -122 
Q 2491 -122 2388 81 
Q 2284 288 2391 838 
L 2797 2925 
L 1506 2925 
L 938 0 
L 350 0 
L 919 2925 
L 472 2925 
L 584 3500 
z
" transform="scale(0.015625)"/>
       <path id="DejaVuSans-2f" d="M 1625 4666 
L 2156 4666 
L 531 -594 
L 0 -594 
L 1625 4666 
z
" transform="scale(0.015625)"/>
       <path id="DejaVuSans-28" d="M 1984 4856 
Q 1566 4138 1362 3434 
Q 1159 2731 1159 2009 
Q 1159 1288 1364 580 
Q 1569 -128 1984 -844 
L 1484 -844 
Q 1016 -109 783 600 
Q 550 1309 550 2009 
Q 550 2706 781 3412 
Q 1013 4119 1484 4856 
L 1984 4856 
z
" transform="scale(0.015625)"/>
       <path id="DejaVuSans-29" d="M 513 4856 
L 1013 4856 
Q 1481 4119 1714 3412 
Q 1947 2706 1947 2009 
Q 1947 1309 1714 600 
Q 1481 -109 1013 -844 
L 513 -844 
Q 928 -128 1133 580 
Q 1338 1288 1338 2009 
Q 1338 2731 1133 3434 
Q 928 4138 513 4856 
z
" transform="scale(0.015625)"/>
      </defs>
      <use xlink:href="#DejaVuSans-Oblique-6c" transform="translate(0 0.765625)"/>
      <use xlink:href="#DejaVuSans-32" transform="translate(35.230911 39.046875) scale(0.7)"/>
      <use xlink:href="#DejaVuSans-Oblique-46" transform="translate(27.783203 -26.578125) scale(0.7)"/>
      <use xlink:href="#DejaVuSans-3d" transform="translate(101.983841 0.765625)"/>
      <use xlink:href="#DejaVuSans-Oblique-6d" transform="translate(205.255326 0.765625)"/>
      <use xlink:href="#DejaVuSans-32" transform="translate(307.317331 39.046875) scale(0.7)"/>
      <use xlink:href="#DejaVuSans-Oblique-3c0" transform="translate(302.667435 -26.578125) scale(0.7)"/>
      <use xlink:href="#DejaVuSans-2f" transform="translate(354.587839 0.765625)"/>
      <use xlink:href="#DejaVuSans-28" transform="translate(388.279245 0.765625)"/>
      <use xlink:href="#DejaVuSans-34" transform="translate(427.292917 0.765625)"/>
      <use xlink:href="#DejaVuSans-Oblique-3c0" transform="translate(490.915964 0.765625)"/>
      <use xlink:href="#DejaVuSans-Oblique-46" transform="translate(551.121042 0.765625)"/>
      <use xlink:href="#DejaVuSans-Oblique-3c0" transform="translate(608.640573 -15.640625) scale(0.7)"/>
      <use xlink:href="#DejaVuSans-29" transform="translate(653.518503 0.765625)"/>
      <use xlink:href="#DejaVuSans-32" transform="translate(693.489206 39.046875) scale(0.7)"/>
     </g>
    </g>
   </g>
   <g id="matplotlib.axis_2">
    <g id="ytick_1">
     <g id="line2d_6">
      <defs>
       <path id="md14b60d181" d="M 0 0 
L -3.5 0 
" style="stroke: #000000; stroke-width: 0.8"/>
      </defs>
      <g>
       <use xlink:href="#md14b60d181" x="50.14375" y="275.323602" style="stroke: #000000; stroke-width: 0.8"/>
      </g>
     </g>
     <g id="text_7">
      <!-- 1.35 -->
      <g transform="translate(20.878125 279.122821) scale(0.1 -0.1)">
       <defs>
        <path id="DejaVuSans-31" d="M 794 531 
L 1825 531 
L 1825 4091 
L 703 3866 
L 703 4441 
L 1819 4666 
L 2450 4666 
L 2450 531 
L 3481 531 
L 3481 0 
L 794 0 
L 794 531 
z
" transform="scale(0.015625)"/>
        <path id="DejaVuSans-33" d="M 2597 2516 
Q 3050 2419 3304 2112 
Q 3559 1806 3559 1356 
Q 3559 666 3084 287 
Q 2609 -91 1734 -91 
Q 1441 -91 1130 -33 
Q 819 25 488 141 
L 488 750 
Q 750 597 1062 519 
Q 1375 441 1716 441 
Q 2309 441 2620 675 
Q 2931 909 2931 1356 
Q 2931 1769 2642 2001 
Q 2353 2234 1838 2234 
L 1294 2234 
L 1294 2753 
L 1863 2753 
Q 2328 2753 2575 2939 
Q 2822 3125 2822 3475 
Q 2822 3834 2567 4026 
Q 2313 4219 1838 4219 
Q 1578 4219 1281 4162 
Q 984 4106 628 3988 
L 628 4550 
Q 988 4650 1302 4700 
Q 1616 4750 1894 4750 
Q 2613 4750 3031 4423 
Q 3450 4097 3450 3541 
Q 3450 3153 3228 2886 
Q 3006 2619 2597 2516 
z
" transform="scale(0.015625)"/>
        <path id="DejaVuSans-35" d="M 691 4666 
L 3169 4666 
L 3169 4134 
L 1269 4134 
L 1269 2991 
Q 1406 3038 1543 3061 
Q 1681 3084 1819 3084 
Q 2600 3084 3056 2656 
Q 3513 2228 3513 1497 
Q 3513 744 3044 326 
Q 2575 -91 1722 -91 
Q 1428 -91 1123 -41 
Q 819 9 494 109 
L 494 744 
Q 775 591 1075 516 
Q 1375 441 1709 441 
Q 2250 441 2565 725 
Q 2881 1009 2881 1497 
Q 2881 1984 2565 2268 
Q 2250 2553 1709 2553 
Q 1456 2553 1204 2497 
Q 953 2441 691 2322 
L 691 4666 
z
" transform="scale(0.015625)"/>
       </defs>
       <use xlink:href="#DejaVuSans-31"/>
       <use xlink:href="#DejaVuSans-2e" transform="translate(63.623047 0)"/>
       <use xlink:href="#DejaVuSans-33" transform="translate(95.410156 0)"/>
       <use xlink:href="#DejaVuSans-35" transform="translate(159.033203 0)"/>
      </g>
     </g>
    </g>
    <g id="ytick_2">
     <g id="line2d_7">
      <g>
       <use xlink:href="#md14b60d181" x="50.14375" y="214.174247" style="stroke: #000000; stroke-width: 0.8"/>
      </g>
     </g>
     <g id="text_8">
      <!-- 1.40 -->
      <g transform="translate(20.878125 217.973466) scale(0.1 -0.1)">
       <use xlink:href="#DejaVuSans-31"/>
       <use xlink:href="#DejaVuSans-2e" transform="translate(63.623047 0)"/>
       <use xlink:href="#DejaVuSans-34" transform="translate(95.410156 0)"/>
       <use xlink:href="#DejaVuSans-30" transform="translate(159.033203 0)"/>
      </g>
     </g>
    </g>
    <g id="ytick_3">
     <g id="line2d_8">
      <g>
       <use xlink:href="#md14b60d181" x="50.14375" y="153.024892" style="stroke: #000000; stroke-width: 0.8"/>
      </g>
     </g>
     <g id="text_9">
      <!-- 1.45 -->
      <g transform="translate(20.878125 156.824111) scale(0.1 -0.1)">
       <use xlink:href="#DejaVuSans-31"/>
       <use xlink:href="#DejaVuSans-2e" transform="translate(63.623047 0)"/>
       <use xlink:href="#DejaVuSans-34" transform="translate(95.410156 0)"/>
       <use xlink:href="#DejaVuSans-35" transform="translate(159.033203 0)"/>
      </g>
     </g>
    </g>
    <g id="ytick_4">
     <g id="line2d_9">
      <g>
       <use xlink:href="#md14b60d181" x="50.14375" y="91.875538" style="stroke: #000000; stroke-width: 0.8"/>
      </g>
     </g>
     <g id="text_10">
      <!-- 1.50 -->
      <g transform="translate(20.878125 95.674756) scale(0.1 -0.1)">
       <use xlink:href="#DejaVuSans-31"/>
       <use xlink:href="#DejaVuSans-2e" transform="translate(63.623047 0)"/>
       <use xlink:href="#DejaVuSans-35" transform="translate(95.410156 0)"/>
       <use xlink:href="#DejaVuSans-30" transform="translate(159.033203 0)"/>
      </g>
     </g>
    </g>
    <g id="ytick_5">
     <g id="line2d_10">
      <g>
       <use xlink:href="#md14b60d181" x="50.14375" y="30.726183" style="stroke: #000000; stroke-width: 0.8"/>
      </g>
     </g>
     <g id="text_11">
      <!-- 1.55 -->
      <g transform="translate(20.878125 34.525402) scale(0.1 -0.1)">
       <use xlink:href="#DejaVuSans-31"/>
       <use xlink:href="#DejaVuSans-2e" transform="translate(63.623047 0)"/>
       <use xlink:href="#DejaVuSans-35" transform="translate(95.410156 0)"/>
       <use xlink:href="#DejaVuSans-35" transform="translate(159.033203 0)"/>
      </g>
     </g>
    </g>
    <g id="text_12">
     <!-- $w_0 m_\Omega$ -->
     <g transform="translate(14.798437 168.23) rotate(-90) scale(0.1 -0.1)">
      <defs>
       <path id="DejaVuSans-Oblique-77" d="M 544 3500 
L 1113 3500 
L 1259 684 
L 2566 3500 
L 3231 3500 
L 3425 684 
L 4666 3500 
L 5241 3500 
L 3641 0 
L 2969 0 
L 2797 2900 
L 1459 0 
L 781 0 
L 544 3500 
z
" transform="scale(0.015625)"/>
       <path id="DejaVuSans-3a9" d="M 4647 556 
L 4647 0 
L 2772 0 
L 2772 556 
Q 3325 859 3634 1378 
Q 3944 1897 3944 2528 
Q 3944 3278 3531 3731 
Q 3119 4184 2444 4184 
Q 1769 4184 1355 3729 
Q 941 3275 941 2528 
Q 941 1897 1250 1378 
Q 1563 859 2119 556 
L 2119 0 
L 244 0 
L 244 556 
L 1241 556 
Q 747 991 519 1456 
Q 294 1922 294 2497 
Q 294 3491 894 4106 
Q 1491 4722 2444 4722 
Q 3391 4722 3994 4106 
Q 4594 3494 4594 2528 
Q 4594 1922 4372 1459 
Q 4150 997 3647 556 
L 4647 556 
z
" transform="scale(0.015625)"/>
      </defs>
      <use xlink:href="#DejaVuSans-Oblique-77"/>
      <use xlink:href="#DejaVuSans-30" transform="translate(81.787109 -16.40625) scale(0.7)"/>
      <use xlink:href="#DejaVuSans-Oblique-6d" transform="translate(129.057617 0)"/>
      <use xlink:href="#DejaVuSans-3a9" transform="translate(226.469727 -16.40625) scale(0.7)"/>
     </g>
    </g>
   </g>
   <g id="line2d_11">
    <path d="M 119.799652 300.96 
L 119.799652 7.2 
" clip-path="url(#p3f1f183a6b)" style="fill: none; stroke-dasharray: 5.55,2.4; stroke-dashoffset: 0; stroke: #1f77b4; stroke-width: 1.5"/>
   </g>
   <g id="line2d_12">
    <path d="M 119.799652 300.96 
L 119.799652 7.2 
" clip-path="url(#p3f1f183a6b)" style="fill: none; stroke-dasharray: 5.55,2.4; stroke-dashoffset: 0; stroke: #1f77b4; stroke-width: 1.5"/>
   </g>
   <g id="line2d_13">
    <path d="M 119.799652 300.96 
L 119.799652 7.2 
" clip-path="url(#p3f1f183a6b)" style="fill: none; stroke-dasharray: 5.55,2.4; stroke-dashoffset: 0; stroke: #1f77b4; stroke-width: 1.5"/>
   </g>
   <g id="line2d_14">
    <path d="M 119.799652 300.96 
L 119.799652 7.2 
" clip-path="url(#p3f1f183a6b)" style="fill: none; stroke-dasharray: 5.55,2.4; stroke-dashoffset: 0; stroke: #1f77b4; stroke-width: 1.5"/>
   </g>
   <g id="line2d_15">
    <path d="M 119.799652 300.96 
L 119.799652 7.2 
" clip-path="url(#p3f1f183a6b)" style="fill: none; stroke-dasharray: 5.55,2.4; stroke-dashoffset: 0; stroke: #1f77b4; stroke-width: 1.5"/>
   </g>
   <g id="line2d_16">
    <path d="M 424.020114 190.621726 
L 421.503046 190.622654 
" clip-path="url(#p3f1f183a6b)" style="fill: none; stroke: #ec5d57; stroke-width: 2; stroke-linecap: square"/>
   </g>
   <g id="line2d_17">
    <path d="M 422.703133 174.657302 
L 422.820026 206.587079 
" clip-path="url(#p3f1f183a6b)" style="fill: none; stroke: #ec5d57; stroke-width: 2; stroke-linecap: square"/>
   </g>
   <g id="line2d_18">
    <path d="M 357.886984 207.454945 
L 355.7244 207.4564 
" clip-path="url(#p3f1f183a6b)" style="fill: none; stroke: #ec5d57; stroke-width: 2; stroke-linecap: square"/>
   </g>
   <g id="line2d_19">
    <path d="M 356.722274 194.971688 
L 356.88911 219.939657 
" clip-path="url(#p3f1f183a6b)" style="fill: none; stroke: #ec5d57; stroke-width: 2; stroke-linecap: square"/>
   </g>
   <g id="line2d_20">
    <path d="M 300.384535 211.130107 
L 298.598408 211.130996 
" clip-path="url(#p3f1f183a6b)" style="fill: none; stroke: #ec5d57; stroke-width: 2; stroke-linecap: square"/>
   </g>
   <g id="line2d_21">
    <path d="M 299.443536 201.429703 
L 299.539406 220.8314 
" clip-path="url(#p3f1f183a6b)" style="fill: none; stroke: #ec5d57; stroke-width: 2; stroke-linecap: square"/>
   </g>
   <g id="line2d_22">
    <path d="M 308.058997 210.981239 
L 306.739303 210.981718 
" clip-path="url(#p3f1f183a6b)" style="fill: none; stroke: #ec5d57; stroke-width: 2; stroke-linecap: square"/>
   </g>
   <g id="line2d_23">
    <path d="M 307.361209 200.452559 
L 307.437092 221.510398 
" clip-path="url(#p3f1f183a6b)" style="fill: none; stroke: #ec5d57; stroke-width: 2; stroke-linecap: square"/>
   </g>
   <g id="line2d_24">
    <path d="M 193.96868 241.811878 
L 193.122585 241.812456 
" clip-path="url(#p3f1f183a6b)" style="fill: none; stroke: #ec5d57; stroke-width: 2; stroke-linecap: square"/>
   </g>
   <g id="line2d_25">
    <path d="M 193.512869 236.97711 
L 193.578395 246.647224 
" clip-path="url(#p3f1f183a6b)" style="fill: none; stroke: #ec5d57; stroke-width: 2; stroke-linecap: square"/>
   </g>
   <g id="line2d_26">
    <path d="M 118.581805 262.948982 
L 118.239812 262.949421 
" clip-path="url(#p3f1f183a6b)" style="fill: none; stroke: #ec5d57; stroke-width: 2; stroke-linecap: square"/>
   </g>
   <g id="line2d_27">
    <path d="M 118.374259 260.08538 
L 118.447358 265.813023 
" clip-path="url(#p3f1f183a6b)" style="fill: none; stroke: #ec5d57; stroke-width: 2; stroke-linecap: square"/>
   </g>
   <g id="line2d_28">
    <path d="M 411.32659 125.544698 
L 408.982332 125.545716 
" clip-path="url(#p3f1f183a6b)" style="fill: none; stroke: #70bf41; stroke-width: 2; stroke-linecap: square"/>
   </g>
   <g id="line2d_29">
    <path d="M 410.087237 109.953305 
L 410.221685 141.137109 
" clip-path="url(#p3f1f183a6b)" style="fill: none; stroke: #70bf41; stroke-width: 2; stroke-linecap: square"/>
   </g>
   <g id="line2d_30">
    <path d="M 350.590078 152.710464 
L 347.75837 152.71335 
" clip-path="url(#p3f1f183a6b)" style="fill: none; stroke: #70bf41; stroke-width: 2; stroke-linecap: square"/>
   </g>
   <g id="line2d_31">
    <path d="M 349.04167 139.614725 
L 349.306777 165.809089 
" clip-path="url(#p3f1f183a6b)" style="fill: none; stroke: #70bf41; stroke-width: 2; stroke-linecap: square"/>
   </g>
   <g id="line2d_32">
    <path d="M 296.006858 162.636569 
L 294.235411 162.63773 
" clip-path="url(#p3f1f183a6b)" style="fill: none; stroke: #70bf41; stroke-width: 2; stroke-linecap: square"/>
   </g>
   <g id="line2d_33">
    <path d="M 295.042277 150.517247 
L 295.199993 174.757052 
" clip-path="url(#p3f1f183a6b)" style="fill: none; stroke: #70bf41; stroke-width: 2; stroke-linecap: square"/>
   </g>
   <g id="line2d_34">
    <path d="M 299.135553 158.658526 
L 297.252783 158.660204 
" clip-path="url(#p3f1f183a6b)" style="fill: none; stroke: #70bf41; stroke-width: 2; stroke-linecap: square"/>
   </g>
   <g id="line2d_35">
    <path d="M 298.092451 147.16862 
L 298.295885 170.15011 
" clip-path="url(#p3f1f183a6b)" style="fill: none; stroke: #70bf41; stroke-width: 2; stroke-linecap: square"/>
   </g>
   <g id="line2d_36">
    <path d="M 199.239178 195.350527 
L 197.981359 195.350229 
" clip-path="url(#p3f1f183a6b)" style="fill: none; stroke: #70bf41; stroke-width: 2; stroke-linecap: square"/>
   </g>
   <g id="line2d_37">
    <path d="M 198.62981 187.0525 
L 198.590727 203.648256 
" clip-path="url(#p3f1f183a6b)" style="fill: none; stroke: #70bf41; stroke-width: 2; stroke-linecap: square"/>
   </g>
   <g id="line2d_38">
    <path d="M 198.708795 186.228382 
L 197.232553 186.230542 
" clip-path="url(#p3f1f183a6b)" style="fill: none; stroke: #70bf41; stroke-width: 2; stroke-linecap: square"/>
   </g>
   <g id="line2d_39">
    <path d="M 197.867828 179.152345 
L 198.07352 193.30658 
" clip-path="url(#p3f1f183a6b)" style="fill: none; stroke: #70bf41; stroke-width: 2; stroke-linecap: square"/>
   </g>
   <g id="line2d_40">
    <path d="M 194.901236 186.792886 
L 193.735865 186.793917 
" clip-path="url(#p3f1f183a6b)" style="fill: none; stroke: #70bf41; stroke-width: 2; stroke-linecap: square"/>
   </g>
   <g id="line2d_41">
    <path d="M 194.254841 179.543077 
L 194.38226 194.043726 
" clip-path="url(#p3f1f183a6b)" style="fill: none; stroke: #70bf41; stroke-width: 2; stroke-linecap: square"/>
   </g>
   <g id="line2d_42">
    <path d="M 195.875465 189.825003 
L 194.716628 189.8256 
" clip-path="url(#p3f1f183a6b)" style="fill: none; stroke: #70bf41; stroke-width: 2; stroke-linecap: square"/>
   </g>
   <g id="line2d_43">
    <path d="M 195.236822 178.244954 
L 195.355271 201.405648 
" clip-path="url(#p3f1f183a6b)" style="fill: none; stroke: #70bf41; stroke-width: 2; stroke-linecap: square"/>
   </g>
   <g id="line2d_44">
    <path d="M 155.669934 195.015176 
L 154.961263 195.015997 
" clip-path="url(#p3f1f183a6b)" style="fill: none; stroke: #70bf41; stroke-width: 2; stroke-linecap: square"/>
   </g>
   <g id="line2d_45">
    <path d="M 155.252891 189.568798 
L 155.378306 200.462375 
" clip-path="url(#p3f1f183a6b)" style="fill: none; stroke: #70bf41; stroke-width: 2; stroke-linecap: square"/>
   </g>
   <g id="line2d_46">
    <path d="M 117.438079 217.002013 
L 116.862755 217.002604 
" clip-path="url(#p3f1f183a6b)" style="fill: none; stroke: #70bf41; stroke-width: 2; stroke-linecap: square"/>
   </g>
   <g id="line2d_47">
    <path d="M 117.104319 212.48426 
L 117.196515 221.520357 
" clip-path="url(#p3f1f183a6b)" style="fill: none; stroke: #70bf41; stroke-width: 2; stroke-linecap: square"/>
   </g>
   <g id="line2d_48">
    <path d="M 411.158491 82.637415 
L 408.702118 82.637767 
" clip-path="url(#p3f1f183a6b)" style="fill: none; stroke: #51a7f9; stroke-width: 2; stroke-linecap: square"/>
   </g>
   <g id="line2d_49">
    <path d="M 409.906108 65.638415 
L 409.9545 99.636767 
" clip-path="url(#p3f1f183a6b)" style="fill: none; stroke: #51a7f9; stroke-width: 2; stroke-linecap: square"/>
   </g>
   <g id="line2d_50">
    <path d="M 348.44385 118.699984 
L 346.016086 118.700918 
" clip-path="url(#p3f1f183a6b)" style="fill: none; stroke: #51a7f9; stroke-width: 2; stroke-linecap: square"/>
   </g>
   <g id="line2d_51">
    <path d="M 347.170696 103.188658 
L 347.28924 134.212244 
" clip-path="url(#p3f1f183a6b)" style="fill: none; stroke: #51a7f9; stroke-width: 2; stroke-linecap: square"/>
   </g>
   <g id="line2d_52">
    <path d="M 301.633758 120.499761 
L 299.916409 120.500456 
" clip-path="url(#p3f1f183a6b)" style="fill: none; stroke: #51a7f9; stroke-width: 2; stroke-linecap: square"/>
   </g>
   <g id="line2d_53">
    <path d="M 300.719308 106.625121 
L 300.830858 134.375096 
" clip-path="url(#p3f1f183a6b)" style="fill: none; stroke: #51a7f9; stroke-width: 2; stroke-linecap: square"/>
   </g>
   <g id="line2d_54">
    <path d="M 195.525268 160.155247 
L 194.484179 160.15582 
" clip-path="url(#p3f1f183a6b)" style="fill: none; stroke: #51a7f9; stroke-width: 2; stroke-linecap: square"/>
   </g>
   <g id="line2d_55">
    <path d="M 194.95491 151.035791 
L 195.054537 169.275276 
" clip-path="url(#p3f1f183a6b)" style="fill: none; stroke: #51a7f9; stroke-width: 2; stroke-linecap: square"/>
   </g>
   <g id="line2d_56">
    <path d="M 119.719276 192.567235 
L 119.147674 192.567747 
" clip-path="url(#p3f1f183a6b)" style="fill: none; stroke: #51a7f9; stroke-width: 2; stroke-linecap: square"/>
   </g>
   <g id="line2d_57">
    <path d="M 119.378725 186.410534 
L 119.488225 198.724448 
" clip-path="url(#p3f1f183a6b)" style="fill: none; stroke: #51a7f9; stroke-width: 2; stroke-linecap: square"/>
   </g>
   <g id="line2d_58">
    <path d="M 305.581859 86.089196 
L 302.903442 86.091284 
" clip-path="url(#p3f1f183a6b)" style="fill: none; stroke: #6a5acd; stroke-width: 2; stroke-linecap: square"/>
   </g>
   <g id="line2d_59">
    <path d="M 304.136985 72.445899 
L 304.348315 99.734581 
" clip-path="url(#p3f1f183a6b)" style="fill: none; stroke: #6a5acd; stroke-width: 2; stroke-linecap: square"/>
   </g>
   <g id="LineCollection_1"/>
   <g id="LineCollection_2"/>
   <g id="LineCollection_3"/>
   <g id="LineCollection_4"/>
   <g id="LineCollection_5"/>
   <g id="LineCollection_6"/>
   <g id="LineCollection_7"/>
   <g id="LineCollection_8"/>
   <g id="line2d_60"/>
   <g id="line2d_61"/>
   <g id="line2d_62"/>
   <g id="line2d_63"/>
   <g id="patch_3">
    <path d="M 50.14375 300.96 
L 50.14375 7.2 
" style="fill: none; stroke: #000000; stroke-width: 0.8; stroke-linejoin: miter; stroke-linecap: square"/>
   </g>
   <g id="patch_4">
    <path d="M 441.82375 300.96 
L 441.82375 7.2 
" style="fill: none; stroke: #000000; stroke-width: 0.8; stroke-linejoin: miter; stroke-linecap: square"/>
   </g>
   <g id="patch_5">
    <path d="M 50.14375 300.96 
L 441.82375 300.96 
" style="fill: none; stroke: #000000; stroke-width: 0.8; stroke-linejoin: miter; stroke-linecap: square"/>
   </g>
   <g id="patch_6">
    <path d="M 50.14375 7.2 
L 441.82375 7.2 
" style="fill: none; stroke: #000000; stroke-width: 0.8; stroke-linejoin: miter; stroke-linecap: square"/>
   </g>
   <g id="line2d_64">
    <path d="M 422.76158 190.62219 
" clip-path="url(#p3f1f183a6b)" style="fill: none; stroke: #ec5d57; stroke-width: 1.5; stroke-linecap: square"/>
    <defs>
     <path id="ma9479aa653" d="M 0 3 
C 0.795609 3 1.55874 2.683901 2.12132 2.12132 
C 2.683901 1.55874 3 0.795609 3 0 
C 3 -0.795609 2.683901 -1.55874 2.12132 -2.12132 
C 1.55874 -2.683901 0.795609 -3 0 -3 
C -0.795609 -3 -1.55874 -2.683901 -2.12132 -2.12132 
C -2.683901 -1.55874 -3 -0.795609 -3 0 
C -3 0.795609 -2.683901 1.55874 -2.12132 2.12132 
C -1.55874 2.683901 -0.795609 3 0 3 
z
" style="stroke: #ffffff"/>
    </defs>
    <g clip-path="url(#p3f1f183a6b)">
     <use xlink:href="#ma9479aa653" x="422.76158" y="190.62219" style="fill: #ec5d57; stroke: #ffffff"/>
    </g>
   </g>
   <g id="line2d_65">
    <path d="M 422.76158 190.62219 
" clip-path="url(#p3f1f183a6b)" style="fill: none; stroke: #ec5d57; stroke-width: 1.5; stroke-linecap: square"/>
    <g clip-path="url(#p3f1f183a6b)">
     <use xlink:href="#ma9479aa653" x="422.76158" y="190.62219" style="fill: #ec5d57; stroke: #ffffff"/>
    </g>
   </g>
   <g id="line2d_66">
    <path d="M 356.805692 207.455673 
" clip-path="url(#p3f1f183a6b)" style="fill: none; stroke: #ec5d57; stroke-width: 1.5; stroke-linecap: square"/>
    <g clip-path="url(#p3f1f183a6b)">
     <use xlink:href="#ma9479aa653" x="356.805692" y="207.455673" style="fill: #ec5d57; stroke: #ffffff"/>
    </g>
   </g>
   <g id="line2d_67">
    <path d="M 356.805692 207.455673 
" clip-path="url(#p3f1f183a6b)" style="fill: none; stroke: #ec5d57; stroke-width: 1.5; stroke-linecap: square"/>
    <g clip-path="url(#p3f1f183a6b)">
     <use xlink:href="#ma9479aa653" x="356.805692" y="207.455673" style="fill: #ec5d57; stroke: #ffffff"/>
    </g>
   </g>
   <g id="line2d_68">
    <path d="M 299.491471 211.130551 
" clip-path="url(#p3f1f183a6b)" style="fill: none; stroke: #ec5d57; stroke-width: 1.5; stroke-linecap: square"/>
    <g clip-path="url(#p3f1f183a6b)">
     <use xlink:href="#ma9479aa653" x="299.491471" y="211.130551" style="fill: #ec5d57; stroke: #ffffff"/>
    </g>
   </g>
   <g id="line2d_69">
    <path d="M 299.491471 211.130551 
" clip-path="url(#p3f1f183a6b)" style="fill: none; stroke: #ec5d57; stroke-width: 1.5; stroke-linecap: square"/>
    <g clip-path="url(#p3f1f183a6b)">
     <use xlink:href="#ma9479aa653" x="299.491471" y="211.130551" style="fill: #ec5d57; stroke: #ffffff"/>
    </g>
   </g>
   <g id="line2d_70">
    <path d="M 307.39915 210.981478 
" clip-path="url(#p3f1f183a6b)" style="fill: none; stroke: #ec5d57; stroke-width: 1.5; stroke-linecap: square"/>
    <g clip-path="url(#p3f1f183a6b)">
     <use xlink:href="#ma9479aa653" x="307.39915" y="210.981478" style="fill: #ec5d57; stroke: #ffffff"/>
    </g>
   </g>
   <g id="line2d_71">
    <path d="M 307.39915 210.981478 
" clip-path="url(#p3f1f183a6b)" style="fill: none; stroke: #ec5d57; stroke-width: 1.5; stroke-linecap: square"/>
    <g clip-path="url(#p3f1f183a6b)">
     <use xlink:href="#ma9479aa653" x="307.39915" y="210.981478" style="fill: #ec5d57; stroke: #ffffff"/>
    </g>
   </g>
   <g id="line2d_72">
    <path d="M 193.545632 241.812167 
" clip-path="url(#p3f1f183a6b)" style="fill: none; stroke: #ec5d57; stroke-width: 1.5; stroke-linecap: square"/>
    <g clip-path="url(#p3f1f183a6b)">
     <use xlink:href="#ma9479aa653" x="193.545632" y="241.812167" style="fill: #ec5d57; stroke: #ffffff"/>
    </g>
   </g>
   <g id="line2d_73">
    <path d="M 193.545632 241.812167 
" clip-path="url(#p3f1f183a6b)" style="fill: none; stroke: #ec5d57; stroke-width: 1.5; stroke-linecap: square"/>
    <g clip-path="url(#p3f1f183a6b)">
     <use xlink:href="#ma9479aa653" x="193.545632" y="241.812167" style="fill: #ec5d57; stroke: #ffffff"/>
    </g>
   </g>
   <g id="line2d_74">
    <path d="M 118.410809 262.949201 
" clip-path="url(#p3f1f183a6b)" style="fill: none; stroke: #ec5d57; stroke-width: 1.5; stroke-linecap: square"/>
    <g clip-path="url(#p3f1f183a6b)">
     <use xlink:href="#ma9479aa653" x="118.410809" y="262.949201" style="fill: #ec5d57; stroke: #ffffff"/>
    </g>
   </g>
   <g id="line2d_75">
    <path d="M 118.410809 262.949201 
" clip-path="url(#p3f1f183a6b)" style="fill: none; stroke: #ec5d57; stroke-width: 1.5; stroke-linecap: square"/>
    <g clip-path="url(#p3f1f183a6b)">
     <use xlink:href="#ma9479aa653" x="118.410809" y="262.949201" style="fill: #ec5d57; stroke: #ffffff"/>
    </g>
   </g>
   <g id="line2d_76">
    <path d="M 410.154461 125.545207 
" clip-path="url(#p3f1f183a6b)" style="fill: none; stroke: #70bf41; stroke-width: 1.5; stroke-linecap: square"/>
    <defs>
     <path id="m17cbdce9e1" d="M 0 3 
C 0.795609 3 1.55874 2.683901 2.12132 2.12132 
C 2.683901 1.55874 3 0.795609 3 0 
C 3 -0.795609 2.683901 -1.55874 2.12132 -2.12132 
C 1.55874 -2.683901 0.795609 -3 0 -3 
C -0.795609 -3 -1.55874 -2.683901 -2.12132 -2.12132 
C -2.683901 -1.55874 -3 -0.795609 -3 0 
C -3 0.795609 -2.683901 1.55874 -2.12132 2.12132 
C -1.55874 2.683901 -0.795609 3 0 3 
z
" style="stroke: #ffffff"/>
    </defs>
    <g clip-path="url(#p3f1f183a6b)">
     <use xlink:href="#m17cbdce9e1" x="410.154461" y="125.545207" style="fill: #70bf41; stroke: #ffffff"/>
    </g>
   </g>
   <g id="line2d_77">
    <path d="M 410.154461 125.545207 
" clip-path="url(#p3f1f183a6b)" style="fill: none; stroke: #70bf41; stroke-width: 1.5; stroke-linecap: square"/>
    <g clip-path="url(#p3f1f183a6b)">
     <use xlink:href="#m17cbdce9e1" x="410.154461" y="125.545207" style="fill: #70bf41; stroke: #ffffff"/>
    </g>
   </g>
   <g id="line2d_78">
    <path d="M 349.174224 152.711907 
" clip-path="url(#p3f1f183a6b)" style="fill: none; stroke: #70bf41; stroke-width: 1.5; stroke-linecap: square"/>
    <g clip-path="url(#p3f1f183a6b)">
     <use xlink:href="#m17cbdce9e1" x="349.174224" y="152.711907" style="fill: #70bf41; stroke: #ffffff"/>
    </g>
   </g>
   <g id="line2d_79">
    <path d="M 349.174224 152.711907 
" clip-path="url(#p3f1f183a6b)" style="fill: none; stroke: #70bf41; stroke-width: 1.5; stroke-linecap: square"/>
    <g clip-path="url(#p3f1f183a6b)">
     <use xlink:href="#m17cbdce9e1" x="349.174224" y="152.711907" style="fill: #70bf41; stroke: #ffffff"/>
    </g>
   </g>
   <g id="line2d_80">
    <path d="M 295.121135 162.637149 
" clip-path="url(#p3f1f183a6b)" style="fill: none; stroke: #70bf41; stroke-width: 1.5; stroke-linecap: square"/>
    <g clip-path="url(#p3f1f183a6b)">
     <use xlink:href="#m17cbdce9e1" x="295.121135" y="162.637149" style="fill: #70bf41; stroke: #ffffff"/>
    </g>
   </g>
   <g id="line2d_81">
    <path d="M 295.121135 162.637149 
" clip-path="url(#p3f1f183a6b)" style="fill: none; stroke: #70bf41; stroke-width: 1.5; stroke-linecap: square"/>
    <g clip-path="url(#p3f1f183a6b)">
     <use xlink:href="#m17cbdce9e1" x="295.121135" y="162.637149" style="fill: #70bf41; stroke: #ffffff"/>
    </g>
   </g>
   <g id="line2d_82">
    <path d="M 298.194168 158.659365 
" clip-path="url(#p3f1f183a6b)" style="fill: none; stroke: #70bf41; stroke-width: 1.5; stroke-linecap: square"/>
    <g clip-path="url(#p3f1f183a6b)">
     <use xlink:href="#m17cbdce9e1" x="298.194168" y="158.659365" style="fill: #70bf41; stroke: #ffffff"/>
    </g>
   </g>
   <g id="line2d_83">
    <path d="M 298.194168 158.659365 
" clip-path="url(#p3f1f183a6b)" style="fill: none; stroke: #70bf41; stroke-width: 1.5; stroke-linecap: square"/>
    <g clip-path="url(#p3f1f183a6b)">
     <use xlink:href="#m17cbdce9e1" x="298.194168" y="158.659365" style="fill: #70bf41; stroke: #ffffff"/>
    </g>
   </g>
   <g id="line2d_84">
    <path d="M 198.610268 195.350378 
" clip-path="url(#p3f1f183a6b)" style="fill: none; stroke: #70bf41; stroke-width: 1.5; stroke-linecap: square"/>
    <g clip-path="url(#p3f1f183a6b)">
     <use xlink:href="#m17cbdce9e1" x="198.610268" y="195.350378" style="fill: #70bf41; stroke: #ffffff"/>
    </g>
   </g>
   <g id="line2d_85">
    <path d="M 198.610268 195.350378 
" clip-path="url(#p3f1f183a6b)" style="fill: none; stroke: #70bf41; stroke-width: 1.5; stroke-linecap: square"/>
    <g clip-path="url(#p3f1f183a6b)">
     <use xlink:href="#m17cbdce9e1" x="198.610268" y="195.350378" style="fill: #70bf41; stroke: #ffffff"/>
    </g>
   </g>
   <g id="line2d_86">
    <path d="M 197.970674 186.229462 
" clip-path="url(#p3f1f183a6b)" style="fill: none; stroke: #70bf41; stroke-width: 1.5; stroke-linecap: square"/>
    <g clip-path="url(#p3f1f183a6b)">
     <use xlink:href="#m17cbdce9e1" x="197.970674" y="186.229462" style="fill: #70bf41; stroke: #ffffff"/>
    </g>
   </g>
   <g id="line2d_87">
    <path d="M 197.970674 186.229462 
" clip-path="url(#p3f1f183a6b)" style="fill: none; stroke: #70bf41; stroke-width: 1.5; stroke-linecap: square"/>
    <g clip-path="url(#p3f1f183a6b)">
     <use xlink:href="#m17cbdce9e1" x="197.970674" y="186.229462" style="fill: #70bf41; stroke: #ffffff"/>
    </g>
   </g>
   <g id="line2d_88">
    <path d="M 194.318551 186.793402 
" clip-path="url(#p3f1f183a6b)" style="fill: none; stroke: #70bf41; stroke-width: 1.5; stroke-linecap: square"/>
    <g clip-path="url(#p3f1f183a6b)">
     <use xlink:href="#m17cbdce9e1" x="194.318551" y="186.793402" style="fill: #70bf41; stroke: #ffffff"/>
    </g>
   </g>
   <g id="line2d_89">
    <path d="M 194.318551 186.793402 
" clip-path="url(#p3f1f183a6b)" style="fill: none; stroke: #70bf41; stroke-width: 1.5; stroke-linecap: square"/>
    <g clip-path="url(#p3f1f183a6b)">
     <use xlink:href="#m17cbdce9e1" x="194.318551" y="186.793402" style="fill: #70bf41; stroke: #ffffff"/>
    </g>
   </g>
   <g id="line2d_90">
    <path d="M 195.296046 189.825301 
" clip-path="url(#p3f1f183a6b)" style="fill: none; stroke: #70bf41; stroke-width: 1.5; stroke-linecap: square"/>
    <g clip-path="url(#p3f1f183a6b)">
     <use xlink:href="#m17cbdce9e1" x="195.296046" y="189.825301" style="fill: #70bf41; stroke: #ffffff"/>
    </g>
   </g>
   <g id="line2d_91">
    <path d="M 195.296046 189.825301 
" clip-path="url(#p3f1f183a6b)" style="fill: none; stroke: #70bf41; stroke-width: 1.5; stroke-linecap: square"/>
    <g clip-path="url(#p3f1f183a6b)">
     <use xlink:href="#m17cbdce9e1" x="195.296046" y="189.825301" style="fill: #70bf41; stroke: #ffffff"/>
    </g>
   </g>
   <g id="line2d_92">
    <path d="M 155.315598 195.015586 
" clip-path="url(#p3f1f183a6b)" style="fill: none; stroke: #70bf41; stroke-width: 1.5; stroke-linecap: square"/>
    <g clip-path="url(#p3f1f183a6b)">
     <use xlink:href="#m17cbdce9e1" x="155.315598" y="195.015586" style="fill: #70bf41; stroke: #ffffff"/>
    </g>
   </g>
   <g id="line2d_93">
    <path d="M 155.315598 195.015586 
" clip-path="url(#p3f1f183a6b)" style="fill: none; stroke: #70bf41; stroke-width: 1.5; stroke-linecap: square"/>
    <g clip-path="url(#p3f1f183a6b)">
     <use xlink:href="#m17cbdce9e1" x="155.315598" y="195.015586" style="fill: #70bf41; stroke: #ffffff"/>
    </g>
   </g>
   <g id="line2d_94">
    <path d="M 117.150417 217.002309 
" clip-path="url(#p3f1f183a6b)" style="fill: none; stroke: #70bf41; stroke-width: 1.5; stroke-linecap: square"/>
    <g clip-path="url(#p3f1f183a6b)">
     <use xlink:href="#m17cbdce9e1" x="117.150417" y="217.002309" style="fill: #70bf41; stroke: #ffffff"/>
    </g>
   </g>
   <g id="line2d_95">
    <path d="M 117.150417 217.002309 
" clip-path="url(#p3f1f183a6b)" style="fill: none; stroke: #70bf41; stroke-width: 1.5; stroke-linecap: square"/>
    <g clip-path="url(#p3f1f183a6b)">
     <use xlink:href="#m17cbdce9e1" x="117.150417" y="217.002309" style="fill: #70bf41; stroke: #ffffff"/>
    </g>
   </g>
   <g id="line2d_96">
    <path d="M 409.930304 82.637591 
" clip-path="url(#p3f1f183a6b)" style="fill: none; stroke: #51a7f9; stroke-width: 1.5; stroke-linecap: square"/>
    <defs>
     <path id="m6b50602a6e" d="M 0 3 
C 0.795609 3 1.55874 2.683901 2.12132 2.12132 
C 2.683901 1.55874 3 0.795609 3 0 
C 3 -0.795609 2.683901 -1.55874 2.12132 -2.12132 
C 1.55874 -2.683901 0.795609 -3 0 -3 
C -0.795609 -3 -1.55874 -2.683901 -2.12132 -2.12132 
C -2.683901 -1.55874 -3 -0.795609 -3 0 
C -3 0.795609 -2.683901 1.55874 -2.12132 2.12132 
C -1.55874 2.683901 -0.795609 3 0 3 
z
" style="stroke: #ffffff"/>
    </defs>
    <g clip-path="url(#p3f1f183a6b)">
     <use xlink:href="#m6b50602a6e" x="409.930304" y="82.637591" style="fill: #51a7f9; stroke: #ffffff"/>
    </g>
   </g>
   <g id="line2d_97">
    <path d="M 409.930304 82.637591 
" clip-path="url(#p3f1f183a6b)" style="fill: none; stroke: #51a7f9; stroke-width: 1.5; stroke-linecap: square"/>
    <g clip-path="url(#p3f1f183a6b)">
     <use xlink:href="#m6b50602a6e" x="409.930304" y="82.637591" style="fill: #51a7f9; stroke: #ffffff"/>
    </g>
   </g>
   <g id="line2d_98">
    <path d="M 347.229968 118.700451 
" clip-path="url(#p3f1f183a6b)" style="fill: none; stroke: #51a7f9; stroke-width: 1.5; stroke-linecap: square"/>
    <g clip-path="url(#p3f1f183a6b)">
     <use xlink:href="#m6b50602a6e" x="347.229968" y="118.700451" style="fill: #51a7f9; stroke: #ffffff"/>
    </g>
   </g>
   <g id="line2d_99">
    <path d="M 347.229968 118.700451 
" clip-path="url(#p3f1f183a6b)" style="fill: none; stroke: #51a7f9; stroke-width: 1.5; stroke-linecap: square"/>
    <g clip-path="url(#p3f1f183a6b)">
     <use xlink:href="#m6b50602a6e" x="347.229968" y="118.700451" style="fill: #51a7f9; stroke: #ffffff"/>
    </g>
   </g>
   <g id="line2d_100">
    <path d="M 300.775083 120.500108 
" clip-path="url(#p3f1f183a6b)" style="fill: none; stroke: #51a7f9; stroke-width: 1.5; stroke-linecap: square"/>
    <g clip-path="url(#p3f1f183a6b)">
     <use xlink:href="#m6b50602a6e" x="300.775083" y="120.500108" style="fill: #51a7f9; stroke: #ffffff"/>
    </g>
   </g>
   <g id="line2d_101">
    <path d="M 300.775083 120.500108 
" clip-path="url(#p3f1f183a6b)" style="fill: none; stroke: #51a7f9; stroke-width: 1.5; stroke-linecap: square"/>
    <g clip-path="url(#p3f1f183a6b)">
     <use xlink:href="#m6b50602a6e" x="300.775083" y="120.500108" style="fill: #51a7f9; stroke: #ffffff"/>
    </g>
   </g>
   <g id="line2d_102">
    <path d="M 195.004723 160.155534 
" clip-path="url(#p3f1f183a6b)" style="fill: none; stroke: #51a7f9; stroke-width: 1.5; stroke-linecap: square"/>
    <g clip-path="url(#p3f1f183a6b)">
     <use xlink:href="#m6b50602a6e" x="195.004723" y="160.155534" style="fill: #51a7f9; stroke: #ffffff"/>
    </g>
   </g>
   <g id="line2d_103">
    <path d="M 195.004723 160.155534 
" clip-path="url(#p3f1f183a6b)" style="fill: none; stroke: #51a7f9; stroke-width: 1.5; stroke-linecap: square"/>
    <g clip-path="url(#p3f1f183a6b)">
     <use xlink:href="#m6b50602a6e" x="195.004723" y="160.155534" style="fill: #51a7f9; stroke: #ffffff"/>
    </g>
   </g>
   <g id="line2d_104">
    <path d="M 119.433475 192.567491 
" clip-path="url(#p3f1f183a6b)" style="fill: none; stroke: #51a7f9; stroke-width: 1.5; stroke-linecap: square"/>
    <g clip-path="url(#p3f1f183a6b)">
     <use xlink:href="#m6b50602a6e" x="119.433475" y="192.567491" style="fill: #51a7f9; stroke: #ffffff"/>
    </g>
   </g>
   <g id="line2d_105">
    <path d="M 119.433475 192.567491 
" clip-path="url(#p3f1f183a6b)" style="fill: none; stroke: #51a7f9; stroke-width: 1.5; stroke-linecap: square"/>
    <g clip-path="url(#p3f1f183a6b)">
     <use xlink:href="#m6b50602a6e" x="119.433475" y="192.567491" style="fill: #51a7f9; stroke: #ffffff"/>
    </g>
   </g>
   <g id="line2d_106">
    <path d="M 304.24265 86.09024 
" clip-path="url(#p3f1f183a6b)" style="fill: none; stroke: #6a5acd; stroke-width: 1.5; stroke-linecap: square"/>
    <defs>
     <path id="m9660c7c799" d="M 0 3 
C 0.795609 3 1.55874 2.683901 2.12132 2.12132 
C 2.683901 1.55874 3 0.795609 3 0 
C 3 -0.795609 2.683901 -1.55874 2.12132 -2.12132 
C 1.55874 -2.683901 0.795609 -3 0 -3 
C -0.795609 -3 -1.55874 -2.683901 -2.12132 -2.12132 
C -2.683901 -1.55874 -3 -0.795609 -3 0 
C -3 0.795609 -2.683901 1.55874 -2.12132 2.12132 
C -1.55874 2.683901 -0.795609 3 0 3 
z
" style="stroke: #ffffff"/>
    </defs>
    <g clip-path="url(#p3f1f183a6b)">
     <use xlink:href="#m9660c7c799" x="304.24265" y="86.09024" style="fill: #6a5acd; stroke: #ffffff"/>
    </g>
   </g>
   <g id="line2d_107">
    <path d="M 304.24265 86.09024 
" clip-path="url(#p3f1f183a6b)" style="fill: none; stroke: #6a5acd; stroke-width: 1.5; stroke-linecap: square"/>
    <g clip-path="url(#p3f1f183a6b)">
     <use xlink:href="#m9660c7c799" x="304.24265" y="86.09024" style="fill: #6a5acd; stroke: #ffffff"/>
    </g>
   </g>
   <g id="legend_1">
    <g id="patch_7">
     <path d="M 238.82375 295.96 
L 434.82375 295.96 
Q 436.82375 295.96 436.82375 293.96 
L 436.82375 258.56 
Q 436.82375 256.56 434.82375 256.56 
L 238.82375 256.56 
Q 236.82375 256.56 236.82375 258.56 
L 236.82375 293.96 
Q 236.82375 295.96 238.82375 295.96 
z
" style="fill: #ffffff; opacity: 0.8; stroke: #cccccc; stroke-linejoin: miter"/>
    </g>
    <g id="LineCollection_9">
     <path d="M 245.82375 267.46 
L 255.82375 267.46 
" style="fill: none; stroke: #6a5acd; stroke-width: 3"/>
    </g>
    <g id="LineCollection_10">
     <path d="M 250.82375 272.46 
L 250.82375 262.46 
" style="fill: none; stroke: #6a5acd; stroke-width: 3"/>
    </g>
    <g id="line2d_108">
     <path d="M 240.82375 267.46 
L 260.82375 267.46 
" style="fill: none; stroke: #6a5acd; stroke-width: 1.5; stroke-linecap: square"/>
    </g>
    <g id="line2d_109">
     <defs>
      <path id="m44f9d70902" d="M 0 4 
C 1.060812 4 2.078319 3.578535 2.828427 2.828427 
C 3.578535 2.078319 4 1.060812 4 0 
C 4 -1.060812 3.578535 -2.078319 2.828427 -2.828427 
C 2.078319 -3.578535 1.060812 -4 0 -4 
C -1.060812 -4 -2.078319 -3.578535 -2.828427 -2.828427 
C -3.578535 -2.078319 -4 -1.060812 -4 0 
C -4 1.060812 -3.578535 2.078319 -2.828427 2.828427 
C -2.078319 3.578535 -1.060812 4 0 4 
z
" style="stroke: #ffffff; stroke-width: 2"/>
     </defs>
     <g>
      <use xlink:href="#m44f9d70902" x="250.82375" y="267.46" style="fill: #6a5acd; stroke: #ffffff; stroke-width: 2"/>
     </g>
    </g>
    <g id="text_13">
     <!-- $a_{06}(l_F,s_F^{\rm phys})$ -->
     <g transform="translate(268.82375 270.96) scale(0.1 -0.1)">
      <defs>
       <path id="DejaVuSans-Oblique-61" d="M 3438 1997 
L 3047 0 
L 2472 0 
L 2578 531 
Q 2325 219 2001 64 
Q 1678 -91 1281 -91 
Q 834 -91 548 182 
Q 263 456 263 884 
Q 263 1497 752 1853 
Q 1241 2209 2100 2209 
L 2900 2209 
L 2931 2363 
Q 2938 2388 2941 2417 
Q 2944 2447 2944 2509 
Q 2944 2788 2717 2942 
Q 2491 3097 2081 3097 
Q 1800 3097 1504 3025 
Q 1209 2953 897 2809 
L 997 3341 
Q 1322 3463 1633 3523 
Q 1944 3584 2234 3584 
Q 2853 3584 3176 3315 
Q 3500 3047 3500 2534 
Q 3500 2431 3484 2292 
Q 3469 2153 3438 1997 
z
M 2816 1759 
L 2241 1759 
Q 1534 1759 1195 1570 
Q 856 1381 856 984 
Q 856 709 1029 553 
Q 1203 397 1509 397 
Q 1978 397 2328 733 
Q 2678 1069 2791 1631 
L 2816 1759 
z
" transform="scale(0.015625)"/>
       <path id="DejaVuSans-2c" d="M 750 794 
L 1409 794 
L 1409 256 
L 897 -744 
L 494 -744 
L 750 256 
L 750 794 
z
" transform="scale(0.015625)"/>
       <path id="DejaVuSans-Oblique-73" d="M 3200 3397 
L 3091 2853 
Q 2863 2978 2609 3040 
Q 2356 3103 2088 3103 
Q 1634 3103 1373 2948 
Q 1113 2794 1113 2528 
Q 1113 2219 1719 2053 
Q 1766 2041 1788 2034 
L 1972 1978 
Q 2547 1819 2739 1644 
Q 2931 1469 2931 1166 
Q 2931 609 2489 259 
Q 2047 -91 1331 -91 
Q 1053 -91 747 -37 
Q 441 16 72 128 
L 184 722 
Q 500 559 806 475 
Q 1113 391 1394 391 
Q 1816 391 2080 572 
Q 2344 753 2344 1031 
Q 2344 1331 1650 1516 
L 1591 1531 
L 1394 1581 
Q 956 1697 753 1886 
Q 550 2075 550 2369 
Q 550 2928 970 3256 
Q 1391 3584 2113 3584 
Q 2397 3584 2667 3537 
Q 2938 3491 3200 3397 
z
" transform="scale(0.015625)"/>
       <path id="DejaVuSans-70" d="M 1159 525 
L 1159 -1331 
L 581 -1331 
L 581 3500 
L 1159 3500 
L 1159 2969 
Q 1341 3281 1617 3432 
Q 1894 3584 2278 3584 
Q 2916 3584 3314 3078 
Q 3713 2572 3713 1747 
Q 3713 922 3314 415 
Q 2916 -91 2278 -91 
Q 1894 -91 1617 61 
Q 1341 213 1159 525 
z
M 3116 1747 
Q 3116 2381 2855 2742 
Q 2594 3103 2138 3103 
Q 1681 3103 1420 2742 
Q 1159 2381 1159 1747 
Q 1159 1113 1420 752 
Q 1681 391 2138 391 
Q 2594 391 2855 752 
Q 3116 1113 3116 1747 
z
" transform="scale(0.015625)"/>
       <path id="DejaVuSans-68" d="M 3513 2113 
L 3513 0 
L 2938 0 
L 2938 2094 
Q 2938 2591 2744 2837 
Q 2550 3084 2163 3084 
Q 1697 3084 1428 2787 
Q 1159 2491 1159 1978 
L 1159 0 
L 581 0 
L 581 4863 
L 1159 4863 
L 1159 2956 
Q 1366 3272 1645 3428 
Q 1925 3584 2291 3584 
Q 2894 3584 3203 3211 
Q 3513 2838 3513 2113 
z
" transform="scale(0.015625)"/>
       <path id="DejaVuSans-79" d="M 2059 -325 
Q 1816 -950 1584 -1140 
Q 1353 -1331 966 -1331 
L 506 -1331 
L 506 -850 
L 844 -850 
Q 1081 -850 1212 -737 
Q 1344 -625 1503 -206 
L 1606 56 
L 191 3500 
L 800 3500 
L 1894 763 
L 2988 3500 
L 3597 3500 
L 2059 -325 
z
" transform="scale(0.015625)"/>
       <path id="DejaVuSans-73" d="M 2834 3397 
L 2834 2853 
Q 2591 2978 2328 3040 
Q 2066 3103 1784 3103 
Q 1356 3103 1142 2972 
Q 928 2841 928 2578 
Q 928 2378 1081 2264 
Q 1234 2150 1697 2047 
L 1894 2003 
Q 2506 1872 2764 1633 
Q 3022 1394 3022 966 
Q 3022 478 2636 193 
Q 2250 -91 1575 -91 
Q 1294 -91 989 -36 
Q 684 19 347 128 
L 347 722 
Q 666 556 975 473 
Q 1284 391 1588 391 
Q 1994 391 2212 530 
Q 2431 669 2431 922 
Q 2431 1156 2273 1281 
Q 2116 1406 1581 1522 
L 1381 1569 
Q 847 1681 609 1914 
Q 372 2147 372 2553 
Q 372 3047 722 3315 
Q 1072 3584 1716 3584 
Q 2034 3584 2315 3537 
Q 2597 3491 2834 3397 
z
" transform="scale(0.015625)"/>
      </defs>
      <use xlink:href="#DejaVuSans-Oblique-61" transform="translate(0 0.0625)"/>
      <use xlink:href="#DejaVuSans-30" transform="translate(61.279297 -16.34375) scale(0.7)"/>
      <use xlink:href="#DejaVuSans-36" transform="translate(105.81543 -16.34375) scale(0.7)"/>
      <use xlink:href="#DejaVuSans-28" transform="translate(153.085938 0.0625)"/>
      <use xlink:href="#DejaVuSans-Oblique-6c" transform="translate(192.099609 0.0625)"/>
      <use xlink:href="#DejaVuSans-Oblique-46" transform="translate(219.882812 -16.34375) scale(0.7)"/>
      <use xlink:href="#DejaVuSans-2c" transform="translate(262.880859 0.0625)"/>
      <use xlink:href="#DejaVuSans-Oblique-73" transform="translate(314.150391 0.0625)"/>
      <use xlink:href="#DejaVuSans-70" transform="translate(370.899896 50.810938) scale(0.7)"/>
      <use xlink:href="#DejaVuSans-68" transform="translate(415.33349 50.810938) scale(0.7)"/>
      <use xlink:href="#DejaVuSans-79" transform="translate(459.698724 50.810938) scale(0.7)"/>
      <use xlink:href="#DejaVuSans-73" transform="translate(501.124505 50.810938) scale(0.7)"/>
      <use xlink:href="#DejaVuSans-Oblique-46" transform="translate(366.25 -27.28125) scale(0.7)"/>
      <use xlink:href="#DejaVuSans-29" transform="translate(540.328607 0.0625)"/>
     </g>
    </g>
    <g id="LineCollection_11">
     <path d="M 245.82375 285.66 
L 255.82375 285.66 
" style="fill: none; stroke: #51a7f9; stroke-width: 3"/>
    </g>
    <g id="LineCollection_12">
     <path d="M 250.82375 290.66 
L 250.82375 280.66 
" style="fill: none; stroke: #51a7f9; stroke-width: 3"/>
    </g>
    <g id="line2d_110">
     <path d="M 240.82375 285.66 
L 260.82375 285.66 
" style="fill: none; stroke: #51a7f9; stroke-width: 1.5; stroke-linecap: square"/>
    </g>
    <g id="line2d_111">
     <defs>
      <path id="m13f21d4f1f" d="M 0 4 
C 1.060812 4 2.078319 3.578535 2.828427 2.828427 
C 3.578535 2.078319 4 1.060812 4 0 
C 4 -1.060812 3.578535 -2.078319 2.828427 -2.828427 
C 2.078319 -3.578535 1.060812 -4 0 -4 
C -1.060812 -4 -2.078319 -3.578535 -2.828427 -2.828427 
C -3.578535 -2.078319 -4 -1.060812 -4 0 
C -4 1.060812 -3.578535 2.078319 -2.828427 2.828427 
C -2.078319 3.578535 -1.060812 4 0 4 
z
" style="stroke: #ffffff; stroke-width: 2"/>
     </defs>
     <g>
      <use xlink:href="#m13f21d4f1f" x="250.82375" y="285.66" style="fill: #51a7f9; stroke: #ffffff; stroke-width: 2"/>
     </g>
    </g>
    <g id="text_14">
     <!-- $a_{09}(l_F,s_F^{\rm phys})$ -->
     <g transform="translate(268.82375 289.16) scale(0.1 -0.1)">
      <defs>
       <path id="DejaVuSans-39" d="M 703 97 
L 703 672 
Q 941 559 1184 500 
Q 1428 441 1663 441 
Q 2288 441 2617 861 
Q 2947 1281 2994 2138 
Q 2813 1869 2534 1725 
Q 2256 1581 1919 1581 
Q 1219 1581 811 2004 
Q 403 2428 403 3163 
Q 403 3881 828 4315 
Q 1253 4750 1959 4750 
Q 2769 4750 3195 4129 
Q 3622 3509 3622 2328 
Q 3622 1225 3098 567 
Q 2575 -91 1691 -91 
Q 1453 -91 1209 -44 
Q 966 3 703 97 
z
M 1959 2075 
Q 2384 2075 2632 2365 
Q 2881 2656 2881 3163 
Q 2881 3666 2632 3958 
Q 2384 4250 1959 4250 
Q 1534 4250 1286 3958 
Q 1038 3666 1038 3163 
Q 1038 2656 1286 2365 
Q 1534 2075 1959 2075 
z
" transform="scale(0.015625)"/>
      </defs>
      <use xlink:href="#DejaVuSans-Oblique-61" transform="translate(0 0.0625)"/>
      <use xlink:href="#DejaVuSans-30" transform="translate(61.279297 -16.34375) scale(0.7)"/>
      <use xlink:href="#DejaVuSans-39" transform="translate(105.81543 -16.34375) scale(0.7)"/>
      <use xlink:href="#DejaVuSans-28" transform="translate(153.085938 0.0625)"/>
      <use xlink:href="#DejaVuSans-Oblique-6c" transform="translate(192.099609 0.0625)"/>
      <use xlink:href="#DejaVuSans-Oblique-46" transform="translate(219.882812 -16.34375) scale(0.7)"/>
      <use xlink:href="#DejaVuSans-2c" transform="translate(262.880859 0.0625)"/>
      <use xlink:href="#DejaVuSans-Oblique-73" transform="translate(314.150391 0.0625)"/>
      <use xlink:href="#DejaVuSans-70" transform="translate(370.899896 50.810938) scale(0.7)"/>
      <use xlink:href="#DejaVuSans-68" transform="translate(415.33349 50.810938) scale(0.7)"/>
      <use xlink:href="#DejaVuSans-79" transform="translate(459.698724 50.810938) scale(0.7)"/>
      <use xlink:href="#DejaVuSans-73" transform="translate(501.124505 50.810938) scale(0.7)"/>
      <use xlink:href="#DejaVuSans-Oblique-46" transform="translate(366.25 -27.28125) scale(0.7)"/>
      <use xlink:href="#DejaVuSans-29" transform="translate(540.328607 0.0625)"/>
     </g>
    </g>
    <g id="LineCollection_13">
     <path d="M 351.82375 267.46 
L 361.82375 267.46 
" style="fill: none; stroke: #70bf41; stroke-width: 3"/>
    </g>
    <g id="LineCollection_14">
     <path d="M 356.82375 272.46 
L 356.82375 262.46 
" style="fill: none; stroke: #70bf41; stroke-width: 3"/>
    </g>
    <g id="line2d_112">
     <path d="M 346.82375 267.46 
L 366.82375 267.46 
" style="fill: none; stroke: #70bf41; stroke-width: 1.5; stroke-linecap: square"/>
    </g>
    <g id="line2d_113">
     <defs>
      <path id="m3c0e1a0133" d="M 0 4 
C 1.060812 4 2.078319 3.578535 2.828427 2.828427 
C 3.578535 2.078319 4 1.060812 4 0 
C 4 -1.060812 3.578535 -2.078319 2.828427 -2.828427 
C 2.078319 -3.578535 1.060812 -4 0 -4 
C -1.060812 -4 -2.078319 -3.578535 -2.828427 -2.828427 
C -3.578535 -2.078319 -4 -1.060812 -4 0 
C -4 1.060812 -3.578535 2.078319 -2.828427 2.828427 
C -2.078319 3.578535 -1.060812 4 0 4 
z
" style="stroke: #ffffff; stroke-width: 2"/>
     </defs>
     <g>
      <use xlink:href="#m3c0e1a0133" x="356.82375" y="267.46" style="fill: #70bf41; stroke: #ffffff; stroke-width: 2"/>
     </g>
    </g>
    <g id="text_15">
     <!-- $a_{12}(l_F,s_F^{\rm phys})$ -->
     <g transform="translate(374.82375 270.96) scale(0.1 -0.1)">
      <use xlink:href="#DejaVuSans-Oblique-61" transform="translate(0 0.0625)"/>
      <use xlink:href="#DejaVuSans-31" transform="translate(61.279297 -16.34375) scale(0.7)"/>
      <use xlink:href="#DejaVuSans-32" transform="translate(105.81543 -16.34375) scale(0.7)"/>
      <use xlink:href="#DejaVuSans-28" transform="translate(153.085938 0.0625)"/>
      <use xlink:href="#DejaVuSans-Oblique-6c" transform="translate(192.099609 0.0625)"/>
      <use xlink:href="#DejaVuSans-Oblique-46" transform="translate(219.882812 -16.34375) scale(0.7)"/>
      <use xlink:href="#DejaVuSans-2c" transform="translate(262.880859 0.0625)"/>
      <use xlink:href="#DejaVuSans-Oblique-73" transform="translate(314.150391 0.0625)"/>
      <use xlink:href="#DejaVuSans-70" transform="translate(370.899896 50.810938) scale(0.7)"/>
      <use xlink:href="#DejaVuSans-68" transform="translate(415.33349 50.810938) scale(0.7)"/>
      <use xlink:href="#DejaVuSans-79" transform="translate(459.698724 50.810938) scale(0.7)"/>
      <use xlink:href="#DejaVuSans-73" transform="translate(501.124505 50.810938) scale(0.7)"/>
      <use xlink:href="#DejaVuSans-Oblique-46" transform="translate(366.25 -27.28125) scale(0.7)"/>
      <use xlink:href="#DejaVuSans-29" transform="translate(540.328607 0.0625)"/>
     </g>
    </g>
    <g id="LineCollection_15">
     <path d="M 351.82375 285.66 
L 361.82375 285.66 
" style="fill: none; stroke: #ec5d57; stroke-width: 3"/>
    </g>
    <g id="LineCollection_16">
     <path d="M 356.82375 290.66 
L 356.82375 280.66 
" style="fill: none; stroke: #ec5d57; stroke-width: 3"/>
    </g>
    <g id="line2d_114">
     <path d="M 346.82375 285.66 
L 366.82375 285.66 
" style="fill: none; stroke: #ec5d57; stroke-width: 1.5; stroke-linecap: square"/>
    </g>
    <g id="line2d_115">
     <defs>
      <path id="m99a9643ef2" d="M 0 4 
C 1.060812 4 2.078319 3.578535 2.828427 2.828427 
C 3.578535 2.078319 4 1.060812 4 0 
C 4 -1.060812 3.578535 -2.078319 2.828427 -2.828427 
C 2.078319 -3.578535 1.060812 -4 0 -4 
C -1.060812 -4 -2.078319 -3.578535 -2.828427 -2.828427 
C -3.578535 -2.078319 -4 -1.060812 -4 0 
C -4 1.060812 -3.578535 2.078319 -2.828427 2.828427 
C -2.078319 3.578535 -1.060812 4 0 4 
z
" style="stroke: #ffffff; stroke-width: 2"/>
     </defs>
     <g>
      <use xlink:href="#m99a9643ef2" x="356.82375" y="285.66" style="fill: #ec5d57; stroke: #ffffff; stroke-width: 2"/>
     </g>
    </g>
    <g id="text_16">
     <!-- $a_{15}(l_F,s_F^{\rm phys})$ -->
     <g transform="translate(374.82375 289.16) scale(0.1 -0.1)">
      <use xlink:href="#DejaVuSans-Oblique-61" transform="translate(0 0.0625)"/>
      <use xlink:href="#DejaVuSans-31" transform="translate(61.279297 -16.34375) scale(0.7)"/>
      <use xlink:href="#DejaVuSans-35" transform="translate(105.81543 -16.34375) scale(0.7)"/>
      <use xlink:href="#DejaVuSans-28" transform="translate(153.085938 0.0625)"/>
      <use xlink:href="#DejaVuSans-Oblique-6c" transform="translate(192.099609 0.0625)"/>
      <use xlink:href="#DejaVuSans-Oblique-46" transform="translate(219.882812 -16.34375) scale(0.7)"/>
      <use xlink:href="#DejaVuSans-2c" transform="translate(262.880859 0.0625)"/>
      <use xlink:href="#DejaVuSans-Oblique-73" transform="translate(314.150391 0.0625)"/>
      <use xlink:href="#DejaVuSans-70" transform="translate(370.899896 50.810938) scale(0.7)"/>
      <use xlink:href="#DejaVuSans-68" transform="translate(415.33349 50.810938) scale(0.7)"/>
      <use xlink:href="#DejaVuSans-79" transform="translate(459.698724 50.810938) scale(0.7)"/>
      <use xlink:href="#DejaVuSans-73" transform="translate(501.124505 50.810938) scale(0.7)"/>
      <use xlink:href="#DejaVuSans-Oblique-46" transform="translate(366.25 -27.28125) scale(0.7)"/>
      <use xlink:href="#DejaVuSans-29" transform="translate(540.328607 0.0625)"/>
     </g>
    </g>
   </g>
  </g>
 </g>
 <defs>
  <clipPath id="p3f1f183a6b">
   <rect x="50.14375" y="7.2" width="391.68" height="293.76"/>
  </clipPath>
 </defs>
 <defs>
  <pattern id="hcbe4bb7ea8" patternUnits="userSpaceOnUse" x="0" y="0" width="72" height="72">
   <rect x="0" y="0" width="73" height="73" fill="none"/>
   <path d="M -36 36 
L 36 -36 
M -24 48 
L 48 -24 
M -12 60 
L 60 -12 
M 0 72 
L 72 0 
M 12 84 
L 84 12 
M 24 96 
L 96 24 
M 36 108 
L 108 36 
" style="fill: #000000; stroke: #000000; stroke-width: 1.0; stroke-linecap: butt; stroke-linejoin: miter; stroke-opacity: 0.6"/>
  </pattern>
 </defs>
</svg>
