<?xml version="1.0" encoding="utf-8" standalone="no"?>
<!DOCTYPE svg PUBLIC "-//W3C//DTD SVG 1.1//EN"
  "http://www.w3.org/Graphics/SVG/1.1/DTD/svg11.dtd">
<svg xmlns:xlink="http://www.w3.org/1999/xlink" width="449.02375pt" height="340.738125pt" viewBox="0 0 449.02375 340.738125" xmlns="http://www.w3.org/2000/svg" version="1.1">
 <metadata>
  <rdf:RDF xmlns:dc="http://purl.org/dc/elements/1.1/" xmlns:cc="http://creativecommons.org/ns#" xmlns:rdf="http://www.w3.org/1999/02/22-rdf-syntax-ns#">
   <cc:Work>
    <dc:type rdf:resource="http://purl.org/dc/dcmitype/StillImage"/>
    <dc:date>2025-03-01T21:40:31.742430</dc:date>
    <dc:format>image/svg+xml</dc:format>
    <dc:creator>
     <cc:Agent>
      <dc:title>Matplotlib v3.10.0, https://matplotlib.org/</dc:title>
     </cc:Agent>
    </dc:creator>
   </cc:Work>
  </rdf:RDF>
 </metadata>
 <defs>
  <style type="text/css">*{stroke-linejoin: round; stroke-linecap: butt}</style>
 </defs>
 <g id="figure_1">
  <g id="patch_1">
   <path d="M 0 340.738125 
L 449.02375 340.738125 
L 449.02375 0 
L 0 0 
L 0 340.738125 
z
" style="fill: none"/>
  </g>
  <g id="axes_1">
   <g id="patch_2">
    <path d="M 50.14375 300.96 
L 441.82375 300.96 
L 441.82375 7.2 
L 50.14375 7.2 
L 50.14375 300.96 
z
" style="fill: none"/>
   </g>
   <g id="FillBetweenPolyCollection_1">
    <path d="M 69.821986 122.341064 
L 69.821986 173.646799 
L 76.999583 169.97114 
L 84.17718 166.330869 
L 91.354777 162.725816 
L 98.532374 159.15581 
L 105.709971 155.620685 
L 112.887568 152.120281 
L 120.065165 148.654445 
L 127.242762 145.223031 
L 134.420359 141.825906 
L 141.597956 138.462945 
L 148.775553 135.134041 
L 155.95315 131.8391 
L 163.130747 128.57805 
L 170.308344 125.350839 
L 177.485941 122.15744 
L 184.663537 118.997854 
L 191.841134 115.872116 
L 199.018731 112.780297 
L 206.196328 109.722511 
L 213.373925 106.69892 
L 220.551522 103.709743 
L 227.729119 100.755261 
L 234.906716 97.835832 
L 242.084313 94.951896 
L 249.26191 92.103993 
L 256.439507 89.292776 
L 263.617104 86.519032 
L 270.794701 83.783698 
L 277.972298 81.087893 
L 285.149895 78.432942 
L 292.327492 75.820407 
L 299.505089 73.252132 
L 306.682686 70.730275 
L 313.860283 68.257359 
L 321.03788 65.836311 
L 328.215477 63.470507 
L 335.393074 61.163804 
L 342.57067 58.920552 
L 349.748267 56.745585 
L 356.925864 54.644157 
L 364.103461 52.621836 
L 371.281058 50.684317 
L 378.458655 48.837181 
L 385.636252 47.085592 
L 392.813849 45.433983 
L 399.991446 43.885767 
L 407.169043 42.443136 
L 414.34664 41.106975 
L 421.524237 39.876923 
L 421.524237 20.552727 
L 421.524237 20.552727 
L 414.34664 22.337206 
L 407.169043 24.096437 
L 399.991446 25.829666 
L 392.813849 27.537384 
L 385.636252 29.221391 
L 378.458655 30.884706 
L 371.281058 32.531368 
L 364.103461 34.166149 
L 356.925864 35.794234 
L 349.748267 37.420929 
L 342.57067 39.051404 
L 335.393074 40.690524 
L 328.215477 42.342726 
L 321.03788 44.01197 
L 313.860283 45.701717 
L 306.682686 47.41495 
L 299.505089 49.154205 
L 292.327492 50.921609 
L 285.149895 52.718928 
L 277.972298 54.547612 
L 270.794701 56.40883 
L 263.617104 58.303515 
L 256.439507 60.23239 
L 249.26191 62.196001 
L 242.084313 64.194741 
L 234.906716 66.228869 
L 227.729119 68.298532 
L 220.551522 70.403777 
L 213.373925 72.544568 
L 206.196328 74.720794 
L 199.018731 76.932279 
L 191.841134 79.178794 
L 184.663537 81.460057 
L 177.485941 83.775747 
L 170.308344 86.125506 
L 163.130747 88.508941 
L 155.95315 90.925632 
L 148.775553 93.375134 
L 141.597956 95.856981 
L 134.420359 98.370687 
L 127.242762 100.915749 
L 120.065165 103.491651 
L 112.887568 106.097866 
L 105.709971 108.733855 
L 98.532374 111.399071 
L 91.354777 114.092961 
L 84.17718 116.814966 
L 76.999583 119.564522 
L 69.821986 122.341064 
z
" clip-path="url(#p467b758ecf)" style="fill: url(#h8a318c13cb); stroke: #000000; stroke-opacity: 0.6"/>
   </g>
   <g id="FillBetweenPolyCollection_2">
    <defs>
     <path id="mf05455e428" d="M 69.821986 -91.121881 
L 69.821986 -53.130852 
L 76.999583 -57.508997 
L 84.17718 -61.845974 
L 91.354777 -66.142038 
L 98.532374 -70.397464 
L 105.709971 -74.612549 
L 112.887568 -78.787611 
L 120.065165 -82.922989 
L 127.242762 -87.019041 
L 134.420359 -91.076142 
L 141.597956 -95.094681 
L 148.775553 -99.075066 
L 155.95315 -103.017714 
L 163.130747 -106.923054 
L 170.308344 -110.791524 
L 177.485941 -114.623569 
L 184.663537 -118.419638 
L 191.841134 -122.180185 
L 199.018731 -125.905661 
L 206.196328 -129.596518 
L 213.373925 -133.253202 
L 220.551522 -136.876155 
L 227.729119 -140.465807 
L 234.906716 -144.02258 
L 242.084313 -147.54688 
L 249.26191 -151.039096 
L 256.439507 -154.499599 
L 263.617104 -157.928734 
L 270.794701 -161.32682 
L 277.972298 -164.694142 
L 285.149895 -168.030946 
L 292.327492 -171.33743 
L 299.505089 -174.613735 
L 306.682686 -177.859927 
L 313.860283 -181.07598 
L 321.03788 -184.261747 
L 328.215477 -187.41692 
L 335.393074 -190.540968 
L 342.57067 -193.633049 
L 349.748267 -196.691873 
L 356.925864 -199.71548 
L 364.103461 -202.700889 
L 371.281058 -205.643512 
L 378.458655 -208.536189 
L 385.636252 -211.367601 
L 392.813849 -214.119918 
L 399.991446 -216.766212 
L 407.169043 -219.270725 
L 414.34664 -221.598351 
L 421.524237 -223.733376 
L 421.524237 -228.232353 
L 421.524237 -228.232353 
L 414.34664 -225.835675 
L 407.169043 -223.552596 
L 399.991446 -221.367795 
L 392.813849 -219.24656 
L 385.636252 -217.153527 
L 378.458655 -215.06216 
L 371.281058 -212.955023 
L 364.103461 -210.82119 
L 356.925864 -208.653894 
L 349.748267 -206.448941 
L 342.57067 -204.203744 
L 335.393074 -201.916735 
L 328.215477 -199.587017 
L 321.03788 -197.214143 
L 313.860283 -194.797974 
L 306.682686 -192.338596 
L 299.505089 -189.836255 
L 292.327492 -187.291318 
L 285.149895 -184.704245 
L 277.972298 -182.07557 
L 270.794701 -179.405885 
L 263.617104 -176.695827 
L 256.439507 -173.946077 
L 249.26191 -171.157346 
L 242.084313 -168.330373 
L 234.906716 -165.465922 
L 227.729119 -162.564775 
L 220.551522 -159.627732 
L 213.373925 -156.655607 
L 206.196328 -153.649225 
L 199.018731 -150.609421 
L 191.841134 -147.537033 
L 184.663537 -144.432907 
L 177.485941 -141.297888 
L 170.308344 -138.132823 
L 163.130747 -134.938554 
L 155.95315 -131.715919 
L 148.775553 -128.46575 
L 141.597956 -125.188869 
L 134.420359 -121.886087 
L 127.242762 -118.558204 
L 120.065165 -115.206003 
L 112.887568 -111.830253 
L 105.709971 -108.431705 
L 98.532374 -105.011091 
L 91.354777 -101.569121 
L 84.17718 -98.106488 
L 76.999583 -94.623859 
L 69.821986 -91.121881 
z
" style="stroke: #ec5d57; stroke-opacity: 0.4"/>
    </defs>
    <g clip-path="url(#p467b758ecf)">
     <use xlink:href="#mf05455e428" x="0" y="340.738125" style="fill: #ec5d57; fill-opacity: 0.4; stroke: #ec5d57; stroke-opacity: 0.4"/>
    </g>
   </g>
   <g id="FillBetweenPolyCollection_3">
    <defs>
     <path id="m36274bda35" d="M 69.821986 -140.136246 
L 69.821986 -110.363573 
L 76.999583 -114.406536 
L 84.17718 -118.407902 
L 91.354777 -122.368044 
L 98.532374 -126.287362 
L 105.709971 -130.166287 
L 112.887568 -134.005273 
L 120.065165 -137.804798 
L 127.242762 -141.56536 
L 134.420359 -145.287474 
L 141.597956 -148.971673 
L 148.775553 -152.618498 
L 155.95315 -156.228502 
L 163.130747 -159.802243 
L 170.308344 -163.340278 
L 177.485941 -166.843166 
L 184.663537 -170.311462 
L 191.841134 -173.745711 
L 199.018731 -177.146449 
L 206.196328 -180.514197 
L 213.373925 -183.849459 
L 220.551522 -187.152718 
L 227.729119 -190.424434 
L 234.906716 -193.665036 
L 242.084313 -196.874926 
L 249.26191 -200.054464 
L 256.439507 -203.20397 
L 263.617104 -206.323713 
L 270.794701 -209.413902 
L 277.972298 -212.474674 
L 285.149895 -215.506079 
L 292.327492 -218.50805 
L 299.505089 -221.480378 
L 306.682686 -224.422658 
L 313.860283 -227.334218 
L 321.03788 -230.214014 
L 328.215477 -233.060462 
L 335.393074 -235.871175 
L 342.57067 -238.642551 
L 349.748267 -241.369096 
L 356.925864 -244.042368 
L 364.103461 -246.649401 
L 371.281058 -249.170819 
L 378.458655 -251.580017 
L 385.636252 -253.846959 
L 392.813849 -255.949471 
L 399.991446 -257.88509 
L 407.169043 -259.670102 
L 414.34664 -261.327683 
L 421.524237 -262.878329 
L 421.524237 -269.677799 
L 421.524237 -269.677799 
L 414.34664 -267.23635 
L 407.169043 -264.822169 
L 399.991446 -262.456144 
L 392.813849 -260.161843 
L 385.636252 -257.955947 
L 378.458655 -255.836385 
L 371.281058 -253.781378 
L 364.103461 -251.761281 
L 356.925864 -249.749884 
L 349.748267 -247.728205 
L 342.57067 -245.68367 
L 335.393074 -243.60823 
L 328.215477 -241.496786 
L 321.03788 -239.346128 
L 313.860283 -237.154262 
L 306.682686 -234.919998 
L 299.505089 -232.642685 
L 292.327492 -230.322045 
L 285.149895 -227.958067 
L 277.972298 -225.550932 
L 270.794701 -223.10097 
L 263.617104 -220.608622 
L 256.439507 -218.07442 
L 249.26191 -215.498964 
L 242.084313 -212.882919 
L 234.906716 -210.226997 
L 227.729119 -207.531952 
L 220.551522 -204.798577 
L 213.373925 -202.027697 
L 206.196328 -199.220165 
L 199.018731 -196.376856 
L 191.841134 -193.498668 
L 184.663537 -190.586516 
L 177.485941 -187.641328 
L 170.308344 -184.664044 
L 163.130747 -181.655611 
L 155.95315 -178.61698 
L 148.775553 -175.549105 
L 141.597956 -172.452935 
L 134.420359 -169.329415 
L 127.242762 -166.179483 
L 120.065165 -163.004062 
L 112.887568 -159.804061 
L 105.709971 -156.580373 
L 98.532374 -153.333868 
L 91.354777 -150.065394 
L 84.17718 -146.775774 
L 76.999583 -143.465802 
L 69.821986 -140.136246 
z
" style="stroke: #70bf41; stroke-opacity: 0.4"/>
    </defs>
    <g clip-path="url(#p467b758ecf)">
     <use xlink:href="#m36274bda35" x="0" y="340.738125" style="fill: #70bf41; fill-opacity: 0.4; stroke: #70bf41; stroke-opacity: 0.4"/>
    </g>
   </g>
   <g id="FillBetweenPolyCollection_4">
    <defs>
     <path id="mac0724cfef" d="M 69.821986 -179.256468 
L 69.821986 -143.963332 
L 76.999583 -147.799418 
L 84.17718 -151.597231 
L 91.354777 -155.357123 
L 98.532374 -159.079455 
L 105.709971 -162.764599 
L 112.887568 -166.412937 
L 120.065165 -170.024856 
L 127.242762 -173.600746 
L 134.420359 -177.141003 
L 141.597956 -180.646022 
L 148.775553 -184.116196 
L 155.95315 -187.551916 
L 163.130747 -190.953564 
L 170.308344 -194.321516 
L 177.485941 -197.656138 
L 184.663537 -200.957779 
L 191.841134 -204.226776 
L 199.018731 -207.463444 
L 206.196328 -210.668076 
L 213.373925 -213.840938 
L 220.551522 -216.982267 
L 227.729119 -220.092262 
L 234.906716 -223.171081 
L 242.084313 -226.218831 
L 249.26191 -229.235559 
L 256.439507 -232.221242 
L 263.617104 -235.17577 
L 270.794701 -238.098925 
L 277.972298 -240.990358 
L 285.149895 -243.849549 
L 292.327492 -246.675768 
L 299.505089 -249.468003 
L 306.682686 -252.224881 
L 313.860283 -254.944544 
L 321.03788 -257.624488 
L 328.215477 -260.261341 
L 335.393074 -262.850559 
L 342.57067 -265.386041 
L 349.748267 -267.859668 
L 356.925864 -270.260854 
L 364.103461 -272.576337 
L 371.281058 -274.79064 
L 378.458655 -276.887732 
L 385.636252 -278.854045 
L 392.813849 -280.681856 
L 399.991446 -282.371128 
L 407.169043 -283.928565 
L 414.34664 -285.364733 
L 421.524237 -286.691074 
L 421.524237 -296.548575 
L 421.524237 -296.548575 
L 414.34664 -294.346171 
L 407.169043 -292.173357 
L 399.991446 -290.04197 
L 392.813849 -287.962967 
L 385.636252 -285.943449 
L 378.458655 -283.983768 
L 371.281058 -282.076597 
L 364.103461 -280.20876 
L 356.925864 -278.364621 
L 349.748267 -276.529095 
L 342.57067 -274.689313 
L 335.393074 -272.835083 
L 328.215477 -270.95868 
L 321.03788 -269.054394 
L 313.860283 -267.118078 
L 306.682686 -265.14675 
L 299.505089 -263.1383 
L 292.327492 -261.091265 
L 285.149895 -259.004663 
L 277.972298 -256.877878 
L 270.794701 -254.710571 
L 263.617104 -252.502616 
L 256.439507 -250.254058 
L 249.26191 -247.965071 
L 242.084313 -245.63594 
L 234.906716 -243.267033 
L 227.729119 -240.858792 
L 220.551522 -238.411718 
L 213.373925 -235.926361 
L 206.196328 -233.403314 
L 199.018731 -230.843207 
L 191.841134 -228.246699 
L 184.663537 -225.614476 
L 177.485941 -222.947248 
L 170.308344 -220.245744 
L 163.130747 -217.510707 
L 155.95315 -214.742895 
L 148.775553 -211.943078 
L 141.597956 -209.112033 
L 134.420359 -206.250542 
L 127.242762 -203.359392 
L 120.065165 -200.439373 
L 112.887568 -197.491271 
L 105.709971 -194.515872 
L 98.532374 -191.513956 
L 91.354777 -188.486297 
L 84.17718 -185.433661 
L 76.999583 -182.356804 
L 69.821986 -179.256468 
z
" style="stroke: #51a7f9; stroke-opacity: 0.4"/>
    </defs>
    <g clip-path="url(#p467b758ecf)">
     <use xlink:href="#mac0724cfef" x="0" y="340.738125" style="fill: #51a7f9; fill-opacity: 0.4; stroke: #51a7f9; stroke-opacity: 0.4"/>
    </g>
   </g>
   <g id="FillBetweenPolyCollection_5">
    <defs>
     <path id="m772338f122" d="M 69.821986 -202.372455 
L 69.821986 -158.853141 
L 76.999583 -162.592534 
L 84.17718 -166.29565 
L 91.354777 -169.962744 
L 98.532374 -173.594074 
L 105.709971 -177.189899 
L 112.887568 -180.75048 
L 120.065165 -184.276072 
L 127.242762 -187.76693 
L 134.420359 -191.223301 
L 141.597956 -194.645429 
L 148.775553 -198.033545 
L 155.95315 -201.387873 
L 163.130747 -204.70862 
L 170.308344 -207.995981 
L 177.485941 -211.25013 
L 184.663537 -214.471221 
L 191.841134 -217.659384 
L 199.018731 -220.814716 
L 206.196328 -223.937287 
L 213.373925 -227.027121 
L 220.551522 -230.084203 
L 227.729119 -233.108461 
L 234.906716 -236.099764 
L 242.084313 -239.057906 
L 249.26191 -241.982599 
L 256.439507 -244.873449 
L 263.617104 -247.729944 
L 270.794701 -250.551425 
L 277.972298 -253.337056 
L 285.149895 -256.08579 
L 292.327492 -258.79632 
L 299.505089 -261.467024 
L 306.682686 -264.095895 
L 313.860283 -266.68046 
L 321.03788 -269.217679 
L 328.215477 -271.703837 
L 335.393074 -274.134428 
L 342.57067 -276.504044 
L 349.748267 -278.80631 
L 356.925864 -281.033885 
L 364.103461 -283.178616 
L 371.281058 -285.231879 
L 378.458655 -287.18517 
L 385.636252 -289.030886 
L 392.813849 -290.763166 
L 399.991446 -292.378567 
L 407.169043 -293.876346 
L 414.34664 -295.258279 
L 421.524237 -296.528087 
L 421.524237 -310.680543 
L 421.524237 -310.680543 
L 414.34664 -308.716694 
L 407.169043 -306.784374 
L 399.991446 -304.887698 
L 392.813849 -303.028834 
L 385.636252 -301.207434 
L 378.458655 -299.420448 
L 371.281058 -297.662408 
L 364.103461 -295.926105 
L 356.925864 -294.203426 
L 349.748267 -292.486144 
L 342.57067 -290.766496 
L 335.393074 -289.037536 
L 328.215477 -287.293282 
L 321.03788 -285.52872 
L 313.860283 -283.739736 
L 306.682686 -281.923009 
L 299.505089 -280.075892 
L 292.327492 -278.196306 
L 285.149895 -276.282637 
L 277.972298 -274.333656 
L 270.794701 -272.34845 
L 263.617104 -270.326364 
L 256.439507 -268.266956 
L 249.26191 -266.169962 
L 242.084313 -264.035261 
L 234.906716 -261.862853 
L 227.729119 -259.652844 
L 220.551522 -257.40542 
L 213.373925 -255.120844 
L 206.196328 -252.799439 
L 199.018731 -250.44158 
L 191.841134 -248.047688 
L 184.663537 -245.618222 
L 177.485941 -243.153676 
L 170.308344 -240.654573 
L 163.130747 -238.121458 
L 155.95315 -235.5549 
L 148.775553 -232.955487 
L 141.597956 -230.32382 
L 134.420359 -227.660514 
L 127.242762 -224.966197 
L 120.065165 -222.241503 
L 112.887568 -219.487074 
L 105.709971 -216.703557 
L 98.532374 -213.891603 
L 91.354777 -211.051864 
L 84.17718 -208.184992 
L 76.999583 -205.291639 
L 69.821986 -202.372455 
z
" style="stroke: #6a5acd; stroke-opacity: 0.4"/>
    </defs>
    <g clip-path="url(#p467b758ecf)">
     <use xlink:href="#m772338f122" x="0" y="340.738125" style="fill: #6a5acd; fill-opacity: 0.4; stroke: #6a5acd; stroke-opacity: 0.4"/>
    </g>
   </g>
   <g id="matplotlib.axis_1">
    <g id="xtick_1">
     <g id="line2d_1">
      <defs>
       <path id="mbd5f1afcc3" d="M 0 0 
L 0 3.5 
" style="stroke: #000000; stroke-width: 0.8"/>
      </defs>
      <g>
       <use xlink:href="#mbd5f1afcc3" x="69.75156" y="300.96" style="stroke: #000000; stroke-width: 0.8"/>
      </g>
     </g>
     <g id="text_1">
      <!-- 0.20 -->
      <g transform="translate(58.618747 315.558438) scale(0.1 -0.1)">
       <defs>
        <path id="DejaVuSans-30" d="M 2034 4250 
Q 1547 4250 1301 3770 
Q 1056 3291 1056 2328 
Q 1056 1369 1301 889 
Q 1547 409 2034 409 
Q 2525 409 2770 889 
Q 3016 1369 3016 2328 
Q 3016 3291 2770 3770 
Q 2525 4250 2034 4250 
z
M 2034 4750 
Q 2819 4750 3233 4129 
Q 3647 3509 3647 2328 
Q 3647 1150 3233 529 
Q 2819 -91 2034 -91 
Q 1250 -91 836 529 
Q 422 1150 422 2328 
Q 422 3509 836 4129 
Q 1250 4750 2034 4750 
z
" transform="scale(0.015625)"/>
        <path id="DejaVuSans-2e" d="M 684 794 
L 1344 794 
L 1344 0 
L 684 0 
L 684 794 
z
" transform="scale(0.015625)"/>
        <path id="DejaVuSans-32" d="M 1228 531 
L 3431 531 
L 3431 0 
L 469 0 
L 469 531 
Q 828 903 1448 1529 
Q 2069 2156 2228 2338 
Q 2531 2678 2651 2914 
Q 2772 3150 2772 3378 
Q 2772 3750 2511 3984 
Q 2250 4219 1831 4219 
Q 1534 4219 1204 4116 
Q 875 4013 500 3803 
L 500 4441 
Q 881 4594 1212 4672 
Q 1544 4750 1819 4750 
Q 2544 4750 2975 4387 
Q 3406 4025 3406 3419 
Q 3406 3131 3298 2873 
Q 3191 2616 2906 2266 
Q 2828 2175 2409 1742 
Q 1991 1309 1228 531 
z
" transform="scale(0.015625)"/>
       </defs>
       <use xlink:href="#DejaVuSans-30"/>
       <use xlink:href="#DejaVuSans-2e" transform="translate(63.623047 0)"/>
       <use xlink:href="#DejaVuSans-32" transform="translate(95.410156 0)"/>
       <use xlink:href="#DejaVuSans-30" transform="translate(159.033203 0)"/>
      </g>
     </g>
    </g>
    <g id="xtick_2">
     <g id="line2d_2">
      <g>
       <use xlink:href="#mbd5f1afcc3" x="113.479247" y="300.96" style="stroke: #000000; stroke-width: 0.8"/>
      </g>
     </g>
     <g id="text_2">
      <!-- 0.22 -->
      <g transform="translate(102.346435 315.558438) scale(0.1 -0.1)">
       <use xlink:href="#DejaVuSans-30"/>
       <use xlink:href="#DejaVuSans-2e" transform="translate(63.623047 0)"/>
       <use xlink:href="#DejaVuSans-32" transform="translate(95.410156 0)"/>
       <use xlink:href="#DejaVuSans-32" transform="translate(159.033203 0)"/>
      </g>
     </g>
    </g>
    <g id="xtick_3">
     <g id="line2d_3">
      <g>
       <use xlink:href="#mbd5f1afcc3" x="157.206935" y="300.96" style="stroke: #000000; stroke-width: 0.8"/>
      </g>
     </g>
     <g id="text_3">
      <!-- 0.24 -->
      <g transform="translate(146.074123 315.558438) scale(0.1 -0.1)">
       <defs>
        <path id="DejaVuSans-34" d="M 2419 4116 
L 825 1625 
L 2419 1625 
L 2419 4116 
z
M 2253 4666 
L 3047 4666 
L 3047 1625 
L 3713 1625 
L 3713 1100 
L 3047 1100 
L 3047 0 
L 2419 0 
L 2419 1100 
L 313 1100 
L 313 1709 
L 2253 4666 
z
" transform="scale(0.015625)"/>
       </defs>
       <use xlink:href="#DejaVuSans-30"/>
       <use xlink:href="#DejaVuSans-2e" transform="translate(63.623047 0)"/>
       <use xlink:href="#DejaVuSans-32" transform="translate(95.410156 0)"/>
       <use xlink:href="#DejaVuSans-34" transform="translate(159.033203 0)"/>
      </g>
     </g>
    </g>
    <g id="xtick_4">
     <g id="line2d_4">
      <g>
       <use xlink:href="#mbd5f1afcc3" x="200.934623" y="300.96" style="stroke: #000000; stroke-width: 0.8"/>
      </g>
     </g>
     <g id="text_4">
      <!-- 0.26 -->
      <g transform="translate(189.801811 315.558438) scale(0.1 -0.1)">
       <defs>
        <path id="DejaVuSans-36" d="M 2113 2584 
Q 1688 2584 1439 2293 
Q 1191 2003 1191 1497 
Q 1191 994 1439 701 
Q 1688 409 2113 409 
Q 2538 409 2786 701 
Q 3034 994 3034 1497 
Q 3034 2003 2786 2293 
Q 2538 2584 2113 2584 
z
M 3366 4563 
L 3366 3988 
Q 3128 4100 2886 4159 
Q 2644 4219 2406 4219 
Q 1781 4219 1451 3797 
Q 1122 3375 1075 2522 
Q 1259 2794 1537 2939 
Q 1816 3084 2150 3084 
Q 2853 3084 3261 2657 
Q 3669 2231 3669 1497 
Q 3669 778 3244 343 
Q 2819 -91 2113 -91 
Q 1303 -91 875 529 
Q 447 1150 447 2328 
Q 447 3434 972 4092 
Q 1497 4750 2381 4750 
Q 2619 4750 2861 4703 
Q 3103 4656 3366 4563 
z
" transform="scale(0.015625)"/>
       </defs>
       <use xlink:href="#DejaVuSans-30"/>
       <use xlink:href="#DejaVuSans-2e" transform="translate(63.623047 0)"/>
       <use xlink:href="#DejaVuSans-32" transform="translate(95.410156 0)"/>
       <use xlink:href="#DejaVuSans-36" transform="translate(159.033203 0)"/>
      </g>
     </g>
    </g>
    <g id="xtick_5">
     <g id="line2d_5">
      <g>
       <use xlink:href="#mbd5f1afcc3" x="244.662311" y="300.96" style="stroke: #000000; stroke-width: 0.8"/>
      </g>
     </g>
     <g id="text_5">
      <!-- 0.28 -->
      <g transform="translate(233.529499 315.558438) scale(0.1 -0.1)">
       <defs>
        <path id="DejaVuSans-38" d="M 2034 2216 
Q 1584 2216 1326 1975 
Q 1069 1734 1069 1313 
Q 1069 891 1326 650 
Q 1584 409 2034 409 
Q 2484 409 2743 651 
Q 3003 894 3003 1313 
Q 3003 1734 2745 1975 
Q 2488 2216 2034 2216 
z
M 1403 2484 
Q 997 2584 770 2862 
Q 544 3141 544 3541 
Q 544 4100 942 4425 
Q 1341 4750 2034 4750 
Q 2731 4750 3128 4425 
Q 3525 4100 3525 3541 
Q 3525 3141 3298 2862 
Q 3072 2584 2669 2484 
Q 3125 2378 3379 2068 
Q 3634 1759 3634 1313 
Q 3634 634 3220 271 
Q 2806 -91 2034 -91 
Q 1263 -91 848 271 
Q 434 634 434 1313 
Q 434 1759 690 2068 
Q 947 2378 1403 2484 
z
M 1172 3481 
Q 1172 3119 1398 2916 
Q 1625 2713 2034 2713 
Q 2441 2713 2670 2916 
Q 2900 3119 2900 3481 
Q 2900 3844 2670 4047 
Q 2441 4250 2034 4250 
Q 1625 4250 1398 4047 
Q 1172 3844 1172 3481 
z
" transform="scale(0.015625)"/>
       </defs>
       <use xlink:href="#DejaVuSans-30"/>
       <use xlink:href="#DejaVuSans-2e" transform="translate(63.623047 0)"/>
       <use xlink:href="#DejaVuSans-32" transform="translate(95.410156 0)"/>
       <use xlink:href="#DejaVuSans-38" transform="translate(159.033203 0)"/>
      </g>
     </g>
    </g>
    <g id="xtick_6">
     <g id="line2d_6">
      <g>
       <use xlink:href="#mbd5f1afcc3" x="288.389999" y="300.96" style="stroke: #000000; stroke-width: 0.8"/>
      </g>
     </g>
     <g id="text_6">
      <!-- 0.30 -->
      <g transform="translate(277.257187 315.558438) scale(0.1 -0.1)">
       <defs>
        <path id="DejaVuSans-33" d="M 2597 2516 
Q 3050 2419 3304 2112 
Q 3559 1806 3559 1356 
Q 3559 666 3084 287 
Q 2609 -91 1734 -91 
Q 1441 -91 1130 -33 
Q 819 25 488 141 
L 488 750 
Q 750 597 1062 519 
Q 1375 441 1716 441 
Q 2309 441 2620 675 
Q 2931 909 2931 1356 
Q 2931 1769 2642 2001 
Q 2353 2234 1838 2234 
L 1294 2234 
L 1294 2753 
L 1863 2753 
Q 2328 2753 2575 2939 
Q 2822 3125 2822 3475 
Q 2822 3834 2567 4026 
Q 2313 4219 1838 4219 
Q 1578 4219 1281 4162 
Q 984 4106 628 3988 
L 628 4550 
Q 988 4650 1302 4700 
Q 1616 4750 1894 4750 
Q 2613 4750 3031 4423 
Q 3450 4097 3450 3541 
Q 3450 3153 3228 2886 
Q 3006 2619 2597 2516 
z
" transform="scale(0.015625)"/>
       </defs>
       <use xlink:href="#DejaVuSans-30"/>
       <use xlink:href="#DejaVuSans-2e" transform="translate(63.623047 0)"/>
       <use xlink:href="#DejaVuSans-33" transform="translate(95.410156 0)"/>
       <use xlink:href="#DejaVuSans-30" transform="translate(159.033203 0)"/>
      </g>
     </g>
    </g>
    <g id="xtick_7">
     <g id="line2d_7">
      <g>
       <use xlink:href="#mbd5f1afcc3" x="332.117687" y="300.96" style="stroke: #000000; stroke-width: 0.8"/>
      </g>
     </g>
     <g id="text_7">
      <!-- 0.32 -->
      <g transform="translate(320.984874 315.558438) scale(0.1 -0.1)">
       <use xlink:href="#DejaVuSans-30"/>
       <use xlink:href="#DejaVuSans-2e" transform="translate(63.623047 0)"/>
       <use xlink:href="#DejaVuSans-33" transform="translate(95.410156 0)"/>
       <use xlink:href="#DejaVuSans-32" transform="translate(159.033203 0)"/>
      </g>
     </g>
    </g>
    <g id="xtick_8">
     <g id="line2d_8">
      <g>
       <use xlink:href="#mbd5f1afcc3" x="375.845375" y="300.96" style="stroke: #000000; stroke-width: 0.8"/>
      </g>
     </g>
     <g id="text_8">
      <!-- 0.34 -->
      <g transform="translate(364.712562 315.558438) scale(0.1 -0.1)">
       <use xlink:href="#DejaVuSans-30"/>
       <use xlink:href="#DejaVuSans-2e" transform="translate(63.623047 0)"/>
       <use xlink:href="#DejaVuSans-33" transform="translate(95.410156 0)"/>
       <use xlink:href="#DejaVuSans-34" transform="translate(159.033203 0)"/>
      </g>
     </g>
    </g>
    <g id="xtick_9">
     <g id="line2d_9">
      <g>
       <use xlink:href="#mbd5f1afcc3" x="419.573063" y="300.96" style="stroke: #000000; stroke-width: 0.8"/>
      </g>
     </g>
     <g id="text_9">
      <!-- 0.36 -->
      <g transform="translate(408.44025 315.558438) scale(0.1 -0.1)">
       <use xlink:href="#DejaVuSans-30"/>
       <use xlink:href="#DejaVuSans-2e" transform="translate(63.623047 0)"/>
       <use xlink:href="#DejaVuSans-33" transform="translate(95.410156 0)"/>
       <use xlink:href="#DejaVuSans-36" transform="translate(159.033203 0)"/>
      </g>
     </g>
    </g>
    <g id="text_10">
     <!-- $s^2_F$ -->
     <g transform="translate(240.73375 330.738125) scale(0.1 -0.1)">
      <defs>
       <path id="DejaVuSans-Oblique-73" d="M 3200 3397 
L 3091 2853 
Q 2863 2978 2609 3040 
Q 2356 3103 2088 3103 
Q 1634 3103 1373 2948 
Q 1113 2794 1113 2528 
Q 1113 2219 1719 2053 
Q 1766 2041 1788 2034 
L 1972 1978 
Q 2547 1819 2739 1644 
Q 2931 1469 2931 1166 
Q 2931 609 2489 259 
Q 2047 -91 1331 -91 
Q 1053 -91 747 -37 
Q 441 16 72 128 
L 184 722 
Q 500 559 806 475 
Q 1113 391 1394 391 
Q 1816 391 2080 572 
Q 2344 753 2344 1031 
Q 2344 1331 1650 1516 
L 1591 1531 
L 1394 1581 
Q 956 1697 753 1886 
Q 550 2075 550 2369 
Q 550 2928 970 3256 
Q 1391 3584 2113 3584 
Q 2397 3584 2667 3537 
Q 2938 3491 3200 3397 
z
" transform="scale(0.015625)"/>
       <path id="DejaVuSans-Oblique-46" d="M 1081 4666 
L 3756 4666 
L 3653 4134 
L 1606 4134 
L 1338 2759 
L 3188 2759 
L 3084 2228 
L 1234 2228 
L 800 0 
L 172 0 
L 1081 4666 
z
" transform="scale(0.015625)"/>
      </defs>
      <use xlink:href="#DejaVuSans-Oblique-73" transform="translate(0 0.765625)"/>
      <use xlink:href="#DejaVuSans-32" transform="translate(56.749505 39.046875) scale(0.7)"/>
      <use xlink:href="#DejaVuSans-Oblique-46" transform="translate(52.099609 -26.578125) scale(0.7)"/>
     </g>
    </g>
   </g>
   <g id="matplotlib.axis_2">
    <g id="ytick_1">
     <g id="line2d_10">
      <defs>
       <path id="maab93b51f5" d="M 0 0 
L -3.5 0 
" style="stroke: #000000; stroke-width: 0.8"/>
      </defs>
      <g>
       <use xlink:href="#maab93b51f5" x="50.14375" y="283.259719" style="stroke: #000000; stroke-width: 0.8"/>
      </g>
     </g>
     <g id="text_11">
      <!-- 1.20 -->
      <g transform="translate(20.878125 287.058937) scale(0.1 -0.1)">
       <defs>
        <path id="DejaVuSans-31" d="M 794 531 
L 1825 531 
L 1825 4091 
L 703 3866 
L 703 4441 
L 1819 4666 
L 2450 4666 
L 2450 531 
L 3481 531 
L 3481 0 
L 794 0 
L 794 531 
z
" transform="scale(0.015625)"/>
       </defs>
       <use xlink:href="#DejaVuSans-31"/>
       <use xlink:href="#DejaVuSans-2e" transform="translate(63.623047 0)"/>
       <use xlink:href="#DejaVuSans-32" transform="translate(95.410156 0)"/>
       <use xlink:href="#DejaVuSans-30" transform="translate(159.033203 0)"/>
      </g>
     </g>
    </g>
    <g id="ytick_2">
     <g id="line2d_11">
      <g>
       <use xlink:href="#maab93b51f5" x="50.14375" y="232.610601" style="stroke: #000000; stroke-width: 0.8"/>
      </g>
     </g>
     <g id="text_12">
      <!-- 1.25 -->
      <g transform="translate(20.878125 236.40982) scale(0.1 -0.1)">
       <defs>
        <path id="DejaVuSans-35" d="M 691 4666 
L 3169 4666 
L 3169 4134 
L 1269 4134 
L 1269 2991 
Q 1406 3038 1543 3061 
Q 1681 3084 1819 3084 
Q 2600 3084 3056 2656 
Q 3513 2228 3513 1497 
Q 3513 744 3044 326 
Q 2575 -91 1722 -91 
Q 1428 -91 1123 -41 
Q 819 9 494 109 
L 494 744 
Q 775 591 1075 516 
Q 1375 441 1709 441 
Q 2250 441 2565 725 
Q 2881 1009 2881 1497 
Q 2881 1984 2565 2268 
Q 2250 2553 1709 2553 
Q 1456 2553 1204 2497 
Q 953 2441 691 2322 
L 691 4666 
z
" transform="scale(0.015625)"/>
       </defs>
       <use xlink:href="#DejaVuSans-31"/>
       <use xlink:href="#DejaVuSans-2e" transform="translate(63.623047 0)"/>
       <use xlink:href="#DejaVuSans-32" transform="translate(95.410156 0)"/>
       <use xlink:href="#DejaVuSans-35" transform="translate(159.033203 0)"/>
      </g>
     </g>
    </g>
    <g id="ytick_3">
     <g id="line2d_12">
      <g>
       <use xlink:href="#maab93b51f5" x="50.14375" y="181.961483" style="stroke: #000000; stroke-width: 0.8"/>
      </g>
     </g>
     <g id="text_13">
      <!-- 1.30 -->
      <g transform="translate(20.878125 185.760702) scale(0.1 -0.1)">
       <use xlink:href="#DejaVuSans-31"/>
       <use xlink:href="#DejaVuSans-2e" transform="translate(63.623047 0)"/>
       <use xlink:href="#DejaVuSans-33" transform="translate(95.410156 0)"/>
       <use xlink:href="#DejaVuSans-30" transform="translate(159.033203 0)"/>
      </g>
     </g>
    </g>
    <g id="ytick_4">
     <g id="line2d_13">
      <g>
       <use xlink:href="#maab93b51f5" x="50.14375" y="131.312366" style="stroke: #000000; stroke-width: 0.8"/>
      </g>
     </g>
     <g id="text_14">
      <!-- 1.35 -->
      <g transform="translate(20.878125 135.111584) scale(0.1 -0.1)">
       <use xlink:href="#DejaVuSans-31"/>
       <use xlink:href="#DejaVuSans-2e" transform="translate(63.623047 0)"/>
       <use xlink:href="#DejaVuSans-33" transform="translate(95.410156 0)"/>
       <use xlink:href="#DejaVuSans-35" transform="translate(159.033203 0)"/>
      </g>
     </g>
    </g>
    <g id="ytick_5">
     <g id="line2d_14">
      <g>
       <use xlink:href="#maab93b51f5" x="50.14375" y="80.663248" style="stroke: #000000; stroke-width: 0.8"/>
      </g>
     </g>
     <g id="text_15">
      <!-- 1.40 -->
      <g transform="translate(20.878125 84.462467) scale(0.1 -0.1)">
       <use xlink:href="#DejaVuSans-31"/>
       <use xlink:href="#DejaVuSans-2e" transform="translate(63.623047 0)"/>
       <use xlink:href="#DejaVuSans-34" transform="translate(95.410156 0)"/>
       <use xlink:href="#DejaVuSans-30" transform="translate(159.033203 0)"/>
      </g>
     </g>
    </g>
    <g id="ytick_6">
     <g id="line2d_15">
      <g>
       <use xlink:href="#maab93b51f5" x="50.14375" y="30.01413" style="stroke: #000000; stroke-width: 0.8"/>
      </g>
     </g>
     <g id="text_16">
      <!-- 1.45 -->
      <g transform="translate(20.878125 33.813349) scale(0.1 -0.1)">
       <use xlink:href="#DejaVuSans-31"/>
       <use xlink:href="#DejaVuSans-2e" transform="translate(63.623047 0)"/>
       <use xlink:href="#DejaVuSans-34" transform="translate(95.410156 0)"/>
       <use xlink:href="#DejaVuSans-35" transform="translate(159.033203 0)"/>
      </g>
     </g>
    </g>
    <g id="text_17">
     <!-- $w_0 m_\Omega$ -->
     <g transform="translate(14.798437 168.23) rotate(-90) scale(0.1 -0.1)">
      <defs>
       <path id="DejaVuSans-Oblique-77" d="M 544 3500 
L 1113 3500 
L 1259 684 
L 2566 3500 
L 3231 3500 
L 3425 684 
L 4666 3500 
L 5241 3500 
L 3641 0 
L 2969 0 
L 2797 2900 
L 1459 0 
L 781 0 
L 544 3500 
z
" transform="scale(0.015625)"/>
       <path id="DejaVuSans-Oblique-6d" d="M 5747 2113 
L 5338 0 
L 4763 0 
L 5166 2094 
Q 5191 2228 5203 2325 
Q 5216 2422 5216 2491 
Q 5216 2772 5059 2928 
Q 4903 3084 4622 3084 
Q 4203 3084 3875 2770 
Q 3547 2456 3450 1953 
L 3066 0 
L 2491 0 
L 2900 2094 
Q 2925 2209 2937 2307 
Q 2950 2406 2950 2484 
Q 2950 2769 2794 2926 
Q 2638 3084 2363 3084 
Q 1938 3084 1609 2770 
Q 1281 2456 1184 1953 
L 800 0 
L 225 0 
L 909 3500 
L 1484 3500 
L 1375 2956 
Q 1609 3263 1923 3423 
Q 2238 3584 2597 3584 
Q 2978 3584 3223 3384 
Q 3469 3184 3519 2828 
Q 3781 3197 4126 3390 
Q 4472 3584 4856 3584 
Q 5306 3584 5551 3325 
Q 5797 3066 5797 2591 
Q 5797 2488 5784 2364 
Q 5772 2241 5747 2113 
z
" transform="scale(0.015625)"/>
       <path id="DejaVuSans-3a9" d="M 4647 556 
L 4647 0 
L 2772 0 
L 2772 556 
Q 3325 859 3634 1378 
Q 3944 1897 3944 2528 
Q 3944 3278 3531 3731 
Q 3119 4184 2444 4184 
Q 1769 4184 1355 3729 
Q 941 3275 941 2528 
Q 941 1897 1250 1378 
Q 1563 859 2119 556 
L 2119 0 
L 244 0 
L 244 556 
L 1241 556 
Q 747 991 519 1456 
Q 294 1922 294 2497 
Q 294 3491 894 4106 
Q 1491 4722 2444 4722 
Q 3391 4722 3994 4106 
Q 4594 3494 4594 2528 
Q 4594 1922 4372 1459 
Q 4150 997 3647 556 
L 4647 556 
z
" transform="scale(0.015625)"/>
      </defs>
      <use xlink:href="#DejaVuSans-Oblique-77"/>
      <use xlink:href="#DejaVuSans-30" transform="translate(81.787109 -16.40625) scale(0.7)"/>
      <use xlink:href="#DejaVuSans-Oblique-6d" transform="translate(129.057617 0)"/>
      <use xlink:href="#DejaVuSans-3a9" transform="translate(226.469727 -16.40625) scale(0.7)"/>
     </g>
    </g>
   </g>
   <g id="line2d_16">
    <path d="M 398.366433 300.96 
L 398.366433 7.2 
" clip-path="url(#p467b758ecf)" style="fill: none; stroke-dasharray: 5.55,2.4; stroke-dashoffset: 0; stroke: #1f77b4; stroke-width: 1.5"/>
   </g>
   <g id="line2d_17">
    <path d="M 398.366433 300.96 
L 398.366433 7.2 
" clip-path="url(#p467b758ecf)" style="fill: none; stroke-dasharray: 5.55,2.4; stroke-dashoffset: 0; stroke: #1f77b4; stroke-width: 1.5"/>
   </g>
   <g id="line2d_18">
    <path d="M 398.366433 300.96 
L 398.366433 7.2 
" clip-path="url(#p467b758ecf)" style="fill: none; stroke-dasharray: 5.55,2.4; stroke-dashoffset: 0; stroke: #1f77b4; stroke-width: 1.5"/>
   </g>
   <g id="line2d_19">
    <path d="M 398.366433 300.96 
L 398.366433 7.2 
" clip-path="url(#p467b758ecf)" style="fill: none; stroke-dasharray: 5.55,2.4; stroke-dashoffset: 0; stroke: #1f77b4; stroke-width: 1.5"/>
   </g>
   <g id="line2d_20">
    <path d="M 398.366433 300.96 
L 398.366433 7.2 
" clip-path="url(#p467b758ecf)" style="fill: none; stroke-dasharray: 5.55,2.4; stroke-dashoffset: 0; stroke: #1f77b4; stroke-width: 1.5"/>
   </g>
   <g id="line2d_21">
    <path d="M 235.21062 195.433785 
L 231.063539 195.429521 
" clip-path="url(#p467b758ecf)" style="fill: none; stroke: #ec5d57; stroke-width: 2; stroke-linecap: square"/>
   </g>
   <g id="line2d_22">
    <path d="M 233.194775 183.384214 
L 233.079384 207.479092 
" clip-path="url(#p467b758ecf)" style="fill: none; stroke: #ec5d57; stroke-width: 2; stroke-linecap: square"/>
   </g>
   <g id="line2d_23">
    <path d="M 271.793422 179.761573 
L 267.701756 179.756343 
" clip-path="url(#p467b758ecf)" style="fill: none; stroke: #ec5d57; stroke-width: 2; stroke-linecap: square"/>
   </g>
   <g id="line2d_24">
    <path d="M 269.806532 169.860592 
L 269.688646 189.657323 
" clip-path="url(#p467b758ecf)" style="fill: none; stroke: #ec5d57; stroke-width: 2; stroke-linecap: square"/>
   </g>
   <g id="line2d_25">
    <path d="M 287.332424 163.600888 
L 282.423126 163.615405 
" clip-path="url(#p467b758ecf)" style="fill: none; stroke: #ec5d57; stroke-width: 2; stroke-linecap: square"/>
   </g>
   <g id="line2d_26">
    <path d="M 284.753974 154.621275 
L 285.001576 172.595018 
" clip-path="url(#p467b758ecf)" style="fill: none; stroke: #ec5d57; stroke-width: 2; stroke-linecap: square"/>
   </g>
   <g id="line2d_27">
    <path d="M 297.841247 160.806668 
L 294.11399 160.803032 
" clip-path="url(#p467b758ecf)" style="fill: none; stroke: #ec5d57; stroke-width: 2; stroke-linecap: square"/>
   </g>
   <g id="line2d_28">
    <path d="M 296.016868 152.169161 
L 295.938368 169.440539 
" clip-path="url(#p467b758ecf)" style="fill: none; stroke: #ec5d57; stroke-width: 2; stroke-linecap: square"/>
   </g>
   <g id="line2d_29">
    <path d="M 345.701417 141.396733 
L 341.866624 141.413417 
" clip-path="url(#p467b758ecf)" style="fill: none; stroke: #ec5d57; stroke-width: 2; stroke-linecap: square"/>
   </g>
   <g id="line2d_30">
    <path d="M 343.670162 135.787511 
L 343.897879 147.022639 
" clip-path="url(#p467b758ecf)" style="fill: none; stroke: #ec5d57; stroke-width: 2; stroke-linecap: square"/>
   </g>
   <g id="line2d_31">
    <path d="M 424.020114 113.339064 
L 419.02836 113.350191 
" clip-path="url(#p467b758ecf)" style="fill: none; stroke: #ec5d57; stroke-width: 2; stroke-linecap: square"/>
   </g>
   <g id="line2d_32">
    <path d="M 421.501465 111.151727 
L 421.547009 115.537529 
" clip-path="url(#p467b758ecf)" style="fill: none; stroke: #ec5d57; stroke-width: 2; stroke-linecap: square"/>
   </g>
   <g id="line2d_33">
    <path d="M 213.54787 151.446767 
L 209.33142 151.434994 
" clip-path="url(#p467b758ecf)" style="fill: none; stroke: #70bf41; stroke-width: 2; stroke-linecap: square"/>
   </g>
   <g id="line2d_34">
    <path d="M 211.56318 141.944172 
L 211.316111 160.937589 
" clip-path="url(#p467b758ecf)" style="fill: none; stroke: #70bf41; stroke-width: 2; stroke-linecap: square"/>
   </g>
   <g id="line2d_35">
    <path d="M 249.766008 144.977452 
L 243.94351 144.969657 
" clip-path="url(#p467b758ecf)" style="fill: none; stroke: #70bf41; stroke-width: 2; stroke-linecap: square"/>
   </g>
   <g id="line2d_36">
    <path d="M 246.90805 136.429022 
L 246.801467 153.518086 
" clip-path="url(#p467b758ecf)" style="fill: none; stroke: #70bf41; stroke-width: 2; stroke-linecap: square"/>
   </g>
   <g id="line2d_37">
    <path d="M 270.955608 130.632225 
L 265.884303 130.641129 
" clip-path="url(#p467b758ecf)" style="fill: none; stroke: #70bf41; stroke-width: 2; stroke-linecap: square"/>
   </g>
   <g id="line2d_38">
    <path d="M 268.346984 121.715018 
L 268.492927 139.558336 
" clip-path="url(#p467b758ecf)" style="fill: none; stroke: #70bf41; stroke-width: 2; stroke-linecap: square"/>
   </g>
   <g id="line2d_39">
    <path d="M 276.256308 125.850414 
L 271.218633 125.854606 
" clip-path="url(#p467b758ecf)" style="fill: none; stroke: #70bf41; stroke-width: 2; stroke-linecap: square"/>
   </g>
   <g id="line2d_40">
    <path d="M 273.706873 117.959003 
L 273.768068 133.746017 
" clip-path="url(#p467b758ecf)" style="fill: none; stroke: #70bf41; stroke-width: 2; stroke-linecap: square"/>
   </g>
   <g id="line2d_41">
    <path d="M 71.696586 221.579343 
L 67.947386 221.582719 
" clip-path="url(#p467b758ecf)" style="fill: none; stroke: #70bf41; stroke-width: 2; stroke-linecap: square"/>
   </g>
   <g id="line2d_42">
    <path d="M 69.756504 205.970344 
L 69.887468 237.191717 
" clip-path="url(#p467b758ecf)" style="fill: none; stroke: #70bf41; stroke-width: 2; stroke-linecap: square"/>
   </g>
   <g id="line2d_43">
    <path d="M 338.420443 99.749613 
L 330.140224 99.760371 
" clip-path="url(#p467b758ecf)" style="fill: none; stroke: #70bf41; stroke-width: 2; stroke-linecap: square"/>
   </g>
   <g id="line2d_44">
    <path d="M 334.249032 94.583089 
L 334.311635 104.926896 
" clip-path="url(#p467b758ecf)" style="fill: none; stroke: #70bf41; stroke-width: 2; stroke-linecap: square"/>
   </g>
   <g id="line2d_45">
    <path d="M 334.239626 100.510979 
L 327.939366 100.516571 
" clip-path="url(#p467b758ecf)" style="fill: none; stroke: #70bf41; stroke-width: 2; stroke-linecap: square"/>
   </g>
   <g id="line2d_46">
    <path d="M 331.065902 94.80713 
L 331.113091 106.22042 
" clip-path="url(#p467b758ecf)" style="fill: none; stroke: #70bf41; stroke-width: 2; stroke-linecap: square"/>
   </g>
   <g id="line2d_47">
    <path d="M 335.782466 102.94024 
L 329.230127 102.955779 
" clip-path="url(#p467b758ecf)" style="fill: none; stroke: #70bf41; stroke-width: 2; stroke-linecap: square"/>
   </g>
   <g id="line2d_48">
    <path d="M 332.402785 93.578548 
L 332.609808 112.31747 
" clip-path="url(#p467b758ecf)" style="fill: none; stroke: #70bf41; stroke-width: 2; stroke-linecap: square"/>
   </g>
   <g id="line2d_49">
    <path d="M 360.916043 87.124949 
L 355.347374 87.150092 
" clip-path="url(#p467b758ecf)" style="fill: none; stroke: #70bf41; stroke-width: 2; stroke-linecap: square"/>
   </g>
   <g id="line2d_50">
    <path d="M 358.039882 82.771847 
L 358.223535 91.503194 
" clip-path="url(#p467b758ecf)" style="fill: none; stroke: #70bf41; stroke-width: 2; stroke-linecap: square"/>
   </g>
   <g id="line2d_51">
    <path d="M 385.172384 87.134249 
L 379.162471 87.152424 
" clip-path="url(#p467b758ecf)" style="fill: none; stroke: #70bf41; stroke-width: 2; stroke-linecap: square"/>
   </g>
   <g id="line2d_52">
    <path d="M 382.115415 83.451311 
L 382.21944 90.835362 
" clip-path="url(#p467b758ecf)" style="fill: none; stroke: #70bf41; stroke-width: 2; stroke-linecap: square"/>
   </g>
   <g id="line2d_53">
    <path d="M 211.256638 118.922144 
L 207.372446 118.923823 
" clip-path="url(#p467b758ecf)" style="fill: none; stroke: #51a7f9; stroke-width: 2; stroke-linecap: square"/>
   </g>
   <g id="line2d_54">
    <path d="M 209.291718 107.590121 
L 209.337365 130.255846 
" clip-path="url(#p467b758ecf)" style="fill: none; stroke: #51a7f9; stroke-width: 2; stroke-linecap: square"/>
   </g>
   <g id="line2d_55">
    <path d="M 252.875491 116.08246 
L 248.040864 116.087606 
" clip-path="url(#p467b758ecf)" style="fill: none; stroke: #51a7f9; stroke-width: 2; stroke-linecap: square"/>
   </g>
   <g id="line2d_56">
    <path d="M 250.403014 104.961003 
L 250.513341 127.209064 
" clip-path="url(#p467b758ecf)" style="fill: none; stroke: #51a7f9; stroke-width: 2; stroke-linecap: square"/>
   </g>
   <g id="line2d_57">
    <path d="M 278.786476 94.899722 
L 274.523242 94.904196 
" clip-path="url(#p467b758ecf)" style="fill: none; stroke: #51a7f9; stroke-width: 2; stroke-linecap: square"/>
   </g>
   <g id="line2d_58">
    <path d="M 276.604598 84.619944 
L 276.705119 105.183974 
" clip-path="url(#p467b758ecf)" style="fill: none; stroke: #51a7f9; stroke-width: 2; stroke-linecap: square"/>
   </g>
   <g id="line2d_59">
    <path d="M 352.020584 73.182024 
L 346.494179 73.183757 
" clip-path="url(#p467b758ecf)" style="fill: none; stroke: #51a7f9; stroke-width: 2; stroke-linecap: square"/>
   </g>
   <g id="line2d_60">
    <path d="M 349.247297 66.281024 
L 349.267466 80.084756 
" clip-path="url(#p467b758ecf)" style="fill: none; stroke: #51a7f9; stroke-width: 2; stroke-linecap: square"/>
   </g>
   <g id="line2d_61">
    <path d="M 401.601585 63.0809 
L 393.974576 63.119083 
" clip-path="url(#p467b758ecf)" style="fill: none; stroke: #51a7f9; stroke-width: 2; stroke-linecap: square"/>
   </g>
   <g id="line2d_62">
    <path d="M 397.670312 58.050276 
L 397.90585 68.149707 
" clip-path="url(#p467b758ecf)" style="fill: none; stroke: #51a7f9; stroke-width: 2; stroke-linecap: square"/>
   </g>
   <g id="line2d_63">
    <path d="M 290.497751 64.571057 
L 283.159393 64.578954 
" clip-path="url(#p467b758ecf)" style="fill: none; stroke: #6a5acd; stroke-width: 2; stroke-linecap: square"/>
   </g>
   <g id="line2d_64">
    <path d="M 286.77502 53.892737 
L 286.882124 75.257274 
" clip-path="url(#p467b758ecf)" style="fill: none; stroke: #6a5acd; stroke-width: 2; stroke-linecap: square"/>
   </g>
   <g id="LineCollection_1"/>
   <g id="LineCollection_2"/>
   <g id="LineCollection_3"/>
   <g id="LineCollection_4"/>
   <g id="LineCollection_5"/>
   <g id="LineCollection_6"/>
   <g id="LineCollection_7"/>
   <g id="LineCollection_8"/>
   <g id="line2d_65"/>
   <g id="line2d_66"/>
   <g id="line2d_67"/>
   <g id="line2d_68"/>
   <g id="patch_3">
    <path d="M 50.14375 300.96 
L 50.14375 7.2 
" style="fill: none; stroke: #000000; stroke-width: 0.8; stroke-linejoin: miter; stroke-linecap: square"/>
   </g>
   <g id="patch_4">
    <path d="M 441.82375 300.96 
L 441.82375 7.2 
" style="fill: none; stroke: #000000; stroke-width: 0.8; stroke-linejoin: miter; stroke-linecap: square"/>
   </g>
   <g id="patch_5">
    <path d="M 50.14375 300.96 
L 441.82375 300.96 
" style="fill: none; stroke: #000000; stroke-width: 0.8; stroke-linejoin: miter; stroke-linecap: square"/>
   </g>
   <g id="patch_6">
    <path d="M 50.14375 7.2 
L 441.82375 7.2 
" style="fill: none; stroke: #000000; stroke-width: 0.8; stroke-linejoin: miter; stroke-linecap: square"/>
   </g>
   <g id="line2d_69">
    <path d="M 233.13708 195.431653 
" clip-path="url(#p467b758ecf)" style="fill: none; stroke: #ec5d57; stroke-width: 1.5; stroke-linecap: square"/>
    <defs>
     <path id="ma35bfdd165" d="M 0 3 
C 0.795609 3 1.55874 2.683901 2.12132 2.12132 
C 2.683901 1.55874 3 0.795609 3 0 
C 3 -0.795609 2.683901 -1.55874 2.12132 -2.12132 
C 1.55874 -2.683901 0.795609 -3 0 -3 
C -0.795609 -3 -1.55874 -2.683901 -2.12132 -2.12132 
C -2.683901 -1.55874 -3 -0.795609 -3 0 
C -3 0.795609 -2.683901 1.55874 -2.12132 2.12132 
C -1.55874 2.683901 -0.795609 3 0 3 
z
" style="stroke: #ffffff"/>
    </defs>
    <g clip-path="url(#p467b758ecf)">
     <use xlink:href="#ma35bfdd165" x="233.13708" y="195.431653" style="fill: #ec5d57; stroke: #ffffff"/>
    </g>
   </g>
   <g id="line2d_70">
    <path d="M 233.13708 195.431653 
" clip-path="url(#p467b758ecf)" style="fill: none; stroke: #ec5d57; stroke-width: 1.5; stroke-linecap: square"/>
    <g clip-path="url(#p467b758ecf)">
     <use xlink:href="#ma35bfdd165" x="233.13708" y="195.431653" style="fill: #ec5d57; stroke: #ffffff"/>
    </g>
   </g>
   <g id="line2d_71">
    <path d="M 269.747589 179.758958 
" clip-path="url(#p467b758ecf)" style="fill: none; stroke: #ec5d57; stroke-width: 1.5; stroke-linecap: square"/>
    <g clip-path="url(#p467b758ecf)">
     <use xlink:href="#ma35bfdd165" x="269.747589" y="179.758958" style="fill: #ec5d57; stroke: #ffffff"/>
    </g>
   </g>
   <g id="line2d_72">
    <path d="M 269.747589 179.758958 
" clip-path="url(#p467b758ecf)" style="fill: none; stroke: #ec5d57; stroke-width: 1.5; stroke-linecap: square"/>
    <g clip-path="url(#p467b758ecf)">
     <use xlink:href="#ma35bfdd165" x="269.747589" y="179.758958" style="fill: #ec5d57; stroke: #ffffff"/>
    </g>
   </g>
   <g id="line2d_73">
    <path d="M 284.877775 163.608147 
" clip-path="url(#p467b758ecf)" style="fill: none; stroke: #ec5d57; stroke-width: 1.5; stroke-linecap: square"/>
    <g clip-path="url(#p467b758ecf)">
     <use xlink:href="#ma35bfdd165" x="284.877775" y="163.608147" style="fill: #ec5d57; stroke: #ffffff"/>
    </g>
   </g>
   <g id="line2d_74">
    <path d="M 284.877775 163.608147 
" clip-path="url(#p467b758ecf)" style="fill: none; stroke: #ec5d57; stroke-width: 1.5; stroke-linecap: square"/>
    <g clip-path="url(#p467b758ecf)">
     <use xlink:href="#ma35bfdd165" x="284.877775" y="163.608147" style="fill: #ec5d57; stroke: #ffffff"/>
    </g>
   </g>
   <g id="line2d_75">
    <path d="M 295.977618 160.80485 
" clip-path="url(#p467b758ecf)" style="fill: none; stroke: #ec5d57; stroke-width: 1.5; stroke-linecap: square"/>
    <g clip-path="url(#p467b758ecf)">
     <use xlink:href="#ma35bfdd165" x="295.977618" y="160.80485" style="fill: #ec5d57; stroke: #ffffff"/>
    </g>
   </g>
   <g id="line2d_76">
    <path d="M 295.977618 160.80485 
" clip-path="url(#p467b758ecf)" style="fill: none; stroke: #ec5d57; stroke-width: 1.5; stroke-linecap: square"/>
    <g clip-path="url(#p467b758ecf)">
     <use xlink:href="#ma35bfdd165" x="295.977618" y="160.80485" style="fill: #ec5d57; stroke: #ffffff"/>
    </g>
   </g>
   <g id="line2d_77">
    <path d="M 343.784021 141.405075 
" clip-path="url(#p467b758ecf)" style="fill: none; stroke: #ec5d57; stroke-width: 1.5; stroke-linecap: square"/>
    <g clip-path="url(#p467b758ecf)">
     <use xlink:href="#ma35bfdd165" x="343.784021" y="141.405075" style="fill: #ec5d57; stroke: #ffffff"/>
    </g>
   </g>
   <g id="line2d_78">
    <path d="M 343.784021 141.405075 
" clip-path="url(#p467b758ecf)" style="fill: none; stroke: #ec5d57; stroke-width: 1.5; stroke-linecap: square"/>
    <g clip-path="url(#p467b758ecf)">
     <use xlink:href="#ma35bfdd165" x="343.784021" y="141.405075" style="fill: #ec5d57; stroke: #ffffff"/>
    </g>
   </g>
   <g id="line2d_79">
    <path d="M 421.524237 113.344628 
" clip-path="url(#p467b758ecf)" style="fill: none; stroke: #ec5d57; stroke-width: 1.5; stroke-linecap: square"/>
    <g clip-path="url(#p467b758ecf)">
     <use xlink:href="#ma35bfdd165" x="421.524237" y="113.344628" style="fill: #ec5d57; stroke: #ffffff"/>
    </g>
   </g>
   <g id="line2d_80">
    <path d="M 421.524237 113.344628 
" clip-path="url(#p467b758ecf)" style="fill: none; stroke: #ec5d57; stroke-width: 1.5; stroke-linecap: square"/>
    <g clip-path="url(#p467b758ecf)">
     <use xlink:href="#ma35bfdd165" x="421.524237" y="113.344628" style="fill: #ec5d57; stroke: #ffffff"/>
    </g>
   </g>
   <g id="line2d_81">
    <path d="M 211.439645 151.440881 
" clip-path="url(#p467b758ecf)" style="fill: none; stroke: #70bf41; stroke-width: 1.5; stroke-linecap: square"/>
    <defs>
     <path id="m5a9e4ce803" d="M 0 3 
C 0.795609 3 1.55874 2.683901 2.12132 2.12132 
C 2.683901 1.55874 3 0.795609 3 0 
C 3 -0.795609 2.683901 -1.55874 2.12132 -2.12132 
C 1.55874 -2.683901 0.795609 -3 0 -3 
C -0.795609 -3 -1.55874 -2.683901 -2.12132 -2.12132 
C -2.683901 -1.55874 -3 -0.795609 -3 0 
C -3 0.795609 -2.683901 1.55874 -2.12132 2.12132 
C -1.55874 2.683901 -0.795609 3 0 3 
z
" style="stroke: #ffffff"/>
    </defs>
    <g clip-path="url(#p467b758ecf)">
     <use xlink:href="#m5a9e4ce803" x="211.439645" y="151.440881" style="fill: #70bf41; stroke: #ffffff"/>
    </g>
   </g>
   <g id="line2d_82">
    <path d="M 211.439645 151.440881 
" clip-path="url(#p467b758ecf)" style="fill: none; stroke: #70bf41; stroke-width: 1.5; stroke-linecap: square"/>
    <g clip-path="url(#p467b758ecf)">
     <use xlink:href="#m5a9e4ce803" x="211.439645" y="151.440881" style="fill: #70bf41; stroke: #ffffff"/>
    </g>
   </g>
   <g id="line2d_83">
    <path d="M 246.854759 144.973554 
" clip-path="url(#p467b758ecf)" style="fill: none; stroke: #70bf41; stroke-width: 1.5; stroke-linecap: square"/>
    <g clip-path="url(#p467b758ecf)">
     <use xlink:href="#m5a9e4ce803" x="246.854759" y="144.973554" style="fill: #70bf41; stroke: #ffffff"/>
    </g>
   </g>
   <g id="line2d_84">
    <path d="M 246.854759 144.973554 
" clip-path="url(#p467b758ecf)" style="fill: none; stroke: #70bf41; stroke-width: 1.5; stroke-linecap: square"/>
    <g clip-path="url(#p467b758ecf)">
     <use xlink:href="#m5a9e4ce803" x="246.854759" y="144.973554" style="fill: #70bf41; stroke: #ffffff"/>
    </g>
   </g>
   <g id="line2d_85">
    <path d="M 268.419955 130.636677 
" clip-path="url(#p467b758ecf)" style="fill: none; stroke: #70bf41; stroke-width: 1.5; stroke-linecap: square"/>
    <g clip-path="url(#p467b758ecf)">
     <use xlink:href="#m5a9e4ce803" x="268.419955" y="130.636677" style="fill: #70bf41; stroke: #ffffff"/>
    </g>
   </g>
   <g id="line2d_86">
    <path d="M 268.419955 130.636677 
" clip-path="url(#p467b758ecf)" style="fill: none; stroke: #70bf41; stroke-width: 1.5; stroke-linecap: square"/>
    <g clip-path="url(#p467b758ecf)">
     <use xlink:href="#m5a9e4ce803" x="268.419955" y="130.636677" style="fill: #70bf41; stroke: #ffffff"/>
    </g>
   </g>
   <g id="line2d_87">
    <path d="M 273.73747 125.85251 
" clip-path="url(#p467b758ecf)" style="fill: none; stroke: #70bf41; stroke-width: 1.5; stroke-linecap: square"/>
    <g clip-path="url(#p467b758ecf)">
     <use xlink:href="#m5a9e4ce803" x="273.73747" y="125.85251" style="fill: #70bf41; stroke: #ffffff"/>
    </g>
   </g>
   <g id="line2d_88">
    <path d="M 273.73747 125.85251 
" clip-path="url(#p467b758ecf)" style="fill: none; stroke: #70bf41; stroke-width: 1.5; stroke-linecap: square"/>
    <g clip-path="url(#p467b758ecf)">
     <use xlink:href="#m5a9e4ce803" x="273.73747" y="125.85251" style="fill: #70bf41; stroke: #ffffff"/>
    </g>
   </g>
   <g id="line2d_89">
    <path d="M 69.821986 221.581031 
" clip-path="url(#p467b758ecf)" style="fill: none; stroke: #70bf41; stroke-width: 1.5; stroke-linecap: square"/>
    <g clip-path="url(#p467b758ecf)">
     <use xlink:href="#m5a9e4ce803" x="69.821986" y="221.581031" style="fill: #70bf41; stroke: #ffffff"/>
    </g>
   </g>
   <g id="line2d_90">
    <path d="M 69.821986 221.581031 
" clip-path="url(#p467b758ecf)" style="fill: none; stroke: #70bf41; stroke-width: 1.5; stroke-linecap: square"/>
    <g clip-path="url(#p467b758ecf)">
     <use xlink:href="#m5a9e4ce803" x="69.821986" y="221.581031" style="fill: #70bf41; stroke: #ffffff"/>
    </g>
   </g>
   <g id="line2d_91">
    <path d="M 334.280333 99.754992 
" clip-path="url(#p467b758ecf)" style="fill: none; stroke: #70bf41; stroke-width: 1.5; stroke-linecap: square"/>
    <g clip-path="url(#p467b758ecf)">
     <use xlink:href="#m5a9e4ce803" x="334.280333" y="99.754992" style="fill: #70bf41; stroke: #ffffff"/>
    </g>
   </g>
   <g id="line2d_92">
    <path d="M 334.280333 99.754992 
" clip-path="url(#p467b758ecf)" style="fill: none; stroke: #70bf41; stroke-width: 1.5; stroke-linecap: square"/>
    <g clip-path="url(#p467b758ecf)">
     <use xlink:href="#m5a9e4ce803" x="334.280333" y="99.754992" style="fill: #70bf41; stroke: #ffffff"/>
    </g>
   </g>
   <g id="line2d_93">
    <path d="M 331.089496 100.513775 
" clip-path="url(#p467b758ecf)" style="fill: none; stroke: #70bf41; stroke-width: 1.5; stroke-linecap: square"/>
    <g clip-path="url(#p467b758ecf)">
     <use xlink:href="#m5a9e4ce803" x="331.089496" y="100.513775" style="fill: #70bf41; stroke: #ffffff"/>
    </g>
   </g>
   <g id="line2d_94">
    <path d="M 331.089496 100.513775 
" clip-path="url(#p467b758ecf)" style="fill: none; stroke: #70bf41; stroke-width: 1.5; stroke-linecap: square"/>
    <g clip-path="url(#p467b758ecf)">
     <use xlink:href="#m5a9e4ce803" x="331.089496" y="100.513775" style="fill: #70bf41; stroke: #ffffff"/>
    </g>
   </g>
   <g id="line2d_95">
    <path d="M 332.506297 102.948009 
" clip-path="url(#p467b758ecf)" style="fill: none; stroke: #70bf41; stroke-width: 1.5; stroke-linecap: square"/>
    <g clip-path="url(#p467b758ecf)">
     <use xlink:href="#m5a9e4ce803" x="332.506297" y="102.948009" style="fill: #70bf41; stroke: #ffffff"/>
    </g>
   </g>
   <g id="line2d_96">
    <path d="M 332.506297 102.948009 
" clip-path="url(#p467b758ecf)" style="fill: none; stroke: #70bf41; stroke-width: 1.5; stroke-linecap: square"/>
    <g clip-path="url(#p467b758ecf)">
     <use xlink:href="#m5a9e4ce803" x="332.506297" y="102.948009" style="fill: #70bf41; stroke: #ffffff"/>
    </g>
   </g>
   <g id="line2d_97">
    <path d="M 358.131708 87.13752 
" clip-path="url(#p467b758ecf)" style="fill: none; stroke: #70bf41; stroke-width: 1.5; stroke-linecap: square"/>
    <g clip-path="url(#p467b758ecf)">
     <use xlink:href="#m5a9e4ce803" x="358.131708" y="87.13752" style="fill: #70bf41; stroke: #ffffff"/>
    </g>
   </g>
   <g id="line2d_98">
    <path d="M 358.131708 87.13752 
" clip-path="url(#p467b758ecf)" style="fill: none; stroke: #70bf41; stroke-width: 1.5; stroke-linecap: square"/>
    <g clip-path="url(#p467b758ecf)">
     <use xlink:href="#m5a9e4ce803" x="358.131708" y="87.13752" style="fill: #70bf41; stroke: #ffffff"/>
    </g>
   </g>
   <g id="line2d_99">
    <path d="M 382.167428 87.143337 
" clip-path="url(#p467b758ecf)" style="fill: none; stroke: #70bf41; stroke-width: 1.5; stroke-linecap: square"/>
    <g clip-path="url(#p467b758ecf)">
     <use xlink:href="#m5a9e4ce803" x="382.167428" y="87.143337" style="fill: #70bf41; stroke: #ffffff"/>
    </g>
   </g>
   <g id="line2d_100">
    <path d="M 382.167428 87.143337 
" clip-path="url(#p467b758ecf)" style="fill: none; stroke: #70bf41; stroke-width: 1.5; stroke-linecap: square"/>
    <g clip-path="url(#p467b758ecf)">
     <use xlink:href="#m5a9e4ce803" x="382.167428" y="87.143337" style="fill: #70bf41; stroke: #ffffff"/>
    </g>
   </g>
   <g id="line2d_101">
    <path d="M 209.314542 118.922984 
" clip-path="url(#p467b758ecf)" style="fill: none; stroke: #51a7f9; stroke-width: 1.5; stroke-linecap: square"/>
    <defs>
     <path id="m0df8aa22cf" d="M 0 3 
C 0.795609 3 1.55874 2.683901 2.12132 2.12132 
C 2.683901 1.55874 3 0.795609 3 0 
C 3 -0.795609 2.683901 -1.55874 2.12132 -2.12132 
C 1.55874 -2.683901 0.795609 -3 0 -3 
C -0.795609 -3 -1.55874 -2.683901 -2.12132 -2.12132 
C -2.683901 -1.55874 -3 -0.795609 -3 0 
C -3 0.795609 -2.683901 1.55874 -2.12132 2.12132 
C -1.55874 2.683901 -0.795609 3 0 3 
z
" style="stroke: #ffffff"/>
    </defs>
    <g clip-path="url(#p467b758ecf)">
     <use xlink:href="#m0df8aa22cf" x="209.314542" y="118.922984" style="fill: #51a7f9; stroke: #ffffff"/>
    </g>
   </g>
   <g id="line2d_102">
    <path d="M 209.314542 118.922984 
" clip-path="url(#p467b758ecf)" style="fill: none; stroke: #51a7f9; stroke-width: 1.5; stroke-linecap: square"/>
    <g clip-path="url(#p467b758ecf)">
     <use xlink:href="#m0df8aa22cf" x="209.314542" y="118.922984" style="fill: #51a7f9; stroke: #ffffff"/>
    </g>
   </g>
   <g id="line2d_103">
    <path d="M 250.458177 116.085033 
" clip-path="url(#p467b758ecf)" style="fill: none; stroke: #51a7f9; stroke-width: 1.5; stroke-linecap: square"/>
    <g clip-path="url(#p467b758ecf)">
     <use xlink:href="#m0df8aa22cf" x="250.458177" y="116.085033" style="fill: #51a7f9; stroke: #ffffff"/>
    </g>
   </g>
   <g id="line2d_104">
    <path d="M 250.458177 116.085033 
" clip-path="url(#p467b758ecf)" style="fill: none; stroke: #51a7f9; stroke-width: 1.5; stroke-linecap: square"/>
    <g clip-path="url(#p467b758ecf)">
     <use xlink:href="#m0df8aa22cf" x="250.458177" y="116.085033" style="fill: #51a7f9; stroke: #ffffff"/>
    </g>
   </g>
   <g id="line2d_105">
    <path d="M 276.654859 94.901959 
" clip-path="url(#p467b758ecf)" style="fill: none; stroke: #51a7f9; stroke-width: 1.5; stroke-linecap: square"/>
    <g clip-path="url(#p467b758ecf)">
     <use xlink:href="#m0df8aa22cf" x="276.654859" y="94.901959" style="fill: #51a7f9; stroke: #ffffff"/>
    </g>
   </g>
   <g id="line2d_106">
    <path d="M 276.654859 94.901959 
" clip-path="url(#p467b758ecf)" style="fill: none; stroke: #51a7f9; stroke-width: 1.5; stroke-linecap: square"/>
    <g clip-path="url(#p467b758ecf)">
     <use xlink:href="#m0df8aa22cf" x="276.654859" y="94.901959" style="fill: #51a7f9; stroke: #ffffff"/>
    </g>
   </g>
   <g id="line2d_107">
    <path d="M 349.257381 73.18289 
" clip-path="url(#p467b758ecf)" style="fill: none; stroke: #51a7f9; stroke-width: 1.5; stroke-linecap: square"/>
    <g clip-path="url(#p467b758ecf)">
     <use xlink:href="#m0df8aa22cf" x="349.257381" y="73.18289" style="fill: #51a7f9; stroke: #ffffff"/>
    </g>
   </g>
   <g id="line2d_108">
    <path d="M 349.257381 73.18289 
" clip-path="url(#p467b758ecf)" style="fill: none; stroke: #51a7f9; stroke-width: 1.5; stroke-linecap: square"/>
    <g clip-path="url(#p467b758ecf)">
     <use xlink:href="#m0df8aa22cf" x="349.257381" y="73.18289" style="fill: #51a7f9; stroke: #ffffff"/>
    </g>
   </g>
   <g id="line2d_109">
    <path d="M 397.788081 63.099991 
" clip-path="url(#p467b758ecf)" style="fill: none; stroke: #51a7f9; stroke-width: 1.5; stroke-linecap: square"/>
    <g clip-path="url(#p467b758ecf)">
     <use xlink:href="#m0df8aa22cf" x="397.788081" y="63.099991" style="fill: #51a7f9; stroke: #ffffff"/>
    </g>
   </g>
   <g id="line2d_110">
    <path d="M 397.788081 63.099991 
" clip-path="url(#p467b758ecf)" style="fill: none; stroke: #51a7f9; stroke-width: 1.5; stroke-linecap: square"/>
    <g clip-path="url(#p467b758ecf)">
     <use xlink:href="#m0df8aa22cf" x="397.788081" y="63.099991" style="fill: #51a7f9; stroke: #ffffff"/>
    </g>
   </g>
   <g id="line2d_111">
    <path d="M 286.828572 64.575006 
" clip-path="url(#p467b758ecf)" style="fill: none; stroke: #6a5acd; stroke-width: 1.5; stroke-linecap: square"/>
    <defs>
     <path id="m81b4dba951" d="M 0 3 
C 0.795609 3 1.55874 2.683901 2.12132 2.12132 
C 2.683901 1.55874 3 0.795609 3 0 
C 3 -0.795609 2.683901 -1.55874 2.12132 -2.12132 
C 1.55874 -2.683901 0.795609 -3 0 -3 
C -0.795609 -3 -1.55874 -2.683901 -2.12132 -2.12132 
C -2.683901 -1.55874 -3 -0.795609 -3 0 
C -3 0.795609 -2.683901 1.55874 -2.12132 2.12132 
C -1.55874 2.683901 -0.795609 3 0 3 
z
" style="stroke: #ffffff"/>
    </defs>
    <g clip-path="url(#p467b758ecf)">
     <use xlink:href="#m81b4dba951" x="286.828572" y="64.575006" style="fill: #6a5acd; stroke: #ffffff"/>
    </g>
   </g>
   <g id="line2d_112">
    <path d="M 286.828572 64.575006 
" clip-path="url(#p467b758ecf)" style="fill: none; stroke: #6a5acd; stroke-width: 1.5; stroke-linecap: square"/>
    <g clip-path="url(#p467b758ecf)">
     <use xlink:href="#m81b4dba951" x="286.828572" y="64.575006" style="fill: #6a5acd; stroke: #ffffff"/>
    </g>
   </g>
   <g id="legend_1">
    <g id="patch_7">
     <path d="M 57.14375 51.6 
L 253.74375 51.6 
Q 255.74375 51.6 255.74375 49.6 
L 255.74375 14.2 
Q 255.74375 12.2 253.74375 12.2 
L 57.14375 12.2 
Q 55.14375 12.2 55.14375 14.2 
L 55.14375 49.6 
Q 55.14375 51.6 57.14375 51.6 
z
" style="fill: #ffffff; opacity: 0.8; stroke: #cccccc; stroke-linejoin: miter"/>
    </g>
    <g id="LineCollection_9">
     <path d="M 64.14375 23.1 
L 74.14375 23.1 
" style="fill: none; stroke: #6a5acd; stroke-width: 3"/>
    </g>
    <g id="LineCollection_10">
     <path d="M 69.14375 28.1 
L 69.14375 18.1 
" style="fill: none; stroke: #6a5acd; stroke-width: 3"/>
    </g>
    <g id="line2d_113">
     <path d="M 59.14375 23.1 
L 79.14375 23.1 
" style="fill: none; stroke: #6a5acd; stroke-width: 1.5; stroke-linecap: square"/>
    </g>
    <g id="line2d_114">
     <defs>
      <path id="mf4cc3ef313" d="M 0 4 
C 1.060812 4 2.078319 3.578535 2.828427 2.828427 
C 3.578535 2.078319 4 1.060812 4 0 
C 4 -1.060812 3.578535 -2.078319 2.828427 -2.828427 
C 2.078319 -3.578535 1.060812 -4 0 -4 
C -1.060812 -4 -2.078319 -3.578535 -2.828427 -2.828427 
C -3.578535 -2.078319 -4 -1.060812 -4 0 
C -4 1.060812 -3.578535 2.078319 -2.828427 2.828427 
C -2.078319 3.578535 -1.060812 4 0 4 
z
" style="stroke: #ffffff; stroke-width: 2"/>
     </defs>
     <g>
      <use xlink:href="#mf4cc3ef313" x="69.14375" y="23.1" style="fill: #6a5acd; stroke: #ffffff; stroke-width: 2"/>
     </g>
    </g>
    <g id="text_18">
     <!-- $a_{06}(l_F^{\rm phys},s_F)$ -->
     <g transform="translate(87.14375 26.6) scale(0.1 -0.1)">
      <defs>
       <path id="DejaVuSans-Oblique-61" d="M 3438 1997 
L 3047 0 
L 2472 0 
L 2578 531 
Q 2325 219 2001 64 
Q 1678 -91 1281 -91 
Q 834 -91 548 182 
Q 263 456 263 884 
Q 263 1497 752 1853 
Q 1241 2209 2100 2209 
L 2900 2209 
L 2931 2363 
Q 2938 2388 2941 2417 
Q 2944 2447 2944 2509 
Q 2944 2788 2717 2942 
Q 2491 3097 2081 3097 
Q 1800 3097 1504 3025 
Q 1209 2953 897 2809 
L 997 3341 
Q 1322 3463 1633 3523 
Q 1944 3584 2234 3584 
Q 2853 3584 3176 3315 
Q 3500 3047 3500 2534 
Q 3500 2431 3484 2292 
Q 3469 2153 3438 1997 
z
M 2816 1759 
L 2241 1759 
Q 1534 1759 1195 1570 
Q 856 1381 856 984 
Q 856 709 1029 553 
Q 1203 397 1509 397 
Q 1978 397 2328 733 
Q 2678 1069 2791 1631 
L 2816 1759 
z
" transform="scale(0.015625)"/>
       <path id="DejaVuSans-28" d="M 1984 4856 
Q 1566 4138 1362 3434 
Q 1159 2731 1159 2009 
Q 1159 1288 1364 580 
Q 1569 -128 1984 -844 
L 1484 -844 
Q 1016 -109 783 600 
Q 550 1309 550 2009 
Q 550 2706 781 3412 
Q 1013 4119 1484 4856 
L 1984 4856 
z
" transform="scale(0.015625)"/>
       <path id="DejaVuSans-Oblique-6c" d="M 1172 4863 
L 1747 4863 
L 800 0 
L 225 0 
L 1172 4863 
z
" transform="scale(0.015625)"/>
       <path id="DejaVuSans-70" d="M 1159 525 
L 1159 -1331 
L 581 -1331 
L 581 3500 
L 1159 3500 
L 1159 2969 
Q 1341 3281 1617 3432 
Q 1894 3584 2278 3584 
Q 2916 3584 3314 3078 
Q 3713 2572 3713 1747 
Q 3713 922 3314 415 
Q 2916 -91 2278 -91 
Q 1894 -91 1617 61 
Q 1341 213 1159 525 
z
M 3116 1747 
Q 3116 2381 2855 2742 
Q 2594 3103 2138 3103 
Q 1681 3103 1420 2742 
Q 1159 2381 1159 1747 
Q 1159 1113 1420 752 
Q 1681 391 2138 391 
Q 2594 391 2855 752 
Q 3116 1113 3116 1747 
z
" transform="scale(0.015625)"/>
       <path id="DejaVuSans-68" d="M 3513 2113 
L 3513 0 
L 2938 0 
L 2938 2094 
Q 2938 2591 2744 2837 
Q 2550 3084 2163 3084 
Q 1697 3084 1428 2787 
Q 1159 2491 1159 1978 
L 1159 0 
L 581 0 
L 581 4863 
L 1159 4863 
L 1159 2956 
Q 1366 3272 1645 3428 
Q 1925 3584 2291 3584 
Q 2894 3584 3203 3211 
Q 3513 2838 3513 2113 
z
" transform="scale(0.015625)"/>
       <path id="DejaVuSans-79" d="M 2059 -325 
Q 1816 -950 1584 -1140 
Q 1353 -1331 966 -1331 
L 506 -1331 
L 506 -850 
L 844 -850 
Q 1081 -850 1212 -737 
Q 1344 -625 1503 -206 
L 1606 56 
L 191 3500 
L 800 3500 
L 1894 763 
L 2988 3500 
L 3597 3500 
L 2059 -325 
z
" transform="scale(0.015625)"/>
       <path id="DejaVuSans-73" d="M 2834 3397 
L 2834 2853 
Q 2591 2978 2328 3040 
Q 2066 3103 1784 3103 
Q 1356 3103 1142 2972 
Q 928 2841 928 2578 
Q 928 2378 1081 2264 
Q 1234 2150 1697 2047 
L 1894 2003 
Q 2506 1872 2764 1633 
Q 3022 1394 3022 966 
Q 3022 478 2636 193 
Q 2250 -91 1575 -91 
Q 1294 -91 989 -36 
Q 684 19 347 128 
L 347 722 
Q 666 556 975 473 
Q 1284 391 1588 391 
Q 1994 391 2212 530 
Q 2431 669 2431 922 
Q 2431 1156 2273 1281 
Q 2116 1406 1581 1522 
L 1381 1569 
Q 847 1681 609 1914 
Q 372 2147 372 2553 
Q 372 3047 722 3315 
Q 1072 3584 1716 3584 
Q 2034 3584 2315 3537 
Q 2597 3491 2834 3397 
z
" transform="scale(0.015625)"/>
       <path id="DejaVuSans-2c" d="M 750 794 
L 1409 794 
L 1409 256 
L 897 -744 
L 494 -744 
L 750 256 
L 750 794 
z
" transform="scale(0.015625)"/>
       <path id="DejaVuSans-29" d="M 513 4856 
L 1013 4856 
Q 1481 4119 1714 3412 
Q 1947 2706 1947 2009 
Q 1947 1309 1714 600 
Q 1481 -109 1013 -844 
L 513 -844 
Q 928 -128 1133 580 
Q 1338 1288 1338 2009 
Q 1338 2731 1133 3434 
Q 928 4138 513 4856 
z
" transform="scale(0.015625)"/>
      </defs>
      <use xlink:href="#DejaVuSans-Oblique-61" transform="translate(0 0.0625)"/>
      <use xlink:href="#DejaVuSans-30" transform="translate(61.279297 -16.34375) scale(0.7)"/>
      <use xlink:href="#DejaVuSans-36" transform="translate(105.81543 -16.34375) scale(0.7)"/>
      <use xlink:href="#DejaVuSans-28" transform="translate(153.085938 0.0625)"/>
      <use xlink:href="#DejaVuSans-Oblique-6c" transform="translate(192.099609 0.0625)"/>
      <use xlink:href="#DejaVuSans-70" transform="translate(227.330521 50.810938) scale(0.7)"/>
      <use xlink:href="#DejaVuSans-68" transform="translate(271.764115 50.810938) scale(0.7)"/>
      <use xlink:href="#DejaVuSans-79" transform="translate(316.129349 50.810938) scale(0.7)"/>
      <use xlink:href="#DejaVuSans-73" transform="translate(357.55513 50.810938) scale(0.7)"/>
      <use xlink:href="#DejaVuSans-Oblique-46" transform="translate(219.882812 -27.28125) scale(0.7)"/>
      <use xlink:href="#DejaVuSans-2c" transform="translate(396.759232 0.0625)"/>
      <use xlink:href="#DejaVuSans-Oblique-73" transform="translate(448.028763 0.0625)"/>
      <use xlink:href="#DejaVuSans-Oblique-46" transform="translate(500.128372 -16.34375) scale(0.7)"/>
      <use xlink:href="#DejaVuSans-29" transform="translate(543.126419 0.0625)"/>
     </g>
    </g>
    <g id="LineCollection_11">
     <path d="M 64.14375 41.3 
L 74.14375 41.3 
" style="fill: none; stroke: #51a7f9; stroke-width: 3"/>
    </g>
    <g id="LineCollection_12">
     <path d="M 69.14375 46.3 
L 69.14375 36.3 
" style="fill: none; stroke: #51a7f9; stroke-width: 3"/>
    </g>
    <g id="line2d_115">
     <path d="M 59.14375 41.3 
L 79.14375 41.3 
" style="fill: none; stroke: #51a7f9; stroke-width: 1.5; stroke-linecap: square"/>
    </g>
    <g id="line2d_116">
     <defs>
      <path id="me720ff760b" d="M 0 4 
C 1.060812 4 2.078319 3.578535 2.828427 2.828427 
C 3.578535 2.078319 4 1.060812 4 0 
C 4 -1.060812 3.578535 -2.078319 2.828427 -2.828427 
C 2.078319 -3.578535 1.060812 -4 0 -4 
C -1.060812 -4 -2.078319 -3.578535 -2.828427 -2.828427 
C -3.578535 -2.078319 -4 -1.060812 -4 0 
C -4 1.060812 -3.578535 2.078319 -2.828427 2.828427 
C -2.078319 3.578535 -1.060812 4 0 4 
z
" style="stroke: #ffffff; stroke-width: 2"/>
     </defs>
     <g>
      <use xlink:href="#me720ff760b" x="69.14375" y="41.3" style="fill: #51a7f9; stroke: #ffffff; stroke-width: 2"/>
     </g>
    </g>
    <g id="text_19">
     <!-- $a_{09}(l_F^{\rm phys},s_F)$ -->
     <g transform="translate(87.14375 44.8) scale(0.1 -0.1)">
      <defs>
       <path id="DejaVuSans-39" d="M 703 97 
L 703 672 
Q 941 559 1184 500 
Q 1428 441 1663 441 
Q 2288 441 2617 861 
Q 2947 1281 2994 2138 
Q 2813 1869 2534 1725 
Q 2256 1581 1919 1581 
Q 1219 1581 811 2004 
Q 403 2428 403 3163 
Q 403 3881 828 4315 
Q 1253 4750 1959 4750 
Q 2769 4750 3195 4129 
Q 3622 3509 3622 2328 
Q 3622 1225 3098 567 
Q 2575 -91 1691 -91 
Q 1453 -91 1209 -44 
Q 966 3 703 97 
z
M 1959 2075 
Q 2384 2075 2632 2365 
Q 2881 2656 2881 3163 
Q 2881 3666 2632 3958 
Q 2384 4250 1959 4250 
Q 1534 4250 1286 3958 
Q 1038 3666 1038 3163 
Q 1038 2656 1286 2365 
Q 1534 2075 1959 2075 
z
" transform="scale(0.015625)"/>
      </defs>
      <use xlink:href="#DejaVuSans-Oblique-61" transform="translate(0 0.0625)"/>
      <use xlink:href="#DejaVuSans-30" transform="translate(61.279297 -16.34375) scale(0.7)"/>
      <use xlink:href="#DejaVuSans-39" transform="translate(105.81543 -16.34375) scale(0.7)"/>
      <use xlink:href="#DejaVuSans-28" transform="translate(153.085938 0.0625)"/>
      <use xlink:href="#DejaVuSans-Oblique-6c" transform="translate(192.099609 0.0625)"/>
      <use xlink:href="#DejaVuSans-70" transform="translate(227.330521 50.810938) scale(0.7)"/>
      <use xlink:href="#DejaVuSans-68" transform="translate(271.764115 50.810938) scale(0.7)"/>
      <use xlink:href="#DejaVuSans-79" transform="translate(316.129349 50.810938) scale(0.7)"/>
      <use xlink:href="#DejaVuSans-73" transform="translate(357.55513 50.810938) scale(0.7)"/>
      <use xlink:href="#DejaVuSans-Oblique-46" transform="translate(219.882812 -27.28125) scale(0.7)"/>
      <use xlink:href="#DejaVuSans-2c" transform="translate(396.759232 0.0625)"/>
      <use xlink:href="#DejaVuSans-Oblique-73" transform="translate(448.028763 0.0625)"/>
      <use xlink:href="#DejaVuSans-Oblique-46" transform="translate(500.128372 -16.34375) scale(0.7)"/>
      <use xlink:href="#DejaVuSans-29" transform="translate(543.126419 0.0625)"/>
     </g>
    </g>
    <g id="LineCollection_13">
     <path d="M 170.44375 23.1 
L 180.44375 23.1 
" style="fill: none; stroke: #70bf41; stroke-width: 3"/>
    </g>
    <g id="LineCollection_14">
     <path d="M 175.44375 28.1 
L 175.44375 18.1 
" style="fill: none; stroke: #70bf41; stroke-width: 3"/>
    </g>
    <g id="line2d_117">
     <path d="M 165.44375 23.1 
L 185.44375 23.1 
" style="fill: none; stroke: #70bf41; stroke-width: 1.5; stroke-linecap: square"/>
    </g>
    <g id="line2d_118">
     <defs>
      <path id="m864afec366" d="M 0 4 
C 1.060812 4 2.078319 3.578535 2.828427 2.828427 
C 3.578535 2.078319 4 1.060812 4 0 
C 4 -1.060812 3.578535 -2.078319 2.828427 -2.828427 
C 2.078319 -3.578535 1.060812 -4 0 -4 
C -1.060812 -4 -2.078319 -3.578535 -2.828427 -2.828427 
C -3.578535 -2.078319 -4 -1.060812 -4 0 
C -4 1.060812 -3.578535 2.078319 -2.828427 2.828427 
C -2.078319 3.578535 -1.060812 4 0 4 
z
" style="stroke: #ffffff; stroke-width: 2"/>
     </defs>
     <g>
      <use xlink:href="#m864afec366" x="175.44375" y="23.1" style="fill: #70bf41; stroke: #ffffff; stroke-width: 2"/>
     </g>
    </g>
    <g id="text_20">
     <!-- $a_{12}(l_F^{\rm phys},s_F)$ -->
     <g transform="translate(193.44375 26.6) scale(0.1 -0.1)">
      <use xlink:href="#DejaVuSans-Oblique-61" transform="translate(0 0.0625)"/>
      <use xlink:href="#DejaVuSans-31" transform="translate(61.279297 -16.34375) scale(0.7)"/>
      <use xlink:href="#DejaVuSans-32" transform="translate(105.81543 -16.34375) scale(0.7)"/>
      <use xlink:href="#DejaVuSans-28" transform="translate(153.085938 0.0625)"/>
      <use xlink:href="#DejaVuSans-Oblique-6c" transform="translate(192.099609 0.0625)"/>
      <use xlink:href="#DejaVuSans-70" transform="translate(227.330521 50.810938) scale(0.7)"/>
      <use xlink:href="#DejaVuSans-68" transform="translate(271.764115 50.810938) scale(0.7)"/>
      <use xlink:href="#DejaVuSans-79" transform="translate(316.129349 50.810938) scale(0.7)"/>
      <use xlink:href="#DejaVuSans-73" transform="translate(357.55513 50.810938) scale(0.7)"/>
      <use xlink:href="#DejaVuSans-Oblique-46" transform="translate(219.882812 -27.28125) scale(0.7)"/>
      <use xlink:href="#DejaVuSans-2c" transform="translate(396.759232 0.0625)"/>
      <use xlink:href="#DejaVuSans-Oblique-73" transform="translate(448.028763 0.0625)"/>
      <use xlink:href="#DejaVuSans-Oblique-46" transform="translate(500.128372 -16.34375) scale(0.7)"/>
      <use xlink:href="#DejaVuSans-29" transform="translate(543.126419 0.0625)"/>
     </g>
    </g>
    <g id="LineCollection_15">
     <path d="M 170.44375 41.3 
L 180.44375 41.3 
" style="fill: none; stroke: #ec5d57; stroke-width: 3"/>
    </g>
    <g id="LineCollection_16">
     <path d="M 175.44375 46.3 
L 175.44375 36.3 
" style="fill: none; stroke: #ec5d57; stroke-width: 3"/>
    </g>
    <g id="line2d_119">
     <path d="M 165.44375 41.3 
L 185.44375 41.3 
" style="fill: none; stroke: #ec5d57; stroke-width: 1.5; stroke-linecap: square"/>
    </g>
    <g id="line2d_120">
     <defs>
      <path id="mf73f4e6c8d" d="M 0 4 
C 1.060812 4 2.078319 3.578535 2.828427 2.828427 
C 3.578535 2.078319 4 1.060812 4 0 
C 4 -1.060812 3.578535 -2.078319 2.828427 -2.828427 
C 2.078319 -3.578535 1.060812 -4 0 -4 
C -1.060812 -4 -2.078319 -3.578535 -2.828427 -2.828427 
C -3.578535 -2.078319 -4 -1.060812 -4 0 
C -4 1.060812 -3.578535 2.078319 -2.828427 2.828427 
C -2.078319 3.578535 -1.060812 4 0 4 
z
" style="stroke: #ffffff; stroke-width: 2"/>
     </defs>
     <g>
      <use xlink:href="#mf73f4e6c8d" x="175.44375" y="41.3" style="fill: #ec5d57; stroke: #ffffff; stroke-width: 2"/>
     </g>
    </g>
    <g id="text_21">
     <!-- $a_{15}(l_F^{\rm phys},s_F)$ -->
     <g transform="translate(193.44375 44.8) scale(0.1 -0.1)">
      <use xlink:href="#DejaVuSans-Oblique-61" transform="translate(0 0.0625)"/>
      <use xlink:href="#DejaVuSans-31" transform="translate(61.279297 -16.34375) scale(0.7)"/>
      <use xlink:href="#DejaVuSans-35" transform="translate(105.81543 -16.34375) scale(0.7)"/>
      <use xlink:href="#DejaVuSans-28" transform="translate(153.085938 0.0625)"/>
      <use xlink:href="#DejaVuSans-Oblique-6c" transform="translate(192.099609 0.0625)"/>
      <use xlink:href="#DejaVuSans-70" transform="translate(227.330521 50.810938) scale(0.7)"/>
      <use xlink:href="#DejaVuSans-68" transform="translate(271.764115 50.810938) scale(0.7)"/>
      <use xlink:href="#DejaVuSans-79" transform="translate(316.129349 50.810938) scale(0.7)"/>
      <use xlink:href="#DejaVuSans-73" transform="translate(357.55513 50.810938) scale(0.7)"/>
      <use xlink:href="#DejaVuSans-Oblique-46" transform="translate(219.882812 -27.28125) scale(0.7)"/>
      <use xlink:href="#DejaVuSans-2c" transform="translate(396.759232 0.0625)"/>
      <use xlink:href="#DejaVuSans-Oblique-73" transform="translate(448.028763 0.0625)"/>
      <use xlink:href="#DejaVuSans-Oblique-46" transform="translate(500.128372 -16.34375) scale(0.7)"/>
      <use xlink:href="#DejaVuSans-29" transform="translate(543.126419 0.0625)"/>
     </g>
    </g>
   </g>
  </g>
 </g>
 <defs>
  <clipPath id="p467b758ecf">
   <rect x="50.14375" y="7.2" width="391.68" height="293.76"/>
  </clipPath>
 </defs>
 <defs>
  <pattern id="h8a318c13cb" patternUnits="userSpaceOnUse" x="0" y="0" width="72" height="72">
   <rect x="0" y="0" width="73" height="73" fill="none"/>
   <path d="M -36 36 
L 36 -36 
M -24 48 
L 48 -24 
M -12 60 
L 60 -12 
M 0 72 
L 72 0 
M 12 84 
L 84 12 
M 24 96 
L 96 24 
M 36 108 
L 108 36 
" style="fill: #000000; stroke: #000000; stroke-width: 1.0; stroke-linecap: butt; stroke-linejoin: miter; stroke-opacity: 0.6"/>
  </pattern>
 </defs>
</svg>
