<?xml version="1.0" encoding="utf-8" standalone="no"?>
<!DOCTYPE svg PUBLIC "-//W3C//DTD SVG 1.1//EN"
  "http://www.w3.org/Graphics/SVG/1.1/DTD/svg11.dtd">
<svg xmlns:xlink="http://www.w3.org/1999/xlink" width="453.945625pt" height="340.738125pt" viewBox="0 0 453.945625 340.738125" xmlns="http://www.w3.org/2000/svg" version="1.1">
 <metadata>
  <rdf:RDF xmlns:dc="http://purl.org/dc/elements/1.1/" xmlns:cc="http://creativecommons.org/ns#" xmlns:rdf="http://www.w3.org/1999/02/22-rdf-syntax-ns#">
   <cc:Work>
    <dc:type rdf:resource="http://purl.org/dc/dcmitype/StillImage"/>
    <dc:date>2025-03-01T16:24:57.252054</dc:date>
    <dc:format>image/svg+xml</dc:format>
    <dc:creator>
     <cc:Agent>
      <dc:title>Matplotlib v3.10.0, https://matplotlib.org/</dc:title>
     </cc:Agent>
    </dc:creator>
   </cc:Work>
  </rdf:RDF>
 </metadata>
 <defs>
  <style type="text/css">*{stroke-linejoin: round; stroke-linecap: butt}</style>
 </defs>
 <g id="figure_1">
  <g id="patch_1">
   <path d="M 0 340.738125 
L 453.945625 340.738125 
L 453.945625 0 
L 0 0 
z
" style="fill: #ffffff"/>
  </g>
  <g id="axes_1">
   <g id="patch_2">
    <path d="M 55.065625 300.96 
L 446.745625 300.96 
L 446.745625 7.2 
L 55.065625 7.2 
z
" style="fill: #ffffff"/>
   </g>
   <g id="FillBetweenPolyCollection_1">
    <path d="M 74.743531 233.081007 
L 74.743531 287.607273 
L 81.921139 284.13092 
L 89.098747 280.689259 
L 96.276355 277.282162 
L 103.453963 273.909506 
L 110.63157 270.571169 
L 117.809178 267.267038 
L 124.986786 263.997005 
L 132.164394 260.760969 
L 139.342002 257.558839 
L 146.51961 254.390535 
L 153.697218 251.255989 
L 160.874826 248.155148 
L 168.052433 245.087974 
L 175.230041 242.054449 
L 182.407649 239.054576 
L 189.585257 236.088385 
L 196.762865 233.155931 
L 203.940473 230.257304 
L 211.118081 227.392632 
L 218.295689 224.562085 
L 225.473296 221.765884 
L 232.650904 219.004311 
L 239.828512 216.277711 
L 247.00612 213.586513 
L 254.183728 210.931238 
L 261.361336 208.312517 
L 268.538944 205.731111 
L 275.716552 203.187935 
L 282.894159 200.684087 
L 290.071767 198.22088 
L 297.249375 195.79989 
L 304.426983 193.422996 
L 311.604591 191.092444 
L 318.782199 188.810913 
L 325.959807 186.581582 
L 333.137415 184.408214 
L 340.315022 182.295228 
L 347.49263 180.247762 
L 354.670238 178.271698 
L 361.847846 176.37364 
L 369.025454 174.560784 
L 376.203062 172.840687 
L 383.38067 171.220875 
L 390.558278 169.70834 
L 397.735885 168.308964 
L 404.913493 167.02699 
L 412.091101 165.864662 
L 419.268709 164.822126 
L 426.446317 163.897617 
L 426.446317 146.170541 
L 426.446317 146.170541 
L 419.268709 147.703713 
L 412.091101 149.201856 
L 404.913493 150.662802 
L 397.735885 152.086295 
L 390.558278 153.474178 
L 383.38067 154.830291 
L 376.203062 156.160114 
L 369.025454 157.470234 
L 361.847846 158.767779 
L 354.670238 160.0599 
L 347.49263 161.353394 
L 340.315022 162.65446 
L 333.137415 163.968579 
L 325.959807 165.300487 
L 318.782199 166.654199 
L 311.604591 168.033077 
L 304.426983 169.439899 
L 297.249375 170.876939 
L 290.071767 172.346042 
L 282.894159 173.848685 
L 275.716552 175.386041 
L 268.538944 176.959022 
L 261.361336 178.568322 
L 254.183728 180.214455 
L 247.00612 181.89778 
L 239.828512 183.618524 
L 232.650904 185.376807 
L 225.473296 187.172654 
L 218.295689 189.006011 
L 211.118081 190.876755 
L 203.940473 192.784705 
L 196.762865 194.729629 
L 189.585257 196.711254 
L 182.407649 198.729265 
L 175.230041 200.783318 
L 168.052433 202.873039 
L 160.874826 204.998028 
L 153.697218 207.157865 
L 146.51961 209.352111 
L 139.342002 211.580309 
L 132.164394 213.84199 
L 124.986786 216.136672 
L 117.809178 218.463859 
L 110.63157 220.823051 
L 103.453963 223.213737 
L 96.276355 225.635399 
L 89.098747 228.087517 
L 81.921139 230.569563 
L 74.743531 233.081007 
z
" clip-path="url(#pec0ad39cac)" style="fill: url(#h44316b0264); stroke: #000000; stroke-opacity: 0.6"/>
   </g>
   <g id="FillBetweenPolyCollection_2">
    <defs>
     <path id="mec3d232fdf" d="M 74.743531 -178.770625 
L 74.743531 -138.313039 
L 81.921139 -142.862965 
L 89.098747 -147.371044 
L 96.276355 -151.837468 
L 103.453963 -156.262442 
L 110.63157 -160.646193 
L 117.809178 -164.988964 
L 124.986786 -169.291017 
L 132.164394 -173.552628 
L 139.342002 -177.774091 
L 146.51961 -181.955712 
L 153.697218 -186.097812 
L 160.874826 -190.200724 
L 168.052433 -194.264791 
L 175.230041 -198.290366 
L 182.407649 -202.277809 
L 189.585257 -206.227486 
L 196.762865 -210.139769 
L 203.940473 -214.01503 
L 211.118081 -217.853644 
L 218.295689 -221.655982 
L 225.473296 -225.422415 
L 232.650904 -229.153305 
L 239.828512 -232.849007 
L 247.00612 -236.509867 
L 254.183728 -240.136216 
L 261.361336 -243.728367 
L 268.538944 -247.286616 
L 275.716552 -250.811231 
L 282.894159 -254.302451 
L 290.071767 -257.760479 
L 297.249375 -261.185473 
L 304.426983 -264.577533 
L 311.604591 -267.93669 
L 318.782199 -271.262886 
L 325.959807 -274.555942 
L 333.137415 -277.815528 
L 340.315022 -281.041098 
L 347.49263 -284.231816 
L 354.670238 -287.386427 
L 361.847846 -290.503074 
L 369.025454 -293.578994 
L 376.203062 -296.610057 
L 383.38067 -299.590009 
L 390.558278 -302.509297 
L 397.735885 -305.353371 
L 404.913493 -308.100746 
L 412.091101 -310.722465 
L 419.268709 -313.186827 
L 426.446317 -315.471861 
L 426.446317 -320.185398 
L 426.446317 -320.185398 
L 419.268709 -317.783289 
L 412.091101 -315.478607 
L 404.913493 -313.249784 
L 397.735885 -311.065521 
L 390.558278 -308.897263 
L 383.38067 -306.723927 
L 376.203062 -304.531364 
L 369.025454 -302.310427 
L 361.847846 -300.055262 
L 354.670238 -297.76214 
L 347.49263 -295.428703 
L 340.315022 -293.053495 
L 333.137415 -290.635663 
L 325.959807 -288.174773 
L 318.782199 -285.670684 
L 311.604591 -283.123464 
L 304.426983 -280.533339 
L 297.249375 -277.900653 
L 290.071767 -275.225839 
L 282.894159 -272.5094 
L 275.716552 -269.751895 
L 268.538944 -266.95393 
L 261.361336 -264.116146 
L 254.183728 -261.239215 
L 247.00612 -258.323832 
L 239.828512 -255.370715 
L 232.650904 -252.380597 
L 225.473296 -249.354225 
L 218.295689 -246.292357 
L 211.118081 -243.195758 
L 203.940473 -240.065199 
L 196.762865 -236.901456 
L 189.585257 -233.705305 
L 182.407649 -230.477521 
L 175.230041 -227.218877 
L 168.052433 -223.930143 
L 160.874826 -220.612079 
L 153.697218 -217.265443 
L 146.51961 -213.890978 
L 139.342002 -210.489421 
L 132.164394 -207.061494 
L 124.986786 -203.607906 
L 117.809178 -200.129353 
L 110.63157 -196.626513 
L 103.453963 -193.100052 
L 96.276355 -189.550613 
L 89.098747 -185.978825 
L 81.921139 -182.385299 
L 74.743531 -178.770625 
z
" style="stroke: #ec5d57; stroke-opacity: 0.4"/>
    </defs>
    <g clip-path="url(#pec0ad39cac)">
     <use xlink:href="#mec3d232fdf" x="0" y="340.738125" style="fill: #ec5d57; fill-opacity: 0.4; stroke: #ec5d57; stroke-opacity: 0.4"/>
    </g>
   </g>
   <g id="FillBetweenPolyCollection_3">
    <defs>
     <path id="mfd7af91438" d="M 74.743531 -164.947345 
L 74.743531 -136.836883 
L 81.921139 -140.943802 
L 89.098747 -145.007494 
L 96.276355 -149.028316 
L 103.453963 -153.006656 
L 110.63157 -156.942936 
L 117.809178 -160.837605 
L 124.986786 -164.69114 
L 132.164394 -168.504044 
L 139.342002 -172.276839 
L 146.51961 -176.010066 
L 153.697218 -179.704284 
L 160.874826 -183.360058 
L 168.052433 -186.977967 
L 175.230041 -190.558589 
L 182.407649 -194.102508 
L 189.585257 -197.610302 
L 196.762865 -201.082543 
L 203.940473 -204.519795 
L 211.118081 -207.92261 
L 218.295689 -211.29152 
L 225.473296 -214.627044 
L 232.650904 -217.929674 
L 239.828512 -221.199879 
L 247.00612 -224.4381 
L 254.183728 -227.644745 
L 261.361336 -230.820184 
L 268.538944 -233.96475 
L 275.716552 -237.078723 
L 282.894159 -240.162331 
L 290.071767 -243.215732 
L 297.249375 -246.239004 
L 304.426983 -249.232119 
L 311.604591 -252.194914 
L 318.782199 -255.127047 
L 325.959807 -258.027922 
L 333.137415 -260.896587 
L 340.315022 -263.731558 
L 347.49263 -266.530544 
L 354.670238 -269.289977 
L 361.847846 -272.004224 
L 369.025454 -274.664258 
L 376.203062 -277.25554 
L 383.38067 -279.755316 
L 390.558278 -282.131559 
L 397.735885 -284.349733 
L 404.913493 -286.390479 
L 412.091101 -288.261899 
L 419.268709 -289.989751 
L 426.446317 -291.600426 
L 426.446317 -297.250981 
L 426.446317 -297.250981 
L 419.268709 -294.82529 
L 412.091101 -292.43455 
L 404.913493 -290.105555 
L 397.735885 -287.864464 
L 390.558278 -285.719784 
L 383.38067 -283.652556 
L 376.203062 -281.628647 
L 369.025454 -279.616433 
L 361.847846 -277.593561 
L 354.670238 -275.545896 
L 347.49263 -273.464811 
L 340.315022 -271.345077 
L 333.137415 -269.183529 
L 325.959807 -266.978276 
L 318.782199 -264.728238 
L 311.604591 -262.432863 
L 304.426983 -260.091961 
L 297.249375 -257.705589 
L 290.071767 -255.273988 
L 282.894159 -252.797532 
L 275.716552 -250.276701 
L 268.538944 -247.712056 
L 261.361336 -245.104226 
L 254.183728 -242.453896 
L 247.00612 -239.761797 
L 239.828512 -237.028704 
L 232.650904 -234.255428 
L 225.473296 -231.442811 
L 218.295689 -228.591723 
L 211.118081 -225.703062 
L 203.940473 -222.777745 
L 196.762865 -219.81671 
L 189.585257 -216.82091 
L 182.407649 -213.791309 
L 175.230041 -210.728885 
L 168.052433 -207.634616 
L 160.874826 -204.509489 
L 153.697218 -201.354484 
L 146.51961 -198.170582 
L 139.342002 -194.958752 
L 132.164394 -191.719953 
L 124.986786 -188.45513 
L 117.809178 -185.165206 
L 110.63157 -181.851087 
L 103.453963 -178.513652 
L 96.276355 -175.153753 
L 89.098747 -171.772213 
L 81.921139 -168.369824 
L 74.743531 -164.947345 
z
" style="stroke: #70bf41; stroke-opacity: 0.4"/>
    </defs>
    <g clip-path="url(#pec0ad39cac)">
     <use xlink:href="#mfd7af91438" x="0" y="340.738125" style="fill: #70bf41; fill-opacity: 0.4; stroke: #70bf41; stroke-opacity: 0.4"/>
    </g>
   </g>
   <g id="FillBetweenPolyCollection_4">
    <defs>
     <path id="m34c2c64dbf" d="M 74.743531 -145.659703 
L 74.743531 -114.279575 
L 81.921139 -118.046751 
L 89.098747 -121.774489 
L 96.276355 -125.463183 
L 103.453963 -129.113239 
L 110.63157 -132.725077 
L 117.809178 -136.299126 
L 124.986786 -139.835824 
L 132.164394 -143.335612 
L 139.342002 -146.798939 
L 146.51961 -150.226252 
L 153.697218 -153.617998 
L 160.874826 -156.97462 
L 168.052433 -160.296555 
L 175.230041 -163.584235 
L 182.407649 -166.838078 
L 189.585257 -170.058492 
L 196.762865 -173.24587 
L 203.940473 -176.400587 
L 211.118081 -179.522998 
L 218.295689 -182.613438 
L 225.473296 -185.672213 
L 232.650904 -188.699603 
L 239.828512 -191.695854 
L 247.00612 -194.661173 
L 254.183728 -197.595724 
L 261.361336 -200.499616 
L 268.538944 -203.372899 
L 275.716552 -206.215544 
L 282.894159 -209.027429 
L 290.071767 -211.808312 
L 297.249375 -214.557796 
L 304.426983 -217.275282 
L 311.604591 -219.959899 
L 318.782199 -222.610401 
L 325.959807 -225.225021 
L 333.137415 -227.801244 
L 340.315022 -230.335481 
L 347.49263 -232.822562 
L 354.670238 -235.255012 
L 361.847846 -237.622057 
L 369.025454 -239.908508 
L 376.203062 -242.094166 
L 383.38067 -244.155275 
L 390.558278 -246.069832 
L 397.735885 -247.825682 
L 404.913493 -249.425325 
L 412.091101 -250.882795 
L 419.268709 -252.216196 
L 426.446317 -253.442064 
L 426.446317 -261.562181 
L 426.446317 -261.562181 
L 419.268709 -259.41261 
L 412.091101 -257.288021 
L 404.913493 -255.205353 
L 397.735885 -253.18311 
L 390.558278 -251.23573 
L 383.38067 -249.366116 
L 376.203062 -247.562512 
L 369.025454 -245.803321 
L 361.847846 -244.065187 
L 354.670238 -242.328314 
L 347.49263 -240.577916 
L 340.315022 -238.80362 
L 333.137415 -236.998354 
L 325.959807 -235.157351 
L 318.782199 -233.277423 
L 311.604591 -231.356458 
L 304.426983 -229.39309 
L 297.249375 -227.386478 
L 290.071767 -225.336151 
L 282.894159 -223.241912 
L 275.716552 -221.103769 
L 268.538944 -218.92188 
L 261.361336 -216.696525 
L 254.183728 -214.42808 
L 247.00612 -212.116993 
L 239.828512 -209.763779 
L 232.650904 -207.369003 
L 225.473296 -204.933275 
L 218.295689 -202.457242 
L 211.118081 -199.941586 
L 203.940473 -197.387018 
L 196.762865 -194.794272 
L 189.585257 -192.164107 
L 182.407649 -189.497301 
L 175.230041 -186.794648 
L 168.052433 -184.056958 
L 160.874826 -181.285053 
L 153.697218 -178.479765 
L 146.51961 -175.641935 
L 139.342002 -172.772408 
L 132.164394 -169.872033 
L 124.986786 -166.94166 
L 117.809178 -163.982139 
L 110.63157 -160.994314 
L 103.453963 -157.979026 
L 96.276355 -154.937105 
L 89.098747 -151.869374 
L 81.921139 -148.776642 
L 74.743531 -145.659703 
z
" style="stroke: #51a7f9; stroke-opacity: 0.4"/>
    </defs>
    <g clip-path="url(#pec0ad39cac)">
     <use xlink:href="#m34c2c64dbf" x="0" y="340.738125" style="fill: #51a7f9; fill-opacity: 0.4; stroke: #51a7f9; stroke-opacity: 0.4"/>
    </g>
   </g>
   <g id="FillBetweenPolyCollection_5">
    <defs>
     <path id="m8ccf3613ca" d="M 74.743531 -127.336114 
L 74.743531 -85.091031 
L 81.921139 -88.688499 
L 89.098747 -92.249813 
L 96.276355 -95.775227 
L 103.453963 -99.264993 
L 110.63157 -102.719369 
L 117.809178 -106.13861 
L 124.986786 -109.522969 
L 132.164394 -112.872699 
L 139.342002 -116.188047 
L 146.51961 -119.469255 
L 153.697218 -122.716558 
L 160.874826 -125.930182 
L 168.052433 -129.110346 
L 175.230041 -132.257253 
L 182.407649 -135.371094 
L 189.585257 -138.452043 
L 196.762865 -141.500255 
L 203.940473 -144.515864 
L 211.118081 -147.498978 
L 218.295689 -150.449675 
L 225.473296 -153.367999 
L 232.650904 -156.253954 
L 239.828512 -159.107497 
L 247.00612 -161.928528 
L 254.183728 -164.716881 
L 261.361336 -167.47231 
L 268.538944 -170.19447 
L 275.716552 -172.882897 
L 282.894159 -175.536979 
L 290.071767 -178.155922 
L 297.249375 -180.738699 
L 304.426983 -183.28399 
L 311.604591 -185.790104 
L 318.782199 -188.254867 
L 325.959807 -190.675494 
L 333.137415 -193.048405 
L 340.315022 -195.369009 
L 347.49263 -197.631444 
L 354.670238 -199.828302 
L 361.847846 -201.950396 
L 369.025454 -203.986703 
L 376.203062 -205.92468 
L 383.38067 -207.751199 
L 390.558278 -209.454181 
L 397.735885 -211.024653 
L 404.913493 -212.458458 
L 412.091101 -213.756793 
L 419.268709 -214.925318 
L 426.446317 -215.972399 
L 426.446317 -227.657699 
L 426.446317 -227.657699 
L 419.268709 -225.822096 
L 412.091101 -224.025147 
L 404.913493 -222.275617 
L 397.735885 -220.57957 
L 390.558278 -218.938605 
L 383.38067 -217.348967 
L 376.203062 -215.802086 
L 369.025454 -214.286285 
L 361.847846 -212.788838 
L 354.670238 -211.297604 
L 347.49263 -209.801963 
L 340.315022 -208.29313 
L 333.137415 -206.764098 
L 325.959807 -205.20941 
L 318.782199 -203.624875 
L 311.604591 -202.007317 
L 304.426983 -200.354352 
L 297.249375 -198.664209 
L 290.071767 -196.935598 
L 282.894159 -195.167603 
L 275.716552 -193.3596 
L 268.538944 -191.511194 
L 261.361336 -189.622178 
L 254.183728 -187.692489 
L 247.00612 -185.722185 
L 239.828512 -183.711423 
L 232.650904 -181.660437 
L 225.473296 -179.569531 
L 218.295689 -177.439065 
L 211.118081 -175.269443 
L 203.940473 -173.061113 
L 196.762865 -170.814554 
L 189.585257 -168.530279 
L 182.407649 -166.208821 
L 175.230041 -163.850739 
L 168.052433 -161.456609 
L 160.874826 -159.027024 
L 153.697218 -156.562591 
L 146.51961 -154.063929 
L 139.342002 -151.531666 
L 132.164394 -148.966442 
L 124.986786 -146.368899 
L 117.809178 -143.739688 
L 110.63157 -141.079462 
L 103.453963 -138.388878 
L 96.276355 -135.668594 
L 89.098747 -132.919268 
L 81.921139 -130.141556 
L 74.743531 -127.336114 
z
" style="stroke: #6a5acd; stroke-opacity: 0.4"/>
    </defs>
    <g clip-path="url(#pec0ad39cac)">
     <use xlink:href="#m8ccf3613ca" x="0" y="340.738125" style="fill: #6a5acd; fill-opacity: 0.4; stroke: #6a5acd; stroke-opacity: 0.4"/>
    </g>
   </g>
   <g id="matplotlib.axis_1">
    <g id="xtick_1">
     <g id="line2d_1">
      <defs>
       <path id="m5699a36939" d="M 0 0 
L 0 3.5 
" style="stroke: #000000; stroke-width: 0.8"/>
      </defs>
      <g>
       <use xlink:href="#m5699a36939" x="74.673104" y="300.96" style="stroke: #000000; stroke-width: 0.8"/>
      </g>
     </g>
     <g id="text_1">
      <!-- 0.20 -->
      <g transform="translate(63.540292 315.558437) scale(0.1 -0.1)">
       <defs>
        <path id="DejaVuSans-30" d="M 2034 4250 
Q 1547 4250 1301 3770 
Q 1056 3291 1056 2328 
Q 1056 1369 1301 889 
Q 1547 409 2034 409 
Q 2525 409 2770 889 
Q 3016 1369 3016 2328 
Q 3016 3291 2770 3770 
Q 2525 4250 2034 4250 
z
M 2034 4750 
Q 2819 4750 3233 4129 
Q 3647 3509 3647 2328 
Q 3647 1150 3233 529 
Q 2819 -91 2034 -91 
Q 1250 -91 836 529 
Q 422 1150 422 2328 
Q 422 3509 836 4129 
Q 1250 4750 2034 4750 
z
" transform="scale(0.015625)"/>
        <path id="DejaVuSans-2e" d="M 684 794 
L 1344 794 
L 1344 0 
L 684 0 
L 684 794 
z
" transform="scale(0.015625)"/>
        <path id="DejaVuSans-32" d="M 1228 531 
L 3431 531 
L 3431 0 
L 469 0 
L 469 531 
Q 828 903 1448 1529 
Q 2069 2156 2228 2338 
Q 2531 2678 2651 2914 
Q 2772 3150 2772 3378 
Q 2772 3750 2511 3984 
Q 2250 4219 1831 4219 
Q 1534 4219 1204 4116 
Q 875 4013 500 3803 
L 500 4441 
Q 881 4594 1212 4672 
Q 1544 4750 1819 4750 
Q 2544 4750 2975 4387 
Q 3406 4025 3406 3419 
Q 3406 3131 3298 2873 
Q 3191 2616 2906 2266 
Q 2828 2175 2409 1742 
Q 1991 1309 1228 531 
z
" transform="scale(0.015625)"/>
       </defs>
       <use xlink:href="#DejaVuSans-30"/>
       <use xlink:href="#DejaVuSans-2e" transform="translate(63.623047 0)"/>
       <use xlink:href="#DejaVuSans-32" transform="translate(95.410156 0)"/>
       <use xlink:href="#DejaVuSans-30" transform="translate(159.033203 0)"/>
      </g>
     </g>
    </g>
    <g id="xtick_2">
     <g id="line2d_2">
      <g>
       <use xlink:href="#m5699a36939" x="118.400859" y="300.96" style="stroke: #000000; stroke-width: 0.8"/>
      </g>
     </g>
     <g id="text_2">
      <!-- 0.22 -->
      <g transform="translate(107.268046 315.558437) scale(0.1 -0.1)">
       <use xlink:href="#DejaVuSans-30"/>
       <use xlink:href="#DejaVuSans-2e" transform="translate(63.623047 0)"/>
       <use xlink:href="#DejaVuSans-32" transform="translate(95.410156 0)"/>
       <use xlink:href="#DejaVuSans-32" transform="translate(159.033203 0)"/>
      </g>
     </g>
    </g>
    <g id="xtick_3">
     <g id="line2d_3">
      <g>
       <use xlink:href="#m5699a36939" x="162.128613" y="300.96" style="stroke: #000000; stroke-width: 0.8"/>
      </g>
     </g>
     <g id="text_3">
      <!-- 0.24 -->
      <g transform="translate(150.995801 315.558437) scale(0.1 -0.1)">
       <defs>
        <path id="DejaVuSans-34" d="M 2419 4116 
L 825 1625 
L 2419 1625 
L 2419 4116 
z
M 2253 4666 
L 3047 4666 
L 3047 1625 
L 3713 1625 
L 3713 1100 
L 3047 1100 
L 3047 0 
L 2419 0 
L 2419 1100 
L 313 1100 
L 313 1709 
L 2253 4666 
z
" transform="scale(0.015625)"/>
       </defs>
       <use xlink:href="#DejaVuSans-30"/>
       <use xlink:href="#DejaVuSans-2e" transform="translate(63.623047 0)"/>
       <use xlink:href="#DejaVuSans-32" transform="translate(95.410156 0)"/>
       <use xlink:href="#DejaVuSans-34" transform="translate(159.033203 0)"/>
      </g>
     </g>
    </g>
    <g id="xtick_4">
     <g id="line2d_4">
      <g>
       <use xlink:href="#m5699a36939" x="205.856368" y="300.96" style="stroke: #000000; stroke-width: 0.8"/>
      </g>
     </g>
     <g id="text_4">
      <!-- 0.26 -->
      <g transform="translate(194.723555 315.558437) scale(0.1 -0.1)">
       <defs>
        <path id="DejaVuSans-36" d="M 2113 2584 
Q 1688 2584 1439 2293 
Q 1191 2003 1191 1497 
Q 1191 994 1439 701 
Q 1688 409 2113 409 
Q 2538 409 2786 701 
Q 3034 994 3034 1497 
Q 3034 2003 2786 2293 
Q 2538 2584 2113 2584 
z
M 3366 4563 
L 3366 3988 
Q 3128 4100 2886 4159 
Q 2644 4219 2406 4219 
Q 1781 4219 1451 3797 
Q 1122 3375 1075 2522 
Q 1259 2794 1537 2939 
Q 1816 3084 2150 3084 
Q 2853 3084 3261 2657 
Q 3669 2231 3669 1497 
Q 3669 778 3244 343 
Q 2819 -91 2113 -91 
Q 1303 -91 875 529 
Q 447 1150 447 2328 
Q 447 3434 972 4092 
Q 1497 4750 2381 4750 
Q 2619 4750 2861 4703 
Q 3103 4656 3366 4563 
z
" transform="scale(0.015625)"/>
       </defs>
       <use xlink:href="#DejaVuSans-30"/>
       <use xlink:href="#DejaVuSans-2e" transform="translate(63.623047 0)"/>
       <use xlink:href="#DejaVuSans-32" transform="translate(95.410156 0)"/>
       <use xlink:href="#DejaVuSans-36" transform="translate(159.033203 0)"/>
      </g>
     </g>
    </g>
    <g id="xtick_5">
     <g id="line2d_5">
      <g>
       <use xlink:href="#m5699a36939" x="249.584122" y="300.96" style="stroke: #000000; stroke-width: 0.8"/>
      </g>
     </g>
     <g id="text_5">
      <!-- 0.28 -->
      <g transform="translate(238.451309 315.558437) scale(0.1 -0.1)">
       <defs>
        <path id="DejaVuSans-38" d="M 2034 2216 
Q 1584 2216 1326 1975 
Q 1069 1734 1069 1313 
Q 1069 891 1326 650 
Q 1584 409 2034 409 
Q 2484 409 2743 651 
Q 3003 894 3003 1313 
Q 3003 1734 2745 1975 
Q 2488 2216 2034 2216 
z
M 1403 2484 
Q 997 2584 770 2862 
Q 544 3141 544 3541 
Q 544 4100 942 4425 
Q 1341 4750 2034 4750 
Q 2731 4750 3128 4425 
Q 3525 4100 3525 3541 
Q 3525 3141 3298 2862 
Q 3072 2584 2669 2484 
Q 3125 2378 3379 2068 
Q 3634 1759 3634 1313 
Q 3634 634 3220 271 
Q 2806 -91 2034 -91 
Q 1263 -91 848 271 
Q 434 634 434 1313 
Q 434 1759 690 2068 
Q 947 2378 1403 2484 
z
M 1172 3481 
Q 1172 3119 1398 2916 
Q 1625 2713 2034 2713 
Q 2441 2713 2670 2916 
Q 2900 3119 2900 3481 
Q 2900 3844 2670 4047 
Q 2441 4250 2034 4250 
Q 1625 4250 1398 4047 
Q 1172 3844 1172 3481 
z
" transform="scale(0.015625)"/>
       </defs>
       <use xlink:href="#DejaVuSans-30"/>
       <use xlink:href="#DejaVuSans-2e" transform="translate(63.623047 0)"/>
       <use xlink:href="#DejaVuSans-32" transform="translate(95.410156 0)"/>
       <use xlink:href="#DejaVuSans-38" transform="translate(159.033203 0)"/>
      </g>
     </g>
    </g>
    <g id="xtick_6">
     <g id="line2d_6">
      <g>
       <use xlink:href="#m5699a36939" x="293.311876" y="300.96" style="stroke: #000000; stroke-width: 0.8"/>
      </g>
     </g>
     <g id="text_6">
      <!-- 0.30 -->
      <g transform="translate(282.179064 315.558437) scale(0.1 -0.1)">
       <defs>
        <path id="DejaVuSans-33" d="M 2597 2516 
Q 3050 2419 3304 2112 
Q 3559 1806 3559 1356 
Q 3559 666 3084 287 
Q 2609 -91 1734 -91 
Q 1441 -91 1130 -33 
Q 819 25 488 141 
L 488 750 
Q 750 597 1062 519 
Q 1375 441 1716 441 
Q 2309 441 2620 675 
Q 2931 909 2931 1356 
Q 2931 1769 2642 2001 
Q 2353 2234 1838 2234 
L 1294 2234 
L 1294 2753 
L 1863 2753 
Q 2328 2753 2575 2939 
Q 2822 3125 2822 3475 
Q 2822 3834 2567 4026 
Q 2313 4219 1838 4219 
Q 1578 4219 1281 4162 
Q 984 4106 628 3988 
L 628 4550 
Q 988 4650 1302 4700 
Q 1616 4750 1894 4750 
Q 2613 4750 3031 4423 
Q 3450 4097 3450 3541 
Q 3450 3153 3228 2886 
Q 3006 2619 2597 2516 
z
" transform="scale(0.015625)"/>
       </defs>
       <use xlink:href="#DejaVuSans-30"/>
       <use xlink:href="#DejaVuSans-2e" transform="translate(63.623047 0)"/>
       <use xlink:href="#DejaVuSans-33" transform="translate(95.410156 0)"/>
       <use xlink:href="#DejaVuSans-30" transform="translate(159.033203 0)"/>
      </g>
     </g>
    </g>
    <g id="xtick_7">
     <g id="line2d_7">
      <g>
       <use xlink:href="#m5699a36939" x="337.039631" y="300.96" style="stroke: #000000; stroke-width: 0.8"/>
      </g>
     </g>
     <g id="text_7">
      <!-- 0.32 -->
      <g transform="translate(325.906818 315.558437) scale(0.1 -0.1)">
       <use xlink:href="#DejaVuSans-30"/>
       <use xlink:href="#DejaVuSans-2e" transform="translate(63.623047 0)"/>
       <use xlink:href="#DejaVuSans-33" transform="translate(95.410156 0)"/>
       <use xlink:href="#DejaVuSans-32" transform="translate(159.033203 0)"/>
      </g>
     </g>
    </g>
    <g id="xtick_8">
     <g id="line2d_8">
      <g>
       <use xlink:href="#m5699a36939" x="380.767385" y="300.96" style="stroke: #000000; stroke-width: 0.8"/>
      </g>
     </g>
     <g id="text_8">
      <!-- 0.34 -->
      <g transform="translate(369.634573 315.558437) scale(0.1 -0.1)">
       <use xlink:href="#DejaVuSans-30"/>
       <use xlink:href="#DejaVuSans-2e" transform="translate(63.623047 0)"/>
       <use xlink:href="#DejaVuSans-33" transform="translate(95.410156 0)"/>
       <use xlink:href="#DejaVuSans-34" transform="translate(159.033203 0)"/>
      </g>
     </g>
    </g>
    <g id="xtick_9">
     <g id="line2d_9">
      <g>
       <use xlink:href="#m5699a36939" x="424.49514" y="300.96" style="stroke: #000000; stroke-width: 0.8"/>
      </g>
     </g>
     <g id="text_9">
      <!-- 0.36 -->
      <g transform="translate(413.362327 315.558437) scale(0.1 -0.1)">
       <use xlink:href="#DejaVuSans-30"/>
       <use xlink:href="#DejaVuSans-2e" transform="translate(63.623047 0)"/>
       <use xlink:href="#DejaVuSans-33" transform="translate(95.410156 0)"/>
       <use xlink:href="#DejaVuSans-36" transform="translate(159.033203 0)"/>
      </g>
     </g>
    </g>
    <g id="text_10">
     <!-- $s^2_F$ -->
     <g transform="translate(245.655625 330.738125) scale(0.1 -0.1)">
      <defs>
       <path id="DejaVuSans-Oblique-73" d="M 3200 3397 
L 3091 2853 
Q 2863 2978 2609 3040 
Q 2356 3103 2088 3103 
Q 1634 3103 1373 2948 
Q 1113 2794 1113 2528 
Q 1113 2219 1719 2053 
Q 1766 2041 1788 2034 
L 1972 1978 
Q 2547 1819 2739 1644 
Q 2931 1469 2931 1166 
Q 2931 609 2489 259 
Q 2047 -91 1331 -91 
Q 1053 -91 747 -37 
Q 441 16 72 128 
L 184 722 
Q 500 559 806 475 
Q 1113 391 1394 391 
Q 1816 391 2080 572 
Q 2344 753 2344 1031 
Q 2344 1331 1650 1516 
L 1591 1531 
L 1394 1581 
Q 956 1697 753 1886 
Q 550 2075 550 2369 
Q 550 2928 970 3256 
Q 1391 3584 2113 3584 
Q 2397 3584 2667 3537 
Q 2938 3491 3200 3397 
z
" transform="scale(0.015625)"/>
       <path id="DejaVuSans-Oblique-46" d="M 1081 4666 
L 3756 4666 
L 3653 4134 
L 1606 4134 
L 1338 2759 
L 3188 2759 
L 3084 2228 
L 1234 2228 
L 800 0 
L 172 0 
L 1081 4666 
z
" transform="scale(0.015625)"/>
      </defs>
      <use xlink:href="#DejaVuSans-Oblique-73" transform="translate(0 0.765625)"/>
      <use xlink:href="#DejaVuSans-32" transform="translate(56.749505 39.046875) scale(0.7)"/>
      <use xlink:href="#DejaVuSans-Oblique-46" transform="translate(52.099609 -26.578125) scale(0.7)"/>
     </g>
    </g>
   </g>
   <g id="matplotlib.axis_2">
    <g id="ytick_1">
     <g id="line2d_10">
      <defs>
       <path id="m13e2827854" d="M 0 0 
L -3.5 0 
" style="stroke: #000000; stroke-width: 0.8"/>
      </defs>
      <g>
       <use xlink:href="#m13e2827854" x="55.065625" y="267.303793" style="stroke: #000000; stroke-width: 0.8"/>
      </g>
     </g>
     <g id="text_11">
      <!-- 1.10 -->
      <g transform="translate(25.8 271.103012) scale(0.1 -0.1)">
       <defs>
        <path id="DejaVuSans-31" d="M 794 531 
L 1825 531 
L 1825 4091 
L 703 3866 
L 703 4441 
L 1819 4666 
L 2450 4666 
L 2450 531 
L 3481 531 
L 3481 0 
L 794 0 
L 794 531 
z
" transform="scale(0.015625)"/>
       </defs>
       <use xlink:href="#DejaVuSans-31"/>
       <use xlink:href="#DejaVuSans-2e" transform="translate(63.623047 0)"/>
       <use xlink:href="#DejaVuSans-31" transform="translate(95.410156 0)"/>
       <use xlink:href="#DejaVuSans-30" transform="translate(159.033203 0)"/>
      </g>
     </g>
    </g>
    <g id="ytick_2">
     <g id="line2d_11">
      <g>
       <use xlink:href="#m13e2827854" x="55.065625" y="217.845619" style="stroke: #000000; stroke-width: 0.8"/>
      </g>
     </g>
     <g id="text_12">
      <!-- 1.15 -->
      <g transform="translate(25.8 221.644838) scale(0.1 -0.1)">
       <defs>
        <path id="DejaVuSans-35" d="M 691 4666 
L 3169 4666 
L 3169 4134 
L 1269 4134 
L 1269 2991 
Q 1406 3038 1543 3061 
Q 1681 3084 1819 3084 
Q 2600 3084 3056 2656 
Q 3513 2228 3513 1497 
Q 3513 744 3044 326 
Q 2575 -91 1722 -91 
Q 1428 -91 1123 -41 
Q 819 9 494 109 
L 494 744 
Q 775 591 1075 516 
Q 1375 441 1709 441 
Q 2250 441 2565 725 
Q 2881 1009 2881 1497 
Q 2881 1984 2565 2268 
Q 2250 2553 1709 2553 
Q 1456 2553 1204 2497 
Q 953 2441 691 2322 
L 691 4666 
z
" transform="scale(0.015625)"/>
       </defs>
       <use xlink:href="#DejaVuSans-31"/>
       <use xlink:href="#DejaVuSans-2e" transform="translate(63.623047 0)"/>
       <use xlink:href="#DejaVuSans-31" transform="translate(95.410156 0)"/>
       <use xlink:href="#DejaVuSans-35" transform="translate(159.033203 0)"/>
      </g>
     </g>
    </g>
    <g id="ytick_3">
     <g id="line2d_12">
      <g>
       <use xlink:href="#m13e2827854" x="55.065625" y="168.387445" style="stroke: #000000; stroke-width: 0.8"/>
      </g>
     </g>
     <g id="text_13">
      <!-- 1.20 -->
      <g transform="translate(25.8 172.186664) scale(0.1 -0.1)">
       <use xlink:href="#DejaVuSans-31"/>
       <use xlink:href="#DejaVuSans-2e" transform="translate(63.623047 0)"/>
       <use xlink:href="#DejaVuSans-32" transform="translate(95.410156 0)"/>
       <use xlink:href="#DejaVuSans-30" transform="translate(159.033203 0)"/>
      </g>
     </g>
    </g>
    <g id="ytick_4">
     <g id="line2d_13">
      <g>
       <use xlink:href="#m13e2827854" x="55.065625" y="118.929271" style="stroke: #000000; stroke-width: 0.8"/>
      </g>
     </g>
     <g id="text_14">
      <!-- 1.25 -->
      <g transform="translate(25.8 122.72849) scale(0.1 -0.1)">
       <use xlink:href="#DejaVuSans-31"/>
       <use xlink:href="#DejaVuSans-2e" transform="translate(63.623047 0)"/>
       <use xlink:href="#DejaVuSans-32" transform="translate(95.410156 0)"/>
       <use xlink:href="#DejaVuSans-35" transform="translate(159.033203 0)"/>
      </g>
     </g>
    </g>
    <g id="ytick_5">
     <g id="line2d_14">
      <g>
       <use xlink:href="#m13e2827854" x="55.065625" y="69.471098" style="stroke: #000000; stroke-width: 0.8"/>
      </g>
     </g>
     <g id="text_15">
      <!-- 1.30 -->
      <g transform="translate(25.8 73.270316) scale(0.1 -0.1)">
       <use xlink:href="#DejaVuSans-31"/>
       <use xlink:href="#DejaVuSans-2e" transform="translate(63.623047 0)"/>
       <use xlink:href="#DejaVuSans-33" transform="translate(95.410156 0)"/>
       <use xlink:href="#DejaVuSans-30" transform="translate(159.033203 0)"/>
      </g>
     </g>
    </g>
    <g id="ytick_6">
     <g id="line2d_15">
      <g>
       <use xlink:href="#m13e2827854" x="55.065625" y="20.012924" style="stroke: #000000; stroke-width: 0.8"/>
      </g>
     </g>
     <g id="text_16">
      <!-- 1.35 -->
      <g transform="translate(25.8 23.812143) scale(0.1 -0.1)">
       <use xlink:href="#DejaVuSans-31"/>
       <use xlink:href="#DejaVuSans-2e" transform="translate(63.623047 0)"/>
       <use xlink:href="#DejaVuSans-33" transform="translate(95.410156 0)"/>
       <use xlink:href="#DejaVuSans-35" transform="translate(159.033203 0)"/>
      </g>
     </g>
    </g>
    <g id="text_17">
     <!-- $m_\Omega \sqrt{t_0 / a^2}$ -->
     <g transform="translate(19.720313 178.68) rotate(-90) scale(0.1 -0.1)">
      <defs>
       <path id="DejaVuSans-Oblique-6d" d="M 5747 2113 
L 5338 0 
L 4763 0 
L 5166 2094 
Q 5191 2228 5203 2325 
Q 5216 2422 5216 2491 
Q 5216 2772 5059 2928 
Q 4903 3084 4622 3084 
Q 4203 3084 3875 2770 
Q 3547 2456 3450 1953 
L 3066 0 
L 2491 0 
L 2900 2094 
Q 2925 2209 2937 2307 
Q 2950 2406 2950 2484 
Q 2950 2769 2794 2926 
Q 2638 3084 2363 3084 
Q 1938 3084 1609 2770 
Q 1281 2456 1184 1953 
L 800 0 
L 225 0 
L 909 3500 
L 1484 3500 
L 1375 2956 
Q 1609 3263 1923 3423 
Q 2238 3584 2597 3584 
Q 2978 3584 3223 3384 
Q 3469 3184 3519 2828 
Q 3781 3197 4126 3390 
Q 4472 3584 4856 3584 
Q 5306 3584 5551 3325 
Q 5797 3066 5797 2591 
Q 5797 2488 5784 2364 
Q 5772 2241 5747 2113 
z
" transform="scale(0.015625)"/>
       <path id="DejaVuSans-3a9" d="M 4647 556 
L 4647 0 
L 2772 0 
L 2772 556 
Q 3325 859 3634 1378 
Q 3944 1897 3944 2528 
Q 3944 3278 3531 3731 
Q 3119 4184 2444 4184 
Q 1769 4184 1355 3729 
Q 941 3275 941 2528 
Q 941 1897 1250 1378 
Q 1563 859 2119 556 
L 2119 0 
L 244 0 
L 244 556 
L 1241 556 
Q 747 991 519 1456 
Q 294 1922 294 2497 
Q 294 3491 894 4106 
Q 1491 4722 2444 4722 
Q 3391 4722 3994 4106 
Q 4594 3494 4594 2528 
Q 4594 1922 4372 1459 
Q 4150 997 3647 556 
L 4647 556 
z
" transform="scale(0.015625)"/>
       <path id="STIXSizeOneSym-Regular-221a" d="M 6970 9933 
L 3373 -1888 
L 3104 -1888 
L 1626 2918 
Q 1555 3149 1465 3251 
Q 1376 3354 1229 3354 
Q 1011 3354 794 3181 
L 717 3309 
L 1766 4115 
L 1926 4115 
L 3379 -602 
L 3405 -602 
L 6605 9933 
L 6970 9933 
z
" transform="scale(0.015625)"/>
       <path id="DejaVuSans-Oblique-74" d="M 2706 3500 
L 2619 3053 
L 1472 3053 
L 1100 1153 
Q 1081 1047 1072 975 
Q 1063 903 1063 863 
Q 1063 663 1183 572 
Q 1303 481 1569 481 
L 2150 481 
L 2053 0 
L 1503 0 
Q 991 0 739 200 
Q 488 400 488 806 
Q 488 878 497 964 
Q 506 1050 525 1153 
L 897 3053 
L 409 3053 
L 500 3500 
L 978 3500 
L 1172 4494 
L 1747 4494 
L 1556 3500 
L 2706 3500 
z
" transform="scale(0.015625)"/>
       <path id="DejaVuSans-2f" d="M 1625 4666 
L 2156 4666 
L 531 -594 
L 0 -594 
L 1625 4666 
z
" transform="scale(0.015625)"/>
       <path id="DejaVuSans-Oblique-61" d="M 3438 1997 
L 3047 0 
L 2472 0 
L 2578 531 
Q 2325 219 2001 64 
Q 1678 -91 1281 -91 
Q 834 -91 548 182 
Q 263 456 263 884 
Q 263 1497 752 1853 
Q 1241 2209 2100 2209 
L 2900 2209 
L 2931 2363 
Q 2938 2388 2941 2417 
Q 2944 2447 2944 2509 
Q 2944 2788 2717 2942 
Q 2491 3097 2081 3097 
Q 1800 3097 1504 3025 
Q 1209 2953 897 2809 
L 997 3341 
Q 1322 3463 1633 3523 
Q 1944 3584 2234 3584 
Q 2853 3584 3176 3315 
Q 3500 3047 3500 2534 
Q 3500 2431 3484 2292 
Q 3469 2153 3438 1997 
z
M 2816 1759 
L 2241 1759 
Q 1534 1759 1195 1570 
Q 856 1381 856 984 
Q 856 709 1029 553 
Q 1203 397 1509 397 
Q 1978 397 2328 733 
Q 2678 1069 2791 1631 
L 2816 1759 
z
" transform="scale(0.015625)"/>
      </defs>
      <use xlink:href="#DejaVuSans-Oblique-6d" transform="translate(0 0.870312)"/>
      <use xlink:href="#DejaVuSans-3a9" transform="translate(97.412109 -15.535937) scale(0.7)"/>
      <use xlink:href="#STIXSizeOneSym-Regular-221a" transform="translate(153.637695 5.59375) scale(0.751941)"/>
      <use xlink:href="#DejaVuSans-Oblique-74" transform="translate(245.676941 0.515625)"/>
      <use xlink:href="#DejaVuSans-30" transform="translate(284.885925 -15.890625) scale(0.7)"/>
      <use xlink:href="#DejaVuSans-2f" transform="translate(332.156433 0.515625)"/>
      <use xlink:href="#DejaVuSans-Oblique-61" transform="translate(365.847839 0.515625)"/>
      <use xlink:href="#DejaVuSans-32" transform="translate(431.777032 38.796875) scale(0.7)"/>
      <path d="M 233.176941 115.5 
L 233.176941 121.75 
L 491.54754 121.75 
L 491.54754 115.5 
L 233.176941 115.5 
z
"/>
     </g>
    </g>
   </g>
   <g id="line2d_16">
    <path d="M 403.288477 300.96 
L 403.288477 7.2 
" clip-path="url(#pec0ad39cac)" style="fill: none; stroke-dasharray: 5.55,2.4; stroke-dashoffset: 0; stroke: #1f77b4; stroke-width: 1.5"/>
   </g>
   <g id="line2d_17">
    <path d="M 403.288477 300.96 
L 403.288477 7.2 
" clip-path="url(#pec0ad39cac)" style="fill: none; stroke-dasharray: 5.55,2.4; stroke-dashoffset: 0; stroke: #1f77b4; stroke-width: 1.5"/>
   </g>
   <g id="line2d_18">
    <path d="M 403.288477 300.96 
L 403.288477 7.2 
" clip-path="url(#pec0ad39cac)" style="fill: none; stroke-dasharray: 5.55,2.4; stroke-dashoffset: 0; stroke: #1f77b4; stroke-width: 1.5"/>
   </g>
   <g id="line2d_19">
    <path d="M 403.288477 300.96 
L 403.288477 7.2 
" clip-path="url(#pec0ad39cac)" style="fill: none; stroke-dasharray: 5.55,2.4; stroke-dashoffset: 0; stroke: #1f77b4; stroke-width: 1.5"/>
   </g>
   <g id="line2d_20">
    <path d="M 403.288477 300.96 
L 403.288477 7.2 
" clip-path="url(#pec0ad39cac)" style="fill: none; stroke-dasharray: 5.55,2.4; stroke-dashoffset: 0; stroke: #1f77b4; stroke-width: 1.5"/>
   </g>
   <g id="line2d_21">
    <path d="M 240.132477 97.147474 
L 235.985268 97.143542 
" clip-path="url(#pec0ad39cac)" style="fill: none; stroke: #ec5d57; stroke-width: 2; stroke-linecap: square"/>
   </g>
   <g id="line2d_22">
    <path d="M 238.114316 85.176311 
L 238.003429 109.114705 
" clip-path="url(#pec0ad39cac)" style="fill: none; stroke: #ec5d57; stroke-width: 2; stroke-linecap: square"/>
   </g>
   <g id="line2d_23">
    <path d="M 276.715117 84.598197 
L 272.623759 84.592673 
" clip-path="url(#pec0ad39cac)" style="fill: none; stroke: #ec5d57; stroke-width: 2; stroke-linecap: square"/>
   </g>
   <g id="line2d_24">
    <path d="M 274.733591 74.870273 
L 274.605285 94.320596 
" clip-path="url(#pec0ad39cac)" style="fill: none; stroke: #ec5d57; stroke-width: 2; stroke-linecap: square"/>
   </g>
   <g id="line2d_25">
    <path d="M 292.252979 69.910371 
L 287.346315 69.927207 
" clip-path="url(#pec0ad39cac)" style="fill: none; stroke: #ec5d57; stroke-width: 2; stroke-linecap: square"/>
   </g>
   <g id="line2d_26">
    <path d="M 289.651967 61.108932 
L 289.947327 78.728646 
" clip-path="url(#pec0ad39cac)" style="fill: none; stroke: #ec5d57; stroke-width: 2; stroke-linecap: square"/>
   </g>
   <g id="line2d_27">
    <path d="M 302.763128 68.756808 
L 299.035886 68.753219 
" clip-path="url(#pec0ad39cac)" style="fill: none; stroke: #ec5d57; stroke-width: 2; stroke-linecap: square"/>
   </g>
   <g id="line2d_28">
    <path d="M 300.939239 60.309305 
L 300.859775 77.200723 
" clip-path="url(#pec0ad39cac)" style="fill: none; stroke: #ec5d57; stroke-width: 2; stroke-linecap: square"/>
   </g>
   <g id="line2d_29">
    <path d="M 350.621623 53.677666 
L 346.790341 53.698038 
" clip-path="url(#pec0ad39cac)" style="fill: none; stroke: #ec5d57; stroke-width: 2; stroke-linecap: square"/>
   </g>
   <g id="line2d_30">
    <path d="M 348.565608 48.284226 
L 348.846357 59.091478 
" clip-path="url(#pec0ad39cac)" style="fill: none; stroke: #ec5d57; stroke-width: 2; stroke-linecap: square"/>
   </g>
   <g id="line2d_31">
    <path d="M 428.941989 26.938155 
L 423.950645 26.957653 
" clip-path="url(#pec0ad39cac)" style="fill: none; stroke: #ec5d57; stroke-width: 2; stroke-linecap: square"/>
   </g>
   <g id="line2d_32">
    <path d="M 426.406812 24.877977 
L 426.485821 29.017831 
" clip-path="url(#pec0ad39cac)" style="fill: none; stroke: #ec5d57; stroke-width: 2; stroke-linecap: square"/>
   </g>
   <g id="line2d_33">
    <path d="M 218.469435 122.458118 
L 214.253376 122.445739 
" clip-path="url(#pec0ad39cac)" style="fill: none; stroke: #70bf41; stroke-width: 2; stroke-linecap: square"/>
   </g>
   <g id="line2d_34">
    <path d="M 216.488278 113.607615 
L 216.234533 131.296242 
" clip-path="url(#pec0ad39cac)" style="fill: none; stroke: #70bf41; stroke-width: 2; stroke-linecap: square"/>
   </g>
   <g id="line2d_35">
    <path d="M 254.687962 116.690003 
L 248.865184 116.683221 
" clip-path="url(#pec0ad39cac)" style="fill: none; stroke: #70bf41; stroke-width: 2; stroke-linecap: square"/>
   </g>
   <g id="line2d_36">
    <path d="M 251.821866 108.728096 
L 251.73128 124.645128 
" clip-path="url(#pec0ad39cac)" style="fill: none; stroke: #70bf41; stroke-width: 2; stroke-linecap: square"/>
   </g>
   <g id="line2d_37">
    <path d="M 275.876888 104.396814 
L 270.806717 104.408129 
" clip-path="url(#pec0ad39cac)" style="fill: none; stroke: #70bf41; stroke-width: 2; stroke-linecap: square"/>
   </g>
   <g id="line2d_38">
    <path d="M 273.251147 96.088333 
L 273.432458 112.71661 
" clip-path="url(#pec0ad39cac)" style="fill: none; stroke: #70bf41; stroke-width: 2; stroke-linecap: square"/>
   </g>
   <g id="line2d_39">
    <path d="M 281.178061 100.422312 
L 276.14059 100.427704 
" clip-path="url(#pec0ad39cac)" style="fill: none; stroke: #70bf41; stroke-width: 2; stroke-linecap: square"/>
   </g>
   <g id="line2d_40">
    <path d="M 278.621017 93.100408 
L 278.697633 107.749608 
" clip-path="url(#pec0ad39cac)" style="fill: none; stroke: #70bf41; stroke-width: 2; stroke-linecap: square"/>
   </g>
   <g id="line2d_41">
    <path d="M 76.617801 203.567062 
L 72.869261 203.571085 
" clip-path="url(#pec0ad39cac)" style="fill: none; stroke: #70bf41; stroke-width: 2; stroke-linecap: square"/>
   </g>
   <g id="line2d_42">
    <path d="M 74.669123 189.377932 
L 74.817939 217.760214 
" clip-path="url(#pec0ad39cac)" style="fill: none; stroke: #70bf41; stroke-width: 2; stroke-linecap: square"/>
   </g>
   <g id="line2d_43">
    <path d="M 343.342445 77.966081 
L 335.062116 77.974851 
" clip-path="url(#pec0ad39cac)" style="fill: none; stroke: #70bf41; stroke-width: 2; stroke-linecap: square"/>
   </g>
   <g id="line2d_44">
    <path d="M 339.178285 73.333558 
L 339.226276 82.607375 
" clip-path="url(#pec0ad39cac)" style="fill: none; stroke: #70bf41; stroke-width: 2; stroke-linecap: square"/>
   </g>
   <g id="line2d_45">
    <path d="M 339.161276 79.387431 
L 332.861601 79.399481 
" clip-path="url(#pec0ad39cac)" style="fill: none; stroke: #70bf41; stroke-width: 2; stroke-linecap: square"/>
   </g>
   <g id="line2d_46">
    <path d="M 335.962143 74.118101 
L 336.060734 84.668811 
" clip-path="url(#pec0ad39cac)" style="fill: none; stroke: #70bf41; stroke-width: 2; stroke-linecap: square"/>
   </g>
   <g id="line2d_47">
    <path d="M 340.703905 81.971861 
L 334.152577 81.99038 
" clip-path="url(#pec0ad39cac)" style="fill: none; stroke: #70bf41; stroke-width: 2; stroke-linecap: square"/>
   </g>
   <g id="line2d_48">
    <path d="M 337.309672 73.395755 
L 337.546811 90.566487 
" clip-path="url(#pec0ad39cac)" style="fill: none; stroke: #70bf41; stroke-width: 2; stroke-linecap: square"/>
   </g>
   <g id="line2d_49">
    <path d="M 365.83719 66.867481 
L 360.270194 66.900079 
" clip-path="url(#pec0ad39cac)" style="fill: none; stroke: #70bf41; stroke-width: 2; stroke-linecap: square"/>
   </g>
   <g id="line2d_50">
    <path d="M 362.939173 62.880772 
L 363.168211 70.886788 
" clip-path="url(#pec0ad39cac)" style="fill: none; stroke: #70bf41; stroke-width: 2; stroke-linecap: square"/>
   </g>
   <g id="line2d_51">
    <path d="M 390.0941 67.300025 
L 384.084795 67.324928 
" clip-path="url(#pec0ad39cac)" style="fill: none; stroke: #70bf41; stroke-width: 2; stroke-linecap: square"/>
   </g>
   <g id="line2d_52">
    <path d="M 387.021924 63.977366 
L 387.156972 70.647586 
" clip-path="url(#pec0ad39cac)" style="fill: none; stroke: #70bf41; stroke-width: 2; stroke-linecap: square"/>
   </g>
   <g id="line2d_53">
    <path d="M 216.17834 151.530829 
L 212.294258 151.532792 
" clip-path="url(#pec0ad39cac)" style="fill: none; stroke: #51a7f9; stroke-width: 2; stroke-linecap: square"/>
   </g>
   <g id="line2d_54">
    <path d="M 214.209034 140.486244 
L 214.263564 162.577377 
" clip-path="url(#pec0ad39cac)" style="fill: none; stroke: #51a7f9; stroke-width: 2; stroke-linecap: square"/>
   </g>
   <g id="line2d_55">
    <path d="M 257.796853 150.74637 
L 252.963141 150.753165 
" clip-path="url(#pec0ad39cac)" style="fill: none; stroke: #51a7f9; stroke-width: 2; stroke-linecap: square"/>
   </g>
   <g id="line2d_56">
    <path d="M 255.307394 140.178432 
L 255.4526 161.321103 
" clip-path="url(#pec0ad39cac)" style="fill: none; stroke: #51a7f9; stroke-width: 2; stroke-linecap: square"/>
   </g>
   <g id="line2d_57">
    <path d="M 283.707923 133.324446 
L 279.445513 133.330366 
" clip-path="url(#pec0ad39cac)" style="fill: none; stroke: #51a7f9; stroke-width: 2; stroke-linecap: square"/>
   </g>
   <g id="line2d_58">
    <path d="M 281.511183 123.668715 
L 281.642254 142.986097 
" clip-path="url(#pec0ad39cac)" style="fill: none; stroke: #51a7f9; stroke-width: 2; stroke-linecap: square"/>
   </g>
   <g id="line2d_59">
    <path d="M 356.942445 115.161333 
L 351.416258 115.166241 
" clip-path="url(#pec0ad39cac)" style="fill: none; stroke: #51a7f9; stroke-width: 2; stroke-linecap: square"/>
   </g>
   <g id="line2d_60">
    <path d="M 354.152399 108.952005 
L 354.206303 121.375569 
" clip-path="url(#pec0ad39cac)" style="fill: none; stroke: #51a7f9; stroke-width: 2; stroke-linecap: square"/>
   </g>
   <g id="line2d_61">
    <path d="M 406.522551 105.98635 
L 398.897698 106.039751 
" clip-path="url(#pec0ad39cac)" style="fill: none; stroke: #51a7f9; stroke-width: 2; stroke-linecap: square"/>
   </g>
   <g id="line2d_62">
    <path d="M 402.561353 101.665123 
L 402.858896 110.360978 
" clip-path="url(#pec0ad39cac)" style="fill: none; stroke: #51a7f9; stroke-width: 2; stroke-linecap: square"/>
   </g>
   <g id="line2d_63">
    <path d="M 295.418779 154.965446 
L 288.082115 154.979126 
" clip-path="url(#pec0ad39cac)" style="fill: none; stroke: #6a5acd; stroke-width: 2; stroke-linecap: square"/>
   </g>
   <g id="line2d_64">
    <path d="M 291.654951 144.489777 
L 291.845943 165.454795 
" clip-path="url(#pec0ad39cac)" style="fill: none; stroke: #6a5acd; stroke-width: 2; stroke-linecap: square"/>
   </g>
   <g id="LineCollection_1"/>
   <g id="LineCollection_2"/>
   <g id="LineCollection_3"/>
   <g id="LineCollection_4"/>
   <g id="LineCollection_5"/>
   <g id="LineCollection_6"/>
   <g id="LineCollection_7"/>
   <g id="LineCollection_8"/>
   <g id="line2d_65"/>
   <g id="line2d_66"/>
   <g id="line2d_67"/>
   <g id="line2d_68"/>
   <g id="patch_3">
    <path d="M 55.065625 300.96 
L 55.065625 7.2 
" style="fill: none; stroke: #000000; stroke-width: 0.8; stroke-linejoin: miter; stroke-linecap: square"/>
   </g>
   <g id="patch_4">
    <path d="M 446.745625 300.96 
L 446.745625 7.2 
" style="fill: none; stroke: #000000; stroke-width: 0.8; stroke-linejoin: miter; stroke-linecap: square"/>
   </g>
   <g id="patch_5">
    <path d="M 55.065625 300.96 
L 446.745625 300.96 
" style="fill: none; stroke: #000000; stroke-width: 0.8; stroke-linejoin: miter; stroke-linecap: square"/>
   </g>
   <g id="patch_6">
    <path d="M 55.065625 7.2 
L 446.745625 7.2 
" style="fill: none; stroke: #000000; stroke-width: 0.8; stroke-linejoin: miter; stroke-linecap: square"/>
   </g>
   <g id="line2d_69">
    <path d="M 238.058873 97.145508 
" clip-path="url(#pec0ad39cac)" style="fill: none; stroke: #ec5d57; stroke-width: 1.5; stroke-linecap: square"/>
    <defs>
     <path id="m6fa69cf9bd" d="M 0 3 
C 0.795609 3 1.55874 2.683901 2.12132 2.12132 
C 2.683901 1.55874 3 0.795609 3 0 
C 3 -0.795609 2.683901 -1.55874 2.12132 -2.12132 
C 1.55874 -2.683901 0.795609 -3 0 -3 
C -0.795609 -3 -1.55874 -2.683901 -2.12132 -2.12132 
C -2.683901 -1.55874 -3 -0.795609 -3 0 
C -3 0.795609 -2.683901 1.55874 -2.12132 2.12132 
C -1.55874 2.683901 -0.795609 3 0 3 
z
" style="stroke: #ffffff"/>
    </defs>
    <g clip-path="url(#pec0ad39cac)">
     <use xlink:href="#m6fa69cf9bd" x="238.058873" y="97.145508" style="fill: #ec5d57; stroke: #ffffff"/>
    </g>
   </g>
   <g id="line2d_70">
    <path d="M 238.058873 97.145508 
" clip-path="url(#pec0ad39cac)" style="fill: none; stroke: #ec5d57; stroke-width: 1.5; stroke-linecap: square"/>
    <g clip-path="url(#pec0ad39cac)">
     <use xlink:href="#m6fa69cf9bd" x="238.058873" y="97.145508" style="fill: #ec5d57; stroke: #ffffff"/>
    </g>
   </g>
   <g id="line2d_71">
    <path d="M 274.669438 84.595435 
" clip-path="url(#pec0ad39cac)" style="fill: none; stroke: #ec5d57; stroke-width: 1.5; stroke-linecap: square"/>
    <g clip-path="url(#pec0ad39cac)">
     <use xlink:href="#m6fa69cf9bd" x="274.669438" y="84.595435" style="fill: #ec5d57; stroke: #ffffff"/>
    </g>
   </g>
   <g id="line2d_72">
    <path d="M 274.669438 84.595435 
" clip-path="url(#pec0ad39cac)" style="fill: none; stroke: #ec5d57; stroke-width: 1.5; stroke-linecap: square"/>
    <g clip-path="url(#pec0ad39cac)">
     <use xlink:href="#m6fa69cf9bd" x="274.669438" y="84.595435" style="fill: #ec5d57; stroke: #ffffff"/>
    </g>
   </g>
   <g id="line2d_73">
    <path d="M 289.799647 69.918789 
" clip-path="url(#pec0ad39cac)" style="fill: none; stroke: #ec5d57; stroke-width: 1.5; stroke-linecap: square"/>
    <g clip-path="url(#pec0ad39cac)">
     <use xlink:href="#m6fa69cf9bd" x="289.799647" y="69.918789" style="fill: #ec5d57; stroke: #ffffff"/>
    </g>
   </g>
   <g id="line2d_74">
    <path d="M 289.799647 69.918789 
" clip-path="url(#pec0ad39cac)" style="fill: none; stroke: #ec5d57; stroke-width: 1.5; stroke-linecap: square"/>
    <g clip-path="url(#pec0ad39cac)">
     <use xlink:href="#m6fa69cf9bd" x="289.799647" y="69.918789" style="fill: #ec5d57; stroke: #ffffff"/>
    </g>
   </g>
   <g id="line2d_75">
    <path d="M 300.899507 68.755014 
" clip-path="url(#pec0ad39cac)" style="fill: none; stroke: #ec5d57; stroke-width: 1.5; stroke-linecap: square"/>
    <g clip-path="url(#pec0ad39cac)">
     <use xlink:href="#m6fa69cf9bd" x="300.899507" y="68.755014" style="fill: #ec5d57; stroke: #ffffff"/>
    </g>
   </g>
   <g id="line2d_76">
    <path d="M 300.899507 68.755014 
" clip-path="url(#pec0ad39cac)" style="fill: none; stroke: #ec5d57; stroke-width: 1.5; stroke-linecap: square"/>
    <g clip-path="url(#pec0ad39cac)">
     <use xlink:href="#m6fa69cf9bd" x="300.899507" y="68.755014" style="fill: #ec5d57; stroke: #ffffff"/>
    </g>
   </g>
   <g id="line2d_77">
    <path d="M 348.705982 53.687852 
" clip-path="url(#pec0ad39cac)" style="fill: none; stroke: #ec5d57; stroke-width: 1.5; stroke-linecap: square"/>
    <g clip-path="url(#pec0ad39cac)">
     <use xlink:href="#m6fa69cf9bd" x="348.705982" y="53.687852" style="fill: #ec5d57; stroke: #ffffff"/>
    </g>
   </g>
   <g id="line2d_78">
    <path d="M 348.705982 53.687852 
" clip-path="url(#pec0ad39cac)" style="fill: none; stroke: #ec5d57; stroke-width: 1.5; stroke-linecap: square"/>
    <g clip-path="url(#pec0ad39cac)">
     <use xlink:href="#m6fa69cf9bd" x="348.705982" y="53.687852" style="fill: #ec5d57; stroke: #ffffff"/>
    </g>
   </g>
   <g id="line2d_79">
    <path d="M 426.446317 26.947904 
" clip-path="url(#pec0ad39cac)" style="fill: none; stroke: #ec5d57; stroke-width: 1.5; stroke-linecap: square"/>
    <g clip-path="url(#pec0ad39cac)">
     <use xlink:href="#m6fa69cf9bd" x="426.446317" y="26.947904" style="fill: #ec5d57; stroke: #ffffff"/>
    </g>
   </g>
   <g id="line2d_80">
    <path d="M 426.446317 26.947904 
" clip-path="url(#pec0ad39cac)" style="fill: none; stroke: #ec5d57; stroke-width: 1.5; stroke-linecap: square"/>
    <g clip-path="url(#pec0ad39cac)">
     <use xlink:href="#m6fa69cf9bd" x="426.446317" y="26.947904" style="fill: #ec5d57; stroke: #ffffff"/>
    </g>
   </g>
   <g id="line2d_81">
    <path d="M 216.361406 122.451928 
" clip-path="url(#pec0ad39cac)" style="fill: none; stroke: #70bf41; stroke-width: 1.5; stroke-linecap: square"/>
    <defs>
     <path id="me9caac0588" d="M 0 3 
C 0.795609 3 1.55874 2.683901 2.12132 2.12132 
C 2.683901 1.55874 3 0.795609 3 0 
C 3 -0.795609 2.683901 -1.55874 2.12132 -2.12132 
C 1.55874 -2.683901 0.795609 -3 0 -3 
C -0.795609 -3 -1.55874 -2.683901 -2.12132 -2.12132 
C -2.683901 -1.55874 -3 -0.795609 -3 0 
C -3 0.795609 -2.683901 1.55874 -2.12132 2.12132 
C -1.55874 2.683901 -0.795609 3 0 3 
z
" style="stroke: #ffffff"/>
    </defs>
    <g clip-path="url(#pec0ad39cac)">
     <use xlink:href="#me9caac0588" x="216.361406" y="122.451928" style="fill: #70bf41; stroke: #ffffff"/>
    </g>
   </g>
   <g id="line2d_82">
    <path d="M 216.361406 122.451928 
" clip-path="url(#pec0ad39cac)" style="fill: none; stroke: #70bf41; stroke-width: 1.5; stroke-linecap: square"/>
    <g clip-path="url(#pec0ad39cac)">
     <use xlink:href="#me9caac0588" x="216.361406" y="122.451928" style="fill: #70bf41; stroke: #ffffff"/>
    </g>
   </g>
   <g id="line2d_83">
    <path d="M 251.776573 116.686612 
" clip-path="url(#pec0ad39cac)" style="fill: none; stroke: #70bf41; stroke-width: 1.5; stroke-linecap: square"/>
    <g clip-path="url(#pec0ad39cac)">
     <use xlink:href="#me9caac0588" x="251.776573" y="116.686612" style="fill: #70bf41; stroke: #ffffff"/>
    </g>
   </g>
   <g id="line2d_84">
    <path d="M 251.776573 116.686612 
" clip-path="url(#pec0ad39cac)" style="fill: none; stroke: #70bf41; stroke-width: 1.5; stroke-linecap: square"/>
    <g clip-path="url(#pec0ad39cac)">
     <use xlink:href="#me9caac0588" x="251.776573" y="116.686612" style="fill: #70bf41; stroke: #ffffff"/>
    </g>
   </g>
   <g id="line2d_85">
    <path d="M 273.341802 104.402471 
" clip-path="url(#pec0ad39cac)" style="fill: none; stroke: #70bf41; stroke-width: 1.5; stroke-linecap: square"/>
    <g clip-path="url(#pec0ad39cac)">
     <use xlink:href="#me9caac0588" x="273.341802" y="104.402471" style="fill: #70bf41; stroke: #ffffff"/>
    </g>
   </g>
   <g id="line2d_86">
    <path d="M 273.341802 104.402471 
" clip-path="url(#pec0ad39cac)" style="fill: none; stroke: #70bf41; stroke-width: 1.5; stroke-linecap: square"/>
    <g clip-path="url(#pec0ad39cac)">
     <use xlink:href="#me9caac0588" x="273.341802" y="104.402471" style="fill: #70bf41; stroke: #ffffff"/>
    </g>
   </g>
   <g id="line2d_87">
    <path d="M 278.659325 100.425008 
" clip-path="url(#pec0ad39cac)" style="fill: none; stroke: #70bf41; stroke-width: 1.5; stroke-linecap: square"/>
    <g clip-path="url(#pec0ad39cac)">
     <use xlink:href="#me9caac0588" x="278.659325" y="100.425008" style="fill: #70bf41; stroke: #ffffff"/>
    </g>
   </g>
   <g id="line2d_88">
    <path d="M 278.659325 100.425008 
" clip-path="url(#pec0ad39cac)" style="fill: none; stroke: #70bf41; stroke-width: 1.5; stroke-linecap: square"/>
    <g clip-path="url(#pec0ad39cac)">
     <use xlink:href="#me9caac0588" x="278.659325" y="100.425008" style="fill: #70bf41; stroke: #ffffff"/>
    </g>
   </g>
   <g id="line2d_89">
    <path d="M 74.743531 203.569073 
" clip-path="url(#pec0ad39cac)" style="fill: none; stroke: #70bf41; stroke-width: 1.5; stroke-linecap: square"/>
    <g clip-path="url(#pec0ad39cac)">
     <use xlink:href="#me9caac0588" x="74.743531" y="203.569073" style="fill: #70bf41; stroke: #ffffff"/>
    </g>
   </g>
   <g id="line2d_90">
    <path d="M 74.743531 203.569073 
" clip-path="url(#pec0ad39cac)" style="fill: none; stroke: #70bf41; stroke-width: 1.5; stroke-linecap: square"/>
    <g clip-path="url(#pec0ad39cac)">
     <use xlink:href="#me9caac0588" x="74.743531" y="203.569073" style="fill: #70bf41; stroke: #ffffff"/>
    </g>
   </g>
   <g id="line2d_91">
    <path d="M 339.202281 77.970466 
" clip-path="url(#pec0ad39cac)" style="fill: none; stroke: #70bf41; stroke-width: 1.5; stroke-linecap: square"/>
    <g clip-path="url(#pec0ad39cac)">
     <use xlink:href="#me9caac0588" x="339.202281" y="77.970466" style="fill: #70bf41; stroke: #ffffff"/>
    </g>
   </g>
   <g id="line2d_92">
    <path d="M 339.202281 77.970466 
" clip-path="url(#pec0ad39cac)" style="fill: none; stroke: #70bf41; stroke-width: 1.5; stroke-linecap: square"/>
    <g clip-path="url(#pec0ad39cac)">
     <use xlink:href="#me9caac0588" x="339.202281" y="77.970466" style="fill: #70bf41; stroke: #ffffff"/>
    </g>
   </g>
   <g id="line2d_93">
    <path d="M 336.011439 79.393456 
" clip-path="url(#pec0ad39cac)" style="fill: none; stroke: #70bf41; stroke-width: 1.5; stroke-linecap: square"/>
    <g clip-path="url(#pec0ad39cac)">
     <use xlink:href="#me9caac0588" x="336.011439" y="79.393456" style="fill: #70bf41; stroke: #ffffff"/>
    </g>
   </g>
   <g id="line2d_94">
    <path d="M 336.011439 79.393456 
" clip-path="url(#pec0ad39cac)" style="fill: none; stroke: #70bf41; stroke-width: 1.5; stroke-linecap: square"/>
    <g clip-path="url(#pec0ad39cac)">
     <use xlink:href="#me9caac0588" x="336.011439" y="79.393456" style="fill: #70bf41; stroke: #ffffff"/>
    </g>
   </g>
   <g id="line2d_95">
    <path d="M 337.428241 81.981121 
" clip-path="url(#pec0ad39cac)" style="fill: none; stroke: #70bf41; stroke-width: 1.5; stroke-linecap: square"/>
    <g clip-path="url(#pec0ad39cac)">
     <use xlink:href="#me9caac0588" x="337.428241" y="81.981121" style="fill: #70bf41; stroke: #ffffff"/>
    </g>
   </g>
   <g id="line2d_96">
    <path d="M 337.428241 81.981121 
" clip-path="url(#pec0ad39cac)" style="fill: none; stroke: #70bf41; stroke-width: 1.5; stroke-linecap: square"/>
    <g clip-path="url(#pec0ad39cac)">
     <use xlink:href="#me9caac0588" x="337.428241" y="81.981121" style="fill: #70bf41; stroke: #ffffff"/>
    </g>
   </g>
   <g id="line2d_97">
    <path d="M 363.053692 66.88378 
" clip-path="url(#pec0ad39cac)" style="fill: none; stroke: #70bf41; stroke-width: 1.5; stroke-linecap: square"/>
    <g clip-path="url(#pec0ad39cac)">
     <use xlink:href="#me9caac0588" x="363.053692" y="66.88378" style="fill: #70bf41; stroke: #ffffff"/>
    </g>
   </g>
   <g id="line2d_98">
    <path d="M 363.053692 66.88378 
" clip-path="url(#pec0ad39cac)" style="fill: none; stroke: #70bf41; stroke-width: 1.5; stroke-linecap: square"/>
    <g clip-path="url(#pec0ad39cac)">
     <use xlink:href="#me9caac0588" x="363.053692" y="66.88378" style="fill: #70bf41; stroke: #ffffff"/>
    </g>
   </g>
   <g id="line2d_99">
    <path d="M 387.089448 67.312476 
" clip-path="url(#pec0ad39cac)" style="fill: none; stroke: #70bf41; stroke-width: 1.5; stroke-linecap: square"/>
    <g clip-path="url(#pec0ad39cac)">
     <use xlink:href="#me9caac0588" x="387.089448" y="67.312476" style="fill: #70bf41; stroke: #ffffff"/>
    </g>
   </g>
   <g id="line2d_100">
    <path d="M 387.089448 67.312476 
" clip-path="url(#pec0ad39cac)" style="fill: none; stroke: #70bf41; stroke-width: 1.5; stroke-linecap: square"/>
    <g clip-path="url(#pec0ad39cac)">
     <use xlink:href="#me9caac0588" x="387.089448" y="67.312476" style="fill: #70bf41; stroke: #ffffff"/>
    </g>
   </g>
   <g id="line2d_101">
    <path d="M 214.236299 151.531811 
" clip-path="url(#pec0ad39cac)" style="fill: none; stroke: #51a7f9; stroke-width: 1.5; stroke-linecap: square"/>
    <defs>
     <path id="me7e64a07e0" d="M 0 3 
C 0.795609 3 1.55874 2.683901 2.12132 2.12132 
C 2.683901 1.55874 3 0.795609 3 0 
C 3 -0.795609 2.683901 -1.55874 2.12132 -2.12132 
C 1.55874 -2.683901 0.795609 -3 0 -3 
C -0.795609 -3 -1.55874 -2.683901 -2.12132 -2.12132 
C -2.683901 -1.55874 -3 -0.795609 -3 0 
C -3 0.795609 -2.683901 1.55874 -2.12132 2.12132 
C -1.55874 2.683901 -0.795609 3 0 3 
z
" style="stroke: #ffffff"/>
    </defs>
    <g clip-path="url(#pec0ad39cac)">
     <use xlink:href="#me7e64a07e0" x="214.236299" y="151.531811" style="fill: #51a7f9; stroke: #ffffff"/>
    </g>
   </g>
   <g id="line2d_102">
    <path d="M 214.236299 151.531811 
" clip-path="url(#pec0ad39cac)" style="fill: none; stroke: #51a7f9; stroke-width: 1.5; stroke-linecap: square"/>
    <g clip-path="url(#pec0ad39cac)">
     <use xlink:href="#me7e64a07e0" x="214.236299" y="151.531811" style="fill: #51a7f9; stroke: #ffffff"/>
    </g>
   </g>
   <g id="line2d_103">
    <path d="M 255.379997 150.749768 
" clip-path="url(#pec0ad39cac)" style="fill: none; stroke: #51a7f9; stroke-width: 1.5; stroke-linecap: square"/>
    <g clip-path="url(#pec0ad39cac)">
     <use xlink:href="#me7e64a07e0" x="255.379997" y="150.749768" style="fill: #51a7f9; stroke: #ffffff"/>
    </g>
   </g>
   <g id="line2d_104">
    <path d="M 255.379997 150.749768 
" clip-path="url(#pec0ad39cac)" style="fill: none; stroke: #51a7f9; stroke-width: 1.5; stroke-linecap: square"/>
    <g clip-path="url(#pec0ad39cac)">
     <use xlink:href="#me7e64a07e0" x="255.379997" y="150.749768" style="fill: #51a7f9; stroke: #ffffff"/>
    </g>
   </g>
   <g id="line2d_105">
    <path d="M 281.576718 133.327406 
" clip-path="url(#pec0ad39cac)" style="fill: none; stroke: #51a7f9; stroke-width: 1.5; stroke-linecap: square"/>
    <g clip-path="url(#pec0ad39cac)">
     <use xlink:href="#me7e64a07e0" x="281.576718" y="133.327406" style="fill: #51a7f9; stroke: #ffffff"/>
    </g>
   </g>
   <g id="line2d_106">
    <path d="M 281.576718 133.327406 
" clip-path="url(#pec0ad39cac)" style="fill: none; stroke: #51a7f9; stroke-width: 1.5; stroke-linecap: square"/>
    <g clip-path="url(#pec0ad39cac)">
     <use xlink:href="#me7e64a07e0" x="281.576718" y="133.327406" style="fill: #51a7f9; stroke: #ffffff"/>
    </g>
   </g>
   <g id="line2d_107">
    <path d="M 354.179351 115.163787 
" clip-path="url(#pec0ad39cac)" style="fill: none; stroke: #51a7f9; stroke-width: 1.5; stroke-linecap: square"/>
    <g clip-path="url(#pec0ad39cac)">
     <use xlink:href="#me7e64a07e0" x="354.179351" y="115.163787" style="fill: #51a7f9; stroke: #ffffff"/>
    </g>
   </g>
   <g id="line2d_108">
    <path d="M 354.179351 115.163787 
" clip-path="url(#pec0ad39cac)" style="fill: none; stroke: #51a7f9; stroke-width: 1.5; stroke-linecap: square"/>
    <g clip-path="url(#pec0ad39cac)">
     <use xlink:href="#me7e64a07e0" x="354.179351" y="115.163787" style="fill: #51a7f9; stroke: #ffffff"/>
    </g>
   </g>
   <g id="line2d_109">
    <path d="M 402.710124 106.01305 
" clip-path="url(#pec0ad39cac)" style="fill: none; stroke: #51a7f9; stroke-width: 1.5; stroke-linecap: square"/>
    <g clip-path="url(#pec0ad39cac)">
     <use xlink:href="#me7e64a07e0" x="402.710124" y="106.01305" style="fill: #51a7f9; stroke: #ffffff"/>
    </g>
   </g>
   <g id="line2d_110">
    <path d="M 402.710124 106.01305 
" clip-path="url(#pec0ad39cac)" style="fill: none; stroke: #51a7f9; stroke-width: 1.5; stroke-linecap: square"/>
    <g clip-path="url(#pec0ad39cac)">
     <use xlink:href="#me7e64a07e0" x="402.710124" y="106.01305" style="fill: #51a7f9; stroke: #ffffff"/>
    </g>
   </g>
   <g id="line2d_111">
    <path d="M 291.750447 154.972286 
" clip-path="url(#pec0ad39cac)" style="fill: none; stroke: #6a5acd; stroke-width: 1.5; stroke-linecap: square"/>
    <defs>
     <path id="m1f1404c051" d="M 0 3 
C 0.795609 3 1.55874 2.683901 2.12132 2.12132 
C 2.683901 1.55874 3 0.795609 3 0 
C 3 -0.795609 2.683901 -1.55874 2.12132 -2.12132 
C 1.55874 -2.683901 0.795609 -3 0 -3 
C -0.795609 -3 -1.55874 -2.683901 -2.12132 -2.12132 
C -2.683901 -1.55874 -3 -0.795609 -3 0 
C -3 0.795609 -2.683901 1.55874 -2.12132 2.12132 
C -1.55874 2.683901 -0.795609 3 0 3 
z
" style="stroke: #ffffff"/>
    </defs>
    <g clip-path="url(#pec0ad39cac)">
     <use xlink:href="#m1f1404c051" x="291.750447" y="154.972286" style="fill: #6a5acd; stroke: #ffffff"/>
    </g>
   </g>
   <g id="line2d_112">
    <path d="M 291.750447 154.972286 
" clip-path="url(#pec0ad39cac)" style="fill: none; stroke: #6a5acd; stroke-width: 1.5; stroke-linecap: square"/>
    <g clip-path="url(#pec0ad39cac)">
     <use xlink:href="#m1f1404c051" x="291.750447" y="154.972286" style="fill: #6a5acd; stroke: #ffffff"/>
    </g>
   </g>
   <g id="legend_1">
    <g id="patch_7">
     <path d="M 62.065625 51.6 
L 258.665625 51.6 
Q 260.665625 51.6 260.665625 49.6 
L 260.665625 14.2 
Q 260.665625 12.2 258.665625 12.2 
L 62.065625 12.2 
Q 60.065625 12.2 60.065625 14.2 
L 60.065625 49.6 
Q 60.065625 51.6 62.065625 51.6 
z
" style="fill: #ffffff; opacity: 0.8; stroke: #cccccc; stroke-linejoin: miter"/>
    </g>
    <g id="LineCollection_9">
     <path d="M 69.065625 23.1 
L 79.065625 23.1 
" style="fill: none; stroke: #6a5acd; stroke-width: 3"/>
    </g>
    <g id="LineCollection_10">
     <path d="M 74.065625 28.1 
L 74.065625 18.1 
" style="fill: none; stroke: #6a5acd; stroke-width: 3"/>
    </g>
    <g id="line2d_113">
     <path d="M 64.065625 23.1 
L 84.065625 23.1 
" style="fill: none; stroke: #6a5acd; stroke-width: 1.5; stroke-linecap: square"/>
    </g>
    <g id="line2d_114">
     <defs>
      <path id="m8cb0c8bdd7" d="M 0 4 
C 1.060812 4 2.078319 3.578535 2.828427 2.828427 
C 3.578535 2.078319 4 1.060812 4 0 
C 4 -1.060812 3.578535 -2.078319 2.828427 -2.828427 
C 2.078319 -3.578535 1.060812 -4 0 -4 
C -1.060812 -4 -2.078319 -3.578535 -2.828427 -2.828427 
C -3.578535 -2.078319 -4 -1.060812 -4 0 
C -4 1.060812 -3.578535 2.078319 -2.828427 2.828427 
C -2.078319 3.578535 -1.060812 4 0 4 
z
" style="stroke: #ffffff; stroke-width: 2"/>
     </defs>
     <g>
      <use xlink:href="#m8cb0c8bdd7" x="74.065625" y="23.1" style="fill: #6a5acd; stroke: #ffffff; stroke-width: 2"/>
     </g>
    </g>
    <g id="text_18">
     <!-- $a_{06}(l_F^{\rm phys},s_F)$ -->
     <g transform="translate(92.065625 26.6) scale(0.1 -0.1)">
      <defs>
       <path id="DejaVuSans-28" d="M 1984 4856 
Q 1566 4138 1362 3434 
Q 1159 2731 1159 2009 
Q 1159 1288 1364 580 
Q 1569 -128 1984 -844 
L 1484 -844 
Q 1016 -109 783 600 
Q 550 1309 550 2009 
Q 550 2706 781 3412 
Q 1013 4119 1484 4856 
L 1984 4856 
z
" transform="scale(0.015625)"/>
       <path id="DejaVuSans-Oblique-6c" d="M 1172 4863 
L 1747 4863 
L 800 0 
L 225 0 
L 1172 4863 
z
" transform="scale(0.015625)"/>
       <path id="DejaVuSans-70" d="M 1159 525 
L 1159 -1331 
L 581 -1331 
L 581 3500 
L 1159 3500 
L 1159 2969 
Q 1341 3281 1617 3432 
Q 1894 3584 2278 3584 
Q 2916 3584 3314 3078 
Q 3713 2572 3713 1747 
Q 3713 922 3314 415 
Q 2916 -91 2278 -91 
Q 1894 -91 1617 61 
Q 1341 213 1159 525 
z
M 3116 1747 
Q 3116 2381 2855 2742 
Q 2594 3103 2138 3103 
Q 1681 3103 1420 2742 
Q 1159 2381 1159 1747 
Q 1159 1113 1420 752 
Q 1681 391 2138 391 
Q 2594 391 2855 752 
Q 3116 1113 3116 1747 
z
" transform="scale(0.015625)"/>
       <path id="DejaVuSans-68" d="M 3513 2113 
L 3513 0 
L 2938 0 
L 2938 2094 
Q 2938 2591 2744 2837 
Q 2550 3084 2163 3084 
Q 1697 3084 1428 2787 
Q 1159 2491 1159 1978 
L 1159 0 
L 581 0 
L 581 4863 
L 1159 4863 
L 1159 2956 
Q 1366 3272 1645 3428 
Q 1925 3584 2291 3584 
Q 2894 3584 3203 3211 
Q 3513 2838 3513 2113 
z
" transform="scale(0.015625)"/>
       <path id="DejaVuSans-79" d="M 2059 -325 
Q 1816 -950 1584 -1140 
Q 1353 -1331 966 -1331 
L 506 -1331 
L 506 -850 
L 844 -850 
Q 1081 -850 1212 -737 
Q 1344 -625 1503 -206 
L 1606 56 
L 191 3500 
L 800 3500 
L 1894 763 
L 2988 3500 
L 3597 3500 
L 2059 -325 
z
" transform="scale(0.015625)"/>
       <path id="DejaVuSans-73" d="M 2834 3397 
L 2834 2853 
Q 2591 2978 2328 3040 
Q 2066 3103 1784 3103 
Q 1356 3103 1142 2972 
Q 928 2841 928 2578 
Q 928 2378 1081 2264 
Q 1234 2150 1697 2047 
L 1894 2003 
Q 2506 1872 2764 1633 
Q 3022 1394 3022 966 
Q 3022 478 2636 193 
Q 2250 -91 1575 -91 
Q 1294 -91 989 -36 
Q 684 19 347 128 
L 347 722 
Q 666 556 975 473 
Q 1284 391 1588 391 
Q 1994 391 2212 530 
Q 2431 669 2431 922 
Q 2431 1156 2273 1281 
Q 2116 1406 1581 1522 
L 1381 1569 
Q 847 1681 609 1914 
Q 372 2147 372 2553 
Q 372 3047 722 3315 
Q 1072 3584 1716 3584 
Q 2034 3584 2315 3537 
Q 2597 3491 2834 3397 
z
" transform="scale(0.015625)"/>
       <path id="DejaVuSans-2c" d="M 750 794 
L 1409 794 
L 1409 256 
L 897 -744 
L 494 -744 
L 750 256 
L 750 794 
z
" transform="scale(0.015625)"/>
       <path id="DejaVuSans-29" d="M 513 4856 
L 1013 4856 
Q 1481 4119 1714 3412 
Q 1947 2706 1947 2009 
Q 1947 1309 1714 600 
Q 1481 -109 1013 -844 
L 513 -844 
Q 928 -128 1133 580 
Q 1338 1288 1338 2009 
Q 1338 2731 1133 3434 
Q 928 4138 513 4856 
z
" transform="scale(0.015625)"/>
      </defs>
      <use xlink:href="#DejaVuSans-Oblique-61" transform="translate(0 0.0625)"/>
      <use xlink:href="#DejaVuSans-30" transform="translate(61.279297 -16.34375) scale(0.7)"/>
      <use xlink:href="#DejaVuSans-36" transform="translate(105.81543 -16.34375) scale(0.7)"/>
      <use xlink:href="#DejaVuSans-28" transform="translate(153.085938 0.0625)"/>
      <use xlink:href="#DejaVuSans-Oblique-6c" transform="translate(192.099609 0.0625)"/>
      <use xlink:href="#DejaVuSans-70" transform="translate(227.330521 50.810938) scale(0.7)"/>
      <use xlink:href="#DejaVuSans-68" transform="translate(271.764115 50.810938) scale(0.7)"/>
      <use xlink:href="#DejaVuSans-79" transform="translate(316.129349 50.810938) scale(0.7)"/>
      <use xlink:href="#DejaVuSans-73" transform="translate(357.55513 50.810938) scale(0.7)"/>
      <use xlink:href="#DejaVuSans-Oblique-46" transform="translate(219.882812 -27.28125) scale(0.7)"/>
      <use xlink:href="#DejaVuSans-2c" transform="translate(396.759232 0.0625)"/>
      <use xlink:href="#DejaVuSans-Oblique-73" transform="translate(448.028763 0.0625)"/>
      <use xlink:href="#DejaVuSans-Oblique-46" transform="translate(500.128372 -16.34375) scale(0.7)"/>
      <use xlink:href="#DejaVuSans-29" transform="translate(543.126419 0.0625)"/>
     </g>
    </g>
    <g id="LineCollection_11">
     <path d="M 69.065625 41.3 
L 79.065625 41.3 
" style="fill: none; stroke: #51a7f9; stroke-width: 3"/>
    </g>
    <g id="LineCollection_12">
     <path d="M 74.065625 46.3 
L 74.065625 36.3 
" style="fill: none; stroke: #51a7f9; stroke-width: 3"/>
    </g>
    <g id="line2d_115">
     <path d="M 64.065625 41.3 
L 84.065625 41.3 
" style="fill: none; stroke: #51a7f9; stroke-width: 1.5; stroke-linecap: square"/>
    </g>
    <g id="line2d_116">
     <defs>
      <path id="m1c298c2d4a" d="M 0 4 
C 1.060812 4 2.078319 3.578535 2.828427 2.828427 
C 3.578535 2.078319 4 1.060812 4 0 
C 4 -1.060812 3.578535 -2.078319 2.828427 -2.828427 
C 2.078319 -3.578535 1.060812 -4 0 -4 
C -1.060812 -4 -2.078319 -3.578535 -2.828427 -2.828427 
C -3.578535 -2.078319 -4 -1.060812 -4 0 
C -4 1.060812 -3.578535 2.078319 -2.828427 2.828427 
C -2.078319 3.578535 -1.060812 4 0 4 
z
" style="stroke: #ffffff; stroke-width: 2"/>
     </defs>
     <g>
      <use xlink:href="#m1c298c2d4a" x="74.065625" y="41.3" style="fill: #51a7f9; stroke: #ffffff; stroke-width: 2"/>
     </g>
    </g>
    <g id="text_19">
     <!-- $a_{09}(l_F^{\rm phys},s_F)$ -->
     <g transform="translate(92.065625 44.8) scale(0.1 -0.1)">
      <defs>
       <path id="DejaVuSans-39" d="M 703 97 
L 703 672 
Q 941 559 1184 500 
Q 1428 441 1663 441 
Q 2288 441 2617 861 
Q 2947 1281 2994 2138 
Q 2813 1869 2534 1725 
Q 2256 1581 1919 1581 
Q 1219 1581 811 2004 
Q 403 2428 403 3163 
Q 403 3881 828 4315 
Q 1253 4750 1959 4750 
Q 2769 4750 3195 4129 
Q 3622 3509 3622 2328 
Q 3622 1225 3098 567 
Q 2575 -91 1691 -91 
Q 1453 -91 1209 -44 
Q 966 3 703 97 
z
M 1959 2075 
Q 2384 2075 2632 2365 
Q 2881 2656 2881 3163 
Q 2881 3666 2632 3958 
Q 2384 4250 1959 4250 
Q 1534 4250 1286 3958 
Q 1038 3666 1038 3163 
Q 1038 2656 1286 2365 
Q 1534 2075 1959 2075 
z
" transform="scale(0.015625)"/>
      </defs>
      <use xlink:href="#DejaVuSans-Oblique-61" transform="translate(0 0.0625)"/>
      <use xlink:href="#DejaVuSans-30" transform="translate(61.279297 -16.34375) scale(0.7)"/>
      <use xlink:href="#DejaVuSans-39" transform="translate(105.81543 -16.34375) scale(0.7)"/>
      <use xlink:href="#DejaVuSans-28" transform="translate(153.085938 0.0625)"/>
      <use xlink:href="#DejaVuSans-Oblique-6c" transform="translate(192.099609 0.0625)"/>
      <use xlink:href="#DejaVuSans-70" transform="translate(227.330521 50.810938) scale(0.7)"/>
      <use xlink:href="#DejaVuSans-68" transform="translate(271.764115 50.810938) scale(0.7)"/>
      <use xlink:href="#DejaVuSans-79" transform="translate(316.129349 50.810938) scale(0.7)"/>
      <use xlink:href="#DejaVuSans-73" transform="translate(357.55513 50.810938) scale(0.7)"/>
      <use xlink:href="#DejaVuSans-Oblique-46" transform="translate(219.882812 -27.28125) scale(0.7)"/>
      <use xlink:href="#DejaVuSans-2c" transform="translate(396.759232 0.0625)"/>
      <use xlink:href="#DejaVuSans-Oblique-73" transform="translate(448.028763 0.0625)"/>
      <use xlink:href="#DejaVuSans-Oblique-46" transform="translate(500.128372 -16.34375) scale(0.7)"/>
      <use xlink:href="#DejaVuSans-29" transform="translate(543.126419 0.0625)"/>
     </g>
    </g>
    <g id="LineCollection_13">
     <path d="M 175.365625 23.1 
L 185.365625 23.1 
" style="fill: none; stroke: #70bf41; stroke-width: 3"/>
    </g>
    <g id="LineCollection_14">
     <path d="M 180.365625 28.1 
L 180.365625 18.1 
" style="fill: none; stroke: #70bf41; stroke-width: 3"/>
    </g>
    <g id="line2d_117">
     <path d="M 170.365625 23.1 
L 190.365625 23.1 
" style="fill: none; stroke: #70bf41; stroke-width: 1.5; stroke-linecap: square"/>
    </g>
    <g id="line2d_118">
     <defs>
      <path id="mfeb72bc202" d="M 0 4 
C 1.060812 4 2.078319 3.578535 2.828427 2.828427 
C 3.578535 2.078319 4 1.060812 4 0 
C 4 -1.060812 3.578535 -2.078319 2.828427 -2.828427 
C 2.078319 -3.578535 1.060812 -4 0 -4 
C -1.060812 -4 -2.078319 -3.578535 -2.828427 -2.828427 
C -3.578535 -2.078319 -4 -1.060812 -4 0 
C -4 1.060812 -3.578535 2.078319 -2.828427 2.828427 
C -2.078319 3.578535 -1.060812 4 0 4 
z
" style="stroke: #ffffff; stroke-width: 2"/>
     </defs>
     <g>
      <use xlink:href="#mfeb72bc202" x="180.365625" y="23.1" style="fill: #70bf41; stroke: #ffffff; stroke-width: 2"/>
     </g>
    </g>
    <g id="text_20">
     <!-- $a_{12}(l_F^{\rm phys},s_F)$ -->
     <g transform="translate(198.365625 26.6) scale(0.1 -0.1)">
      <use xlink:href="#DejaVuSans-Oblique-61" transform="translate(0 0.0625)"/>
      <use xlink:href="#DejaVuSans-31" transform="translate(61.279297 -16.34375) scale(0.7)"/>
      <use xlink:href="#DejaVuSans-32" transform="translate(105.81543 -16.34375) scale(0.7)"/>
      <use xlink:href="#DejaVuSans-28" transform="translate(153.085938 0.0625)"/>
      <use xlink:href="#DejaVuSans-Oblique-6c" transform="translate(192.099609 0.0625)"/>
      <use xlink:href="#DejaVuSans-70" transform="translate(227.330521 50.810938) scale(0.7)"/>
      <use xlink:href="#DejaVuSans-68" transform="translate(271.764115 50.810938) scale(0.7)"/>
      <use xlink:href="#DejaVuSans-79" transform="translate(316.129349 50.810938) scale(0.7)"/>
      <use xlink:href="#DejaVuSans-73" transform="translate(357.55513 50.810938) scale(0.7)"/>
      <use xlink:href="#DejaVuSans-Oblique-46" transform="translate(219.882812 -27.28125) scale(0.7)"/>
      <use xlink:href="#DejaVuSans-2c" transform="translate(396.759232 0.0625)"/>
      <use xlink:href="#DejaVuSans-Oblique-73" transform="translate(448.028763 0.0625)"/>
      <use xlink:href="#DejaVuSans-Oblique-46" transform="translate(500.128372 -16.34375) scale(0.7)"/>
      <use xlink:href="#DejaVuSans-29" transform="translate(543.126419 0.0625)"/>
     </g>
    </g>
    <g id="LineCollection_15">
     <path d="M 175.365625 41.3 
L 185.365625 41.3 
" style="fill: none; stroke: #ec5d57; stroke-width: 3"/>
    </g>
    <g id="LineCollection_16">
     <path d="M 180.365625 46.3 
L 180.365625 36.3 
" style="fill: none; stroke: #ec5d57; stroke-width: 3"/>
    </g>
    <g id="line2d_119">
     <path d="M 170.365625 41.3 
L 190.365625 41.3 
" style="fill: none; stroke: #ec5d57; stroke-width: 1.5; stroke-linecap: square"/>
    </g>
    <g id="line2d_120">
     <defs>
      <path id="me78740e545" d="M 0 4 
C 1.060812 4 2.078319 3.578535 2.828427 2.828427 
C 3.578535 2.078319 4 1.060812 4 0 
C 4 -1.060812 3.578535 -2.078319 2.828427 -2.828427 
C 2.078319 -3.578535 1.060812 -4 0 -4 
C -1.060812 -4 -2.078319 -3.578535 -2.828427 -2.828427 
C -3.578535 -2.078319 -4 -1.060812 -4 0 
C -4 1.060812 -3.578535 2.078319 -2.828427 2.828427 
C -2.078319 3.578535 -1.060812 4 0 4 
z
" style="stroke: #ffffff; stroke-width: 2"/>
     </defs>
     <g>
      <use xlink:href="#me78740e545" x="180.365625" y="41.3" style="fill: #ec5d57; stroke: #ffffff; stroke-width: 2"/>
     </g>
    </g>
    <g id="text_21">
     <!-- $a_{15}(l_F^{\rm phys},s_F)$ -->
     <g transform="translate(198.365625 44.8) scale(0.1 -0.1)">
      <use xlink:href="#DejaVuSans-Oblique-61" transform="translate(0 0.0625)"/>
      <use xlink:href="#DejaVuSans-31" transform="translate(61.279297 -16.34375) scale(0.7)"/>
      <use xlink:href="#DejaVuSans-35" transform="translate(105.81543 -16.34375) scale(0.7)"/>
      <use xlink:href="#DejaVuSans-28" transform="translate(153.085938 0.0625)"/>
      <use xlink:href="#DejaVuSans-Oblique-6c" transform="translate(192.099609 0.0625)"/>
      <use xlink:href="#DejaVuSans-70" transform="translate(227.330521 50.810938) scale(0.7)"/>
      <use xlink:href="#DejaVuSans-68" transform="translate(271.764115 50.810938) scale(0.7)"/>
      <use xlink:href="#DejaVuSans-79" transform="translate(316.129349 50.810938) scale(0.7)"/>
      <use xlink:href="#DejaVuSans-73" transform="translate(357.55513 50.810938) scale(0.7)"/>
      <use xlink:href="#DejaVuSans-Oblique-46" transform="translate(219.882812 -27.28125) scale(0.7)"/>
      <use xlink:href="#DejaVuSans-2c" transform="translate(396.759232 0.0625)"/>
      <use xlink:href="#DejaVuSans-Oblique-73" transform="translate(448.028763 0.0625)"/>
      <use xlink:href="#DejaVuSans-Oblique-46" transform="translate(500.128372 -16.34375) scale(0.7)"/>
      <use xlink:href="#DejaVuSans-29" transform="translate(543.126419 0.0625)"/>
     </g>
    </g>
   </g>
  </g>
 </g>
 <defs>
  <clipPath id="pec0ad39cac">
   <rect x="55.065625" y="7.2" width="391.68" height="293.76"/>
  </clipPath>
 </defs>
 <defs>
  <pattern id="h44316b0264" patternUnits="userSpaceOnUse" x="0" y="0" width="72" height="72">
   <rect x="0" y="0" width="73" height="73" fill="none"/>
   <path d="M -36 36 
L 36 -36 
M -24 48 
L 48 -24 
M -12 60 
L 60 -12 
M 0 72 
L 72 0 
M 12 84 
L 84 12 
M 24 96 
L 96 24 
M 36 108 
L 108 36 
" style="fill: #000000; stroke: #000000; stroke-width: 1.0; stroke-linecap: butt; stroke-linejoin: miter; stroke-opacity: 0.6"/>
  </pattern>
 </defs>
</svg>
