<?xml version="1.0" encoding="utf-8" standalone="no"?>
<!DOCTYPE svg PUBLIC "-//W3C//DTD SVG 1.1//EN"
  "http://www.w3.org/Graphics/SVG/1.1/DTD/svg11.dtd">
<svg xmlns:xlink="http://www.w3.org/1999/xlink" width="453.945625pt" height="340.838125pt" viewBox="0 0 453.945625 340.838125" xmlns="http://www.w3.org/2000/svg" version="1.1">
 <metadata>
  <rdf:RDF xmlns:dc="http://purl.org/dc/elements/1.1/" xmlns:cc="http://creativecommons.org/ns#" xmlns:rdf="http://www.w3.org/1999/02/22-rdf-syntax-ns#">
   <cc:Work>
    <dc:type rdf:resource="http://purl.org/dc/dcmitype/StillImage"/>
    <dc:date>2025-03-01T16:24:56.575959</dc:date>
    <dc:format>image/svg+xml</dc:format>
    <dc:creator>
     <cc:Agent>
      <dc:title>Matplotlib v3.10.0, https://matplotlib.org/</dc:title>
     </cc:Agent>
    </dc:creator>
   </cc:Work>
  </rdf:RDF>
 </metadata>
 <defs>
  <style type="text/css">*{stroke-linejoin: round; stroke-linecap: butt}</style>
 </defs>
 <g id="figure_1">
  <g id="patch_1">
   <path d="M 0 340.838125 
L 453.945625 340.838125 
L 453.945625 0 
L 0 0 
z
" style="fill: #ffffff"/>
  </g>
  <g id="axes_1">
   <g id="patch_2">
    <path d="M 55.065625 300.96 
L 446.745625 300.96 
L 446.745625 7.2 
L 55.065625 7.2 
z
" style="fill: #ffffff"/>
   </g>
   <g id="FillBetweenPolyCollection_1">
    <path d="M 72.869261 267.585178 
L 72.869261 287.607273 
L 80.11037 284.223175 
L 87.351478 280.883402 
L 94.592586 277.585555 
L 101.833694 274.328564 
L 109.074802 271.111796 
L 116.31591 267.934781 
L 123.557019 264.797068 
L 130.798127 261.698134 
L 138.039235 258.637327 
L 145.280343 255.613826 
L 152.521451 252.626631 
L 159.76256 249.674558 
L 167.003668 246.75626 
L 174.244776 243.870251 
L 181.485884 241.014944 
L 188.726992 238.188685 
L 195.968101 235.389798 
L 203.209209 232.616614 
L 210.450317 229.867504 
L 217.691425 227.140902 
L 224.932533 224.435326 
L 232.173641 221.749385 
L 239.41475 219.081791 
L 246.655858 216.431361 
L 253.896966 213.797013 
L 261.138074 211.177766 
L 268.379182 208.572736 
L 275.620291 205.981128 
L 282.861399 203.402228 
L 290.102507 200.835402 
L 297.343615 198.280083 
L 304.584723 195.735768 
L 311.825832 193.202012 
L 319.06694 190.678419 
L 326.308048 188.16464 
L 333.549156 185.660368 
L 340.790264 183.16533 
L 348.031373 180.679288 
L 355.272481 178.202032 
L 362.513589 175.733377 
L 369.754697 173.273161 
L 376.995805 170.821243 
L 384.236913 168.3775 
L 391.478022 165.941823 
L 398.71913 163.514119 
L 405.960238 161.094306 
L 413.201346 158.682314 
L 420.442454 156.278082 
L 427.683563 153.881559 
L 427.683563 116.01518 
L 427.683563 116.01518 
L 420.442454 119.236694 
L 413.201346 122.456985 
L 405.960238 125.67609 
L 398.71913 128.894041 
L 391.478022 132.110862 
L 384.236913 135.326567 
L 376.995805 138.541161 
L 369.754697 141.754637 
L 362.513589 144.966972 
L 355.272481 148.17813 
L 348.031373 151.388057 
L 340.790264 154.596676 
L 333.549156 157.803891 
L 326.308048 161.009576 
L 319.06694 164.213578 
L 311.825832 167.41571 
L 304.584723 170.615747 
L 297.343615 173.813421 
L 290.102507 177.008418 
L 282.861399 180.200371 
L 275.620291 183.388852 
L 268.379182 186.57337 
L 261.138074 189.753361 
L 253.896966 192.928185 
L 246.655858 196.097116 
L 239.41475 199.259339 
L 232.173641 202.413946 
L 224.932533 205.559932 
L 217.691425 208.696196 
L 210.450317 211.821546 
L 203.209209 214.934703 
L 195.968101 218.034319 
L 188.726992 221.118993 
L 181.485884 224.187297 
L 174.244776 227.237811 
L 167.003668 230.269157 
L 159.76256 233.28004 
L 152.521451 236.269292 
L 145.280343 239.235907 
L 138.039235 242.17908 
L 130.798127 245.098223 
L 123.557019 247.992981 
L 116.31591 250.863227 
L 109.074802 253.709045 
L 101.833694 256.530702 
L 94.592586 259.32861 
L 87.351478 262.103278 
L 80.11037 264.855267 
L 72.869261 267.585178 
z
" clip-path="url(#pbcfe7958ae)" style="fill: url(#h6731f4cb33); stroke: #000000; stroke-opacity: 0.6"/>
   </g>
   <g id="FillBetweenPolyCollection_2">
    <defs>
     <path id="m83b6e5de99" d="M 72.869261 -206.293025 
L 72.869261 -194.923005 
L 80.11037 -197.744115 
L 87.351478 -200.526952 
L 94.592586 -203.273965 
L 101.833694 -205.984976 
L 109.074802 -208.658069 
L 116.31591 -211.289503 
L 123.557019 -213.873394 
L 130.798127 -216.401414 
L 138.039235 -218.863017 
L 145.280343 -221.246993 
L 152.521451 -223.544868 
L 159.76256 -225.755008 
L 167.003668 -227.884316 
L 174.244776 -229.945801 
L 181.485884 -231.95418 
L 188.726992 -233.922593 
L 195.968101 -235.861375 
L 203.209209 -237.778128 
L 210.450317 -239.678275 
L 217.691425 -241.56564 
L 224.932533 -243.442919 
L 232.173641 -245.312014 
L 239.41475 -247.174272 
L 246.655858 -249.030649 
L 253.896966 -250.88182 
L 261.138074 -252.728257 
L 268.379182 -254.570282 
L 275.620291 -256.408109 
L 282.861399 -258.241869 
L 290.102507 -260.071627 
L 297.343615 -261.897404 
L 304.584723 -263.719183 
L 311.825832 -265.536917 
L 319.06694 -267.35054 
L 326.308048 -269.159967 
L 333.549156 -270.965099 
L 340.790264 -272.765829 
L 348.031373 -274.56204 
L 355.272481 -276.353611 
L 362.513589 -278.140416 
L 369.754697 -279.922326 
L 376.995805 -281.69921 
L 384.236913 -283.470938 
L 391.478022 -285.237377 
L 398.71913 -286.998397 
L 405.960238 -288.753866 
L 413.201346 -290.503657 
L 420.442454 -292.247641 
L 427.683563 -293.985696 
L 427.683563 -319.648726 
L 427.683563 -319.648726 
L 420.442454 -317.262997 
L 413.201346 -314.876425 
L 405.960238 -312.488794 
L 398.71913 -310.099884 
L 391.478022 -307.709474 
L 384.236913 -305.317335 
L 376.995805 -302.92324 
L 369.754697 -300.526956 
L 362.513589 -298.128249 
L 355.272481 -295.726885 
L 348.031373 -293.322627 
L 340.790264 -290.915241 
L 333.549156 -288.504492 
L 326.308048 -286.090151 
L 319.06694 -283.67199 
L 311.825832 -281.249792 
L 304.584723 -278.823346 
L 297.343615 -276.392459 
L 290.102507 -273.956953 
L 282.861399 -271.516675 
L 275.620291 -269.071507 
L 268.379182 -266.62137 
L 261.138074 -264.166246 
L 253.896966 -261.706195 
L 246.655858 -259.241379 
L 239.41475 -256.772105 
L 232.173641 -254.298874 
L 224.932533 -251.822464 
L 217.691425 -249.344034 
L 210.450317 -246.86529 
L 203.209209 -244.388721 
L 195.968101 -241.917935 
L 188.726992 -239.458128 
L 181.485884 -237.016659 
L 174.244776 -234.603607 
L 167.003668 -232.231839 
L 159.76256 -229.915776 
L 152.521451 -227.668112 
L 145.280343 -225.495406 
L 138.039235 -223.395649 
L 130.798127 -221.359952 
L 123.557019 -219.37664 
L 116.31591 -217.434642 
L 109.074802 -215.525023 
L 101.833694 -213.64118 
L 94.592586 -211.778493 
L 87.351478 -209.9339 
L 80.11037 -208.105593 
L 72.869261 -206.293025 
z
" style="stroke: #ec5d57; stroke-opacity: 0.4"/>
    </defs>
    <g clip-path="url(#pbcfe7958ae)">
     <use xlink:href="#m83b6e5de99" x="0" y="340.838125" style="fill: #ec5d57; fill-opacity: 0.4; stroke: #ec5d57; stroke-opacity: 0.4"/>
    </g>
   </g>
   <g id="FillBetweenPolyCollection_3">
    <defs>
     <path id="m66e45ab137" d="M 72.869261 -179.951648 
L 72.869261 -172.168251 
L 80.11037 -175.155244 
L 87.351478 -178.089957 
L 94.592586 -180.969859 
L 101.833694 -183.787402 
L 109.074802 -186.531112 
L 116.31591 -189.187407 
L 123.557019 -191.745309 
L 130.798127 -194.202918 
L 138.039235 -196.570268 
L 145.280343 -198.865215 
L 152.521451 -201.106613 
L 159.76256 -203.310077 
L 167.003668 -205.487045 
L 174.244776 -207.645433 
L 181.485884 -209.790604 
L 188.726992 -211.926182 
L 195.968101 -214.054621 
L 203.209209 -216.177595 
L 210.450317 -218.296245 
L 217.691425 -220.411349 
L 224.932533 -222.523426 
L 232.173641 -224.632814 
L 239.41475 -226.73972 
L 246.655858 -228.844252 
L 253.896966 -230.94645 
L 261.138074 -233.046297 
L 268.379182 -235.143735 
L 275.620291 -237.238676 
L 282.861399 -239.331006 
L 290.102507 -241.420594 
L 297.343615 -243.507293 
L 304.584723 -245.590945 
L 311.825832 -247.671383 
L 319.06694 -249.748435 
L 326.308048 -251.821921 
L 333.549156 -253.891661 
L 340.790264 -255.957469 
L 348.031373 -258.019162 
L 355.272481 -260.076551 
L 362.513589 -262.129453 
L 369.754697 -264.177681 
L 376.995805 -266.221052 
L 384.236913 -268.259385 
L 391.478022 -270.2925 
L 398.71913 -272.32022 
L 405.960238 -274.342372 
L 413.201346 -276.358787 
L 420.442454 -278.369296 
L 427.683563 -280.373739 
L 427.683563 -305.875483 
L 427.683563 -305.875483 
L 420.442454 -303.311002 
L 413.201346 -300.745901 
L 405.960238 -298.179925 
L 398.71913 -295.612816 
L 391.478022 -293.04431 
L 384.236913 -290.474136 
L 376.995805 -287.902021 
L 369.754697 -285.327684 
L 362.513589 -282.750843 
L 355.272481 -280.171207 
L 348.031373 -277.588487 
L 340.790264 -275.002386 
L 333.549156 -272.412607 
L 326.308048 -269.818848 
L 319.06694 -267.220809 
L 311.825832 -264.618186 
L 304.584723 -262.010678 
L 297.343615 -259.397983 
L 290.102507 -256.779804 
L 282.861399 -254.155847 
L 275.620291 -251.525826 
L 268.379182 -248.889465 
L 261.138074 -246.246502 
L 253.896966 -243.596694 
L 246.655858 -240.939825 
L 239.41475 -238.275712 
L 232.173641 -235.604221 
L 224.932533 -232.925281 
L 217.691425 -230.238912 
L 210.450317 -227.545255 
L 203.209209 -224.844624 
L 195.968101 -222.13758 
L 188.726992 -219.425036 
L 181.485884 -216.708424 
L 174.244776 -213.989942 
L 167.003668 -211.27294 
L 159.76256 -208.562487 
L 152.521451 -205.866183 
L 145.280343 -203.195121 
L 138.039235 -200.564543 
L 130.798127 -197.992884 
L 123.557019 -195.49754 
L 116.31591 -193.088018 
L 109.074802 -190.76181 
L 101.833694 -188.507221 
L 94.592586 -186.309787 
L 87.351478 -184.156891 
L 80.11037 -182.039354 
L 72.869261 -179.951648 
z
" style="stroke: #70bf41; stroke-opacity: 0.4"/>
    </defs>
    <g clip-path="url(#pbcfe7958ae)">
     <use xlink:href="#m66e45ab137" x="0" y="340.838125" style="fill: #70bf41; fill-opacity: 0.4; stroke: #70bf41; stroke-opacity: 0.4"/>
    </g>
   </g>
   <g id="FillBetweenPolyCollection_4">
    <defs>
     <path id="m62f09043c4" d="M 72.869261 -142.094908 
L 72.869261 -133.183368 
L 80.11037 -136.325876 
L 87.351478 -139.40906 
L 94.592586 -142.431263 
L 101.833694 -145.388402 
L 109.074802 -148.275985 
L 116.31591 -151.090705 
L 123.557019 -153.831958 
L 130.798127 -156.502737 
L 138.039235 -159.109426 
L 145.280343 -161.660612 
L 152.521451 -164.165562 
L 159.76256 -166.633011 
L 167.003668 -169.070499 
L 174.244776 -171.484183 
L 181.485884 -173.878916 
L 188.726992 -176.258448 
L 195.968101 -178.625644 
L 203.209209 -180.982679 
L 210.450317 -183.331199 
L 217.691425 -185.672445 
L 224.932533 -188.007352 
L 232.173641 -190.336617 
L 239.41475 -192.660758 
L 246.655858 -194.980151 
L 253.896966 -197.295064 
L 261.138074 -199.60568 
L 268.379182 -201.912113 
L 275.620291 -204.214425 
L 282.861399 -206.512636 
L 290.102507 -208.80673 
L 297.343615 -211.096666 
L 304.584723 -213.382381 
L 311.825832 -215.663794 
L 319.06694 -217.94081 
L 326.308048 -220.213323 
L 333.549156 -222.481219 
L 340.790264 -224.744376 
L 348.031373 -227.002669 
L 355.272481 -229.255968 
L 362.513589 -231.50414 
L 369.754697 -233.747052 
L 376.995805 -235.984568 
L 384.236913 -238.216553 
L 391.478022 -240.442875 
L 398.71913 -242.663399 
L 405.960238 -244.877995 
L 413.201346 -247.086533 
L 420.442454 -249.288886 
L 427.683563 -251.48493 
L 427.683563 -279.596887 
L 427.683563 -279.596887 
L 420.442454 -276.779608 
L 413.201346 -273.962037 
L 405.960238 -271.143958 
L 398.71913 -268.325152 
L 391.478022 -265.505394 
L 384.236913 -262.684459 
L 376.995805 -259.862114 
L 369.754697 -257.038126 
L 362.513589 -254.212258 
L 355.272481 -251.38427 
L 348.031373 -248.553921 
L 340.790264 -245.720969 
L 333.549156 -242.885174 
L 326.308048 -240.046292 
L 319.06694 -237.204087 
L 311.825832 -234.358322 
L 304.584723 -231.508767 
L 297.343615 -228.655201 
L 290.102507 -225.797411 
L 282.861399 -222.935198 
L 275.620291 -220.068382 
L 268.379182 -217.196803 
L 261.138074 -214.320331 
L 253.896966 -211.438876 
L 246.655858 -208.552391 
L 239.41475 -205.660894 
L 232.173641 -202.764479 
L 224.932533 -199.863344 
L 217.691425 -196.957818 
L 210.450317 -194.048404 
L 203.209209 -191.135829 
L 195.968101 -188.221118 
L 188.726992 -185.30569 
L 181.485884 -182.391477 
L 174.244776 -179.481088 
L 167.003668 -176.577999 
L 159.76256 -173.686769 
L 152.521451 -170.813239 
L 145.280343 -167.964606 
L 138.039235 -165.149227 
L 130.798127 -162.375957 
L 123.557019 -159.652917 
L 116.31591 -156.985965 
L 109.074802 -154.37749 
L 101.833694 -151.826166 
L 94.592586 -149.327806 
L 87.351478 -146.876777 
L 80.11037 -144.467363 
L 72.869261 -142.094908 
z
" style="stroke: #51a7f9; stroke-opacity: 0.4"/>
    </defs>
    <g clip-path="url(#pbcfe7958ae)">
     <use xlink:href="#m62f09043c4" x="0" y="340.838125" style="fill: #51a7f9; fill-opacity: 0.4; stroke: #51a7f9; stroke-opacity: 0.4"/>
    </g>
   </g>
   <g id="FillBetweenPolyCollection_5">
    <defs>
     <path id="mc2ee005eaa" d="M 72.869261 -107.250348 
L 72.869261 -94.00758 
L 80.11037 -97.279522 
L 87.351478 -100.500103 
L 94.592586 -103.67075 
L 101.833694 -106.791328 
L 109.074802 -109.861306 
L 116.31591 -112.880236 
L 123.557019 -115.848081 
L 130.798127 -118.76545 
L 138.039235 -121.633726 
L 145.280343 -124.455078 
L 152.521451 -127.232363 
L 159.76256 -129.968944 
L 167.003668 -132.668464 
L 174.244776 -135.334636 
L 181.485884 -137.971064 
L 188.726992 -140.581114 
L 195.968101 -143.167838 
L 203.209209 -145.733943 
L 210.450317 -148.281787 
L 217.691425 -150.813397 
L 224.932533 -153.330499 
L 232.173641 -155.834553 
L 239.41475 -158.326782 
L 246.655858 -160.808212 
L 253.896966 -163.279694 
L 261.138074 -165.741938 
L 268.379182 -168.195526 
L 275.620291 -170.640943 
L 282.861399 -173.078581 
L 290.102507 -175.508763 
L 297.343615 -177.931748 
L 304.584723 -180.347745 
L 311.825832 -182.756916 
L 319.06694 -185.15939 
L 326.308048 -187.555264 
L 333.549156 -189.944607 
L 340.790264 -192.327467 
L 348.031373 -194.703874 
L 355.272481 -197.073843 
L 362.513589 -199.437374 
L 369.754697 -201.794458 
L 376.995805 -204.145075 
L 384.236913 -206.489199 
L 391.478022 -208.826797 
L 398.71913 -211.157832 
L 405.960238 -213.482263 
L 413.201346 -215.800043 
L 420.442454 -218.111127 
L 427.683563 -220.415465 
L 427.683563 -252.56643 
L 427.683563 -252.56643 
L 420.442454 -249.531011 
L 413.201346 -246.4958 
L 405.960238 -243.460657 
L 398.71913 -240.425442 
L 391.478022 -237.390016 
L 384.236913 -234.354242 
L 376.995805 -231.317983 
L 369.754697 -228.281108 
L 362.513589 -225.243486 
L 355.272481 -222.204996 
L 348.031373 -219.165519 
L 340.790264 -216.124948 
L 333.549156 -213.083184 
L 326.308048 -210.040143 
L 319.06694 -206.995755 
L 311.825832 -203.949969 
L 304.584723 -200.902758 
L 297.343615 -197.854121 
L 290.102507 -194.804091 
L 282.861399 -191.752741 
L 275.620291 -188.700191 
L 268.379182 -185.646619 
L 261.138074 -182.592269 
L 253.896966 -179.537471 
L 246.655858 -176.482649 
L 239.41475 -173.428345 
L 232.173641 -170.375239 
L 224.932533 -167.324177 
L 217.691425 -164.276195 
L 210.450317 -161.232556 
L 203.209209 -158.19478 
L 195.968101 -155.164678 
L 188.726992 -152.14438 
L 181.485884 -149.136351 
L 174.244776 -146.143387 
L 167.003668 -143.16858 
L 159.76256 -140.215239 
L 152.521451 -137.286761 
L 145.280343 -134.386448 
L 138.039235 -131.517284 
L 130.798127 -128.681711 
L 123.557019 -125.881436 
L 116.31591 -123.117316 
L 109.074802 -120.389353 
L 101.833694 -117.69679 
L 94.592586 -115.0383 
L 87.351478 -112.412208 
L 80.11037 -109.816747 
L 72.869261 -107.250348 
z
" style="stroke: #6a5acd; stroke-opacity: 0.4"/>
    </defs>
    <g clip-path="url(#pbcfe7958ae)">
     <use xlink:href="#mc2ee005eaa" x="0" y="340.838125" style="fill: #6a5acd; fill-opacity: 0.4; stroke: #6a5acd; stroke-opacity: 0.4"/>
    </g>
   </g>
   <g id="matplotlib.axis_1">
    <g id="xtick_1">
     <g id="line2d_1">
      <defs>
       <path id="mf8e49fb491" d="M 0 0 
L 0 3.5 
" style="stroke: #000000; stroke-width: 0.8"/>
      </defs>
      <g>
       <use xlink:href="#mf8e49fb491" x="72.483848" y="300.96" style="stroke: #000000; stroke-width: 0.8"/>
      </g>
     </g>
     <g id="text_1">
      <!-- 0.00 -->
      <g transform="translate(61.351035 315.558437) scale(0.1 -0.1)">
       <defs>
        <path id="DejaVuSans-30" d="M 2034 4250 
Q 1547 4250 1301 3770 
Q 1056 3291 1056 2328 
Q 1056 1369 1301 889 
Q 1547 409 2034 409 
Q 2525 409 2770 889 
Q 3016 1369 3016 2328 
Q 3016 3291 2770 3770 
Q 2525 4250 2034 4250 
z
M 2034 4750 
Q 2819 4750 3233 4129 
Q 3647 3509 3647 2328 
Q 3647 1150 3233 529 
Q 2819 -91 2034 -91 
Q 1250 -91 836 529 
Q 422 1150 422 2328 
Q 422 3509 836 4129 
Q 1250 4750 2034 4750 
z
" transform="scale(0.015625)"/>
        <path id="DejaVuSans-2e" d="M 684 794 
L 1344 794 
L 1344 0 
L 684 0 
L 684 794 
z
" transform="scale(0.015625)"/>
       </defs>
       <use xlink:href="#DejaVuSans-30"/>
       <use xlink:href="#DejaVuSans-2e" transform="translate(63.623047 0)"/>
       <use xlink:href="#DejaVuSans-30" transform="translate(95.410156 0)"/>
       <use xlink:href="#DejaVuSans-30" transform="translate(159.033203 0)"/>
      </g>
     </g>
    </g>
    <g id="xtick_2">
     <g id="line2d_2">
      <g>
       <use xlink:href="#mf8e49fb491" x="149.566601" y="300.96" style="stroke: #000000; stroke-width: 0.8"/>
      </g>
     </g>
     <g id="text_2">
      <!-- 0.02 -->
      <g transform="translate(138.433789 315.558437) scale(0.1 -0.1)">
       <defs>
        <path id="DejaVuSans-32" d="M 1228 531 
L 3431 531 
L 3431 0 
L 469 0 
L 469 531 
Q 828 903 1448 1529 
Q 2069 2156 2228 2338 
Q 2531 2678 2651 2914 
Q 2772 3150 2772 3378 
Q 2772 3750 2511 3984 
Q 2250 4219 1831 4219 
Q 1534 4219 1204 4116 
Q 875 4013 500 3803 
L 500 4441 
Q 881 4594 1212 4672 
Q 1544 4750 1819 4750 
Q 2544 4750 2975 4387 
Q 3406 4025 3406 3419 
Q 3406 3131 3298 2873 
Q 3191 2616 2906 2266 
Q 2828 2175 2409 1742 
Q 1991 1309 1228 531 
z
" transform="scale(0.015625)"/>
       </defs>
       <use xlink:href="#DejaVuSans-30"/>
       <use xlink:href="#DejaVuSans-2e" transform="translate(63.623047 0)"/>
       <use xlink:href="#DejaVuSans-30" transform="translate(95.410156 0)"/>
       <use xlink:href="#DejaVuSans-32" transform="translate(159.033203 0)"/>
      </g>
     </g>
    </g>
    <g id="xtick_3">
     <g id="line2d_3">
      <g>
       <use xlink:href="#mf8e49fb491" x="226.649355" y="300.96" style="stroke: #000000; stroke-width: 0.8"/>
      </g>
     </g>
     <g id="text_3">
      <!-- 0.04 -->
      <g transform="translate(215.516543 315.558437) scale(0.1 -0.1)">
       <defs>
        <path id="DejaVuSans-34" d="M 2419 4116 
L 825 1625 
L 2419 1625 
L 2419 4116 
z
M 2253 4666 
L 3047 4666 
L 3047 1625 
L 3713 1625 
L 3713 1100 
L 3047 1100 
L 3047 0 
L 2419 0 
L 2419 1100 
L 313 1100 
L 313 1709 
L 2253 4666 
z
" transform="scale(0.015625)"/>
       </defs>
       <use xlink:href="#DejaVuSans-30"/>
       <use xlink:href="#DejaVuSans-2e" transform="translate(63.623047 0)"/>
       <use xlink:href="#DejaVuSans-30" transform="translate(95.410156 0)"/>
       <use xlink:href="#DejaVuSans-34" transform="translate(159.033203 0)"/>
      </g>
     </g>
    </g>
    <g id="xtick_4">
     <g id="line2d_4">
      <g>
       <use xlink:href="#mf8e49fb491" x="303.732109" y="300.96" style="stroke: #000000; stroke-width: 0.8"/>
      </g>
     </g>
     <g id="text_4">
      <!-- 0.06 -->
      <g transform="translate(292.599296 315.558437) scale(0.1 -0.1)">
       <defs>
        <path id="DejaVuSans-36" d="M 2113 2584 
Q 1688 2584 1439 2293 
Q 1191 2003 1191 1497 
Q 1191 994 1439 701 
Q 1688 409 2113 409 
Q 2538 409 2786 701 
Q 3034 994 3034 1497 
Q 3034 2003 2786 2293 
Q 2538 2584 2113 2584 
z
M 3366 4563 
L 3366 3988 
Q 3128 4100 2886 4159 
Q 2644 4219 2406 4219 
Q 1781 4219 1451 3797 
Q 1122 3375 1075 2522 
Q 1259 2794 1537 2939 
Q 1816 3084 2150 3084 
Q 2853 3084 3261 2657 
Q 3669 2231 3669 1497 
Q 3669 778 3244 343 
Q 2819 -91 2113 -91 
Q 1303 -91 875 529 
Q 447 1150 447 2328 
Q 447 3434 972 4092 
Q 1497 4750 2381 4750 
Q 2619 4750 2861 4703 
Q 3103 4656 3366 4563 
z
" transform="scale(0.015625)"/>
       </defs>
       <use xlink:href="#DejaVuSans-30"/>
       <use xlink:href="#DejaVuSans-2e" transform="translate(63.623047 0)"/>
       <use xlink:href="#DejaVuSans-30" transform="translate(95.410156 0)"/>
       <use xlink:href="#DejaVuSans-36" transform="translate(159.033203 0)"/>
      </g>
     </g>
    </g>
    <g id="xtick_5">
     <g id="line2d_5">
      <g>
       <use xlink:href="#mf8e49fb491" x="380.814862" y="300.96" style="stroke: #000000; stroke-width: 0.8"/>
      </g>
     </g>
     <g id="text_5">
      <!-- 0.08 -->
      <g transform="translate(369.68205 315.558437) scale(0.1 -0.1)">
       <defs>
        <path id="DejaVuSans-38" d="M 2034 2216 
Q 1584 2216 1326 1975 
Q 1069 1734 1069 1313 
Q 1069 891 1326 650 
Q 1584 409 2034 409 
Q 2484 409 2743 651 
Q 3003 894 3003 1313 
Q 3003 1734 2745 1975 
Q 2488 2216 2034 2216 
z
M 1403 2484 
Q 997 2584 770 2862 
Q 544 3141 544 3541 
Q 544 4100 942 4425 
Q 1341 4750 2034 4750 
Q 2731 4750 3128 4425 
Q 3525 4100 3525 3541 
Q 3525 3141 3298 2862 
Q 3072 2584 2669 2484 
Q 3125 2378 3379 2068 
Q 3634 1759 3634 1313 
Q 3634 634 3220 271 
Q 2806 -91 2034 -91 
Q 1263 -91 848 271 
Q 434 634 434 1313 
Q 434 1759 690 2068 
Q 947 2378 1403 2484 
z
M 1172 3481 
Q 1172 3119 1398 2916 
Q 1625 2713 2034 2713 
Q 2441 2713 2670 2916 
Q 2900 3119 2900 3481 
Q 2900 3844 2670 4047 
Q 2441 4250 2034 4250 
Q 1625 4250 1398 4047 
Q 1172 3844 1172 3481 
z
" transform="scale(0.015625)"/>
       </defs>
       <use xlink:href="#DejaVuSans-30"/>
       <use xlink:href="#DejaVuSans-2e" transform="translate(63.623047 0)"/>
       <use xlink:href="#DejaVuSans-30" transform="translate(95.410156 0)"/>
       <use xlink:href="#DejaVuSans-38" transform="translate(159.033203 0)"/>
      </g>
     </g>
    </g>
    <g id="text_6">
     <!-- $l^2_F = m_\pi^2 / (4 \pi F_\pi)^2$ -->
     <g transform="translate(213.855625 330.738125) scale(0.1 -0.1)">
      <defs>
       <path id="DejaVuSans-Oblique-6c" d="M 1172 4863 
L 1747 4863 
L 800 0 
L 225 0 
L 1172 4863 
z
" transform="scale(0.015625)"/>
       <path id="DejaVuSans-Oblique-46" d="M 1081 4666 
L 3756 4666 
L 3653 4134 
L 1606 4134 
L 1338 2759 
L 3188 2759 
L 3084 2228 
L 1234 2228 
L 800 0 
L 172 0 
L 1081 4666 
z
" transform="scale(0.015625)"/>
       <path id="DejaVuSans-3d" d="M 678 2906 
L 4684 2906 
L 4684 2381 
L 678 2381 
L 678 2906 
z
M 678 1631 
L 4684 1631 
L 4684 1100 
L 678 1100 
L 678 1631 
z
" transform="scale(0.015625)"/>
       <path id="DejaVuSans-Oblique-6d" d="M 5747 2113 
L 5338 0 
L 4763 0 
L 5166 2094 
Q 5191 2228 5203 2325 
Q 5216 2422 5216 2491 
Q 5216 2772 5059 2928 
Q 4903 3084 4622 3084 
Q 4203 3084 3875 2770 
Q 3547 2456 3450 1953 
L 3066 0 
L 2491 0 
L 2900 2094 
Q 2925 2209 2937 2307 
Q 2950 2406 2950 2484 
Q 2950 2769 2794 2926 
Q 2638 3084 2363 3084 
Q 1938 3084 1609 2770 
Q 1281 2456 1184 1953 
L 800 0 
L 225 0 
L 909 3500 
L 1484 3500 
L 1375 2956 
Q 1609 3263 1923 3423 
Q 2238 3584 2597 3584 
Q 2978 3584 3223 3384 
Q 3469 3184 3519 2828 
Q 3781 3197 4126 3390 
Q 4472 3584 4856 3584 
Q 5306 3584 5551 3325 
Q 5797 3066 5797 2591 
Q 5797 2488 5784 2364 
Q 5772 2241 5747 2113 
z
" transform="scale(0.015625)"/>
       <path id="DejaVuSans-Oblique-3c0" d="M 584 3500 
L 3938 3500 
L 3825 2925 
L 3384 2925 
L 2966 775 
Q 2922 550 2981 450 
Q 3038 353 3209 353 
Q 3256 353 3325 363 
Q 3397 369 3419 372 
L 3338 -44 
Q 3222 -84 3103 -103 
Q 2981 -122 2866 -122 
Q 2491 -122 2388 81 
Q 2284 288 2391 838 
L 2797 2925 
L 1506 2925 
L 938 0 
L 350 0 
L 919 2925 
L 472 2925 
L 584 3500 
z
" transform="scale(0.015625)"/>
       <path id="DejaVuSans-2f" d="M 1625 4666 
L 2156 4666 
L 531 -594 
L 0 -594 
L 1625 4666 
z
" transform="scale(0.015625)"/>
       <path id="DejaVuSans-28" d="M 1984 4856 
Q 1566 4138 1362 3434 
Q 1159 2731 1159 2009 
Q 1159 1288 1364 580 
Q 1569 -128 1984 -844 
L 1484 -844 
Q 1016 -109 783 600 
Q 550 1309 550 2009 
Q 550 2706 781 3412 
Q 1013 4119 1484 4856 
L 1984 4856 
z
" transform="scale(0.015625)"/>
       <path id="DejaVuSans-29" d="M 513 4856 
L 1013 4856 
Q 1481 4119 1714 3412 
Q 1947 2706 1947 2009 
Q 1947 1309 1714 600 
Q 1481 -109 1013 -844 
L 513 -844 
Q 928 -128 1133 580 
Q 1338 1288 1338 2009 
Q 1338 2731 1133 3434 
Q 928 4138 513 4856 
z
" transform="scale(0.015625)"/>
      </defs>
      <use xlink:href="#DejaVuSans-Oblique-6c" transform="translate(0 0.765625)"/>
      <use xlink:href="#DejaVuSans-32" transform="translate(35.230911 39.046875) scale(0.7)"/>
      <use xlink:href="#DejaVuSans-Oblique-46" transform="translate(27.783203 -26.578125) scale(0.7)"/>
      <use xlink:href="#DejaVuSans-3d" transform="translate(101.983841 0.765625)"/>
      <use xlink:href="#DejaVuSans-Oblique-6d" transform="translate(205.255326 0.765625)"/>
      <use xlink:href="#DejaVuSans-32" transform="translate(307.317331 39.046875) scale(0.7)"/>
      <use xlink:href="#DejaVuSans-Oblique-3c0" transform="translate(302.667435 -26.578125) scale(0.7)"/>
      <use xlink:href="#DejaVuSans-2f" transform="translate(354.587839 0.765625)"/>
      <use xlink:href="#DejaVuSans-28" transform="translate(388.279245 0.765625)"/>
      <use xlink:href="#DejaVuSans-34" transform="translate(427.292917 0.765625)"/>
      <use xlink:href="#DejaVuSans-Oblique-3c0" transform="translate(490.915964 0.765625)"/>
      <use xlink:href="#DejaVuSans-Oblique-46" transform="translate(551.121042 0.765625)"/>
      <use xlink:href="#DejaVuSans-Oblique-3c0" transform="translate(608.640573 -15.640625) scale(0.7)"/>
      <use xlink:href="#DejaVuSans-29" transform="translate(653.518503 0.765625)"/>
      <use xlink:href="#DejaVuSans-32" transform="translate(693.489206 39.046875) scale(0.7)"/>
     </g>
    </g>
   </g>
   <g id="matplotlib.axis_2">
    <g id="ytick_1">
     <g id="line2d_6">
      <defs>
       <path id="m72f92b3abf" d="M 0 0 
L -3.5 0 
" style="stroke: #000000; stroke-width: 0.8"/>
      </defs>
      <g>
       <use xlink:href="#m72f92b3abf" x="55.065625" y="265.40644" style="stroke: #000000; stroke-width: 0.8"/>
      </g>
     </g>
     <g id="text_7">
      <!-- 1.20 -->
      <g transform="translate(25.8 269.205659) scale(0.1 -0.1)">
       <defs>
        <path id="DejaVuSans-31" d="M 794 531 
L 1825 531 
L 1825 4091 
L 703 3866 
L 703 4441 
L 1819 4666 
L 2450 4666 
L 2450 531 
L 3481 531 
L 3481 0 
L 794 0 
L 794 531 
z
" transform="scale(0.015625)"/>
       </defs>
       <use xlink:href="#DejaVuSans-31"/>
       <use xlink:href="#DejaVuSans-2e" transform="translate(63.623047 0)"/>
       <use xlink:href="#DejaVuSans-32" transform="translate(95.410156 0)"/>
       <use xlink:href="#DejaVuSans-30" transform="translate(159.033203 0)"/>
      </g>
     </g>
    </g>
    <g id="ytick_2">
     <g id="line2d_7">
      <g>
       <use xlink:href="#m72f92b3abf" x="55.065625" y="214.588871" style="stroke: #000000; stroke-width: 0.8"/>
      </g>
     </g>
     <g id="text_8">
      <!-- 1.25 -->
      <g transform="translate(25.8 218.38809) scale(0.1 -0.1)">
       <defs>
        <path id="DejaVuSans-35" d="M 691 4666 
L 3169 4666 
L 3169 4134 
L 1269 4134 
L 1269 2991 
Q 1406 3038 1543 3061 
Q 1681 3084 1819 3084 
Q 2600 3084 3056 2656 
Q 3513 2228 3513 1497 
Q 3513 744 3044 326 
Q 2575 -91 1722 -91 
Q 1428 -91 1123 -41 
Q 819 9 494 109 
L 494 744 
Q 775 591 1075 516 
Q 1375 441 1709 441 
Q 2250 441 2565 725 
Q 2881 1009 2881 1497 
Q 2881 1984 2565 2268 
Q 2250 2553 1709 2553 
Q 1456 2553 1204 2497 
Q 953 2441 691 2322 
L 691 4666 
z
" transform="scale(0.015625)"/>
       </defs>
       <use xlink:href="#DejaVuSans-31"/>
       <use xlink:href="#DejaVuSans-2e" transform="translate(63.623047 0)"/>
       <use xlink:href="#DejaVuSans-32" transform="translate(95.410156 0)"/>
       <use xlink:href="#DejaVuSans-35" transform="translate(159.033203 0)"/>
      </g>
     </g>
    </g>
    <g id="ytick_3">
     <g id="line2d_8">
      <g>
       <use xlink:href="#m72f92b3abf" x="55.065625" y="163.771302" style="stroke: #000000; stroke-width: 0.8"/>
      </g>
     </g>
     <g id="text_9">
      <!-- 1.30 -->
      <g transform="translate(25.8 167.57052) scale(0.1 -0.1)">
       <defs>
        <path id="DejaVuSans-33" d="M 2597 2516 
Q 3050 2419 3304 2112 
Q 3559 1806 3559 1356 
Q 3559 666 3084 287 
Q 2609 -91 1734 -91 
Q 1441 -91 1130 -33 
Q 819 25 488 141 
L 488 750 
Q 750 597 1062 519 
Q 1375 441 1716 441 
Q 2309 441 2620 675 
Q 2931 909 2931 1356 
Q 2931 1769 2642 2001 
Q 2353 2234 1838 2234 
L 1294 2234 
L 1294 2753 
L 1863 2753 
Q 2328 2753 2575 2939 
Q 2822 3125 2822 3475 
Q 2822 3834 2567 4026 
Q 2313 4219 1838 4219 
Q 1578 4219 1281 4162 
Q 984 4106 628 3988 
L 628 4550 
Q 988 4650 1302 4700 
Q 1616 4750 1894 4750 
Q 2613 4750 3031 4423 
Q 3450 4097 3450 3541 
Q 3450 3153 3228 2886 
Q 3006 2619 2597 2516 
z
" transform="scale(0.015625)"/>
       </defs>
       <use xlink:href="#DejaVuSans-31"/>
       <use xlink:href="#DejaVuSans-2e" transform="translate(63.623047 0)"/>
       <use xlink:href="#DejaVuSans-33" transform="translate(95.410156 0)"/>
       <use xlink:href="#DejaVuSans-30" transform="translate(159.033203 0)"/>
      </g>
     </g>
    </g>
    <g id="ytick_4">
     <g id="line2d_9">
      <g>
       <use xlink:href="#m72f92b3abf" x="55.065625" y="112.953732" style="stroke: #000000; stroke-width: 0.8"/>
      </g>
     </g>
     <g id="text_10">
      <!-- 1.35 -->
      <g transform="translate(25.8 116.752951) scale(0.1 -0.1)">
       <use xlink:href="#DejaVuSans-31"/>
       <use xlink:href="#DejaVuSans-2e" transform="translate(63.623047 0)"/>
       <use xlink:href="#DejaVuSans-33" transform="translate(95.410156 0)"/>
       <use xlink:href="#DejaVuSans-35" transform="translate(159.033203 0)"/>
      </g>
     </g>
    </g>
    <g id="ytick_5">
     <g id="line2d_10">
      <g>
       <use xlink:href="#m72f92b3abf" x="55.065625" y="62.136163" style="stroke: #000000; stroke-width: 0.8"/>
      </g>
     </g>
     <g id="text_11">
      <!-- 1.40 -->
      <g transform="translate(25.8 65.935382) scale(0.1 -0.1)">
       <use xlink:href="#DejaVuSans-31"/>
       <use xlink:href="#DejaVuSans-2e" transform="translate(63.623047 0)"/>
       <use xlink:href="#DejaVuSans-34" transform="translate(95.410156 0)"/>
       <use xlink:href="#DejaVuSans-30" transform="translate(159.033203 0)"/>
      </g>
     </g>
    </g>
    <g id="ytick_6">
     <g id="line2d_11">
      <g>
       <use xlink:href="#m72f92b3abf" x="55.065625" y="11.318594" style="stroke: #000000; stroke-width: 0.8"/>
      </g>
     </g>
     <g id="text_12">
      <!-- 1.45 -->
      <g transform="translate(25.8 15.117812) scale(0.1 -0.1)">
       <use xlink:href="#DejaVuSans-31"/>
       <use xlink:href="#DejaVuSans-2e" transform="translate(63.623047 0)"/>
       <use xlink:href="#DejaVuSans-34" transform="translate(95.410156 0)"/>
       <use xlink:href="#DejaVuSans-35" transform="translate(159.033203 0)"/>
      </g>
     </g>
    </g>
    <g id="text_13">
     <!-- $m_\Omega \sqrt{t_0 / a^2}$ -->
     <g transform="translate(19.720313 178.68) rotate(-90) scale(0.1 -0.1)">
      <defs>
       <path id="DejaVuSans-3a9" d="M 4647 556 
L 4647 0 
L 2772 0 
L 2772 556 
Q 3325 859 3634 1378 
Q 3944 1897 3944 2528 
Q 3944 3278 3531 3731 
Q 3119 4184 2444 4184 
Q 1769 4184 1355 3729 
Q 941 3275 941 2528 
Q 941 1897 1250 1378 
Q 1563 859 2119 556 
L 2119 0 
L 244 0 
L 244 556 
L 1241 556 
Q 747 991 519 1456 
Q 294 1922 294 2497 
Q 294 3491 894 4106 
Q 1491 4722 2444 4722 
Q 3391 4722 3994 4106 
Q 4594 3494 4594 2528 
Q 4594 1922 4372 1459 
Q 4150 997 3647 556 
L 4647 556 
z
" transform="scale(0.015625)"/>
       <path id="STIXSizeOneSym-Regular-221a" d="M 6970 9933 
L 3373 -1888 
L 3104 -1888 
L 1626 2918 
Q 1555 3149 1465 3251 
Q 1376 3354 1229 3354 
Q 1011 3354 794 3181 
L 717 3309 
L 1766 4115 
L 1926 4115 
L 3379 -602 
L 3405 -602 
L 6605 9933 
L 6970 9933 
z
" transform="scale(0.015625)"/>
       <path id="DejaVuSans-Oblique-74" d="M 2706 3500 
L 2619 3053 
L 1472 3053 
L 1100 1153 
Q 1081 1047 1072 975 
Q 1063 903 1063 863 
Q 1063 663 1183 572 
Q 1303 481 1569 481 
L 2150 481 
L 2053 0 
L 1503 0 
Q 991 0 739 200 
Q 488 400 488 806 
Q 488 878 497 964 
Q 506 1050 525 1153 
L 897 3053 
L 409 3053 
L 500 3500 
L 978 3500 
L 1172 4494 
L 1747 4494 
L 1556 3500 
L 2706 3500 
z
" transform="scale(0.015625)"/>
       <path id="DejaVuSans-Oblique-61" d="M 3438 1997 
L 3047 0 
L 2472 0 
L 2578 531 
Q 2325 219 2001 64 
Q 1678 -91 1281 -91 
Q 834 -91 548 182 
Q 263 456 263 884 
Q 263 1497 752 1853 
Q 1241 2209 2100 2209 
L 2900 2209 
L 2931 2363 
Q 2938 2388 2941 2417 
Q 2944 2447 2944 2509 
Q 2944 2788 2717 2942 
Q 2491 3097 2081 3097 
Q 1800 3097 1504 3025 
Q 1209 2953 897 2809 
L 997 3341 
Q 1322 3463 1633 3523 
Q 1944 3584 2234 3584 
Q 2853 3584 3176 3315 
Q 3500 3047 3500 2534 
Q 3500 2431 3484 2292 
Q 3469 2153 3438 1997 
z
M 2816 1759 
L 2241 1759 
Q 1534 1759 1195 1570 
Q 856 1381 856 984 
Q 856 709 1029 553 
Q 1203 397 1509 397 
Q 1978 397 2328 733 
Q 2678 1069 2791 1631 
L 2816 1759 
z
" transform="scale(0.015625)"/>
      </defs>
      <use xlink:href="#DejaVuSans-Oblique-6d" transform="translate(0 0.870312)"/>
      <use xlink:href="#DejaVuSans-3a9" transform="translate(97.412109 -15.535937) scale(0.7)"/>
      <use xlink:href="#STIXSizeOneSym-Regular-221a" transform="translate(153.637695 5.59375) scale(0.751941)"/>
      <use xlink:href="#DejaVuSans-Oblique-74" transform="translate(245.676941 0.515625)"/>
      <use xlink:href="#DejaVuSans-30" transform="translate(284.885925 -15.890625) scale(0.7)"/>
      <use xlink:href="#DejaVuSans-2f" transform="translate(332.156433 0.515625)"/>
      <use xlink:href="#DejaVuSans-Oblique-61" transform="translate(365.847839 0.515625)"/>
      <use xlink:href="#DejaVuSans-32" transform="translate(431.777032 38.796875) scale(0.7)"/>
      <path d="M 233.176941 115.5 
L 233.176941 121.75 
L 491.54754 121.75 
L 491.54754 115.5 
L 233.176941 115.5 
z
"/>
     </g>
    </g>
   </g>
   <g id="line2d_12">
    <path d="M 124.721543 300.96 
L 124.721543 7.2 
" clip-path="url(#pbcfe7958ae)" style="fill: none; stroke-dasharray: 5.55,2.4; stroke-dashoffset: 0; stroke: #1f77b4; stroke-width: 1.5"/>
   </g>
   <g id="line2d_13">
    <path d="M 124.721543 300.96 
L 124.721543 7.2 
" clip-path="url(#pbcfe7958ae)" style="fill: none; stroke-dasharray: 5.55,2.4; stroke-dashoffset: 0; stroke: #1f77b4; stroke-width: 1.5"/>
   </g>
   <g id="line2d_14">
    <path d="M 124.721543 300.96 
L 124.721543 7.2 
" clip-path="url(#pbcfe7958ae)" style="fill: none; stroke-dasharray: 5.55,2.4; stroke-dashoffset: 0; stroke: #1f77b4; stroke-width: 1.5"/>
   </g>
   <g id="line2d_15">
    <path d="M 124.721543 300.96 
L 124.721543 7.2 
" clip-path="url(#pbcfe7958ae)" style="fill: none; stroke-dasharray: 5.55,2.4; stroke-dashoffset: 0; stroke: #1f77b4; stroke-width: 1.5"/>
   </g>
   <g id="line2d_16">
    <path d="M 124.721543 300.96 
L 124.721543 7.2 
" clip-path="url(#pbcfe7958ae)" style="fill: none; stroke-dasharray: 5.55,2.4; stroke-dashoffset: 0; stroke: #1f77b4; stroke-width: 1.5"/>
   </g>
   <g id="line2d_17">
    <path d="M 428.941989 33.925713 
L 426.425137 33.926508 
" clip-path="url(#pbcfe7958ae)" style="fill: none; stroke: #ec5d57; stroke-width: 2; stroke-linecap: square"/>
   </g>
   <g id="line2d_18">
    <path d="M 427.622832 20.552727 
L 427.744294 47.299494 
" clip-path="url(#pbcfe7958ae)" style="fill: none; stroke: #ec5d57; stroke-width: 2; stroke-linecap: square"/>
   </g>
   <g id="line2d_19">
    <path d="M 362.808418 56.633325 
L 360.646891 56.634629 
" clip-path="url(#pbcfe7958ae)" style="fill: none; stroke: #ec5d57; stroke-width: 2; stroke-linecap: square"/>
   </g>
   <g id="line2d_20">
    <path d="M 361.637638 46.255823 
L 361.817671 67.012131 
" clip-path="url(#pbcfe7958ae)" style="fill: none; stroke: #ec5d57; stroke-width: 2; stroke-linecap: square"/>
   </g>
   <g id="line2d_21">
    <path d="M 305.30661 65.500809 
L 303.520223 65.501508 
" clip-path="url(#pbcfe7958ae)" style="fill: none; stroke: #ec5d57; stroke-width: 2; stroke-linecap: square"/>
   </g>
   <g id="line2d_22">
    <path d="M 304.367966 57.423202 
L 304.458867 73.579114 
" clip-path="url(#pbcfe7958ae)" style="fill: none; stroke: #ec5d57; stroke-width: 2; stroke-linecap: square"/>
   </g>
   <g id="line2d_23">
    <path d="M 312.980782 66.473544 
L 311.661414 66.473972 
" clip-path="url(#pbcfe7958ae)" style="fill: none; stroke: #ec5d57; stroke-width: 2; stroke-linecap: square"/>
   </g>
   <g id="line2d_24">
    <path d="M 312.28041 57.740064 
L 312.361786 75.207452 
" clip-path="url(#pbcfe7958ae)" style="fill: none; stroke: #ec5d57; stroke-width: 2; stroke-linecap: square"/>
   </g>
   <g id="line2d_25">
    <path d="M 198.890821 104.524098 
L 198.04427 104.524546 
" clip-path="url(#pbcfe7958ae)" style="fill: none; stroke: #ec5d57; stroke-width: 2; stroke-linecap: square"/>
   </g>
   <g id="line2d_26">
    <path d="M 198.437875 100.624168 
L 198.497216 108.424476 
" clip-path="url(#pbcfe7958ae)" style="fill: none; stroke: #ec5d57; stroke-width: 2; stroke-linecap: square"/>
   </g>
   <g id="line2d_27">
    <path d="M 123.503312 128.141356 
L 123.162086 128.141747 
" clip-path="url(#pbcfe7958ae)" style="fill: none; stroke: #ec5d57; stroke-width: 2; stroke-linecap: square"/>
   </g>
   <g id="line2d_28">
    <path d="M 123.294402 125.815107 
L 123.370996 130.467996 
" clip-path="url(#pbcfe7958ae)" style="fill: none; stroke: #ec5d57; stroke-width: 2; stroke-linecap: square"/>
   </g>
   <g id="line2d_29">
    <path d="M 416.248199 52.679471 
L 413.904681 52.680423 
" clip-path="url(#pbcfe7958ae)" style="fill: none; stroke: #70bf41; stroke-width: 2; stroke-linecap: square"/>
   </g>
   <g id="line2d_30">
    <path d="M 415.003036 40.113497 
L 415.149845 65.246397 
" clip-path="url(#pbcfe7958ae)" style="fill: none; stroke: #70bf41; stroke-width: 2; stroke-linecap: square"/>
   </g>
   <g id="line2d_31">
    <path d="M 355.511327 80.881277 
L 352.681042 80.883898 
" clip-path="url(#pbcfe7958ae)" style="fill: none; stroke: #70bf41; stroke-width: 2; stroke-linecap: square"/>
   </g>
   <g id="line2d_32">
    <path d="M 353.956231 70.37235 
L 354.236138 91.392825 
" clip-path="url(#pbcfe7958ae)" style="fill: none; stroke: #70bf41; stroke-width: 2; stroke-linecap: square"/>
   </g>
   <g id="line2d_33">
    <path d="M 300.928488 95.17982 
L 299.157669 95.180865 
" clip-path="url(#pbcfe7958ae)" style="fill: none; stroke: #70bf41; stroke-width: 2; stroke-linecap: square"/>
   </g>
   <g id="line2d_34">
    <path d="M 299.960766 85.482197 
L 300.125391 104.878488 
" clip-path="url(#pbcfe7958ae)" style="fill: none; stroke: #70bf41; stroke-width: 2; stroke-linecap: square"/>
   </g>
   <g id="line2d_35">
    <path d="M 304.056906 92.306017 
L 302.175319 92.307542 
" clip-path="url(#pbcfe7958ae)" style="fill: none; stroke: #70bf41; stroke-width: 2; stroke-linecap: square"/>
   </g>
   <g id="line2d_36">
    <path d="M 303.009058 83.124935 
L 303.223167 101.488624 
" clip-path="url(#pbcfe7958ae)" style="fill: none; stroke: #70bf41; stroke-width: 2; stroke-linecap: square"/>
   </g>
   <g id="line2d_37">
    <path d="M 204.160789 138.715656 
L 202.903577 138.715276 
" clip-path="url(#pbcfe7958ae)" style="fill: none; stroke: #70bf41; stroke-width: 2; stroke-linecap: square"/>
   </g>
   <g id="line2d_38">
    <path d="M 203.559813 132.363331 
L 203.504552 145.067601 
" clip-path="url(#pbcfe7958ae)" style="fill: none; stroke: #70bf41; stroke-width: 2; stroke-linecap: square"/>
   </g>
   <g id="line2d_39">
    <path d="M 203.63002 125.487711 
L 202.155157 125.489722 
" clip-path="url(#pbcfe7958ae)" style="fill: none; stroke: #70bf41; stroke-width: 2; stroke-linecap: square"/>
   </g>
   <g id="line2d_40">
    <path d="M 202.784907 119.997451 
L 203.00027 130.979982 
" clip-path="url(#pbcfe7958ae)" style="fill: none; stroke: #70bf41; stroke-width: 2; stroke-linecap: square"/>
   </g>
   <g id="line2d_41">
    <path d="M 199.822866 126.863273 
L 198.658062 126.86421 
" clip-path="url(#pbcfe7958ae)" style="fill: none; stroke: #70bf41; stroke-width: 2; stroke-linecap: square"/>
   </g>
   <g id="line2d_42">
    <path d="M 199.17421 121.137117 
L 199.306718 132.590365 
" clip-path="url(#pbcfe7958ae)" style="fill: none; stroke: #70bf41; stroke-width: 2; stroke-linecap: square"/>
   </g>
   <g id="line2d_43">
    <path d="M 200.797045 129.528952 
L 199.638875 129.529508 
" clip-path="url(#pbcfe7958ae)" style="fill: none; stroke: #70bf41; stroke-width: 2; stroke-linecap: square"/>
   </g>
   <g id="line2d_44">
    <path d="M 200.15556 120.480549 
L 200.28036 138.577911 
" clip-path="url(#pbcfe7958ae)" style="fill: none; stroke: #70bf41; stroke-width: 2; stroke-linecap: square"/>
   </g>
   <g id="line2d_45">
    <path d="M 160.591368 136.738585 
L 159.883632 136.739339 
" clip-path="url(#pbcfe7958ae)" style="fill: none; stroke: #70bf41; stroke-width: 2; stroke-linecap: square"/>
   </g>
   <g id="line2d_46">
    <path d="M 160.172207 132.47503 
L 160.302793 141.002894 
" clip-path="url(#pbcfe7958ae)" style="fill: none; stroke: #70bf41; stroke-width: 2; stroke-linecap: square"/>
   </g>
   <g id="line2d_47">
    <path d="M 122.359538 157.622007 
L 121.785076 157.622567 
" clip-path="url(#pbcfe7958ae)" style="fill: none; stroke: #70bf41; stroke-width: 2; stroke-linecap: square"/>
   </g>
   <g id="line2d_48">
    <path d="M 122.023598 154.15081 
L 122.121016 161.093764 
" clip-path="url(#pbcfe7958ae)" style="fill: none; stroke: #70bf41; stroke-width: 2; stroke-linecap: square"/>
   </g>
   <g id="line2d_49">
    <path d="M 416.080615 81.739755 
L 413.623951 81.739938 
" clip-path="url(#pbcfe7958ae)" style="fill: none; stroke: #51a7f9; stroke-width: 2; stroke-linecap: square"/>
   </g>
   <g id="line2d_50">
    <path d="M 414.837129 67.56743 
L 414.867437 95.912262 
" clip-path="url(#pbcfe7958ae)" style="fill: none; stroke: #51a7f9; stroke-width: 2; stroke-linecap: square"/>
   </g>
   <g id="line2d_51">
    <path d="M 353.365954 118.45826 
L 350.937902 118.459014 
" clip-path="url(#pbcfe7958ae)" style="fill: none; stroke: #51a7f9; stroke-width: 2; stroke-linecap: square"/>
   </g>
   <g id="line2d_52">
    <path d="M 352.095674 105.853891 
L 352.208182 131.063383 
" clip-path="url(#pbcfe7958ae)" style="fill: none; stroke: #51a7f9; stroke-width: 2; stroke-linecap: square"/>
   </g>
   <g id="line2d_53">
    <path d="M 306.55584 126.625952 
L 304.838218 126.626528 
" clip-path="url(#pbcfe7958ae)" style="fill: none; stroke: #51a7f9; stroke-width: 2; stroke-linecap: square"/>
   </g>
   <g id="line2d_54">
    <path d="M 305.643388 115.503931 
L 305.75067 137.748548 
" clip-path="url(#pbcfe7958ae)" style="fill: none; stroke: #51a7f9; stroke-width: 2; stroke-linecap: square"/>
   </g>
   <g id="line2d_55">
    <path d="M 200.446984 169.38345 
L 199.406289 169.383982 
" clip-path="url(#pbcfe7958ae)" style="fill: none; stroke: #51a7f9; stroke-width: 2; stroke-linecap: square"/>
   </g>
   <g id="line2d_56">
    <path d="M 199.874802 162.340512 
L 199.978472 176.42692 
" clip-path="url(#pbcfe7958ae)" style="fill: none; stroke: #51a7f9; stroke-width: 2; stroke-linecap: square"/>
   </g>
   <g id="line2d_57">
    <path d="M 124.640594 201.088309 
L 124.070138 201.088815 
" clip-path="url(#pbcfe7958ae)" style="fill: none; stroke: #51a7f9; stroke-width: 2; stroke-linecap: square"/>
   </g>
   <g id="line2d_58">
    <path d="M 124.297707 196.567328 
L 124.413025 205.609796 
" clip-path="url(#pbcfe7958ae)" style="fill: none; stroke: #51a7f9; stroke-width: 2; stroke-linecap: square"/>
   </g>
   <g id="line2d_59">
    <path d="M 310.504563 150.94206 
L 307.824631 150.943619 
" clip-path="url(#pbcfe7958ae)" style="fill: none; stroke: #6a5acd; stroke-width: 2; stroke-linecap: square"/>
   </g>
   <g id="line2d_60">
    <path d="M 309.069008 139.512029 
L 309.260186 162.37365 
" clip-path="url(#pbcfe7958ae)" style="fill: none; stroke: #6a5acd; stroke-width: 2; stroke-linecap: square"/>
   </g>
   <g id="LineCollection_1"/>
   <g id="LineCollection_2"/>
   <g id="LineCollection_3"/>
   <g id="LineCollection_4"/>
   <g id="LineCollection_5"/>
   <g id="LineCollection_6"/>
   <g id="LineCollection_7"/>
   <g id="LineCollection_8"/>
   <g id="line2d_61"/>
   <g id="line2d_62"/>
   <g id="line2d_63"/>
   <g id="line2d_64"/>
   <g id="patch_3">
    <path d="M 55.065625 300.96 
L 55.065625 7.2 
" style="fill: none; stroke: #000000; stroke-width: 0.8; stroke-linejoin: miter; stroke-linecap: square"/>
   </g>
   <g id="patch_4">
    <path d="M 446.745625 300.96 
L 446.745625 7.2 
" style="fill: none; stroke: #000000; stroke-width: 0.8; stroke-linejoin: miter; stroke-linecap: square"/>
   </g>
   <g id="patch_5">
    <path d="M 55.065625 300.96 
L 446.745625 300.96 
" style="fill: none; stroke: #000000; stroke-width: 0.8; stroke-linejoin: miter; stroke-linecap: square"/>
   </g>
   <g id="patch_6">
    <path d="M 55.065625 7.2 
L 446.745625 7.2 
" style="fill: none; stroke: #000000; stroke-width: 0.8; stroke-linejoin: miter; stroke-linecap: square"/>
   </g>
   <g id="line2d_65">
    <path d="M 427.683563 33.926111 
" clip-path="url(#pbcfe7958ae)" style="fill: none; stroke: #ec5d57; stroke-width: 1.5; stroke-linecap: square"/>
    <defs>
     <path id="m53edeff80a" d="M 0 3 
C 0.795609 3 1.55874 2.683901 2.12132 2.12132 
C 2.683901 1.55874 3 0.795609 3 0 
C 3 -0.795609 2.683901 -1.55874 2.12132 -2.12132 
C 1.55874 -2.683901 0.795609 -3 0 -3 
C -0.795609 -3 -1.55874 -2.683901 -2.12132 -2.12132 
C -2.683901 -1.55874 -3 -0.795609 -3 0 
C -3 0.795609 -2.683901 1.55874 -2.12132 2.12132 
C -1.55874 2.683901 -0.795609 3 0 3 
z
" style="stroke: #ffffff"/>
    </defs>
    <g clip-path="url(#pbcfe7958ae)">
     <use xlink:href="#m53edeff80a" x="427.683563" y="33.926111" style="fill: #ec5d57; stroke: #ffffff"/>
    </g>
   </g>
   <g id="line2d_66">
    <path d="M 427.683563 33.926111 
" clip-path="url(#pbcfe7958ae)" style="fill: none; stroke: #ec5d57; stroke-width: 1.5; stroke-linecap: square"/>
    <g clip-path="url(#pbcfe7958ae)">
     <use xlink:href="#m53edeff80a" x="427.683563" y="33.926111" style="fill: #ec5d57; stroke: #ffffff"/>
    </g>
   </g>
   <g id="line2d_67">
    <path d="M 361.727655 56.633977 
" clip-path="url(#pbcfe7958ae)" style="fill: none; stroke: #ec5d57; stroke-width: 1.5; stroke-linecap: square"/>
    <g clip-path="url(#pbcfe7958ae)">
     <use xlink:href="#m53edeff80a" x="361.727655" y="56.633977" style="fill: #ec5d57; stroke: #ffffff"/>
    </g>
   </g>
   <g id="line2d_68">
    <path d="M 361.727655 56.633977 
" clip-path="url(#pbcfe7958ae)" style="fill: none; stroke: #ec5d57; stroke-width: 1.5; stroke-linecap: square"/>
    <g clip-path="url(#pbcfe7958ae)">
     <use xlink:href="#m53edeff80a" x="361.727655" y="56.633977" style="fill: #ec5d57; stroke: #ffffff"/>
    </g>
   </g>
   <g id="line2d_69">
    <path d="M 304.413417 65.501158 
" clip-path="url(#pbcfe7958ae)" style="fill: none; stroke: #ec5d57; stroke-width: 1.5; stroke-linecap: square"/>
    <g clip-path="url(#pbcfe7958ae)">
     <use xlink:href="#m53edeff80a" x="304.413417" y="65.501158" style="fill: #ec5d57; stroke: #ffffff"/>
    </g>
   </g>
   <g id="line2d_70">
    <path d="M 304.413417 65.501158 
" clip-path="url(#pbcfe7958ae)" style="fill: none; stroke: #ec5d57; stroke-width: 1.5; stroke-linecap: square"/>
    <g clip-path="url(#pbcfe7958ae)">
     <use xlink:href="#m53edeff80a" x="304.413417" y="65.501158" style="fill: #ec5d57; stroke: #ffffff"/>
    </g>
   </g>
   <g id="line2d_71">
    <path d="M 312.321098 66.473758 
" clip-path="url(#pbcfe7958ae)" style="fill: none; stroke: #ec5d57; stroke-width: 1.5; stroke-linecap: square"/>
    <g clip-path="url(#pbcfe7958ae)">
     <use xlink:href="#m53edeff80a" x="312.321098" y="66.473758" style="fill: #ec5d57; stroke: #ffffff"/>
    </g>
   </g>
   <g id="line2d_72">
    <path d="M 312.321098 66.473758 
" clip-path="url(#pbcfe7958ae)" style="fill: none; stroke: #ec5d57; stroke-width: 1.5; stroke-linecap: square"/>
    <g clip-path="url(#pbcfe7958ae)">
     <use xlink:href="#m53edeff80a" x="312.321098" y="66.473758" style="fill: #ec5d57; stroke: #ffffff"/>
    </g>
   </g>
   <g id="line2d_73">
    <path d="M 198.467545 104.524322 
" clip-path="url(#pbcfe7958ae)" style="fill: none; stroke: #ec5d57; stroke-width: 1.5; stroke-linecap: square"/>
    <g clip-path="url(#pbcfe7958ae)">
     <use xlink:href="#m53edeff80a" x="198.467545" y="104.524322" style="fill: #ec5d57; stroke: #ffffff"/>
    </g>
   </g>
   <g id="line2d_74">
    <path d="M 198.467545 104.524322 
" clip-path="url(#pbcfe7958ae)" style="fill: none; stroke: #ec5d57; stroke-width: 1.5; stroke-linecap: square"/>
    <g clip-path="url(#pbcfe7958ae)">
     <use xlink:href="#m53edeff80a" x="198.467545" y="104.524322" style="fill: #ec5d57; stroke: #ffffff"/>
    </g>
   </g>
   <g id="line2d_75">
    <path d="M 123.332699 128.141551 
" clip-path="url(#pbcfe7958ae)" style="fill: none; stroke: #ec5d57; stroke-width: 1.5; stroke-linecap: square"/>
    <g clip-path="url(#pbcfe7958ae)">
     <use xlink:href="#m53edeff80a" x="123.332699" y="128.141551" style="fill: #ec5d57; stroke: #ffffff"/>
    </g>
   </g>
   <g id="line2d_76">
    <path d="M 123.332699 128.141551 
" clip-path="url(#pbcfe7958ae)" style="fill: none; stroke: #ec5d57; stroke-width: 1.5; stroke-linecap: square"/>
    <g clip-path="url(#pbcfe7958ae)">
     <use xlink:href="#m53edeff80a" x="123.332699" y="128.141551" style="fill: #ec5d57; stroke: #ffffff"/>
    </g>
   </g>
   <g id="line2d_77">
    <path d="M 415.07644 52.679947 
" clip-path="url(#pbcfe7958ae)" style="fill: none; stroke: #70bf41; stroke-width: 1.5; stroke-linecap: square"/>
    <defs>
     <path id="m96c12ae1ee" d="M 0 3 
C 0.795609 3 1.55874 2.683901 2.12132 2.12132 
C 2.683901 1.55874 3 0.795609 3 0 
C 3 -0.795609 2.683901 -1.55874 2.12132 -2.12132 
C 1.55874 -2.683901 0.795609 -3 0 -3 
C -0.795609 -3 -1.55874 -2.683901 -2.12132 -2.12132 
C -2.683901 -1.55874 -3 -0.795609 -3 0 
C -3 0.795609 -2.683901 1.55874 -2.12132 2.12132 
C -1.55874 2.683901 -0.795609 3 0 3 
z
" style="stroke: #ffffff"/>
    </defs>
    <g clip-path="url(#pbcfe7958ae)">
     <use xlink:href="#m96c12ae1ee" x="415.07644" y="52.679947" style="fill: #70bf41; stroke: #ffffff"/>
    </g>
   </g>
   <g id="line2d_78">
    <path d="M 415.07644 52.679947 
" clip-path="url(#pbcfe7958ae)" style="fill: none; stroke: #70bf41; stroke-width: 1.5; stroke-linecap: square"/>
    <g clip-path="url(#pbcfe7958ae)">
     <use xlink:href="#m96c12ae1ee" x="415.07644" y="52.679947" style="fill: #70bf41; stroke: #ffffff"/>
    </g>
   </g>
   <g id="line2d_79">
    <path d="M 354.096184 80.882587 
" clip-path="url(#pbcfe7958ae)" style="fill: none; stroke: #70bf41; stroke-width: 1.5; stroke-linecap: square"/>
    <g clip-path="url(#pbcfe7958ae)">
     <use xlink:href="#m96c12ae1ee" x="354.096184" y="80.882587" style="fill: #70bf41; stroke: #ffffff"/>
    </g>
   </g>
   <g id="line2d_80">
    <path d="M 354.096184 80.882587 
" clip-path="url(#pbcfe7958ae)" style="fill: none; stroke: #70bf41; stroke-width: 1.5; stroke-linecap: square"/>
    <g clip-path="url(#pbcfe7958ae)">
     <use xlink:href="#m96c12ae1ee" x="354.096184" y="80.882587" style="fill: #70bf41; stroke: #ffffff"/>
    </g>
   </g>
   <g id="line2d_81">
    <path d="M 300.043079 95.180342 
" clip-path="url(#pbcfe7958ae)" style="fill: none; stroke: #70bf41; stroke-width: 1.5; stroke-linecap: square"/>
    <g clip-path="url(#pbcfe7958ae)">
     <use xlink:href="#m96c12ae1ee" x="300.043079" y="95.180342" style="fill: #70bf41; stroke: #ffffff"/>
    </g>
   </g>
   <g id="line2d_82">
    <path d="M 300.043079 95.180342 
" clip-path="url(#pbcfe7958ae)" style="fill: none; stroke: #70bf41; stroke-width: 1.5; stroke-linecap: square"/>
    <g clip-path="url(#pbcfe7958ae)">
     <use xlink:href="#m96c12ae1ee" x="300.043079" y="95.180342" style="fill: #70bf41; stroke: #ffffff"/>
    </g>
   </g>
   <g id="line2d_83">
    <path d="M 303.116113 92.30678 
" clip-path="url(#pbcfe7958ae)" style="fill: none; stroke: #70bf41; stroke-width: 1.5; stroke-linecap: square"/>
    <g clip-path="url(#pbcfe7958ae)">
     <use xlink:href="#m96c12ae1ee" x="303.116113" y="92.30678" style="fill: #70bf41; stroke: #ffffff"/>
    </g>
   </g>
   <g id="line2d_84">
    <path d="M 303.116113 92.30678 
" clip-path="url(#pbcfe7958ae)" style="fill: none; stroke: #70bf41; stroke-width: 1.5; stroke-linecap: square"/>
    <g clip-path="url(#pbcfe7958ae)">
     <use xlink:href="#m96c12ae1ee" x="303.116113" y="92.30678" style="fill: #70bf41; stroke: #ffffff"/>
    </g>
   </g>
   <g id="line2d_85">
    <path d="M 203.532183 138.715466 
" clip-path="url(#pbcfe7958ae)" style="fill: none; stroke: #70bf41; stroke-width: 1.5; stroke-linecap: square"/>
    <g clip-path="url(#pbcfe7958ae)">
     <use xlink:href="#m96c12ae1ee" x="203.532183" y="138.715466" style="fill: #70bf41; stroke: #ffffff"/>
    </g>
   </g>
   <g id="line2d_86">
    <path d="M 203.532183 138.715466 
" clip-path="url(#pbcfe7958ae)" style="fill: none; stroke: #70bf41; stroke-width: 1.5; stroke-linecap: square"/>
    <g clip-path="url(#pbcfe7958ae)">
     <use xlink:href="#m96c12ae1ee" x="203.532183" y="138.715466" style="fill: #70bf41; stroke: #ffffff"/>
    </g>
   </g>
   <g id="line2d_87">
    <path d="M 202.892589 125.488717 
" clip-path="url(#pbcfe7958ae)" style="fill: none; stroke: #70bf41; stroke-width: 1.5; stroke-linecap: square"/>
    <g clip-path="url(#pbcfe7958ae)">
     <use xlink:href="#m96c12ae1ee" x="202.892589" y="125.488717" style="fill: #70bf41; stroke: #ffffff"/>
    </g>
   </g>
   <g id="line2d_88">
    <path d="M 202.892589 125.488717 
" clip-path="url(#pbcfe7958ae)" style="fill: none; stroke: #70bf41; stroke-width: 1.5; stroke-linecap: square"/>
    <g clip-path="url(#pbcfe7958ae)">
     <use xlink:href="#m96c12ae1ee" x="202.892589" y="125.488717" style="fill: #70bf41; stroke: #ffffff"/>
    </g>
   </g>
   <g id="line2d_89">
    <path d="M 199.240464 126.863741 
" clip-path="url(#pbcfe7958ae)" style="fill: none; stroke: #70bf41; stroke-width: 1.5; stroke-linecap: square"/>
    <g clip-path="url(#pbcfe7958ae)">
     <use xlink:href="#m96c12ae1ee" x="199.240464" y="126.863741" style="fill: #70bf41; stroke: #ffffff"/>
    </g>
   </g>
   <g id="line2d_90">
    <path d="M 199.240464 126.863741 
" clip-path="url(#pbcfe7958ae)" style="fill: none; stroke: #70bf41; stroke-width: 1.5; stroke-linecap: square"/>
    <g clip-path="url(#pbcfe7958ae)">
     <use xlink:href="#m96c12ae1ee" x="199.240464" y="126.863741" style="fill: #70bf41; stroke: #ffffff"/>
    </g>
   </g>
   <g id="line2d_91">
    <path d="M 200.21796 129.52923 
" clip-path="url(#pbcfe7958ae)" style="fill: none; stroke: #70bf41; stroke-width: 1.5; stroke-linecap: square"/>
    <g clip-path="url(#pbcfe7958ae)">
     <use xlink:href="#m96c12ae1ee" x="200.21796" y="129.52923" style="fill: #70bf41; stroke: #ffffff"/>
    </g>
   </g>
   <g id="line2d_92">
    <path d="M 200.21796 129.52923 
" clip-path="url(#pbcfe7958ae)" style="fill: none; stroke: #70bf41; stroke-width: 1.5; stroke-linecap: square"/>
    <g clip-path="url(#pbcfe7958ae)">
     <use xlink:href="#m96c12ae1ee" x="200.21796" y="129.52923" style="fill: #70bf41; stroke: #ffffff"/>
    </g>
   </g>
   <g id="line2d_93">
    <path d="M 160.2375 136.738962 
" clip-path="url(#pbcfe7958ae)" style="fill: none; stroke: #70bf41; stroke-width: 1.5; stroke-linecap: square"/>
    <g clip-path="url(#pbcfe7958ae)">
     <use xlink:href="#m96c12ae1ee" x="160.2375" y="136.738962" style="fill: #70bf41; stroke: #ffffff"/>
    </g>
   </g>
   <g id="line2d_94">
    <path d="M 160.2375 136.738962 
" clip-path="url(#pbcfe7958ae)" style="fill: none; stroke: #70bf41; stroke-width: 1.5; stroke-linecap: square"/>
    <g clip-path="url(#pbcfe7958ae)">
     <use xlink:href="#m96c12ae1ee" x="160.2375" y="136.738962" style="fill: #70bf41; stroke: #ffffff"/>
    </g>
   </g>
   <g id="line2d_95">
    <path d="M 122.072307 157.622287 
" clip-path="url(#pbcfe7958ae)" style="fill: none; stroke: #70bf41; stroke-width: 1.5; stroke-linecap: square"/>
    <g clip-path="url(#pbcfe7958ae)">
     <use xlink:href="#m96c12ae1ee" x="122.072307" y="157.622287" style="fill: #70bf41; stroke: #ffffff"/>
    </g>
   </g>
   <g id="line2d_96">
    <path d="M 122.072307 157.622287 
" clip-path="url(#pbcfe7958ae)" style="fill: none; stroke: #70bf41; stroke-width: 1.5; stroke-linecap: square"/>
    <g clip-path="url(#pbcfe7958ae)">
     <use xlink:href="#m96c12ae1ee" x="122.072307" y="157.622287" style="fill: #70bf41; stroke: #ffffff"/>
    </g>
   </g>
   <g id="line2d_97">
    <path d="M 414.852283 81.739846 
" clip-path="url(#pbcfe7958ae)" style="fill: none; stroke: #51a7f9; stroke-width: 1.5; stroke-linecap: square"/>
    <defs>
     <path id="m35f21ea2fe" d="M 0 3 
C 0.795609 3 1.55874 2.683901 2.12132 2.12132 
C 2.683901 1.55874 3 0.795609 3 0 
C 3 -0.795609 2.683901 -1.55874 2.12132 -2.12132 
C 1.55874 -2.683901 0.795609 -3 0 -3 
C -0.795609 -3 -1.55874 -2.683901 -2.12132 -2.12132 
C -2.683901 -1.55874 -3 -0.795609 -3 0 
C -3 0.795609 -2.683901 1.55874 -2.12132 2.12132 
C -1.55874 2.683901 -0.795609 3 0 3 
z
" style="stroke: #ffffff"/>
    </defs>
    <g clip-path="url(#pbcfe7958ae)">
     <use xlink:href="#m35f21ea2fe" x="414.852283" y="81.739846" style="fill: #51a7f9; stroke: #ffffff"/>
    </g>
   </g>
   <g id="line2d_98">
    <path d="M 414.852283 81.739846 
" clip-path="url(#pbcfe7958ae)" style="fill: none; stroke: #51a7f9; stroke-width: 1.5; stroke-linecap: square"/>
    <g clip-path="url(#pbcfe7958ae)">
     <use xlink:href="#m35f21ea2fe" x="414.852283" y="81.739846" style="fill: #51a7f9; stroke: #ffffff"/>
    </g>
   </g>
   <g id="line2d_99">
    <path d="M 352.151928 118.458637 
" clip-path="url(#pbcfe7958ae)" style="fill: none; stroke: #51a7f9; stroke-width: 1.5; stroke-linecap: square"/>
    <g clip-path="url(#pbcfe7958ae)">
     <use xlink:href="#m35f21ea2fe" x="352.151928" y="118.458637" style="fill: #51a7f9; stroke: #ffffff"/>
    </g>
   </g>
   <g id="line2d_100">
    <path d="M 352.151928 118.458637 
" clip-path="url(#pbcfe7958ae)" style="fill: none; stroke: #51a7f9; stroke-width: 1.5; stroke-linecap: square"/>
    <g clip-path="url(#pbcfe7958ae)">
     <use xlink:href="#m35f21ea2fe" x="352.151928" y="118.458637" style="fill: #51a7f9; stroke: #ffffff"/>
    </g>
   </g>
   <g id="line2d_101">
    <path d="M 305.697029 126.62624 
" clip-path="url(#pbcfe7958ae)" style="fill: none; stroke: #51a7f9; stroke-width: 1.5; stroke-linecap: square"/>
    <g clip-path="url(#pbcfe7958ae)">
     <use xlink:href="#m35f21ea2fe" x="305.697029" y="126.62624" style="fill: #51a7f9; stroke: #ffffff"/>
    </g>
   </g>
   <g id="line2d_102">
    <path d="M 305.697029 126.62624 
" clip-path="url(#pbcfe7958ae)" style="fill: none; stroke: #51a7f9; stroke-width: 1.5; stroke-linecap: square"/>
    <g clip-path="url(#pbcfe7958ae)">
     <use xlink:href="#m35f21ea2fe" x="305.697029" y="126.62624" style="fill: #51a7f9; stroke: #ffffff"/>
    </g>
   </g>
   <g id="line2d_103">
    <path d="M 199.926637 169.383716 
" clip-path="url(#pbcfe7958ae)" style="fill: none; stroke: #51a7f9; stroke-width: 1.5; stroke-linecap: square"/>
    <g clip-path="url(#pbcfe7958ae)">
     <use xlink:href="#m35f21ea2fe" x="199.926637" y="169.383716" style="fill: #51a7f9; stroke: #ffffff"/>
    </g>
   </g>
   <g id="line2d_104">
    <path d="M 199.926637 169.383716 
" clip-path="url(#pbcfe7958ae)" style="fill: none; stroke: #51a7f9; stroke-width: 1.5; stroke-linecap: square"/>
    <g clip-path="url(#pbcfe7958ae)">
     <use xlink:href="#m35f21ea2fe" x="199.926637" y="169.383716" style="fill: #51a7f9; stroke: #ffffff"/>
    </g>
   </g>
   <g id="line2d_105">
    <path d="M 124.355366 201.088562 
" clip-path="url(#pbcfe7958ae)" style="fill: none; stroke: #51a7f9; stroke-width: 1.5; stroke-linecap: square"/>
    <g clip-path="url(#pbcfe7958ae)">
     <use xlink:href="#m35f21ea2fe" x="124.355366" y="201.088562" style="fill: #51a7f9; stroke: #ffffff"/>
    </g>
   </g>
   <g id="line2d_106">
    <path d="M 124.355366 201.088562 
" clip-path="url(#pbcfe7958ae)" style="fill: none; stroke: #51a7f9; stroke-width: 1.5; stroke-linecap: square"/>
    <g clip-path="url(#pbcfe7958ae)">
     <use xlink:href="#m35f21ea2fe" x="124.355366" y="201.088562" style="fill: #51a7f9; stroke: #ffffff"/>
    </g>
   </g>
   <g id="line2d_107">
    <path d="M 309.164597 150.942839 
" clip-path="url(#pbcfe7958ae)" style="fill: none; stroke: #6a5acd; stroke-width: 1.5; stroke-linecap: square"/>
    <defs>
     <path id="m3bcf144b5d" d="M 0 3 
C 0.795609 3 1.55874 2.683901 2.12132 2.12132 
C 2.683901 1.55874 3 0.795609 3 0 
C 3 -0.795609 2.683901 -1.55874 2.12132 -2.12132 
C 1.55874 -2.683901 0.795609 -3 0 -3 
C -0.795609 -3 -1.55874 -2.683901 -2.12132 -2.12132 
C -2.683901 -1.55874 -3 -0.795609 -3 0 
C -3 0.795609 -2.683901 1.55874 -2.12132 2.12132 
C -1.55874 2.683901 -0.795609 3 0 3 
z
" style="stroke: #ffffff"/>
    </defs>
    <g clip-path="url(#pbcfe7958ae)">
     <use xlink:href="#m3bcf144b5d" x="309.164597" y="150.942839" style="fill: #6a5acd; stroke: #ffffff"/>
    </g>
   </g>
   <g id="line2d_108">
    <path d="M 309.164597 150.942839 
" clip-path="url(#pbcfe7958ae)" style="fill: none; stroke: #6a5acd; stroke-width: 1.5; stroke-linecap: square"/>
    <g clip-path="url(#pbcfe7958ae)">
     <use xlink:href="#m3bcf144b5d" x="309.164597" y="150.942839" style="fill: #6a5acd; stroke: #ffffff"/>
    </g>
   </g>
   <g id="legend_1">
    <g id="patch_7">
     <path d="M 243.745625 295.96 
L 439.745625 295.96 
Q 441.745625 295.96 441.745625 293.96 
L 441.745625 258.56 
Q 441.745625 256.56 439.745625 256.56 
L 243.745625 256.56 
Q 241.745625 256.56 241.745625 258.56 
L 241.745625 293.96 
Q 241.745625 295.96 243.745625 295.96 
z
" style="fill: #ffffff; opacity: 0.8; stroke: #cccccc; stroke-linejoin: miter"/>
    </g>
    <g id="LineCollection_9">
     <path d="M 250.745625 267.46 
L 260.745625 267.46 
" style="fill: none; stroke: #6a5acd; stroke-width: 3"/>
    </g>
    <g id="LineCollection_10">
     <path d="M 255.745625 272.46 
L 255.745625 262.46 
" style="fill: none; stroke: #6a5acd; stroke-width: 3"/>
    </g>
    <g id="line2d_109">
     <path d="M 245.745625 267.46 
L 265.745625 267.46 
" style="fill: none; stroke: #6a5acd; stroke-width: 1.5; stroke-linecap: square"/>
    </g>
    <g id="line2d_110">
     <defs>
      <path id="m49714d25de" d="M 0 4 
C 1.060812 4 2.078319 3.578535 2.828427 2.828427 
C 3.578535 2.078319 4 1.060812 4 0 
C 4 -1.060812 3.578535 -2.078319 2.828427 -2.828427 
C 2.078319 -3.578535 1.060812 -4 0 -4 
C -1.060812 -4 -2.078319 -3.578535 -2.828427 -2.828427 
C -3.578535 -2.078319 -4 -1.060812 -4 0 
C -4 1.060812 -3.578535 2.078319 -2.828427 2.828427 
C -2.078319 3.578535 -1.060812 4 0 4 
z
" style="stroke: #ffffff; stroke-width: 2"/>
     </defs>
     <g>
      <use xlink:href="#m49714d25de" x="255.745625" y="267.46" style="fill: #6a5acd; stroke: #ffffff; stroke-width: 2"/>
     </g>
    </g>
    <g id="text_14">
     <!-- $a_{06}(l_F,s_F^{\rm phys})$ -->
     <g transform="translate(273.745625 270.96) scale(0.1 -0.1)">
      <defs>
       <path id="DejaVuSans-2c" d="M 750 794 
L 1409 794 
L 1409 256 
L 897 -744 
L 494 -744 
L 750 256 
L 750 794 
z
" transform="scale(0.015625)"/>
       <path id="DejaVuSans-Oblique-73" d="M 3200 3397 
L 3091 2853 
Q 2863 2978 2609 3040 
Q 2356 3103 2088 3103 
Q 1634 3103 1373 2948 
Q 1113 2794 1113 2528 
Q 1113 2219 1719 2053 
Q 1766 2041 1788 2034 
L 1972 1978 
Q 2547 1819 2739 1644 
Q 2931 1469 2931 1166 
Q 2931 609 2489 259 
Q 2047 -91 1331 -91 
Q 1053 -91 747 -37 
Q 441 16 72 128 
L 184 722 
Q 500 559 806 475 
Q 1113 391 1394 391 
Q 1816 391 2080 572 
Q 2344 753 2344 1031 
Q 2344 1331 1650 1516 
L 1591 1531 
L 1394 1581 
Q 956 1697 753 1886 
Q 550 2075 550 2369 
Q 550 2928 970 3256 
Q 1391 3584 2113 3584 
Q 2397 3584 2667 3537 
Q 2938 3491 3200 3397 
z
" transform="scale(0.015625)"/>
       <path id="DejaVuSans-70" d="M 1159 525 
L 1159 -1331 
L 581 -1331 
L 581 3500 
L 1159 3500 
L 1159 2969 
Q 1341 3281 1617 3432 
Q 1894 3584 2278 3584 
Q 2916 3584 3314 3078 
Q 3713 2572 3713 1747 
Q 3713 922 3314 415 
Q 2916 -91 2278 -91 
Q 1894 -91 1617 61 
Q 1341 213 1159 525 
z
M 3116 1747 
Q 3116 2381 2855 2742 
Q 2594 3103 2138 3103 
Q 1681 3103 1420 2742 
Q 1159 2381 1159 1747 
Q 1159 1113 1420 752 
Q 1681 391 2138 391 
Q 2594 391 2855 752 
Q 3116 1113 3116 1747 
z
" transform="scale(0.015625)"/>
       <path id="DejaVuSans-68" d="M 3513 2113 
L 3513 0 
L 2938 0 
L 2938 2094 
Q 2938 2591 2744 2837 
Q 2550 3084 2163 3084 
Q 1697 3084 1428 2787 
Q 1159 2491 1159 1978 
L 1159 0 
L 581 0 
L 581 4863 
L 1159 4863 
L 1159 2956 
Q 1366 3272 1645 3428 
Q 1925 3584 2291 3584 
Q 2894 3584 3203 3211 
Q 3513 2838 3513 2113 
z
" transform="scale(0.015625)"/>
       <path id="DejaVuSans-79" d="M 2059 -325 
Q 1816 -950 1584 -1140 
Q 1353 -1331 966 -1331 
L 506 -1331 
L 506 -850 
L 844 -850 
Q 1081 -850 1212 -737 
Q 1344 -625 1503 -206 
L 1606 56 
L 191 3500 
L 800 3500 
L 1894 763 
L 2988 3500 
L 3597 3500 
L 2059 -325 
z
" transform="scale(0.015625)"/>
       <path id="DejaVuSans-73" d="M 2834 3397 
L 2834 2853 
Q 2591 2978 2328 3040 
Q 2066 3103 1784 3103 
Q 1356 3103 1142 2972 
Q 928 2841 928 2578 
Q 928 2378 1081 2264 
Q 1234 2150 1697 2047 
L 1894 2003 
Q 2506 1872 2764 1633 
Q 3022 1394 3022 966 
Q 3022 478 2636 193 
Q 2250 -91 1575 -91 
Q 1294 -91 989 -36 
Q 684 19 347 128 
L 347 722 
Q 666 556 975 473 
Q 1284 391 1588 391 
Q 1994 391 2212 530 
Q 2431 669 2431 922 
Q 2431 1156 2273 1281 
Q 2116 1406 1581 1522 
L 1381 1569 
Q 847 1681 609 1914 
Q 372 2147 372 2553 
Q 372 3047 722 3315 
Q 1072 3584 1716 3584 
Q 2034 3584 2315 3537 
Q 2597 3491 2834 3397 
z
" transform="scale(0.015625)"/>
      </defs>
      <use xlink:href="#DejaVuSans-Oblique-61" transform="translate(0 0.0625)"/>
      <use xlink:href="#DejaVuSans-30" transform="translate(61.279297 -16.34375) scale(0.7)"/>
      <use xlink:href="#DejaVuSans-36" transform="translate(105.81543 -16.34375) scale(0.7)"/>
      <use xlink:href="#DejaVuSans-28" transform="translate(153.085938 0.0625)"/>
      <use xlink:href="#DejaVuSans-Oblique-6c" transform="translate(192.099609 0.0625)"/>
      <use xlink:href="#DejaVuSans-Oblique-46" transform="translate(219.882812 -16.34375) scale(0.7)"/>
      <use xlink:href="#DejaVuSans-2c" transform="translate(262.880859 0.0625)"/>
      <use xlink:href="#DejaVuSans-Oblique-73" transform="translate(314.150391 0.0625)"/>
      <use xlink:href="#DejaVuSans-70" transform="translate(370.899896 50.810938) scale(0.7)"/>
      <use xlink:href="#DejaVuSans-68" transform="translate(415.33349 50.810938) scale(0.7)"/>
      <use xlink:href="#DejaVuSans-79" transform="translate(459.698724 50.810938) scale(0.7)"/>
      <use xlink:href="#DejaVuSans-73" transform="translate(501.124505 50.810938) scale(0.7)"/>
      <use xlink:href="#DejaVuSans-Oblique-46" transform="translate(366.25 -27.28125) scale(0.7)"/>
      <use xlink:href="#DejaVuSans-29" transform="translate(540.328607 0.0625)"/>
     </g>
    </g>
    <g id="LineCollection_11">
     <path d="M 250.745625 285.66 
L 260.745625 285.66 
" style="fill: none; stroke: #51a7f9; stroke-width: 3"/>
    </g>
    <g id="LineCollection_12">
     <path d="M 255.745625 290.66 
L 255.745625 280.66 
" style="fill: none; stroke: #51a7f9; stroke-width: 3"/>
    </g>
    <g id="line2d_111">
     <path d="M 245.745625 285.66 
L 265.745625 285.66 
" style="fill: none; stroke: #51a7f9; stroke-width: 1.5; stroke-linecap: square"/>
    </g>
    <g id="line2d_112">
     <defs>
      <path id="ma879e54296" d="M 0 4 
C 1.060812 4 2.078319 3.578535 2.828427 2.828427 
C 3.578535 2.078319 4 1.060812 4 0 
C 4 -1.060812 3.578535 -2.078319 2.828427 -2.828427 
C 2.078319 -3.578535 1.060812 -4 0 -4 
C -1.060812 -4 -2.078319 -3.578535 -2.828427 -2.828427 
C -3.578535 -2.078319 -4 -1.060812 -4 0 
C -4 1.060812 -3.578535 2.078319 -2.828427 2.828427 
C -2.078319 3.578535 -1.060812 4 0 4 
z
" style="stroke: #ffffff; stroke-width: 2"/>
     </defs>
     <g>
      <use xlink:href="#ma879e54296" x="255.745625" y="285.66" style="fill: #51a7f9; stroke: #ffffff; stroke-width: 2"/>
     </g>
    </g>
    <g id="text_15">
     <!-- $a_{09}(l_F,s_F^{\rm phys})$ -->
     <g transform="translate(273.745625 289.16) scale(0.1 -0.1)">
      <defs>
       <path id="DejaVuSans-39" d="M 703 97 
L 703 672 
Q 941 559 1184 500 
Q 1428 441 1663 441 
Q 2288 441 2617 861 
Q 2947 1281 2994 2138 
Q 2813 1869 2534 1725 
Q 2256 1581 1919 1581 
Q 1219 1581 811 2004 
Q 403 2428 403 3163 
Q 403 3881 828 4315 
Q 1253 4750 1959 4750 
Q 2769 4750 3195 4129 
Q 3622 3509 3622 2328 
Q 3622 1225 3098 567 
Q 2575 -91 1691 -91 
Q 1453 -91 1209 -44 
Q 966 3 703 97 
z
M 1959 2075 
Q 2384 2075 2632 2365 
Q 2881 2656 2881 3163 
Q 2881 3666 2632 3958 
Q 2384 4250 1959 4250 
Q 1534 4250 1286 3958 
Q 1038 3666 1038 3163 
Q 1038 2656 1286 2365 
Q 1534 2075 1959 2075 
z
" transform="scale(0.015625)"/>
      </defs>
      <use xlink:href="#DejaVuSans-Oblique-61" transform="translate(0 0.0625)"/>
      <use xlink:href="#DejaVuSans-30" transform="translate(61.279297 -16.34375) scale(0.7)"/>
      <use xlink:href="#DejaVuSans-39" transform="translate(105.81543 -16.34375) scale(0.7)"/>
      <use xlink:href="#DejaVuSans-28" transform="translate(153.085938 0.0625)"/>
      <use xlink:href="#DejaVuSans-Oblique-6c" transform="translate(192.099609 0.0625)"/>
      <use xlink:href="#DejaVuSans-Oblique-46" transform="translate(219.882812 -16.34375) scale(0.7)"/>
      <use xlink:href="#DejaVuSans-2c" transform="translate(262.880859 0.0625)"/>
      <use xlink:href="#DejaVuSans-Oblique-73" transform="translate(314.150391 0.0625)"/>
      <use xlink:href="#DejaVuSans-70" transform="translate(370.899896 50.810938) scale(0.7)"/>
      <use xlink:href="#DejaVuSans-68" transform="translate(415.33349 50.810938) scale(0.7)"/>
      <use xlink:href="#DejaVuSans-79" transform="translate(459.698724 50.810938) scale(0.7)"/>
      <use xlink:href="#DejaVuSans-73" transform="translate(501.124505 50.810938) scale(0.7)"/>
      <use xlink:href="#DejaVuSans-Oblique-46" transform="translate(366.25 -27.28125) scale(0.7)"/>
      <use xlink:href="#DejaVuSans-29" transform="translate(540.328607 0.0625)"/>
     </g>
    </g>
    <g id="LineCollection_13">
     <path d="M 356.745625 267.46 
L 366.745625 267.46 
" style="fill: none; stroke: #70bf41; stroke-width: 3"/>
    </g>
    <g id="LineCollection_14">
     <path d="M 361.745625 272.46 
L 361.745625 262.46 
" style="fill: none; stroke: #70bf41; stroke-width: 3"/>
    </g>
    <g id="line2d_113">
     <path d="M 351.745625 267.46 
L 371.745625 267.46 
" style="fill: none; stroke: #70bf41; stroke-width: 1.5; stroke-linecap: square"/>
    </g>
    <g id="line2d_114">
     <defs>
      <path id="ma0aab41e28" d="M 0 4 
C 1.060812 4 2.078319 3.578535 2.828427 2.828427 
C 3.578535 2.078319 4 1.060812 4 0 
C 4 -1.060812 3.578535 -2.078319 2.828427 -2.828427 
C 2.078319 -3.578535 1.060812 -4 0 -4 
C -1.060812 -4 -2.078319 -3.578535 -2.828427 -2.828427 
C -3.578535 -2.078319 -4 -1.060812 -4 0 
C -4 1.060812 -3.578535 2.078319 -2.828427 2.828427 
C -2.078319 3.578535 -1.060812 4 0 4 
z
" style="stroke: #ffffff; stroke-width: 2"/>
     </defs>
     <g>
      <use xlink:href="#ma0aab41e28" x="361.745625" y="267.46" style="fill: #70bf41; stroke: #ffffff; stroke-width: 2"/>
     </g>
    </g>
    <g id="text_16">
     <!-- $a_{12}(l_F,s_F^{\rm phys})$ -->
     <g transform="translate(379.745625 270.96) scale(0.1 -0.1)">
      <use xlink:href="#DejaVuSans-Oblique-61" transform="translate(0 0.0625)"/>
      <use xlink:href="#DejaVuSans-31" transform="translate(61.279297 -16.34375) scale(0.7)"/>
      <use xlink:href="#DejaVuSans-32" transform="translate(105.81543 -16.34375) scale(0.7)"/>
      <use xlink:href="#DejaVuSans-28" transform="translate(153.085938 0.0625)"/>
      <use xlink:href="#DejaVuSans-Oblique-6c" transform="translate(192.099609 0.0625)"/>
      <use xlink:href="#DejaVuSans-Oblique-46" transform="translate(219.882812 -16.34375) scale(0.7)"/>
      <use xlink:href="#DejaVuSans-2c" transform="translate(262.880859 0.0625)"/>
      <use xlink:href="#DejaVuSans-Oblique-73" transform="translate(314.150391 0.0625)"/>
      <use xlink:href="#DejaVuSans-70" transform="translate(370.899896 50.810938) scale(0.7)"/>
      <use xlink:href="#DejaVuSans-68" transform="translate(415.33349 50.810938) scale(0.7)"/>
      <use xlink:href="#DejaVuSans-79" transform="translate(459.698724 50.810938) scale(0.7)"/>
      <use xlink:href="#DejaVuSans-73" transform="translate(501.124505 50.810938) scale(0.7)"/>
      <use xlink:href="#DejaVuSans-Oblique-46" transform="translate(366.25 -27.28125) scale(0.7)"/>
      <use xlink:href="#DejaVuSans-29" transform="translate(540.328607 0.0625)"/>
     </g>
    </g>
    <g id="LineCollection_15">
     <path d="M 356.745625 285.66 
L 366.745625 285.66 
" style="fill: none; stroke: #ec5d57; stroke-width: 3"/>
    </g>
    <g id="LineCollection_16">
     <path d="M 361.745625 290.66 
L 361.745625 280.66 
" style="fill: none; stroke: #ec5d57; stroke-width: 3"/>
    </g>
    <g id="line2d_115">
     <path d="M 351.745625 285.66 
L 371.745625 285.66 
" style="fill: none; stroke: #ec5d57; stroke-width: 1.5; stroke-linecap: square"/>
    </g>
    <g id="line2d_116">
     <defs>
      <path id="mfc9d90a7f2" d="M 0 4 
C 1.060812 4 2.078319 3.578535 2.828427 2.828427 
C 3.578535 2.078319 4 1.060812 4 0 
C 4 -1.060812 3.578535 -2.078319 2.828427 -2.828427 
C 2.078319 -3.578535 1.060812 -4 0 -4 
C -1.060812 -4 -2.078319 -3.578535 -2.828427 -2.828427 
C -3.578535 -2.078319 -4 -1.060812 -4 0 
C -4 1.060812 -3.578535 2.078319 -2.828427 2.828427 
C -2.078319 3.578535 -1.060812 4 0 4 
z
" style="stroke: #ffffff; stroke-width: 2"/>
     </defs>
     <g>
      <use xlink:href="#mfc9d90a7f2" x="361.745625" y="285.66" style="fill: #ec5d57; stroke: #ffffff; stroke-width: 2"/>
     </g>
    </g>
    <g id="text_17">
     <!-- $a_{15}(l_F,s_F^{\rm phys})$ -->
     <g transform="translate(379.745625 289.16) scale(0.1 -0.1)">
      <use xlink:href="#DejaVuSans-Oblique-61" transform="translate(0 0.0625)"/>
      <use xlink:href="#DejaVuSans-31" transform="translate(61.279297 -16.34375) scale(0.7)"/>
      <use xlink:href="#DejaVuSans-35" transform="translate(105.81543 -16.34375) scale(0.7)"/>
      <use xlink:href="#DejaVuSans-28" transform="translate(153.085938 0.0625)"/>
      <use xlink:href="#DejaVuSans-Oblique-6c" transform="translate(192.099609 0.0625)"/>
      <use xlink:href="#DejaVuSans-Oblique-46" transform="translate(219.882812 -16.34375) scale(0.7)"/>
      <use xlink:href="#DejaVuSans-2c" transform="translate(262.880859 0.0625)"/>
      <use xlink:href="#DejaVuSans-Oblique-73" transform="translate(314.150391 0.0625)"/>
      <use xlink:href="#DejaVuSans-70" transform="translate(370.899896 50.810938) scale(0.7)"/>
      <use xlink:href="#DejaVuSans-68" transform="translate(415.33349 50.810938) scale(0.7)"/>
      <use xlink:href="#DejaVuSans-79" transform="translate(459.698724 50.810938) scale(0.7)"/>
      <use xlink:href="#DejaVuSans-73" transform="translate(501.124505 50.810938) scale(0.7)"/>
      <use xlink:href="#DejaVuSans-Oblique-46" transform="translate(366.25 -27.28125) scale(0.7)"/>
      <use xlink:href="#DejaVuSans-29" transform="translate(540.328607 0.0625)"/>
     </g>
    </g>
   </g>
  </g>
 </g>
 <defs>
  <clipPath id="pbcfe7958ae">
   <rect x="55.065625" y="7.2" width="391.68" height="293.76"/>
  </clipPath>
 </defs>
 <defs>
  <pattern id="h6731f4cb33" patternUnits="userSpaceOnUse" x="0" y="0" width="72" height="72">
   <rect x="0" y="0" width="73" height="73" fill="none"/>
   <path d="M -36 36 
L 36 -36 
M -24 48 
L 48 -24 
M -12 60 
L 60 -12 
M 0 72 
L 72 0 
M 12 84 
L 84 12 
M 24 96 
L 96 24 
M 36 108 
L 108 36 
" style="fill: #000000; stroke: #000000; stroke-width: 1.0; stroke-linecap: butt; stroke-linejoin: miter; stroke-opacity: 0.6"/>
  </pattern>
 </defs>
</svg>
