<?xml version="1.0" encoding="utf-8" standalone="no"?>
<!DOCTYPE svg PUBLIC "-//W3C//DTD SVG 1.1//EN"
  "http://www.w3.org/Graphics/SVG/1.1/DTD/svg11.dtd">
<svg xmlns:xlink="http://www.w3.org/1999/xlink" width="449.02375pt" height="340.738125pt" viewBox="0 0 449.02375 340.738125" xmlns="http://www.w3.org/2000/svg" version="1.1">
 <metadata>
  <rdf:RDF xmlns:dc="http://purl.org/dc/elements/1.1/" xmlns:cc="http://creativecommons.org/ns#" xmlns:rdf="http://www.w3.org/1999/02/22-rdf-syntax-ns#">
   <cc:Work>
    <dc:type rdf:resource="http://purl.org/dc/dcmitype/StillImage"/>
    <dc:date>2025-03-01T16:24:56.940603</dc:date>
    <dc:format>image/svg+xml</dc:format>
    <dc:creator>
     <cc:Agent>
      <dc:title>Matplotlib v3.10.0, https://matplotlib.org/</dc:title>
     </cc:Agent>
    </dc:creator>
   </cc:Work>
  </rdf:RDF>
 </metadata>
 <defs>
  <style type="text/css">*{stroke-linejoin: round; stroke-linecap: butt}</style>
 </defs>
 <g id="figure_1">
  <g id="patch_1">
   <path d="M 0 340.738125 
L 449.02375 340.738125 
L 449.02375 0 
L 0 0 
z
" style="fill: #ffffff"/>
  </g>
  <g id="axes_1">
   <g id="patch_2">
    <path d="M 50.14375 300.96 
L 441.82375 300.96 
L 441.82375 7.2 
L 50.14375 7.2 
z
" style="fill: #ffffff"/>
   </g>
   <g id="FillBetweenPolyCollection_1">
    <path d="M 69.821929 134.151753 
L 69.821929 184.624721 
L 76.999528 180.760813 
L 84.177128 176.932073 
L 91.354727 173.138275 
L 98.532326 169.379196 
L 105.709925 165.654615 
L 112.887524 161.964318 
L 120.065123 158.308096 
L 127.242723 154.685747 
L 134.420322 151.097083 
L 141.597921 147.541924 
L 148.77552 144.020109 
L 155.953119 140.53149 
L 163.130719 137.075941 
L 170.308318 133.653359 
L 177.485917 130.263665 
L 184.663516 126.906812 
L 191.841115 123.582786 
L 199.018714 120.291613 
L 206.196314 117.03336 
L 213.373913 113.808147 
L 220.551512 110.616152 
L 227.729111 107.457617 
L 234.90671 104.332862 
L 242.084309 101.242291 
L 249.261909 98.18641 
L 256.439508 95.165839 
L 263.617107 92.181331 
L 270.794706 89.233793 
L 277.972305 86.324309 
L 285.149905 83.454169 
L 292.327504 80.624897 
L 299.505103 77.83829 
L 306.682702 75.096455 
L 313.860301 72.401847 
L 321.0379 69.757314 
L 328.2155 67.166131 
L 335.393099 64.632029 
L 342.570698 62.159209 
L 349.748297 59.752325 
L 356.925896 57.416432 
L 364.103496 55.156879 
L 371.281095 52.979153 
L 378.458694 50.888654 
L 385.636293 48.890425 
L 392.813892 46.98887 
L 399.991491 45.187486 
L 407.169091 43.48867 
L 414.34669 41.893622 
L 421.524289 40.402369 
L 421.524289 20.552727 
L 421.524289 20.552727 
L 414.34669 22.591107 
L 407.169091 24.603853 
L 399.991491 26.590614 
L 392.813892 28.552207 
L 385.636293 30.490644 
L 378.458694 32.40904 
L 371.281095 34.311416 
L 364.103496 36.202434 
L 356.925896 38.08711 
L 349.748297 39.970547 
L 342.570698 41.857713 
L 335.393099 43.753281 
L 328.2155 45.66152 
L 321.0379 47.586249 
L 313.860301 49.530817 
L 306.682702 51.498116 
L 299.505103 53.490611 
L 292.327504 55.510374 
L 285.149905 57.55913 
L 277.972305 59.638292 
L 270.794706 61.749003 
L 263.617107 63.892169 
L 256.439508 66.068491 
L 249.261909 68.278495 
L 242.084309 70.522549 
L 234.90671 72.800892 
L 227.729111 75.113646 
L 220.551512 77.460833 
L 213.373913 79.84239 
L 206.196314 82.258177 
L 199.018714 84.707988 
L 191.841115 87.191561 
L 184.663516 89.70858 
L 177.485917 92.258689 
L 170.308318 94.84149 
L 163.130719 97.456554 
L 155.953119 100.10342 
L 148.77552 102.7816 
L 141.597921 105.490587 
L 134.420322 108.229851 
L 127.242723 110.998845 
L 120.065123 113.79701 
L 112.887524 116.623773 
L 105.709925 119.47855 
L 98.532326 122.36075 
L 91.354727 125.269774 
L 84.177128 128.205021 
L 76.999528 131.165883 
L 69.821929 134.151753 
z
" clip-path="url(#p82d0cb64ad)" style="fill: url(#h51acd567f5); stroke: #000000; stroke-opacity: 0.6"/>
   </g>
   <g id="FillBetweenPolyCollection_2">
    <defs>
     <path id="m28e61948e1" d="M 69.821929 -90.752123 
L 69.821929 -53.130852 
L 76.999528 -57.684745 
L 84.177128 -62.198382 
L 91.354727 -66.672074 
L 98.532326 -71.106155 
L 105.709925 -75.500987 
L 112.887524 -79.856953 
L 120.065123 -84.174457 
L 127.242723 -88.453928 
L 134.420322 -92.695808 
L 141.597921 -96.900562 
L 148.77552 -101.068664 
L 155.953119 -105.200605 
L 163.130719 -109.296886 
L 170.308318 -113.358015 
L 177.485917 -117.384506 
L 184.663516 -121.376876 
L 191.841115 -125.335645 
L 199.018714 -129.26133 
L 206.196314 -133.154444 
L 213.373913 -137.015493 
L 220.551512 -140.844974 
L 227.729111 -144.643373 
L 234.90671 -148.411162 
L 242.084309 -152.148795 
L 249.261909 -155.856706 
L 256.439508 -159.535306 
L 263.617107 -163.18498 
L 270.794706 -166.80608 
L 277.972305 -170.398921 
L 285.149905 -173.963777 
L 292.327504 -177.500867 
L 299.505103 -181.010349 
L 306.682702 -184.492301 
L 313.860301 -187.946699 
L 321.0379 -191.373389 
L 328.2155 -194.772041 
L 335.393099 -198.142081 
L 342.570698 -201.482592 
L 349.748297 -204.792157 
L 356.925896 -208.068603 
L 364.103496 -211.308593 
L 371.281095 -214.506929 
L 378.458694 -217.655393 
L 385.636293 -220.740833 
L 392.813892 -223.742365 
L 399.991491 -226.628673 
L 407.169091 -229.359906 
L 414.34669 -231.901586 
L 421.524289 -234.245499 
L 421.524289 -238.894745 
L 421.524289 -238.894745 
L 414.34669 -236.187544 
L 407.169091 -233.602596 
L 399.991491 -231.13207 
L 392.813892 -228.741871 
L 385.636293 -226.39253 
L 378.458694 -224.053113 
L 371.281095 -221.703121 
L 364.103496 -219.329783 
L 356.925896 -216.925264 
L 349.748297 -214.48475 
L 342.570698 -212.005285 
L 335.393099 -209.48508 
L 328.2155 -206.9231 
L 321.0379 -204.318811 
L 313.860301 -201.672022 
L 306.682702 -198.982786 
L 299.505103 -196.25133 
L 292.327504 -193.478014 
L 285.149905 -190.6633 
L 277.972305 -187.807726 
L 270.794706 -184.911896 
L 263.617107 -181.976466 
L 256.439508 -179.002133 
L 249.261909 -175.989634 
L 242.084309 -172.939734 
L 234.90671 -169.853228 
L 227.729111 -166.730933 
L 220.551512 -163.573686 
L 213.373913 -160.382341 
L 206.196314 -157.157766 
L 199.018714 -153.900842 
L 191.841115 -150.612457 
L 184.663516 -147.293508 
L 177.485917 -143.944895 
L 170.308318 -140.567518 
L 163.130719 -137.162278 
L 155.953119 -133.730073 
L 148.77552 -130.271793 
L 141.597921 -126.788322 
L 134.420322 -123.280533 
L 127.242723 -119.749283 
L 120.065123 -116.19542 
L 112.887524 -112.619769 
L 105.709925 -109.023141 
L 98.532326 -105.406323 
L 91.354727 -101.770082 
L 84.177128 -98.11516 
L 76.999528 -94.442276 
L 69.821929 -90.752123 
z
" style="stroke: #ec5d57; stroke-opacity: 0.4"/>
    </defs>
    <g clip-path="url(#p82d0cb64ad)">
     <use xlink:href="#m28e61948e1" x="0" y="340.738125" style="fill: #ec5d57; fill-opacity: 0.4; stroke: #ec5d57; stroke-opacity: 0.4"/>
    </g>
   </g>
   <g id="FillBetweenPolyCollection_3">
    <defs>
     <path id="m0719492064" d="M 69.821929 -120.225384 
L 69.821929 -89.187492 
L 76.999528 -93.437748 
L 84.177128 -97.64727 
L 91.354727 -101.816461 
L 98.532326 -105.945753 
L 105.709925 -110.035607 
L 112.887524 -114.086513 
L 120.065123 -118.09898 
L 127.242723 -122.073545 
L 134.420322 -126.01076 
L 141.597921 -129.911192 
L 148.77552 -133.775424 
L 155.953119 -137.604046 
L 163.130719 -141.397654 
L 170.308318 -145.156847 
L 177.485917 -148.882222 
L 184.663516 -152.574374 
L 191.841115 -156.233887 
L 199.018714 -159.861335 
L 206.196314 -163.457279 
L 213.373913 -167.02226 
L 220.551512 -170.556799 
L 227.729111 -174.06139 
L 234.90671 -177.5365 
L 242.084309 -180.982562 
L 249.261909 -184.399971 
L 256.439508 -187.789077 
L 263.617107 -191.150179 
L 270.794706 -194.483514 
L 277.972305 -197.789245 
L 285.149905 -201.067442 
L 292.327504 -204.318061 
L 299.505103 -207.540907 
L 306.682702 -210.735587 
L 313.860301 -213.901433 
L 321.0379 -217.037399 
L 328.2155 -220.141883 
L 335.393099 -223.212467 
L 342.570698 -226.24549 
L 349.748297 -229.235362 
L 356.925896 -232.173473 
L 364.103496 -235.046573 
L 371.281095 -237.834776 
L 378.458694 -240.51056 
L 385.636293 -243.042404 
L 392.813892 -245.406353 
L 399.991491 -247.598828 
L 407.169091 -249.636335 
L 414.34669 -251.543154 
L 421.524289 -253.340985 
L 421.524289 -260.377352 
L 421.524289 -260.377352 
L 414.34669 -257.654971 
L 407.169091 -254.96516 
L 399.991491 -252.330004 
L 392.813892 -249.774163 
L 385.636293 -247.314527 
L 378.458694 -244.9479 
L 371.281095 -242.650709 
L 364.103496 -240.391817 
L 356.925896 -238.144083 
L 349.748297 -235.888005 
L 342.570698 -233.610715 
L 335.393099 -231.303986 
L 328.2155 -228.962612 
L 321.0379 -226.583313 
L 313.860301 -224.164054 
L 306.682702 -221.703617 
L 299.505103 -219.201336 
L 292.327504 -216.656929 
L 285.149905 -214.070385 
L 277.972305 -211.44189 
L 270.794706 -208.771784 
L 263.617107 -206.060519 
L 256.439508 -203.308642 
L 249.261909 -200.516772 
L 242.084309 -197.685591 
L 234.90671 -194.815832 
L 227.729111 -191.908271 
L 220.551512 -188.963726 
L 213.373913 -185.983045 
L 206.196314 -182.967106 
L 199.018714 -179.916813 
L 191.841115 -176.833089 
L 184.663516 -173.716877 
L 177.485917 -170.569135 
L 170.308318 -167.390829 
L 163.130719 -164.182937 
L 155.953119 -160.946439 
L 148.77552 -157.682316 
L 141.597921 -154.391548 
L 134.420322 -151.075107 
L 127.242723 -147.733958 
L 120.065123 -144.369052 
L 112.887524 -140.981324 
L 105.709925 -137.571691 
L 98.532326 -134.141049 
L 91.354727 -130.690267 
L 84.177128 -127.220191 
L 76.999528 -123.731635 
L 69.821929 -120.225384 
z
" style="stroke: #70bf41; stroke-opacity: 0.4"/>
    </defs>
    <g clip-path="url(#p82d0cb64ad)">
     <use xlink:href="#m0719492064" x="0" y="340.738125" style="fill: #70bf41; fill-opacity: 0.4; stroke: #70bf41; stroke-opacity: 0.4"/>
    </g>
   </g>
   <g id="FillBetweenPolyCollection_4">
    <defs>
     <path id="maf8c2cec9c" d="M 69.821929 -156.717178 
L 69.821929 -121.02386 
L 76.999528 -125.062179 
L 84.177128 -129.062572 
L 91.354727 -133.025431 
L 98.532326 -136.951158 
L 105.709925 -140.840173 
L 112.887524 -144.692902 
L 120.065123 -148.509783 
L 127.242723 -152.291257 
L 134.420322 -156.037772 
L 141.597921 -159.749778 
L 148.77552 -163.427721 
L 155.953119 -167.072048 
L 163.130719 -170.683199 
L 170.308318 -174.261604 
L 177.485917 -177.807684 
L 184.663516 -181.321846 
L 191.841115 -184.804479 
L 199.018714 -188.255953 
L 206.196314 -191.676613 
L 213.373913 -195.066778 
L 220.551512 -198.426732 
L 227.729111 -201.756721 
L 234.90671 -205.056948 
L 242.084309 -208.327563 
L 249.261909 -211.568654 
L 256.439508 -214.780231 
L 263.617107 -217.962219 
L 270.794706 -221.114426 
L 277.972305 -224.236526 
L 285.149905 -227.328018 
L 292.327504 -230.388177 
L 299.505103 -233.415995 
L 306.682702 -236.410084 
L 313.860301 -239.368561 
L 321.0379 -242.288879 
L 328.2155 -245.167595 
L 335.393099 -248.000067 
L 342.570698 -250.78006 
L 349.748297 -253.499278 
L 356.925896 -256.146914 
L 364.103496 -258.709454 
L 371.281095 -261.171158 
L 378.458694 -263.515768 
L 385.636293 -265.729546 
L 392.813892 -267.804681 
L 399.991491 -269.741096 
L 407.169091 -271.545501 
L 414.34669 -273.228497 
L 421.524289 -274.80159 
L 421.524289 -284.913171 
L 421.524289 -284.913171 
L 414.34669 -282.441682 
L 407.169091 -280.00285 
L 399.991491 -277.608565 
L 392.813892 -275.269809 
L 385.636293 -272.993675 
L 378.458694 -270.780471 
L 371.281095 -268.622765 
L 364.103496 -266.507206 
L 356.925896 -264.417915 
L 349.748297 -262.339537 
L 342.570698 -260.258939 
L 335.393099 -258.165699 
L 328.2155 -256.051902 
L 321.0379 -253.911696 
L 313.860301 -251.740822 
L 306.682702 -249.536221 
L 299.505103 -247.295727 
L 292.327504 -245.017839 
L 285.149905 -242.701554 
L 277.972305 -240.346245 
L 270.794706 -237.951572 
L 263.617107 -235.517414 
L 256.439508 -233.043829 
L 249.261909 -230.531009 
L 242.084309 -227.979259 
L 234.90671 -225.388974 
L 227.729111 -222.760624 
L 220.551512 -220.094742 
L 213.373913 -217.391912 
L 206.196314 -214.652765 
L 199.018714 -211.877968 
L 191.841115 -209.068221 
L 184.663516 -206.224252 
L 177.485917 -203.346815 
L 170.308318 -200.43668 
L 163.130719 -197.494639 
L 155.953119 -194.521492 
L 148.77552 -191.518056 
L 141.597921 -188.485153 
L 134.420322 -185.423609 
L 127.242723 -182.334257 
L 120.065123 -179.217929 
L 112.887524 -176.075453 
L 105.709925 -172.907656 
L 98.532326 -169.715356 
L 91.354727 -166.499365 
L 84.177128 -163.260483 
L 76.999528 -159.999496 
L 69.821929 -156.717178 
z
" style="stroke: #51a7f9; stroke-opacity: 0.4"/>
    </defs>
    <g clip-path="url(#p82d0cb64ad)">
     <use xlink:href="#maf8c2cec9c" x="0" y="340.738125" style="fill: #51a7f9; fill-opacity: 0.4; stroke: #51a7f9; stroke-opacity: 0.4"/>
    </g>
   </g>
   <g id="FillBetweenPolyCollection_5">
    <defs>
     <path id="mc38793747d" d="M 69.821929 -184.381846 
L 69.821929 -141.188249 
L 76.999528 -145.121363 
L 84.177128 -149.018431 
L 91.354727 -152.879757 
L 98.532326 -156.705653 
L 105.709925 -160.496431 
L 112.887524 -164.252405 
L 120.065123 -167.973887 
L 127.242723 -171.661187 
L 134.420322 -175.314611 
L 141.597921 -178.934457 
L 148.77552 -182.521015 
L 155.953119 -186.074564 
L 163.130719 -189.595369 
L 170.308318 -193.083679 
L 177.485917 -196.539722 
L 184.663516 -199.963705 
L 191.841115 -203.355809 
L 199.018714 -206.716183 
L 206.196314 -210.044942 
L 213.373913 -213.342157 
L 220.551512 -216.607854 
L 227.729111 -219.842004 
L 234.90671 -223.044511 
L 242.084309 -226.215205 
L 249.261909 -229.353827 
L 256.439508 -232.460011 
L 263.617107 -235.533266 
L 270.794706 -238.572953 
L 277.972305 -241.578251 
L 285.149905 -244.548122 
L 292.327504 -247.481264 
L 299.505103 -250.376059 
L 306.682702 -253.230499 
L 313.860301 -256.042109 
L 321.0379 -258.80785 
L 328.2155 -261.524017 
L 335.393099 -264.186124 
L 342.570698 -266.788806 
L 349.748297 -269.325761 
L 356.925896 -271.78976 
L 364.103496 -274.172797 
L 371.281095 -276.466428 
L 378.458694 -278.662318 
L 385.636293 -280.752986 
L 392.813892 -282.732584 
L 399.991491 -284.597543 
L 407.169091 -286.346852 
L 414.34669 -287.981923 
L 421.524289 -289.506077 
L 421.524289 -304.027563 
L 421.524289 -304.027563 
L 414.34669 -301.805774 
L 407.169091 -299.617125 
L 399.991491 -297.465323 
L 392.813892 -295.352159 
L 385.636293 -293.277008 
L 378.458694 -291.236682 
L 371.281095 -289.225717 
L 364.103496 -287.237013 
L 356.925896 -285.262619 
L 349.748297 -283.294474 
L 342.570698 -281.324953 
L 335.393099 -279.347212 
L 328.2155 -277.35533 
L 321.0379 -275.344325 
L 313.860301 -273.310096 
L 306.682702 -271.249317 
L 299.505103 -269.159335 
L 292.327504 -267.038055 
L 285.149905 -264.883855 
L 277.972305 -262.695496 
L 270.794706 -260.472062 
L 263.617107 -258.212896 
L 256.439508 -255.917561 
L 249.261909 -253.585798 
L 242.084309 -251.217502 
L 234.90671 -248.812688 
L 227.729111 -246.37148 
L 220.551512 -243.894091 
L 213.373913 -241.380808 
L 206.196314 -238.831984 
L 199.018714 -236.248027 
L 191.841115 -233.629393 
L 184.663516 -230.976579 
L 177.485917 -228.290116 
L 170.308318 -225.570568 
L 163.130719 -222.818524 
L 155.953119 -220.034597 
L 148.77552 -217.219416 
L 141.597921 -214.373632 
L 134.420322 -211.497903 
L 127.242723 -208.592904 
L 120.065123 -205.659316 
L 112.887524 -202.697827 
L 105.709925 -199.709129 
L 98.532326 -196.693918 
L 91.354727 -193.65289 
L 84.177128 -190.586741 
L 76.999528 -187.496164 
L 69.821929 -184.381846 
z
" style="stroke: #6a5acd; stroke-opacity: 0.4"/>
    </defs>
    <g clip-path="url(#p82d0cb64ad)">
     <use xlink:href="#mc38793747d" x="0" y="340.738125" style="fill: #6a5acd; fill-opacity: 0.4; stroke: #6a5acd; stroke-opacity: 0.4"/>
    </g>
   </g>
   <g id="matplotlib.axis_1">
    <g id="xtick_1">
     <g id="line2d_1">
      <defs>
       <path id="m171a34158b" d="M 0 0 
L 0 3.5 
" style="stroke: #000000; stroke-width: 0.8"/>
      </defs>
      <g>
       <use xlink:href="#m171a34158b" x="69.751502" y="300.96" style="stroke: #000000; stroke-width: 0.8"/>
      </g>
     </g>
     <g id="text_1">
      <!-- 0.20 -->
      <g transform="translate(58.61869 315.558437) scale(0.1 -0.1)">
       <defs>
        <path id="DejaVuSans-30" d="M 2034 4250 
Q 1547 4250 1301 3770 
Q 1056 3291 1056 2328 
Q 1056 1369 1301 889 
Q 1547 409 2034 409 
Q 2525 409 2770 889 
Q 3016 1369 3016 2328 
Q 3016 3291 2770 3770 
Q 2525 4250 2034 4250 
z
M 2034 4750 
Q 2819 4750 3233 4129 
Q 3647 3509 3647 2328 
Q 3647 1150 3233 529 
Q 2819 -91 2034 -91 
Q 1250 -91 836 529 
Q 422 1150 422 2328 
Q 422 3509 836 4129 
Q 1250 4750 2034 4750 
z
" transform="scale(0.015625)"/>
        <path id="DejaVuSans-2e" d="M 684 794 
L 1344 794 
L 1344 0 
L 684 0 
L 684 794 
z
" transform="scale(0.015625)"/>
        <path id="DejaVuSans-32" d="M 1228 531 
L 3431 531 
L 3431 0 
L 469 0 
L 469 531 
Q 828 903 1448 1529 
Q 2069 2156 2228 2338 
Q 2531 2678 2651 2914 
Q 2772 3150 2772 3378 
Q 2772 3750 2511 3984 
Q 2250 4219 1831 4219 
Q 1534 4219 1204 4116 
Q 875 4013 500 3803 
L 500 4441 
Q 881 4594 1212 4672 
Q 1544 4750 1819 4750 
Q 2544 4750 2975 4387 
Q 3406 4025 3406 3419 
Q 3406 3131 3298 2873 
Q 3191 2616 2906 2266 
Q 2828 2175 2409 1742 
Q 1991 1309 1228 531 
z
" transform="scale(0.015625)"/>
       </defs>
       <use xlink:href="#DejaVuSans-30"/>
       <use xlink:href="#DejaVuSans-2e" transform="translate(63.623047 0)"/>
       <use xlink:href="#DejaVuSans-32" transform="translate(95.410156 0)"/>
       <use xlink:href="#DejaVuSans-30" transform="translate(159.033203 0)"/>
      </g>
     </g>
    </g>
    <g id="xtick_2">
     <g id="line2d_2">
      <g>
       <use xlink:href="#m171a34158b" x="113.479204" y="300.96" style="stroke: #000000; stroke-width: 0.8"/>
      </g>
     </g>
     <g id="text_2">
      <!-- 0.22 -->
      <g transform="translate(102.346391 315.558437) scale(0.1 -0.1)">
       <use xlink:href="#DejaVuSans-30"/>
       <use xlink:href="#DejaVuSans-2e" transform="translate(63.623047 0)"/>
       <use xlink:href="#DejaVuSans-32" transform="translate(95.410156 0)"/>
       <use xlink:href="#DejaVuSans-32" transform="translate(159.033203 0)"/>
      </g>
     </g>
    </g>
    <g id="xtick_3">
     <g id="line2d_3">
      <g>
       <use xlink:href="#m171a34158b" x="157.206905" y="300.96" style="stroke: #000000; stroke-width: 0.8"/>
      </g>
     </g>
     <g id="text_3">
      <!-- 0.24 -->
      <g transform="translate(146.074093 315.558437) scale(0.1 -0.1)">
       <defs>
        <path id="DejaVuSans-34" d="M 2419 4116 
L 825 1625 
L 2419 1625 
L 2419 4116 
z
M 2253 4666 
L 3047 4666 
L 3047 1625 
L 3713 1625 
L 3713 1100 
L 3047 1100 
L 3047 0 
L 2419 0 
L 2419 1100 
L 313 1100 
L 313 1709 
L 2253 4666 
z
" transform="scale(0.015625)"/>
       </defs>
       <use xlink:href="#DejaVuSans-30"/>
       <use xlink:href="#DejaVuSans-2e" transform="translate(63.623047 0)"/>
       <use xlink:href="#DejaVuSans-32" transform="translate(95.410156 0)"/>
       <use xlink:href="#DejaVuSans-34" transform="translate(159.033203 0)"/>
      </g>
     </g>
    </g>
    <g id="xtick_4">
     <g id="line2d_4">
      <g>
       <use xlink:href="#m171a34158b" x="200.934607" y="300.96" style="stroke: #000000; stroke-width: 0.8"/>
      </g>
     </g>
     <g id="text_4">
      <!-- 0.26 -->
      <g transform="translate(189.801794 315.558437) scale(0.1 -0.1)">
       <defs>
        <path id="DejaVuSans-36" d="M 2113 2584 
Q 1688 2584 1439 2293 
Q 1191 2003 1191 1497 
Q 1191 994 1439 701 
Q 1688 409 2113 409 
Q 2538 409 2786 701 
Q 3034 994 3034 1497 
Q 3034 2003 2786 2293 
Q 2538 2584 2113 2584 
z
M 3366 4563 
L 3366 3988 
Q 3128 4100 2886 4159 
Q 2644 4219 2406 4219 
Q 1781 4219 1451 3797 
Q 1122 3375 1075 2522 
Q 1259 2794 1537 2939 
Q 1816 3084 2150 3084 
Q 2853 3084 3261 2657 
Q 3669 2231 3669 1497 
Q 3669 778 3244 343 
Q 2819 -91 2113 -91 
Q 1303 -91 875 529 
Q 447 1150 447 2328 
Q 447 3434 972 4092 
Q 1497 4750 2381 4750 
Q 2619 4750 2861 4703 
Q 3103 4656 3366 4563 
z
" transform="scale(0.015625)"/>
       </defs>
       <use xlink:href="#DejaVuSans-30"/>
       <use xlink:href="#DejaVuSans-2e" transform="translate(63.623047 0)"/>
       <use xlink:href="#DejaVuSans-32" transform="translate(95.410156 0)"/>
       <use xlink:href="#DejaVuSans-36" transform="translate(159.033203 0)"/>
      </g>
     </g>
    </g>
    <g id="xtick_5">
     <g id="line2d_5">
      <g>
       <use xlink:href="#m171a34158b" x="244.662308" y="300.96" style="stroke: #000000; stroke-width: 0.8"/>
      </g>
     </g>
     <g id="text_5">
      <!-- 0.28 -->
      <g transform="translate(233.529496 315.558437) scale(0.1 -0.1)">
       <defs>
        <path id="DejaVuSans-38" d="M 2034 2216 
Q 1584 2216 1326 1975 
Q 1069 1734 1069 1313 
Q 1069 891 1326 650 
Q 1584 409 2034 409 
Q 2484 409 2743 651 
Q 3003 894 3003 1313 
Q 3003 1734 2745 1975 
Q 2488 2216 2034 2216 
z
M 1403 2484 
Q 997 2584 770 2862 
Q 544 3141 544 3541 
Q 544 4100 942 4425 
Q 1341 4750 2034 4750 
Q 2731 4750 3128 4425 
Q 3525 4100 3525 3541 
Q 3525 3141 3298 2862 
Q 3072 2584 2669 2484 
Q 3125 2378 3379 2068 
Q 3634 1759 3634 1313 
Q 3634 634 3220 271 
Q 2806 -91 2034 -91 
Q 1263 -91 848 271 
Q 434 634 434 1313 
Q 434 1759 690 2068 
Q 947 2378 1403 2484 
z
M 1172 3481 
Q 1172 3119 1398 2916 
Q 1625 2713 2034 2713 
Q 2441 2713 2670 2916 
Q 2900 3119 2900 3481 
Q 2900 3844 2670 4047 
Q 2441 4250 2034 4250 
Q 1625 4250 1398 4047 
Q 1172 3844 1172 3481 
z
" transform="scale(0.015625)"/>
       </defs>
       <use xlink:href="#DejaVuSans-30"/>
       <use xlink:href="#DejaVuSans-2e" transform="translate(63.623047 0)"/>
       <use xlink:href="#DejaVuSans-32" transform="translate(95.410156 0)"/>
       <use xlink:href="#DejaVuSans-38" transform="translate(159.033203 0)"/>
      </g>
     </g>
    </g>
    <g id="xtick_6">
     <g id="line2d_6">
      <g>
       <use xlink:href="#m171a34158b" x="288.39001" y="300.96" style="stroke: #000000; stroke-width: 0.8"/>
      </g>
     </g>
     <g id="text_6">
      <!-- 0.30 -->
      <g transform="translate(277.257197 315.558437) scale(0.1 -0.1)">
       <defs>
        <path id="DejaVuSans-33" d="M 2597 2516 
Q 3050 2419 3304 2112 
Q 3559 1806 3559 1356 
Q 3559 666 3084 287 
Q 2609 -91 1734 -91 
Q 1441 -91 1130 -33 
Q 819 25 488 141 
L 488 750 
Q 750 597 1062 519 
Q 1375 441 1716 441 
Q 2309 441 2620 675 
Q 2931 909 2931 1356 
Q 2931 1769 2642 2001 
Q 2353 2234 1838 2234 
L 1294 2234 
L 1294 2753 
L 1863 2753 
Q 2328 2753 2575 2939 
Q 2822 3125 2822 3475 
Q 2822 3834 2567 4026 
Q 2313 4219 1838 4219 
Q 1578 4219 1281 4162 
Q 984 4106 628 3988 
L 628 4550 
Q 988 4650 1302 4700 
Q 1616 4750 1894 4750 
Q 2613 4750 3031 4423 
Q 3450 4097 3450 3541 
Q 3450 3153 3228 2886 
Q 3006 2619 2597 2516 
z
" transform="scale(0.015625)"/>
       </defs>
       <use xlink:href="#DejaVuSans-30"/>
       <use xlink:href="#DejaVuSans-2e" transform="translate(63.623047 0)"/>
       <use xlink:href="#DejaVuSans-33" transform="translate(95.410156 0)"/>
       <use xlink:href="#DejaVuSans-30" transform="translate(159.033203 0)"/>
      </g>
     </g>
    </g>
    <g id="xtick_7">
     <g id="line2d_7">
      <g>
       <use xlink:href="#m171a34158b" x="332.117711" y="300.96" style="stroke: #000000; stroke-width: 0.8"/>
      </g>
     </g>
     <g id="text_7">
      <!-- 0.32 -->
      <g transform="translate(320.984899 315.558437) scale(0.1 -0.1)">
       <use xlink:href="#DejaVuSans-30"/>
       <use xlink:href="#DejaVuSans-2e" transform="translate(63.623047 0)"/>
       <use xlink:href="#DejaVuSans-33" transform="translate(95.410156 0)"/>
       <use xlink:href="#DejaVuSans-32" transform="translate(159.033203 0)"/>
      </g>
     </g>
    </g>
    <g id="xtick_8">
     <g id="line2d_8">
      <g>
       <use xlink:href="#m171a34158b" x="375.845413" y="300.96" style="stroke: #000000; stroke-width: 0.8"/>
      </g>
     </g>
     <g id="text_8">
      <!-- 0.34 -->
      <g transform="translate(364.7126 315.558437) scale(0.1 -0.1)">
       <use xlink:href="#DejaVuSans-30"/>
       <use xlink:href="#DejaVuSans-2e" transform="translate(63.623047 0)"/>
       <use xlink:href="#DejaVuSans-33" transform="translate(95.410156 0)"/>
       <use xlink:href="#DejaVuSans-34" transform="translate(159.033203 0)"/>
      </g>
     </g>
    </g>
    <g id="xtick_9">
     <g id="line2d_9">
      <g>
       <use xlink:href="#m171a34158b" x="419.573114" y="300.96" style="stroke: #000000; stroke-width: 0.8"/>
      </g>
     </g>
     <g id="text_9">
      <!-- 0.36 -->
      <g transform="translate(408.440302 315.558437) scale(0.1 -0.1)">
       <use xlink:href="#DejaVuSans-30"/>
       <use xlink:href="#DejaVuSans-2e" transform="translate(63.623047 0)"/>
       <use xlink:href="#DejaVuSans-33" transform="translate(95.410156 0)"/>
       <use xlink:href="#DejaVuSans-36" transform="translate(159.033203 0)"/>
      </g>
     </g>
    </g>
    <g id="text_10">
     <!-- $s^2_F$ -->
     <g transform="translate(240.73375 330.738125) scale(0.1 -0.1)">
      <defs>
       <path id="DejaVuSans-Oblique-73" d="M 3200 3397 
L 3091 2853 
Q 2863 2978 2609 3040 
Q 2356 3103 2088 3103 
Q 1634 3103 1373 2948 
Q 1113 2794 1113 2528 
Q 1113 2219 1719 2053 
Q 1766 2041 1788 2034 
L 1972 1978 
Q 2547 1819 2739 1644 
Q 2931 1469 2931 1166 
Q 2931 609 2489 259 
Q 2047 -91 1331 -91 
Q 1053 -91 747 -37 
Q 441 16 72 128 
L 184 722 
Q 500 559 806 475 
Q 1113 391 1394 391 
Q 1816 391 2080 572 
Q 2344 753 2344 1031 
Q 2344 1331 1650 1516 
L 1591 1531 
L 1394 1581 
Q 956 1697 753 1886 
Q 550 2075 550 2369 
Q 550 2928 970 3256 
Q 1391 3584 2113 3584 
Q 2397 3584 2667 3537 
Q 2938 3491 3200 3397 
z
" transform="scale(0.015625)"/>
       <path id="DejaVuSans-Oblique-46" d="M 1081 4666 
L 3756 4666 
L 3653 4134 
L 1606 4134 
L 1338 2759 
L 3188 2759 
L 3084 2228 
L 1234 2228 
L 800 0 
L 172 0 
L 1081 4666 
z
" transform="scale(0.015625)"/>
      </defs>
      <use xlink:href="#DejaVuSans-Oblique-73" transform="translate(0 0.765625)"/>
      <use xlink:href="#DejaVuSans-32" transform="translate(56.749505 39.046875) scale(0.7)"/>
      <use xlink:href="#DejaVuSans-Oblique-46" transform="translate(52.099609 -26.578125) scale(0.7)"/>
     </g>
    </g>
   </g>
   <g id="matplotlib.axis_2">
    <g id="ytick_1">
     <g id="line2d_10">
      <defs>
       <path id="md7b1a3cda9" d="M 0 0 
L -3.5 0 
" style="stroke: #000000; stroke-width: 0.8"/>
      </defs>
      <g>
       <use xlink:href="#md7b1a3cda9" x="50.14375" y="297.486338" style="stroke: #000000; stroke-width: 0.8"/>
      </g>
     </g>
     <g id="text_11">
      <!-- 1.20 -->
      <g transform="translate(20.878125 301.285556) scale(0.1 -0.1)">
       <defs>
        <path id="DejaVuSans-31" d="M 794 531 
L 1825 531 
L 1825 4091 
L 703 3866 
L 703 4441 
L 1819 4666 
L 2450 4666 
L 2450 531 
L 3481 531 
L 3481 0 
L 794 0 
L 794 531 
z
" transform="scale(0.015625)"/>
       </defs>
       <use xlink:href="#DejaVuSans-31"/>
       <use xlink:href="#DejaVuSans-2e" transform="translate(63.623047 0)"/>
       <use xlink:href="#DejaVuSans-32" transform="translate(95.410156 0)"/>
       <use xlink:href="#DejaVuSans-30" transform="translate(159.033203 0)"/>
      </g>
     </g>
    </g>
    <g id="ytick_2">
     <g id="line2d_11">
      <g>
       <use xlink:href="#md7b1a3cda9" x="50.14375" y="244.435378" style="stroke: #000000; stroke-width: 0.8"/>
      </g>
     </g>
     <g id="text_12">
      <!-- 1.25 -->
      <g transform="translate(20.878125 248.234597) scale(0.1 -0.1)">
       <defs>
        <path id="DejaVuSans-35" d="M 691 4666 
L 3169 4666 
L 3169 4134 
L 1269 4134 
L 1269 2991 
Q 1406 3038 1543 3061 
Q 1681 3084 1819 3084 
Q 2600 3084 3056 2656 
Q 3513 2228 3513 1497 
Q 3513 744 3044 326 
Q 2575 -91 1722 -91 
Q 1428 -91 1123 -41 
Q 819 9 494 109 
L 494 744 
Q 775 591 1075 516 
Q 1375 441 1709 441 
Q 2250 441 2565 725 
Q 2881 1009 2881 1497 
Q 2881 1984 2565 2268 
Q 2250 2553 1709 2553 
Q 1456 2553 1204 2497 
Q 953 2441 691 2322 
L 691 4666 
z
" transform="scale(0.015625)"/>
       </defs>
       <use xlink:href="#DejaVuSans-31"/>
       <use xlink:href="#DejaVuSans-2e" transform="translate(63.623047 0)"/>
       <use xlink:href="#DejaVuSans-32" transform="translate(95.410156 0)"/>
       <use xlink:href="#DejaVuSans-35" transform="translate(159.033203 0)"/>
      </g>
     </g>
    </g>
    <g id="ytick_3">
     <g id="line2d_12">
      <g>
       <use xlink:href="#md7b1a3cda9" x="50.14375" y="191.384418" style="stroke: #000000; stroke-width: 0.8"/>
      </g>
     </g>
     <g id="text_13">
      <!-- 1.30 -->
      <g transform="translate(20.878125 195.183637) scale(0.1 -0.1)">
       <use xlink:href="#DejaVuSans-31"/>
       <use xlink:href="#DejaVuSans-2e" transform="translate(63.623047 0)"/>
       <use xlink:href="#DejaVuSans-33" transform="translate(95.410156 0)"/>
       <use xlink:href="#DejaVuSans-30" transform="translate(159.033203 0)"/>
      </g>
     </g>
    </g>
    <g id="ytick_4">
     <g id="line2d_13">
      <g>
       <use xlink:href="#md7b1a3cda9" x="50.14375" y="138.333458" style="stroke: #000000; stroke-width: 0.8"/>
      </g>
     </g>
     <g id="text_14">
      <!-- 1.35 -->
      <g transform="translate(20.878125 142.132677) scale(0.1 -0.1)">
       <use xlink:href="#DejaVuSans-31"/>
       <use xlink:href="#DejaVuSans-2e" transform="translate(63.623047 0)"/>
       <use xlink:href="#DejaVuSans-33" transform="translate(95.410156 0)"/>
       <use xlink:href="#DejaVuSans-35" transform="translate(159.033203 0)"/>
      </g>
     </g>
    </g>
    <g id="ytick_5">
     <g id="line2d_14">
      <g>
       <use xlink:href="#md7b1a3cda9" x="50.14375" y="85.282498" style="stroke: #000000; stroke-width: 0.8"/>
      </g>
     </g>
     <g id="text_15">
      <!-- 1.40 -->
      <g transform="translate(20.878125 89.081717) scale(0.1 -0.1)">
       <use xlink:href="#DejaVuSans-31"/>
       <use xlink:href="#DejaVuSans-2e" transform="translate(63.623047 0)"/>
       <use xlink:href="#DejaVuSans-34" transform="translate(95.410156 0)"/>
       <use xlink:href="#DejaVuSans-30" transform="translate(159.033203 0)"/>
      </g>
     </g>
    </g>
    <g id="ytick_6">
     <g id="line2d_15">
      <g>
       <use xlink:href="#md7b1a3cda9" x="50.14375" y="32.231539" style="stroke: #000000; stroke-width: 0.8"/>
      </g>
     </g>
     <g id="text_16">
      <!-- 1.45 -->
      <g transform="translate(20.878125 36.030757) scale(0.1 -0.1)">
       <use xlink:href="#DejaVuSans-31"/>
       <use xlink:href="#DejaVuSans-2e" transform="translate(63.623047 0)"/>
       <use xlink:href="#DejaVuSans-34" transform="translate(95.410156 0)"/>
       <use xlink:href="#DejaVuSans-35" transform="translate(159.033203 0)"/>
      </g>
     </g>
    </g>
    <g id="text_17">
     <!-- $w_0 m_\Omega$ -->
     <g transform="translate(14.798437 168.23) rotate(-90) scale(0.1 -0.1)">
      <defs>
       <path id="DejaVuSans-Oblique-77" d="M 544 3500 
L 1113 3500 
L 1259 684 
L 2566 3500 
L 3231 3500 
L 3425 684 
L 4666 3500 
L 5241 3500 
L 3641 0 
L 2969 0 
L 2797 2900 
L 1459 0 
L 781 0 
L 544 3500 
z
" transform="scale(0.015625)"/>
       <path id="DejaVuSans-Oblique-6d" d="M 5747 2113 
L 5338 0 
L 4763 0 
L 5166 2094 
Q 5191 2228 5203 2325 
Q 5216 2422 5216 2491 
Q 5216 2772 5059 2928 
Q 4903 3084 4622 3084 
Q 4203 3084 3875 2770 
Q 3547 2456 3450 1953 
L 3066 0 
L 2491 0 
L 2900 2094 
Q 2925 2209 2937 2307 
Q 2950 2406 2950 2484 
Q 2950 2769 2794 2926 
Q 2638 3084 2363 3084 
Q 1938 3084 1609 2770 
Q 1281 2456 1184 1953 
L 800 0 
L 225 0 
L 909 3500 
L 1484 3500 
L 1375 2956 
Q 1609 3263 1923 3423 
Q 2238 3584 2597 3584 
Q 2978 3584 3223 3384 
Q 3469 3184 3519 2828 
Q 3781 3197 4126 3390 
Q 4472 3584 4856 3584 
Q 5306 3584 5551 3325 
Q 5797 3066 5797 2591 
Q 5797 2488 5784 2364 
Q 5772 2241 5747 2113 
z
" transform="scale(0.015625)"/>
       <path id="DejaVuSans-3a9" d="M 4647 556 
L 4647 0 
L 2772 0 
L 2772 556 
Q 3325 859 3634 1378 
Q 3944 1897 3944 2528 
Q 3944 3278 3531 3731 
Q 3119 4184 2444 4184 
Q 1769 4184 1355 3729 
Q 941 3275 941 2528 
Q 941 1897 1250 1378 
Q 1563 859 2119 556 
L 2119 0 
L 244 0 
L 244 556 
L 1241 556 
Q 747 991 519 1456 
Q 294 1922 294 2497 
Q 294 3491 894 4106 
Q 1491 4722 2444 4722 
Q 3391 4722 3994 4106 
Q 4594 3494 4594 2528 
Q 4594 1922 4372 1459 
Q 4150 997 3647 556 
L 4647 556 
z
" transform="scale(0.015625)"/>
      </defs>
      <use xlink:href="#DejaVuSans-Oblique-77"/>
      <use xlink:href="#DejaVuSans-30" transform="translate(81.787109 -16.40625) scale(0.7)"/>
      <use xlink:href="#DejaVuSans-Oblique-6d" transform="translate(129.057617 0)"/>
      <use xlink:href="#DejaVuSans-3a9" transform="translate(226.469727 -16.40625) scale(0.7)"/>
     </g>
    </g>
   </g>
   <g id="line2d_16">
    <path d="M 398.366477 300.96 
L 398.366477 7.2 
" clip-path="url(#p82d0cb64ad)" style="fill: none; stroke-dasharray: 5.55,2.4; stroke-dashoffset: 0; stroke: #1f77b4; stroke-width: 1.5"/>
   </g>
   <g id="line2d_17">
    <path d="M 398.366477 300.96 
L 398.366477 7.2 
" clip-path="url(#p82d0cb64ad)" style="fill: none; stroke-dasharray: 5.55,2.4; stroke-dashoffset: 0; stroke: #1f77b4; stroke-width: 1.5"/>
   </g>
   <g id="line2d_18">
    <path d="M 398.366477 300.96 
L 398.366477 7.2 
" clip-path="url(#p82d0cb64ad)" style="fill: none; stroke-dasharray: 5.55,2.4; stroke-dashoffset: 0; stroke: #1f77b4; stroke-width: 1.5"/>
   </g>
   <g id="line2d_19">
    <path d="M 398.366477 300.96 
L 398.366477 7.2 
" clip-path="url(#p82d0cb64ad)" style="fill: none; stroke-dasharray: 5.55,2.4; stroke-dashoffset: 0; stroke: #1f77b4; stroke-width: 1.5"/>
   </g>
   <g id="line2d_20">
    <path d="M 398.366477 300.96 
L 398.366477 7.2 
" clip-path="url(#p82d0cb64ad)" style="fill: none; stroke-dasharray: 5.55,2.4; stroke-dashoffset: 0; stroke: #1f77b4; stroke-width: 1.5"/>
   </g>
   <g id="line2d_21">
    <path d="M 235.210673 187.899587 
L 231.063473 187.895171 
" clip-path="url(#p82d0cb64ad)" style="fill: none; stroke: #ec5d57; stroke-width: 2; stroke-linecap: square"/>
   </g>
   <g id="line2d_22">
    <path d="M 233.192604 175.615901 
L 233.081542 200.178858 
" clip-path="url(#p82d0cb64ad)" style="fill: none; stroke: #ec5d57; stroke-width: 2; stroke-linecap: square"/>
   </g>
   <g id="line2d_23">
    <path d="M 271.79347 172.907954 
L 267.701718 172.902487 
" clip-path="url(#p82d0cb64ad)" style="fill: none; stroke: #ec5d57; stroke-width: 2; stroke-linecap: square"/>
   </g>
   <g id="line2d_24">
    <path d="M 269.805026 162.782304 
L 269.690162 183.028137 
" clip-path="url(#p82d0cb64ad)" style="fill: none; stroke: #ec5d57; stroke-width: 2; stroke-linecap: square"/>
   </g>
   <g id="line2d_25">
    <path d="M 287.332244 156.459995 
L 282.423326 156.475964 
" clip-path="url(#p82d0cb64ad)" style="fill: none; stroke: #ec5d57; stroke-width: 2; stroke-linecap: square"/>
   </g>
   <g id="line2d_26">
    <path d="M 284.750252 147.235321 
L 285.005318 165.700638 
" clip-path="url(#p82d0cb64ad)" style="fill: none; stroke: #ec5d57; stroke-width: 2; stroke-linecap: square"/>
   </g>
   <g id="line2d_27">
    <path d="M 297.841291 153.951145 
L 294.113972 153.947419 
" clip-path="url(#p82d0cb64ad)" style="fill: none; stroke: #ec5d57; stroke-width: 2; stroke-linecap: square"/>
   </g>
   <g id="line2d_28">
    <path d="M 296.015395 145.05298 
L 295.939868 162.845585 
" clip-path="url(#p82d0cb64ad)" style="fill: none; stroke: #ec5d57; stroke-width: 2; stroke-linecap: square"/>
   </g>
   <g id="line2d_29">
    <path d="M 345.701146 134.864655 
L 341.866951 134.883132 
" clip-path="url(#p82d0cb64ad)" style="fill: none; stroke: #ec5d57; stroke-width: 2; stroke-linecap: square"/>
   </g>
   <g id="line2d_30">
    <path d="M 343.665252 129.068419 
L 343.902845 140.679367 
" clip-path="url(#p82d0cb64ad)" style="fill: none; stroke: #ec5d57; stroke-width: 2; stroke-linecap: square"/>
   </g>
   <g id="line2d_31">
    <path d="M 424.020114 104.925252 
L 419.028464 104.939509 
" clip-path="url(#p82d0cb64ad)" style="fill: none; stroke: #ec5d57; stroke-width: 2; stroke-linecap: square"/>
   </g>
   <g id="line2d_32">
    <path d="M 421.496317 102.626059 
L 421.552261 107.238702 
" clip-path="url(#p82d0cb64ad)" style="fill: none; stroke: #ec5d57; stroke-width: 2; stroke-linecap: square"/>
   </g>
   <g id="line2d_33">
    <path d="M 213.547918 166.745598 
L 209.331346 166.73333 
" clip-path="url(#p82d0cb64ad)" style="fill: none; stroke: #70bf41; stroke-width: 2; stroke-linecap: square"/>
   </g>
   <g id="line2d_34">
    <path d="M 211.562125 156.824278 
L 211.31714 176.65465 
" clip-path="url(#p82d0cb64ad)" style="fill: none; stroke: #70bf41; stroke-width: 2; stroke-linecap: square"/>
   </g>
   <g id="line2d_35">
    <path d="M 249.766132 159.701739 
L 243.943382 159.694679 
" clip-path="url(#p82d0cb64ad)" style="fill: none; stroke: #70bf41; stroke-width: 2; stroke-linecap: square"/>
   </g>
   <g id="line2d_36">
    <path d="M 246.900696 150.77586 
L 246.808818 168.620559 
" clip-path="url(#p82d0cb64ad)" style="fill: none; stroke: #70bf41; stroke-width: 2; stroke-linecap: square"/>
   </g>
   <g id="line2d_37">
    <path d="M 270.955456 144.532805 
L 265.884464 144.542837 
" clip-path="url(#p82d0cb64ad)" style="fill: none; stroke: #70bf41; stroke-width: 2; stroke-linecap: square"/>
   </g>
   <g id="line2d_38">
    <path d="M 268.341716 135.223442 
L 268.498204 153.8522 
" clip-path="url(#p82d0cb64ad)" style="fill: none; stroke: #70bf41; stroke-width: 2; stroke-linecap: square"/>
   </g>
   <g id="line2d_39">
    <path d="M 276.256256 139.47317 
L 271.218696 139.478212 
" clip-path="url(#p82d0cb64ad)" style="fill: none; stroke: #70bf41; stroke-width: 2; stroke-linecap: square"/>
   </g>
   <g id="line2d_40">
    <path d="M 273.702416 131.226042 
L 273.772537 147.725339 
" clip-path="url(#p82d0cb64ad)" style="fill: none; stroke: #70bf41; stroke-width: 2; stroke-linecap: square"/>
   </g>
   <g id="line2d_41">
    <path d="M 71.696472 240.495397 
L 67.947386 240.499039 
" clip-path="url(#p82d0cb64ad)" style="fill: none; stroke: #70bf41; stroke-width: 2; stroke-linecap: square"/>
   </g>
   <g id="line2d_42">
    <path d="M 69.754816 224.226274 
L 69.889042 256.768162 
" clip-path="url(#p82d0cb64ad)" style="fill: none; stroke: #70bf41; stroke-width: 2; stroke-linecap: square"/>
   </g>
   <g id="line2d_43">
    <path d="M 338.420429 111.767074 
L 330.140288 111.780209 
" clip-path="url(#p82d0cb64ad)" style="fill: none; stroke: #70bf41; stroke-width: 2; stroke-linecap: square"/>
   </g>
   <g id="line2d_44">
    <path d="M 334.244143 106.397523 
L 334.316573 117.14976 
" clip-path="url(#p82d0cb64ad)" style="fill: none; stroke: #70bf41; stroke-width: 2; stroke-linecap: square"/>
   </g>
   <g id="line2d_45">
    <path d="M 334.239586 112.621405 
L 327.939454 112.62915 
" clip-path="url(#p82d0cb64ad)" style="fill: none; stroke: #70bf41; stroke-width: 2; stroke-linecap: square"/>
   </g>
   <g id="line2d_46">
    <path d="M 331.058449 106.673321 
L 331.120592 118.577234 
" clip-path="url(#p82d0cb64ad)" style="fill: none; stroke: #70bf41; stroke-width: 2; stroke-linecap: square"/>
   </g>
   <g id="line2d_47">
    <path d="M 335.782361 115.213894 
L 329.230282 115.23088 
" clip-path="url(#p82d0cb64ad)" style="fill: none; stroke: #70bf41; stroke-width: 2; stroke-linecap: square"/>
   </g>
   <g id="line2d_48">
    <path d="M 332.398744 105.449707 
L 332.613899 124.995067 
" clip-path="url(#p82d0cb64ad)" style="fill: none; stroke: #70bf41; stroke-width: 2; stroke-linecap: square"/>
   </g>
   <g id="line2d_49">
    <path d="M 360.915848 98.230633 
L 355.347633 98.259007 
" clip-path="url(#p82d0cb64ad)" style="fill: none; stroke: #70bf41; stroke-width: 2; stroke-linecap: square"/>
   </g>
   <g id="line2d_50">
    <path d="M 358.033245 93.692783 
L 358.230237 102.796857 
" clip-path="url(#p82d0cb64ad)" style="fill: none; stroke: #70bf41; stroke-width: 2; stroke-linecap: square"/>
   </g>
   <g id="line2d_51">
    <path d="M 385.172376 97.863285 
L 379.16256 97.883452 
" clip-path="url(#p82d0cb64ad)" style="fill: none; stroke: #70bf41; stroke-width: 2; stroke-linecap: square"/>
   </g>
   <g id="line2d_52">
    <path d="M 382.112674 94.027896 
L 382.222261 101.71884 
" clip-path="url(#p82d0cb64ad)" style="fill: none; stroke: #70bf41; stroke-width: 2; stroke-linecap: square"/>
   </g>
   <g id="line2d_53">
    <path d="M 211.256622 136.166735 
L 207.372434 136.168554 
" clip-path="url(#p82d0cb64ad)" style="fill: none; stroke: #51a7f9; stroke-width: 2; stroke-linecap: square"/>
   </g>
   <g id="line2d_54">
    <path d="M 209.291537 124.610032 
L 209.33752 147.725257 
" clip-path="url(#p82d0cb64ad)" style="fill: none; stroke: #51a7f9; stroke-width: 2; stroke-linecap: square"/>
   </g>
   <g id="line2d_55">
    <path d="M 252.875432 132.850903 
L 248.040921 132.856656 
" clip-path="url(#p82d0cb64ad)" style="fill: none; stroke: #51a7f9; stroke-width: 2; stroke-linecap: square"/>
   </g>
   <g id="line2d_56">
    <path d="M 250.4005 121.439755 
L 250.515853 144.267803 
" clip-path="url(#p82d0cb64ad)" style="fill: none; stroke: #51a7f9; stroke-width: 2; stroke-linecap: square"/>
   </g>
   <g id="line2d_57">
    <path d="M 278.786437 110.477896 
L 274.523295 110.48285 
" clip-path="url(#p82d0cb64ad)" style="fill: none; stroke: #51a7f9; stroke-width: 2; stroke-linecap: square"/>
   </g>
   <g id="line2d_58">
    <path d="M 276.602678 99.905327 
L 276.707054 121.055419 
" clip-path="url(#p82d0cb64ad)" style="fill: none; stroke: #51a7f9; stroke-width: 2; stroke-linecap: square"/>
   </g>
   <g id="line2d_59">
    <path d="M 352.020607 86.888975 
L 346.494215 86.891144 
" clip-path="url(#p82d0cb64ad)" style="fill: none; stroke: #51a7f9; stroke-width: 2; stroke-linecap: square"/>
   </g>
   <g id="line2d_60">
    <path d="M 349.245493 79.740901 
L 349.269329 94.039218 
" clip-path="url(#p82d0cb64ad)" style="fill: none; stroke: #51a7f9; stroke-width: 2; stroke-linecap: square"/>
   </g>
   <g id="line2d_61">
    <path d="M 401.601511 75.492186 
L 393.97474 75.533761 
" clip-path="url(#p82d0cb64ad)" style="fill: none; stroke: #51a7f9; stroke-width: 2; stroke-linecap: square"/>
   </g>
   <g id="line2d_62">
    <path d="M 397.666529 70.259812 
L 397.909722 80.766135 
" clip-path="url(#p82d0cb64ad)" style="fill: none; stroke: #51a7f9; stroke-width: 2; stroke-linecap: square"/>
   </g>
   <g id="line2d_63">
    <path d="M 290.497648 75.714882 
L 283.159517 75.724577 
" clip-path="url(#p82d0cb64ad)" style="fill: none; stroke: #6a5acd; stroke-width: 2; stroke-linecap: square"/>
   </g>
   <g id="line2d_64">
    <path d="M 286.767688 64.865455 
L 286.889476 86.574003 
" clip-path="url(#p82d0cb64ad)" style="fill: none; stroke: #6a5acd; stroke-width: 2; stroke-linecap: square"/>
   </g>
   <g id="LineCollection_1"/>
   <g id="LineCollection_2"/>
   <g id="LineCollection_3"/>
   <g id="LineCollection_4"/>
   <g id="LineCollection_5"/>
   <g id="LineCollection_6"/>
   <g id="LineCollection_7"/>
   <g id="LineCollection_8"/>
   <g id="line2d_65"/>
   <g id="line2d_66"/>
   <g id="line2d_67"/>
   <g id="line2d_68"/>
   <g id="patch_3">
    <path d="M 50.14375 300.96 
L 50.14375 7.2 
" style="fill: none; stroke: #000000; stroke-width: 0.8; stroke-linejoin: miter; stroke-linecap: square"/>
   </g>
   <g id="patch_4">
    <path d="M 441.82375 300.96 
L 441.82375 7.2 
" style="fill: none; stroke: #000000; stroke-width: 0.8; stroke-linejoin: miter; stroke-linecap: square"/>
   </g>
   <g id="patch_5">
    <path d="M 50.14375 300.96 
L 441.82375 300.96 
" style="fill: none; stroke: #000000; stroke-width: 0.8; stroke-linejoin: miter; stroke-linecap: square"/>
   </g>
   <g id="patch_6">
    <path d="M 50.14375 7.2 
L 441.82375 7.2 
" style="fill: none; stroke: #000000; stroke-width: 0.8; stroke-linejoin: miter; stroke-linecap: square"/>
   </g>
   <g id="line2d_69">
    <path d="M 233.137073 187.897379 
" clip-path="url(#p82d0cb64ad)" style="fill: none; stroke: #ec5d57; stroke-width: 1.5; stroke-linecap: square"/>
    <defs>
     <path id="m6c46b0b48a" d="M 0 3 
C 0.795609 3 1.55874 2.683901 2.12132 2.12132 
C 2.683901 1.55874 3 0.795609 3 0 
C 3 -0.795609 2.683901 -1.55874 2.12132 -2.12132 
C 1.55874 -2.683901 0.795609 -3 0 -3 
C -0.795609 -3 -1.55874 -2.683901 -2.12132 -2.12132 
C -2.683901 -1.55874 -3 -0.795609 -3 0 
C -3 0.795609 -2.683901 1.55874 -2.12132 2.12132 
C -1.55874 2.683901 -0.795609 3 0 3 
z
" style="stroke: #ffffff"/>
    </defs>
    <g clip-path="url(#p82d0cb64ad)">
     <use xlink:href="#m6c46b0b48a" x="233.137073" y="187.897379" style="fill: #ec5d57; stroke: #ffffff"/>
    </g>
   </g>
   <g id="line2d_70">
    <path d="M 233.137073 187.897379 
" clip-path="url(#p82d0cb64ad)" style="fill: none; stroke: #ec5d57; stroke-width: 1.5; stroke-linecap: square"/>
    <g clip-path="url(#p82d0cb64ad)">
     <use xlink:href="#m6c46b0b48a" x="233.137073" y="187.897379" style="fill: #ec5d57; stroke: #ffffff"/>
    </g>
   </g>
   <g id="line2d_71">
    <path d="M 269.747594 172.90522 
" clip-path="url(#p82d0cb64ad)" style="fill: none; stroke: #ec5d57; stroke-width: 1.5; stroke-linecap: square"/>
    <g clip-path="url(#p82d0cb64ad)">
     <use xlink:href="#m6c46b0b48a" x="269.747594" y="172.90522" style="fill: #ec5d57; stroke: #ffffff"/>
    </g>
   </g>
   <g id="line2d_72">
    <path d="M 269.747594 172.90522 
" clip-path="url(#p82d0cb64ad)" style="fill: none; stroke: #ec5d57; stroke-width: 1.5; stroke-linecap: square"/>
    <g clip-path="url(#p82d0cb64ad)">
     <use xlink:href="#m6c46b0b48a" x="269.747594" y="172.90522" style="fill: #ec5d57; stroke: #ffffff"/>
    </g>
   </g>
   <g id="line2d_73">
    <path d="M 284.877785 156.467979 
" clip-path="url(#p82d0cb64ad)" style="fill: none; stroke: #ec5d57; stroke-width: 1.5; stroke-linecap: square"/>
    <g clip-path="url(#p82d0cb64ad)">
     <use xlink:href="#m6c46b0b48a" x="284.877785" y="156.467979" style="fill: #ec5d57; stroke: #ffffff"/>
    </g>
   </g>
   <g id="line2d_74">
    <path d="M 284.877785 156.467979 
" clip-path="url(#p82d0cb64ad)" style="fill: none; stroke: #ec5d57; stroke-width: 1.5; stroke-linecap: square"/>
    <g clip-path="url(#p82d0cb64ad)">
     <use xlink:href="#m6c46b0b48a" x="284.877785" y="156.467979" style="fill: #ec5d57; stroke: #ffffff"/>
    </g>
   </g>
   <g id="line2d_75">
    <path d="M 295.977631 153.949282 
" clip-path="url(#p82d0cb64ad)" style="fill: none; stroke: #ec5d57; stroke-width: 1.5; stroke-linecap: square"/>
    <g clip-path="url(#p82d0cb64ad)">
     <use xlink:href="#m6c46b0b48a" x="295.977631" y="153.949282" style="fill: #ec5d57; stroke: #ffffff"/>
    </g>
   </g>
   <g id="line2d_76">
    <path d="M 295.977631 153.949282 
" clip-path="url(#p82d0cb64ad)" style="fill: none; stroke: #ec5d57; stroke-width: 1.5; stroke-linecap: square"/>
    <g clip-path="url(#p82d0cb64ad)">
     <use xlink:href="#m6c46b0b48a" x="295.977631" y="153.949282" style="fill: #ec5d57; stroke: #ffffff"/>
    </g>
   </g>
   <g id="line2d_77">
    <path d="M 343.784048 134.873893 
" clip-path="url(#p82d0cb64ad)" style="fill: none; stroke: #ec5d57; stroke-width: 1.5; stroke-linecap: square"/>
    <g clip-path="url(#p82d0cb64ad)">
     <use xlink:href="#m6c46b0b48a" x="343.784048" y="134.873893" style="fill: #ec5d57; stroke: #ffffff"/>
    </g>
   </g>
   <g id="line2d_78">
    <path d="M 343.784048 134.873893 
" clip-path="url(#p82d0cb64ad)" style="fill: none; stroke: #ec5d57; stroke-width: 1.5; stroke-linecap: square"/>
    <g clip-path="url(#p82d0cb64ad)">
     <use xlink:href="#m6c46b0b48a" x="343.784048" y="134.873893" style="fill: #ec5d57; stroke: #ffffff"/>
    </g>
   </g>
   <g id="line2d_79">
    <path d="M 421.524289 104.932381 
" clip-path="url(#p82d0cb64ad)" style="fill: none; stroke: #ec5d57; stroke-width: 1.5; stroke-linecap: square"/>
    <g clip-path="url(#p82d0cb64ad)">
     <use xlink:href="#m6c46b0b48a" x="421.524289" y="104.932381" style="fill: #ec5d57; stroke: #ffffff"/>
    </g>
   </g>
   <g id="line2d_80">
    <path d="M 421.524289 104.932381 
" clip-path="url(#p82d0cb64ad)" style="fill: none; stroke: #ec5d57; stroke-width: 1.5; stroke-linecap: square"/>
    <g clip-path="url(#p82d0cb64ad)">
     <use xlink:href="#m6c46b0b48a" x="421.524289" y="104.932381" style="fill: #ec5d57; stroke: #ffffff"/>
    </g>
   </g>
   <g id="line2d_81">
    <path d="M 211.439632 166.739464 
" clip-path="url(#p82d0cb64ad)" style="fill: none; stroke: #70bf41; stroke-width: 1.5; stroke-linecap: square"/>
    <defs>
     <path id="mfaa8f6f3c6" d="M 0 3 
C 0.795609 3 1.55874 2.683901 2.12132 2.12132 
C 2.683901 1.55874 3 0.795609 3 0 
C 3 -0.795609 2.683901 -1.55874 2.12132 -2.12132 
C 1.55874 -2.683901 0.795609 -3 0 -3 
C -0.795609 -3 -1.55874 -2.683901 -2.12132 -2.12132 
C -2.683901 -1.55874 -3 -0.795609 -3 0 
C -3 0.795609 -2.683901 1.55874 -2.12132 2.12132 
C -1.55874 2.683901 -0.795609 3 0 3 
z
" style="stroke: #ffffff"/>
    </defs>
    <g clip-path="url(#p82d0cb64ad)">
     <use xlink:href="#mfaa8f6f3c6" x="211.439632" y="166.739464" style="fill: #70bf41; stroke: #ffffff"/>
    </g>
   </g>
   <g id="line2d_82">
    <path d="M 211.439632 166.739464 
" clip-path="url(#p82d0cb64ad)" style="fill: none; stroke: #70bf41; stroke-width: 1.5; stroke-linecap: square"/>
    <g clip-path="url(#p82d0cb64ad)">
     <use xlink:href="#mfaa8f6f3c6" x="211.439632" y="166.739464" style="fill: #70bf41; stroke: #ffffff"/>
    </g>
   </g>
   <g id="line2d_83">
    <path d="M 246.854757 159.698209 
" clip-path="url(#p82d0cb64ad)" style="fill: none; stroke: #70bf41; stroke-width: 1.5; stroke-linecap: square"/>
    <g clip-path="url(#p82d0cb64ad)">
     <use xlink:href="#mfaa8f6f3c6" x="246.854757" y="159.698209" style="fill: #70bf41; stroke: #ffffff"/>
    </g>
   </g>
   <g id="line2d_84">
    <path d="M 246.854757 159.698209 
" clip-path="url(#p82d0cb64ad)" style="fill: none; stroke: #70bf41; stroke-width: 1.5; stroke-linecap: square"/>
    <g clip-path="url(#p82d0cb64ad)">
     <use xlink:href="#mfaa8f6f3c6" x="246.854757" y="159.698209" style="fill: #70bf41; stroke: #ffffff"/>
    </g>
   </g>
   <g id="line2d_85">
    <path d="M 268.41996 144.537821 
" clip-path="url(#p82d0cb64ad)" style="fill: none; stroke: #70bf41; stroke-width: 1.5; stroke-linecap: square"/>
    <g clip-path="url(#p82d0cb64ad)">
     <use xlink:href="#mfaa8f6f3c6" x="268.41996" y="144.537821" style="fill: #70bf41; stroke: #ffffff"/>
    </g>
   </g>
   <g id="line2d_86">
    <path d="M 268.41996 144.537821 
" clip-path="url(#p82d0cb64ad)" style="fill: none; stroke: #70bf41; stroke-width: 1.5; stroke-linecap: square"/>
    <g clip-path="url(#p82d0cb64ad)">
     <use xlink:href="#mfaa8f6f3c6" x="268.41996" y="144.537821" style="fill: #70bf41; stroke: #ffffff"/>
    </g>
   </g>
   <g id="line2d_87">
    <path d="M 273.737476 139.475691 
" clip-path="url(#p82d0cb64ad)" style="fill: none; stroke: #70bf41; stroke-width: 1.5; stroke-linecap: square"/>
    <g clip-path="url(#p82d0cb64ad)">
     <use xlink:href="#mfaa8f6f3c6" x="273.737476" y="139.475691" style="fill: #70bf41; stroke: #ffffff"/>
    </g>
   </g>
   <g id="line2d_88">
    <path d="M 273.737476 139.475691 
" clip-path="url(#p82d0cb64ad)" style="fill: none; stroke: #70bf41; stroke-width: 1.5; stroke-linecap: square"/>
    <g clip-path="url(#p82d0cb64ad)">
     <use xlink:href="#mfaa8f6f3c6" x="273.737476" y="139.475691" style="fill: #70bf41; stroke: #ffffff"/>
    </g>
   </g>
   <g id="line2d_89">
    <path d="M 69.821929 240.497218 
" clip-path="url(#p82d0cb64ad)" style="fill: none; stroke: #70bf41; stroke-width: 1.5; stroke-linecap: square"/>
    <g clip-path="url(#p82d0cb64ad)">
     <use xlink:href="#mfaa8f6f3c6" x="69.821929" y="240.497218" style="fill: #70bf41; stroke: #ffffff"/>
    </g>
   </g>
   <g id="line2d_90">
    <path d="M 69.821929 240.497218 
" clip-path="url(#p82d0cb64ad)" style="fill: none; stroke: #70bf41; stroke-width: 1.5; stroke-linecap: square"/>
    <g clip-path="url(#p82d0cb64ad)">
     <use xlink:href="#mfaa8f6f3c6" x="69.821929" y="240.497218" style="fill: #70bf41; stroke: #ffffff"/>
    </g>
   </g>
   <g id="line2d_91">
    <path d="M 334.280358 111.773642 
" clip-path="url(#p82d0cb64ad)" style="fill: none; stroke: #70bf41; stroke-width: 1.5; stroke-linecap: square"/>
    <g clip-path="url(#p82d0cb64ad)">
     <use xlink:href="#mfaa8f6f3c6" x="334.280358" y="111.773642" style="fill: #70bf41; stroke: #ffffff"/>
    </g>
   </g>
   <g id="line2d_92">
    <path d="M 334.280358 111.773642 
" clip-path="url(#p82d0cb64ad)" style="fill: none; stroke: #70bf41; stroke-width: 1.5; stroke-linecap: square"/>
    <g clip-path="url(#p82d0cb64ad)">
     <use xlink:href="#mfaa8f6f3c6" x="334.280358" y="111.773642" style="fill: #70bf41; stroke: #ffffff"/>
    </g>
   </g>
   <g id="line2d_93">
    <path d="M 331.08952 112.625277 
" clip-path="url(#p82d0cb64ad)" style="fill: none; stroke: #70bf41; stroke-width: 1.5; stroke-linecap: square"/>
    <g clip-path="url(#p82d0cb64ad)">
     <use xlink:href="#mfaa8f6f3c6" x="331.08952" y="112.625277" style="fill: #70bf41; stroke: #ffffff"/>
    </g>
   </g>
   <g id="line2d_94">
    <path d="M 331.08952 112.625277 
" clip-path="url(#p82d0cb64ad)" style="fill: none; stroke: #70bf41; stroke-width: 1.5; stroke-linecap: square"/>
    <g clip-path="url(#p82d0cb64ad)">
     <use xlink:href="#mfaa8f6f3c6" x="331.08952" y="112.625277" style="fill: #70bf41; stroke: #ffffff"/>
    </g>
   </g>
   <g id="line2d_95">
    <path d="M 332.506321 115.222387 
" clip-path="url(#p82d0cb64ad)" style="fill: none; stroke: #70bf41; stroke-width: 1.5; stroke-linecap: square"/>
    <g clip-path="url(#p82d0cb64ad)">
     <use xlink:href="#mfaa8f6f3c6" x="332.506321" y="115.222387" style="fill: #70bf41; stroke: #ffffff"/>
    </g>
   </g>
   <g id="line2d_96">
    <path d="M 332.506321 115.222387 
" clip-path="url(#p82d0cb64ad)" style="fill: none; stroke: #70bf41; stroke-width: 1.5; stroke-linecap: square"/>
    <g clip-path="url(#p82d0cb64ad)">
     <use xlink:href="#mfaa8f6f3c6" x="332.506321" y="115.222387" style="fill: #70bf41; stroke: #ffffff"/>
    </g>
   </g>
   <g id="line2d_97">
    <path d="M 358.131741 98.24482 
" clip-path="url(#p82d0cb64ad)" style="fill: none; stroke: #70bf41; stroke-width: 1.5; stroke-linecap: square"/>
    <g clip-path="url(#p82d0cb64ad)">
     <use xlink:href="#mfaa8f6f3c6" x="358.131741" y="98.24482" style="fill: #70bf41; stroke: #ffffff"/>
    </g>
   </g>
   <g id="line2d_98">
    <path d="M 358.131741 98.24482 
" clip-path="url(#p82d0cb64ad)" style="fill: none; stroke: #70bf41; stroke-width: 1.5; stroke-linecap: square"/>
    <g clip-path="url(#p82d0cb64ad)">
     <use xlink:href="#mfaa8f6f3c6" x="358.131741" y="98.24482" style="fill: #70bf41; stroke: #ffffff"/>
    </g>
   </g>
   <g id="line2d_99">
    <path d="M 382.167468 97.873368 
" clip-path="url(#p82d0cb64ad)" style="fill: none; stroke: #70bf41; stroke-width: 1.5; stroke-linecap: square"/>
    <g clip-path="url(#p82d0cb64ad)">
     <use xlink:href="#mfaa8f6f3c6" x="382.167468" y="97.873368" style="fill: #70bf41; stroke: #ffffff"/>
    </g>
   </g>
   <g id="line2d_100">
    <path d="M 382.167468 97.873368 
" clip-path="url(#p82d0cb64ad)" style="fill: none; stroke: #70bf41; stroke-width: 1.5; stroke-linecap: square"/>
    <g clip-path="url(#p82d0cb64ad)">
     <use xlink:href="#mfaa8f6f3c6" x="382.167468" y="97.873368" style="fill: #70bf41; stroke: #ffffff"/>
    </g>
   </g>
   <g id="line2d_101">
    <path d="M 209.314528 136.167644 
" clip-path="url(#p82d0cb64ad)" style="fill: none; stroke: #51a7f9; stroke-width: 1.5; stroke-linecap: square"/>
    <defs>
     <path id="m96b15e64fd" d="M 0 3 
C 0.795609 3 1.55874 2.683901 2.12132 2.12132 
C 2.683901 1.55874 3 0.795609 3 0 
C 3 -0.795609 2.683901 -1.55874 2.12132 -2.12132 
C 1.55874 -2.683901 0.795609 -3 0 -3 
C -0.795609 -3 -1.55874 -2.683901 -2.12132 -2.12132 
C -2.683901 -1.55874 -3 -0.795609 -3 0 
C -3 0.795609 -2.683901 1.55874 -2.12132 2.12132 
C -1.55874 2.683901 -0.795609 3 0 3 
z
" style="stroke: #ffffff"/>
    </defs>
    <g clip-path="url(#p82d0cb64ad)">
     <use xlink:href="#m96b15e64fd" x="209.314528" y="136.167644" style="fill: #51a7f9; stroke: #ffffff"/>
    </g>
   </g>
   <g id="line2d_102">
    <path d="M 209.314528 136.167644 
" clip-path="url(#p82d0cb64ad)" style="fill: none; stroke: #51a7f9; stroke-width: 1.5; stroke-linecap: square"/>
    <g clip-path="url(#p82d0cb64ad)">
     <use xlink:href="#m96b15e64fd" x="209.314528" y="136.167644" style="fill: #51a7f9; stroke: #ffffff"/>
    </g>
   </g>
   <g id="line2d_103">
    <path d="M 250.458176 132.853779 
" clip-path="url(#p82d0cb64ad)" style="fill: none; stroke: #51a7f9; stroke-width: 1.5; stroke-linecap: square"/>
    <g clip-path="url(#p82d0cb64ad)">
     <use xlink:href="#m96b15e64fd" x="250.458176" y="132.853779" style="fill: #51a7f9; stroke: #ffffff"/>
    </g>
   </g>
   <g id="line2d_104">
    <path d="M 250.458176 132.853779 
" clip-path="url(#p82d0cb64ad)" style="fill: none; stroke: #51a7f9; stroke-width: 1.5; stroke-linecap: square"/>
    <g clip-path="url(#p82d0cb64ad)">
     <use xlink:href="#m96b15e64fd" x="250.458176" y="132.853779" style="fill: #51a7f9; stroke: #ffffff"/>
    </g>
   </g>
   <g id="line2d_105">
    <path d="M 276.654866 110.480373 
" clip-path="url(#p82d0cb64ad)" style="fill: none; stroke: #51a7f9; stroke-width: 1.5; stroke-linecap: square"/>
    <g clip-path="url(#p82d0cb64ad)">
     <use xlink:href="#m96b15e64fd" x="276.654866" y="110.480373" style="fill: #51a7f9; stroke: #ffffff"/>
    </g>
   </g>
   <g id="line2d_106">
    <path d="M 276.654866 110.480373 
" clip-path="url(#p82d0cb64ad)" style="fill: none; stroke: #51a7f9; stroke-width: 1.5; stroke-linecap: square"/>
    <g clip-path="url(#p82d0cb64ad)">
     <use xlink:href="#m96b15e64fd" x="276.654866" y="110.480373" style="fill: #51a7f9; stroke: #ffffff"/>
    </g>
   </g>
   <g id="line2d_107">
    <path d="M 349.257411 86.89006 
" clip-path="url(#p82d0cb64ad)" style="fill: none; stroke: #51a7f9; stroke-width: 1.5; stroke-linecap: square"/>
    <g clip-path="url(#p82d0cb64ad)">
     <use xlink:href="#m96b15e64fd" x="349.257411" y="86.89006" style="fill: #51a7f9; stroke: #ffffff"/>
    </g>
   </g>
   <g id="line2d_108">
    <path d="M 349.257411 86.89006 
" clip-path="url(#p82d0cb64ad)" style="fill: none; stroke: #51a7f9; stroke-width: 1.5; stroke-linecap: square"/>
    <g clip-path="url(#p82d0cb64ad)">
     <use xlink:href="#m96b15e64fd" x="349.257411" y="86.89006" style="fill: #51a7f9; stroke: #ffffff"/>
    </g>
   </g>
   <g id="line2d_109">
    <path d="M 397.788125 75.512973 
" clip-path="url(#p82d0cb64ad)" style="fill: none; stroke: #51a7f9; stroke-width: 1.5; stroke-linecap: square"/>
    <g clip-path="url(#p82d0cb64ad)">
     <use xlink:href="#m96b15e64fd" x="397.788125" y="75.512973" style="fill: #51a7f9; stroke: #ffffff"/>
    </g>
   </g>
   <g id="line2d_110">
    <path d="M 397.788125 75.512973 
" clip-path="url(#p82d0cb64ad)" style="fill: none; stroke: #51a7f9; stroke-width: 1.5; stroke-linecap: square"/>
    <g clip-path="url(#p82d0cb64ad)">
     <use xlink:href="#m96b15e64fd" x="397.788125" y="75.512973" style="fill: #51a7f9; stroke: #ffffff"/>
    </g>
   </g>
   <g id="line2d_111">
    <path d="M 286.828582 75.719729 
" clip-path="url(#p82d0cb64ad)" style="fill: none; stroke: #6a5acd; stroke-width: 1.5; stroke-linecap: square"/>
    <defs>
     <path id="m87abc69624" d="M 0 3 
C 0.795609 3 1.55874 2.683901 2.12132 2.12132 
C 2.683901 1.55874 3 0.795609 3 0 
C 3 -0.795609 2.683901 -1.55874 2.12132 -2.12132 
C 1.55874 -2.683901 0.795609 -3 0 -3 
C -0.795609 -3 -1.55874 -2.683901 -2.12132 -2.12132 
C -2.683901 -1.55874 -3 -0.795609 -3 0 
C -3 0.795609 -2.683901 1.55874 -2.12132 2.12132 
C -1.55874 2.683901 -0.795609 3 0 3 
z
" style="stroke: #ffffff"/>
    </defs>
    <g clip-path="url(#p82d0cb64ad)">
     <use xlink:href="#m87abc69624" x="286.828582" y="75.719729" style="fill: #6a5acd; stroke: #ffffff"/>
    </g>
   </g>
   <g id="line2d_112">
    <path d="M 286.828582 75.719729 
" clip-path="url(#p82d0cb64ad)" style="fill: none; stroke: #6a5acd; stroke-width: 1.5; stroke-linecap: square"/>
    <g clip-path="url(#p82d0cb64ad)">
     <use xlink:href="#m87abc69624" x="286.828582" y="75.719729" style="fill: #6a5acd; stroke: #ffffff"/>
    </g>
   </g>
   <g id="legend_1">
    <g id="patch_7">
     <path d="M 57.14375 51.6 
L 253.74375 51.6 
Q 255.74375 51.6 255.74375 49.6 
L 255.74375 14.2 
Q 255.74375 12.2 253.74375 12.2 
L 57.14375 12.2 
Q 55.14375 12.2 55.14375 14.2 
L 55.14375 49.6 
Q 55.14375 51.6 57.14375 51.6 
z
" style="fill: #ffffff; opacity: 0.8; stroke: #cccccc; stroke-linejoin: miter"/>
    </g>
    <g id="LineCollection_9">
     <path d="M 64.14375 23.1 
L 74.14375 23.1 
" style="fill: none; stroke: #6a5acd; stroke-width: 3"/>
    </g>
    <g id="LineCollection_10">
     <path d="M 69.14375 28.1 
L 69.14375 18.1 
" style="fill: none; stroke: #6a5acd; stroke-width: 3"/>
    </g>
    <g id="line2d_113">
     <path d="M 59.14375 23.1 
L 79.14375 23.1 
" style="fill: none; stroke: #6a5acd; stroke-width: 1.5; stroke-linecap: square"/>
    </g>
    <g id="line2d_114">
     <defs>
      <path id="mc9837dec1f" d="M 0 4 
C 1.060812 4 2.078319 3.578535 2.828427 2.828427 
C 3.578535 2.078319 4 1.060812 4 0 
C 4 -1.060812 3.578535 -2.078319 2.828427 -2.828427 
C 2.078319 -3.578535 1.060812 -4 0 -4 
C -1.060812 -4 -2.078319 -3.578535 -2.828427 -2.828427 
C -3.578535 -2.078319 -4 -1.060812 -4 0 
C -4 1.060812 -3.578535 2.078319 -2.828427 2.828427 
C -2.078319 3.578535 -1.060812 4 0 4 
z
" style="stroke: #ffffff; stroke-width: 2"/>
     </defs>
     <g>
      <use xlink:href="#mc9837dec1f" x="69.14375" y="23.1" style="fill: #6a5acd; stroke: #ffffff; stroke-width: 2"/>
     </g>
    </g>
    <g id="text_18">
     <!-- $a_{06}(l_F^{\rm phys},s_F)$ -->
     <g transform="translate(87.14375 26.6) scale(0.1 -0.1)">
      <defs>
       <path id="DejaVuSans-Oblique-61" d="M 3438 1997 
L 3047 0 
L 2472 0 
L 2578 531 
Q 2325 219 2001 64 
Q 1678 -91 1281 -91 
Q 834 -91 548 182 
Q 263 456 263 884 
Q 263 1497 752 1853 
Q 1241 2209 2100 2209 
L 2900 2209 
L 2931 2363 
Q 2938 2388 2941 2417 
Q 2944 2447 2944 2509 
Q 2944 2788 2717 2942 
Q 2491 3097 2081 3097 
Q 1800 3097 1504 3025 
Q 1209 2953 897 2809 
L 997 3341 
Q 1322 3463 1633 3523 
Q 1944 3584 2234 3584 
Q 2853 3584 3176 3315 
Q 3500 3047 3500 2534 
Q 3500 2431 3484 2292 
Q 3469 2153 3438 1997 
z
M 2816 1759 
L 2241 1759 
Q 1534 1759 1195 1570 
Q 856 1381 856 984 
Q 856 709 1029 553 
Q 1203 397 1509 397 
Q 1978 397 2328 733 
Q 2678 1069 2791 1631 
L 2816 1759 
z
" transform="scale(0.015625)"/>
       <path id="DejaVuSans-28" d="M 1984 4856 
Q 1566 4138 1362 3434 
Q 1159 2731 1159 2009 
Q 1159 1288 1364 580 
Q 1569 -128 1984 -844 
L 1484 -844 
Q 1016 -109 783 600 
Q 550 1309 550 2009 
Q 550 2706 781 3412 
Q 1013 4119 1484 4856 
L 1984 4856 
z
" transform="scale(0.015625)"/>
       <path id="DejaVuSans-Oblique-6c" d="M 1172 4863 
L 1747 4863 
L 800 0 
L 225 0 
L 1172 4863 
z
" transform="scale(0.015625)"/>
       <path id="DejaVuSans-70" d="M 1159 525 
L 1159 -1331 
L 581 -1331 
L 581 3500 
L 1159 3500 
L 1159 2969 
Q 1341 3281 1617 3432 
Q 1894 3584 2278 3584 
Q 2916 3584 3314 3078 
Q 3713 2572 3713 1747 
Q 3713 922 3314 415 
Q 2916 -91 2278 -91 
Q 1894 -91 1617 61 
Q 1341 213 1159 525 
z
M 3116 1747 
Q 3116 2381 2855 2742 
Q 2594 3103 2138 3103 
Q 1681 3103 1420 2742 
Q 1159 2381 1159 1747 
Q 1159 1113 1420 752 
Q 1681 391 2138 391 
Q 2594 391 2855 752 
Q 3116 1113 3116 1747 
z
" transform="scale(0.015625)"/>
       <path id="DejaVuSans-68" d="M 3513 2113 
L 3513 0 
L 2938 0 
L 2938 2094 
Q 2938 2591 2744 2837 
Q 2550 3084 2163 3084 
Q 1697 3084 1428 2787 
Q 1159 2491 1159 1978 
L 1159 0 
L 581 0 
L 581 4863 
L 1159 4863 
L 1159 2956 
Q 1366 3272 1645 3428 
Q 1925 3584 2291 3584 
Q 2894 3584 3203 3211 
Q 3513 2838 3513 2113 
z
" transform="scale(0.015625)"/>
       <path id="DejaVuSans-79" d="M 2059 -325 
Q 1816 -950 1584 -1140 
Q 1353 -1331 966 -1331 
L 506 -1331 
L 506 -850 
L 844 -850 
Q 1081 -850 1212 -737 
Q 1344 -625 1503 -206 
L 1606 56 
L 191 3500 
L 800 3500 
L 1894 763 
L 2988 3500 
L 3597 3500 
L 2059 -325 
z
" transform="scale(0.015625)"/>
       <path id="DejaVuSans-73" d="M 2834 3397 
L 2834 2853 
Q 2591 2978 2328 3040 
Q 2066 3103 1784 3103 
Q 1356 3103 1142 2972 
Q 928 2841 928 2578 
Q 928 2378 1081 2264 
Q 1234 2150 1697 2047 
L 1894 2003 
Q 2506 1872 2764 1633 
Q 3022 1394 3022 966 
Q 3022 478 2636 193 
Q 2250 -91 1575 -91 
Q 1294 -91 989 -36 
Q 684 19 347 128 
L 347 722 
Q 666 556 975 473 
Q 1284 391 1588 391 
Q 1994 391 2212 530 
Q 2431 669 2431 922 
Q 2431 1156 2273 1281 
Q 2116 1406 1581 1522 
L 1381 1569 
Q 847 1681 609 1914 
Q 372 2147 372 2553 
Q 372 3047 722 3315 
Q 1072 3584 1716 3584 
Q 2034 3584 2315 3537 
Q 2597 3491 2834 3397 
z
" transform="scale(0.015625)"/>
       <path id="DejaVuSans-2c" d="M 750 794 
L 1409 794 
L 1409 256 
L 897 -744 
L 494 -744 
L 750 256 
L 750 794 
z
" transform="scale(0.015625)"/>
       <path id="DejaVuSans-29" d="M 513 4856 
L 1013 4856 
Q 1481 4119 1714 3412 
Q 1947 2706 1947 2009 
Q 1947 1309 1714 600 
Q 1481 -109 1013 -844 
L 513 -844 
Q 928 -128 1133 580 
Q 1338 1288 1338 2009 
Q 1338 2731 1133 3434 
Q 928 4138 513 4856 
z
" transform="scale(0.015625)"/>
      </defs>
      <use xlink:href="#DejaVuSans-Oblique-61" transform="translate(0 0.0625)"/>
      <use xlink:href="#DejaVuSans-30" transform="translate(61.279297 -16.34375) scale(0.7)"/>
      <use xlink:href="#DejaVuSans-36" transform="translate(105.81543 -16.34375) scale(0.7)"/>
      <use xlink:href="#DejaVuSans-28" transform="translate(153.085938 0.0625)"/>
      <use xlink:href="#DejaVuSans-Oblique-6c" transform="translate(192.099609 0.0625)"/>
      <use xlink:href="#DejaVuSans-70" transform="translate(227.330521 50.810938) scale(0.7)"/>
      <use xlink:href="#DejaVuSans-68" transform="translate(271.764115 50.810938) scale(0.7)"/>
      <use xlink:href="#DejaVuSans-79" transform="translate(316.129349 50.810938) scale(0.7)"/>
      <use xlink:href="#DejaVuSans-73" transform="translate(357.55513 50.810938) scale(0.7)"/>
      <use xlink:href="#DejaVuSans-Oblique-46" transform="translate(219.882812 -27.28125) scale(0.7)"/>
      <use xlink:href="#DejaVuSans-2c" transform="translate(396.759232 0.0625)"/>
      <use xlink:href="#DejaVuSans-Oblique-73" transform="translate(448.028763 0.0625)"/>
      <use xlink:href="#DejaVuSans-Oblique-46" transform="translate(500.128372 -16.34375) scale(0.7)"/>
      <use xlink:href="#DejaVuSans-29" transform="translate(543.126419 0.0625)"/>
     </g>
    </g>
    <g id="LineCollection_11">
     <path d="M 64.14375 41.3 
L 74.14375 41.3 
" style="fill: none; stroke: #51a7f9; stroke-width: 3"/>
    </g>
    <g id="LineCollection_12">
     <path d="M 69.14375 46.3 
L 69.14375 36.3 
" style="fill: none; stroke: #51a7f9; stroke-width: 3"/>
    </g>
    <g id="line2d_115">
     <path d="M 59.14375 41.3 
L 79.14375 41.3 
" style="fill: none; stroke: #51a7f9; stroke-width: 1.5; stroke-linecap: square"/>
    </g>
    <g id="line2d_116">
     <defs>
      <path id="m8c68cb7cd8" d="M 0 4 
C 1.060812 4 2.078319 3.578535 2.828427 2.828427 
C 3.578535 2.078319 4 1.060812 4 0 
C 4 -1.060812 3.578535 -2.078319 2.828427 -2.828427 
C 2.078319 -3.578535 1.060812 -4 0 -4 
C -1.060812 -4 -2.078319 -3.578535 -2.828427 -2.828427 
C -3.578535 -2.078319 -4 -1.060812 -4 0 
C -4 1.060812 -3.578535 2.078319 -2.828427 2.828427 
C -2.078319 3.578535 -1.060812 4 0 4 
z
" style="stroke: #ffffff; stroke-width: 2"/>
     </defs>
     <g>
      <use xlink:href="#m8c68cb7cd8" x="69.14375" y="41.3" style="fill: #51a7f9; stroke: #ffffff; stroke-width: 2"/>
     </g>
    </g>
    <g id="text_19">
     <!-- $a_{09}(l_F^{\rm phys},s_F)$ -->
     <g transform="translate(87.14375 44.8) scale(0.1 -0.1)">
      <defs>
       <path id="DejaVuSans-39" d="M 703 97 
L 703 672 
Q 941 559 1184 500 
Q 1428 441 1663 441 
Q 2288 441 2617 861 
Q 2947 1281 2994 2138 
Q 2813 1869 2534 1725 
Q 2256 1581 1919 1581 
Q 1219 1581 811 2004 
Q 403 2428 403 3163 
Q 403 3881 828 4315 
Q 1253 4750 1959 4750 
Q 2769 4750 3195 4129 
Q 3622 3509 3622 2328 
Q 3622 1225 3098 567 
Q 2575 -91 1691 -91 
Q 1453 -91 1209 -44 
Q 966 3 703 97 
z
M 1959 2075 
Q 2384 2075 2632 2365 
Q 2881 2656 2881 3163 
Q 2881 3666 2632 3958 
Q 2384 4250 1959 4250 
Q 1534 4250 1286 3958 
Q 1038 3666 1038 3163 
Q 1038 2656 1286 2365 
Q 1534 2075 1959 2075 
z
" transform="scale(0.015625)"/>
      </defs>
      <use xlink:href="#DejaVuSans-Oblique-61" transform="translate(0 0.0625)"/>
      <use xlink:href="#DejaVuSans-30" transform="translate(61.279297 -16.34375) scale(0.7)"/>
      <use xlink:href="#DejaVuSans-39" transform="translate(105.81543 -16.34375) scale(0.7)"/>
      <use xlink:href="#DejaVuSans-28" transform="translate(153.085938 0.0625)"/>
      <use xlink:href="#DejaVuSans-Oblique-6c" transform="translate(192.099609 0.0625)"/>
      <use xlink:href="#DejaVuSans-70" transform="translate(227.330521 50.810938) scale(0.7)"/>
      <use xlink:href="#DejaVuSans-68" transform="translate(271.764115 50.810938) scale(0.7)"/>
      <use xlink:href="#DejaVuSans-79" transform="translate(316.129349 50.810938) scale(0.7)"/>
      <use xlink:href="#DejaVuSans-73" transform="translate(357.55513 50.810938) scale(0.7)"/>
      <use xlink:href="#DejaVuSans-Oblique-46" transform="translate(219.882812 -27.28125) scale(0.7)"/>
      <use xlink:href="#DejaVuSans-2c" transform="translate(396.759232 0.0625)"/>
      <use xlink:href="#DejaVuSans-Oblique-73" transform="translate(448.028763 0.0625)"/>
      <use xlink:href="#DejaVuSans-Oblique-46" transform="translate(500.128372 -16.34375) scale(0.7)"/>
      <use xlink:href="#DejaVuSans-29" transform="translate(543.126419 0.0625)"/>
     </g>
    </g>
    <g id="LineCollection_13">
     <path d="M 170.44375 23.1 
L 180.44375 23.1 
" style="fill: none; stroke: #70bf41; stroke-width: 3"/>
    </g>
    <g id="LineCollection_14">
     <path d="M 175.44375 28.1 
L 175.44375 18.1 
" style="fill: none; stroke: #70bf41; stroke-width: 3"/>
    </g>
    <g id="line2d_117">
     <path d="M 165.44375 23.1 
L 185.44375 23.1 
" style="fill: none; stroke: #70bf41; stroke-width: 1.5; stroke-linecap: square"/>
    </g>
    <g id="line2d_118">
     <defs>
      <path id="mdafd79ec1d" d="M 0 4 
C 1.060812 4 2.078319 3.578535 2.828427 2.828427 
C 3.578535 2.078319 4 1.060812 4 0 
C 4 -1.060812 3.578535 -2.078319 2.828427 -2.828427 
C 2.078319 -3.578535 1.060812 -4 0 -4 
C -1.060812 -4 -2.078319 -3.578535 -2.828427 -2.828427 
C -3.578535 -2.078319 -4 -1.060812 -4 0 
C -4 1.060812 -3.578535 2.078319 -2.828427 2.828427 
C -2.078319 3.578535 -1.060812 4 0 4 
z
" style="stroke: #ffffff; stroke-width: 2"/>
     </defs>
     <g>
      <use xlink:href="#mdafd79ec1d" x="175.44375" y="23.1" style="fill: #70bf41; stroke: #ffffff; stroke-width: 2"/>
     </g>
    </g>
    <g id="text_20">
     <!-- $a_{12}(l_F^{\rm phys},s_F)$ -->
     <g transform="translate(193.44375 26.6) scale(0.1 -0.1)">
      <use xlink:href="#DejaVuSans-Oblique-61" transform="translate(0 0.0625)"/>
      <use xlink:href="#DejaVuSans-31" transform="translate(61.279297 -16.34375) scale(0.7)"/>
      <use xlink:href="#DejaVuSans-32" transform="translate(105.81543 -16.34375) scale(0.7)"/>
      <use xlink:href="#DejaVuSans-28" transform="translate(153.085938 0.0625)"/>
      <use xlink:href="#DejaVuSans-Oblique-6c" transform="translate(192.099609 0.0625)"/>
      <use xlink:href="#DejaVuSans-70" transform="translate(227.330521 50.810938) scale(0.7)"/>
      <use xlink:href="#DejaVuSans-68" transform="translate(271.764115 50.810938) scale(0.7)"/>
      <use xlink:href="#DejaVuSans-79" transform="translate(316.129349 50.810938) scale(0.7)"/>
      <use xlink:href="#DejaVuSans-73" transform="translate(357.55513 50.810938) scale(0.7)"/>
      <use xlink:href="#DejaVuSans-Oblique-46" transform="translate(219.882812 -27.28125) scale(0.7)"/>
      <use xlink:href="#DejaVuSans-2c" transform="translate(396.759232 0.0625)"/>
      <use xlink:href="#DejaVuSans-Oblique-73" transform="translate(448.028763 0.0625)"/>
      <use xlink:href="#DejaVuSans-Oblique-46" transform="translate(500.128372 -16.34375) scale(0.7)"/>
      <use xlink:href="#DejaVuSans-29" transform="translate(543.126419 0.0625)"/>
     </g>
    </g>
    <g id="LineCollection_15">
     <path d="M 170.44375 41.3 
L 180.44375 41.3 
" style="fill: none; stroke: #ec5d57; stroke-width: 3"/>
    </g>
    <g id="LineCollection_16">
     <path d="M 175.44375 46.3 
L 175.44375 36.3 
" style="fill: none; stroke: #ec5d57; stroke-width: 3"/>
    </g>
    <g id="line2d_119">
     <path d="M 165.44375 41.3 
L 185.44375 41.3 
" style="fill: none; stroke: #ec5d57; stroke-width: 1.5; stroke-linecap: square"/>
    </g>
    <g id="line2d_120">
     <defs>
      <path id="m79f45736d5" d="M 0 4 
C 1.060812 4 2.078319 3.578535 2.828427 2.828427 
C 3.578535 2.078319 4 1.060812 4 0 
C 4 -1.060812 3.578535 -2.078319 2.828427 -2.828427 
C 2.078319 -3.578535 1.060812 -4 0 -4 
C -1.060812 -4 -2.078319 -3.578535 -2.828427 -2.828427 
C -3.578535 -2.078319 -4 -1.060812 -4 0 
C -4 1.060812 -3.578535 2.078319 -2.828427 2.828427 
C -2.078319 3.578535 -1.060812 4 0 4 
z
" style="stroke: #ffffff; stroke-width: 2"/>
     </defs>
     <g>
      <use xlink:href="#m79f45736d5" x="175.44375" y="41.3" style="fill: #ec5d57; stroke: #ffffff; stroke-width: 2"/>
     </g>
    </g>
    <g id="text_21">
     <!-- $a_{15}(l_F^{\rm phys},s_F)$ -->
     <g transform="translate(193.44375 44.8) scale(0.1 -0.1)">
      <use xlink:href="#DejaVuSans-Oblique-61" transform="translate(0 0.0625)"/>
      <use xlink:href="#DejaVuSans-31" transform="translate(61.279297 -16.34375) scale(0.7)"/>
      <use xlink:href="#DejaVuSans-35" transform="translate(105.81543 -16.34375) scale(0.7)"/>
      <use xlink:href="#DejaVuSans-28" transform="translate(153.085938 0.0625)"/>
      <use xlink:href="#DejaVuSans-Oblique-6c" transform="translate(192.099609 0.0625)"/>
      <use xlink:href="#DejaVuSans-70" transform="translate(227.330521 50.810938) scale(0.7)"/>
      <use xlink:href="#DejaVuSans-68" transform="translate(271.764115 50.810938) scale(0.7)"/>
      <use xlink:href="#DejaVuSans-79" transform="translate(316.129349 50.810938) scale(0.7)"/>
      <use xlink:href="#DejaVuSans-73" transform="translate(357.55513 50.810938) scale(0.7)"/>
      <use xlink:href="#DejaVuSans-Oblique-46" transform="translate(219.882812 -27.28125) scale(0.7)"/>
      <use xlink:href="#DejaVuSans-2c" transform="translate(396.759232 0.0625)"/>
      <use xlink:href="#DejaVuSans-Oblique-73" transform="translate(448.028763 0.0625)"/>
      <use xlink:href="#DejaVuSans-Oblique-46" transform="translate(500.128372 -16.34375) scale(0.7)"/>
      <use xlink:href="#DejaVuSans-29" transform="translate(543.126419 0.0625)"/>
     </g>
    </g>
   </g>
  </g>
 </g>
 <defs>
  <clipPath id="p82d0cb64ad">
   <rect x="50.14375" y="7.2" width="391.68" height="293.76"/>
  </clipPath>
 </defs>
 <defs>
  <pattern id="h51acd567f5" patternUnits="userSpaceOnUse" x="0" y="0" width="72" height="72">
   <rect x="0" y="0" width="73" height="73" fill="none"/>
   <path d="M -36 36 
L 36 -36 
M -24 48 
L 48 -24 
M -12 60 
L 60 -12 
M 0 72 
L 72 0 
M 12 84 
L 84 12 
M 24 96 
L 96 24 
M 36 108 
L 108 36 
" style="fill: #000000; stroke: #000000; stroke-width: 1.0; stroke-linecap: butt; stroke-linejoin: miter; stroke-opacity: 0.6"/>
  </pattern>
 </defs>
</svg>
