<?xml version="1.0" encoding="utf-8" standalone="no"?>
<!DOCTYPE svg PUBLIC "-//W3C//DTD SVG 1.1//EN"
  "http://www.w3.org/Graphics/SVG/1.1/DTD/svg11.dtd">
<svg xmlns:xlink="http://www.w3.org/1999/xlink" width="449.02375pt" height="340.838125pt" viewBox="0 0 449.02375 340.838125" xmlns="http://www.w3.org/2000/svg" version="1.1">
 <metadata>
  <rdf:RDF xmlns:dc="http://purl.org/dc/elements/1.1/" xmlns:cc="http://creativecommons.org/ns#" xmlns:rdf="http://www.w3.org/1999/02/22-rdf-syntax-ns#">
   <cc:Work>
    <dc:type rdf:resource="http://purl.org/dc/dcmitype/StillImage"/>
    <dc:date>2025-03-01T16:24:56.198836</dc:date>
    <dc:format>image/svg+xml</dc:format>
    <dc:creator>
     <cc:Agent>
      <dc:title>Matplotlib v3.10.0, https://matplotlib.org/</dc:title>
     </cc:Agent>
    </dc:creator>
   </cc:Work>
  </rdf:RDF>
 </metadata>
 <defs>
  <style type="text/css">*{stroke-linejoin: round; stroke-linecap: butt}</style>
 </defs>
 <g id="figure_1">
  <g id="patch_1">
   <path d="M 0 340.838125 
L 449.02375 340.838125 
L 449.02375 0 
L 0 0 
z
" style="fill: #ffffff"/>
  </g>
  <g id="axes_1">
   <g id="patch_2">
    <path d="M 50.14375 300.96 
L 441.82375 300.96 
L 441.82375 7.2 
L 50.14375 7.2 
z
" style="fill: #ffffff"/>
   </g>
   <g id="FillBetweenPolyCollection_1">
    <path d="M 67.947386 180.406177 
L 67.947386 206.759884 
L 75.188494 202.909486 
L 82.429602 199.124521 
L 89.670709 195.399403 
L 96.911817 191.731028 
L 104.152924 188.117166 
L 111.394032 184.556016 
L 118.63514 181.045991 
L 125.876247 177.585612 
L 133.117355 174.173437 
L 140.358463 170.808017 
L 147.59957 167.487876 
L 154.840678 164.2115 
L 162.081785 160.977338 
L 169.322893 157.783806 
L 176.564001 154.629302 
L 183.805108 151.51222 
L 191.046216 148.430965 
L 198.287324 145.38397 
L 205.528431 142.36971 
L 212.769539 139.386716 
L 220.010646 136.433585 
L 227.251754 133.508986 
L 234.492862 130.611667 
L 241.733969 127.740457 
L 248.975077 124.894269 
L 256.216185 122.072099 
L 263.457292 119.27302 
L 270.6984 116.496186 
L 277.939507 113.740822 
L 285.180615 111.006224 
L 292.421723 108.291751 
L 299.66283 105.596823 
L 306.903938 102.920918 
L 314.145046 100.263561 
L 321.386153 97.624327 
L 328.627261 95.002832 
L 335.868368 92.398731 
L 343.109476 89.811714 
L 350.350584 87.241502 
L 357.591691 84.687846 
L 364.832799 82.150521 
L 372.073907 79.629326 
L 379.315014 77.124079 
L 386.556122 74.634618 
L 393.797229 72.160797 
L 401.038337 69.702484 
L 408.279445 67.259559 
L 415.520552 64.831916 
L 422.76166 62.419457 
L 422.76166 20.552727 
L 422.76166 20.552727 
L 415.520552 23.816474 
L 408.279445 27.082356 
L 401.038337 30.350496 
L 393.797229 33.62101 
L 386.556122 36.894007 
L 379.315014 40.169585 
L 372.073907 43.447836 
L 364.832799 46.728838 
L 357.591691 50.012655 
L 350.350584 53.299337 
L 343.109476 56.588917 
L 335.868368 59.881406 
L 328.627261 63.176795 
L 321.386153 66.475049 
L 314.145046 69.776103 
L 306.903938 73.079862 
L 299.66283 76.386197 
L 292.421723 79.694939 
L 285.180615 83.005875 
L 277.939507 86.318748 
L 270.6984 89.63325 
L 263.457292 92.949017 
L 256.216185 96.265628 
L 248.975077 99.582601 
L 241.733969 102.899387 
L 234.492862 106.215375 
L 227.251754 109.529883 
L 220.010646 112.842166 
L 212.769539 116.151413 
L 205.528431 119.456757 
L 198.287324 122.757278 
L 191.046216 126.052016 
L 183.805108 129.339983 
L 176.564001 132.620179 
L 169.322893 135.891612 
L 162.081785 139.15332 
L 154.840678 142.404387 
L 147.59957 145.643975 
L 140.358463 148.871336 
L 133.117355 152.085838 
L 125.876247 155.286979 
L 118.63514 158.474399 
L 111.394032 161.64789 
L 104.152924 164.807396 
L 96.911817 167.953024 
L 89.670709 171.08505 
L 82.429602 174.203942 
L 75.188494 177.310465 
L 67.947386 180.406177 
z
" clip-path="url(#p61917087c9)" style="fill: url(#h35a611b9a4); stroke: #000000; stroke-opacity: 0.6"/>
   </g>
   <g id="FillBetweenPolyCollection_2">
    <defs>
     <path id="m68b4fa27da" d="M 67.947386 -66.172005 
L 67.947386 -53.230852 
L 75.188494 -56.655276 
L 82.429602 -60.016441 
L 89.670709 -63.31885 
L 96.911817 -66.562447 
L 104.152924 -69.744064 
L 111.394032 -72.857104 
L 118.63514 -75.89078 
L 125.876247 -78.829687 
L 133.117355 -81.655376 
L 140.358463 -84.352033 
L 147.59957 -86.915216 
L 154.840678 -89.356392 
L 162.081785 -91.697905 
L 169.322893 -93.963773 
L 176.564001 -96.173903 
L 183.805108 -98.342814 
L 191.046216 -100.480508 
L 198.287324 -102.593752 
L 205.528431 -104.687121 
L 212.769539 -106.763737 
L 220.010646 -108.825748 
L 227.251754 -110.874648 
L 234.492862 -112.911478 
L 241.733969 -114.936966 
L 248.975077 -116.951612 
L 256.216185 -118.955758 
L 263.457292 -120.949624 
L 270.6984 -122.933342 
L 277.939507 -124.906979 
L 285.180615 -126.870548 
L 292.421723 -128.824025 
L 299.66283 -130.767355 
L 306.903938 -132.70046 
L 314.145046 -134.623244 
L 321.386153 -136.535596 
L 328.627261 -138.437395 
L 335.868368 -140.328513 
L 343.109476 -142.208813 
L 350.350584 -144.078156 
L 357.591691 -145.936399 
L 364.832799 -147.783399 
L 372.073907 -149.619011 
L 379.315014 -151.443091 
L 386.556122 -153.255494 
L 393.797229 -155.056079 
L 401.038337 -156.844707 
L 408.279445 -158.621242 
L 415.520552 -160.385548 
L 422.76166 -162.137496 
L 422.76166 -193.924916 
L 422.76166 -193.924916 
L 415.520552 -191.390617 
L 408.279445 -188.850869 
L 401.038337 -186.305321 
L 393.797229 -183.753618 
L 386.556122 -181.195393 
L 379.315014 -178.630277 
L 372.073907 -176.057891 
L 364.832799 -173.47785 
L 357.591691 -170.889764 
L 350.350584 -168.293238 
L 343.109476 -165.687871 
L 335.868368 -163.073257 
L 328.627261 -160.448989 
L 321.386153 -157.814658 
L 314.145046 -155.169851 
L 306.903938 -152.51416 
L 299.66283 -149.847179 
L 292.421723 -147.168507 
L 285.180615 -144.477752 
L 277.939507 -141.77454 
L 270.6984 -139.058514 
L 263.457292 -136.329346 
L 256.216185 -133.58675 
L 248.975077 -130.830492 
L 241.733969 -128.060415 
L 234.492862 -125.276469 
L 227.251754 -122.478747 
L 220.010646 -119.667553 
L 212.769539 -116.843486 
L 205.528431 -114.007577 
L 198.287324 -111.16149 
L 191.046216 -108.307838 
L 183.805108 -105.450659 
L 176.564001 -102.596153 
L 169.322893 -99.753719 
L 162.081785 -96.937234 
L 154.840678 -94.165915 
L 147.59957 -91.463037 
L 140.358463 -88.85014 
L 133.117355 -86.337809 
L 125.876247 -83.920629 
L 118.63514 -81.581695 
L 111.394032 -79.301327 
L 104.152924 -77.062694 
L 96.911817 -74.853316 
L 89.670709 -72.66452 
L 82.429602 -70.490439 
L 75.188494 -68.327148 
L 67.947386 -66.172005 
z
" style="stroke: #ec5d57; stroke-opacity: 0.4"/>
    </defs>
    <g clip-path="url(#p61917087c9)">
     <use xlink:href="#m68b4fa27da" x="0" y="340.838125" style="fill: #ec5d57; fill-opacity: 0.4; stroke: #ec5d57; stroke-opacity: 0.4"/>
    </g>
   </g>
   <g id="FillBetweenPolyCollection_3">
    <defs>
     <path id="m8fa729be62" d="M 67.947386 -88.728171 
L 67.947386 -78.638881 
L 75.188494 -82.208936 
L 82.429602 -85.691917 
L 89.670709 -89.085172 
L 96.911817 -92.379945 
L 104.152924 -95.56457 
L 111.394032 -98.628137 
L 118.63514 -101.56562 
L 125.876247 -104.381916 
L 133.117355 -107.09142 
L 140.358463 -109.713392 
L 147.59957 -112.266877 
L 154.840678 -114.767826 
L 162.081785 -117.228439 
L 169.322893 -119.657622 
L 176.564001 -122.061749 
L 183.805108 -124.445359 
L 191.046216 -126.811688 
L 198.287324 -129.163058 
L 205.528431 -131.501141 
L 212.769539 -133.827146 
L 220.010646 -136.141945 
L 227.251754 -138.446166 
L 234.492862 -140.740252 
L 241.733969 -143.02451 
L 248.975077 -145.299141 
L 256.216185 -147.564268 
L 263.457292 -149.81995 
L 270.6984 -152.066196 
L 277.939507 -154.302978 
L 285.180615 -156.530236 
L 292.421723 -158.747886 
L 299.66283 -160.955824 
L 306.903938 -163.153931 
L 314.145046 -165.342076 
L 321.386153 -167.520115 
L 328.627261 -169.687899 
L 335.868368 -171.845273 
L 343.109476 -173.992076 
L 350.350584 -176.128147 
L 357.591691 -178.253319 
L 364.832799 -180.367427 
L 372.073907 -182.470304 
L 379.315014 -184.561786 
L 386.556122 -186.641709 
L 393.797229 -188.70991 
L 401.038337 -190.766231 
L 408.279445 -192.810514 
L 415.520552 -194.842608 
L 422.76166 -196.862362 
L 422.76166 -230.483574 
L 422.76166 -230.483574 
L 415.520552 -227.737186 
L 408.279445 -224.985496 
L 401.038337 -222.228136 
L 393.797229 -219.464728 
L 386.556122 -216.694889 
L 379.315014 -213.918229 
L 372.073907 -211.134347 
L 364.832799 -208.342841 
L 357.591691 -205.543298 
L 350.350584 -202.735301 
L 343.109476 -199.918428 
L 335.868368 -197.092252 
L 328.627261 -194.256341 
L 321.386153 -191.41026 
L 314.145046 -188.553573 
L 306.903938 -185.685842 
L 299.66283 -182.806628 
L 292.421723 -179.915495 
L 285.180615 -177.012012 
L 277.939507 -174.095752 
L 270.6984 -171.166301 
L 263.457292 -168.223257 
L 256.216185 -165.266239 
L 248.975077 -162.294892 
L 241.733969 -159.308896 
L 234.492862 -156.307981 
L 227.251754 -153.291943 
L 220.010646 -150.260664 
L 212.769539 -147.214145 
L 205.528431 -144.152552 
L 198.287324 -141.076272 
L 191.046216 -137.986006 
L 183.805108 -134.882887 
L 176.564001 -131.768671 
L 169.322893 -128.645992 
L 162.081785 -125.518746 
L 154.840678 -122.392618 
L 147.59957 -119.275771 
L 140.358463 -116.179599 
L 133.117355 -113.119173 
L 125.876247 -110.112562 
L 118.63514 -107.17794 
L 111.394032 -104.328467 
L 104.152924 -101.567615 
L 96.911817 -98.888667 
L 89.670709 -96.278634 
L 82.429602 -93.723152 
L 75.188494 -91.209595 
L 67.947386 -88.728171 
z
" style="stroke: #70bf41; stroke-opacity: 0.4"/>
    </defs>
    <g clip-path="url(#p61917087c9)">
     <use xlink:href="#m8fa729be62" x="0" y="340.838125" style="fill: #70bf41; fill-opacity: 0.4; stroke: #70bf41; stroke-opacity: 0.4"/>
    </g>
   </g>
   <g id="FillBetweenPolyCollection_4">
    <defs>
     <path id="mb688ee52ac" d="M 67.947386 -117.654951 
L 67.947386 -104.360017 
L 75.188494 -108.057645 
L 82.429602 -111.670142 
L 89.670709 -115.19985 
L 96.911817 -118.646062 
L 104.152924 -122.007467 
L 111.394032 -125.283315 
L 118.63514 -128.474262 
L 125.876247 -131.582893 
L 133.117355 -134.613805 
L 140.358463 -137.573252 
L 147.59957 -140.468499 
L 154.840678 -143.307119 
L 162.081785 -146.096404 
L 169.322893 -148.842979 
L 176.564001 -151.552622 
L 183.805108 -154.230224 
L 191.046216 -156.879844 
L 198.287324 -159.504804 
L 205.528431 -162.107802 
L 212.769539 -164.691014 
L 220.010646 -167.256189 
L 227.251754 -169.804732 
L 234.492862 -172.337763 
L 241.733969 -174.856178 
L 248.975077 -177.360689 
L 256.216185 -179.851857 
L 263.457292 -182.330122 
L 270.6984 -184.795827 
L 277.939507 -187.249232 
L 285.180615 -189.69053 
L 292.421723 -192.119862 
L 299.66283 -194.537321 
L 306.903938 -196.942963 
L 314.145046 -199.336815 
L 321.386153 -201.718876 
L 328.627261 -204.089126 
L 335.868368 -206.447528 
L 343.109476 -208.794028 
L 350.350584 -211.128563 
L 357.591691 -213.451061 
L 364.832799 -215.761441 
L 372.073907 -218.059617 
L 379.315014 -220.3455 
L 386.556122 -222.618997 
L 393.797229 -224.880013 
L 401.038337 -227.128452 
L 408.279445 -229.36422 
L 415.520552 -231.58722 
L 422.76166 -233.797358 
L 422.76166 -269.306404 
L 422.76166 -269.306404 
L 415.520552 -266.315927 
L 408.279445 -263.320822 
L 401.038337 -260.320777 
L 393.797229 -257.315472 
L 386.556122 -254.304584 
L 379.315014 -251.287786 
L 372.073907 -248.264747 
L 364.832799 -245.235133 
L 357.591691 -242.198608 
L 350.350584 -239.154835 
L 343.109476 -236.103479 
L 335.868368 -233.044202 
L 328.627261 -229.976675 
L 321.386153 -226.900569 
L 314.145046 -223.815565 
L 306.903938 -220.721354 
L 299.66283 -217.617641 
L 292.421723 -214.504147 
L 285.180615 -211.380615 
L 277.939507 -208.24682 
L 270.6984 -205.102567 
L 263.457292 -201.947711 
L 256.216185 -198.782157 
L 248.975077 -195.605883 
L 241.733969 -192.418952 
L 234.492862 -189.221533 
L 227.251754 -186.013931 
L 220.010646 -182.796616 
L 212.769539 -179.570269 
L 205.528431 -176.33583 
L 198.287324 -173.094565 
L 191.046216 -169.848142 
L 183.805108 -166.598719 
L 176.564001 -163.349053 
L 169.322893 -160.102601 
L 162.081785 -156.863609 
L 154.840678 -153.637168 
L 147.59957 -150.429159 
L 140.358463 -147.24607 
L 133.117355 -144.09459 
L 125.876247 -140.981013 
L 118.63514 -137.910503 
L 111.394032 -134.886424 
L 104.152924 -131.909935 
L 96.911817 -128.980002 
L 89.670709 -126.093795 
L 82.429602 -123.247306 
L 75.188494 -120.435958 
L 67.947386 -117.654951 
z
" style="stroke: #51a7f9; stroke-opacity: 0.4"/>
    </defs>
    <g clip-path="url(#p61917087c9)">
     <use xlink:href="#mb688ee52ac" x="0" y="340.838125" style="fill: #51a7f9; fill-opacity: 0.4; stroke: #51a7f9; stroke-opacity: 0.4"/>
    </g>
   </g>
   <g id="FillBetweenPolyCollection_5">
    <defs>
     <path id="m2423d429a4" d="M 67.947386 -140.8602 
L 67.947386 -121.447604 
L 75.188494 -125.229982 
L 82.429602 -128.938931 
L 89.670709 -132.579499 
L 96.911817 -136.154118 
L 104.152924 -139.664408 
L 111.394032 -143.111736 
L 118.63514 -146.49749 
L 125.876247 -149.823255 
L 133.117355 -153.090901 
L 140.358463 -156.302616 
L 147.59957 -159.460898 
L 154.840678 -162.568499 
L 162.081785 -165.628349 
L 169.322893 -168.64347 
L 176.564001 -171.616887 
L 183.805108 -174.551552 
L 191.046216 -177.450281 
L 198.287324 -180.315711 
L 205.528431 -183.15027 
L 212.769539 -185.956165 
L 220.010646 -188.735381 
L 227.251754 -191.489686 
L 234.492862 -194.220642 
L 241.733969 -196.929622 
L 248.975077 -199.617826 
L 256.216185 -202.286298 
L 263.457292 -204.935944 
L 270.6984 -207.567547 
L 277.939507 -210.181781 
L 285.180615 -212.779226 
L 292.421723 -215.360377 
L 299.66283 -217.92566 
L 306.903938 -220.475435 
L 314.145046 -223.010007 
L 321.386153 -225.529636 
L 328.627261 -228.034539 
L 335.868368 -230.524897 
L 343.109476 -233.000861 
L 350.350584 -235.462554 
L 357.591691 -237.910078 
L 364.832799 -240.343515 
L 372.073907 -242.762929 
L 379.315014 -245.168369 
L 386.556122 -247.559874 
L 393.797229 -249.937471 
L 401.038337 -252.301179 
L 408.279445 -254.651009 
L 415.520552 -256.986967 
L 422.76166 -259.309054 
L 422.76166 -297.454148 
L 422.76166 -297.454148 
L 415.520552 -294.300491 
L 408.279445 -291.143314 
L 401.038337 -287.982398 
L 393.797229 -284.817525 
L 386.556122 -281.64848 
L 379.315014 -278.47505 
L 372.073907 -275.297025 
L 364.832799 -272.114202 
L 357.591691 -268.926386 
L 350.350584 -265.73339 
L 343.109476 -262.535038 
L 335.868368 -259.331169 
L 328.627261 -256.12164 
L 321.386153 -252.906326 
L 314.145046 -249.685127 
L 306.903938 -246.457971 
L 299.66283 -243.224822 
L 292.421723 -239.985682 
L 285.180615 -236.740598 
L 277.939507 -233.489673 
L 270.6984 -230.233072 
L 263.457292 -226.971032 
L 256.216185 -223.703876 
L 248.975077 -220.432022 
L 241.733969 -217.155996 
L 234.492862 -213.876451 
L 227.251754 -210.594181 
L 220.010646 -207.310133 
L 212.769539 -204.025429 
L 205.528431 -200.741374 
L 198.287324 -197.459467 
L 191.046216 -194.181407 
L 183.805108 -190.909087 
L 176.564001 -187.644574 
L 169.322893 -184.390083 
L 162.081785 -181.147922 
L 154.840678 -177.920428 
L 147.59957 -174.70988 
L 140.358463 -171.518403 
L 133.117355 -168.347867 
L 125.876247 -165.199796 
L 118.63514 -162.07529 
L 111.394032 -158.974987 
L 104.152924 -155.899042 
L 96.911817 -152.847156 
L 89.670709 -149.818616 
L 82.429602 -146.812344 
L 75.188494 -143.826904 
L 67.947386 -140.8602 
z
" style="stroke: #6a5acd; stroke-opacity: 0.4"/>
    </defs>
    <g clip-path="url(#p61917087c9)">
     <use xlink:href="#m2423d429a4" x="0" y="340.838125" style="fill: #6a5acd; fill-opacity: 0.4; stroke: #6a5acd; stroke-opacity: 0.4"/>
    </g>
   </g>
   <g id="matplotlib.axis_1">
    <g id="xtick_1">
     <g id="line2d_1">
      <defs>
       <path id="m77950015ba" d="M 0 0 
L 0 3.5 
" style="stroke: #000000; stroke-width: 0.8"/>
      </defs>
      <g>
       <use xlink:href="#m77950015ba" x="67.561973" y="300.96" style="stroke: #000000; stroke-width: 0.8"/>
      </g>
     </g>
     <g id="text_1">
      <!-- 0.00 -->
      <g transform="translate(56.42916 315.558437) scale(0.1 -0.1)">
       <defs>
        <path id="DejaVuSans-30" d="M 2034 4250 
Q 1547 4250 1301 3770 
Q 1056 3291 1056 2328 
Q 1056 1369 1301 889 
Q 1547 409 2034 409 
Q 2525 409 2770 889 
Q 3016 1369 3016 2328 
Q 3016 3291 2770 3770 
Q 2525 4250 2034 4250 
z
M 2034 4750 
Q 2819 4750 3233 4129 
Q 3647 3509 3647 2328 
Q 3647 1150 3233 529 
Q 2819 -91 2034 -91 
Q 1250 -91 836 529 
Q 422 1150 422 2328 
Q 422 3509 836 4129 
Q 1250 4750 2034 4750 
z
" transform="scale(0.015625)"/>
        <path id="DejaVuSans-2e" d="M 684 794 
L 1344 794 
L 1344 0 
L 684 0 
L 684 794 
z
" transform="scale(0.015625)"/>
       </defs>
       <use xlink:href="#DejaVuSans-30"/>
       <use xlink:href="#DejaVuSans-2e" transform="translate(63.623047 0)"/>
       <use xlink:href="#DejaVuSans-30" transform="translate(95.410156 0)"/>
       <use xlink:href="#DejaVuSans-30" transform="translate(159.033203 0)"/>
      </g>
     </g>
    </g>
    <g id="xtick_2">
     <g id="line2d_2">
      <g>
       <use xlink:href="#m77950015ba" x="144.64472" y="300.96" style="stroke: #000000; stroke-width: 0.8"/>
      </g>
     </g>
     <g id="text_2">
      <!-- 0.02 -->
      <g transform="translate(133.511908 315.558437) scale(0.1 -0.1)">
       <defs>
        <path id="DejaVuSans-32" d="M 1228 531 
L 3431 531 
L 3431 0 
L 469 0 
L 469 531 
Q 828 903 1448 1529 
Q 2069 2156 2228 2338 
Q 2531 2678 2651 2914 
Q 2772 3150 2772 3378 
Q 2772 3750 2511 3984 
Q 2250 4219 1831 4219 
Q 1534 4219 1204 4116 
Q 875 4013 500 3803 
L 500 4441 
Q 881 4594 1212 4672 
Q 1544 4750 1819 4750 
Q 2544 4750 2975 4387 
Q 3406 4025 3406 3419 
Q 3406 3131 3298 2873 
Q 3191 2616 2906 2266 
Q 2828 2175 2409 1742 
Q 1991 1309 1228 531 
z
" transform="scale(0.015625)"/>
       </defs>
       <use xlink:href="#DejaVuSans-30"/>
       <use xlink:href="#DejaVuSans-2e" transform="translate(63.623047 0)"/>
       <use xlink:href="#DejaVuSans-30" transform="translate(95.410156 0)"/>
       <use xlink:href="#DejaVuSans-32" transform="translate(159.033203 0)"/>
      </g>
     </g>
    </g>
    <g id="xtick_3">
     <g id="line2d_3">
      <g>
       <use xlink:href="#m77950015ba" x="221.727468" y="300.96" style="stroke: #000000; stroke-width: 0.8"/>
      </g>
     </g>
     <g id="text_3">
      <!-- 0.04 -->
      <g transform="translate(210.594656 315.558437) scale(0.1 -0.1)">
       <defs>
        <path id="DejaVuSans-34" d="M 2419 4116 
L 825 1625 
L 2419 1625 
L 2419 4116 
z
M 2253 4666 
L 3047 4666 
L 3047 1625 
L 3713 1625 
L 3713 1100 
L 3047 1100 
L 3047 0 
L 2419 0 
L 2419 1100 
L 313 1100 
L 313 1709 
L 2253 4666 
z
" transform="scale(0.015625)"/>
       </defs>
       <use xlink:href="#DejaVuSans-30"/>
       <use xlink:href="#DejaVuSans-2e" transform="translate(63.623047 0)"/>
       <use xlink:href="#DejaVuSans-30" transform="translate(95.410156 0)"/>
       <use xlink:href="#DejaVuSans-34" transform="translate(159.033203 0)"/>
      </g>
     </g>
    </g>
    <g id="xtick_4">
     <g id="line2d_4">
      <g>
       <use xlink:href="#m77950015ba" x="298.810216" y="300.96" style="stroke: #000000; stroke-width: 0.8"/>
      </g>
     </g>
     <g id="text_4">
      <!-- 0.06 -->
      <g transform="translate(287.677403 315.558437) scale(0.1 -0.1)">
       <defs>
        <path id="DejaVuSans-36" d="M 2113 2584 
Q 1688 2584 1439 2293 
Q 1191 2003 1191 1497 
Q 1191 994 1439 701 
Q 1688 409 2113 409 
Q 2538 409 2786 701 
Q 3034 994 3034 1497 
Q 3034 2003 2786 2293 
Q 2538 2584 2113 2584 
z
M 3366 4563 
L 3366 3988 
Q 3128 4100 2886 4159 
Q 2644 4219 2406 4219 
Q 1781 4219 1451 3797 
Q 1122 3375 1075 2522 
Q 1259 2794 1537 2939 
Q 1816 3084 2150 3084 
Q 2853 3084 3261 2657 
Q 3669 2231 3669 1497 
Q 3669 778 3244 343 
Q 2819 -91 2113 -91 
Q 1303 -91 875 529 
Q 447 1150 447 2328 
Q 447 3434 972 4092 
Q 1497 4750 2381 4750 
Q 2619 4750 2861 4703 
Q 3103 4656 3366 4563 
z
" transform="scale(0.015625)"/>
       </defs>
       <use xlink:href="#DejaVuSans-30"/>
       <use xlink:href="#DejaVuSans-2e" transform="translate(63.623047 0)"/>
       <use xlink:href="#DejaVuSans-30" transform="translate(95.410156 0)"/>
       <use xlink:href="#DejaVuSans-36" transform="translate(159.033203 0)"/>
      </g>
     </g>
    </g>
    <g id="xtick_5">
     <g id="line2d_5">
      <g>
       <use xlink:href="#m77950015ba" x="375.892964" y="300.96" style="stroke: #000000; stroke-width: 0.8"/>
      </g>
     </g>
     <g id="text_5">
      <!-- 0.08 -->
      <g transform="translate(364.760151 315.558437) scale(0.1 -0.1)">
       <defs>
        <path id="DejaVuSans-38" d="M 2034 2216 
Q 1584 2216 1326 1975 
Q 1069 1734 1069 1313 
Q 1069 891 1326 650 
Q 1584 409 2034 409 
Q 2484 409 2743 651 
Q 3003 894 3003 1313 
Q 3003 1734 2745 1975 
Q 2488 2216 2034 2216 
z
M 1403 2484 
Q 997 2584 770 2862 
Q 544 3141 544 3541 
Q 544 4100 942 4425 
Q 1341 4750 2034 4750 
Q 2731 4750 3128 4425 
Q 3525 4100 3525 3541 
Q 3525 3141 3298 2862 
Q 3072 2584 2669 2484 
Q 3125 2378 3379 2068 
Q 3634 1759 3634 1313 
Q 3634 634 3220 271 
Q 2806 -91 2034 -91 
Q 1263 -91 848 271 
Q 434 634 434 1313 
Q 434 1759 690 2068 
Q 947 2378 1403 2484 
z
M 1172 3481 
Q 1172 3119 1398 2916 
Q 1625 2713 2034 2713 
Q 2441 2713 2670 2916 
Q 2900 3119 2900 3481 
Q 2900 3844 2670 4047 
Q 2441 4250 2034 4250 
Q 1625 4250 1398 4047 
Q 1172 3844 1172 3481 
z
" transform="scale(0.015625)"/>
       </defs>
       <use xlink:href="#DejaVuSans-30"/>
       <use xlink:href="#DejaVuSans-2e" transform="translate(63.623047 0)"/>
       <use xlink:href="#DejaVuSans-30" transform="translate(95.410156 0)"/>
       <use xlink:href="#DejaVuSans-38" transform="translate(159.033203 0)"/>
      </g>
     </g>
    </g>
    <g id="text_6">
     <!-- $l^2_F = m_\pi^2 / (4 \pi F_\pi)^2$ -->
     <g transform="translate(208.93375 330.738125) scale(0.1 -0.1)">
      <defs>
       <path id="DejaVuSans-Oblique-6c" d="M 1172 4863 
L 1747 4863 
L 800 0 
L 225 0 
L 1172 4863 
z
" transform="scale(0.015625)"/>
       <path id="DejaVuSans-Oblique-46" d="M 1081 4666 
L 3756 4666 
L 3653 4134 
L 1606 4134 
L 1338 2759 
L 3188 2759 
L 3084 2228 
L 1234 2228 
L 800 0 
L 172 0 
L 1081 4666 
z
" transform="scale(0.015625)"/>
       <path id="DejaVuSans-3d" d="M 678 2906 
L 4684 2906 
L 4684 2381 
L 678 2381 
L 678 2906 
z
M 678 1631 
L 4684 1631 
L 4684 1100 
L 678 1100 
L 678 1631 
z
" transform="scale(0.015625)"/>
       <path id="DejaVuSans-Oblique-6d" d="M 5747 2113 
L 5338 0 
L 4763 0 
L 5166 2094 
Q 5191 2228 5203 2325 
Q 5216 2422 5216 2491 
Q 5216 2772 5059 2928 
Q 4903 3084 4622 3084 
Q 4203 3084 3875 2770 
Q 3547 2456 3450 1953 
L 3066 0 
L 2491 0 
L 2900 2094 
Q 2925 2209 2937 2307 
Q 2950 2406 2950 2484 
Q 2950 2769 2794 2926 
Q 2638 3084 2363 3084 
Q 1938 3084 1609 2770 
Q 1281 2456 1184 1953 
L 800 0 
L 225 0 
L 909 3500 
L 1484 3500 
L 1375 2956 
Q 1609 3263 1923 3423 
Q 2238 3584 2597 3584 
Q 2978 3584 3223 3384 
Q 3469 3184 3519 2828 
Q 3781 3197 4126 3390 
Q 4472 3584 4856 3584 
Q 5306 3584 5551 3325 
Q 5797 3066 5797 2591 
Q 5797 2488 5784 2364 
Q 5772 2241 5747 2113 
z
" transform="scale(0.015625)"/>
       <path id="DejaVuSans-Oblique-3c0" d="M 584 3500 
L 3938 3500 
L 3825 2925 
L 3384 2925 
L 2966 775 
Q 2922 550 2981 450 
Q 3038 353 3209 353 
Q 3256 353 3325 363 
Q 3397 369 3419 372 
L 3338 -44 
Q 3222 -84 3103 -103 
Q 2981 -122 2866 -122 
Q 2491 -122 2388 81 
Q 2284 288 2391 838 
L 2797 2925 
L 1506 2925 
L 938 0 
L 350 0 
L 919 2925 
L 472 2925 
L 584 3500 
z
" transform="scale(0.015625)"/>
       <path id="DejaVuSans-2f" d="M 1625 4666 
L 2156 4666 
L 531 -594 
L 0 -594 
L 1625 4666 
z
" transform="scale(0.015625)"/>
       <path id="DejaVuSans-28" d="M 1984 4856 
Q 1566 4138 1362 3434 
Q 1159 2731 1159 2009 
Q 1159 1288 1364 580 
Q 1569 -128 1984 -844 
L 1484 -844 
Q 1016 -109 783 600 
Q 550 1309 550 2009 
Q 550 2706 781 3412 
Q 1013 4119 1484 4856 
L 1984 4856 
z
" transform="scale(0.015625)"/>
       <path id="DejaVuSans-29" d="M 513 4856 
L 1013 4856 
Q 1481 4119 1714 3412 
Q 1947 2706 1947 2009 
Q 1947 1309 1714 600 
Q 1481 -109 1013 -844 
L 513 -844 
Q 928 -128 1133 580 
Q 1338 1288 1338 2009 
Q 1338 2731 1133 3434 
Q 928 4138 513 4856 
z
" transform="scale(0.015625)"/>
      </defs>
      <use xlink:href="#DejaVuSans-Oblique-6c" transform="translate(0 0.765625)"/>
      <use xlink:href="#DejaVuSans-32" transform="translate(35.230911 39.046875) scale(0.7)"/>
      <use xlink:href="#DejaVuSans-Oblique-46" transform="translate(27.783203 -26.578125) scale(0.7)"/>
      <use xlink:href="#DejaVuSans-3d" transform="translate(101.983841 0.765625)"/>
      <use xlink:href="#DejaVuSans-Oblique-6d" transform="translate(205.255326 0.765625)"/>
      <use xlink:href="#DejaVuSans-32" transform="translate(307.317331 39.046875) scale(0.7)"/>
      <use xlink:href="#DejaVuSans-Oblique-3c0" transform="translate(302.667435 -26.578125) scale(0.7)"/>
      <use xlink:href="#DejaVuSans-2f" transform="translate(354.587839 0.765625)"/>
      <use xlink:href="#DejaVuSans-28" transform="translate(388.279245 0.765625)"/>
      <use xlink:href="#DejaVuSans-34" transform="translate(427.292917 0.765625)"/>
      <use xlink:href="#DejaVuSans-Oblique-3c0" transform="translate(490.915964 0.765625)"/>
      <use xlink:href="#DejaVuSans-Oblique-46" transform="translate(551.121042 0.765625)"/>
      <use xlink:href="#DejaVuSans-Oblique-3c0" transform="translate(608.640573 -15.640625) scale(0.7)"/>
      <use xlink:href="#DejaVuSans-29" transform="translate(653.518503 0.765625)"/>
      <use xlink:href="#DejaVuSans-32" transform="translate(693.489206 39.046875) scale(0.7)"/>
     </g>
    </g>
   </g>
   <g id="matplotlib.axis_2">
    <g id="ytick_1">
     <g id="line2d_6">
      <defs>
       <path id="m29ed0446e2" d="M 0 0 
L -3.5 0 
" style="stroke: #000000; stroke-width: 0.8"/>
      </defs>
      <g>
       <use xlink:href="#m29ed0446e2" x="50.14375" y="293.102648" style="stroke: #000000; stroke-width: 0.8"/>
      </g>
     </g>
     <g id="text_7">
      <!-- 1.35 -->
      <g transform="translate(20.878125 296.901866) scale(0.1 -0.1)">
       <defs>
        <path id="DejaVuSans-31" d="M 794 531 
L 1825 531 
L 1825 4091 
L 703 3866 
L 703 4441 
L 1819 4666 
L 2450 4666 
L 2450 531 
L 3481 531 
L 3481 0 
L 794 0 
L 794 531 
z
" transform="scale(0.015625)"/>
        <path id="DejaVuSans-33" d="M 2597 2516 
Q 3050 2419 3304 2112 
Q 3559 1806 3559 1356 
Q 3559 666 3084 287 
Q 2609 -91 1734 -91 
Q 1441 -91 1130 -33 
Q 819 25 488 141 
L 488 750 
Q 750 597 1062 519 
Q 1375 441 1716 441 
Q 2309 441 2620 675 
Q 2931 909 2931 1356 
Q 2931 1769 2642 2001 
Q 2353 2234 1838 2234 
L 1294 2234 
L 1294 2753 
L 1863 2753 
Q 2328 2753 2575 2939 
Q 2822 3125 2822 3475 
Q 2822 3834 2567 4026 
Q 2313 4219 1838 4219 
Q 1578 4219 1281 4162 
Q 984 4106 628 3988 
L 628 4550 
Q 988 4650 1302 4700 
Q 1616 4750 1894 4750 
Q 2613 4750 3031 4423 
Q 3450 4097 3450 3541 
Q 3450 3153 3228 2886 
Q 3006 2619 2597 2516 
z
" transform="scale(0.015625)"/>
        <path id="DejaVuSans-35" d="M 691 4666 
L 3169 4666 
L 3169 4134 
L 1269 4134 
L 1269 2991 
Q 1406 3038 1543 3061 
Q 1681 3084 1819 3084 
Q 2600 3084 3056 2656 
Q 3513 2228 3513 1497 
Q 3513 744 3044 326 
Q 2575 -91 1722 -91 
Q 1428 -91 1123 -41 
Q 819 9 494 109 
L 494 744 
Q 775 591 1075 516 
Q 1375 441 1709 441 
Q 2250 441 2565 725 
Q 2881 1009 2881 1497 
Q 2881 1984 2565 2268 
Q 2250 2553 1709 2553 
Q 1456 2553 1204 2497 
Q 953 2441 691 2322 
L 691 4666 
z
" transform="scale(0.015625)"/>
       </defs>
       <use xlink:href="#DejaVuSans-31"/>
       <use xlink:href="#DejaVuSans-2e" transform="translate(63.623047 0)"/>
       <use xlink:href="#DejaVuSans-33" transform="translate(95.410156 0)"/>
       <use xlink:href="#DejaVuSans-35" transform="translate(159.033203 0)"/>
      </g>
     </g>
    </g>
    <g id="ytick_2">
     <g id="line2d_7">
      <g>
       <use xlink:href="#m29ed0446e2" x="50.14375" y="228.686456" style="stroke: #000000; stroke-width: 0.8"/>
      </g>
     </g>
     <g id="text_8">
      <!-- 1.40 -->
      <g transform="translate(20.878125 232.485675) scale(0.1 -0.1)">
       <use xlink:href="#DejaVuSans-31"/>
       <use xlink:href="#DejaVuSans-2e" transform="translate(63.623047 0)"/>
       <use xlink:href="#DejaVuSans-34" transform="translate(95.410156 0)"/>
       <use xlink:href="#DejaVuSans-30" transform="translate(159.033203 0)"/>
      </g>
     </g>
    </g>
    <g id="ytick_3">
     <g id="line2d_8">
      <g>
       <use xlink:href="#m29ed0446e2" x="50.14375" y="164.270264" style="stroke: #000000; stroke-width: 0.8"/>
      </g>
     </g>
     <g id="text_9">
      <!-- 1.45 -->
      <g transform="translate(20.878125 168.069483) scale(0.1 -0.1)">
       <use xlink:href="#DejaVuSans-31"/>
       <use xlink:href="#DejaVuSans-2e" transform="translate(63.623047 0)"/>
       <use xlink:href="#DejaVuSans-34" transform="translate(95.410156 0)"/>
       <use xlink:href="#DejaVuSans-35" transform="translate(159.033203 0)"/>
      </g>
     </g>
    </g>
    <g id="ytick_4">
     <g id="line2d_9">
      <g>
       <use xlink:href="#m29ed0446e2" x="50.14375" y="99.854073" style="stroke: #000000; stroke-width: 0.8"/>
      </g>
     </g>
     <g id="text_10">
      <!-- 1.50 -->
      <g transform="translate(20.878125 103.653291) scale(0.1 -0.1)">
       <use xlink:href="#DejaVuSans-31"/>
       <use xlink:href="#DejaVuSans-2e" transform="translate(63.623047 0)"/>
       <use xlink:href="#DejaVuSans-35" transform="translate(95.410156 0)"/>
       <use xlink:href="#DejaVuSans-30" transform="translate(159.033203 0)"/>
      </g>
     </g>
    </g>
    <g id="ytick_5">
     <g id="line2d_10">
      <g>
       <use xlink:href="#m29ed0446e2" x="50.14375" y="35.437881" style="stroke: #000000; stroke-width: 0.8"/>
      </g>
     </g>
     <g id="text_11">
      <!-- 1.55 -->
      <g transform="translate(20.878125 39.2371) scale(0.1 -0.1)">
       <use xlink:href="#DejaVuSans-31"/>
       <use xlink:href="#DejaVuSans-2e" transform="translate(63.623047 0)"/>
       <use xlink:href="#DejaVuSans-35" transform="translate(95.410156 0)"/>
       <use xlink:href="#DejaVuSans-35" transform="translate(159.033203 0)"/>
      </g>
     </g>
    </g>
    <g id="text_12">
     <!-- $w_0 m_\Omega$ -->
     <g transform="translate(14.798437 168.23) rotate(-90) scale(0.1 -0.1)">
      <defs>
       <path id="DejaVuSans-Oblique-77" d="M 544 3500 
L 1113 3500 
L 1259 684 
L 2566 3500 
L 3231 3500 
L 3425 684 
L 4666 3500 
L 5241 3500 
L 3641 0 
L 2969 0 
L 2797 2900 
L 1459 0 
L 781 0 
L 544 3500 
z
" transform="scale(0.015625)"/>
       <path id="DejaVuSans-3a9" d="M 4647 556 
L 4647 0 
L 2772 0 
L 2772 556 
Q 3325 859 3634 1378 
Q 3944 1897 3944 2528 
Q 3944 3278 3531 3731 
Q 3119 4184 2444 4184 
Q 1769 4184 1355 3729 
Q 941 3275 941 2528 
Q 941 1897 1250 1378 
Q 1563 859 2119 556 
L 2119 0 
L 244 0 
L 244 556 
L 1241 556 
Q 747 991 519 1456 
Q 294 1922 294 2497 
Q 294 3491 894 4106 
Q 1491 4722 2444 4722 
Q 3391 4722 3994 4106 
Q 4594 3494 4594 2528 
Q 4594 1922 4372 1459 
Q 4150 997 3647 556 
L 4647 556 
z
" transform="scale(0.015625)"/>
      </defs>
      <use xlink:href="#DejaVuSans-Oblique-77"/>
      <use xlink:href="#DejaVuSans-30" transform="translate(81.787109 -16.40625) scale(0.7)"/>
      <use xlink:href="#DejaVuSans-Oblique-6d" transform="translate(129.057617 0)"/>
      <use xlink:href="#DejaVuSans-3a9" transform="translate(226.469727 -16.40625) scale(0.7)"/>
     </g>
    </g>
   </g>
   <g id="line2d_11">
    <path d="M 119.799664 300.96 
L 119.799664 7.2 
" clip-path="url(#p61917087c9)" style="fill: none; stroke-dasharray: 5.55,2.4; stroke-dashoffset: 0; stroke: #1f77b4; stroke-width: 1.5"/>
   </g>
   <g id="line2d_12">
    <path d="M 119.799664 300.96 
L 119.799664 7.2 
" clip-path="url(#p61917087c9)" style="fill: none; stroke-dasharray: 5.55,2.4; stroke-dashoffset: 0; stroke: #1f77b4; stroke-width: 1.5"/>
   </g>
   <g id="line2d_13">
    <path d="M 119.799664 300.96 
L 119.799664 7.2 
" clip-path="url(#p61917087c9)" style="fill: none; stroke-dasharray: 5.55,2.4; stroke-dashoffset: 0; stroke: #1f77b4; stroke-width: 1.5"/>
   </g>
   <g id="line2d_14">
    <path d="M 119.799664 300.96 
L 119.799664 7.2 
" clip-path="url(#p61917087c9)" style="fill: none; stroke-dasharray: 5.55,2.4; stroke-dashoffset: 0; stroke: #1f77b4; stroke-width: 1.5"/>
   </g>
   <g id="line2d_15">
    <path d="M 119.799664 300.96 
L 119.799664 7.2 
" clip-path="url(#p61917087c9)" style="fill: none; stroke-dasharray: 5.55,2.4; stroke-dashoffset: 0; stroke: #1f77b4; stroke-width: 1.5"/>
   </g>
   <g id="line2d_16">
    <path d="M 424.020114 170.338319 
L 421.503206 170.339344 
" clip-path="url(#p61917087c9)" style="fill: none; stroke: #ec5d57; stroke-width: 2; stroke-linecap: square"/>
   </g>
   <g id="line2d_17">
    <path d="M 422.701506 153.82652 
L 422.821814 186.851144 
" clip-path="url(#p61917087c9)" style="fill: none; stroke: #ec5d57; stroke-width: 2; stroke-linecap: square"/>
   </g>
   <g id="line2d_18">
    <path d="M 357.886795 192.258637 
L 355.72472 192.260258 
" clip-path="url(#p61917087c9)" style="fill: none; stroke: #ec5d57; stroke-width: 2; stroke-linecap: square"/>
   </g>
   <g id="line2d_19">
    <path d="M 356.719096 179.342888 
L 356.892419 205.176007 
" clip-path="url(#p61917087c9)" style="fill: none; stroke: #ec5d57; stroke-width: 2; stroke-linecap: square"/>
   </g>
   <g id="line2d_20">
    <path d="M 300.384349 198.707737 
L 298.598698 198.708769 
" clip-path="url(#p61917087c9)" style="fill: none; stroke: #ec5d57; stroke-width: 2; stroke-linecap: square"/>
   </g>
   <g id="line2d_21">
    <path d="M 299.439336 188.620224 
L 299.543711 208.796282 
" clip-path="url(#p61917087c9)" style="fill: none; stroke: #ec5d57; stroke-width: 2; stroke-linecap: square"/>
   </g>
   <g id="line2d_22">
    <path d="M 308.058956 198.980494 
L 306.739452 198.981027 
" clip-path="url(#p61917087c9)" style="fill: none; stroke: #ec5d57; stroke-width: 2; stroke-linecap: square"/>
   </g>
   <g id="line2d_23">
    <path d="M 307.359642 188.026446 
L 307.438767 209.935075 
" clip-path="url(#p61917087c9)" style="fill: none; stroke: #ec5d57; stroke-width: 2; stroke-linecap: square"/>
   </g>
   <g id="line2d_24">
    <path d="M 193.968529 237.265766 
L 193.122792 237.266418 
" clip-path="url(#p61917087c9)" style="fill: none; stroke: #ec5d57; stroke-width: 2; stroke-linecap: square"/>
   </g>
   <g id="line2d_25">
    <path d="M 193.510662 232.197492 
L 193.580659 242.334692 
" clip-path="url(#p61917087c9)" style="fill: none; stroke: #ec5d57; stroke-width: 2; stroke-linecap: square"/>
   </g>
   <g id="line2d_26">
    <path d="M 118.581239 263.038011 
L 118.240402 263.038505 
" clip-path="url(#p61917087c9)" style="fill: none; stroke: #ec5d57; stroke-width: 2; stroke-linecap: square"/>
   </g>
   <g id="line2d_27">
    <path d="M 118.371665 260.025326 
L 118.449975 266.05119 
" clip-path="url(#p61917087c9)" style="fill: none; stroke: #ec5d57; stroke-width: 2; stroke-linecap: square"/>
   </g>
   <g id="line2d_28">
    <path d="M 411.326622 133.818863 
L 408.982455 133.819953 
" clip-path="url(#p61917087c9)" style="fill: none; stroke: #70bf41; stroke-width: 2; stroke-linecap: square"/>
   </g>
   <g id="line2d_29">
    <path d="M 410.086512 117.465946 
L 410.222565 150.17287 
" clip-path="url(#p61917087c9)" style="fill: none; stroke: #70bf41; stroke-width: 2; stroke-linecap: square"/>
   </g>
   <g id="line2d_30">
    <path d="M 350.589981 163.91849 
L 347.758594 163.921585 
" clip-path="url(#p61917087c9)" style="fill: none; stroke: #70bf41; stroke-width: 2; stroke-linecap: square"/>
   </g>
   <g id="line2d_31">
    <path d="M 349.040025 150.19727 
L 349.30855 177.642806 
" clip-path="url(#p61917087c9)" style="fill: none; stroke: #70bf41; stroke-width: 2; stroke-linecap: square"/>
   </g>
   <g id="line2d_32">
    <path d="M 296.006675 175.86455 
L 294.235697 175.865818 
" clip-path="url(#p61917087c9)" style="fill: none; stroke: #70bf41; stroke-width: 2; stroke-linecap: square"/>
   </g>
   <g id="line2d_33">
    <path d="M 295.039735 163.157653 
L 295.202637 188.572715 
" clip-path="url(#p61917087c9)" style="fill: none; stroke: #70bf41; stroke-width: 2; stroke-linecap: square"/>
   </g>
   <g id="line2d_34">
    <path d="M 299.135311 171.631472 
L 297.253128 171.633294 
" clip-path="url(#p61917087c9)" style="fill: none; stroke: #70bf41; stroke-width: 2; stroke-linecap: square"/>
   </g>
   <g id="line2d_35">
    <path d="M 298.089819 159.57996 
L 298.298621 183.684805 
" clip-path="url(#p61917087c9)" style="fill: none; stroke: #70bf41; stroke-width: 2; stroke-linecap: square"/>
   </g>
   <g id="line2d_36">
    <path d="M 199.239174 211.724899 
L 197.981421 211.724567 
" clip-path="url(#p61917087c9)" style="fill: none; stroke: #70bf41; stroke-width: 2; stroke-linecap: square"/>
   </g>
   <g id="line2d_37">
    <path d="M 198.630872 203.019947 
L 198.589723 220.429519 
" clip-path="url(#p61917087c9)" style="fill: none; stroke: #70bf41; stroke-width: 2; stroke-linecap: square"/>
   </g>
   <g id="line2d_38">
    <path d="M 198.70822 203.717996 
L 197.233187 203.720389 
" clip-path="url(#p61917087c9)" style="fill: none; stroke: #70bf41; stroke-width: 2; stroke-linecap: square"/>
   </g>
   <g id="line2d_39">
    <path d="M 197.863609 196.342821 
L 198.077798 211.095564 
" clip-path="url(#p61917087c9)" style="fill: none; stroke: #70bf41; stroke-width: 2; stroke-linecap: square"/>
   </g>
   <g id="line2d_40">
    <path d="M 194.900837 204.418395 
L 193.736321 204.419553 
" clip-path="url(#p61917087c9)" style="fill: none; stroke: #70bf41; stroke-width: 2; stroke-linecap: square"/>
   </g>
   <g id="line2d_41">
    <path d="M 194.251074 196.833641 
L 194.386085 212.004307 
" clip-path="url(#p61917087c9)" style="fill: none; stroke: #70bf41; stroke-width: 2; stroke-linecap: square"/>
   </g>
   <g id="line2d_42">
    <path d="M 195.875189 207.671373 
L 194.716961 207.672036 
" clip-path="url(#p61917087c9)" style="fill: none; stroke: #70bf41; stroke-width: 2; stroke-linecap: square"/>
   </g>
   <g id="line2d_43">
    <path d="M 195.233944 195.539237 
L 195.358207 219.804172 
" clip-path="url(#p61917087c9)" style="fill: none; stroke: #70bf41; stroke-width: 2; stroke-linecap: square"/>
   </g>
   <g id="line2d_44">
    <path d="M 155.669305 214.189272 
L 154.961931 214.190191 
" clip-path="url(#p61917087c9)" style="fill: none; stroke: #70bf41; stroke-width: 2; stroke-linecap: square"/>
   </g>
   <g id="line2d_45">
    <path d="M 155.249351 208.493144 
L 155.381885 219.88632 
" clip-path="url(#p61917087c9)" style="fill: none; stroke: #70bf41; stroke-width: 2; stroke-linecap: square"/>
   </g>
   <g id="line2d_46">
    <path d="M 117.4376 238.33139 
L 116.863257 238.332057 
" clip-path="url(#p61917087c9)" style="fill: none; stroke: #70bf41; stroke-width: 2; stroke-linecap: square"/>
   </g>
   <g id="line2d_47">
    <path d="M 117.101368 233.608521 
L 117.199489 243.054926 
" clip-path="url(#p61917087c9)" style="fill: none; stroke: #70bf41; stroke-width: 2; stroke-linecap: square"/>
   </g>
   <g id="line2d_48">
    <path d="M 411.158521 94.233075 
L 408.702242 94.233489 
" clip-path="url(#p61917087c9)" style="fill: none; stroke: #51a7f9; stroke-width: 2; stroke-linecap: square"/>
   </g>
   <g id="line2d_49">
    <path d="M 409.903875 76.673091 
L 409.956888 111.793473 
" clip-path="url(#p61917087c9)" style="fill: none; stroke: #51a7f9; stroke-width: 2; stroke-linecap: square"/>
   </g>
   <g id="line2d_50">
    <path d="M 348.443722 133.461913 
L 346.016341 133.462977 
" clip-path="url(#p61917087c9)" style="fill: none; stroke: #51a7f9; stroke-width: 2; stroke-linecap: square"/>
   </g>
   <g id="line2d_51">
    <path d="M 347.166956 117.392999 
L 347.293106 149.531892 
" clip-path="url(#p61917087c9)" style="fill: none; stroke: #51a7f9; stroke-width: 2; stroke-linecap: square"/>
   </g>
   <g id="line2d_52">
    <path d="M 301.633582 136.408324 
L 299.91669 136.409112 
" clip-path="url(#p61917087c9)" style="fill: none; stroke: #51a7f9; stroke-width: 2; stroke-linecap: square"/>
   </g>
   <g id="line2d_53">
    <path d="M 300.715951 122.007343 
L 300.834321 150.810092 
" clip-path="url(#p61917087c9)" style="fill: none; stroke: #51a7f9; stroke-width: 2; stroke-linecap: square"/>
   </g>
   <g id="line2d_54">
    <path d="M 195.524876 180.573472 
L 194.484628 180.574133 
" clip-path="url(#p61917087c9)" style="fill: none; stroke: #51a7f9; stroke-width: 2; stroke-linecap: square"/>
   </g>
   <g id="line2d_55">
    <path d="M 194.950717 171.074765 
L 195.058787 190.07284 
" clip-path="url(#p61917087c9)" style="fill: none; stroke: #51a7f9; stroke-width: 2; stroke-linecap: square"/>
   </g>
   <g id="line2d_56">
    <path d="M 119.718417 216.340745 
L 119.148557 216.34133 
" clip-path="url(#p61917087c9)" style="fill: none; stroke: #51a7f9; stroke-width: 2; stroke-linecap: square"/>
   </g>
   <g id="line2d_57">
    <path d="M 119.374371 209.899595 
L 119.492603 222.78248 
" clip-path="url(#p61917087c9)" style="fill: none; stroke: #51a7f9; stroke-width: 2; stroke-linecap: square"/>
   </g>
   <g id="line2d_58">
    <path d="M 305.581063 97.123245 
L 302.904344 97.12573 
" clip-path="url(#p61917087c9)" style="fill: none; stroke: #6a5acd; stroke-width: 2; stroke-linecap: square"/>
   </g>
   <g id="line2d_59">
    <path d="M 304.126775 83.174091 
L 304.358632 111.074884 
" clip-path="url(#p61917087c9)" style="fill: none; stroke: #6a5acd; stroke-width: 2; stroke-linecap: square"/>
   </g>
   <g id="LineCollection_1"/>
   <g id="LineCollection_2"/>
   <g id="LineCollection_3"/>
   <g id="LineCollection_4"/>
   <g id="LineCollection_5"/>
   <g id="LineCollection_6"/>
   <g id="LineCollection_7"/>
   <g id="LineCollection_8"/>
   <g id="line2d_60"/>
   <g id="line2d_61"/>
   <g id="line2d_62"/>
   <g id="line2d_63"/>
   <g id="patch_3">
    <path d="M 50.14375 300.96 
L 50.14375 7.2 
" style="fill: none; stroke: #000000; stroke-width: 0.8; stroke-linejoin: miter; stroke-linecap: square"/>
   </g>
   <g id="patch_4">
    <path d="M 441.82375 300.96 
L 441.82375 7.2 
" style="fill: none; stroke: #000000; stroke-width: 0.8; stroke-linejoin: miter; stroke-linecap: square"/>
   </g>
   <g id="patch_5">
    <path d="M 50.14375 300.96 
L 441.82375 300.96 
" style="fill: none; stroke: #000000; stroke-width: 0.8; stroke-linejoin: miter; stroke-linecap: square"/>
   </g>
   <g id="patch_6">
    <path d="M 50.14375 7.2 
L 441.82375 7.2 
" style="fill: none; stroke: #000000; stroke-width: 0.8; stroke-linejoin: miter; stroke-linecap: square"/>
   </g>
   <g id="line2d_64">
    <path d="M 422.76166 170.338832 
" clip-path="url(#p61917087c9)" style="fill: none; stroke: #ec5d57; stroke-width: 1.5; stroke-linecap: square"/>
    <defs>
     <path id="me01b40743c" d="M 0 3 
C 0.795609 3 1.55874 2.683901 2.12132 2.12132 
C 2.683901 1.55874 3 0.795609 3 0 
C 3 -0.795609 2.683901 -1.55874 2.12132 -2.12132 
C 1.55874 -2.683901 0.795609 -3 0 -3 
C -0.795609 -3 -1.55874 -2.683901 -2.12132 -2.12132 
C -2.683901 -1.55874 -3 -0.795609 -3 0 
C -3 0.795609 -2.683901 1.55874 -2.12132 2.12132 
C -1.55874 2.683901 -0.795609 3 0 3 
z
" style="stroke: #ffffff"/>
    </defs>
    <g clip-path="url(#p61917087c9)">
     <use xlink:href="#me01b40743c" x="422.76166" y="170.338832" style="fill: #ec5d57; stroke: #ffffff"/>
    </g>
   </g>
   <g id="line2d_65">
    <path d="M 422.76166 170.338832 
" clip-path="url(#p61917087c9)" style="fill: none; stroke: #ec5d57; stroke-width: 1.5; stroke-linecap: square"/>
    <g clip-path="url(#p61917087c9)">
     <use xlink:href="#me01b40743c" x="422.76166" y="170.338832" style="fill: #ec5d57; stroke: #ffffff"/>
    </g>
   </g>
   <g id="line2d_66">
    <path d="M 356.805757 192.259447 
" clip-path="url(#p61917087c9)" style="fill: none; stroke: #ec5d57; stroke-width: 1.5; stroke-linecap: square"/>
    <g clip-path="url(#p61917087c9)">
     <use xlink:href="#me01b40743c" x="356.805757" y="192.259447" style="fill: #ec5d57; stroke: #ffffff"/>
    </g>
   </g>
   <g id="line2d_67">
    <path d="M 356.805757 192.259447 
" clip-path="url(#p61917087c9)" style="fill: none; stroke: #ec5d57; stroke-width: 1.5; stroke-linecap: square"/>
    <g clip-path="url(#p61917087c9)">
     <use xlink:href="#me01b40743c" x="356.805757" y="192.259447" style="fill: #ec5d57; stroke: #ffffff"/>
    </g>
   </g>
   <g id="line2d_68">
    <path d="M 299.491523 198.708253 
" clip-path="url(#p61917087c9)" style="fill: none; stroke: #ec5d57; stroke-width: 1.5; stroke-linecap: square"/>
    <g clip-path="url(#p61917087c9)">
     <use xlink:href="#me01b40743c" x="299.491523" y="198.708253" style="fill: #ec5d57; stroke: #ffffff"/>
    </g>
   </g>
   <g id="line2d_69">
    <path d="M 299.491523 198.708253 
" clip-path="url(#p61917087c9)" style="fill: none; stroke: #ec5d57; stroke-width: 1.5; stroke-linecap: square"/>
    <g clip-path="url(#p61917087c9)">
     <use xlink:href="#me01b40743c" x="299.491523" y="198.708253" style="fill: #ec5d57; stroke: #ffffff"/>
    </g>
   </g>
   <g id="line2d_70">
    <path d="M 307.399204 198.980761 
" clip-path="url(#p61917087c9)" style="fill: none; stroke: #ec5d57; stroke-width: 1.5; stroke-linecap: square"/>
    <g clip-path="url(#p61917087c9)">
     <use xlink:href="#me01b40743c" x="307.399204" y="198.980761" style="fill: #ec5d57; stroke: #ffffff"/>
    </g>
   </g>
   <g id="line2d_71">
    <path d="M 307.399204 198.980761 
" clip-path="url(#p61917087c9)" style="fill: none; stroke: #ec5d57; stroke-width: 1.5; stroke-linecap: square"/>
    <g clip-path="url(#p61917087c9)">
     <use xlink:href="#me01b40743c" x="307.399204" y="198.980761" style="fill: #ec5d57; stroke: #ffffff"/>
    </g>
   </g>
   <g id="line2d_72">
    <path d="M 193.545661 237.266092 
" clip-path="url(#p61917087c9)" style="fill: none; stroke: #ec5d57; stroke-width: 1.5; stroke-linecap: square"/>
    <g clip-path="url(#p61917087c9)">
     <use xlink:href="#me01b40743c" x="193.545661" y="237.266092" style="fill: #ec5d57; stroke: #ffffff"/>
    </g>
   </g>
   <g id="line2d_73">
    <path d="M 193.545661 237.266092 
" clip-path="url(#p61917087c9)" style="fill: none; stroke: #ec5d57; stroke-width: 1.5; stroke-linecap: square"/>
    <g clip-path="url(#p61917087c9)">
     <use xlink:href="#me01b40743c" x="193.545661" y="237.266092" style="fill: #ec5d57; stroke: #ffffff"/>
    </g>
   </g>
   <g id="line2d_74">
    <path d="M 118.41082 263.038258 
" clip-path="url(#p61917087c9)" style="fill: none; stroke: #ec5d57; stroke-width: 1.5; stroke-linecap: square"/>
    <g clip-path="url(#p61917087c9)">
     <use xlink:href="#me01b40743c" x="118.41082" y="263.038258" style="fill: #ec5d57; stroke: #ffffff"/>
    </g>
   </g>
   <g id="line2d_75">
    <path d="M 118.41082 263.038258 
" clip-path="url(#p61917087c9)" style="fill: none; stroke: #ec5d57; stroke-width: 1.5; stroke-linecap: square"/>
    <g clip-path="url(#p61917087c9)">
     <use xlink:href="#me01b40743c" x="118.41082" y="263.038258" style="fill: #ec5d57; stroke: #ffffff"/>
    </g>
   </g>
   <g id="line2d_76">
    <path d="M 410.154538 133.819408 
" clip-path="url(#p61917087c9)" style="fill: none; stroke: #70bf41; stroke-width: 1.5; stroke-linecap: square"/>
    <defs>
     <path id="m005bb90617" d="M 0 3 
C 0.795609 3 1.55874 2.683901 2.12132 2.12132 
C 2.683901 1.55874 3 0.795609 3 0 
C 3 -0.795609 2.683901 -1.55874 2.12132 -2.12132 
C 1.55874 -2.683901 0.795609 -3 0 -3 
C -0.795609 -3 -1.55874 -2.683901 -2.12132 -2.12132 
C -2.683901 -1.55874 -3 -0.795609 -3 0 
C -3 0.795609 -2.683901 1.55874 -2.12132 2.12132 
C -1.55874 2.683901 -0.795609 3 0 3 
z
" style="stroke: #ffffff"/>
    </defs>
    <g clip-path="url(#p61917087c9)">
     <use xlink:href="#m005bb90617" x="410.154538" y="133.819408" style="fill: #70bf41; stroke: #ffffff"/>
    </g>
   </g>
   <g id="line2d_77">
    <path d="M 410.154538 133.819408 
" clip-path="url(#p61917087c9)" style="fill: none; stroke: #70bf41; stroke-width: 1.5; stroke-linecap: square"/>
    <g clip-path="url(#p61917087c9)">
     <use xlink:href="#m005bb90617" x="410.154538" y="133.819408" style="fill: #70bf41; stroke: #ffffff"/>
    </g>
   </g>
   <g id="line2d_78">
    <path d="M 349.174287 163.920038 
" clip-path="url(#p61917087c9)" style="fill: none; stroke: #70bf41; stroke-width: 1.5; stroke-linecap: square"/>
    <g clip-path="url(#p61917087c9)">
     <use xlink:href="#m005bb90617" x="349.174287" y="163.920038" style="fill: #70bf41; stroke: #ffffff"/>
    </g>
   </g>
   <g id="line2d_79">
    <path d="M 349.174287 163.920038 
" clip-path="url(#p61917087c9)" style="fill: none; stroke: #70bf41; stroke-width: 1.5; stroke-linecap: square"/>
    <g clip-path="url(#p61917087c9)">
     <use xlink:href="#m005bb90617" x="349.174287" y="163.920038" style="fill: #70bf41; stroke: #ffffff"/>
    </g>
   </g>
   <g id="line2d_80">
    <path d="M 295.121186 175.865184 
" clip-path="url(#p61917087c9)" style="fill: none; stroke: #70bf41; stroke-width: 1.5; stroke-linecap: square"/>
    <g clip-path="url(#p61917087c9)">
     <use xlink:href="#m005bb90617" x="295.121186" y="175.865184" style="fill: #70bf41; stroke: #ffffff"/>
    </g>
   </g>
   <g id="line2d_81">
    <path d="M 295.121186 175.865184 
" clip-path="url(#p61917087c9)" style="fill: none; stroke: #70bf41; stroke-width: 1.5; stroke-linecap: square"/>
    <g clip-path="url(#p61917087c9)">
     <use xlink:href="#m005bb90617" x="295.121186" y="175.865184" style="fill: #70bf41; stroke: #ffffff"/>
    </g>
   </g>
   <g id="line2d_82">
    <path d="M 298.19422 171.632383 
" clip-path="url(#p61917087c9)" style="fill: none; stroke: #70bf41; stroke-width: 1.5; stroke-linecap: square"/>
    <g clip-path="url(#p61917087c9)">
     <use xlink:href="#m005bb90617" x="298.19422" y="171.632383" style="fill: #70bf41; stroke: #ffffff"/>
    </g>
   </g>
   <g id="line2d_83">
    <path d="M 298.19422 171.632383 
" clip-path="url(#p61917087c9)" style="fill: none; stroke: #70bf41; stroke-width: 1.5; stroke-linecap: square"/>
    <g clip-path="url(#p61917087c9)">
     <use xlink:href="#m005bb90617" x="298.19422" y="171.632383" style="fill: #70bf41; stroke: #ffffff"/>
    </g>
   </g>
   <g id="line2d_84">
    <path d="M 198.610298 211.724733 
" clip-path="url(#p61917087c9)" style="fill: none; stroke: #70bf41; stroke-width: 1.5; stroke-linecap: square"/>
    <g clip-path="url(#p61917087c9)">
     <use xlink:href="#m005bb90617" x="198.610298" y="211.724733" style="fill: #70bf41; stroke: #ffffff"/>
    </g>
   </g>
   <g id="line2d_85">
    <path d="M 198.610298 211.724733 
" clip-path="url(#p61917087c9)" style="fill: none; stroke: #70bf41; stroke-width: 1.5; stroke-linecap: square"/>
    <g clip-path="url(#p61917087c9)">
     <use xlink:href="#m005bb90617" x="198.610298" y="211.724733" style="fill: #70bf41; stroke: #ffffff"/>
    </g>
   </g>
   <g id="line2d_86">
    <path d="M 197.970703 203.719193 
" clip-path="url(#p61917087c9)" style="fill: none; stroke: #70bf41; stroke-width: 1.5; stroke-linecap: square"/>
    <g clip-path="url(#p61917087c9)">
     <use xlink:href="#m005bb90617" x="197.970703" y="203.719193" style="fill: #70bf41; stroke: #ffffff"/>
    </g>
   </g>
   <g id="line2d_87">
    <path d="M 197.970703 203.719193 
" clip-path="url(#p61917087c9)" style="fill: none; stroke: #70bf41; stroke-width: 1.5; stroke-linecap: square"/>
    <g clip-path="url(#p61917087c9)">
     <use xlink:href="#m005bb90617" x="197.970703" y="203.719193" style="fill: #70bf41; stroke: #ffffff"/>
    </g>
   </g>
   <g id="line2d_88">
    <path d="M 194.318579 204.418974 
" clip-path="url(#p61917087c9)" style="fill: none; stroke: #70bf41; stroke-width: 1.5; stroke-linecap: square"/>
    <g clip-path="url(#p61917087c9)">
     <use xlink:href="#m005bb90617" x="194.318579" y="204.418974" style="fill: #70bf41; stroke: #ffffff"/>
    </g>
   </g>
   <g id="line2d_89">
    <path d="M 194.318579 204.418974 
" clip-path="url(#p61917087c9)" style="fill: none; stroke: #70bf41; stroke-width: 1.5; stroke-linecap: square"/>
    <g clip-path="url(#p61917087c9)">
     <use xlink:href="#m005bb90617" x="194.318579" y="204.418974" style="fill: #70bf41; stroke: #ffffff"/>
    </g>
   </g>
   <g id="line2d_90">
    <path d="M 195.296075 207.671705 
" clip-path="url(#p61917087c9)" style="fill: none; stroke: #70bf41; stroke-width: 1.5; stroke-linecap: square"/>
    <g clip-path="url(#p61917087c9)">
     <use xlink:href="#m005bb90617" x="195.296075" y="207.671705" style="fill: #70bf41; stroke: #ffffff"/>
    </g>
   </g>
   <g id="line2d_91">
    <path d="M 195.296075 207.671705 
" clip-path="url(#p61917087c9)" style="fill: none; stroke: #70bf41; stroke-width: 1.5; stroke-linecap: square"/>
    <g clip-path="url(#p61917087c9)">
     <use xlink:href="#m005bb90617" x="195.296075" y="207.671705" style="fill: #70bf41; stroke: #ffffff"/>
    </g>
   </g>
   <g id="line2d_92">
    <path d="M 155.315618 214.189732 
" clip-path="url(#p61917087c9)" style="fill: none; stroke: #70bf41; stroke-width: 1.5; stroke-linecap: square"/>
    <g clip-path="url(#p61917087c9)">
     <use xlink:href="#m005bb90617" x="155.315618" y="214.189732" style="fill: #70bf41; stroke: #ffffff"/>
    </g>
   </g>
   <g id="line2d_93">
    <path d="M 155.315618 214.189732 
" clip-path="url(#p61917087c9)" style="fill: none; stroke: #70bf41; stroke-width: 1.5; stroke-linecap: square"/>
    <g clip-path="url(#p61917087c9)">
     <use xlink:href="#m005bb90617" x="155.315618" y="214.189732" style="fill: #70bf41; stroke: #ffffff"/>
    </g>
   </g>
   <g id="line2d_94">
    <path d="M 117.150428 238.331723 
" clip-path="url(#p61917087c9)" style="fill: none; stroke: #70bf41; stroke-width: 1.5; stroke-linecap: square"/>
    <g clip-path="url(#p61917087c9)">
     <use xlink:href="#m005bb90617" x="117.150428" y="238.331723" style="fill: #70bf41; stroke: #ffffff"/>
    </g>
   </g>
   <g id="line2d_95">
    <path d="M 117.150428 238.331723 
" clip-path="url(#p61917087c9)" style="fill: none; stroke: #70bf41; stroke-width: 1.5; stroke-linecap: square"/>
    <g clip-path="url(#p61917087c9)">
     <use xlink:href="#m005bb90617" x="117.150428" y="238.331723" style="fill: #70bf41; stroke: #ffffff"/>
    </g>
   </g>
   <g id="line2d_96">
    <path d="M 409.930382 94.233282 
" clip-path="url(#p61917087c9)" style="fill: none; stroke: #51a7f9; stroke-width: 1.5; stroke-linecap: square"/>
    <defs>
     <path id="me1045a8351" d="M 0 3 
C 0.795609 3 1.55874 2.683901 2.12132 2.12132 
C 2.683901 1.55874 3 0.795609 3 0 
C 3 -0.795609 2.683901 -1.55874 2.12132 -2.12132 
C 1.55874 -2.683901 0.795609 -3 0 -3 
C -0.795609 -3 -1.55874 -2.683901 -2.12132 -2.12132 
C -2.683901 -1.55874 -3 -0.795609 -3 0 
C -3 0.795609 -2.683901 1.55874 -2.12132 2.12132 
C -1.55874 2.683901 -0.795609 3 0 3 
z
" style="stroke: #ffffff"/>
    </defs>
    <g clip-path="url(#p61917087c9)">
     <use xlink:href="#me1045a8351" x="409.930382" y="94.233282" style="fill: #51a7f9; stroke: #ffffff"/>
    </g>
   </g>
   <g id="line2d_97">
    <path d="M 409.930382 94.233282 
" clip-path="url(#p61917087c9)" style="fill: none; stroke: #51a7f9; stroke-width: 1.5; stroke-linecap: square"/>
    <g clip-path="url(#p61917087c9)">
     <use xlink:href="#me1045a8351" x="409.930382" y="94.233282" style="fill: #51a7f9; stroke: #ffffff"/>
    </g>
   </g>
   <g id="line2d_98">
    <path d="M 347.230031 133.462445 
" clip-path="url(#p61917087c9)" style="fill: none; stroke: #51a7f9; stroke-width: 1.5; stroke-linecap: square"/>
    <g clip-path="url(#p61917087c9)">
     <use xlink:href="#me1045a8351" x="347.230031" y="133.462445" style="fill: #51a7f9; stroke: #ffffff"/>
    </g>
   </g>
   <g id="line2d_99">
    <path d="M 347.230031 133.462445 
" clip-path="url(#p61917087c9)" style="fill: none; stroke: #51a7f9; stroke-width: 1.5; stroke-linecap: square"/>
    <g clip-path="url(#p61917087c9)">
     <use xlink:href="#me1045a8351" x="347.230031" y="133.462445" style="fill: #51a7f9; stroke: #ffffff"/>
    </g>
   </g>
   <g id="line2d_100">
    <path d="M 300.775136 136.408718 
" clip-path="url(#p61917087c9)" style="fill: none; stroke: #51a7f9; stroke-width: 1.5; stroke-linecap: square"/>
    <g clip-path="url(#p61917087c9)">
     <use xlink:href="#me1045a8351" x="300.775136" y="136.408718" style="fill: #51a7f9; stroke: #ffffff"/>
    </g>
   </g>
   <g id="line2d_101">
    <path d="M 300.775136 136.408718 
" clip-path="url(#p61917087c9)" style="fill: none; stroke: #51a7f9; stroke-width: 1.5; stroke-linecap: square"/>
    <g clip-path="url(#p61917087c9)">
     <use xlink:href="#me1045a8351" x="300.775136" y="136.408718" style="fill: #51a7f9; stroke: #ffffff"/>
    </g>
   </g>
   <g id="line2d_102">
    <path d="M 195.004752 180.573802 
" clip-path="url(#p61917087c9)" style="fill: none; stroke: #51a7f9; stroke-width: 1.5; stroke-linecap: square"/>
    <g clip-path="url(#p61917087c9)">
     <use xlink:href="#me1045a8351" x="195.004752" y="180.573802" style="fill: #51a7f9; stroke: #ffffff"/>
    </g>
   </g>
   <g id="line2d_103">
    <path d="M 195.004752 180.573802 
" clip-path="url(#p61917087c9)" style="fill: none; stroke: #51a7f9; stroke-width: 1.5; stroke-linecap: square"/>
    <g clip-path="url(#p61917087c9)">
     <use xlink:href="#me1045a8351" x="195.004752" y="180.573802" style="fill: #51a7f9; stroke: #ffffff"/>
    </g>
   </g>
   <g id="line2d_104">
    <path d="M 119.433487 216.341037 
" clip-path="url(#p61917087c9)" style="fill: none; stroke: #51a7f9; stroke-width: 1.5; stroke-linecap: square"/>
    <g clip-path="url(#p61917087c9)">
     <use xlink:href="#me1045a8351" x="119.433487" y="216.341037" style="fill: #51a7f9; stroke: #ffffff"/>
    </g>
   </g>
   <g id="line2d_105">
    <path d="M 119.433487 216.341037 
" clip-path="url(#p61917087c9)" style="fill: none; stroke: #51a7f9; stroke-width: 1.5; stroke-linecap: square"/>
    <g clip-path="url(#p61917087c9)">
     <use xlink:href="#me1045a8351" x="119.433487" y="216.341037" style="fill: #51a7f9; stroke: #ffffff"/>
    </g>
   </g>
   <g id="line2d_106">
    <path d="M 304.242704 97.124488 
" clip-path="url(#p61917087c9)" style="fill: none; stroke: #6a5acd; stroke-width: 1.5; stroke-linecap: square"/>
    <defs>
     <path id="mf81339363f" d="M 0 3 
C 0.795609 3 1.55874 2.683901 2.12132 2.12132 
C 2.683901 1.55874 3 0.795609 3 0 
C 3 -0.795609 2.683901 -1.55874 2.12132 -2.12132 
C 1.55874 -2.683901 0.795609 -3 0 -3 
C -0.795609 -3 -1.55874 -2.683901 -2.12132 -2.12132 
C -2.683901 -1.55874 -3 -0.795609 -3 0 
C -3 0.795609 -2.683901 1.55874 -2.12132 2.12132 
C -1.55874 2.683901 -0.795609 3 0 3 
z
" style="stroke: #ffffff"/>
    </defs>
    <g clip-path="url(#p61917087c9)">
     <use xlink:href="#mf81339363f" x="304.242704" y="97.124488" style="fill: #6a5acd; stroke: #ffffff"/>
    </g>
   </g>
   <g id="line2d_107">
    <path d="M 304.242704 97.124488 
" clip-path="url(#p61917087c9)" style="fill: none; stroke: #6a5acd; stroke-width: 1.5; stroke-linecap: square"/>
    <g clip-path="url(#p61917087c9)">
     <use xlink:href="#mf81339363f" x="304.242704" y="97.124488" style="fill: #6a5acd; stroke: #ffffff"/>
    </g>
   </g>
   <g id="legend_1">
    <g id="patch_7">
     <path d="M 238.82375 295.96 
L 434.82375 295.96 
Q 436.82375 295.96 436.82375 293.96 
L 436.82375 258.56 
Q 436.82375 256.56 434.82375 256.56 
L 238.82375 256.56 
Q 236.82375 256.56 236.82375 258.56 
L 236.82375 293.96 
Q 236.82375 295.96 238.82375 295.96 
z
" style="fill: #ffffff; opacity: 0.8; stroke: #cccccc; stroke-linejoin: miter"/>
    </g>
    <g id="LineCollection_9">
     <path d="M 245.82375 267.46 
L 255.82375 267.46 
" style="fill: none; stroke: #6a5acd; stroke-width: 3"/>
    </g>
    <g id="LineCollection_10">
     <path d="M 250.82375 272.46 
L 250.82375 262.46 
" style="fill: none; stroke: #6a5acd; stroke-width: 3"/>
    </g>
    <g id="line2d_108">
     <path d="M 240.82375 267.46 
L 260.82375 267.46 
" style="fill: none; stroke: #6a5acd; stroke-width: 1.5; stroke-linecap: square"/>
    </g>
    <g id="line2d_109">
     <defs>
      <path id="mc901818089" d="M 0 4 
C 1.060812 4 2.078319 3.578535 2.828427 2.828427 
C 3.578535 2.078319 4 1.060812 4 0 
C 4 -1.060812 3.578535 -2.078319 2.828427 -2.828427 
C 2.078319 -3.578535 1.060812 -4 0 -4 
C -1.060812 -4 -2.078319 -3.578535 -2.828427 -2.828427 
C -3.578535 -2.078319 -4 -1.060812 -4 0 
C -4 1.060812 -3.578535 2.078319 -2.828427 2.828427 
C -2.078319 3.578535 -1.060812 4 0 4 
z
" style="stroke: #ffffff; stroke-width: 2"/>
     </defs>
     <g>
      <use xlink:href="#mc901818089" x="250.82375" y="267.46" style="fill: #6a5acd; stroke: #ffffff; stroke-width: 2"/>
     </g>
    </g>
    <g id="text_13">
     <!-- $a_{06}(l_F,s_F^{\rm phys})$ -->
     <g transform="translate(268.82375 270.96) scale(0.1 -0.1)">
      <defs>
       <path id="DejaVuSans-Oblique-61" d="M 3438 1997 
L 3047 0 
L 2472 0 
L 2578 531 
Q 2325 219 2001 64 
Q 1678 -91 1281 -91 
Q 834 -91 548 182 
Q 263 456 263 884 
Q 263 1497 752 1853 
Q 1241 2209 2100 2209 
L 2900 2209 
L 2931 2363 
Q 2938 2388 2941 2417 
Q 2944 2447 2944 2509 
Q 2944 2788 2717 2942 
Q 2491 3097 2081 3097 
Q 1800 3097 1504 3025 
Q 1209 2953 897 2809 
L 997 3341 
Q 1322 3463 1633 3523 
Q 1944 3584 2234 3584 
Q 2853 3584 3176 3315 
Q 3500 3047 3500 2534 
Q 3500 2431 3484 2292 
Q 3469 2153 3438 1997 
z
M 2816 1759 
L 2241 1759 
Q 1534 1759 1195 1570 
Q 856 1381 856 984 
Q 856 709 1029 553 
Q 1203 397 1509 397 
Q 1978 397 2328 733 
Q 2678 1069 2791 1631 
L 2816 1759 
z
" transform="scale(0.015625)"/>
       <path id="DejaVuSans-2c" d="M 750 794 
L 1409 794 
L 1409 256 
L 897 -744 
L 494 -744 
L 750 256 
L 750 794 
z
" transform="scale(0.015625)"/>
       <path id="DejaVuSans-Oblique-73" d="M 3200 3397 
L 3091 2853 
Q 2863 2978 2609 3040 
Q 2356 3103 2088 3103 
Q 1634 3103 1373 2948 
Q 1113 2794 1113 2528 
Q 1113 2219 1719 2053 
Q 1766 2041 1788 2034 
L 1972 1978 
Q 2547 1819 2739 1644 
Q 2931 1469 2931 1166 
Q 2931 609 2489 259 
Q 2047 -91 1331 -91 
Q 1053 -91 747 -37 
Q 441 16 72 128 
L 184 722 
Q 500 559 806 475 
Q 1113 391 1394 391 
Q 1816 391 2080 572 
Q 2344 753 2344 1031 
Q 2344 1331 1650 1516 
L 1591 1531 
L 1394 1581 
Q 956 1697 753 1886 
Q 550 2075 550 2369 
Q 550 2928 970 3256 
Q 1391 3584 2113 3584 
Q 2397 3584 2667 3537 
Q 2938 3491 3200 3397 
z
" transform="scale(0.015625)"/>
       <path id="DejaVuSans-70" d="M 1159 525 
L 1159 -1331 
L 581 -1331 
L 581 3500 
L 1159 3500 
L 1159 2969 
Q 1341 3281 1617 3432 
Q 1894 3584 2278 3584 
Q 2916 3584 3314 3078 
Q 3713 2572 3713 1747 
Q 3713 922 3314 415 
Q 2916 -91 2278 -91 
Q 1894 -91 1617 61 
Q 1341 213 1159 525 
z
M 3116 1747 
Q 3116 2381 2855 2742 
Q 2594 3103 2138 3103 
Q 1681 3103 1420 2742 
Q 1159 2381 1159 1747 
Q 1159 1113 1420 752 
Q 1681 391 2138 391 
Q 2594 391 2855 752 
Q 3116 1113 3116 1747 
z
" transform="scale(0.015625)"/>
       <path id="DejaVuSans-68" d="M 3513 2113 
L 3513 0 
L 2938 0 
L 2938 2094 
Q 2938 2591 2744 2837 
Q 2550 3084 2163 3084 
Q 1697 3084 1428 2787 
Q 1159 2491 1159 1978 
L 1159 0 
L 581 0 
L 581 4863 
L 1159 4863 
L 1159 2956 
Q 1366 3272 1645 3428 
Q 1925 3584 2291 3584 
Q 2894 3584 3203 3211 
Q 3513 2838 3513 2113 
z
" transform="scale(0.015625)"/>
       <path id="DejaVuSans-79" d="M 2059 -325 
Q 1816 -950 1584 -1140 
Q 1353 -1331 966 -1331 
L 506 -1331 
L 506 -850 
L 844 -850 
Q 1081 -850 1212 -737 
Q 1344 -625 1503 -206 
L 1606 56 
L 191 3500 
L 800 3500 
L 1894 763 
L 2988 3500 
L 3597 3500 
L 2059 -325 
z
" transform="scale(0.015625)"/>
       <path id="DejaVuSans-73" d="M 2834 3397 
L 2834 2853 
Q 2591 2978 2328 3040 
Q 2066 3103 1784 3103 
Q 1356 3103 1142 2972 
Q 928 2841 928 2578 
Q 928 2378 1081 2264 
Q 1234 2150 1697 2047 
L 1894 2003 
Q 2506 1872 2764 1633 
Q 3022 1394 3022 966 
Q 3022 478 2636 193 
Q 2250 -91 1575 -91 
Q 1294 -91 989 -36 
Q 684 19 347 128 
L 347 722 
Q 666 556 975 473 
Q 1284 391 1588 391 
Q 1994 391 2212 530 
Q 2431 669 2431 922 
Q 2431 1156 2273 1281 
Q 2116 1406 1581 1522 
L 1381 1569 
Q 847 1681 609 1914 
Q 372 2147 372 2553 
Q 372 3047 722 3315 
Q 1072 3584 1716 3584 
Q 2034 3584 2315 3537 
Q 2597 3491 2834 3397 
z
" transform="scale(0.015625)"/>
      </defs>
      <use xlink:href="#DejaVuSans-Oblique-61" transform="translate(0 0.0625)"/>
      <use xlink:href="#DejaVuSans-30" transform="translate(61.279297 -16.34375) scale(0.7)"/>
      <use xlink:href="#DejaVuSans-36" transform="translate(105.81543 -16.34375) scale(0.7)"/>
      <use xlink:href="#DejaVuSans-28" transform="translate(153.085938 0.0625)"/>
      <use xlink:href="#DejaVuSans-Oblique-6c" transform="translate(192.099609 0.0625)"/>
      <use xlink:href="#DejaVuSans-Oblique-46" transform="translate(219.882812 -16.34375) scale(0.7)"/>
      <use xlink:href="#DejaVuSans-2c" transform="translate(262.880859 0.0625)"/>
      <use xlink:href="#DejaVuSans-Oblique-73" transform="translate(314.150391 0.0625)"/>
      <use xlink:href="#DejaVuSans-70" transform="translate(370.899896 50.810938) scale(0.7)"/>
      <use xlink:href="#DejaVuSans-68" transform="translate(415.33349 50.810938) scale(0.7)"/>
      <use xlink:href="#DejaVuSans-79" transform="translate(459.698724 50.810938) scale(0.7)"/>
      <use xlink:href="#DejaVuSans-73" transform="translate(501.124505 50.810938) scale(0.7)"/>
      <use xlink:href="#DejaVuSans-Oblique-46" transform="translate(366.25 -27.28125) scale(0.7)"/>
      <use xlink:href="#DejaVuSans-29" transform="translate(540.328607 0.0625)"/>
     </g>
    </g>
    <g id="LineCollection_11">
     <path d="M 245.82375 285.66 
L 255.82375 285.66 
" style="fill: none; stroke: #51a7f9; stroke-width: 3"/>
    </g>
    <g id="LineCollection_12">
     <path d="M 250.82375 290.66 
L 250.82375 280.66 
" style="fill: none; stroke: #51a7f9; stroke-width: 3"/>
    </g>
    <g id="line2d_110">
     <path d="M 240.82375 285.66 
L 260.82375 285.66 
" style="fill: none; stroke: #51a7f9; stroke-width: 1.5; stroke-linecap: square"/>
    </g>
    <g id="line2d_111">
     <defs>
      <path id="md257e18946" d="M 0 4 
C 1.060812 4 2.078319 3.578535 2.828427 2.828427 
C 3.578535 2.078319 4 1.060812 4 0 
C 4 -1.060812 3.578535 -2.078319 2.828427 -2.828427 
C 2.078319 -3.578535 1.060812 -4 0 -4 
C -1.060812 -4 -2.078319 -3.578535 -2.828427 -2.828427 
C -3.578535 -2.078319 -4 -1.060812 -4 0 
C -4 1.060812 -3.578535 2.078319 -2.828427 2.828427 
C -2.078319 3.578535 -1.060812 4 0 4 
z
" style="stroke: #ffffff; stroke-width: 2"/>
     </defs>
     <g>
      <use xlink:href="#md257e18946" x="250.82375" y="285.66" style="fill: #51a7f9; stroke: #ffffff; stroke-width: 2"/>
     </g>
    </g>
    <g id="text_14">
     <!-- $a_{09}(l_F,s_F^{\rm phys})$ -->
     <g transform="translate(268.82375 289.16) scale(0.1 -0.1)">
      <defs>
       <path id="DejaVuSans-39" d="M 703 97 
L 703 672 
Q 941 559 1184 500 
Q 1428 441 1663 441 
Q 2288 441 2617 861 
Q 2947 1281 2994 2138 
Q 2813 1869 2534 1725 
Q 2256 1581 1919 1581 
Q 1219 1581 811 2004 
Q 403 2428 403 3163 
Q 403 3881 828 4315 
Q 1253 4750 1959 4750 
Q 2769 4750 3195 4129 
Q 3622 3509 3622 2328 
Q 3622 1225 3098 567 
Q 2575 -91 1691 -91 
Q 1453 -91 1209 -44 
Q 966 3 703 97 
z
M 1959 2075 
Q 2384 2075 2632 2365 
Q 2881 2656 2881 3163 
Q 2881 3666 2632 3958 
Q 2384 4250 1959 4250 
Q 1534 4250 1286 3958 
Q 1038 3666 1038 3163 
Q 1038 2656 1286 2365 
Q 1534 2075 1959 2075 
z
" transform="scale(0.015625)"/>
      </defs>
      <use xlink:href="#DejaVuSans-Oblique-61" transform="translate(0 0.0625)"/>
      <use xlink:href="#DejaVuSans-30" transform="translate(61.279297 -16.34375) scale(0.7)"/>
      <use xlink:href="#DejaVuSans-39" transform="translate(105.81543 -16.34375) scale(0.7)"/>
      <use xlink:href="#DejaVuSans-28" transform="translate(153.085938 0.0625)"/>
      <use xlink:href="#DejaVuSans-Oblique-6c" transform="translate(192.099609 0.0625)"/>
      <use xlink:href="#DejaVuSans-Oblique-46" transform="translate(219.882812 -16.34375) scale(0.7)"/>
      <use xlink:href="#DejaVuSans-2c" transform="translate(262.880859 0.0625)"/>
      <use xlink:href="#DejaVuSans-Oblique-73" transform="translate(314.150391 0.0625)"/>
      <use xlink:href="#DejaVuSans-70" transform="translate(370.899896 50.810938) scale(0.7)"/>
      <use xlink:href="#DejaVuSans-68" transform="translate(415.33349 50.810938) scale(0.7)"/>
      <use xlink:href="#DejaVuSans-79" transform="translate(459.698724 50.810938) scale(0.7)"/>
      <use xlink:href="#DejaVuSans-73" transform="translate(501.124505 50.810938) scale(0.7)"/>
      <use xlink:href="#DejaVuSans-Oblique-46" transform="translate(366.25 -27.28125) scale(0.7)"/>
      <use xlink:href="#DejaVuSans-29" transform="translate(540.328607 0.0625)"/>
     </g>
    </g>
    <g id="LineCollection_13">
     <path d="M 351.82375 267.46 
L 361.82375 267.46 
" style="fill: none; stroke: #70bf41; stroke-width: 3"/>
    </g>
    <g id="LineCollection_14">
     <path d="M 356.82375 272.46 
L 356.82375 262.46 
" style="fill: none; stroke: #70bf41; stroke-width: 3"/>
    </g>
    <g id="line2d_112">
     <path d="M 346.82375 267.46 
L 366.82375 267.46 
" style="fill: none; stroke: #70bf41; stroke-width: 1.5; stroke-linecap: square"/>
    </g>
    <g id="line2d_113">
     <defs>
      <path id="m0bd3596dc3" d="M 0 4 
C 1.060812 4 2.078319 3.578535 2.828427 2.828427 
C 3.578535 2.078319 4 1.060812 4 0 
C 4 -1.060812 3.578535 -2.078319 2.828427 -2.828427 
C 2.078319 -3.578535 1.060812 -4 0 -4 
C -1.060812 -4 -2.078319 -3.578535 -2.828427 -2.828427 
C -3.578535 -2.078319 -4 -1.060812 -4 0 
C -4 1.060812 -3.578535 2.078319 -2.828427 2.828427 
C -2.078319 3.578535 -1.060812 4 0 4 
z
" style="stroke: #ffffff; stroke-width: 2"/>
     </defs>
     <g>
      <use xlink:href="#m0bd3596dc3" x="356.82375" y="267.46" style="fill: #70bf41; stroke: #ffffff; stroke-width: 2"/>
     </g>
    </g>
    <g id="text_15">
     <!-- $a_{12}(l_F,s_F^{\rm phys})$ -->
     <g transform="translate(374.82375 270.96) scale(0.1 -0.1)">
      <use xlink:href="#DejaVuSans-Oblique-61" transform="translate(0 0.0625)"/>
      <use xlink:href="#DejaVuSans-31" transform="translate(61.279297 -16.34375) scale(0.7)"/>
      <use xlink:href="#DejaVuSans-32" transform="translate(105.81543 -16.34375) scale(0.7)"/>
      <use xlink:href="#DejaVuSans-28" transform="translate(153.085938 0.0625)"/>
      <use xlink:href="#DejaVuSans-Oblique-6c" transform="translate(192.099609 0.0625)"/>
      <use xlink:href="#DejaVuSans-Oblique-46" transform="translate(219.882812 -16.34375) scale(0.7)"/>
      <use xlink:href="#DejaVuSans-2c" transform="translate(262.880859 0.0625)"/>
      <use xlink:href="#DejaVuSans-Oblique-73" transform="translate(314.150391 0.0625)"/>
      <use xlink:href="#DejaVuSans-70" transform="translate(370.899896 50.810938) scale(0.7)"/>
      <use xlink:href="#DejaVuSans-68" transform="translate(415.33349 50.810938) scale(0.7)"/>
      <use xlink:href="#DejaVuSans-79" transform="translate(459.698724 50.810938) scale(0.7)"/>
      <use xlink:href="#DejaVuSans-73" transform="translate(501.124505 50.810938) scale(0.7)"/>
      <use xlink:href="#DejaVuSans-Oblique-46" transform="translate(366.25 -27.28125) scale(0.7)"/>
      <use xlink:href="#DejaVuSans-29" transform="translate(540.328607 0.0625)"/>
     </g>
    </g>
    <g id="LineCollection_15">
     <path d="M 351.82375 285.66 
L 361.82375 285.66 
" style="fill: none; stroke: #ec5d57; stroke-width: 3"/>
    </g>
    <g id="LineCollection_16">
     <path d="M 356.82375 290.66 
L 356.82375 280.66 
" style="fill: none; stroke: #ec5d57; stroke-width: 3"/>
    </g>
    <g id="line2d_114">
     <path d="M 346.82375 285.66 
L 366.82375 285.66 
" style="fill: none; stroke: #ec5d57; stroke-width: 1.5; stroke-linecap: square"/>
    </g>
    <g id="line2d_115">
     <defs>
      <path id="mc5cc5b26fb" d="M 0 4 
C 1.060812 4 2.078319 3.578535 2.828427 2.828427 
C 3.578535 2.078319 4 1.060812 4 0 
C 4 -1.060812 3.578535 -2.078319 2.828427 -2.828427 
C 2.078319 -3.578535 1.060812 -4 0 -4 
C -1.060812 -4 -2.078319 -3.578535 -2.828427 -2.828427 
C -3.578535 -2.078319 -4 -1.060812 -4 0 
C -4 1.060812 -3.578535 2.078319 -2.828427 2.828427 
C -2.078319 3.578535 -1.060812 4 0 4 
z
" style="stroke: #ffffff; stroke-width: 2"/>
     </defs>
     <g>
      <use xlink:href="#mc5cc5b26fb" x="356.82375" y="285.66" style="fill: #ec5d57; stroke: #ffffff; stroke-width: 2"/>
     </g>
    </g>
    <g id="text_16">
     <!-- $a_{15}(l_F,s_F^{\rm phys})$ -->
     <g transform="translate(374.82375 289.16) scale(0.1 -0.1)">
      <use xlink:href="#DejaVuSans-Oblique-61" transform="translate(0 0.0625)"/>
      <use xlink:href="#DejaVuSans-31" transform="translate(61.279297 -16.34375) scale(0.7)"/>
      <use xlink:href="#DejaVuSans-35" transform="translate(105.81543 -16.34375) scale(0.7)"/>
      <use xlink:href="#DejaVuSans-28" transform="translate(153.085938 0.0625)"/>
      <use xlink:href="#DejaVuSans-Oblique-6c" transform="translate(192.099609 0.0625)"/>
      <use xlink:href="#DejaVuSans-Oblique-46" transform="translate(219.882812 -16.34375) scale(0.7)"/>
      <use xlink:href="#DejaVuSans-2c" transform="translate(262.880859 0.0625)"/>
      <use xlink:href="#DejaVuSans-Oblique-73" transform="translate(314.150391 0.0625)"/>
      <use xlink:href="#DejaVuSans-70" transform="translate(370.899896 50.810938) scale(0.7)"/>
      <use xlink:href="#DejaVuSans-68" transform="translate(415.33349 50.810938) scale(0.7)"/>
      <use xlink:href="#DejaVuSans-79" transform="translate(459.698724 50.810938) scale(0.7)"/>
      <use xlink:href="#DejaVuSans-73" transform="translate(501.124505 50.810938) scale(0.7)"/>
      <use xlink:href="#DejaVuSans-Oblique-46" transform="translate(366.25 -27.28125) scale(0.7)"/>
      <use xlink:href="#DejaVuSans-29" transform="translate(540.328607 0.0625)"/>
     </g>
    </g>
   </g>
  </g>
 </g>
 <defs>
  <clipPath id="p61917087c9">
   <rect x="50.14375" y="7.2" width="391.68" height="293.76"/>
  </clipPath>
 </defs>
 <defs>
  <pattern id="h35a611b9a4" patternUnits="userSpaceOnUse" x="0" y="0" width="72" height="72">
   <rect x="0" y="0" width="73" height="73" fill="none"/>
   <path d="M -36 36 
L 36 -36 
M -24 48 
L 48 -24 
M -12 60 
L 60 -12 
M 0 72 
L 72 0 
M 12 84 
L 84 12 
M 24 96 
L 96 24 
M 36 108 
L 108 36 
" style="fill: #000000; stroke: #000000; stroke-width: 1.0; stroke-linecap: butt; stroke-linejoin: miter; stroke-opacity: 0.6"/>
  </pattern>
 </defs>
</svg>
