<?xml version="1.0" encoding="utf-8" standalone="no"?>
<!DOCTYPE svg PUBLIC "-//W3C//DTD SVG 1.1//EN"
  "http://www.w3.org/Graphics/SVG/1.1/DTD/svg11.dtd">
<svg xmlns:xlink="http://www.w3.org/1999/xlink" width="419.285625pt" height="310.86825pt" viewBox="0 0 419.285625 310.86825" xmlns="http://www.w3.org/2000/svg" version="1.1">
 <metadata>
  <rdf:RDF xmlns:dc="http://purl.org/dc/elements/1.1/" xmlns:cc="http://creativecommons.org/ns#" xmlns:rdf="http://www.w3.org/1999/02/22-rdf-syntax-ns#">
   <cc:Work>
    <dc:type rdf:resource="http://purl.org/dc/dcmitype/StillImage"/>
    <dc:date>2025-03-01T20:42:57.010031</dc:date>
    <dc:format>image/svg+xml</dc:format>
    <dc:creator>
     <cc:Agent>
      <dc:title>Matplotlib v3.10.0, https://matplotlib.org/</dc:title>
     </cc:Agent>
    </dc:creator>
   </cc:Work>
  </rdf:RDF>
 </metadata>
 <defs>
  <style type="text/css">*{stroke-linejoin: round; stroke-linecap: butt}</style>
 </defs>
 <g id="figure_1">
  <g id="patch_1">
   <path d="M 0 310.86825 
L 419.285625 310.86825 
L 419.285625 0 
L 0 0 
L 0 310.86825 
z
" style="fill: none"/>
  </g>
  <g id="axes_1">
   <g id="patch_2">
    <path d="M 54.965625 273.312 
L 412.085625 273.312 
L 412.085625 7.2 
L 54.965625 7.2 
L 54.965625 273.312 
z
" style="fill: none"/>
   </g>
   <g id="FillBetweenPolyCollection_1">
    <defs>
     <path id="mea2909c172" d="M 54.965625 -81.190504 
L 54.965625 -60.296969 
L 55.462628 -60.687782 
L 56.242595 -61.299938 
L 57.305528 -62.131894 
L 58.651426 -63.181546 
L 60.280289 -64.446237 
L 62.192116 -65.922757 
L 64.386909 -67.607348 
L 66.864667 -69.495709 
L 69.62539 -71.583002 
L 72.669078 -73.863861 
L 75.995731 -76.332398 
L 79.605349 -78.982214 
L 83.497932 -81.806411 
L 87.67348 -84.797599 
L 92.131993 -87.947913 
L 96.873471 -91.249016 
L 101.897914 -94.692113 
L 107.205322 -98.267953 
L 112.795695 -101.966824 
L 118.669033 -105.778543 
L 124.825336 -109.692437 
L 131.264604 -113.697303 
L 137.986838 -117.781363 
L 144.992036 -121.932196 
L 152.280199 -126.136668 
L 159.851328 -130.380845 
L 167.705421 -134.649921 
L 175.842479 -138.928149 
L 184.262503 -143.198798 
L 192.965491 -147.44415 
L 201.951444 -151.645539 
L 211.220363 -155.783423 
L 220.772246 -159.837504 
L 230.607095 -163.786854 
L 240.724908 -167.610049 
L 251.125687 -171.285281 
L 261.80943 -174.790437 
L 272.776139 -178.103143 
L 284.025813 -181.200769 
L 295.558451 -184.060409 
L 307.374055 -186.658841 
L 319.472624 -188.97248 
L 331.854157 -190.977324 
L 344.518656 -192.648915 
L 357.46612 -193.962297 
L 370.696548 -194.891985 
L 384.209942 -195.411946 
L 398.006301 -195.495578 
L 412.085625 -195.115703 
L 412.085625 -261.802897 
L 412.085625 -261.802897 
L 398.006301 -256.737388 
L 384.209942 -251.612436 
L 370.696548 -246.438448 
L 357.46612 -241.225638 
L 344.518656 -235.984018 
L 331.854157 -230.723376 
L 319.472624 -225.453259 
L 307.374055 -220.18294 
L 295.558451 -214.921379 
L 284.025813 -209.677181 
L 272.776139 -204.458543 
L 261.80943 -199.273206 
L 251.125687 -194.128418 
L 240.724908 -189.030912 
L 230.607095 -183.986911 
L 220.772246 -179.00217 
L 211.220363 -174.082059 
L 201.951444 -169.231674 
L 192.965491 -164.455967 
L 184.262503 -159.75988 
L 175.842479 -155.148454 
L 167.705421 -150.626911 
L 159.851328 -146.200689 
L 152.280199 -141.875439 
L 144.992036 -137.65698 
L 137.986838 -133.551235 
L 131.264604 -129.564153 
L 124.825336 -125.701629 
L 118.669033 -121.969426 
L 112.795695 -118.373114 
L 107.205322 -114.91802 
L 101.897914 -111.609192 
L 96.873471 -108.451379 
L 92.131993 -105.449015 
L 87.67348 -102.606225 
L 83.497932 -99.926818 
L 79.605349 -97.414304 
L 75.995731 -95.0719 
L 72.669078 -92.902539 
L 69.62539 -90.908886 
L 66.864667 -89.093347 
L 64.386909 -87.458074 
L 62.192116 -86.004981 
L 60.280289 -84.735747 
L 58.651426 -83.651823 
L 57.305528 -82.754435 
L 56.242595 -82.044592 
L 55.462628 -81.523088 
L 54.965625 -81.190504 
z
" style="stroke: #da70d6; stroke-opacity: 0.1"/>
    </defs>
    <g clip-path="url(#pdc3d184fe4)">
     <use xlink:href="#mea2909c172" x="0" y="310.86825" style="fill: #da70d6; fill-opacity: 0.1; stroke: #da70d6; stroke-opacity: 0.1"/>
    </g>
   </g>
   <g id="FillBetweenPolyCollection_2">
    <defs>
     <path id="mabba3b2487" d="M 54.965625 -71.055687 
L 54.965625 -51.572342 
L 55.462628 -51.886656 
L 56.242595 -52.379619 
L 57.305528 -53.050821 
L 58.651426 -53.8997 
L 60.280289 -54.925533 
L 62.192116 -56.127431 
L 64.386909 -57.504331 
L 66.864667 -59.054984 
L 69.62539 -60.777947 
L 72.669078 -62.671569 
L 75.995731 -64.733981 
L 79.605349 -66.963085 
L 83.497932 -69.356544 
L 87.67348 -71.911774 
L 92.131993 -74.625947 
L 96.873471 -77.495993 
L 101.897914 -80.518618 
L 107.205322 -83.690336 
L 112.795695 -87.007509 
L 118.669033 -90.466412 
L 124.825336 -94.06331 
L 131.264604 -97.794543 
L 137.986838 -101.656629 
L 144.992036 -105.646357 
L 152.280199 -109.760871 
L 159.851328 -113.997737 
L 167.705421 -118.354973 
L 175.842479 -122.831059 
L 184.262503 -127.424905 
L 192.965491 -132.135796 
L 201.951444 -136.963324 
L 211.220363 -141.907297 
L 220.772246 -146.967664 
L 230.607095 -152.144426 
L 240.724908 -157.437574 
L 251.125687 -162.847023 
L 261.80943 -168.372567 
L 272.776139 -174.013843 
L 284.025813 -179.770302 
L 295.558451 -185.64119 
L 307.374055 -191.625532 
L 319.472624 -197.722131 
L 331.854157 -203.929553 
L 344.518656 -210.246132 
L 357.46612 -216.669969 
L 370.696548 -223.198929 
L 384.209942 -229.830647 
L 398.006301 -236.562529 
L 412.085625 -243.39176 
L 412.085625 -288.293697 
L 412.085625 -288.293697 
L 398.006301 -279.458877 
L 384.209942 -270.804666 
L 370.696548 -262.330491 
L 357.46612 -254.035958 
L 344.518656 -245.920855 
L 331.854157 -237.985154 
L 319.472624 -230.229015 
L 307.374055 -222.652788 
L 295.558451 -215.257009 
L 284.025813 -208.0424 
L 272.776139 -201.009866 
L 261.80943 -194.160482 
L 251.125687 -187.495484 
L 240.724908 -181.016247 
L 230.607095 -174.724257 
L 220.772246 -168.621077 
L 211.220363 -162.708296 
L 201.951444 -156.987471 
L 192.965491 -151.460058 
L 184.262503 -146.127328 
L 175.842479 -140.990289 
L 167.705421 -136.049596 
L 159.851328 -131.305483 
L 152.280199 -126.757706 
L 144.992036 -122.405519 
L 137.986838 -118.247672 
L 131.264604 -114.282448 
L 124.825336 -110.507731 
L 118.669033 -106.921085 
L 112.795695 -103.519855 
L 107.205322 -100.301259 
L 101.897914 -97.262481 
L 96.873471 -94.400749 
L 92.131993 -91.713394 
L 87.67348 -89.197892 
L 83.497932 -86.8519 
L 79.605349 -84.673269 
L 75.995731 -82.660049 
L 72.669078 -80.810489 
L 69.62539 -79.123032 
L 66.864667 -77.596306 
L 64.386909 -76.229109 
L 62.192116 -75.0204 
L 60.280289 -73.969288 
L 58.651426 -73.075021 
L 57.305528 -72.336975 
L 56.242595 -71.754645 
L 55.462628 -71.327643 
L 54.965625 -71.055687 
z
" style="stroke: #87ceeb; stroke-opacity: 0.1"/>
    </defs>
    <g clip-path="url(#pdc3d184fe4)">
     <use xlink:href="#mabba3b2487" x="0" y="310.86825" style="fill: #87ceeb; fill-opacity: 0.1; stroke: #87ceeb; stroke-opacity: 0.1"/>
    </g>
   </g>
   <g id="FillBetweenPolyCollection_3">
    <g clip-path="url(#pdc3d184fe4)">
     <use xlink:href="#mea2909c172" x="0" y="310.86825" style="fill: #da70d6; fill-opacity: 0.1; stroke: #da70d6; stroke-opacity: 0.1"/>
    </g>
   </g>
   <g id="FillBetweenPolyCollection_4">
    <g clip-path="url(#pdc3d184fe4)">
     <use xlink:href="#mabba3b2487" x="0" y="310.86825" style="fill: #87ceeb; fill-opacity: 0.1; stroke: #87ceeb; stroke-opacity: 0.1"/>
    </g>
   </g>
   <g id="FillBetweenPolyCollection_5">
    <defs>
     <path id="m8206b91bab" d="M 54.965625 -83.702601 
L 54.965625 -60.200806 
L 55.462628 -60.588115 
L 56.242595 -61.194775 
L 57.305528 -62.019247 
L 58.651426 -63.059434 
L 60.280289 -64.312692 
L 62.192116 -65.775829 
L 64.386909 -67.445115 
L 66.864667 -69.316289 
L 69.62539 -71.384568 
L 72.669078 -73.644662 
L 75.995731 -76.090781 
L 79.605349 -78.716653 
L 83.497932 -81.515539 
L 87.67348 -84.480248 
L 92.131993 -87.603156 
L 96.873471 -90.876216 
L 101.897914 -94.290972 
L 107.205322 -97.838565 
L 112.795695 -101.509736 
L 118.669033 -105.294811 
L 124.825336 -109.183681 
L 131.264604 -113.16577 
L 137.986838 -117.229977 
L 144.992036 -121.364617 
L 152.280199 -125.557332 
L 159.851328 -129.794999 
L 167.705421 -134.063635 
L 175.842479 -138.348296 
L 184.262503 -142.632989 
L 192.965491 -146.900616 
L 201.951444 -151.132943 
L 211.220363 -155.310615 
L 220.772246 -159.413219 
L 230.607095 -163.419395 
L 240.724908 -167.306977 
L 251.125687 -171.053154 
L 261.80943 -174.634628 
L 272.776139 -178.027755 
L 284.025813 -181.20865 
L 295.558451 -184.153246 
L 307.374055 -186.837313 
L 319.472624 -189.236449 
L 331.854157 -191.326037 
L 344.518656 -193.081192 
L 357.46612 -194.476702 
L 370.696548 -195.486974 
L 384.209942 -196.085977 
L 398.006301 -196.247205 
L 412.085625 -195.943639 
L 412.085625 -264.510996 
L 412.085625 -264.510996 
L 398.006301 -259.444306 
L 384.209942 -254.323672 
L 370.696548 -249.159498 
L 357.46612 -243.961935 
L 344.518656 -238.740843 
L 331.854157 -233.505748 
L 319.472624 -228.265796 
L 307.374055 -223.029686 
L 295.558451 -217.805621 
L 284.025813 -212.601251 
L 272.776139 -207.423629 
L 261.80943 -202.279206 
L 251.125687 -197.173844 
L 240.724908 -192.112881 
L 230.607095 -187.101233 
L 220.772246 -182.143536 
L 211.220363 -177.2443 
L 201.951444 -172.408076 
L 192.965491 -167.639597 
L 184.262503 -162.943882 
L 175.842479 -158.326305 
L 167.705421 -153.792609 
L 159.851328 -149.348874 
L 152.280199 -145.001461 
L 144.992036 -140.756925 
L 137.986838 -136.621913 
L 131.264604 -132.603071 
L 124.825336 -128.706946 
L 118.669033 -124.939908 
L 112.795695 -121.308078 
L 107.205322 -117.817282 
L 101.897914 -114.473009 
L 96.873471 -111.280397 
L 92.131993 -108.244216 
L 87.67348 -105.368874 
L 83.497932 -102.658418 
L 79.605349 -100.116549 
L 75.995731 -97.746636 
L 72.669078 -95.551732 
L 69.62539 -93.53459 
L 66.864667 -91.697675 
L 64.386909 -90.043186 
L 62.192116 -88.573061 
L 60.280289 -87.288994 
L 58.651426 -86.19244 
L 57.305528 -85.284626 
L 56.242595 -84.566559 
L 55.462628 -84.039025 
L 54.965625 -83.702601 
z
" style="stroke: #da70d6; stroke-opacity: 0.1"/>
    </defs>
    <g clip-path="url(#pdc3d184fe4)">
     <use xlink:href="#m8206b91bab" x="0" y="310.86825" style="fill: #da70d6; fill-opacity: 0.1; stroke: #da70d6; stroke-opacity: 0.1"/>
    </g>
   </g>
   <g id="FillBetweenPolyCollection_6">
    <defs>
     <path id="m428f2a6e96" d="M 54.965625 -74.044042 
L 54.965625 -51.849938 
L 55.462628 -52.161268 
L 56.242595 -52.649551 
L 57.305528 -53.314388 
L 58.651426 -54.155227 
L 60.280289 -55.171368 
L 62.192116 -56.361951 
L 64.386909 -57.725958 
L 66.864667 -59.262203 
L 69.62539 -60.969332 
L 72.669078 -62.84581 
L 75.995731 -64.889926 
L 79.605349 -67.099784 
L 83.497932 -69.4733 
L 87.67348 -72.008212 
L 92.131993 -74.702074 
L 96.873471 -77.552278 
L 101.897914 -80.55606 
L 107.205322 -83.710531 
L 112.795695 -87.012706 
L 118.669033 -90.459541 
L 124.825336 -94.047982 
L 131.264604 -97.775015 
L 137.986838 -101.637722 
L 144.992036 -105.633333 
L 152.280199 -109.759279 
L 159.851328 -114.013228 
L 167.705421 -118.393117 
L 175.842479 -122.897166 
L 184.262503 -127.523871 
L 192.965491 -132.271991 
L 201.951444 -137.140517 
L 211.220363 -142.128628 
L 220.772246 -147.235647 
L 230.607095 -152.460988 
L 240.724908 -157.80411 
L 251.125687 -163.264467 
L 261.80943 -168.841464 
L 272.776139 -174.534424 
L 284.025813 -180.342551 
L 295.558451 -186.264908 
L 307.374055 -192.300393 
L 319.472624 -198.447723 
L 331.854157 -204.705421 
L 344.518656 -211.071805 
L 357.46612 -217.544986 
L 370.696548 -224.122858 
L 384.209942 -230.803099 
L 398.006301 -237.583168 
L 412.085625 -244.460308 
L 412.085625 -291.57225 
L 412.085625 -291.57225 
L 398.006301 -282.736233 
L 384.209942 -274.082604 
L 370.696548 -265.61082 
L 357.46612 -257.320508 
L 344.518656 -249.211468 
L 331.854157 -241.283673 
L 319.472624 -233.537263 
L 307.374055 -225.972545 
L 295.558451 -218.589983 
L 284.025813 -211.390188 
L 272.776139 -204.373909 
L 261.80943 -197.542014 
L 251.125687 -190.895467 
L 240.724908 -184.435304 
L 230.607095 -178.162599 
L 220.772246 -172.07843 
L 211.220363 -166.183833 
L 201.951444 -160.479756 
L 192.965491 -154.967007 
L 184.262503 -149.646208 
L 175.842479 -144.517745 
L 167.705421 -139.581729 
L 159.851328 -134.837963 
L 152.280199 -130.285924 
L 144.992036 -125.924765 
L 137.986838 -121.753324 
L 131.264604 -117.770154 
L 124.825336 -113.973566 
L 118.669033 -110.361674 
L 112.795695 -106.932451 
L 107.205322 -103.683786 
L 101.897914 -100.613532 
L 96.873471 -97.719556 
L 92.131993 -94.999773 
L 87.67348 -92.452182 
L 83.497932 -90.074889 
L 79.605349 -87.866119 
L 75.995731 -85.824233 
L 72.669078 -83.947728 
L 69.62539 -82.235241 
L 66.864667 -80.685547 
L 64.386909 -79.297558 
L 62.192116 -78.070314 
L 60.280289 -77.002984 
L 58.651426 -76.094854 
L 57.305528 -75.345328 
L 56.242595 -74.75392 
L 55.462628 -74.320249 
L 54.965625 -74.044042 
z
" style="stroke: #87ceeb; stroke-opacity: 0.1"/>
    </defs>
    <g clip-path="url(#pdc3d184fe4)">
     <use xlink:href="#m428f2a6e96" x="0" y="310.86825" style="fill: #87ceeb; fill-opacity: 0.1; stroke: #87ceeb; stroke-opacity: 0.1"/>
    </g>
   </g>
   <g id="FillBetweenPolyCollection_7">
    <g clip-path="url(#pdc3d184fe4)">
     <use xlink:href="#m8206b91bab" x="0" y="310.86825" style="fill: #da70d6; fill-opacity: 0.1; stroke: #da70d6; stroke-opacity: 0.1"/>
    </g>
   </g>
   <g id="FillBetweenPolyCollection_8">
    <g clip-path="url(#pdc3d184fe4)">
     <use xlink:href="#m428f2a6e96" x="0" y="310.86825" style="fill: #87ceeb; fill-opacity: 0.1; stroke: #87ceeb; stroke-opacity: 0.1"/>
    </g>
   </g>
   <g id="FillBetweenPolyCollection_9">
    <defs>
     <path id="m329523ec05" d="M 54.965625 -75.172348 
L 54.965625 -52.923552 
L 55.462628 -53.444304 
L 56.242595 -54.255768 
L 57.305528 -55.351305 
L 58.651426 -56.722718 
L 60.280289 -58.360491 
L 62.192116 -60.25397 
L 64.386909 -62.391535 
L 66.864667 -64.760749 
L 69.62539 -67.348488 
L 72.669078 -70.141071 
L 75.995731 -73.124377 
L 79.605349 -76.283949 
L 83.497932 -79.605094 
L 87.67348 -83.072974 
L 92.131993 -86.672672 
L 96.873471 -90.389252 
L 101.897914 -94.207789 
L 107.205322 -98.113377 
L 112.795695 -102.091105 
L 118.669033 -106.126001 
L 124.825336 -110.202942 
L 131.264604 -114.306535 
L 137.986838 -118.42097 
L 144.992036 -122.529856 
L 152.280199 -126.616056 
L 159.851328 -130.661543 
L 167.705421 -134.647294 
L 175.842479 -138.553273 
L 184.262503 -142.358502 
L 192.965491 -146.041264 
L 201.951444 -149.579415 
L 211.220363 -152.950786 
L 220.772246 -156.133603 
L 230.607095 -159.106873 
L 240.724908 -161.850651 
L 251.125687 -164.346185 
L 261.80943 -166.575907 
L 272.776139 -168.523336 
L 284.025813 -170.172911 
L 295.558451 -171.509806 
L 307.374055 -172.519758 
L 319.472624 -173.188924 
L 331.854157 -173.503767 
L 344.518656 -173.450979 
L 357.46612 -173.017423 
L 370.696548 -172.190105 
L 384.209942 -170.956153 
L 398.006301 -169.302806 
L 412.085625 -167.217414 
L 412.085625 -238.805695 
L 412.085625 -238.805695 
L 398.006301 -235.198027 
L 384.209942 -231.539121 
L 370.696548 -227.828129 
L 357.46612 -224.065077 
L 344.518656 -220.250832 
L 331.854157 -216.387071 
L 319.472624 -212.476234 
L 307.374055 -208.521462 
L 295.558451 -204.526514 
L 284.025813 -200.495664 
L 272.776139 -196.433552 
L 261.80943 -192.345015 
L 251.125687 -188.234881 
L 240.724908 -184.107752 
L 230.607095 -179.967809 
L 220.772246 -175.818674 
L 211.220363 -171.663373 
L 201.951444 -167.504439 
L 192.965491 -163.34415 
L 184.262503 -159.184868 
L 175.842479 -155.029429 
L 167.705421 -150.881499 
L 159.851328 -146.745847 
L 152.280199 -142.628503 
L 144.992036 -138.536786 
L 137.986838 -134.479241 
L 131.264604 -130.465482 
L 124.825336 -126.506001 
L 118.669033 -122.611951 
L 112.795695 -118.794925 
L 107.205322 -115.066756 
L 101.897914 -111.439332 
L 96.873471 -107.924452 
L 92.131993 -104.533693 
L 87.67348 -101.278329 
L 83.497932 -98.169253 
L 79.605349 -95.216938 
L 75.995731 -92.431404 
L 72.669078 -89.822203 
L 69.62539 -87.398407 
L 66.864667 -85.168602 
L 64.386909 -83.140878 
L 62.192116 -81.322823 
L 60.280289 -79.721501 
L 58.651426 -78.343431 
L 57.305528 -77.194547 
L 56.242595 -76.280149 
L 55.462628 -75.604825 
L 54.965625 -75.172348 
z
" style="stroke: #da70d6; stroke-opacity: 0.1"/>
    </defs>
    <g clip-path="url(#pdc3d184fe4)">
     <use xlink:href="#m329523ec05" x="0" y="310.86825" style="fill: #da70d6; fill-opacity: 0.1; stroke: #da70d6; stroke-opacity: 0.1"/>
    </g>
   </g>
   <g id="FillBetweenPolyCollection_10">
    <defs>
     <path id="m5b8162c11e" d="M 54.965625 -69.854154 
L 54.965625 -49.65225 
L 55.462628 -49.994827 
L 56.242595 -50.53144 
L 57.305528 -51.260877 
L 58.651426 -52.181588 
L 60.280289 -53.291711 
L 62.192116 -54.589094 
L 64.386909 -56.071307 
L 66.864667 -57.73566 
L 69.62539 -59.579208 
L 72.669078 -61.598761 
L 75.995731 -63.790895 
L 79.605349 -66.151959 
L 83.497932 -68.67809 
L 87.67348 -71.36523 
L 92.131993 -74.209148 
L 96.873471 -77.205478 
L 101.897914 -80.349756 
L 107.205322 -83.637482 
L 112.795695 -87.064183 
L 118.669033 -90.625491 
L 124.825336 -94.317227 
L 131.264604 -98.135478 
L 137.986838 -102.076672 
L 144.992036 -106.137634 
L 152.280199 -110.315619 
L 159.851328 -114.608312 
L 167.705421 -119.013814 
L 175.842479 -123.530586 
L 184.262503 -128.157392 
L 192.965491 -132.893218 
L 201.951444 -137.737197 
L 211.220363 -142.688534 
L 220.772246 -147.746441 
L 230.607095 -152.91008 
L 240.724908 -158.178524 
L 251.125687 -163.550723 
L 261.80943 -169.025488 
L 272.776139 -174.601474 
L 284.025813 -180.27718 
L 295.558451 -186.05095 
L 307.374055 -191.920977 
L 319.472624 -197.885314 
L 331.854157 -203.941881 
L 344.518656 -210.088481 
L 357.46612 -216.322809 
L 370.696548 -222.642466 
L 384.209942 -229.04497 
L 398.006301 -235.527769 
L 412.085625 -242.08825 
L 412.085625 -287.201906 
L 412.085625 -287.201906 
L 398.006301 -278.574636 
L 384.209942 -270.120544 
L 370.696548 -261.838468 
L 357.46612 -253.727392 
L 344.518656 -245.786455 
L 331.854157 -238.014961 
L 319.472624 -230.412389 
L 307.374055 -222.978402 
L 295.558451 -215.712856 
L 284.025813 -208.615809 
L 272.776139 -201.68753 
L 261.80943 -194.928503 
L 251.125687 -188.339431 
L 240.724908 -181.921234 
L 230.607095 -175.675042 
L 220.772246 -169.60218 
L 211.220363 -163.704143 
L 201.951444 -157.982566 
L 192.965491 -152.439174 
L 184.262503 -147.075726 
L 175.842479 -141.893943 
L 167.705421 -136.895435 
L 159.851328 -132.081614 
L 152.280199 -127.453617 
L 144.992036 -123.012235 
L 137.986838 -118.757865 
L 131.264604 -114.690481 
L 124.825336 -110.809631 
L 118.669033 -107.114471 
L 112.795695 -103.603812 
L 107.205322 -100.276184 
L 101.897914 -97.129917 
L 96.873471 -94.163215 
L 92.131993 -91.374224 
L 87.67348 -88.761096 
L 83.497932 -86.322036 
L 79.605349 -84.055335 
L 75.995731 -81.959402 
L 72.669078 -80.032775 
L 69.62539 -78.274128 
L 66.864667 -76.682278 
L 64.386909 -75.25618 
L 62.192116 -73.994926 
L 60.280289 -72.89774 
L 58.651426 -71.963969 
L 57.305528 -71.193085 
L 56.242595 -70.584673 
L 55.462628 -70.138429 
L 54.965625 -69.854154 
z
" style="stroke: #87ceeb; stroke-opacity: 0.1"/>
    </defs>
    <g clip-path="url(#pdc3d184fe4)">
     <use xlink:href="#m5b8162c11e" x="0" y="310.86825" style="fill: #87ceeb; fill-opacity: 0.1; stroke: #87ceeb; stroke-opacity: 0.1"/>
    </g>
   </g>
   <g id="FillBetweenPolyCollection_11">
    <defs>
     <path id="mfa85c414e4" d="M 54.965625 -74.699989 
L 54.965625 -52.381504 
L 55.462628 -52.906598 
L 56.242595 -53.724761 
L 57.305528 -54.829233 
L 58.651426 -56.211679 
L 60.280289 -57.862424 
L 62.192116 -59.770651 
L 64.386909 -61.924563 
L 66.864667 -64.311536 
L 69.62539 -66.918252 
L 72.669078 -69.730828 
L 75.995731 -72.734931 
L 79.605349 -75.915884 
L 83.497932 -79.258767 
L 87.67348 -82.748506 
L 92.131993 -86.369945 
L 96.873471 -90.107902 
L 101.897914 -93.947213 
L 107.205322 -97.872735 
L 112.795695 -101.869339 
L 118.669033 -105.921856 
L 124.825336 -110.015001 
L 131.264604 -114.133262 
L 137.986838 -118.260764 
L 144.992036 -122.381121 
L 152.280199 -126.477274 
L 159.851328 -130.531358 
L 167.705421 -134.524603 
L 175.842479 -138.437307 
L 184.262503 -142.248907 
L 192.965491 -145.938152 
L 201.951444 -149.483397 
L 211.220363 -152.862964 
L 220.772246 -156.055544 
L 230.607095 -159.040548 
L 240.724908 -161.79838 
L 251.125687 -164.310574 
L 261.80943 -166.559812 
L 272.776139 -168.529842 
L 284.025813 -170.205331 
L 295.558451 -171.571702 
L 307.374055 -172.614971 
L 319.472624 -173.321613 
L 331.854157 -173.678454 
L 344.518656 -173.672591 
L 357.46612 -173.291342 
L 370.696548 -172.522209 
L 384.209942 -171.352862 
L 398.006301 -169.771128 
L 412.085625 -167.764986 
L 412.085625 -238.903128 
L 412.085625 -238.903128 
L 398.006301 -235.247023 
L 384.209942 -231.548809 
L 370.696548 -227.806646 
L 357.46612 -224.019601 
L 344.518656 -220.187621 
L 331.854157 -216.311498 
L 319.472624 -212.392817 
L 307.374055 -208.433897 
L 295.558451 -204.437706 
L 284.025813 -200.407756 
L 272.776139 -196.347963 
L 261.80943 -192.262476 
L 251.125687 -188.155492 
L 240.724908 -184.031049 
L 230.607095 -179.892852 
L 220.772246 -175.744155 
L 211.220363 -171.587739 
L 201.951444 -167.426017 
L 192.965491 -163.261267 
L 184.262503 -159.095942 
L 175.842479 -154.933033 
L 167.705421 -150.776392 
L 159.851328 -146.630973 
L 152.280199 -142.50297 
L 144.992036 -138.399838 
L 137.986838 -134.330217 
L 131.264604 -130.303783 
L 124.825336 -126.331065 
L 118.669033 -122.423228 
L 112.795695 -118.591868 
L 107.205322 -114.848815 
L 101.897914 -111.205966 
L 96.873471 -107.675135 
L 92.131993 -104.267941 
L 87.67348 -100.995717 
L 83.497932 -97.869446 
L 79.605349 -94.899718 
L 75.995731 -92.096699 
L 72.669078 -89.470111 
L 69.62539 -87.029219 
L 66.864667 -84.782822 
L 64.386909 -82.739241 
L 62.192116 -80.906299 
L 60.280289 -79.291303 
L 58.651426 -77.901012 
L 57.305528 -76.741595 
L 56.242595 -75.818569 
L 55.462628 -75.136721 
L 54.965625 -74.699989 
z
" style="stroke: #da70d6; stroke-opacity: 0.1"/>
    </defs>
    <g clip-path="url(#pdc3d184fe4)">
     <use xlink:href="#mfa85c414e4" x="0" y="310.86825" style="fill: #da70d6; fill-opacity: 0.1; stroke: #da70d6; stroke-opacity: 0.1"/>
    </g>
   </g>
   <g id="FillBetweenPolyCollection_12">
    <defs>
     <path id="m232bb4bdb6" d="M 54.965625 -70.043498 
L 54.965625 -49.852829 
L 55.462628 -50.192177 
L 56.242595 -50.723793 
L 57.305528 -51.446543 
L 58.651426 -52.358974 
L 60.280289 -53.459338 
L 62.192116 -54.745608 
L 64.386909 -56.21549 
L 66.864667 -57.86644 
L 69.62539 -59.695665 
L 72.669078 -61.700134 
L 75.995731 -63.876584 
L 79.605349 -66.221527 
L 83.497932 -68.731265 
L 87.67348 -71.401897 
L 92.131993 -74.22935 
L 96.873471 -77.209404 
L 101.897914 -80.337735 
L 107.205322 -83.609966 
L 112.795695 -87.021739 
L 118.669033 -90.568781 
L 124.825336 -94.246993 
L 131.264604 -98.052531 
L 137.986838 -101.981879 
L 144.992036 -106.031909 
L 152.280199 -110.199918 
L 159.851328 -114.48364 
L 167.705421 -118.88122 
L 175.842479 -123.39118 
L 184.262503 -128.012348 
L 192.965491 -132.743788 
L 201.951444 -137.58472 
L 211.220363 -142.534443 
L 220.772246 -147.592272 
L 230.607095 -152.757478 
L 240.724908 -158.029242 
L 251.125687 -163.406628 
L 261.80943 -168.888555 
L 272.776139 -174.473787 
L 284.025813 -180.160927 
L 295.558451 -185.948415 
L 307.374055 -191.834536 
L 319.472624 -197.817424 
L 331.854157 -203.895074 
L 344.518656 -210.06535 
L 357.46612 -216.325998 
L 370.696548 -222.674659 
L 384.209942 -229.108876 
L 398.006301 -235.626109 
L 412.085625 -242.223742 
L 412.085625 -287.335532 
L 412.085625 -287.335532 
L 398.006301 -278.673199 
L 384.209942 -270.185777 
L 370.696548 -261.872173 
L 357.46612 -253.73144 
L 344.518656 -245.762783 
L 331.854157 -237.965568 
L 319.472624 -230.339331 
L 307.374055 -222.883786 
L 295.558451 -215.598836 
L 284.025813 -208.48458 
L 272.776139 -201.541321 
L 261.80943 -194.769569 
L 251.125687 -188.170045 
L 240.724908 -181.743675 
L 230.607095 -175.491588 
L 220.772246 -169.415093 
L 211.220363 -163.515657 
L 201.951444 -157.794872 
L 192.965491 -152.254401 
L 184.262503 -146.895927 
L 175.842479 -141.721074 
L 167.705421 -136.731333 
L 159.851328 -131.927978 
L 152.280199 -127.311991 
L 144.992036 -122.883992 
L 137.986838 -118.644193 
L 131.264604 -114.592374 
L 124.825336 -110.727891 
L 118.669033 -107.049706 
L 112.795695 -103.556444 
L 107.205322 -100.24646 
L 101.897914 -97.11792 
L 96.873471 -94.168873 
L 92.131993 -91.397329 
L 87.67348 -88.801308 
L 83.497932 -86.378898 
L 79.605349 -84.128282 
L 75.995731 -82.047764 
L 72.669078 -80.135785 
L 69.62539 -78.39093 
L 66.864667 -76.811927 
L 64.386909 -75.397648 
L 62.192116 -74.147107 
L 60.280289 -73.059451 
L 58.651426 -72.133958 
L 57.305528 -71.370033 
L 56.242595 -70.767201 
L 55.462628 -70.325104 
L 54.965625 -70.043498 
z
" style="stroke: #87ceeb; stroke-opacity: 0.1"/>
    </defs>
    <g clip-path="url(#pdc3d184fe4)">
     <use xlink:href="#m232bb4bdb6" x="0" y="310.86825" style="fill: #87ceeb; fill-opacity: 0.1; stroke: #87ceeb; stroke-opacity: 0.1"/>
    </g>
   </g>
   <g id="FillBetweenPolyCollection_13">
    <defs>
     <path id="md617fbe74e" d="M 54.965625 -77.226872 
L 54.965625 -52.415632 
L 55.462628 -52.932078 
L 56.242595 -53.736828 
L 57.305528 -54.823292 
L 58.651426 -56.183341 
L 60.280289 -57.807534 
L 62.192116 -59.685312 
L 64.386909 -61.805162 
L 66.864667 -64.154773 
L 69.62539 -66.721166 
L 72.669078 -69.490823 
L 75.995731 -72.449805 
L 79.605349 -75.583856 
L 83.497932 -78.8785 
L 87.67348 -82.319126 
L 92.131993 -85.891056 
L 96.873471 -89.579597 
L 101.897914 -93.370069 
L 107.205322 -97.247817 
L 112.795695 -101.198188 
L 118.669033 -105.206488 
L 124.825336 -109.25791 
L 131.264604 -113.337438 
L 137.986838 -117.429725 
L 144.992036 -121.518966 
L 152.280199 -125.58876 
L 159.851328 -129.621972 
L 167.705421 -133.600632 
L 175.842479 -137.505862 
L 184.262503 -141.317873 
L 192.965491 -145.016033 
L 201.951444 -148.579031 
L 211.220363 -151.985124 
L 220.772246 -155.21245 
L 230.607095 -158.239372 
L 240.724908 -161.044813 
L 251.125687 -163.608521 
L 261.80943 -165.91125 
L 272.776139 -167.934837 
L 284.025813 -169.662179 
L 295.558451 -171.07715 
L 307.374055 -172.164465 
L 319.472624 -172.90954 
L 331.854157 -173.298351 
L 344.518656 -173.317314 
L 357.46612 -172.953184 
L 370.696548 -172.192985 
L 384.209942 -171.023948 
L 398.006301 -169.433475 
L 412.085625 -167.409116 
L 412.085625 -240.972597 
L 412.085625 -240.972597 
L 398.006301 -237.369071 
L 384.209942 -233.718679 
L 370.696548 -230.020738 
L 357.46612 -226.275397 
L 344.518656 -222.483589 
L 331.854157 -218.646964 
L 319.472624 -214.767808 
L 307.374055 -210.848941 
L 295.558451 -206.893587 
L 284.025813 -202.905227 
L 272.776139 -198.887427 
L 261.80943 -194.843669 
L 251.125687 -190.777183 
L 240.724908 -186.690834 
L 230.607095 -182.587062 
L 220.772246 -178.467931 
L 211.220363 -174.335272 
L 201.951444 -170.190911 
L 192.965491 -166.036974 
L 184.262503 -161.876184 
L 175.842479 -157.712143 
L 167.705421 -153.549535 
L 159.851328 -149.394249 
L 152.280199 -145.253406 
L 144.992036 -141.135306 
L 137.986838 -137.049319 
L 131.264604 -133.005724 
L 124.825336 -129.015528 
L 118.669033 -125.090278 
L 112.795695 -121.241874 
L 107.205322 -117.482393 
L 101.897914 -113.823933 
L 96.873471 -110.27848 
L 92.131993 -106.857795 
L 87.67348 -103.573329 
L 83.497932 -100.436153 
L 79.605349 -97.45691 
L 75.995731 -94.645787 
L 72.669078 -92.012489 
L 69.62539 -89.566228 
L 66.864667 -87.315714 
L 64.386909 -85.269147 
L 62.192116 -83.434204 
L 60.280289 -81.818026 
L 58.651426 -80.427193 
L 57.305528 -79.267692 
L 56.242595 -78.344861 
L 55.462628 -77.663323 
L 54.965625 -77.226872 
z
" style="stroke: #da70d6; stroke-opacity: 0.1"/>
    </defs>
    <g clip-path="url(#pdc3d184fe4)">
     <use xlink:href="#md617fbe74e" x="0" y="310.86825" style="fill: #da70d6; fill-opacity: 0.1; stroke: #da70d6; stroke-opacity: 0.1"/>
    </g>
   </g>
   <g id="FillBetweenPolyCollection_14">
    <defs>
     <path id="mb1ffb4ce2a" d="M 54.965625 -72.77317 
L 54.965625 -49.892682 
L 55.462628 -50.23156 
L 56.242595 -50.762392 
L 57.305528 -51.483996 
L 58.651426 -52.394863 
L 60.280289 -53.493185 
L 62.192116 -54.77688 
L 64.386909 -56.24361 
L 66.864667 -57.8908 
L 69.62539 -59.715654 
L 72.669078 -61.715172 
L 75.995731 -63.886164 
L 79.605349 -66.225269 
L 83.497932 -68.728974 
L 87.67348 -71.393636 
L 92.131993 -74.215509 
L 96.873471 -77.190773 
L 101.897914 -80.315573 
L 107.205322 -83.586053 
L 112.795695 -86.998403 
L 118.669033 -90.548905 
L 124.825336 -94.233977 
L 131.264604 -98.050216 
L 137.986838 -101.99444 
L 144.992036 -106.063709 
L 152.280199 -110.255349 
L 159.851328 -114.566953 
L 167.705421 -118.996373 
L 175.842479 -123.541698 
L 184.262503 -128.201223 
L 192.965491 -132.973414 
L 201.951444 -137.856857 
L 211.220363 -142.850223 
L 220.772246 -147.952218 
L 230.607095 -153.161552 
L 240.724908 -158.476898 
L 251.125687 -163.896871 
L 261.80943 -169.420003 
L 272.776139 -175.044732 
L 284.025813 -180.769385 
L 295.558451 -186.592181 
L 307.374055 -192.511224 
L 319.472624 -198.52451 
L 331.854157 -204.629925 
L 344.518656 -210.825259 
L 357.46612 -217.108209 
L 370.696548 -223.476388 
L 384.209942 -229.927338 
L 398.006301 -236.458534 
L 412.085625 -243.067394 
L 412.085625 -290.408805 
L 412.085625 -290.408805 
L 398.006301 -281.777772 
L 384.209942 -273.321666 
L 370.696548 -265.039336 
L 357.46612 -256.929769 
L 344.518656 -248.992106 
L 331.854157 -241.225639 
L 319.472624 -233.629825 
L 307.374055 -226.204287 
L 295.558451 -218.948823 
L 284.025813 -211.863406 
L 272.776139 -204.948188 
L 261.80943 -198.203502 
L 251.125687 -191.62985 
L 240.724908 -185.227905 
L 230.607095 -178.998489 
L 220.772246 -172.942561 
L 211.220363 -167.061189 
L 201.951444 -161.355522 
L 192.965491 -155.826749 
L 184.262503 -150.476062 
L 175.842479 -145.304607 
L 167.705421 -140.313439 
L 159.851328 -135.50347 
L 152.280199 -130.875431 
L 144.992036 -126.429836 
L 137.986838 -122.166953 
L 131.264604 -118.086796 
L 124.825336 -114.189118 
L 118.669033 -110.47343 
L 112.795695 -106.93902 
L 107.205322 -103.584987 
L 101.897914 -100.410278 
L 96.873471 -97.413728 
L 92.131993 -94.594098 
L 87.67348 -91.950115 
L 83.497932 -89.480502 
L 79.605349 -87.184008 
L 75.995731 -85.059427 
L 72.669078 -83.10562 
L 69.62539 -81.321524 
L 66.864667 -79.706166 
L 64.386909 -78.258665 
L 62.192116 -76.978237 
L 60.280289 -75.864203 
L 58.651426 -74.915981 
L 57.305528 -74.133094 
L 56.242595 -73.515165 
L 55.462628 -73.061917 
L 54.965625 -72.77317 
z
" style="stroke: #87ceeb; stroke-opacity: 0.1"/>
    </defs>
    <g clip-path="url(#pdc3d184fe4)">
     <use xlink:href="#mb1ffb4ce2a" x="0" y="310.86825" style="fill: #87ceeb; fill-opacity: 0.1; stroke: #87ceeb; stroke-opacity: 0.1"/>
    </g>
   </g>
   <g id="FillBetweenPolyCollection_15">
    <defs>
     <path id="m9d639f1a23" d="M 54.965625 -76.748299 
L 54.965625 -51.878787 
L 55.462628 -52.399555 
L 56.242595 -53.210969 
L 57.305528 -54.30632 
L 58.651426 -55.677333 
L 60.280289 -57.314409 
L 62.192116 -59.206818 
L 64.386909 -61.342867 
L 66.864667 -63.710053 
L 69.62539 -66.295199 
L 72.669078 -69.084581 
L 75.995731 -72.064045 
L 79.605349 -75.219116 
L 83.497932 -78.535092 
L 87.67348 -81.997133 
L 92.131993 -85.59033 
L 96.873471 -89.299758 
L 101.897914 -93.110517 
L 107.205322 -97.007738 
L 112.795695 -100.976573 
L 118.669033 -105.00216 
L 124.825336 -109.069552 
L 131.264604 -113.163638 
L 137.986838 -117.269022 
L 144.992036 -121.369911 
L 152.280199 -125.449971 
L 159.851328 -129.492213 
L 167.705421 -133.478877 
L 175.842479 -137.391371 
L 184.262503 -141.210254 
L 192.965491 -144.915299 
L 201.951444 -148.485638 
L 211.220363 -151.899988 
L 220.772246 -155.136941 
L 230.607095 -158.175294 
L 240.724908 -160.994357 
L 251.125687 -163.574226 
L 261.80943 -165.895959 
L 272.776139 -167.941666 
L 284.025813 -169.694508 
L 295.558451 -171.138619 
L 307.374055 -172.258997 
L 319.472624 -173.041368 
L 331.854157 -173.472057 
L 344.518656 -173.537872 
L 357.46612 -173.226005 
L 370.696548 -172.523963 
L 384.209942 -171.419507 
L 398.006301 -169.900616 
L 412.085625 -167.955462 
L 412.085625 -241.056201 
L 412.085625 -241.056201 
L 398.006301 -237.405334 
L 384.209942 -233.71672 
L 370.696548 -229.988667 
L 357.46612 -226.220357 
L 344.518656 -222.411787 
L 331.854157 -218.563703 
L 319.472624 -214.677522 
L 307.374055 -210.755222 
L 295.558451 -206.799222 
L 284.025813 -202.812233 
L 272.776139 -198.797096 
L 261.80943 -194.756621 
L 251.125687 -190.693437 
L 240.724908 -186.609889 
L 230.607095 -182.508 
L 220.772246 -178.389522 
L 211.220363 -174.256084 
L 201.951444 -170.109419 
L 192.965491 -165.951645 
L 184.262503 -161.785544 
L 175.842479 -157.614819 
L 167.705421 -153.444279 
L 159.851328 -149.279936 
L 152.280199 -145.129026 
L 144.992036 -140.999945 
L 137.986838 -136.902141 
L 131.264604 -132.84595 
L 124.825336 -128.842423 
L 118.669033 -124.903138 
L 112.795695 -121.040022 
L 107.205322 -117.265178 
L 101.897914 -113.590741 
L 96.873471 -110.028741 
L 92.131993 -106.591005 
L 87.67348 -103.289064 
L 83.497932 -100.134096 
L 79.605349 -97.136875 
L 75.995731 -94.30774 
L 72.669078 -91.656572 
L 69.62539 -89.19278 
L 66.864667 -86.925288 
L 64.386909 -84.862523 
L 62.192116 -83.012397 
L 60.280289 -81.382293 
L 58.651426 -79.979029 
L 57.305528 -78.808822 
L 56.242595 -77.877229 
L 55.462628 -77.189067 
L 54.965625 -76.748299 
z
" style="stroke: #da70d6; stroke-opacity: 0.1"/>
    </defs>
    <g clip-path="url(#pdc3d184fe4)">
     <use xlink:href="#m9d639f1a23" x="0" y="310.86825" style="fill: #da70d6; fill-opacity: 0.1; stroke: #da70d6; stroke-opacity: 0.1"/>
    </g>
   </g>
   <g id="FillBetweenPolyCollection_16">
    <defs>
     <path id="mc8095bb7bf" d="M 54.965625 -72.973268 
L 54.965625 -50.108872 
L 55.462628 -50.444545 
L 56.242595 -50.970417 
L 57.305528 -51.685383 
L 58.651426 -52.588028 
L 60.280289 -53.676656 
L 62.192116 -54.949307 
L 64.386909 -56.403776 
L 66.864667 -58.037629 
L 69.62539 -59.848218 
L 72.669078 -61.832694 
L 75.995731 -63.988025 
L 79.605349 -66.311005 
L 83.497932 -68.798278 
L 87.67348 -71.446356 
L 92.131993 -74.251641 
L 96.873471 -77.21046 
L 101.897914 -80.319091 
L 107.205322 -83.573806 
L 112.795695 -86.970912 
L 118.669033 -90.506799 
L 124.825336 -94.177978 
L 131.264604 -97.981133 
L 137.986838 -101.913158 
L 144.992036 -105.971181 
L 152.280199 -110.152593 
L 159.851328 -114.455047 
L 167.705421 -118.876457 
L 175.842479 -123.414976 
L 184.262503 -128.068968 
L 192.965491 -132.836967 
L 201.951444 -137.717641 
L 211.220363 -142.709743 
L 220.772246 -147.81207 
L 230.607095 -153.023421 
L 240.724908 -158.34257 
L 251.125687 -163.768227 
L 261.80943 -169.299025 
L 272.776139 -174.933496 
L 284.025813 -180.670065 
L 295.558451 -186.50704 
L 307.374055 -192.442612 
L 319.472624 -198.474853 
L 331.854157 -204.601721 
L 344.518656 -210.821066 
L 357.46612 -217.130636 
L 370.696548 -223.528083 
L 384.209942 -230.010974 
L 398.006301 -236.576797 
L 412.085625 -243.222971 
L 412.085625 -290.559419 
L 412.085625 -290.559419 
L 398.006301 -281.893726 
L 384.209942 -273.404695 
L 370.696548 -265.091247 
L 357.46612 -256.95244 
L 344.518656 -248.987477 
L 331.854157 -241.195714 
L 319.472624 -233.576662 
L 307.374055 -226.129995 
L 295.558451 -218.855555 
L 284.025813 -211.753353 
L 272.776139 -204.823569 
L 261.80943 -198.066554 
L 251.125687 -191.482822 
L 240.724908 -185.073042 
L 230.607095 -178.838025 
L 220.772246 -172.7787 
L 211.220363 -166.896096 
L 201.951444 -161.191302 
L 192.965491 -155.665439 
L 184.262503 -150.319609 
L 175.842479 -145.154853 
L 167.705421 -140.172105 
L 159.851328 -135.372144 
L 152.280199 -130.755552 
L 144.992036 -126.322687 
L 137.986838 -122.07365 
L 131.264604 -118.008285 
L 124.825336 -114.126175 
L 118.669033 -110.42666 
L 112.795695 -106.908863 
L 107.205322 -103.571723 
L 101.897914 -100.414034 
L 96.873471 -97.434486 
L 92.131993 -94.631707 
L 87.67348 -92.004293 
L 83.497932 -89.550849 
L 79.605349 -87.270009 
L 75.995731 -85.160463 
L 72.669078 -83.220969 
L 69.62539 -81.450371 
L 66.864667 -79.847601 
L 64.386909 -78.411694 
L 62.192116 -77.141786 
L 60.280289 -76.037116 
L 58.651426 -75.097033 
L 57.305528 -74.320991 
L 56.242595 -73.708553 
L 55.462628 -73.259387 
L 54.965625 -72.973268 
z
" style="stroke: #87ceeb; stroke-opacity: 0.1"/>
    </defs>
    <g clip-path="url(#pdc3d184fe4)">
     <use xlink:href="#mc8095bb7bf" x="0" y="310.86825" style="fill: #87ceeb; fill-opacity: 0.1; stroke: #87ceeb; stroke-opacity: 0.1"/>
    </g>
   </g>
   <g id="FillBetweenPolyCollection_17">
    <defs>
     <path id="m33ee16f4c4" d="M 54.965625 -80.85535 
L 54.965625 -59.662238 
L 55.462628 -60.055156 
L 56.242595 -60.670676 
L 57.305528 -61.507332 
L 58.651426 -62.563129 
L 60.280289 -63.835545 
L 62.192116 -65.321531 
L 64.386909 -67.017522 
L 66.864667 -68.919431 
L 69.62539 -71.022663 
L 72.669078 -73.322119 
L 75.995731 -75.812199 
L 79.605349 -78.486815 
L 83.497932 -81.339398 
L 87.67348 -84.362904 
L 92.131993 -87.549823 
L 96.873471 -90.892186 
L 101.897914 -94.381566 
L 107.205322 -98.009073 
L 112.795695 -101.765349 
L 118.669033 -105.64054 
L 124.825336 -109.624269 
L 131.264604 -113.705585 
L 137.986838 -117.8729 
L 144.992036 -122.113912 
L 152.280199 -126.415515 
L 159.851328 -130.763706 
L 167.705421 -135.1435 
L 175.842479 -139.538856 
L 184.262503 -143.932647 
L 192.965491 -148.306659 
L 201.951444 -152.641648 
L 211.220363 -156.917436 
L 220.772246 -161.113031 
L 230.607095 -165.206769 
L 240.724908 -169.176425 
L 251.125687 -172.999307 
L 261.80943 -176.65229 
L 272.776139 -180.111818 
L 284.025813 -183.353859 
L 295.558451 -186.35384 
L 307.374055 -189.08656 
L 319.472624 -191.526112 
L 331.854157 -193.645792 
L 344.518656 -195.418028 
L 357.46612 -196.814314 
L 370.696548 -197.805144 
L 384.209942 -198.359967 
L 398.006301 -198.447129 
L 412.085625 -198.033839 
L 412.085625 -271.002747 
L 412.085625 -271.002747 
L 398.006301 -265.162671 
L 384.209942 -259.316543 
L 370.696548 -253.471036 
L 357.46612 -247.632957 
L 344.518656 -241.809207 
L 331.854157 -236.006752 
L 319.472624 -230.232576 
L 307.374055 -224.493641 
L 295.558451 -218.796821 
L 284.025813 -213.148845 
L 272.776139 -207.556225 
L 261.80943 -202.025175 
L 251.125687 -196.561545 
L 240.724908 -191.170764 
L 230.607095 -185.857802 
L 220.772246 -180.627184 
L 211.220363 -175.483035 
L 201.951444 -170.429178 
L 192.965491 -165.46926 
L 184.262503 -160.606898 
L 175.842479 -155.84581 
L 167.705421 -151.189918 
L 159.851328 -146.643412 
L 152.280199 -142.210761 
L 144.992036 -137.896684 
L 137.986838 -133.706087 
L 131.264604 -129.643983 
L 124.825336 -125.715408 
L 118.669033 -121.925335 
L 112.795695 -118.278604 
L 107.205322 -114.779862 
L 101.897914 -111.433525 
L 96.873471 -108.243745 
L 92.131993 -105.214398 
L 87.67348 -102.349077 
L 83.497932 -99.651091 
L 79.605349 -97.123476 
L 75.995731 -94.769 
L 72.669078 -92.590179 
L 69.62539 -90.589282 
L 66.864667 -88.76835 
L 64.386909 -87.129201 
L 62.192116 -85.673442 
L 60.280289 -84.402477 
L 58.651426 -83.317515 
L 57.305528 -82.419576 
L 56.242595 -81.709495 
L 55.462628 -81.187927 
L 54.965625 -80.85535 
z
" style="stroke: #da70d6; stroke-opacity: 0.1"/>
    </defs>
    <g clip-path="url(#pdc3d184fe4)">
     <use xlink:href="#m33ee16f4c4" x="0" y="310.86825" style="fill: #da70d6; fill-opacity: 0.1; stroke: #da70d6; stroke-opacity: 0.1"/>
    </g>
   </g>
   <g id="FillBetweenPolyCollection_18">
    <defs>
     <path id="ma8a5b9c205" d="M 54.965625 -71.310304 
L 54.965625 -51.366442 
L 55.462628 -51.673181 
L 56.242595 -52.154247 
L 57.305528 -52.809217 
L 58.651426 -53.637512 
L 60.280289 -54.638382 
L 62.192116 -55.810906 
L 64.386909 -57.153978 
L 66.864667 -58.666294 
L 69.62539 -60.346341 
L 72.669078 -62.192387 
L 75.995731 -64.202459 
L 79.605349 -66.374339 
L 83.497932 -68.705545 
L 87.67348 -71.193332 
L 92.131993 -73.834687 
L 96.873471 -76.626343 
L 101.897914 -79.564799 
L 107.205322 -82.646363 
L 112.795695 -85.867206 
L 118.669033 -89.223447 
L 124.825336 -92.711243 
L 131.264604 -96.326898 
L 137.986838 -100.066983 
L 144.992036 -103.928436 
L 152.280199 -107.908653 
L 159.851328 -112.005545 
L 167.705421 -116.21756 
L 175.842479 -120.543666 
L 184.262503 -124.983299 
L 192.965491 -129.536286 
L 201.951444 -134.202753 
L 211.220363 -138.983025 
L 220.772246 -143.877538 
L 230.607095 -148.886746 
L 240.724908 -154.011055 
L 251.125687 -159.250762 
L 261.80943 -164.606012 
L 272.776139 -170.076759 
L 284.025813 -175.662748 
L 295.558451 -181.363493 
L 307.374055 -187.178266 
L 319.472624 -193.106091 
L 331.854157 -199.14574 
L 344.518656 -205.295725 
L 357.46612 -211.554305 
L 370.696548 -217.919478 
L 384.209942 -224.388986 
L 398.006301 -230.960315 
L 412.085625 -237.630695 
L 412.085625 -285.984441 
L 412.085625 -285.984441 
L 398.006301 -277.129575 
L 384.209942 -268.465149 
L 370.696548 -259.989778 
L 357.46612 -251.702304 
L 344.518656 -243.601796 
L 331.854157 -235.68755 
L 319.472624 -227.959089 
L 307.374055 -220.416167 
L 295.558451 -213.058761 
L 284.025813 -205.887075 
L 272.776139 -198.90153 
L 261.80943 -192.102763 
L 251.125687 -185.491607 
L 240.724908 -179.069082 
L 230.607095 -172.836365 
L 220.772246 -166.794757 
L 211.220363 -160.94564 
L 201.951444 -155.290417 
L 192.965491 -149.830439 
L 184.262503 -144.566923 
L 175.842479 -139.500856 
L 167.705421 -134.632897 
L 159.851328 -129.963287 
L 152.280199 -125.491768 
L 144.992036 -121.217537 
L 137.986838 -117.139222 
L 131.264604 -113.254911 
L 124.825336 -109.562206 
L 118.669033 -106.058308 
L 112.795695 -102.74013 
L 107.205322 -99.604408 
L 101.897914 -96.647808 
L 96.873471 -93.867024 
L 92.131993 -91.258859 
L 87.67348 -88.820276 
L 83.497932 -86.548446 
L 79.605349 -84.440767 
L 75.995731 -82.494875 
L 72.669078 -80.708644 
L 69.62539 -79.08018 
L 66.864667 -77.60781 
L 64.386909 -76.290072 
L 62.192116 -75.125695 
L 60.280289 -74.113593 
L 58.651426 -73.252845 
L 57.305528 -72.54269 
L 56.242595 -71.98251 
L 55.462628 -71.57183 
L 54.965625 -71.310304 
z
" style="stroke: #87ceeb; stroke-opacity: 0.1"/>
    </defs>
    <g clip-path="url(#pdc3d184fe4)">
     <use xlink:href="#ma8a5b9c205" x="0" y="310.86825" style="fill: #87ceeb; fill-opacity: 0.1; stroke: #87ceeb; stroke-opacity: 0.1"/>
    </g>
   </g>
   <g id="FillBetweenPolyCollection_19">
    <g clip-path="url(#pdc3d184fe4)">
     <use xlink:href="#m33ee16f4c4" x="0" y="310.86825" style="fill: #da70d6; fill-opacity: 0.1; stroke: #da70d6; stroke-opacity: 0.1"/>
    </g>
   </g>
   <g id="FillBetweenPolyCollection_20">
    <g clip-path="url(#pdc3d184fe4)">
     <use xlink:href="#ma8a5b9c205" x="0" y="310.86825" style="fill: #87ceeb; fill-opacity: 0.1; stroke: #87ceeb; stroke-opacity: 0.1"/>
    </g>
   </g>
   <g id="FillBetweenPolyCollection_21">
    <defs>
     <path id="m7194620996" d="M 54.965625 -83.32819 
L 54.965625 -59.557531 
L 55.462628 -59.946911 
L 56.242595 -60.556879 
L 57.305528 -61.385973 
L 58.651426 -62.432202 
L 60.280289 -63.693054 
L 62.192116 -65.165497 
L 64.386909 -66.845986 
L 66.864667 -68.730472 
L 69.62539 -70.814411 
L 72.669078 -73.092769 
L 75.995731 -75.560041 
L 79.605349 -78.210259 
L 83.497932 -81.037006 
L 87.67348 -84.033432 
L 92.131993 -87.192265 
L 96.873471 -90.50582 
L 101.897914 -93.966013 
L 107.205322 -97.564354 
L 112.795695 -101.291949 
L 118.669033 -105.139475 
L 124.825336 -109.097156 
L 131.264604 -113.154713 
L 137.986838 -117.301298 
L 144.992036 -121.525422 
L 152.280199 -125.814849 
L 159.851328 -130.156492 
L 167.705421 -134.536296 
L 175.842479 -138.93913 
L 184.262503 -143.348688 
L 192.965491 -147.747425 
L 201.951444 -152.116528 
L 211.220363 -156.435943 
L 220.772246 -160.684443 
L 230.607095 -164.839755 
L 240.724908 -168.878708 
L 251.125687 -172.777395 
L 261.80943 -176.511318 
L 272.776139 -180.055506 
L 284.025813 -183.384577 
L 295.558451 -186.472756 
L 307.374055 -189.29385 
L 319.472624 -191.821179 
L 331.854157 -194.027497 
L 344.518656 -195.884892 
L 357.46612 -197.36469 
L 370.696548 -198.437366 
L 384.209942 -199.072453 
L 398.006301 -199.238467 
L 412.085625 -198.902841 
L 412.085625 -273.632825 
L 412.085625 -273.632825 
L 398.006301 -267.790013 
L 384.209942 -261.946894 
L 370.696548 -256.110179 
L 357.46612 -250.286654 
L 344.518656 -244.483129 
L 331.854157 -238.706372 
L 319.472624 -232.963032 
L 307.374055 -227.259563 
L 295.558451 -221.602135 
L 284.025813 -215.996552 
L 272.776139 -210.448175 
L 261.80943 -204.961875 
L 251.125687 -199.542007 
L 240.724908 -194.192445 
L 230.607095 -188.916654 
L 220.772246 -183.717813 
L 211.220363 -178.598976 
L 201.951444 -173.563234 
L 192.965491 -168.613883 
L 184.262503 -163.754551 
L 175.842479 -158.989276 
L 167.705421 -154.322545 
L 159.851328 -149.75927 
L 152.280199 -145.304728 
L 144.992036 -140.964477 
L 137.986838 -136.744248 
L 131.264604 -132.649842 
L 124.825336 -128.68702 
L 118.669033 -124.861421 
L 112.795695 -121.178481 
L 107.205322 -117.643377 
L 101.897914 -114.260987 
L 96.873471 -111.035864 
L 92.131993 -107.972226 
L 87.67348 -105.073947 
L 83.497932 -102.344572 
L 79.605349 -99.787323 
L 75.995731 -97.405115 
L 72.669078 -95.200574 
L 69.62539 -93.176051 
L 66.864667 -91.333641 
L 64.386909 -89.6752 
L 62.192116 -88.202356 
L 60.280289 -86.916521 
L 58.651426 -85.818906 
L 57.305528 -84.910526 
L 56.242595 -84.192211 
L 55.462628 -83.664609 
L 54.965625 -83.32819 
z
" style="stroke: #da70d6; stroke-opacity: 0.1"/>
    </defs>
    <g clip-path="url(#pdc3d184fe4)">
     <use xlink:href="#m7194620996" x="0" y="310.86825" style="fill: #da70d6; fill-opacity: 0.1; stroke: #da70d6; stroke-opacity: 0.1"/>
    </g>
   </g>
   <g id="FillBetweenPolyCollection_22">
    <defs>
     <path id="m103364474e" d="M 54.965625 -74.116527 
L 54.965625 -51.524173 
L 55.462628 -51.827785 
L 56.242595 -52.303947 
L 57.305528 -52.952246 
L 58.651426 -53.772112 
L 60.280289 -54.762819 
L 62.192116 -55.923475 
L 64.386909 -57.253022 
L 66.864667 -58.750224 
L 69.62539 -60.413664 
L 72.669078 -62.241736 
L 75.995731 -64.232643 
L 79.605349 -66.384387 
L 83.497932 -68.694776 
L 87.67348 -71.161418 
L 92.131993 -73.781733 
L 96.873471 -76.552967 
L 101.897914 -79.47221 
L 107.205322 -82.536432 
L 112.795695 -85.742518 
L 118.669033 -89.087318 
L 124.825336 -92.567709 
L 131.264604 -96.180653 
L 137.986838 -99.923264 
L 144.992036 -103.792874 
L 152.280199 -107.78708 
L 159.851328 -111.903792 
L 167.705421 -116.141251 
L 175.842479 -120.49804 
L 184.262503 -124.973067 
L 192.965491 -129.565534 
L 201.951444 -134.274895 
L 211.220363 -139.100799 
L 220.772246 -144.043034 
L 230.607095 -149.10147 
L 240.724908 -154.275998 
L 251.125687 -159.566484 
L 261.80943 -164.972719 
L 272.776139 -170.494385 
L 284.025813 -176.131021 
L 295.558451 -181.881994 
L 307.374055 -187.746484 
L 319.472624 -193.723463 
L 331.854157 -199.811683 
L 344.518656 -206.009666 
L 357.46612 -212.3157 
L 370.696548 -218.727826 
L 384.209942 -225.243843 
L 398.006301 -231.8613 
L 412.085625 -238.577493 
L 412.085625 -289.050713 
L 412.085625 -289.050713 
L 398.006301 -280.19535 
L 384.209942 -271.532072 
L 370.696548 -263.059538 
L 357.46612 -254.776627 
L 344.518656 -246.682439 
L 331.854157 -238.776292 
L 319.472624 -231.057714 
L 307.374055 -223.526446 
L 295.558451 -216.182425 
L 284.025813 -209.025782 
L 272.776139 -202.056825 
L 261.80943 -195.276022 
L 251.125687 -188.683985 
L 240.724908 -182.281438 
L 230.607095 -176.069189 
L 220.772246 -170.048089 
L 211.220363 -164.21899 
L 201.951444 -158.582689 
L 192.965491 -153.139879 
L 184.262503 -147.891083 
L 175.842479 -142.836599 
L 167.705421 -137.976449 
L 159.851328 -133.310329 
L 152.280199 -128.837586 
L 144.992036 -124.557194 
L 137.986838 -120.46777 
L 131.264604 -116.56759 
L 124.825336 -112.854636 
L 118.669033 -109.326645 
L 112.795695 -105.981176 
L 107.205322 -102.815673 
L 101.897914 -99.827526 
L 96.873471 -97.014134 
L 92.131993 -94.37295 
L 87.67348 -91.901524 
L 83.497932 -89.597532 
L 79.605349 -87.458795 
L 75.995731 -85.483299 
L 72.669078 -83.669198 
L 69.62539 -82.014817 
L 66.864667 -80.51865 
L 64.386909 -79.179357 
L 62.192116 -77.995762 
L 60.280289 -76.96684 
L 58.651426 -76.091715 
L 57.305528 -75.369653 
L 56.242595 -74.800058 
L 55.462628 -74.382462 
L 54.965625 -74.116527 
z
" style="stroke: #87ceeb; stroke-opacity: 0.1"/>
    </defs>
    <g clip-path="url(#pdc3d184fe4)">
     <use xlink:href="#m103364474e" x="0" y="310.86825" style="fill: #87ceeb; fill-opacity: 0.1; stroke: #87ceeb; stroke-opacity: 0.1"/>
    </g>
   </g>
   <g id="FillBetweenPolyCollection_23">
    <g clip-path="url(#pdc3d184fe4)">
     <use xlink:href="#m7194620996" x="0" y="310.86825" style="fill: #da70d6; fill-opacity: 0.1; stroke: #da70d6; stroke-opacity: 0.1"/>
    </g>
   </g>
   <g id="FillBetweenPolyCollection_24">
    <g clip-path="url(#pdc3d184fe4)">
     <use xlink:href="#m103364474e" x="0" y="310.86825" style="fill: #87ceeb; fill-opacity: 0.1; stroke: #87ceeb; stroke-opacity: 0.1"/>
    </g>
   </g>
   <g id="FillBetweenPolyCollection_25">
    <defs>
     <path id="m0c838a9e72" d="M 54.965625 -75.519016 
L 54.965625 -53.001071 
L 55.462628 -53.509557 
L 56.242595 -54.30242 
L 57.305528 -55.373744 
L 58.651426 -56.71621 
L 60.280289 -58.321302 
L 62.192116 -60.17947 
L 64.386909 -62.280281 
L 66.864667 -64.612543 
L 69.62539 -67.164416 
L 72.669078 -69.923516 
L 75.995731 -72.877002 
L 79.605349 -76.011658 
L 83.497932 -79.313961 
L 87.67348 -82.770138 
L 92.131993 -86.366209 
L 96.873471 -90.088021 
L 101.897914 -93.921258 
L 107.205322 -97.851432 
L 112.795695 -101.863852 
L 118.669033 -105.943562 
L 124.825336 -110.075252 
L 131.264604 -114.243141 
L 137.986838 -118.430821 
L 144.992036 -122.621087 
L 152.280199 -126.795746 
L 159.851328 -130.93543 
L 167.705421 -135.019445 
L 175.842479 -139.025679 
L 184.262503 -142.930618 
L 192.965491 -146.70949 
L 201.951444 -150.336554 
L 211.220363 -153.785504 
L 220.772246 -157.029932 
L 230.607095 -160.04376 
L 240.724908 -162.801573 
L 251.125687 -165.278797 
L 261.80943 -167.45172 
L 272.776139 -169.297397 
L 284.025813 -170.793484 
L 295.558451 -171.918046 
L 307.374055 -172.649392 
L 319.472624 -172.965935 
L 331.854157 -172.846092 
L 344.518656 -172.268223 
L 357.46612 -171.2106 
L 370.696548 -169.651386 
L 384.209942 -167.568643 
L 398.006301 -164.94034 
L 412.085625 -161.74436 
L 412.085625 -248.508841 
L 412.085625 -248.508841 
L 398.006301 -243.910368 
L 384.209942 -239.351292 
L 370.696548 -234.823461 
L 357.46612 -230.320024 
L 344.518656 -225.835394 
L 331.854157 -221.365199 
L 319.472624 -216.906228 
L 307.374055 -212.456362 
L 295.558451 -208.014485 
L 284.025813 -203.580362 
L 272.776139 -199.154485 
L 261.80943 -194.737879 
L 251.125687 -190.331872 
L 240.724908 -185.93785 
L 230.607095 -181.557033 
L 220.772246 -177.190319 
L 211.220363 -172.838252 
L 201.951444 -168.501138 
L 192.965491 -164.17932 
L 184.262503 -159.873557 
L 175.842479 -155.585423 
L 167.705421 -151.317659 
L 159.851328 -147.074401 
L 152.280199 -142.861269 
L 144.992036 -138.685326 
L 137.986838 -134.554929 
L 131.264604 -130.479522 
L 124.825336 -126.469391 
L 118.669033 -122.535421 
L 112.795695 -118.688863 
L 107.205322 -114.94113 
L 101.897914 -111.303615 
L 96.873471 -107.787553 
L 92.131993 -104.403893 
L 87.67348 -101.163217 
L 83.497932 -98.075664 
L 79.605349 -95.150888 
L 75.995731 -92.398019 
L 72.669078 -89.825643 
L 69.62539 -87.441792 
L 66.864667 -85.253939 
L 64.386909 -83.268995 
L 62.192116 -81.493312 
L 60.280289 -79.932686 
L 58.651426 -78.59236 
L 57.305528 -77.477018 
L 56.242595 -76.590775 
L 55.462628 -75.937151 
L 54.965625 -75.519016 
z
" style="stroke: #da70d6; stroke-opacity: 0.1"/>
    </defs>
    <g clip-path="url(#pdc3d184fe4)">
     <use xlink:href="#m0c838a9e72" x="0" y="310.86825" style="fill: #da70d6; fill-opacity: 0.1; stroke: #da70d6; stroke-opacity: 0.1"/>
    </g>
   </g>
   <g id="FillBetweenPolyCollection_26">
    <defs>
     <path id="mf2bced8652" d="M 54.965625 -70.609627 
L 54.965625 -49.936481 
L 55.462628 -50.266376 
L 56.242595 -50.783176 
L 57.305528 -51.485761 
L 58.651426 -52.372686 
L 60.280289 -53.4422 
L 62.192116 -54.69226 
L 64.386909 -56.120547 
L 66.864667 -57.724469 
L 69.62539 -59.501168 
L 72.669078 -61.447529 
L 75.995731 -63.560184 
L 79.605349 -65.835518 
L 83.497932 -68.26969 
L 87.67348 -70.858646 
L 92.131993 -73.598154 
L 96.873471 -76.483845 
L 101.897914 -79.511269 
L 107.205322 -82.675971 
L 112.795695 -85.973573 
L 118.669033 -89.399871 
L 124.825336 -92.950937 
L 131.264604 -96.623205 
L 137.986838 -100.413553 
L 144.992036 -104.319347 
L 152.280199 -108.33846 
L 159.851328 -112.469253 
L 167.705421 -116.710521 
L 175.842479 -121.06142 
L 184.262503 -125.521374 
L 192.965491 -130.089976 
L 201.951444 -134.766896 
L 211.220363 -139.551796 
L 220.772246 -144.444257 
L 230.607095 -149.443726 
L 240.724908 -154.549472 
L 251.125687 -159.76056 
L 261.80943 -165.075829 
L 272.776139 -170.493891 
L 284.025813 -176.013125 
L 295.558451 -181.631685 
L 307.374055 -187.347508 
L 319.472624 -193.158327 
L 331.854157 -199.061683 
L 344.518656 -205.054944 
L 357.46612 -211.135319 
L 370.696548 -217.299876 
L 384.209942 -223.545554 
L 398.006301 -229.869186 
L 412.085625 -236.267508 
L 412.085625 -285.244436 
L 412.085625 -285.244436 
L 398.006301 -276.523245 
L 384.209942 -267.992514 
L 370.696548 -259.649947 
L 357.46612 -251.493414 
L 344.518656 -243.520973 
L 331.854157 -235.730876 
L 319.472624 -228.121584 
L 307.374055 -220.691783 
L 295.558451 -213.440395 
L 284.025813 -206.36659 
L 272.776139 -199.4698 
L 261.80943 -192.749727 
L 251.125687 -186.206345 
L 240.724908 -179.839911 
L 230.607095 -173.650951 
L 220.772246 -167.640259 
L 211.220363 -161.808867 
L 201.951444 -156.158021 
L 192.965491 -150.689132 
L 184.262503 -145.40372 
L 175.842479 -140.303334 
L 167.705421 -135.389469 
L 159.851328 -130.663468 
L 152.280199 -126.126418 
L 144.992036 -121.779058 
L 137.986838 -117.621695 
L 131.264604 -113.654155 
L 124.825336 -109.875754 
L 118.669033 -106.285316 
L 112.795695 -102.881212 
L 107.205322 -99.661437 
L 101.897914 -96.623695 
L 96.873471 -93.765495 
L 92.131993 -91.084241 
L 87.67348 -88.577316 
L 83.497932 -86.242145 
L 79.605349 -84.076253 
L 75.995731 -82.077298 
L 72.669078 -80.243096 
L 69.62539 -78.571638 
L 66.864667 -77.061098 
L 64.386909 -75.709828 
L 62.192116 -74.516365 
L 60.280289 -73.479423 
L 58.651426 -72.597891 
L 57.305528 -71.870831 
L 56.242595 -71.297474 
L 55.462628 -70.877217 
L 54.965625 -70.609627 
z
" style="stroke: #87ceeb; stroke-opacity: 0.1"/>
    </defs>
    <g clip-path="url(#pdc3d184fe4)">
     <use xlink:href="#mf2bced8652" x="0" y="310.86825" style="fill: #87ceeb; fill-opacity: 0.1; stroke: #87ceeb; stroke-opacity: 0.1"/>
    </g>
   </g>
   <g id="FillBetweenPolyCollection_27">
    <defs>
     <path id="m6dcaa6efe4" d="M 54.965625 -75.044146 
L 54.965625 -52.457345 
L 55.462628 -52.97139 
L 56.242595 -53.772794 
L 57.305528 -54.855449 
L 58.651426 -56.211807 
L 60.280289 -57.833099 
L 62.192116 -59.709503 
L 64.386909 -61.830302 
L 66.864667 -64.184003 
L 69.62539 -66.758464 
L 72.669078 -69.540986 
L 75.995731 -72.518413 
L 79.605349 -75.67721 
L 83.497932 -79.003532 
L 87.67348 -82.483286 
L 92.131993 -86.102181 
L 96.873471 -89.845757 
L 101.897914 -93.699409 
L 107.205322 -97.648382 
L 112.795695 -101.677751 
L 118.669033 -105.772369 
L 124.825336 -109.91679 
L 131.264604 -114.095166 
L 137.986838 -118.291104 
L 144.992036 -122.48751 
L 152.280199 -126.666407 
L 159.851328 -130.808765 
L 167.705421 -134.89434 
L 175.842479 -138.901588 
L 184.262503 -142.807661 
L 192.965491 -146.588524 
L 201.951444 -150.219204 
L 211.220363 -153.674158 
L 220.772246 -156.927693 
L 230.607095 -159.954381 
L 240.724908 -162.729381 
L 251.125687 -165.228635 
L 261.80943 -167.428917 
L 272.776139 -169.307766 
L 284.025813 -170.843348 
L 295.558451 -172.01429 
L 307.374055 -172.799525 
L 319.472624 -173.178156 
L 331.854157 -173.129369 
L 344.518656 -172.63236 
L 357.46612 -171.666306 
L 370.696548 -170.210345 
L 384.209942 -168.243577 
L 398.006301 -165.74507 
L 412.085625 -162.693866 
L 412.085625 -249.140282 
L 412.085625 -249.140282 
L 398.006301 -244.404716 
L 384.209942 -239.727319 
L 370.696548 -235.098414 
L 357.46612 -230.509662 
L 344.518656 -225.95402 
L 331.854157 -221.425695 
L 319.472624 -216.920087 
L 307.374055 -212.433717 
L 295.558451 -207.964137 
L 284.025813 -203.509814 
L 272.776139 -199.069969 
L 261.80943 -194.6444 
L 251.125687 -190.233262 
L 240.724908 -185.836843 
L 230.607095 -181.455372 
L 220.772246 -177.088892 
L 211.220363 -172.737255 
L 201.951444 -168.400251 
L 192.965491 -164.077881 
L 184.262503 -159.77071 
L 175.842479 -155.480228 
L 167.705421 -151.209162 
L 159.851328 -146.961662 
L 152.280199 -142.743364 
L 144.992036 -138.561331 
L 137.986838 -134.423897 
L 131.264604 -130.340458 
L 124.825336 -126.321239 
L 118.669033 -122.377056 
L 112.795695 -118.519093 
L 107.205322 -114.75871 
L 101.897914 -111.107275 
L 96.873471 -107.576021 
L 92.131993 -104.175941 
L 87.67348 -100.9177 
L 83.497932 -97.811566 
L 79.605349 -94.867365 
L 75.995731 -92.094447 
L 72.669078 -89.501656 
L 69.62539 -87.097319 
L 66.864667 -84.889233 
L 64.386909 -82.884654 
L 62.192116 -81.090299 
L 60.280289 -79.512332 
L 58.651426 -78.156363 
L 57.305528 -77.027432 
L 56.242595 -76.129989 
L 55.462628 -75.467853 
L 54.965625 -75.044146 
z
" style="stroke: #da70d6; stroke-opacity: 0.1"/>
    </defs>
    <g clip-path="url(#pdc3d184fe4)">
     <use xlink:href="#m6dcaa6efe4" x="0" y="310.86825" style="fill: #da70d6; fill-opacity: 0.1; stroke: #da70d6; stroke-opacity: 0.1"/>
    </g>
   </g>
   <g id="FillBetweenPolyCollection_28">
    <defs>
     <path id="m1fe1130d77" d="M 54.965625 -70.832776 
L 54.965625 -50.17892 
L 55.462628 -50.505098 
L 56.242595 -51.016141 
L 57.305528 -51.711013 
L 58.651426 -52.588375 
L 60.280289 -53.646599 
L 62.192116 -54.883783 
L 64.386909 -56.297757 
L 66.864667 -57.88609 
L 69.62539 -59.646099 
L 72.669078 -61.574847 
L 75.995731 -63.669149 
L 79.605349 -65.925584 
L 83.497932 -68.340497 
L 87.67348 -70.910025 
L 92.131993 -73.630119 
L 96.873471 -76.496588 
L 101.897914 -79.505149 
L 107.205322 -82.651499 
L 112.795695 -85.931398 
L 118.669033 -89.34076 
L 124.825336 -92.875758 
L 131.264604 -96.532913 
L 137.986838 -100.309174 
L 144.992036 -104.201974 
L 152.280199 -108.209249 
L 159.851328 -112.329423 
L 167.705421 -116.561367 
L 175.842479 -120.904319 
L 184.262503 -125.357802 
L 192.965491 -129.921518 
L 201.951444 -134.595262 
L 211.220363 -139.378829 
L 220.772246 -144.271945 
L 230.607095 -149.274206 
L 240.724908 -154.385035 
L 251.125687 -159.603653 
L 261.80943 -164.929054 
L 272.776139 -170.360005 
L 284.025813 -175.895033 
L 295.558451 -181.532435 
L 307.374055 -187.270283 
L 319.472624 -193.106437 
L 331.854157 -199.038553 
L 344.518656 -205.0641 
L 357.46612 -211.180376 
L 370.696548 -217.38452 
L 384.209942 -223.673527 
L 398.006301 -230.044265 
L 412.085625 -236.493486 
L 412.085625 -285.472809 
L 412.085625 -285.472809 
L 398.006301 -276.702775 
L 384.209942 -268.125779 
L 370.696548 -259.739601 
L 357.46612 -251.542182 
L 344.518656 -243.531645 
L 331.854157 -235.7063 
L 319.472624 -228.064661 
L 307.374055 -220.605457 
L 295.558451 -213.327648 
L 284.025813 -206.23043 
L 272.776139 -199.313252 
L 261.80943 -192.575823 
L 251.125687 -186.018113 
L 240.724908 -179.640359 
L 230.607095 -173.44306 
L 220.772246 -167.42696 
L 211.220363 -161.593032 
L 201.951444 -155.942442 
L 192.965491 -150.476505 
L 184.262503 -145.196619 
L 175.842479 -140.104196 
L 167.705421 -135.200569 
L 159.851328 -130.486896 
L 152.280199 -125.964058 
L 144.992036 -121.63257 
L 137.986838 -117.492505 
L 131.264604 -113.543443 
L 124.825336 -109.784452 
L 118.669033 -106.214114 
L 112.795695 -102.830568 
L 107.205322 -99.631593 
L 101.897914 -96.61469 
L 96.873471 -93.777188 
L 92.131993 -91.116324 
L 87.67348 -88.629333 
L 83.497932 -86.313506 
L 79.605349 -84.166245 
L 75.995731 -82.185093 
L 72.669078 -80.367763 
L 69.62539 -78.712149 
L 66.864667 -77.21633 
L 64.386909 -75.878573 
L 62.192116 -74.697331 
L 60.280289 -73.671239 
L 58.651426 -72.799115 
L 57.305528 -72.07995 
L 56.242595 -71.512913 
L 55.462628 -71.097349 
L 54.965625 -70.832776 
z
" style="stroke: #87ceeb; stroke-opacity: 0.1"/>
    </defs>
    <g clip-path="url(#pdc3d184fe4)">
     <use xlink:href="#m1fe1130d77" x="0" y="310.86825" style="fill: #87ceeb; fill-opacity: 0.1; stroke: #87ceeb; stroke-opacity: 0.1"/>
    </g>
   </g>
   <g id="FillBetweenPolyCollection_29">
    <defs>
     <path id="mfec8050883" d="M 54.965625 -77.575766 
L 54.965625 -52.523178 
L 55.462628 -53.027302 
L 56.242595 -53.813371 
L 57.305528 -54.875529 
L 58.651426 -56.206531 
L 60.280289 -57.797945 
L 62.192116 -59.640325 
L 64.386909 -61.723348 
L 66.864667 -64.035949 
L 69.62539 -66.566427 
L 72.669078 -69.302553 
L 75.995731 -72.231653 
L 79.605349 -75.340693 
L 83.497932 -78.616341 
L 87.67348 -82.045029 
L 92.131993 -85.612991 
L 96.873471 -89.306298 
L 101.897914 -93.110867 
L 107.205322 -97.012457 
L 112.795695 -100.996644 
L 118.669033 -105.048775 
L 124.825336 -109.153893 
L 131.264604 -113.296645 
L 137.986838 -117.461158 
L 144.992036 -121.6309 
L 152.280199 -125.788517 
L 159.851328 -129.915669 
L 167.705421 -133.992869 
L 175.842479 -137.999348 
L 184.262503 -141.912978 
L 192.965491 -145.71027 
L 201.951444 -149.366475 
L 211.220363 -152.855801 
L 220.772246 -156.151732 
L 230.607095 -159.227413 
L 240.724908 -162.056049 
L 251.125687 -164.611254 
L 261.80943 -166.867305 
L 272.776139 -168.799271 
L 284.025813 -170.383025 
L 295.558451 -171.595172 
L 307.374055 -172.412912 
L 319.472624 -172.813898 
L 331.854157 -172.77609 
L 344.518656 -172.277634 
L 357.46612 -171.296773 
L 370.696548 -169.811775 
L 384.209942 -167.800896 
L 398.006301 -165.24235 
L 412.085625 -162.114299 
L 412.085625 -250.630376 
L 412.085625 -250.630376 
L 398.006301 -246.032743 
L 384.209942 -241.47958 
L 370.696548 -236.96295 
L 357.46612 -232.47619 
L 344.518656 -228.01384 
L 331.854157 -223.571563 
L 319.472624 -219.146049 
L 307.374055 -214.734893 
L 295.558451 -210.336444 
L 284.025813 -205.949627 
L 272.776139 -201.573748 
L 261.80943 -197.208286 
L 251.125687 -192.852704 
L 240.724908 -188.506316 
L 230.607095 -184.168243 
L 220.772246 -179.837486 
L 211.220363 -175.513118 
L 201.951444 -171.194579 
L 192.965491 -166.882014 
L 184.262503 -162.576606 
L 175.842479 -158.28083 
L 167.705421 -153.99862 
L 159.851328 -149.735408 
L 152.280199 -145.498068 
L 144.992036 -141.29478 
L 137.986838 -137.134841 
L 131.264604 -133.028446 
L 124.825336 -128.98647 
L 118.669033 -125.020245 
L 112.795695 -121.14137 
L 107.205322 -117.361526 
L 101.897914 -113.69233 
L 96.873471 -110.145204 
L 92.131993 -106.731271 
L 87.67348 -103.46127 
L 83.497932 -100.345493 
L 79.605349 -97.393736 
L 75.995731 -94.615268 
L 72.669078 -92.018805 
L 69.62539 -89.612499 
L 66.864667 -87.40393 
L 64.386909 -85.40011 
L 62.192116 -83.607478 
L 60.280289 -82.031912 
L 58.651426 -80.678721 
L 57.305528 -79.552651 
L 56.242595 -78.657869 
L 55.462628 -77.997939 
L 54.965625 -77.575766 
z
" style="stroke: #da70d6; stroke-opacity: 0.1"/>
    </defs>
    <g clip-path="url(#pdc3d184fe4)">
     <use xlink:href="#mfec8050883" x="0" y="310.86825" style="fill: #da70d6; fill-opacity: 0.1; stroke: #da70d6; stroke-opacity: 0.1"/>
    </g>
   </g>
   <g id="FillBetweenPolyCollection_30">
    <defs>
     <path id="ma25d095940" d="M 54.965625 -73.371926 
L 54.965625 -50.089092 
L 55.462628 -50.415132 
L 56.242595 -50.925908 
L 57.305528 -51.620327 
L 58.651426 -52.496986 
L 60.280289 -53.554188 
L 62.192116 -54.789965 
L 64.386909 -56.202092 
L 66.864667 -57.788103 
L 69.62539 -59.545304 
L 72.669078 -61.470787 
L 75.995731 -63.561446 
L 79.605349 -65.813994 
L 83.497932 -68.224983 
L 87.67348 -70.790832 
L 92.131993 -73.507857 
L 96.873471 -76.372306 
L 101.897914 -79.380406 
L 107.205322 -82.528411 
L 112.795695 -85.81266 
L 118.669033 -89.229628 
L 124.825336 -92.775983 
L 131.264604 -96.44864 
L 137.986838 -100.244792 
L 144.992036 -104.161944 
L 152.280199 -108.197919 
L 159.851328 -112.350848 
L 167.705421 -116.619152 
L 175.842479 -121.001496 
L 184.262503 -125.496744 
L 192.965491 -130.103902 
L 201.951444 -134.822058 
L 211.220363 -139.650329 
L 220.772246 -144.587804 
L 230.607095 -149.633505 
L 240.724908 -154.786344 
L 251.125687 -160.045095 
L 261.80943 -165.408373 
L 272.776139 -170.874617 
L 284.025813 -176.442085 
L 295.558451 -182.108846 
L 307.374055 -187.872788 
L 319.472624 -193.731618 
L 331.854157 -199.682872 
L 344.518656 -205.723925 
L 357.46612 -211.852008 
L 370.696548 -218.064211 
L 384.209942 -224.357506 
L 398.006301 -230.728758 
L 412.085625 -237.174736 
L 412.085625 -288.269732 
L 412.085625 -288.269732 
L 398.006301 -279.546105 
L 384.209942 -271.014526 
L 370.696548 -262.67271 
L 357.46612 -254.518539 
L 344.518656 -246.550077 
L 331.854157 -238.765577 
L 319.472624 -231.163496 
L 307.374055 -223.742503 
L 295.558451 -216.501489 
L 284.025813 -209.439574 
L 272.776139 -202.556111 
L 261.80943 -195.850692 
L 251.125687 -189.323144 
L 240.724908 -182.973522 
L 230.607095 -176.802102 
L 220.772246 -170.809358 
L 211.220363 -164.995938 
L 201.951444 -159.362633 
L 192.965491 -153.910336 
L 184.262503 -148.639991 
L 175.842479 -143.55254 
L 167.705421 -138.64886 
L 159.851328 -133.929707 
L 152.280199 -129.39565 
L 144.992036 -125.047022 
L 137.986838 -120.883877 
L 131.264604 -116.905962 
L 124.825336 -113.112704 
L 118.669033 -109.503216 
L 112.795695 -106.076323 
L 107.205322 -102.83059 
L 101.897914 -99.764376 
L 96.873471 -96.875879 
L 92.131993 -94.163191 
L 87.67348 -91.624344 
L 83.497932 -89.257361 
L 79.605349 -87.06029 
L 75.995731 -85.031238 
L 72.669078 -83.168399 
L 69.62539 -81.470068 
L 66.864667 -79.93466 
L 64.386909 -78.56072 
L 62.192116 -77.34693 
L 60.280289 -76.292114 
L 58.651426 -75.395242 
L 57.305528 -74.655435 
L 56.242595 -74.071967 
L 55.462628 -73.644269 
L 54.965625 -73.371926 
z
" style="stroke: #87ceeb; stroke-opacity: 0.1"/>
    </defs>
    <g clip-path="url(#pdc3d184fe4)">
     <use xlink:href="#ma25d095940" x="0" y="310.86825" style="fill: #87ceeb; fill-opacity: 0.1; stroke: #87ceeb; stroke-opacity: 0.1"/>
    </g>
   </g>
   <g id="FillBetweenPolyCollection_31">
    <defs>
     <path id="m06f16e895b" d="M 54.965625 -77.096427 
L 54.965625 -51.986625 
L 55.462628 -52.496291 
L 56.242595 -53.290874 
L 57.305528 -54.364319 
L 58.651426 -55.709151 
L 60.280289 -57.316681 
L 62.192116 -59.177185 
L 64.386909 -61.280049 
L 66.864667 -63.613905 
L 69.62539 -66.166742 
L 72.669078 -68.926012 
L 75.995731 -71.878723 
L 79.605349 -75.01152 
L 83.497932 -78.310754 
L 87.67348 -81.762542 
L 92.131993 -85.352817 
L 96.873471 -89.067358 
L 101.897914 -92.891814 
L 107.205322 -96.811703 
L 112.795695 -100.812394 
L 118.669033 -104.879074 
L 124.825336 -108.996679 
L 131.264604 -113.149814 
L 137.986838 -117.322642 
L 144.992036 -121.498746 
L 152.280199 -125.660985 
L 159.851328 -129.791325 
L 167.705421 -133.870689 
L 175.842479 -137.878813 
L 184.262503 -141.794164 
L 192.965491 -145.593919 
L 201.951444 -149.254043 
L 211.220363 -152.749478 
L 220.772246 -156.05443 
L 230.607095 -159.142732 
L 240.724908 -161.988225 
L 251.125687 -164.565105 
L 261.80943 -166.848191 
L 272.776139 -168.813075 
L 284.025813 -170.436159 
L 295.558451 -171.694603 
L 307.374055 -172.56622 
L 319.472624 -173.029331 
L 331.854157 -173.062639 
L 344.518656 -172.645105 
L 357.46612 -171.755861 
L 370.696548 -170.374135 
L 384.209942 -168.479211 
L 398.006301 -166.050395 
L 412.085625 -163.067005 
L 412.085625 -251.246266 
L 412.085625 -251.246266 
L 398.006301 -246.512646 
L 384.209942 -241.842297 
L 370.696548 -237.225749 
L 357.46612 -232.654839 
L 344.518656 -228.122636 
L 331.854157 -223.623365 
L 319.472624 -219.152305 
L 307.374055 -214.705666 
L 295.558451 -210.280439 
L 284.025813 -205.874228 
L 272.776139 -201.485051 
L 261.80943 -197.111156 
L 251.125687 -192.750847 
L 240.724908 -188.402381 
L 230.607095 -184.063943 
L 220.772246 -179.733746 
L 211.220363 -175.41023 
L 201.951444 -171.092361 
L 192.965491 -166.779948 
L 184.262503 -162.473953 
L 175.842479 -158.176715 
L 167.705421 -153.892083 
L 159.851328 -149.625435 
L 152.280199 -145.383601 
L 144.992036 -141.17472 
L 137.986838 -137.00804 
L 131.264604 -132.893706 
L 124.825336 -128.842539 
L 118.669033 -124.865824 
L 112.795695 -120.975122 
L 107.205322 -117.182095 
L 101.897914 -113.498366 
L 96.873471 -109.935389 
L 92.131993 -106.504357 
L 87.67348 -103.216116 
L 83.497932 -100.081105 
L 79.605349 -97.109309 
L 75.995731 -94.310224 
L 72.669078 -91.692829 
L 69.62539 -89.265573 
L 66.864667 -87.036361 
L 64.386909 -85.01255 
L 62.192116 -83.20094 
L 60.280289 -81.607772 
L 58.651426 -80.238724 
L 57.305528 -79.098891 
L 56.242595 -78.192773 
L 55.462628 -77.524233 
L 54.965625 -77.096427 
z
" style="stroke: #da70d6; stroke-opacity: 0.1"/>
    </defs>
    <g clip-path="url(#pdc3d184fe4)">
     <use xlink:href="#m06f16e895b" x="0" y="310.86825" style="fill: #da70d6; fill-opacity: 0.1; stroke: #da70d6; stroke-opacity: 0.1"/>
    </g>
   </g>
   <g id="FillBetweenPolyCollection_32">
    <defs>
     <path id="mde0a8bb7d1" d="M 54.965625 -73.603206 
L 54.965625 -50.344714 
L 55.462628 -50.667063 
L 56.242595 -51.17212 
L 57.305528 -51.858878 
L 58.651426 -52.726036 
L 60.280289 -53.772018 
L 62.192116 -54.994991 
L 64.386909 -56.392878 
L 66.864667 -57.96337 
L 69.62539 -59.703939 
L 72.669078 -61.61185 
L 75.995731 -63.684177 
L 79.605349 -65.917811 
L 83.497932 -68.30949 
L 87.67348 -70.855811 
L 92.131993 -73.553269 
L 96.873471 -76.398284 
L 101.897914 -79.387248 
L 107.205322 -82.516571 
L 112.795695 -85.782732 
L 118.669033 -89.182339 
L 124.825336 -92.712182 
L 131.264604 -96.369279 
L 137.986838 -100.150925 
L 144.992036 -104.054713 
L 152.280199 -108.078552 
L 159.851328 -112.22066 
L 167.705421 -116.479541 
L 175.842479 -120.853952 
L 184.262503 -125.342853 
L 192.965491 -129.945354 
L 201.951444 -134.660656 
L 211.220363 -139.487994 
L 220.772246 -144.426587 
L 230.607095 -149.47559 
L 240.724908 -154.634051 
L 251.125687 -159.900887 
L 261.80943 -165.274855 
L 272.776139 -170.754536 
L 284.025813 -176.338327 
L 295.558451 -182.024433 
L 307.374055 -187.810871 
L 319.472624 -193.695468 
L 331.854157 -199.675871 
L 344.518656 -205.749558 
L 357.46612 -211.913843 
L 370.696548 -218.165889 
L 384.209942 -224.502724 
L 398.006301 -230.921248 
L 412.085625 -237.418249 
L 412.085625 -288.511059 
L 412.085625 -288.511059 
L 398.006301 -279.739193 
L 384.209942 -271.161954 
L 370.696548 -262.77713 
L 357.46612 -254.582677 
L 344.518656 -246.576721 
L 331.854157 -238.757576 
L 319.472624 -231.123748 
L 307.374055 -223.673949 
L 295.558451 -216.407102 
L 284.025813 -209.32235 
L 272.776139 -202.419059 
L 261.80943 -195.696821 
L 251.125687 -189.155448 
L 240.724908 -182.794968 
L 230.607095 -176.615614 
L 220.772246 -170.6178 
L 211.220363 -164.8021 
L 201.951444 -159.169211 
L 192.965491 -153.719914 
L 184.262503 -148.455021 
L 175.842479 -143.375327 
L 167.705421 -138.481542 
L 159.851328 -133.774239 
L 152.280199 -129.253789 
L 144.992036 -124.92032 
L 137.986838 -120.773669 
L 131.264604 -116.813363 
L 124.825336 -113.038611 
L 118.669033 -109.448312 
L 112.795695 -106.041082 
L 107.205322 -102.815292 
L 101.897914 -99.769113 
L 96.873471 -96.900571 
L 92.131993 -94.207597 
L 87.67348 -91.688077 
L 83.497932 -89.339894 
L 79.605349 -87.160972 
L 75.995731 -85.1493 
L 72.669078 -83.302959 
L 69.62539 -81.620143 
L 66.864667 -80.099171 
L 64.386909 -78.738494 
L 62.192116 -77.536709 
L 60.280289 -76.492559 
L 58.651426 -75.60494 
L 57.305528 -74.872902 
L 56.242595 -74.295657 
L 55.462628 -73.872578 
L 54.965625 -73.603206 
z
" style="stroke: #87ceeb; stroke-opacity: 0.1"/>
    </defs>
    <g clip-path="url(#pdc3d184fe4)">
     <use xlink:href="#mde0a8bb7d1" x="0" y="310.86825" style="fill: #87ceeb; fill-opacity: 0.1; stroke: #87ceeb; stroke-opacity: 0.1"/>
    </g>
   </g>
   <g id="matplotlib.axis_1">
    <g id="xtick_1">
     <g id="line2d_1">
      <defs>
       <path id="m5b967dd21a" d="M 0 0 
L 0 3.5 
" style="stroke: #000000; stroke-width: 0.8"/>
      </defs>
      <g>
       <use xlink:href="#m5b967dd21a" x="114.805208" y="273.312" style="stroke: #000000; stroke-width: 0.8"/>
      </g>
     </g>
     <g id="text_1">
      <!-- 0.02 -->
      <g transform="translate(103.672395 287.910438) scale(0.1 -0.1)">
       <defs>
        <path id="DejaVuSans-30" d="M 2034 4250 
Q 1547 4250 1301 3770 
Q 1056 3291 1056 2328 
Q 1056 1369 1301 889 
Q 1547 409 2034 409 
Q 2525 409 2770 889 
Q 3016 1369 3016 2328 
Q 3016 3291 2770 3770 
Q 2525 4250 2034 4250 
z
M 2034 4750 
Q 2819 4750 3233 4129 
Q 3647 3509 3647 2328 
Q 3647 1150 3233 529 
Q 2819 -91 2034 -91 
Q 1250 -91 836 529 
Q 422 1150 422 2328 
Q 422 3509 836 4129 
Q 1250 4750 2034 4750 
z
" transform="scale(0.015625)"/>
        <path id="DejaVuSans-2e" d="M 684 794 
L 1344 794 
L 1344 0 
L 684 0 
L 684 794 
z
" transform="scale(0.015625)"/>
        <path id="DejaVuSans-32" d="M 1228 531 
L 3431 531 
L 3431 0 
L 469 0 
L 469 531 
Q 828 903 1448 1529 
Q 2069 2156 2228 2338 
Q 2531 2678 2651 2914 
Q 2772 3150 2772 3378 
Q 2772 3750 2511 3984 
Q 2250 4219 1831 4219 
Q 1534 4219 1204 4116 
Q 875 4013 500 3803 
L 500 4441 
Q 881 4594 1212 4672 
Q 1544 4750 1819 4750 
Q 2544 4750 2975 4387 
Q 3406 4025 3406 3419 
Q 3406 3131 3298 2873 
Q 3191 2616 2906 2266 
Q 2828 2175 2409 1742 
Q 1991 1309 1228 531 
z
" transform="scale(0.015625)"/>
       </defs>
       <use xlink:href="#DejaVuSans-30"/>
       <use xlink:href="#DejaVuSans-2e" transform="translate(63.623047 0)"/>
       <use xlink:href="#DejaVuSans-30" transform="translate(95.410156 0)"/>
       <use xlink:href="#DejaVuSans-32" transform="translate(159.033203 0)"/>
      </g>
     </g>
    </g>
    <g id="xtick_2">
     <g id="line2d_2">
      <g>
       <use xlink:href="#m5b967dd21a" x="174.868131" y="273.312" style="stroke: #000000; stroke-width: 0.8"/>
      </g>
     </g>
     <g id="text_2">
      <!-- 0.04 -->
      <g transform="translate(163.735318 287.910438) scale(0.1 -0.1)">
       <defs>
        <path id="DejaVuSans-34" d="M 2419 4116 
L 825 1625 
L 2419 1625 
L 2419 4116 
z
M 2253 4666 
L 3047 4666 
L 3047 1625 
L 3713 1625 
L 3713 1100 
L 3047 1100 
L 3047 0 
L 2419 0 
L 2419 1100 
L 313 1100 
L 313 1709 
L 2253 4666 
z
" transform="scale(0.015625)"/>
       </defs>
       <use xlink:href="#DejaVuSans-30"/>
       <use xlink:href="#DejaVuSans-2e" transform="translate(63.623047 0)"/>
       <use xlink:href="#DejaVuSans-30" transform="translate(95.410156 0)"/>
       <use xlink:href="#DejaVuSans-34" transform="translate(159.033203 0)"/>
      </g>
     </g>
    </g>
    <g id="xtick_3">
     <g id="line2d_3">
      <g>
       <use xlink:href="#m5b967dd21a" x="234.931053" y="273.312" style="stroke: #000000; stroke-width: 0.8"/>
      </g>
     </g>
     <g id="text_3">
      <!-- 0.06 -->
      <g transform="translate(223.798241 287.910438) scale(0.1 -0.1)">
       <defs>
        <path id="DejaVuSans-36" d="M 2113 2584 
Q 1688 2584 1439 2293 
Q 1191 2003 1191 1497 
Q 1191 994 1439 701 
Q 1688 409 2113 409 
Q 2538 409 2786 701 
Q 3034 994 3034 1497 
Q 3034 2003 2786 2293 
Q 2538 2584 2113 2584 
z
M 3366 4563 
L 3366 3988 
Q 3128 4100 2886 4159 
Q 2644 4219 2406 4219 
Q 1781 4219 1451 3797 
Q 1122 3375 1075 2522 
Q 1259 2794 1537 2939 
Q 1816 3084 2150 3084 
Q 2853 3084 3261 2657 
Q 3669 2231 3669 1497 
Q 3669 778 3244 343 
Q 2819 -91 2113 -91 
Q 1303 -91 875 529 
Q 447 1150 447 2328 
Q 447 3434 972 4092 
Q 1497 4750 2381 4750 
Q 2619 4750 2861 4703 
Q 3103 4656 3366 4563 
z
" transform="scale(0.015625)"/>
       </defs>
       <use xlink:href="#DejaVuSans-30"/>
       <use xlink:href="#DejaVuSans-2e" transform="translate(63.623047 0)"/>
       <use xlink:href="#DejaVuSans-30" transform="translate(95.410156 0)"/>
       <use xlink:href="#DejaVuSans-36" transform="translate(159.033203 0)"/>
      </g>
     </g>
    </g>
    <g id="xtick_4">
     <g id="line2d_4">
      <g>
       <use xlink:href="#m5b967dd21a" x="294.993976" y="273.312" style="stroke: #000000; stroke-width: 0.8"/>
      </g>
     </g>
     <g id="text_4">
      <!-- 0.08 -->
      <g transform="translate(283.861163 287.910438) scale(0.1 -0.1)">
       <defs>
        <path id="DejaVuSans-38" d="M 2034 2216 
Q 1584 2216 1326 1975 
Q 1069 1734 1069 1313 
Q 1069 891 1326 650 
Q 1584 409 2034 409 
Q 2484 409 2743 651 
Q 3003 894 3003 1313 
Q 3003 1734 2745 1975 
Q 2488 2216 2034 2216 
z
M 1403 2484 
Q 997 2584 770 2862 
Q 544 3141 544 3541 
Q 544 4100 942 4425 
Q 1341 4750 2034 4750 
Q 2731 4750 3128 4425 
Q 3525 4100 3525 3541 
Q 3525 3141 3298 2862 
Q 3072 2584 2669 2484 
Q 3125 2378 3379 2068 
Q 3634 1759 3634 1313 
Q 3634 634 3220 271 
Q 2806 -91 2034 -91 
Q 1263 -91 848 271 
Q 434 634 434 1313 
Q 434 1759 690 2068 
Q 947 2378 1403 2484 
z
M 1172 3481 
Q 1172 3119 1398 2916 
Q 1625 2713 2034 2713 
Q 2441 2713 2670 2916 
Q 2900 3119 2900 3481 
Q 2900 3844 2670 4047 
Q 2441 4250 2034 4250 
Q 1625 4250 1398 4047 
Q 1172 3844 1172 3481 
z
" transform="scale(0.015625)"/>
       </defs>
       <use xlink:href="#DejaVuSans-30"/>
       <use xlink:href="#DejaVuSans-2e" transform="translate(63.623047 0)"/>
       <use xlink:href="#DejaVuSans-30" transform="translate(95.410156 0)"/>
       <use xlink:href="#DejaVuSans-38" transform="translate(159.033203 0)"/>
      </g>
     </g>
    </g>
    <g id="xtick_5">
     <g id="line2d_5">
      <g>
       <use xlink:href="#m5b967dd21a" x="355.056898" y="273.312" style="stroke: #000000; stroke-width: 0.8"/>
      </g>
     </g>
     <g id="text_5">
      <!-- 0.10 -->
      <g transform="translate(343.924086 287.910438) scale(0.1 -0.1)">
       <defs>
        <path id="DejaVuSans-31" d="M 794 531 
L 1825 531 
L 1825 4091 
L 703 3866 
L 703 4441 
L 1819 4666 
L 2450 4666 
L 2450 531 
L 3481 531 
L 3481 0 
L 794 0 
L 794 531 
z
" transform="scale(0.015625)"/>
       </defs>
       <use xlink:href="#DejaVuSans-30"/>
       <use xlink:href="#DejaVuSans-2e" transform="translate(63.623047 0)"/>
       <use xlink:href="#DejaVuSans-31" transform="translate(95.410156 0)"/>
       <use xlink:href="#DejaVuSans-30" transform="translate(159.033203 0)"/>
      </g>
     </g>
    </g>
    <g id="text_6">
     <!-- $l^2$ -->
     <g transform="translate(229.375625 301.588563) scale(0.1 -0.1)">
      <defs>
       <path id="DejaVuSans-Oblique-6c" d="M 1172 4863 
L 1747 4863 
L 800 0 
L 225 0 
L 1172 4863 
z
" transform="scale(0.015625)"/>
      </defs>
      <use xlink:href="#DejaVuSans-Oblique-6c" transform="translate(0 0.765625)"/>
      <use xlink:href="#DejaVuSans-32" transform="translate(35.230911 39.046875) scale(0.7)"/>
     </g>
    </g>
   </g>
   <g id="matplotlib.axis_2">
    <g id="ytick_1">
     <g id="line2d_6">
      <defs>
       <path id="ma20fd7afef" d="M 0 0 
L -3.5 0 
" style="stroke: #000000; stroke-width: 0.8"/>
      </defs>
      <g>
       <use xlink:href="#ma20fd7afef" x="54.965625" y="230.758378" style="stroke: #000000; stroke-width: 0.8"/>
      </g>
     </g>
     <g id="text_7">
      <!-- 1.20 -->
      <g transform="translate(25.7 234.557597) scale(0.1 -0.1)">
       <use xlink:href="#DejaVuSans-31"/>
       <use xlink:href="#DejaVuSans-2e" transform="translate(63.623047 0)"/>
       <use xlink:href="#DejaVuSans-32" transform="translate(95.410156 0)"/>
       <use xlink:href="#DejaVuSans-30" transform="translate(159.033203 0)"/>
      </g>
     </g>
    </g>
    <g id="ytick_2">
     <g id="line2d_7">
      <g>
       <use xlink:href="#ma20fd7afef" x="54.965625" y="174.587851" style="stroke: #000000; stroke-width: 0.8"/>
      </g>
     </g>
     <g id="text_8">
      <!-- 1.25 -->
      <g transform="translate(25.7 178.38707) scale(0.1 -0.1)">
       <defs>
        <path id="DejaVuSans-35" d="M 691 4666 
L 3169 4666 
L 3169 4134 
L 1269 4134 
L 1269 2991 
Q 1406 3038 1543 3061 
Q 1681 3084 1819 3084 
Q 2600 3084 3056 2656 
Q 3513 2228 3513 1497 
Q 3513 744 3044 326 
Q 2575 -91 1722 -91 
Q 1428 -91 1123 -41 
Q 819 9 494 109 
L 494 744 
Q 775 591 1075 516 
Q 1375 441 1709 441 
Q 2250 441 2565 725 
Q 2881 1009 2881 1497 
Q 2881 1984 2565 2268 
Q 2250 2553 1709 2553 
Q 1456 2553 1204 2497 
Q 953 2441 691 2322 
L 691 4666 
z
" transform="scale(0.015625)"/>
       </defs>
       <use xlink:href="#DejaVuSans-31"/>
       <use xlink:href="#DejaVuSans-2e" transform="translate(63.623047 0)"/>
       <use xlink:href="#DejaVuSans-32" transform="translate(95.410156 0)"/>
       <use xlink:href="#DejaVuSans-35" transform="translate(159.033203 0)"/>
      </g>
     </g>
    </g>
    <g id="ytick_3">
     <g id="line2d_8">
      <g>
       <use xlink:href="#ma20fd7afef" x="54.965625" y="118.417324" style="stroke: #000000; stroke-width: 0.8"/>
      </g>
     </g>
     <g id="text_9">
      <!-- 1.30 -->
      <g transform="translate(25.7 122.216543) scale(0.1 -0.1)">
       <defs>
        <path id="DejaVuSans-33" d="M 2597 2516 
Q 3050 2419 3304 2112 
Q 3559 1806 3559 1356 
Q 3559 666 3084 287 
Q 2609 -91 1734 -91 
Q 1441 -91 1130 -33 
Q 819 25 488 141 
L 488 750 
Q 750 597 1062 519 
Q 1375 441 1716 441 
Q 2309 441 2620 675 
Q 2931 909 2931 1356 
Q 2931 1769 2642 2001 
Q 2353 2234 1838 2234 
L 1294 2234 
L 1294 2753 
L 1863 2753 
Q 2328 2753 2575 2939 
Q 2822 3125 2822 3475 
Q 2822 3834 2567 4026 
Q 2313 4219 1838 4219 
Q 1578 4219 1281 4162 
Q 984 4106 628 3988 
L 628 4550 
Q 988 4650 1302 4700 
Q 1616 4750 1894 4750 
Q 2613 4750 3031 4423 
Q 3450 4097 3450 3541 
Q 3450 3153 3228 2886 
Q 3006 2619 2597 2516 
z
" transform="scale(0.015625)"/>
       </defs>
       <use xlink:href="#DejaVuSans-31"/>
       <use xlink:href="#DejaVuSans-2e" transform="translate(63.623047 0)"/>
       <use xlink:href="#DejaVuSans-33" transform="translate(95.410156 0)"/>
       <use xlink:href="#DejaVuSans-30" transform="translate(159.033203 0)"/>
      </g>
     </g>
    </g>
    <g id="ytick_4">
     <g id="line2d_9">
      <g>
       <use xlink:href="#ma20fd7afef" x="54.965625" y="62.246797" style="stroke: #000000; stroke-width: 0.8"/>
      </g>
     </g>
     <g id="text_10">
      <!-- 1.35 -->
      <g transform="translate(25.7 66.046015) scale(0.1 -0.1)">
       <use xlink:href="#DejaVuSans-31"/>
       <use xlink:href="#DejaVuSans-2e" transform="translate(63.623047 0)"/>
       <use xlink:href="#DejaVuSans-33" transform="translate(95.410156 0)"/>
       <use xlink:href="#DejaVuSans-35" transform="translate(159.033203 0)"/>
      </g>
     </g>
    </g>
    <g id="text_11">
     <!-- $m_\Omega \sqrt{t/a^2}$ -->
     <g transform="translate(19.620313 162.256) rotate(-90) scale(0.1 -0.1)">
      <defs>
       <path id="DejaVuSans-Oblique-6d" d="M 5747 2113 
L 5338 0 
L 4763 0 
L 5166 2094 
Q 5191 2228 5203 2325 
Q 5216 2422 5216 2491 
Q 5216 2772 5059 2928 
Q 4903 3084 4622 3084 
Q 4203 3084 3875 2770 
Q 3547 2456 3450 1953 
L 3066 0 
L 2491 0 
L 2900 2094 
Q 2925 2209 2937 2307 
Q 2950 2406 2950 2484 
Q 2950 2769 2794 2926 
Q 2638 3084 2363 3084 
Q 1938 3084 1609 2770 
Q 1281 2456 1184 1953 
L 800 0 
L 225 0 
L 909 3500 
L 1484 3500 
L 1375 2956 
Q 1609 3263 1923 3423 
Q 2238 3584 2597 3584 
Q 2978 3584 3223 3384 
Q 3469 3184 3519 2828 
Q 3781 3197 4126 3390 
Q 4472 3584 4856 3584 
Q 5306 3584 5551 3325 
Q 5797 3066 5797 2591 
Q 5797 2488 5784 2364 
Q 5772 2241 5747 2113 
z
" transform="scale(0.015625)"/>
       <path id="DejaVuSans-3a9" d="M 4647 556 
L 4647 0 
L 2772 0 
L 2772 556 
Q 3325 859 3634 1378 
Q 3944 1897 3944 2528 
Q 3944 3278 3531 3731 
Q 3119 4184 2444 4184 
Q 1769 4184 1355 3729 
Q 941 3275 941 2528 
Q 941 1897 1250 1378 
Q 1563 859 2119 556 
L 2119 0 
L 244 0 
L 244 556 
L 1241 556 
Q 747 991 519 1456 
Q 294 1922 294 2497 
Q 294 3491 894 4106 
Q 1491 4722 2444 4722 
Q 3391 4722 3994 4106 
Q 4594 3494 4594 2528 
Q 4594 1922 4372 1459 
Q 4150 997 3647 556 
L 4647 556 
z
" transform="scale(0.015625)"/>
       <path id="STIXSizeOneSym-Regular-221a" d="M 6970 9933 
L 3373 -1888 
L 3104 -1888 
L 1626 2918 
Q 1555 3149 1465 3251 
Q 1376 3354 1229 3354 
Q 1011 3354 794 3181 
L 717 3309 
L 1766 4115 
L 1926 4115 
L 3379 -602 
L 3405 -602 
L 6605 9933 
L 6970 9933 
z
" transform="scale(0.015625)"/>
       <path id="DejaVuSans-Oblique-74" d="M 2706 3500 
L 2619 3053 
L 1472 3053 
L 1100 1153 
Q 1081 1047 1072 975 
Q 1063 903 1063 863 
Q 1063 663 1183 572 
Q 1303 481 1569 481 
L 2150 481 
L 2053 0 
L 1503 0 
Q 991 0 739 200 
Q 488 400 488 806 
Q 488 878 497 964 
Q 506 1050 525 1153 
L 897 3053 
L 409 3053 
L 500 3500 
L 978 3500 
L 1172 4494 
L 1747 4494 
L 1556 3500 
L 2706 3500 
z
" transform="scale(0.015625)"/>
       <path id="DejaVuSans-2f" d="M 1625 4666 
L 2156 4666 
L 531 -594 
L 0 -594 
L 1625 4666 
z
" transform="scale(0.015625)"/>
       <path id="DejaVuSans-Oblique-61" d="M 3438 1997 
L 3047 0 
L 2472 0 
L 2578 531 
Q 2325 219 2001 64 
Q 1678 -91 1281 -91 
Q 834 -91 548 182 
Q 263 456 263 884 
Q 263 1497 752 1853 
Q 1241 2209 2100 2209 
L 2900 2209 
L 2931 2363 
Q 2938 2388 2941 2417 
Q 2944 2447 2944 2509 
Q 2944 2788 2717 2942 
Q 2491 3097 2081 3097 
Q 1800 3097 1504 3025 
Q 1209 2953 897 2809 
L 997 3341 
Q 1322 3463 1633 3523 
Q 1944 3584 2234 3584 
Q 2853 3584 3176 3315 
Q 3500 3047 3500 2534 
Q 3500 2431 3484 2292 
Q 3469 2153 3438 1997 
z
M 2816 1759 
L 2241 1759 
Q 1534 1759 1195 1570 
Q 856 1381 856 984 
Q 856 709 1029 553 
Q 1203 397 1509 397 
Q 1978 397 2328 733 
Q 2678 1069 2791 1631 
L 2816 1759 
z
" transform="scale(0.015625)"/>
      </defs>
      <use xlink:href="#DejaVuSans-Oblique-6d" transform="translate(0 0.15625)"/>
      <use xlink:href="#DejaVuSans-3a9" transform="translate(97.412109 -16.25) scale(0.7)"/>
      <use xlink:href="#STIXSizeOneSym-Regular-221a" transform="translate(153.637695 11.8125) scale(0.707977)"/>
      <use xlink:href="#DejaVuSans-Oblique-74" transform="translate(240.920441 0.515625)"/>
      <use xlink:href="#DejaVuSans-2f" transform="translate(280.129425 0.515625)"/>
      <use xlink:href="#DejaVuSans-Oblique-61" transform="translate(313.820831 0.515625)"/>
      <use xlink:href="#DejaVuSans-32" transform="translate(379.750024 38.796875) scale(0.7)"/>
      <path d="M 228.420441 115.5 
L 228.420441 121.75 
L 439.520532 121.75 
L 439.520532 115.5 
L 228.420441 115.5 
z
"/>
     </g>
    </g>
   </g>
   <g id="line2d_10">
    <path d="M 95.445925 273.312 
L 95.445925 7.2 
" clip-path="url(#pdc3d184fe4)" style="fill: none; stroke-dasharray: 5.55,2.4; stroke-dashoffset: 0; stroke: #87ceeb; stroke-width: 1.5"/>
   </g>
   <g id="line2d_11">
    <path d="M 74.31036 273.312 
L 74.31036 7.2 
" clip-path="url(#pdc3d184fe4)" style="fill: none; stroke-dasharray: 5.55,2.4; stroke-dashoffset: 0; stroke: #da70d6; stroke-width: 1.5"/>
   </g>
   <g id="LineCollection_1">
    <path d="M 95.445925 234.94128 
L 95.445925 216.003673 
" clip-path="url(#pdc3d184fe4)" style="fill: none; stroke: #000000; stroke-width: 1.5"/>
   </g>
   <g id="LineCollection_2">
    <path d="M 74.31036 239.20008 
L 74.31036 218.006521 
" clip-path="url(#pdc3d184fe4)" style="fill: none; stroke: #000000; stroke-width: 1.5"/>
   </g>
   <g id="line2d_12">
    <path d="M 95.445925 225.472476 
" clip-path="url(#pdc3d184fe4)" style="fill: none; stroke: #000000; stroke-width: 1.5; stroke-linecap: square"/>
    <defs>
     <path id="mef06f08ac4" d="M 0 3 
C 0.795609 3 1.55874 2.683901 2.12132 2.12132 
C 2.683901 1.55874 3 0.795609 3 0 
C 3 -0.795609 2.683901 -1.55874 2.12132 -2.12132 
C 1.55874 -2.683901 0.795609 -3 0 -3 
C -0.795609 -3 -1.55874 -2.683901 -2.12132 -2.12132 
C -2.683901 -1.55874 -3 -0.795609 -3 0 
C -3 0.795609 -2.683901 1.55874 -2.12132 2.12132 
C -1.55874 2.683901 -0.795609 3 0 3 
z
" style="stroke: #000000"/>
    </defs>
    <g clip-path="url(#pdc3d184fe4)">
     <use xlink:href="#mef06f08ac4" x="95.445925" y="225.472476" style="stroke: #000000"/>
    </g>
   </g>
   <g id="line2d_13">
    <path d="M 74.31036 228.6033 
" clip-path="url(#pdc3d184fe4)" style="fill: none; stroke: #000000; stroke-width: 1.5; stroke-linecap: square"/>
    <g clip-path="url(#pdc3d184fe4)">
     <use xlink:href="#mef06f08ac4" x="74.31036" y="228.6033" style="stroke: #000000"/>
    </g>
   </g>
   <g id="patch_3">
    <path d="M 54.965625 273.312 
L 54.965625 7.2 
" style="fill: none; stroke: #000000; stroke-width: 0.8; stroke-linejoin: miter; stroke-linecap: square"/>
   </g>
   <g id="patch_4">
    <path d="M 412.085625 273.312 
L 412.085625 7.2 
" style="fill: none; stroke: #000000; stroke-width: 0.8; stroke-linejoin: miter; stroke-linecap: square"/>
   </g>
   <g id="patch_5">
    <path d="M 54.965625 273.312 
L 412.085625 273.312 
" style="fill: none; stroke: #000000; stroke-width: 0.8; stroke-linejoin: miter; stroke-linecap: square"/>
   </g>
   <g id="patch_6">
    <path d="M 54.965625 7.2 
L 412.085625 7.2 
" style="fill: none; stroke: #000000; stroke-width: 0.8; stroke-linejoin: miter; stroke-linecap: square"/>
   </g>
   <g id="legend_1">
    <g id="patch_7">
     <path d="M 357.685625 268.312 
L 405.085625 268.312 
Q 407.085625 268.312 407.085625 266.312 
L 407.085625 237.95575 
Q 407.085625 235.95575 405.085625 235.95575 
L 357.685625 235.95575 
Q 355.685625 235.95575 355.685625 237.95575 
L 355.685625 266.312 
Q 355.685625 268.312 357.685625 268.312 
z
" style="fill: #ffffff; opacity: 0.8; stroke: #cccccc; stroke-linejoin: miter"/>
    </g>
    <g id="patch_8">
     <path d="M 359.685625 247.554188 
L 379.685625 247.554188 
L 379.685625 240.554188 
L 359.685625 240.554188 
z
" style="fill: #87ceeb; opacity: 0.5; stroke: #87ceeb; stroke-linejoin: miter"/>
    </g>
    <g id="text_12">
     <!-- $F_\pi$ -->
     <g transform="translate(387.685625 247.554188) scale(0.1 -0.1)">
      <defs>
       <path id="DejaVuSans-Oblique-46" d="M 1081 4666 
L 3756 4666 
L 3653 4134 
L 1606 4134 
L 1338 2759 
L 3188 2759 
L 3084 2228 
L 1234 2228 
L 800 0 
L 172 0 
L 1081 4666 
z
" transform="scale(0.015625)"/>
       <path id="DejaVuSans-Oblique-3c0" d="M 584 3500 
L 3938 3500 
L 3825 2925 
L 3384 2925 
L 2966 775 
Q 2922 550 2981 450 
Q 3038 353 3209 353 
Q 3256 353 3325 363 
Q 3397 369 3419 372 
L 3338 -44 
Q 3222 -84 3103 -103 
Q 2981 -122 2866 -122 
Q 2491 -122 2388 81 
Q 2284 288 2391 838 
L 2797 2925 
L 1506 2925 
L 938 0 
L 350 0 
L 919 2925 
L 472 2925 
L 584 3500 
z
" transform="scale(0.015625)"/>
      </defs>
      <use xlink:href="#DejaVuSans-Oblique-46" transform="translate(0 0.09375)"/>
      <use xlink:href="#DejaVuSans-Oblique-3c0" transform="translate(57.519531 -16.3125) scale(0.7)"/>
     </g>
    </g>
    <g id="patch_9">
     <path d="M 359.685625 262.232313 
L 379.685625 262.232313 
L 379.685625 255.232313 
L 359.685625 255.232313 
z
" style="fill: #da70d6; opacity: 0.5; stroke: #da70d6; stroke-linejoin: miter"/>
    </g>
    <g id="text_13">
     <!-- $m_\Omega$ -->
     <g transform="translate(387.685625 262.232313) scale(0.1 -0.1)">
      <use xlink:href="#DejaVuSans-Oblique-6d"/>
      <use xlink:href="#DejaVuSans-3a9" transform="translate(97.412109 -16.40625) scale(0.7)"/>
     </g>
    </g>
   </g>
  </g>
 </g>
 <defs>
  <clipPath id="pdc3d184fe4">
   <rect x="54.965625" y="7.2" width="357.12" height="266.112"/>
  </clipPath>
 </defs>
</svg>
