<?xml version="1.0" encoding="utf-8" standalone="no"?>
<!DOCTYPE svg PUBLIC "-//W3C//DTD SVG 1.1//EN"
  "http://www.w3.org/Graphics/SVG/1.1/DTD/svg11.dtd">
<svg xmlns:xlink="http://www.w3.org/1999/xlink" width="420.82625pt" height="310.86825pt" viewBox="0 0 420.82625 310.86825" xmlns="http://www.w3.org/2000/svg" version="1.1">
 <metadata>
  <rdf:RDF xmlns:dc="http://purl.org/dc/elements/1.1/" xmlns:cc="http://creativecommons.org/ns#" xmlns:rdf="http://www.w3.org/1999/02/22-rdf-syntax-ns#">
   <cc:Work>
    <dc:type rdf:resource="http://purl.org/dc/dcmitype/StillImage"/>
    <dc:date>2025-03-01T20:42:56.678517</dc:date>
    <dc:format>image/svg+xml</dc:format>
    <dc:creator>
     <cc:Agent>
      <dc:title>Matplotlib v3.10.0, https://matplotlib.org/</dc:title>
     </cc:Agent>
    </dc:creator>
   </cc:Work>
  </rdf:RDF>
 </metadata>
 <defs>
  <style type="text/css">*{stroke-linejoin: round; stroke-linecap: butt}</style>
 </defs>
 <g id="figure_1">
  <g id="patch_1">
   <path d="M 0 310.86825 
L 420.82625 310.86825 
L 420.82625 0 
L 0 0 
L 0 310.86825 
z
" style="fill: none"/>
  </g>
  <g id="axes_1">
   <g id="patch_2">
    <path d="M 56.50625 273.312 
L 413.62625 273.312 
L 413.62625 7.2 
L 56.50625 7.2 
L 56.50625 273.312 
z
" style="fill: none"/>
   </g>
   <g id="FillBetweenPolyCollection_1">
    <defs>
     <path id="m3edb874c80" d="M 56.50625 -89.42714 
L 56.50625 -62.40808 
L 57.003253 -62.748564 
L 57.78322 -63.281555 
L 58.846153 -64.005267 
L 60.192051 -64.917266 
L 61.820914 -66.014478 
L 63.732741 -67.293189 
L 65.927534 -68.74905 
L 68.405292 -70.377081 
L 71.166015 -72.171681 
L 74.209703 -74.126634 
L 77.536356 -76.235119 
L 81.145974 -78.489717 
L 85.038557 -80.882429 
L 89.214105 -83.404682 
L 93.672618 -86.047342 
L 98.414096 -88.800729 
L 103.438539 -91.654622 
L 108.745947 -94.598265 
L 114.33632 -97.620367 
L 120.209658 -100.70909 
L 126.365961 -103.85203 
L 132.805229 -107.03618 
L 139.527463 -110.247884 
L 146.532661 -113.472767 
L 153.820824 -116.695664 
L 161.391953 -119.900531 
L 169.246046 -123.07036 
L 177.383104 -126.18711 
L 185.803128 -129.231647 
L 194.506116 -132.183733 
L 203.492069 -135.022046 
L 212.760988 -137.724248 
L 222.312871 -140.267088 
L 232.14772 -142.626534 
L 242.265533 -144.777909 
L 252.666312 -146.696015 
L 263.350055 -148.355233 
L 274.316764 -149.729585 
L 285.566438 -150.79276 
L 297.099076 -151.518108 
L 308.91468 -151.878613 
L 321.013249 -151.846847 
L 333.394782 -151.39492 
L 346.059281 -150.494435 
L 359.006745 -149.116443 
L 372.237173 -147.231406 
L 385.750567 -144.80917 
L 399.546926 -141.818941 
L 413.62625 -138.22927 
L 413.62625 -220.490819 
L 413.62625 -220.490819 
L 399.546926 -217.478909 
L 385.750567 -214.359354 
L 372.237173 -211.143064 
L 359.006745 -207.840733 
L 346.059281 -204.46283 
L 333.394782 -201.019567 
L 321.013249 -197.52088 
L 308.91468 -193.976385 
L 297.099076 -190.39534 
L 285.566438 -186.786593 
L 274.316764 -183.158535 
L 263.350055 -179.519056 
L 252.666312 -175.875517 
L 242.265533 -172.234742 
L 232.14772 -168.603043 
L 222.312871 -164.986289 
L 212.760988 -161.389996 
L 203.492069 -157.81946 
L 194.506116 -154.279889 
L 185.803128 -150.776532 
L 177.383104 -147.31479 
L 169.246046 -143.900275 
L 161.391953 -140.538837 
L 153.820824 -137.236547 
L 146.532661 -133.999645 
L 139.527463 -130.834463 
L 132.805229 -127.747342 
L 126.365961 -124.744549 
L 120.209658 -121.832196 
L 114.33632 -119.016178 
L 108.745947 -116.302123 
L 103.438539 -113.695359 
L 98.414096 -111.200888 
L 93.672618 -108.823381 
L 89.214105 -106.567176 
L 85.038557 -104.436279 
L 81.145974 -102.434379 
L 77.536356 -100.564853 
L 74.209703 -98.830784 
L 71.166015 -97.234967 
L 68.405292 -95.779926 
L 65.927534 -94.467921 
L 63.732741 -93.300959 
L 61.820914 -92.280798 
L 60.192051 -91.408959 
L 58.846153 -90.68673 
L 57.78322 -90.115166 
L 57.003253 -89.6951 
L 56.50625 -89.42714 
z
" style="stroke: #da70d6; stroke-opacity: 0.1"/>
    </defs>
    <g clip-path="url(#p7e1ef5271e)">
     <use xlink:href="#m3edb874c80" x="0" y="310.86825" style="fill: #da70d6; fill-opacity: 0.1; stroke: #da70d6; stroke-opacity: 0.1"/>
    </g>
   </g>
   <g id="FillBetweenPolyCollection_2">
    <defs>
     <path id="ma9a1f68f14" d="M 56.50625 -79.206713 
L 56.50625 -53.172137 
L 57.003253 -53.482102 
L 57.78322 -53.96816 
L 58.846153 -54.6298 
L 60.192051 -55.466319 
L 61.820914 -56.476815 
L 63.732741 -57.660183 
L 65.927534 -59.015107 
L 68.405292 -60.540048 
L 71.166015 -62.233234 
L 74.209703 -64.09265 
L 77.536356 -66.116026 
L 81.145974 -68.300826 
L 85.038557 -70.644235 
L 89.214105 -73.143158 
L 93.672618 -75.794213 
L 98.414096 -78.593734 
L 103.438539 -81.537789 
L 108.745947 -84.622198 
L 114.33632 -87.842572 
L 120.209658 -91.194369 
L 126.365961 -94.672956 
L 132.805229 -98.2737 
L 139.527463 -101.992053 
L 146.532661 -105.823657 
L 153.820824 -109.764437 
L 161.391953 -113.810684 
L 169.246046 -117.959117 
L 177.383104 -122.206921 
L 185.803128 -126.55175 
L 194.506116 -130.991696 
L 203.492069 -135.525245 
L 212.760988 -140.1512 
L 222.312871 -144.868596 
L 232.14772 -149.67662 
L 242.265533 -154.574519 
L 252.666312 -159.561528 
L 263.350055 -164.636803 
L 274.316764 -169.79936 
L 285.566438 -175.048037 
L 297.099076 -180.381455 
L 308.91468 -185.797993 
L 321.013249 -191.29577 
L 333.394782 -196.872631 
L 346.059281 -202.52614 
L 359.006745 -208.253573 
L 372.237173 -214.051917 
L 385.750567 -219.917873 
L 399.546926 -225.847853 
L 413.62625 -231.837986 
L 413.62625 -287.237745 
L 413.62625 -287.237745 
L 399.546926 -278.828014 
L 385.750567 -270.580211 
L 372.237173 -262.494566 
L 359.006745 -254.571507 
L 346.059281 -246.811666 
L 333.394782 -239.215879 
L 321.013249 -231.785188 
L 308.91468 -224.520836 
L 297.099076 -217.424263 
L 285.566438 -210.4971 
L 274.316764 -203.741155 
L 263.350055 -197.158391 
L 252.666312 -190.750906 
L 242.265533 -184.520893 
L 232.14772 -178.470598 
L 222.312871 -172.602263 
L 212.760988 -166.918059 
L 203.492069 -161.42001 
L 194.506116 -156.109909 
L 185.803128 -150.989228 
L 177.383104 -146.059039 
L 169.246046 -141.319939 
L 161.391953 -136.771999 
L 153.820824 -132.414737 
L 146.532661 -128.247124 
L 139.527463 -124.267618 
L 132.805229 -120.474224 
L 126.365961 -116.864584 
L 120.209658 -113.436063 
L 114.33632 -110.185856 
L 108.745947 -107.111079 
L 103.438539 -104.208849 
L 98.414096 -101.476356 
L 93.672618 -98.910913 
L 89.214105 -96.509996 
L 85.038557 -94.271266 
L 81.145974 -92.192582 
L 77.536356 -90.272004 
L 74.209703 -88.507791 
L 71.166015 -86.898397 
L 68.405292 -85.442455 
L 65.927534 -84.13877 
L 63.732741 -82.986309 
L 61.820914 -81.984183 
L 60.192051 -81.131645 
L 58.846153 -80.428074 
L 57.78322 -79.872969 
L 57.003253 -79.465942 
L 56.50625 -79.206713 
z
" style="stroke: #87ceeb; stroke-opacity: 0.1"/>
    </defs>
    <g clip-path="url(#p7e1ef5271e)">
     <use xlink:href="#ma9a1f68f14" x="0" y="310.86825" style="fill: #87ceeb; fill-opacity: 0.1; stroke: #87ceeb; stroke-opacity: 0.1"/>
    </g>
   </g>
   <g id="FillBetweenPolyCollection_3">
    <g clip-path="url(#p7e1ef5271e)">
     <use xlink:href="#m3edb874c80" x="0" y="310.86825" style="fill: #da70d6; fill-opacity: 0.1; stroke: #da70d6; stroke-opacity: 0.1"/>
    </g>
   </g>
   <g id="FillBetweenPolyCollection_4">
    <g clip-path="url(#p7e1ef5271e)">
     <use xlink:href="#ma9a1f68f14" x="0" y="310.86825" style="fill: #87ceeb; fill-opacity: 0.1; stroke: #87ceeb; stroke-opacity: 0.1"/>
    </g>
   </g>
   <g id="FillBetweenPolyCollection_5">
    <defs>
     <path id="m4c53be4c84" d="M 56.50625 -92.569123 
L 56.50625 -62.7132 
L 57.003253 -63.049944 
L 57.78322 -63.577068 
L 58.846153 -64.292792 
L 60.192051 -65.194689 
L 61.820914 -66.2797 
L 63.732741 -67.544129 
L 65.927534 -68.983658 
L 68.405292 -70.59335 
L 71.166015 -72.367665 
L 74.209703 -74.300465 
L 77.536356 -76.385037 
L 81.145974 -78.614098 
L 85.038557 -80.979822 
L 89.214105 -83.473851 
L 93.672618 -86.087316 
L 98.414096 -88.810851 
L 103.438539 -91.634611 
L 108.745947 -94.548275 
L 114.33632 -97.541052 
L 120.209658 -100.601672 
L 126.365961 -103.718363 
L 132.805229 -106.878814 
L 139.527463 -110.070126 
L 146.532661 -113.278735 
L 153.820824 -116.490328 
L 161.391953 -119.68974 
L 169.246046 -122.860849 
L 177.383104 -125.98646 
L 185.803128 -129.048219 
L 194.506116 -132.026532 
L 203.492069 -134.900532 
L 212.760988 -137.648089 
L 222.312871 -140.245866 
L 232.14772 -142.669426 
L 242.265533 -144.893381 
L 252.666312 -146.89156 
L 263.350055 -148.637177 
L 274.316764 -150.102988 
L 285.566438 -151.261408 
L 297.099076 -152.084592 
L 308.91468 -152.544467 
L 321.013249 -152.612729 
L 333.394782 -152.260812 
L 346.059281 -151.459833 
L 359.006745 -150.18054 
L 372.237173 -148.393246 
L 385.750567 -146.067773 
L 399.546926 -143.173409 
L 413.62625 -139.678861 
L 413.62625 -224.032941 
L 413.62625 -224.032941 
L 399.546926 -221.010663 
L 385.750567 -217.887153 
L 372.237173 -214.673261 
L 359.006745 -211.37955 
L 346.059281 -208.016259 
L 333.394782 -204.593249 
L 321.013249 -201.119952 
L 308.91468 -197.605306 
L 297.099076 -194.057701 
L 285.566438 -190.484926 
L 274.316764 -186.894134 
L 263.350055 -183.291843 
L 252.666312 -179.683967 
L 242.265533 -176.075897 
L 232.14772 -172.472618 
L 222.312871 -168.878863 
L 212.760988 -165.299285 
L 203.492069 -161.738626 
L 194.506116 -158.201861 
L 185.803128 -154.694308 
L 177.383104 -151.221683 
L 169.246046 -147.790115 
L 161.391953 -144.406102 
L 153.820824 -141.076442 
L 146.532661 -137.808138 
L 139.527463 -134.608289 
L 132.805229 -131.483979 
L 126.365961 -128.442179 
L 120.209658 -125.489657 
L 114.33632 -122.632909 
L 108.745947 -119.878103 
L 103.438539 -117.231045 
L 98.414096 -114.697155 
L 93.672618 -112.281462 
L 89.214105 -109.988602 
L 85.038557 -107.82283 
L 81.145974 -105.78803 
L 77.536356 -103.887735 
L 74.209703 -102.125144 
L 71.166015 -100.503137 
L 68.405292 -99.024296 
L 65.927534 -97.690919 
L 63.732741 -96.505031 
L 61.820914 -95.468402 
L 60.192051 -94.582552 
L 58.846153 -93.848763 
L 57.78322 -93.268084 
L 57.003253 -92.841337 
L 56.50625 -92.569123 
z
" style="stroke: #da70d6; stroke-opacity: 0.1"/>
    </defs>
    <g clip-path="url(#p7e1ef5271e)">
     <use xlink:href="#m4c53be4c84" x="0" y="310.86825" style="fill: #da70d6; fill-opacity: 0.1; stroke: #da70d6; stroke-opacity: 0.1"/>
    </g>
   </g>
   <g id="FillBetweenPolyCollection_6">
    <defs>
     <path id="m7a32bd9061" d="M 56.50625 -83.012457 
L 56.50625 -54.05604 
L 57.003253 -54.363224 
L 57.78322 -54.844922 
L 58.846153 -55.500632 
L 60.192051 -56.329662 
L 61.820914 -57.33113 
L 63.732741 -58.503961 
L 65.927534 -59.846877 
L 68.405292 -61.358399 
L 71.166015 -63.036834 
L 74.209703 -64.88027 
L 77.536356 -66.886577 
L 81.145974 -69.053395 
L 85.038557 -71.378136 
L 89.214105 -73.857982 
L 93.672618 -76.489891 
L 98.414096 -79.2706 
L 103.438539 -82.196648 
L 108.745947 -85.264391 
L 114.33632 -88.470034 
L 120.209658 -91.809668 
L 126.365961 -95.279319 
L 132.805229 -98.875 
L 139.527463 -102.592768 
L 146.532661 -106.428793 
L 153.820824 -110.379408 
L 161.391953 -114.441169 
L 169.246046 -118.610898 
L 177.383104 -122.88571 
L 185.803128 -127.263026 
L 194.506116 -131.74057 
L 203.492069 -136.316348 
L 212.760988 -140.98861 
L 222.312871 -145.755807 
L 232.14772 -150.616533 
L 242.265533 -155.569476 
L 252.666312 -160.61335 
L 263.350055 -165.746854 
L 274.316764 -170.968612 
L 285.566438 -176.277137 
L 297.099076 -181.670789 
L 308.91468 -187.147747 
L 321.013249 -192.705982 
L 333.394782 -198.343239 
L 346.059281 -204.05702 
L 359.006745 -209.84457 
L 372.237173 -215.702876 
L 385.750567 -221.628653 
L 399.546926 -227.618349 
L 413.62625 -233.668137 
L 413.62625 -291.57225 
L 413.62625 -291.57225 
L 399.546926 -283.155715 
L 385.750567 -274.903166 
L 372.237173 -266.814837 
L 359.006745 -258.891151 
L 346.059281 -251.13272 
L 333.394782 -243.540338 
L 321.013249 -236.114979 
L 308.91468 -228.857789 
L 297.099076 -221.770072 
L 285.566438 -214.853278 
L 274.316764 -208.108979 
L 263.350055 -201.538847 
L 252.666312 -195.144622 
L 242.265533 -188.928072 
L 232.14772 -182.890956 
L 222.312871 -177.034969 
L 212.760988 -171.361689 
L 203.492069 -165.872524 
L 194.506116 -160.568652 
L 185.803128 -155.450967 
L 177.383104 -150.520038 
L 169.246046 -145.776064 
L 161.391953 -141.218864 
L 153.820824 -136.847864 
L 146.532661 -132.662112 
L 139.527463 -128.660311 
L 132.805229 -124.840855 
L 126.365961 -121.201892 
L 120.209658 -117.741374 
L 114.33632 -114.457127 
L 108.745947 -111.346904 
L 103.438539 -108.408441 
L 98.414096 -105.639508 
L 93.672618 -103.037937 
L 89.214105 -100.601661 
L 85.038557 -98.328733 
L 81.145974 -96.217338 
L 77.536356 -94.265803 
L 74.209703 -92.472603 
L 71.166015 -90.836358 
L 68.405292 -89.355831 
L 65.927534 -88.029925 
L 63.732741 -86.857676 
L 61.820914 -85.83825 
L 60.192051 -84.970932 
L 58.846153 -84.255126 
L 57.78322 -83.690346 
L 57.003253 -83.276214 
L 56.50625 -83.012457 
z
" style="stroke: #87ceeb; stroke-opacity: 0.1"/>
    </defs>
    <g clip-path="url(#p7e1ef5271e)">
     <use xlink:href="#m7a32bd9061" x="0" y="310.86825" style="fill: #87ceeb; fill-opacity: 0.1; stroke: #87ceeb; stroke-opacity: 0.1"/>
    </g>
   </g>
   <g id="FillBetweenPolyCollection_7">
    <g clip-path="url(#p7e1ef5271e)">
     <use xlink:href="#m4c53be4c84" x="0" y="310.86825" style="fill: #da70d6; fill-opacity: 0.1; stroke: #da70d6; stroke-opacity: 0.1"/>
    </g>
   </g>
   <g id="FillBetweenPolyCollection_8">
    <g clip-path="url(#p7e1ef5271e)">
     <use xlink:href="#m7a32bd9061" x="0" y="310.86825" style="fill: #87ceeb; fill-opacity: 0.1; stroke: #87ceeb; stroke-opacity: 0.1"/>
    </g>
   </g>
   <g id="FillBetweenPolyCollection_9">
    <defs>
     <path id="m0310f105b9" d="M 56.50625 -81.549499 
L 56.50625 -52.864939 
L 57.003253 -53.370617 
L 57.78322 -54.157175 
L 58.846153 -55.216533 
L 60.192051 -56.538714 
L 61.820914 -58.11212 
L 63.732741 -59.923769 
L 65.927534 -61.959493 
L 68.405292 -64.20412 
L 71.166015 -66.641638 
L 74.209703 -69.255351 
L 77.536356 -72.028017 
L 81.145974 -74.941984 
L 85.038557 -77.97931 
L 89.214105 -81.121873 
L 93.672618 -84.351458 
L 98.414096 -87.649828 
L 103.438539 -90.998768 
L 108.745947 -94.380093 
L 114.33632 -97.775628 
L 120.209658 -101.16714 
L 126.365961 -104.536233 
L 132.805229 -107.864207 
L 139.527463 -111.131881 
L 146.532661 -114.319392 
L 153.820824 -117.405999 
L 161.391953 -120.36989 
L 169.246046 -123.188053 
L 177.383104 -125.836224 
L 185.803128 -128.28895 
L 194.506116 -130.519802 
L 203.492069 -132.501723 
L 212.760988 -134.207493 
L 222.312871 -135.61024 
L 232.14772 -136.683929 
L 242.265533 -137.403735 
L 252.666312 -137.746267 
L 263.350055 -137.689616 
L 274.316764 -137.21328 
L 285.566438 -136.297981 
L 297.099076 -134.925453 
L 308.91468 -133.078232 
L 321.013249 -130.739463 
L 333.394782 -127.892756 
L 346.059281 -124.522071 
L 359.006745 -120.611644 
L 372.237173 -116.145938 
L 385.750567 -111.109609 
L 399.546926 -105.487494 
L 413.62625 -99.264606 
L 413.62625 -188.680893 
L 413.62625 -188.680893 
L 399.546926 -187.871578 
L 385.750567 -186.928195 
L 372.237173 -185.850314 
L 359.006745 -184.638517 
L 346.059281 -183.29435 
L 333.394782 -181.820288 
L 321.013249 -180.219663 
L 308.91468 -178.496583 
L 297.099076 -176.655827 
L 285.566438 -174.702689 
L 274.316764 -172.642803 
L 263.350055 -170.481911 
L 252.666312 -168.225619 
L 242.265533 -165.879136 
L 232.14772 -163.447069 
L 222.312871 -160.933288 
L 212.760988 -158.340947 
L 203.492069 -155.672655 
L 194.506116 -152.930813 
L 185.803128 -150.118049 
L 177.383104 -147.237689 
L 169.246046 -144.294169 
L 161.391953 -141.293335 
L 153.820824 -138.242601 
L 146.532661 -135.150961 
L 139.527463 -132.028882 
L 132.805229 -128.88811 
L 126.365961 -125.741428 
L 120.209658 -122.602386 
L 114.33632 -119.48504 
L 108.745947 -116.403704 
L 103.438539 -113.372739 
L 98.414096 -110.406369 
L 93.672618 -107.518537 
L 89.214105 -104.722798 
L 85.038557 -102.032237 
L 81.145974 -99.459422 
L 77.536356 -97.016367 
L 74.209703 -94.714515 
L 71.166015 -92.56473 
L 68.405292 -90.577287 
L 65.927534 -88.76187 
L 63.732741 -87.127556 
L 61.820914 -85.682797 
L 60.192051 -84.435395 
L 58.846153 -83.392454 
L 57.78322 -82.560321 
L 57.003253 -81.944495 
L 56.50625 -81.549499 
z
" style="stroke: #da70d6; stroke-opacity: 0.1"/>
    </defs>
    <g clip-path="url(#p7e1ef5271e)">
     <use xlink:href="#m0310f105b9" x="0" y="310.86825" style="fill: #da70d6; fill-opacity: 0.1; stroke: #da70d6; stroke-opacity: 0.1"/>
    </g>
   </g>
   <g id="FillBetweenPolyCollection_10">
    <defs>
     <path id="mc324c5a148" d="M 56.50625 -76.707036 
L 56.50625 -49.789398 
L 57.003253 -50.145515 
L 57.78322 -50.702941 
L 58.846153 -51.459958 
L 60.192051 -52.414382 
L 61.820914 -53.56361 
L 63.732741 -54.904646 
L 65.927534 -56.434134 
L 68.405292 -58.148374 
L 71.166015 -60.043345 
L 74.209703 -62.114721 
L 77.536356 -64.357884 
L 81.145974 -66.767945 
L 85.038557 -69.339755 
L 89.214105 -72.067936 
L 93.672618 -74.946898 
L 98.414096 -77.970879 
L 103.438539 -81.133986 
L 108.745947 -84.430245 
L 114.33632 -87.853664 
L 120.209658 -91.398307 
L 126.365961 -95.058368 
L 132.805229 -98.828252 
L 139.527463 -102.702653 
L 146.532661 -106.676617 
L 153.820824 -110.745598 
L 161.391953 -114.905478 
L 169.246046 -119.152579 
L 177.383104 -123.483633 
L 185.803128 -127.895746 
L 194.506116 -132.386337 
L 203.492069 -136.953065 
L 212.760988 -141.593756 
L 222.312871 -146.306337 
L 232.14772 -151.088761 
L 242.265533 -155.938963 
L 252.666312 -160.854805 
L 263.350055 -165.834052 
L 274.316764 -170.874342 
L 285.566438 -175.973173 
L 297.099076 -181.1279 
L 308.91468 -186.335733 
L 321.013249 -191.593743 
L 333.394782 -196.898869 
L 346.059281 -202.247928 
L 359.006745 -207.637632 
L 372.237173 -213.064599 
L 385.750567 -218.525366 
L 399.546926 -224.016403 
L 413.62625 -229.534128 
L 413.62625 -285.190673 
L 413.62625 -285.190673 
L 399.546926 -277.179059 
L 385.750567 -269.311282 
L 372.237173 -261.586645 
L 359.006745 -254.004651 
L 346.059281 -246.565012 
L 333.394782 -239.26766 
L 321.013249 -232.112753 
L 308.91468 -225.100689 
L 297.099076 -218.232108 
L 285.566438 -211.507902 
L 274.316764 -204.929218 
L 263.350055 -198.497457 
L 252.666312 -192.214269 
L 242.265533 -186.081542 
L 232.14772 -180.101383 
L 222.312871 -174.276086 
L 212.760988 -168.608097 
L 203.492069 -163.099961 
L 194.506116 -157.754262 
L 185.803128 -152.573548 
L 177.383104 -147.560258 
L 169.246046 -142.716638 
L 161.391953 -138.044666 
L 153.820824 -133.545984 
L 146.532661 -129.221846 
L 139.527463 -125.073094 
L 132.805229 -121.100147 
L 126.365961 -117.303024 
L 120.209658 -113.681387 
L 114.33632 -110.234593 
L 108.745947 -106.961767 
L 103.438539 -103.861865 
L 98.414096 -100.933748 
L 93.672618 -98.176238 
L 89.214105 -95.588168 
L 85.038557 -93.168425 
L 81.145974 -90.915975 
L 77.536356 -88.829885 
L 74.209703 -86.909333 
L 71.166015 -85.153616 
L 68.405292 -83.562146 
L 65.927534 -82.134448 
L 63.732741 -80.870158 
L 61.820914 -79.76901 
L 60.192051 -78.830831 
L 58.846153 -78.055533 
L 57.78322 -77.443098 
L 57.003253 -76.99357 
L 56.50625 -76.707036 
z
" style="stroke: #87ceeb; stroke-opacity: 0.1"/>
    </defs>
    <g clip-path="url(#p7e1ef5271e)">
     <use xlink:href="#mc324c5a148" x="0" y="310.86825" style="fill: #87ceeb; fill-opacity: 0.1; stroke: #87ceeb; stroke-opacity: 0.1"/>
    </g>
   </g>
   <g id="FillBetweenPolyCollection_11">
    <defs>
     <path id="mde6ceac052" d="M 56.50625 -81.016228 
L 56.50625 -52.248905 
L 57.003253 -52.758841 
L 57.78322 -53.551984 
L 58.846153 -54.620151 
L 60.192051 -55.953247 
L 61.820914 -57.539545 
L 63.732741 -59.365923 
L 65.927534 -61.418062 
L 68.405292 -63.680632 
L 71.166015 -66.137455 
L 74.209703 -68.771655 
L 77.536356 -71.565802 
L 81.145974 -74.502048 
L 85.038557 -77.562239 
L 89.214105 -80.728032 
L 93.672618 -83.980982 
L 98.414096 -87.302617 
L 103.438539 -90.674482 
L 108.745947 -94.078159 
L 114.33632 -97.495249 
L 120.209658 -100.907319 
L 126.365961 -104.295802 
L 132.805229 -107.641875 
L 139.527463 -110.926286 
L 146.532661 -114.129175 
L 153.820824 -117.229879 
L 161.391953 -120.206759 
L 169.246046 -123.037069 
L 177.383104 -125.696904 
L 185.803128 -128.161255 
L 194.506116 -130.404203 
L 203.492069 -132.399234 
L 212.760988 -134.119672 
L 222.312871 -135.539153 
L 232.14772 -136.632085 
L 242.265533 -137.374009 
L 252.666312 -137.74182 
L 263.350055 -137.713838 
L 274.316764 -137.269743 
L 285.566438 -136.390426 
L 297.099076 -135.057796 
L 308.91468 -133.254582 
L 321.013249 -130.964155 
L 333.394782 -128.17039 
L 346.059281 -124.857554 
L 359.006745 -121.010231 
L 372.237173 -116.613271 
L 385.750567 -111.651763 
L 399.546926 -106.111013 
L 413.62625 -99.976542 
L 413.62625 -188.804255 
L 413.62625 -188.804255 
L 399.546926 -187.951879 
L 385.750567 -186.973397 
L 372.237173 -185.867467 
L 359.006745 -184.633788 
L 346.059281 -183.273059 
L 333.394782 -181.786931 
L 321.013249 -180.177943 
L 308.91468 -178.449435 
L 297.099076 -176.605439 
L 285.566438 -174.650537 
L 274.316764 -172.589675 
L 263.350055 -170.427956 
L 252.666312 -168.170399 
L 242.265533 -165.821709 
L 232.14772 -163.386085 
L 222.312871 -160.867115 
L 212.760988 -158.267801 
L 203.492069 -155.59074 
L 194.506116 -152.838437 
L 185.803128 -150.013715 
L 177.383104 -147.120148 
L 169.246046 -144.162435 
L 161.391953 -141.146673 
L 153.820824 -138.080488 
L 146.532661 -134.973043 
L 139.527463 -131.83492 
L 132.805229 -128.677936 
L 126.365961 -125.514905 
L 120.209658 -122.35938 
L 114.33632 -119.225401 
L 108.745947 -116.127261 
L 103.438539 -113.079299 
L 98.414096 -110.095728 
L 93.672618 -107.190501 
L 89.214105 -104.377202 
L 85.038557 -101.668977 
L 81.145974 -99.078479 
L 77.536356 -96.61784 
L 74.209703 -94.298644 
L 71.166015 -92.131922 
L 68.405292 -90.128139 
L 65.927534 -88.297178 
L 63.732741 -86.648332 
L 61.820914 -85.190273 
L 60.192051 -83.931021 
L 58.846153 -82.877891 
L 57.78322 -82.03743 
L 57.003253 -81.415318 
L 56.50625 -81.016228 
z
" style="stroke: #da70d6; stroke-opacity: 0.1"/>
    </defs>
    <g clip-path="url(#p7e1ef5271e)">
     <use xlink:href="#mde6ceac052" x="0" y="310.86825" style="fill: #da70d6; fill-opacity: 0.1; stroke: #da70d6; stroke-opacity: 0.1"/>
    </g>
   </g>
   <g id="FillBetweenPolyCollection_12">
    <defs>
     <path id="m56e582c3c3" d="M 56.50625 -76.88337 
L 56.50625 -49.969539 
L 57.003253 -50.322324 
L 57.78322 -50.874593 
L 58.846153 -51.624704 
L 60.192051 -52.570572 
L 61.820914 -53.709703 
L 63.732741 -55.039231 
L 65.927534 -56.555933 
L 68.405292 -58.256256 
L 71.166015 -60.136334 
L 74.209703 -62.191998 
L 77.536356 -64.418792 
L 81.145974 -66.811991 
L 85.038557 -69.366612 
L 89.214105 -72.077436 
L 93.672618 -74.939033 
L 98.414096 -77.94579 
L 103.438539 -81.091954 
L 108.745947 -84.371684 
L 114.33632 -87.779105 
L 120.209658 -91.308384 
L 126.365961 -94.953803 
L 132.805229 -98.709844 
L 139.527463 -102.571263 
L 146.532661 -106.533162 
L 153.820824 -110.591041 
L 161.391953 -114.740831 
L 169.246046 -118.978902 
L 177.383104 -123.302041 
L 185.803128 -127.707421 
L 194.506116 -132.192531 
L 203.492069 -136.755116 
L 212.760988 -141.3931 
L 222.312871 -146.104512 
L 232.14772 -150.887422 
L 242.265533 -155.739879 
L 252.666312 -160.65987 
L 263.350055 -165.645282 
L 274.316764 -170.693876 
L 285.566438 -175.803273 
L 297.099076 -180.970943 
L 308.91468 -186.194208 
L 321.013249 -191.470243 
L 333.394782 -196.796084 
L 346.059281 -202.168634 
L 359.006745 -207.584683 
L 372.237173 -213.040911 
L 385.750567 -218.533909 
L 399.546926 -224.060186 
L 413.62625 -229.616185 
L 413.62625 -285.278284 
L 413.62625 -285.278284 
L 399.546926 -277.229285 
L 385.750567 -269.326152 
L 372.237173 -261.568248 
L 359.006745 -253.955136 
L 346.059281 -246.486583 
L 333.394782 -239.162573 
L 321.013249 -231.983314 
L 308.91468 -224.949246 
L 297.099076 -218.061048 
L 285.566438 -211.319645 
L 274.316764 -204.726208 
L 263.350055 -198.282154 
L 252.666312 -191.989143 
L 242.265533 -185.849057 
L 232.14772 -179.863989 
L 222.312871 -174.036205 
L 212.760988 -168.368107 
L 203.492069 -162.862179 
L 194.506116 -157.520926 
L 185.803128 -152.346798 
L 177.383104 -147.342115 
L 169.246046 -142.508984 
L 161.391953 -137.849227 
L 153.820824 -133.36431 
L 146.532661 -129.055301 
L 139.527463 -124.922844 
L 132.805229 -120.967156 
L 126.365961 -117.188057 
L 120.209658 -113.585009 
L 114.33632 -110.157182 
L 108.745947 -106.903521 
L 103.438539 -103.822815 
L 98.414096 -100.913769 
L 93.672618 -98.175063 
L 89.214105 -95.605398 
L 85.038557 -93.203536 
L 81.145974 -90.968332 
L 77.536356 -88.898745 
L 74.209703 -86.993855 
L 71.166015 -85.252862 
L 68.405292 -83.675089 
L 65.927534 -82.259977 
L 63.732741 -81.00708 
L 61.820914 -79.916057 
L 60.192051 -78.986663 
L 58.846153 -78.218743 
L 57.78322 -77.612219 
L 57.003253 -77.16708 
L 56.50625 -76.88337 
z
" style="stroke: #87ceeb; stroke-opacity: 0.1"/>
    </defs>
    <g clip-path="url(#p7e1ef5271e)">
     <use xlink:href="#m56e582c3c3" x="0" y="310.86825" style="fill: #87ceeb; fill-opacity: 0.1; stroke: #87ceeb; stroke-opacity: 0.1"/>
    </g>
   </g>
   <g id="FillBetweenPolyCollection_13">
    <defs>
     <path id="m279ef0ac16" d="M 56.50625 -84.178503 
L 56.50625 -52.688954 
L 57.003253 -53.189849 
L 57.78322 -53.968955 
L 58.846153 -55.01825 
L 60.192051 -56.327834 
L 61.820914 -57.886202 
L 63.732741 -59.68048 
L 65.927534 -61.69663 
L 68.405292 -63.919624 
L 71.166015 -66.333621 
L 74.209703 -68.922111 
L 77.536356 -71.668066 
L 81.145974 -74.554066 
L 85.038557 -77.562419 
L 89.214105 -80.675269 
L 93.672618 -83.874677 
L 98.414096 -87.14269 
L 103.438539 -90.461382 
L 108.745947 -93.812859 
L 114.33632 -97.179249 
L 120.209658 -100.542638 
L 126.365961 -103.884989 
L 132.805229 -107.188017 
L 139.527463 -110.43305 
L 146.532661 -113.600854 
L 153.820824 -116.67147 
L 161.391953 -119.624034 
L 169.246046 -122.436649 
L 177.383104 -125.086286 
L 185.803128 -127.548773 
L 194.506116 -129.798875 
L 203.492069 -131.810487 
L 212.760988 -133.556937 
L 222.312871 -135.011373 
L 232.14772 -136.147197 
L 242.265533 -136.938481 
L 252.666312 -137.360315 
L 263.350055 -137.389042 
L 274.316764 -137.002366 
L 285.566438 -136.179339 
L 297.099076 -134.90026 
L 308.91468 -133.146517 
L 321.013249 -130.900409 
L 333.394782 -128.144978 
L 346.059281 -124.863848 
L 359.006745 -121.041112 
L 372.237173 -116.661229 
L 385.750567 -111.708954 
L 399.546926 -106.169296 
L 413.62625 -100.027477 
L 413.62625 -191.639785 
L 413.62625 -191.639785 
L 399.546926 -190.821434 
L 385.750567 -189.874449 
L 372.237173 -188.798556 
L 359.006745 -187.59444 
L 346.059281 -186.263687 
L 333.394782 -184.808697 
L 321.013249 -183.232585 
L 308.91468 -181.539052 
L 297.099076 -179.732226 
L 285.566438 -177.816477 
L 274.316764 -175.796204 
L 263.350055 -173.675629 
L 252.666312 -171.458594 
L 242.265533 -169.148426 
L 232.14772 -166.747883 
L 222.312871 -164.259224 
L 212.760988 -161.684397 
L 203.492069 -159.025348 
L 194.506116 -156.284393 
L 185.803128 -153.464604 
L 177.383104 -150.57015 
L 169.246046 -147.606555 
L 161.391953 -144.580833 
L 153.820824 -141.501526 
L 146.532661 -138.378629 
L 139.527463 -135.223445 
L 132.805229 -132.048391 
L 126.365961 -128.866764 
L 120.209658 -125.692508 
L 114.33632 -122.539984 
L 108.745947 -119.42375 
L 103.438539 -116.358376 
L 98.414096 -113.358275 
L 93.672618 -110.437573 
L 89.214105 -107.610003 
L 85.038557 -104.888828 
L 81.145974 -102.286786 
L 77.536356 -99.816054 
L 74.209703 -97.488226 
L 71.166015 -95.3143 
L 68.405292 -93.304669 
L 65.927534 -91.469118 
L 63.732741 -89.816804 
L 61.820914 -88.35625 
L 60.192051 -87.095308 
L 58.846153 -86.041124 
L 57.78322 -85.200077 
L 57.003253 -84.57769 
L 56.50625 -84.178503 
z
" style="stroke: #da70d6; stroke-opacity: 0.1"/>
    </defs>
    <g clip-path="url(#p7e1ef5271e)">
     <use xlink:href="#m279ef0ac16" x="0" y="310.86825" style="fill: #da70d6; fill-opacity: 0.1; stroke: #da70d6; stroke-opacity: 0.1"/>
    </g>
   </g>
   <g id="FillBetweenPolyCollection_14">
    <defs>
     <path id="m7e80a36418" d="M 56.50625 -80.405867 
L 56.50625 -50.594347 
L 57.003253 -50.946896 
L 57.78322 -51.498749 
L 58.846153 -52.24822 
L 60.192051 -53.193166 
L 61.820914 -54.331039 
L 63.732741 -55.658914 
L 65.927534 -57.173524 
L 68.405292 -58.871281 
L 71.166015 -60.748304 
L 74.209703 -62.800441 
L 77.536356 -65.023289 
L 81.145974 -67.412219 
L 85.038557 -69.962398 
L 89.214105 -72.668815 
L 93.672618 -75.526311 
L 98.414096 -78.529614 
L 103.438539 -81.673372 
L 108.745947 -84.952199 
L 114.33632 -88.36072 
L 120.209658 -91.893619 
L 126.365961 -95.545688 
L 132.805229 -99.311881 
L 139.527463 -103.187356 
L 146.532661 -107.167511 
L 153.820824 -111.24802 
L 161.391953 -115.424841 
L 169.246046 -119.694227 
L 177.383104 -124.052709 
L 185.803128 -128.497077 
L 194.506116 -133.024347 
L 203.492069 -137.631722 
L 212.760988 -142.316543 
L 222.312871 -147.076249 
L 232.14772 -151.908329 
L 242.265533 -156.810285 
L 252.666312 -161.779596 
L 263.350055 -166.813691 
L 274.316764 -171.909926 
L 285.566438 -177.065566 
L 297.099076 -182.277781 
L 308.91468 -187.543635 
L 321.013249 -192.86009 
L 333.394782 -198.224006 
L 346.059281 -203.632149 
L 359.006745 -209.0812 
L 372.237173 -214.56776 
L 385.750567 -220.088365 
L 399.546926 -225.639494 
L 413.62625 -231.217582 
L 413.62625 -289.397485 
L 413.62625 -289.397485 
L 399.546926 -281.375988 
L 385.750567 -273.500379 
L 372.237173 -265.76995 
L 359.006745 -258.184182 
L 346.059281 -250.742756 
L 333.394782 -243.445558 
L 321.013249 -236.292681 
L 308.91468 -229.284435 
L 297.099076 -222.421351 
L 285.566438 -215.704175 
L 274.316764 -209.133873 
L 263.350055 -202.711622 
L 252.666312 -196.438804 
L 242.265533 -190.316983 
L 232.14772 -184.347893 
L 222.312871 -178.533405 
L 212.760988 -172.875491 
L 203.492069 -167.376192 
L 194.506116 -162.037561 
L 185.803128 -156.861622 
L 177.383104 -151.850311 
L 169.246046 -147.005433 
L 161.391953 -142.328606 
L 153.820824 -137.821226 
L 146.532661 -133.484437 
L 139.527463 -129.319112 
L 132.805229 -125.325848 
L 126.365961 -121.504973 
L 120.209658 -117.856569 
L 114.33632 -114.380499 
L 108.745947 -111.076443 
L 103.438539 -107.943937 
L 98.414096 -104.982417 
L 93.672618 -102.191248 
L 89.214105 -99.569767 
L 85.038557 -97.11731 
L 81.145974 -94.833234 
L 77.536356 -92.716938 
L 74.209703 -90.767877 
L 71.166015 -88.985572 
L 68.405292 -87.369616 
L 65.927534 -85.919677 
L 63.732741 -84.635498 
L 61.820914 -83.516896 
L 60.192051 -82.563763 
L 58.846153 -81.776052 
L 57.78322 -81.153782 
L 57.003253 -80.697019 
L 56.50625 -80.405867 
z
" style="stroke: #87ceeb; stroke-opacity: 0.1"/>
    </defs>
    <g clip-path="url(#p7e1ef5271e)">
     <use xlink:href="#m7e80a36418" x="0" y="310.86825" style="fill: #87ceeb; fill-opacity: 0.1; stroke: #87ceeb; stroke-opacity: 0.1"/>
    </g>
   </g>
   <g id="FillBetweenPolyCollection_15">
    <defs>
     <path id="me5b9984f3e" d="M 56.50625 -83.63871 
L 56.50625 -52.076779 
L 57.003253 -52.58192 
L 57.78322 -53.367588 
L 58.846153 -54.425659 
L 60.192051 -55.74611 
L 61.820914 -57.317304 
L 63.732741 -59.126221 
L 65.927534 -61.158666 
L 68.405292 -63.399451 
L 71.166015 -65.83256 
L 74.209703 -68.441302 
L 77.536356 -71.208457 
L 81.145974 -74.116406 
L 85.038557 -77.14725 
L 89.214105 -80.282914 
L 93.672618 -83.505239 
L 98.414096 -86.796049 
L 103.438539 -90.137196 
L 108.745947 -93.510575 
L 114.33632 -96.898112 
L 120.209658 -100.281721 
L 126.365961 -103.643218 
L 132.805229 -106.964218 
L 139.527463 -110.225994 
L 146.532661 -113.409322 
L 153.820824 -116.494314 
L 161.391953 -119.46026 
L 169.246046 -122.28549 
L 177.383104 -124.947283 
L 185.803128 -127.421847 
L 194.506116 -129.684391 
L 203.492069 -131.709295 
L 212.760988 -133.47039 
L 222.312871 -134.94132 
L 232.14772 -136.095947 
L 242.265533 -136.90875 
L 252.666312 -137.355164 
L 263.350055 -137.411818 
L 274.316764 -137.056652 
L 285.566438 -136.268922 
L 297.099076 -135.029123 
L 308.91468 -133.318843 
L 321.013249 -131.120605 
L 333.394782 -128.417701 
L 346.059281 -125.194049 
L 359.006745 -121.434074 
L 372.237173 -117.122607 
L 385.750567 -112.244825 
L 399.546926 -106.786191 
L 413.62625 -100.732431 
L 413.62625 -191.745194 
L 413.62625 -191.745194 
L 399.546926 -190.885241 
L 385.750567 -189.904578 
L 372.237173 -188.802007 
L 359.006745 -187.57732 
L 346.059281 -186.231236 
L 333.394782 -184.765317 
L 321.013249 -183.181867 
L 308.91468 -181.4838 
L 297.099076 -179.674489 
L 285.566438 -177.75758 
L 274.316764 -175.736796 
L 263.350055 -173.615736 
L 252.666312 -171.397695 
L 242.265533 -169.085547 
L 232.14772 -166.681702 
L 222.312871 -164.188192 
L 212.760988 -161.606859 
L 203.492069 -158.939654 
L 194.506116 -156.188985 
L 185.803128 -153.358082 
L 177.383104 -150.451306 
L 169.246046 -147.474379 
L 161.391953 -144.434505 
L 153.820824 -141.34039 
L 146.532661 -138.20216 
L 139.527463 -135.031218 
L 132.805229 -131.840048 
L 126.365961 -128.641989 
L 120.209658 -125.451008 
L 114.33632 -122.281475 
L 108.745947 -119.147956 
L 103.438539 -116.065028 
L 98.414096 -113.047123 
L 93.672618 -110.108399 
L 89.214105 -107.262643 
L 85.038557 -104.523194 
L 81.145974 -101.902889 
L 77.536356 -99.41403 
L 74.209703 -97.068358 
L 71.166015 -94.877043 
L 68.405292 -92.850667 
L 65.927534 -90.999214 
L 63.732741 -89.332057 
L 61.820914 -87.857934 
L 60.192051 -86.584915 
L 58.846153 -85.520358 
L 57.78322 -84.670838 
L 57.003253 -84.042058 
L 56.50625 -83.63871 
z
" style="stroke: #da70d6; stroke-opacity: 0.1"/>
    </defs>
    <g clip-path="url(#p7e1ef5271e)">
     <use xlink:href="#me5b9984f3e" x="0" y="310.86825" style="fill: #da70d6; fill-opacity: 0.1; stroke: #da70d6; stroke-opacity: 0.1"/>
    </g>
   </g>
   <g id="FillBetweenPolyCollection_16">
    <defs>
     <path id="mc855b392c3" d="M 56.50625 -80.593503 
L 56.50625 -50.789921 
L 57.003253 -51.139167 
L 57.78322 -51.685905 
L 58.846153 -52.428524 
L 60.192051 -53.364979 
L 61.820914 -54.492831 
L 63.732741 -55.809278 
L 65.927534 -57.311186 
L 68.405292 -58.995109 
L 71.166015 -60.857316 
L 74.209703 -62.893807 
L 77.536356 -65.100338 
L 81.145974 -67.472436 
L 85.038557 -70.005428 
L 89.214105 -72.694458 
L 93.672618 -75.534522 
L 98.414096 -78.520491 
L 103.438539 -81.647156 
L 108.745947 -84.909259 
L 114.33632 -88.301546 
L 120.209658 -91.818812 
L 126.365961 -95.455948 
L 132.805229 -99.207997 
L 139.527463 -103.070195 
L 146.532661 -107.038013 
L 153.820824 -111.107191 
L 161.391953 -115.27375 
L 169.246046 -119.534004 
L 177.383104 -123.884549 
L 185.803128 -128.322243 
L 194.506116 -132.844176 
L 203.492069 -137.447631 
L 212.760988 -142.130036 
L 222.312871 -146.888924 
L 232.14772 -151.721886 
L 242.265533 -156.626527 
L 252.666312 -161.600438 
L 263.350055 -166.641157 
L 274.316764 -171.746153 
L 285.566438 -176.912805 
L 297.099076 -182.138388 
L 308.91468 -187.420075 
L 321.013249 -192.754925 
L 333.394782 -198.139892 
L 346.059281 -203.571827 
L 359.006745 -209.047483 
L 372.237173 -214.563529 
L 385.750567 -220.116551 
L 399.546926 -225.703069 
L 413.62625 -231.319543 
L 413.62625 -289.502842 
L 413.62625 -289.502842 
L 399.546926 -281.444337 
L 385.750567 -273.533751 
L 372.237173 -265.770438 
L 359.006745 -258.15394 
L 346.059281 -250.683991 
L 333.394782 -243.36053 
L 321.013249 -236.183698 
L 308.91468 -229.153846 
L 297.099076 -222.271538 
L 285.566438 -215.53755 
L 274.316764 -208.952866 
L 263.350055 -202.518675 
L 252.666312 -196.236354 
L 242.265533 -190.107458 
L 232.14772 -184.133693 
L 222.312871 -178.316889 
L 212.760988 -172.658965 
L 203.492069 -167.161887 
L 194.506116 -161.827622 
L 185.803128 -156.658087 
L 177.383104 -151.6551 
L 169.246046 -146.820323 
L 161.391953 -142.155226 
L 153.820824 -137.661042 
L 146.532661 -133.338742 
L 139.527463 -129.189018 
L 132.805229 -125.212287 
L 126.365961 -121.408696 
L 120.209658 -117.778146 
L 114.33632 -114.320329 
L 108.745947 -111.034756 
L 103.438539 -107.920807 
L 98.414096 -104.977766 
L 93.672618 -102.204859 
L 89.214105 -99.601292 
L 85.038557 -97.166275 
L 81.145974 -94.899049 
L 77.536356 -92.798904 
L 74.209703 -90.865192 
L 71.166015 -89.097336 
L 68.405292 -87.494835 
L 65.927534 -86.05727 
L 63.732741 -84.784301 
L 61.820914 -83.675669 
L 60.192051 -82.731188 
L 58.846153 -81.950748 
L 57.78322 -81.334305 
L 57.003253 -80.88187 
L 56.50625 -80.593503 
z
" style="stroke: #87ceeb; stroke-opacity: 0.1"/>
    </defs>
    <g clip-path="url(#p7e1ef5271e)">
     <use xlink:href="#mc855b392c3" x="0" y="310.86825" style="fill: #87ceeb; fill-opacity: 0.1; stroke: #87ceeb; stroke-opacity: 0.1"/>
    </g>
   </g>
   <g id="FillBetweenPolyCollection_17">
    <defs>
     <path id="ma3e4da159b" d="M 56.50625 -88.720687 
L 56.50625 -61.305773 
L 57.003253 -61.651805 
L 57.78322 -62.193552 
L 58.846153 -62.929296 
L 60.192051 -63.856695 
L 61.820914 -64.972788 
L 63.732741 -66.273999 
L 65.927534 -67.756137 
L 68.405292 -69.414407 
L 71.166015 -71.243408 
L 74.209703 -73.237146 
L 77.536356 -75.389039 
L 81.145974 -77.691925 
L 85.038557 -80.138071 
L 89.214105 -82.719183 
L 93.672618 -85.426414 
L 98.414096 -88.250369 
L 103.438539 -91.181109 
L 108.745947 -94.208151 
L 114.33632 -97.320451 
L 120.209658 -100.506394 
L 126.365961 -103.75375 
L 132.805229 -107.049634 
L 139.527463 -110.380434 
L 146.532661 -113.731732 
L 153.820824 -117.088213 
L 161.391953 -120.433558 
L 169.246046 -123.75035 
L 177.383104 -127.019993 
L 185.803128 -130.222653 
L 194.506116 -133.337253 
L 203.492069 -136.341502 
L 212.760988 -139.211982 
L 222.312871 -141.924264 
L 232.14772 -144.453044 
L 242.265533 -146.772275 
L 252.666312 -148.855273 
L 263.350055 -150.674781 
L 274.316764 -152.202989 
L 285.566438 -153.411505 
L 297.099076 -154.271306 
L 308.91468 -154.752649 
L 321.013249 -154.824991 
L 333.394782 -154.45689 
L 346.059281 -153.615921 
L 359.006745 -152.268595 
L 372.237173 -150.380285 
L 385.750567 -147.915163 
L 399.546926 -144.836138 
L 413.62625 -141.1048 
L 413.62625 -230.795606 
L 413.62625 -230.795606 
L 399.546926 -226.964083 
L 385.750567 -223.079319 
L 372.237173 -219.148293 
L 359.006745 -215.178138 
L 346.059281 -211.176097 
L 333.394782 -207.149477 
L 321.013249 -203.1056 
L 308.91468 -199.051743 
L 297.099076 -194.99507 
L 285.566438 -190.942558 
L 274.316764 -186.900918 
L 263.350055 -182.876519 
L 252.666312 -178.87532 
L 242.265533 -174.902824 
L 232.14772 -170.964068 
L 222.312871 -167.063647 
L 212.760988 -163.205798 
L 203.492069 -159.394509 
L 194.506116 -155.633665 
L 185.803128 -151.92719 
L 177.383104 -148.279182 
L 169.246046 -144.693995 
L 161.391953 -141.176294 
L 153.820824 -137.731043 
L 146.532661 -134.363465 
L 139.527463 -131.078966 
L 132.805229 -127.883048 
L 126.365961 -124.781209 
L 120.209658 -121.778864 
L 114.33632 -118.881266 
L 108.745947 -116.093446 
L 103.438539 -113.420176 
L 98.414096 -110.865936 
L 93.672618 -108.434902 
L 89.214105 -106.130942 
L 85.038557 -103.957618 
L 81.145974 -101.918191 
L 77.536356 -100.015639 
L 74.209703 -98.252661 
L 71.166015 -96.631697 
L 68.405292 -95.154936 
L 65.927534 -93.82433 
L 63.732741 -92.641602 
L 61.820914 -91.608259 
L 60.192051 -90.725597 
L 58.846153 -89.99471 
L 57.78322 -89.416492 
L 57.003253 -88.991647 
L 56.50625 -88.720687 
z
" style="stroke: #da70d6; stroke-opacity: 0.1"/>
    </defs>
    <g clip-path="url(#p7e1ef5271e)">
     <use xlink:href="#ma3e4da159b" x="0" y="310.86825" style="fill: #da70d6; fill-opacity: 0.1; stroke: #da70d6; stroke-opacity: 0.1"/>
    </g>
   </g>
   <g id="FillBetweenPolyCollection_18">
    <defs>
     <path id="mff3b5124bb" d="M 56.50625 -79.003723 
L 56.50625 -52.479206 
L 57.003253 -52.782742 
L 57.78322 -53.258703 
L 58.846153 -53.90656 
L 60.192051 -54.72559 
L 61.820914 -55.714864 
L 63.732741 -56.87324 
L 65.927534 -58.199354 
L 68.405292 -59.691609 
L 71.166015 -61.348163 
L 74.209703 -63.166912 
L 77.536356 -65.145483 
L 81.145974 -67.281215 
L 85.038557 -69.571154 
L 89.214105 -72.012041 
L 93.672618 -74.600315 
L 98.414096 -77.332115 
L 103.438539 -80.203305 
L 108.745947 -83.209501 
L 114.33632 -86.346122 
L 120.209658 -89.608456 
L 126.365961 -92.991748 
L 132.805229 -96.4913 
L 139.527463 -100.102577 
L 146.532661 -103.821326 
L 153.820824 -107.643672 
L 161.391953 -111.566209 
L 169.246046 -115.586046 
L 177.383104 -119.700834 
L 185.803128 -123.908749 
L 194.506116 -128.208438 
L 203.492069 -132.598952 
L 212.760988 -137.079649 
L 222.312871 -141.6501 
L 232.14772 -146.30999 
L 242.265533 -151.059025 
L 252.666312 -155.89686 
L 263.350055 -160.823023 
L 274.316764 -165.836867 
L 285.566438 -170.937528 
L 297.099076 -176.123885 
L 308.91468 -181.394547 
L 321.013249 -186.747824 
L 333.394782 -192.181725 
L 346.059281 -197.693942 
L 359.006745 -203.281849 
L 372.237173 -208.942495 
L 385.750567 -214.672607 
L 399.546926 -220.468584 
L 413.62625 -226.326501 
L 413.62625 -285.588039 
L 413.62625 -285.588039 
L 399.546926 -277.109852 
L 385.750567 -268.804561 
L 372.237173 -260.671554 
L 359.006745 -252.710467 
L 346.059281 -244.921191 
L 333.394782 -237.303865 
L 321.013249 -229.858877 
L 308.91468 -222.586865 
L 297.099076 -215.488703 
L 285.566438 -208.565504 
L 274.316764 -201.818598 
L 263.350055 -195.249522 
L 252.666312 -188.859991 
L 242.265533 -182.651871 
L 232.14772 -176.627132 
L 222.312871 -170.787799 
L 212.760988 -165.135879 
L 203.492069 -159.673289 
L 194.506116 -154.40176 
L 185.803128 -149.322745 
L 177.383104 -144.437318 
L 169.246046 -139.746082 
L 161.391953 -135.2491 
L 153.820824 -130.945842 
L 146.532661 -126.83517 
L 139.527463 -122.91536 
L 132.805229 -119.184157 
L 126.365961 -115.638855 
L 120.209658 -112.276405 
L 114.33632 -109.093523 
L 108.745947 -106.086804 
L 103.438539 -103.252822 
L 98.414096 -100.588212 
L 93.672618 -98.089743 
L 89.214105 -95.754364 
L 85.038557 -93.579235 
L 81.145974 -91.561751 
L 77.536356 -89.699542 
L 74.209703 -87.990478 
L 71.166015 -86.432659 
L 68.405292 -85.024406 
L 65.927534 -83.764245 
L 63.732741 -82.650898 
L 61.820914 -81.683268 
L 60.192051 -80.860428 
L 58.846153 -80.181607 
L 57.78322 -79.646181 
L 57.003253 -79.25367 
L 56.50625 -79.003723 
z
" style="stroke: #87ceeb; stroke-opacity: 0.1"/>
    </defs>
    <g clip-path="url(#p7e1ef5271e)">
     <use xlink:href="#mff3b5124bb" x="0" y="310.86825" style="fill: #87ceeb; fill-opacity: 0.1; stroke: #87ceeb; stroke-opacity: 0.1"/>
    </g>
   </g>
   <g id="FillBetweenPolyCollection_19">
    <g clip-path="url(#p7e1ef5271e)">
     <use xlink:href="#ma3e4da159b" x="0" y="310.86825" style="fill: #da70d6; fill-opacity: 0.1; stroke: #da70d6; stroke-opacity: 0.1"/>
    </g>
   </g>
   <g id="FillBetweenPolyCollection_20">
    <g clip-path="url(#p7e1ef5271e)">
     <use xlink:href="#mff3b5124bb" x="0" y="310.86825" style="fill: #87ceeb; fill-opacity: 0.1; stroke: #87ceeb; stroke-opacity: 0.1"/>
    </g>
   </g>
   <g id="FillBetweenPolyCollection_21">
    <defs>
     <path id="m821466d35c" d="M 56.50625 -91.879662 
L 56.50625 -61.665435 
L 57.003253 -62.007698 
L 57.78322 -62.543533 
L 58.846153 -63.271224 
L 60.192051 -64.188435 
L 61.820914 -65.292218 
L 63.732741 -66.579011 
L 65.927534 -68.044652 
L 68.405292 -69.684383 
L 71.166015 -71.492859 
L 74.209703 -73.46416 
L 77.536356 -75.591805 
L 81.145974 -77.868762 
L 85.038557 -80.287465 
L 89.214105 -82.839831 
L 93.672618 -85.51727 
L 98.414096 -88.310703 
L 103.438539 -91.210567 
L 108.745947 -94.206818 
L 114.33632 -97.288928 
L 120.209658 -100.445868 
L 126.365961 -103.666074 
L 132.805229 -106.9374 
L 139.527463 -110.247051 
L 146.532661 -113.581496 
L 153.820824 -116.926363 
L 161.391953 -120.266317 
L 169.246046 -123.584935 
L 177.383104 -126.86458 
L 185.803128 -130.086294 
L 194.506116 -133.229712 
L 203.492069 -136.273027 
L 212.760988 -139.192999 
L 222.312871 -141.965029 
L 232.14772 -144.563272 
L 242.265533 -146.960799 
L 252.666312 -149.129759 
L 263.350055 -151.04155 
L 274.316764 -152.666941 
L 285.566438 -153.976163 
L 297.099076 -154.938935 
L 308.91468 -155.524449 
L 321.013249 -155.701314 
L 333.394782 -155.43747 
L 346.059281 -154.700086 
L 359.006745 -153.455456 
L 372.237173 -151.668896 
L 385.750567 -149.304645 
L 399.546926 -146.325774 
L 413.62625 -142.694111 
L 413.62625 -234.356023 
L 413.62625 -234.356023 
L 399.546926 -230.509751 
L 385.750567 -226.617137 
L 372.237173 -222.685128 
L 359.006745 -218.720762 
L 346.059281 -214.731097 
L 333.394782 -210.723137 
L 321.013249 -206.703749 
L 308.91468 -202.679571 
L 297.099076 -198.656923 
L 285.566438 -194.641716 
L 274.316764 -190.639383 
L 263.350055 -186.654831 
L 252.666312 -182.692438 
L 242.265533 -178.756096 
L 232.14772 -174.849305 
L 222.312871 -170.975317 
L 212.760988 -167.137306 
L 203.492069 -163.338552 
L 194.506116 -159.582603 
L 185.803128 -155.873406 
L 177.383104 -152.215386 
L 169.246046 -148.613467 
L 161.391953 -145.073043 
L 153.820824 -141.599903 
L 146.532661 -138.200134 
L 139.527463 -134.88 
L 132.805229 -131.645824 
L 126.365961 -128.503879 
L 120.209658 -125.460284 
L 114.33632 -122.520928 
L 108.745947 -119.691409 
L 103.438539 -116.976991 
L 98.414096 -114.382578 
L 93.672618 -111.912703 
L 89.214105 -109.571531 
L 85.038557 -107.362862 
L 81.145974 -105.290148 
L 77.536356 -103.356511 
L 74.209703 -101.564758 
L 71.166015 -99.917404 
L 68.405292 -98.416688 
L 65.927534 -97.064591 
L 63.732741 -95.86285 
L 61.820914 -94.812975 
L 60.192051 -93.916256 
L 58.846153 -93.173777 
L 57.78322 -92.586422 
L 57.003253 -92.154882 
L 56.50625 -91.879662 
z
" style="stroke: #da70d6; stroke-opacity: 0.1"/>
    </defs>
    <g clip-path="url(#p7e1ef5271e)">
     <use xlink:href="#m821466d35c" x="0" y="310.86825" style="fill: #da70d6; fill-opacity: 0.1; stroke: #da70d6; stroke-opacity: 0.1"/>
    </g>
   </g>
   <g id="FillBetweenPolyCollection_22">
    <defs>
     <path id="m72868feb9e" d="M 56.50625 -82.66163 
L 56.50625 -53.265387 
L 57.003253 -53.566037 
L 57.78322 -54.037473 
L 58.846153 -54.679176 
L 60.192051 -55.490433 
L 61.820914 -56.470337 
L 63.732741 -57.617775 
L 65.927534 -58.93143 
L 68.405292 -60.409765 
L 71.166015 -62.051023 
L 74.209703 -63.85322 
L 77.536356 -65.814133 
L 81.145974 -67.931301 
L 85.038557 -70.20202 
L 89.214105 -72.623342 
L 93.672618 -75.192085 
L 98.414096 -77.904839 
L 103.438539 -80.757991 
L 108.745947 -83.747748 
L 114.33632 -86.870175 
L 120.209658 -90.121249 
L 126.365961 -93.496908 
L 132.805229 -96.993123 
L 139.527463 -100.605965 
L 146.532661 -104.331677 
L 153.820824 -108.166739 
L 161.391953 -112.107925 
L 169.246046 -116.152347 
L 177.383104 -120.297473 
L 185.803128 -124.541134 
L 194.506116 -128.881505 
L 203.492069 -133.317068 
L 212.760988 -137.846566 
L 222.312871 -142.46894 
L 232.14772 -147.183264 
L 242.265533 -151.988684 
L 252.666312 -156.884349 
L 263.350055 -161.869357 
L 274.316764 -166.942703 
L 285.566438 -172.103232 
L 297.099076 -177.349604 
L 308.91468 -182.68026 
L 321.013249 -188.093401 
L 333.394782 -193.586963 
L 346.059281 -199.158605 
L 359.006745 -204.805693 
L 372.237173 -210.525295 
L 385.750567 -216.31417 
L 399.546926 -222.168765 
L 413.62625 -228.085212 
L 413.62625 -289.766048 
L 413.62625 -289.766048 
L 399.546926 -281.280795 
L 385.750567 -272.970389 
L 372.237173 -264.834243 
L 359.006745 -256.872006 
L 346.059281 -249.08357 
L 333.394782 -241.469058 
L 321.013249 -234.028822 
L 308.91468 -226.763435 
L 297.099076 -219.673671 
L 285.566438 -212.760501 
L 274.316764 -206.025063 
L 263.350055 -199.468645 
L 252.666312 -193.092647 
L 242.265533 -186.89855 
L 232.14772 -180.887868 
L 222.312871 -175.062098 
L 212.760988 -169.422661 
L 203.492069 -163.970841 
L 194.506116 -158.70772 
L 185.803128 -153.63411 
L 177.383104 -148.750499 
L 169.246046 -144.056995 
L 161.391953 -139.553298 
L 153.820824 -135.238679 
L 146.532661 -131.111981 
L 139.527463 -127.171647 
L 132.805229 -123.415756 
L 126.365961 -119.842087 
L 120.209658 -116.448179 
L 114.33632 -113.231403 
L 108.745947 -110.189036 
L 103.438539 -107.318323 
L 98.414096 -104.616536 
L 93.672618 -102.081024 
L 89.214105 -99.709246 
L 85.038557 -97.498804 
L 81.145974 -95.447461 
L 77.536356 -93.55315 
L 74.209703 -91.813984 
L 71.166015 -90.228252 
L 68.405292 -88.794421 
L 65.927534 -87.511129 
L 63.732741 -86.377177 
L 61.820914 -85.391526 
L 60.192051 -84.553287 
L 58.846153 -83.861718 
L 57.78322 -83.316212 
L 57.003253 -82.916297 
L 56.50625 -82.66163 
z
" style="stroke: #87ceeb; stroke-opacity: 0.1"/>
    </defs>
    <g clip-path="url(#p7e1ef5271e)">
     <use xlink:href="#m72868feb9e" x="0" y="310.86825" style="fill: #87ceeb; fill-opacity: 0.1; stroke: #87ceeb; stroke-opacity: 0.1"/>
    </g>
   </g>
   <g id="FillBetweenPolyCollection_23">
    <g clip-path="url(#p7e1ef5271e)">
     <use xlink:href="#m821466d35c" x="0" y="310.86825" style="fill: #da70d6; fill-opacity: 0.1; stroke: #da70d6; stroke-opacity: 0.1"/>
    </g>
   </g>
   <g id="FillBetweenPolyCollection_24">
    <g clip-path="url(#p7e1ef5271e)">
     <use xlink:href="#m72868feb9e" x="0" y="310.86825" style="fill: #87ceeb; fill-opacity: 0.1; stroke: #87ceeb; stroke-opacity: 0.1"/>
    </g>
   </g>
   <g id="FillBetweenPolyCollection_25">
    <defs>
     <path id="m51ef9d2cc0" d="M 56.50625 -81.593588 
L 56.50625 -52.540429 
L 57.003253 -53.035536 
L 57.78322 -53.806265 
L 58.846153 -54.845378 
L 60.192051 -56.143913 
L 61.820914 -57.691421 
L 63.732741 -59.476171 
L 65.927534 -61.485321 
L 68.405292 -63.705072 
L 71.166015 -66.120797 
L 74.209703 -68.717172 
L 77.536356 -71.478278 
L 81.145974 -74.387709 
L 85.038557 -77.428651 
L 89.214105 -80.583966 
L 93.672618 -83.836248 
L 98.414096 -87.167873 
L 103.438539 -90.561016 
L 108.745947 -93.997656 
L 114.33632 -97.459538 
L 120.209658 -100.928111 
L 126.365961 -104.38442 
L 132.805229 -107.808964 
L 139.527463 -111.181507 
L 146.532661 -114.480861 
L 153.820824 -117.684645 
L 161.391953 -120.769037 
L 169.246046 -123.708567 
L 177.383104 -126.47597 
L 185.803128 -129.042164 
L 194.506116 -131.376392 
L 203.492069 -133.446533 
L 212.760988 -135.21959 
L 222.312871 -136.662271 
L 232.14772 -137.741573 
L 242.265533 -138.425265 
L 252.666312 -138.682192 
L 263.350055 -138.48238 
L 274.316764 -137.796965 
L 285.566438 -136.598014 
L 297.099076 -134.858293 
L 308.91468 -132.551039 
L 321.013249 -129.649772 
L 333.394782 -126.128147 
L 346.059281 -121.959856 
L 359.006745 -117.118572 
L 372.237173 -111.577916 
L 385.750567 -105.311458 
L 399.546926 -98.292714 
L 413.62625 -90.495167 
L 413.62625 -198.355516 
L 413.62625 -198.355516 
L 399.546926 -196.586544 
L 385.750567 -194.773867 
L 372.237173 -192.909193 
L 359.006745 -190.98576 
L 346.059281 -188.99828 
L 333.394782 -186.942877 
L 321.013249 -184.81701 
L 308.91468 -182.619375 
L 297.099076 -180.349776 
L 285.566438 -178.008953 
L 274.316764 -175.598369 
L 263.350055 -173.119944 
L 252.666312 -170.575757 
L 242.265533 -167.96774 
L 232.14772 -165.297428 
L 222.312871 -162.565816 
L 212.760988 -159.773392 
L 203.492069 -156.920363 
L 194.506116 -154.007075 
L 185.803128 -151.034517 
L 177.383104 -148.004836 
L 169.246046 -144.92175 
L 161.391953 -141.790789 
L 153.820824 -138.61937 
L 146.532661 -135.416697 
L 139.527463 -132.193553 
L 132.805229 -128.962015 
L 126.365961 -125.735143 
L 120.209658 -122.526668 
L 114.33632 -119.350704 
L 108.745947 -116.221494 
L 103.438539 -113.153195 
L 98.414096 -110.159704 
L 93.672618 -107.254522 
L 89.214105 -104.450649 
L 85.038557 -101.760515 
L 81.145974 -99.195924 
L 77.536356 -96.768025 
L 74.209703 -94.487294 
L 71.166015 -92.363526 
L 68.405292 -90.405834 
L 65.927534 -88.622652 
L 63.732741 -87.021741 
L 61.820914 -85.610191 
L 60.192051 -84.394427 
L 58.846153 -83.380196 
L 57.78322 -82.572557 
L 57.003253 -81.975842 
L 56.50625 -81.593588 
z
" style="stroke: #da70d6; stroke-opacity: 0.1"/>
    </defs>
    <g clip-path="url(#p7e1ef5271e)">
     <use xlink:href="#m51ef9d2cc0" x="0" y="310.86825" style="fill: #da70d6; fill-opacity: 0.1; stroke: #da70d6; stroke-opacity: 0.1"/>
    </g>
   </g>
   <g id="FillBetweenPolyCollection_26">
    <defs>
     <path id="mfe9b69bcc4" d="M 56.50625 -77.071203 
L 56.50625 -49.65225 
L 57.003253 -49.996941 
L 57.78322 -50.536547 
L 58.846153 -51.269461 
L 60.192051 -52.193627 
L 61.820914 -53.306575 
L 63.732741 -54.605444 
L 65.927534 -56.087006 
L 68.405292 -57.747681 
L 71.166015 -59.583553 
L 74.209703 -61.590378 
L 77.536356 -63.763606 
L 81.145974 -66.098387 
L 85.038557 -68.589594 
L 89.214105 -71.231848 
L 93.672618 -74.019547 
L 98.414096 -76.946908 
L 103.438539 -80.008026 
L 108.745947 -83.196932 
L 114.33632 -86.507681 
L 120.209658 -89.934433 
L 126.365961 -93.471551 
L 132.805229 -97.113692 
L 139.527463 -100.855891 
L 146.532661 -104.693623 
L 153.820824 -108.622843 
L 161.391953 -112.639996 
L 169.246046 -116.741998 
L 177.383104 -120.92618 
L 185.803128 -125.190221 
L 194.506116 -129.532061 
L 203.492069 -133.949807 
L 212.760988 -138.441647 
L 222.312871 -143.005765 
L 232.14772 -147.640268 
L 242.265533 -152.343135 
L 252.666312 -157.112165 
L 263.350055 -161.944953 
L 274.316764 -166.838867 
L 285.566438 -171.791039 
L 297.099076 -176.798367 
L 308.91468 -181.857514 
L 321.013249 -186.964927 
L 333.394782 -192.116843 
L 346.059281 -197.309313 
L 359.006745 -202.538216 
L 372.237173 -207.79928 
L 385.750567 -213.088103 
L 399.546926 -218.400173 
L 413.62625 -223.730886 
L 413.62625 -283.715447 
L 413.62625 -283.715447 
L 399.546926 -275.601601 
L 385.750567 -267.647169 
L 372.237173 -259.850314 
L 359.006745 -252.209433 
L 346.059281 -244.723175 
L 333.394782 -237.390444 
L 321.013249 -230.210425 
L 308.91468 -223.182588 
L 297.099076 -216.306706 
L 285.566438 -209.582863 
L 274.316764 -203.011462 
L 263.350055 -196.593228 
L 252.666312 -190.32921 
L 242.265533 -184.220769 
L 232.14772 -178.269564 
L 222.312871 -172.477526 
L 212.760988 -166.846822 
L 203.492069 -161.379798 
L 194.506116 -156.078923 
L 185.803128 -150.946703 
L 177.383104 -145.985598 
L 169.246046 -141.197919 
L 161.391953 -136.585735 
L 153.820824 -132.150774 
L 146.532661 -127.894348 
L 139.527463 -123.817293 
L 132.805229 -119.919942 
L 126.365961 -116.202125 
L 120.209658 -112.663201 
L 114.33632 -109.302115 
L 108.745947 -106.117471 
L 103.438539 -103.10762 
L 98.414096 -100.270739 
L 93.672618 -97.604916 
L 89.214105 -95.108219 
L 85.038557 -92.77875 
L 81.145974 -90.614693 
L 77.536356 -88.614344 
L 74.209703 -86.776129 
L 71.166015 -85.098623 
L 68.405292 -83.580551 
L 65.927534 -82.220789 
L 63.732741 -81.018365 
L 61.820914 -79.972451 
L 60.192051 -79.082363 
L 58.846153 -78.347552 
L 57.78322 -77.7676 
L 57.003253 -77.34221 
L 56.50625 -77.071203 
z
" style="stroke: #87ceeb; stroke-opacity: 0.1"/>
    </defs>
    <g clip-path="url(#p7e1ef5271e)">
     <use xlink:href="#mfe9b69bcc4" x="0" y="310.86825" style="fill: #87ceeb; fill-opacity: 0.1; stroke: #87ceeb; stroke-opacity: 0.1"/>
    </g>
   </g>
   <g id="FillBetweenPolyCollection_27">
    <defs>
     <path id="m2b3a495769" d="M 56.50625 -81.061405 
L 56.50625 -51.924708 
L 57.003253 -52.425149 
L 57.78322 -53.204087 
L 58.846153 -54.254113 
L 60.192051 -55.566063 
L 61.820914 -57.129266 
L 63.732741 -58.931752 
L 65.927534 -60.960426 
L 68.405292 -63.201227 
L 71.166015 -65.639259 
L 74.209703 -68.25892 
L 77.536356 -71.044009 
L 81.145974 -73.977831 
L 85.038557 -77.043282 
L 89.214105 -80.222931 
L 93.672618 -83.499084 
L 98.414096 -86.853829 
L 103.438539 -90.26907 
L 108.745947 -93.726531 
L 114.33632 -97.207732 
L 120.209658 -100.693938 
L 126.365961 -104.166066 
L 132.805229 -107.60455 
L 139.527463 -110.989177 
L 146.532661 -114.298879 
L 153.820824 -117.511505 
L 161.391953 -120.60359 
L 169.246046 -123.550143 
L 177.383104 -126.324506 
L 185.803128 -128.898316 
L 194.506116 -131.241611 
L 203.492069 -133.323112 
L 212.760988 -135.110655 
L 222.312871 -136.571731 
L 232.14772 -137.674031 
L 242.265533 -138.385923 
L 252.666312 -138.67676 
L 263.350055 -138.51701 
L 274.316764 -137.878224 
L 285.566438 -136.732887 
L 297.099076 -135.054217 
L 308.91468 -132.815952 
L 321.013249 -129.992175 
L 333.394782 -126.557168 
L 346.059281 -122.485316 
L 359.006745 -117.751049 
L 372.237173 -112.328806 
L 385.750567 -106.193028 
L 399.546926 -99.318161 
L 413.62625 -91.678662 
L 413.62625 -199.075411 
L 413.62625 -199.075411 
L 399.546926 -197.170018 
L 385.750567 -195.23859 
L 372.237173 -193.271422 
L 359.006745 -191.260365 
L 346.059281 -189.198771 
L 333.394782 -187.081425 
L 321.013249 -184.904472 
L 308.91468 -182.665312 
L 297.099076 -180.362471 
L 285.566438 -177.995434 
L 274.316764 -175.564434 
L 263.350055 -173.070198 
L 252.666312 -170.51367 
L 242.265533 -167.895733 
L 232.14772 -165.216995 
L 222.312871 -162.477675 
L 212.760988 -159.67767 
L 203.492069 -156.816788 
L 194.506116 -153.895151 
L 185.803128 -150.91367 
L 177.383104 -147.874515 
L 169.246046 -144.781471 
L 161.391953 -141.640152 
L 153.820824 -138.458031 
L 146.532661 -135.244338 
L 139.527463 -132.009841 
L 132.805229 -128.766564 
L 126.365961 -125.527489 
L 120.209658 -122.30625 
L 114.33632 -119.116861 
L 108.745947 -115.973475 
L 103.438539 -112.890176 
L 98.414096 -109.880821 
L 93.672618 -106.958904 
L 89.214105 -104.137466 
L 85.038557 -101.429019 
L 81.145974 -98.845497 
L 77.536356 -96.398226 
L 74.209703 -94.097898 
L 71.166015 -91.954564 
L 68.405292 -89.977623 
L 65.927534 -88.17582 
L 63.732741 -86.557243 
L 61.820914 -85.129319 
L 60.192051 -83.898806 
L 58.846153 -82.87178 
L 57.78322 -82.053606 
L 57.003253 -81.448891 
L 56.50625 -81.061405 
z
" style="stroke: #da70d6; stroke-opacity: 0.1"/>
    </defs>
    <g clip-path="url(#p7e1ef5271e)">
     <use xlink:href="#m2b3a495769" x="0" y="310.86825" style="fill: #da70d6; fill-opacity: 0.1; stroke: #da70d6; stroke-opacity: 0.1"/>
    </g>
   </g>
   <g id="FillBetweenPolyCollection_28">
    <defs>
     <path id="me9f1c46dd8" d="M 56.50625 -77.293386 
L 56.50625 -49.885371 
L 57.003253 -50.226181 
L 57.78322 -50.759771 
L 58.846153 -51.484619 
L 60.192051 -52.398777 
L 61.820914 -53.499897 
L 63.732741 -54.785258 
L 65.927534 -56.251785 
L 68.405292 -57.89606 
L 71.166015 -59.714341 
L 74.209703 -61.702566 
L 77.536356 -63.85637 
L 81.145974 -66.171096 
L 85.038557 -68.641808 
L 89.214105 -71.263319 
L 93.672618 -74.030213 
L 98.414096 -76.936891 
L 103.438539 -79.977617 
L 108.745947 -83.146584 
L 114.33632 -86.43799 
L 120.209658 -89.846125 
L 126.365961 -93.365464 
L 132.805229 -96.990763 
L 139.527463 -100.717138 
L 146.532661 -104.540141 
L 153.820824 -108.455795 
L 161.391953 -112.460617 
L 169.246046 -116.551597 
L 177.383104 -120.72615 
L 185.803128 -124.982053 
L 194.506116 -129.317354 
L 203.492069 -133.730286 
L 212.760988 -138.219174 
L 222.312871 -142.782351 
L 232.14772 -147.418084 
L 242.265533 -152.124516 
L 252.666312 -156.899619 
L 263.350055 -161.741161 
L 274.316764 -166.646684 
L 285.566438 -171.613491 
L 297.099076 -176.638649 
L 308.91468 -181.718983 
L 321.013249 -186.851094 
L 333.394782 -192.031363 
L 346.059281 -197.255974 
L 359.006745 -202.520925 
L 372.237173 -207.82205 
L 385.750567 -213.155035 
L 399.546926 -218.515438 
L 413.62625 -223.898705 
L 413.62625 -283.896729 
L 413.62625 -283.896729 
L 399.546926 -275.730652 
L 385.750567 -267.726982 
L 372.237173 -259.883947 
L 359.006745 -252.200003 
L 346.059281 -244.673849 
L 333.394782 -237.304439 
L 321.013249 -230.090998 
L 308.91468 -223.033028 
L 297.099076 -216.130326 
L 285.566438 -209.382991 
L 274.316764 -202.791431 
L 263.350055 -196.356363 
L 252.666312 -190.078816 
L 242.265533 -183.960119 
L 232.14772 -178.001882 
L 222.312871 -172.205973 
L 212.760988 -166.574473 
L 203.492069 -161.109629 
L 194.506116 -155.813785 
L 185.803128 -150.689305 
L 177.383104 -145.738478 
L 169.246046 -140.963429 
L 161.391953 -136.366013 
L 153.820824 -131.94773 
L 146.532661 -127.709645 
L 139.527463 -123.65234 
L 132.805229 -119.77589 
L 126.365961 -116.079866 
L 120.209658 -112.563377 
L 114.33632 -109.22513 
L 108.745947 -106.063507 
L 103.438539 -103.076651 
L 98.414096 -100.262551 
L 93.672618 -97.619126 
L 89.214105 -95.144284 
L 85.038557 -92.83599 
L 81.145974 -90.692295 
L 77.536356 -88.711375 
L 74.209703 -86.891549 
L 71.166015 -85.231287 
L 68.405292 -83.729216 
L 65.927534 -82.384122 
L 63.732741 -81.194947 
L 61.820914 -80.160784 
L 60.192051 -79.280872 
L 58.846153 -78.554593 
L 57.78322 -77.981466 
L 57.003253 -77.56114 
L 56.50625 -77.293386 
z
" style="stroke: #87ceeb; stroke-opacity: 0.1"/>
    </defs>
    <g clip-path="url(#p7e1ef5271e)">
     <use xlink:href="#me9f1c46dd8" x="0" y="310.86825" style="fill: #87ceeb; fill-opacity: 0.1; stroke: #87ceeb; stroke-opacity: 0.1"/>
    </g>
   </g>
   <g id="FillBetweenPolyCollection_29">
    <defs>
     <path id="mfa66fe3a4e" d="M 56.50625 -84.278856 
L 56.50625 -52.455583 
L 57.003253 -52.945865 
L 57.78322 -53.709078 
L 58.846153 -54.738054 
L 60.192051 -56.02391 
L 61.820914 -57.556296 
L 63.732741 -59.323596 
L 65.927534 -61.313095 
L 68.405292 -63.51114 
L 71.166015 -65.903267 
L 74.209703 -68.474331 
L 77.536356 -71.208612 
L 81.145974 -74.089916 
L 85.038557 -77.101663 
L 89.214105 -80.226961 
L 93.672618 -83.448664 
L 98.414096 -86.749417 
L 103.438539 -90.111678 
L 108.745947 -93.517721 
L 114.33632 -96.949606 
L 120.209658 -100.389127 
L 126.365961 -103.817723 
L 132.805229 -107.216358 
L 139.527463 -110.565365 
L 146.532661 -113.844265 
L 153.820824 -117.031558 
L 161.391953 -120.104502 
L 169.246046 -123.038905 
L 177.383104 -125.808945 
L 185.803128 -128.387057 
L 194.506116 -130.743927 
L 203.492069 -132.84862 
L 212.760988 -134.668849 
L 222.312871 -136.171391 
L 232.14772 -137.32259 
L 242.265533 -138.088885 
L 252.666312 -138.437279 
L 263.350055 -138.335677 
L 274.316764 -137.753073 
L 285.566438 -136.659575 
L 297.099076 -135.026311 
L 308.91468 -132.825263 
L 321.013249 -130.029074 
L 333.394782 -126.610859 
L 346.059281 -122.544049 
L 359.006745 -117.802269 
L 372.237173 -112.359246 
L 385.750567 -106.188759 
L 399.546926 -99.264599 
L 413.62625 -91.560559 
L 413.62625 -201.383728 
L 413.62625 -201.383728 
L 399.546926 -199.59694 
L 385.750567 -197.772965 
L 372.237173 -195.903722 
L 359.006745 -193.982617 
L 346.059281 -192.00446 
L 333.394782 -189.965366 
L 321.013249 -187.862623 
L 308.91468 -185.694541 
L 297.099076 -183.460256 
L 285.566438 -181.159497 
L 274.316764 -178.792335 
L 263.350055 -176.358913 
L 252.666312 -173.859206 
L 242.265533 -171.29286 
L 232.14772 -168.659145 
L 222.312871 -165.957062 
L 212.760988 -163.185618 
L 203.492069 -160.344219 
L 194.506116 -157.433125 
L 185.803128 -154.453886 
L 177.383104 -151.409679 
L 169.246046 -148.305513 
L 161.391953 -145.148285 
L 153.820824 -141.946702 
L 146.532661 -138.711096 
L 139.527463 -135.453181 
L 132.805229 -132.185769 
L 126.365961 -128.922482 
L 120.209658 -125.677479 
L 114.33632 -122.465199 
L 108.745947 -119.300139 
L 103.438539 -116.196666 
L 98.414096 -113.168861 
L 93.672618 -110.230392 
L 89.214105 -107.394416 
L 85.038557 -104.673514 
L 81.145974 -102.079632 
L 77.536356 -99.624054 
L 74.209703 -97.317381 
L 71.166015 -95.169519 
L 68.405292 -93.189683 
L 65.927534 -91.386395 
L 63.732741 -89.767492 
L 61.820914 -88.340131 
L 60.192051 -87.110791 
L 58.846153 -86.085268 
L 57.78322 -85.268662 
L 57.003253 -84.665337 
L 56.50625 -84.278856 
z
" style="stroke: #da70d6; stroke-opacity: 0.1"/>
    </defs>
    <g clip-path="url(#p7e1ef5271e)">
     <use xlink:href="#mfa66fe3a4e" x="0" y="310.86825" style="fill: #da70d6; fill-opacity: 0.1; stroke: #da70d6; stroke-opacity: 0.1"/>
    </g>
   </g>
   <g id="FillBetweenPolyCollection_30">
    <defs>
     <path id="m01b07fcbd0" d="M 56.50625 -80.653077 
L 56.50625 -50.396996 
L 57.003253 -50.738006 
L 57.78322 -51.271862 
L 58.846153 -51.996987 
L 60.192051 -52.91137 
L 61.820914 -54.012596 
L 63.732741 -55.297881 
L 65.927534 -56.764089 
L 68.405292 -58.407763 
L 71.166015 -60.225139 
L 74.209703 -62.21217 
L 77.536356 -64.364542 
L 81.145974 -66.677701 
L 85.038557 -69.146874 
L 89.214105 -71.767099 
L 93.672618 -74.53326 
L 98.414096 -77.440124 
L 103.438539 -80.482388 
L 108.745947 -83.654731 
L 114.33632 -86.95187 
L 120.209658 -90.368622 
L 126.365961 -93.899959 
L 132.805229 -97.54107 
L 139.527463 -101.287406 
L 146.532661 -105.134719 
L 153.820824 -109.079087 
L 161.391953 -113.116916 
L 169.246046 -117.244931 
L 177.383104 -121.460146 
L 185.803128 -125.759823 
L 194.506116 -130.141419 
L 203.492069 -134.60253 
L 212.760988 -139.140828 
L 222.312871 -143.754004 
L 232.14772 -148.439714 
L 242.265533 -153.195535 
L 252.666312 -158.018923 
L 263.350055 -162.907185 
L 274.316764 -167.857457 
L 285.566438 -172.866689 
L 297.099076 -177.93164 
L 308.91468 -183.048873 
L 321.013249 -188.214764 
L 333.394782 -193.425509 
L 346.059281 -198.677132 
L 359.006745 -203.965505 
L 372.237173 -209.286357 
L 385.750567 -214.6353 
L 399.546926 -220.007838 
L 413.62625 -225.399388 
L 413.62625 -287.803008 
L 413.62625 -287.803008 
L 399.546926 -279.679441 
L 385.750567 -271.71721 
L 372.237173 -263.914469 
L 359.006745 -256.269602 
L 346.059281 -248.781234 
L 333.394782 -241.448244 
L 321.013249 -234.269769 
L 308.91468 -227.245224 
L 297.099076 -220.3743 
L 285.566438 -213.656975 
L 274.316764 -207.093516 
L 263.350055 -200.684471 
L 252.666312 -194.430669 
L 242.265533 -188.333199 
L 232.14772 -182.393396 
L 222.312871 -176.612806 
L 212.760988 -170.993155 
L 203.492069 -165.536299 
L 194.506116 -160.244173 
L 185.803128 -155.118728 
L 177.383104 -150.161871 
L 169.246046 -145.375392 
L 161.391953 -140.760901 
L 153.820824 -136.319769 
L 146.532661 -132.053079 
L 139.527463 -127.961589 
L 132.805229 -124.045714 
L 126.365961 -120.305521 
L 120.209658 -116.740749 
L 114.33632 -113.350837 
L 108.745947 -110.134961 
L 103.438539 -107.09209 
L 98.414096 -104.221029 
L 93.672618 -101.520478 
L 89.214105 -98.989073 
L 85.038557 -96.625434 
L 81.145974 -94.428196 
L 77.536356 -92.396042 
L 74.209703 -90.527723 
L 71.166015 -88.822078 
L 68.405292 -87.278043 
L 65.927534 -85.894663 
L 63.732741 -84.671093 
L 61.820914 -83.606607 
L 60.192051 -82.700592 
L 58.846153 -81.952555 
L 57.78322 -81.362117 
L 57.003253 -80.929012 
L 56.50625 -80.653077 
z
" style="stroke: #87ceeb; stroke-opacity: 0.1"/>
    </defs>
    <g clip-path="url(#p7e1ef5271e)">
     <use xlink:href="#m01b07fcbd0" x="0" y="310.86825" style="fill: #87ceeb; fill-opacity: 0.1; stroke: #87ceeb; stroke-opacity: 0.1"/>
    </g>
   </g>
   <g id="FillBetweenPolyCollection_31">
    <defs>
     <path id="mb1c4d8a0ab" d="M 56.50625 -83.743013 
L 56.50625 -51.84692 
L 57.003253 -52.342527 
L 57.78322 -53.113933 
L 58.846153 -54.153794 
L 60.192051 -55.453024 
L 61.820914 -57.001045 
L 63.732741 -58.785995 
L 65.927534 -60.794903 
L 68.405292 -63.013846 
L 71.166015 -65.428086 
L 74.209703 -68.022193 
L 77.536356 -70.780163 
L 81.145974 -73.685512 
L 85.038557 -76.721372 
L 89.214105 -79.870561 
L 93.672618 -83.115653 
L 98.414096 -86.439024 
L 103.438539 -89.822876 
L 108.745947 -93.249254 
L 114.33632 -96.700021 
L 120.209658 -100.156816 
L 126.365961 -103.600976 
L 132.805229 -107.013429 
L 139.527463 -110.374551 
L 146.532661 -113.663989 
L 153.820824 -116.860468 
L 161.391953 -119.941579 
L 169.246046 -122.883567 
L 177.383104 -125.661155 
L 185.803128 -128.247422 
L 194.506116 -130.61378 
L 203.492069 -132.730069 
L 212.760988 -134.564798 
L 222.312871 -136.085523 
L 232.14772 -137.259317 
L 242.265533 -138.053276 
L 252.666312 -138.434976 
L 263.350055 -138.372833 
L 274.316764 -137.836301 
L 285.566438 -136.795932 
L 297.099076 -135.223309 
L 308.91468 -133.090906 
L 321.013249 -130.371908 
L 333.394782 -127.040035 
L 346.059281 -123.069391 
L 359.006745 -118.434335 
L 372.237173 -113.109397 
L 385.750567 -107.069216 
L 399.546926 -100.288505 
L 413.62625 -92.742027 
L 413.62625 -202.08348 
L 413.62625 -202.08348 
L 399.546926 -200.161919 
L 385.750567 -198.220839 
L 372.237173 -196.250734 
L 359.006745 -194.243611 
L 346.059281 -192.192906 
L 333.394782 -190.093374 
L 321.013249 -187.940965 
L 308.91468 -185.73267 
L 297.099076 -183.466319 
L 285.566438 -181.140368 
L 274.316764 -178.753644 
L 263.350055 -176.305103 
L 252.666312 -173.79361 
L 242.265533 -171.217809 
L 232.14772 -168.576105 
L 222.312871 -165.866798 
L 212.760988 -163.088362 
L 203.492069 -160.239836 
L 194.506116 -157.321258 
L 185.803128 -154.334064 
L 177.383104 -151.281392 
L 169.246046 -148.16825 
L 161.391953 -145.001547 
L 153.820824 -141.78999 
L 146.532661 -138.543898 
L 139.527463 -135.274948 
L 132.805229 -131.9959 
L 126.365961 -128.720309 
L 120.209658 -125.46226 
L 114.33632 -122.236123 
L 108.745947 -119.056338 
L 103.438539 -115.937236 
L 98.414096 -112.892886 
L 93.672618 -109.93698 
L 89.214105 -107.08274 
L 85.038557 -104.342847 
L 81.145974 -101.729392 
L 77.536356 -99.253844 
L 74.209703 -96.927027 
L 71.166015 -94.759106 
L 68.405292 -92.759582 
L 65.927534 -90.937287 
L 63.732741 -89.300384 
L 61.820914 -87.856363 
L 60.192051 -86.612036 
L 58.846153 -85.573525 
L 57.78322 -84.746231 
L 57.003253 -84.134796 
L 56.50625 -83.743013 
z
" style="stroke: #da70d6; stroke-opacity: 0.1"/>
    </defs>
    <g clip-path="url(#p7e1ef5271e)">
     <use xlink:href="#mb1c4d8a0ab" x="0" y="310.86825" style="fill: #da70d6; fill-opacity: 0.1; stroke: #da70d6; stroke-opacity: 0.1"/>
    </g>
   </g>
   <g id="FillBetweenPolyCollection_32">
    <defs>
     <path id="me1d549c9df" d="M 56.50625 -80.885671 
L 56.50625 -50.645021 
L 57.003253 -50.982181 
L 57.78322 -51.510068 
L 58.846153 -52.22719 
L 60.192051 -53.13164 
L 61.820914 -54.221124 
L 63.732741 -55.492993 
L 65.927534 -56.944262 
L 68.405292 -58.571631 
L 71.166015 -60.371506 
L 74.209703 -62.340013 
L 77.536356 -64.47302 
L 81.145974 -66.766157 
L 85.038557 -69.214836 
L 89.214105 -71.81428 
L 93.672618 -74.559554 
L 98.414096 -77.445602 
L 103.438539 -80.467291 
L 108.745947 -83.619459 
L 114.33632 -86.896973 
L 120.209658 -90.294787 
L 126.365961 -93.807999 
L 132.805229 -97.431911 
L 139.527463 -101.16208 
L 146.532661 -104.994352 
L 153.820824 -108.924897 
L 161.391953 -112.950208 
L 169.246046 -117.0671 
L 177.383104 -121.27268 
L 185.803128 -125.56431 
L 194.506116 -129.939556 
L 203.492069 -134.39613 
L 212.760988 -138.931829 
L 222.312871 -143.544483 
L 232.14772 -148.231891 
L 242.265533 -152.99178 
L 252.666312 -157.821764 
L 263.350055 -162.719309 
L 274.316764 -167.681713 
L 285.566438 -172.706087 
L 297.099076 -177.789348 
L 308.91468 -182.928216 
L 321.013249 -188.119215 
L 333.394782 -193.358678 
L 346.059281 -198.642762 
L 359.006745 -203.967455 
L 372.237173 -209.328591 
L 385.750567 -214.721869 
L 399.546926 -220.142864 
L 413.62625 -225.587046 
L 413.62625 -288.000558 
L 413.62625 -288.000558 
L 399.546926 -279.825324 
L 385.750567 -271.814417 
L 372.237173 -263.966057 
L 359.006745 -256.278686 
L 346.059281 -248.750983 
L 333.394782 -241.381871 
L 321.013249 -234.170528 
L 308.91468 -227.116397 
L 297.099076 -220.219192 
L 285.566438 -213.478899 
L 274.316764 -206.895783 
L 263.350055 -200.470378 
L 252.666312 -194.203483 
L 242.265533 -188.096144 
L 232.14772 -182.149634 
L 222.312871 -176.365425 
L 212.760988 -170.745144 
L 203.492069 -165.290533 
L 194.506116 -160.003393 
L 185.803128 -154.885523 
L 177.383104 -149.938656 
L 169.246046 -145.164393 
L 161.391953 -140.564139 
L 153.820824 -136.139047 
L 146.532661 -131.889971 
L 139.527463 -127.817435 
L 132.805229 -123.921618 
L 126.365961 -120.202356 
L 120.209658 -116.659158 
L 114.33632 -113.291246 
L 108.745947 -110.097588 
L 103.438539 -107.076958 
L 98.414096 -104.227982 
L 93.672618 -101.54919 
L 89.214105 -99.039065 
L 85.038557 -96.69608 
L 81.145974 -94.51874 
L 77.536356 -92.505603 
L 74.209703 -90.655307 
L 71.166015 -88.966582 
L 68.405292 -87.438264 
L 65.927534 -86.069304 
L 63.732741 -84.85877 
L 61.820914 -83.80585 
L 60.192051 -82.909856 
L 58.846153 -82.170225 
L 57.78322 -81.586513 
L 57.003253 -81.158398 
L 56.50625 -80.885671 
z
" style="stroke: #87ceeb; stroke-opacity: 0.1"/>
    </defs>
    <g clip-path="url(#p7e1ef5271e)">
     <use xlink:href="#me1d549c9df" x="0" y="310.86825" style="fill: #87ceeb; fill-opacity: 0.1; stroke: #87ceeb; stroke-opacity: 0.1"/>
    </g>
   </g>
   <g id="matplotlib.axis_1">
    <g id="xtick_1">
     <g id="line2d_1">
      <defs>
       <path id="m63cf412827" d="M 0 0 
L 0 3.5 
" style="stroke: #000000; stroke-width: 0.8"/>
      </defs>
      <g>
       <use xlink:href="#m63cf412827" x="116.345833" y="273.312" style="stroke: #000000; stroke-width: 0.8"/>
      </g>
     </g>
     <g id="text_1">
      <!-- 0.02 -->
      <g transform="translate(105.21302 287.910437) scale(0.1 -0.1)">
       <defs>
        <path id="DejaVuSans-30" d="M 2034 4250 
Q 1547 4250 1301 3770 
Q 1056 3291 1056 2328 
Q 1056 1369 1301 889 
Q 1547 409 2034 409 
Q 2525 409 2770 889 
Q 3016 1369 3016 2328 
Q 3016 3291 2770 3770 
Q 2525 4250 2034 4250 
z
M 2034 4750 
Q 2819 4750 3233 4129 
Q 3647 3509 3647 2328 
Q 3647 1150 3233 529 
Q 2819 -91 2034 -91 
Q 1250 -91 836 529 
Q 422 1150 422 2328 
Q 422 3509 836 4129 
Q 1250 4750 2034 4750 
z
" transform="scale(0.015625)"/>
        <path id="DejaVuSans-2e" d="M 684 794 
L 1344 794 
L 1344 0 
L 684 0 
L 684 794 
z
" transform="scale(0.015625)"/>
        <path id="DejaVuSans-32" d="M 1228 531 
L 3431 531 
L 3431 0 
L 469 0 
L 469 531 
Q 828 903 1448 1529 
Q 2069 2156 2228 2338 
Q 2531 2678 2651 2914 
Q 2772 3150 2772 3378 
Q 2772 3750 2511 3984 
Q 2250 4219 1831 4219 
Q 1534 4219 1204 4116 
Q 875 4013 500 3803 
L 500 4441 
Q 881 4594 1212 4672 
Q 1544 4750 1819 4750 
Q 2544 4750 2975 4387 
Q 3406 4025 3406 3419 
Q 3406 3131 3298 2873 
Q 3191 2616 2906 2266 
Q 2828 2175 2409 1742 
Q 1991 1309 1228 531 
z
" transform="scale(0.015625)"/>
       </defs>
       <use xlink:href="#DejaVuSans-30"/>
       <use xlink:href="#DejaVuSans-2e" transform="translate(63.623047 0)"/>
       <use xlink:href="#DejaVuSans-30" transform="translate(95.410156 0)"/>
       <use xlink:href="#DejaVuSans-32" transform="translate(159.033203 0)"/>
      </g>
     </g>
    </g>
    <g id="xtick_2">
     <g id="line2d_2">
      <g>
       <use xlink:href="#m63cf412827" x="176.408756" y="273.312" style="stroke: #000000; stroke-width: 0.8"/>
      </g>
     </g>
     <g id="text_2">
      <!-- 0.04 -->
      <g transform="translate(165.275943 287.910437) scale(0.1 -0.1)">
       <defs>
        <path id="DejaVuSans-34" d="M 2419 4116 
L 825 1625 
L 2419 1625 
L 2419 4116 
z
M 2253 4666 
L 3047 4666 
L 3047 1625 
L 3713 1625 
L 3713 1100 
L 3047 1100 
L 3047 0 
L 2419 0 
L 2419 1100 
L 313 1100 
L 313 1709 
L 2253 4666 
z
" transform="scale(0.015625)"/>
       </defs>
       <use xlink:href="#DejaVuSans-30"/>
       <use xlink:href="#DejaVuSans-2e" transform="translate(63.623047 0)"/>
       <use xlink:href="#DejaVuSans-30" transform="translate(95.410156 0)"/>
       <use xlink:href="#DejaVuSans-34" transform="translate(159.033203 0)"/>
      </g>
     </g>
    </g>
    <g id="xtick_3">
     <g id="line2d_3">
      <g>
       <use xlink:href="#m63cf412827" x="236.471678" y="273.312" style="stroke: #000000; stroke-width: 0.8"/>
      </g>
     </g>
     <g id="text_3">
      <!-- 0.06 -->
      <g transform="translate(225.338866 287.910437) scale(0.1 -0.1)">
       <defs>
        <path id="DejaVuSans-36" d="M 2113 2584 
Q 1688 2584 1439 2293 
Q 1191 2003 1191 1497 
Q 1191 994 1439 701 
Q 1688 409 2113 409 
Q 2538 409 2786 701 
Q 3034 994 3034 1497 
Q 3034 2003 2786 2293 
Q 2538 2584 2113 2584 
z
M 3366 4563 
L 3366 3988 
Q 3128 4100 2886 4159 
Q 2644 4219 2406 4219 
Q 1781 4219 1451 3797 
Q 1122 3375 1075 2522 
Q 1259 2794 1537 2939 
Q 1816 3084 2150 3084 
Q 2853 3084 3261 2657 
Q 3669 2231 3669 1497 
Q 3669 778 3244 343 
Q 2819 -91 2113 -91 
Q 1303 -91 875 529 
Q 447 1150 447 2328 
Q 447 3434 972 4092 
Q 1497 4750 2381 4750 
Q 2619 4750 2861 4703 
Q 3103 4656 3366 4563 
z
" transform="scale(0.015625)"/>
       </defs>
       <use xlink:href="#DejaVuSans-30"/>
       <use xlink:href="#DejaVuSans-2e" transform="translate(63.623047 0)"/>
       <use xlink:href="#DejaVuSans-30" transform="translate(95.410156 0)"/>
       <use xlink:href="#DejaVuSans-36" transform="translate(159.033203 0)"/>
      </g>
     </g>
    </g>
    <g id="xtick_4">
     <g id="line2d_4">
      <g>
       <use xlink:href="#m63cf412827" x="296.534601" y="273.312" style="stroke: #000000; stroke-width: 0.8"/>
      </g>
     </g>
     <g id="text_4">
      <!-- 0.08 -->
      <g transform="translate(285.401788 287.910437) scale(0.1 -0.1)">
       <defs>
        <path id="DejaVuSans-38" d="M 2034 2216 
Q 1584 2216 1326 1975 
Q 1069 1734 1069 1313 
Q 1069 891 1326 650 
Q 1584 409 2034 409 
Q 2484 409 2743 651 
Q 3003 894 3003 1313 
Q 3003 1734 2745 1975 
Q 2488 2216 2034 2216 
z
M 1403 2484 
Q 997 2584 770 2862 
Q 544 3141 544 3541 
Q 544 4100 942 4425 
Q 1341 4750 2034 4750 
Q 2731 4750 3128 4425 
Q 3525 4100 3525 3541 
Q 3525 3141 3298 2862 
Q 3072 2584 2669 2484 
Q 3125 2378 3379 2068 
Q 3634 1759 3634 1313 
Q 3634 634 3220 271 
Q 2806 -91 2034 -91 
Q 1263 -91 848 271 
Q 434 634 434 1313 
Q 434 1759 690 2068 
Q 947 2378 1403 2484 
z
M 1172 3481 
Q 1172 3119 1398 2916 
Q 1625 2713 2034 2713 
Q 2441 2713 2670 2916 
Q 2900 3119 2900 3481 
Q 2900 3844 2670 4047 
Q 2441 4250 2034 4250 
Q 1625 4250 1398 4047 
Q 1172 3844 1172 3481 
z
" transform="scale(0.015625)"/>
       </defs>
       <use xlink:href="#DejaVuSans-30"/>
       <use xlink:href="#DejaVuSans-2e" transform="translate(63.623047 0)"/>
       <use xlink:href="#DejaVuSans-30" transform="translate(95.410156 0)"/>
       <use xlink:href="#DejaVuSans-38" transform="translate(159.033203 0)"/>
      </g>
     </g>
    </g>
    <g id="xtick_5">
     <g id="line2d_5">
      <g>
       <use xlink:href="#m63cf412827" x="356.597523" y="273.312" style="stroke: #000000; stroke-width: 0.8"/>
      </g>
     </g>
     <g id="text_5">
      <!-- 0.10 -->
      <g transform="translate(345.464711 287.910437) scale(0.1 -0.1)">
       <defs>
        <path id="DejaVuSans-31" d="M 794 531 
L 1825 531 
L 1825 4091 
L 703 3866 
L 703 4441 
L 1819 4666 
L 2450 4666 
L 2450 531 
L 3481 531 
L 3481 0 
L 794 0 
L 794 531 
z
" transform="scale(0.015625)"/>
       </defs>
       <use xlink:href="#DejaVuSans-30"/>
       <use xlink:href="#DejaVuSans-2e" transform="translate(63.623047 0)"/>
       <use xlink:href="#DejaVuSans-31" transform="translate(95.410156 0)"/>
       <use xlink:href="#DejaVuSans-30" transform="translate(159.033203 0)"/>
      </g>
     </g>
    </g>
    <g id="text_6">
     <!-- $l^2$ -->
     <g transform="translate(230.91625 301.588562) scale(0.1 -0.1)">
      <defs>
       <path id="DejaVuSans-Oblique-6c" d="M 1172 4863 
L 1747 4863 
L 800 0 
L 225 0 
L 1172 4863 
z
" transform="scale(0.015625)"/>
      </defs>
      <use xlink:href="#DejaVuSans-Oblique-6c" transform="translate(0 0.765625)"/>
      <use xlink:href="#DejaVuSans-32" transform="translate(35.230911 39.046875) scale(0.7)"/>
     </g>
    </g>
   </g>
   <g id="matplotlib.axis_2">
    <g id="ytick_1">
     <g id="line2d_6">
      <defs>
       <path id="m7253dd3781" d="M 0 0 
L -3.5 0 
" style="stroke: #000000; stroke-width: 0.8"/>
      </defs>
      <g>
       <use xlink:href="#m7253dd3781" x="56.50625" y="249.240711" style="stroke: #000000; stroke-width: 0.8"/>
      </g>
     </g>
     <g id="text_7">
      <!-- 1.425 -->
      <g transform="translate(20.878125 253.03993) scale(0.1 -0.1)">
       <defs>
        <path id="DejaVuSans-35" d="M 691 4666 
L 3169 4666 
L 3169 4134 
L 1269 4134 
L 1269 2991 
Q 1406 3038 1543 3061 
Q 1681 3084 1819 3084 
Q 2600 3084 3056 2656 
Q 3513 2228 3513 1497 
Q 3513 744 3044 326 
Q 2575 -91 1722 -91 
Q 1428 -91 1123 -41 
Q 819 9 494 109 
L 494 744 
Q 775 591 1075 516 
Q 1375 441 1709 441 
Q 2250 441 2565 725 
Q 2881 1009 2881 1497 
Q 2881 1984 2565 2268 
Q 2250 2553 1709 2553 
Q 1456 2553 1204 2497 
Q 953 2441 691 2322 
L 691 4666 
z
" transform="scale(0.015625)"/>
       </defs>
       <use xlink:href="#DejaVuSans-31"/>
       <use xlink:href="#DejaVuSans-2e" transform="translate(63.623047 0)"/>
       <use xlink:href="#DejaVuSans-34" transform="translate(95.410156 0)"/>
       <use xlink:href="#DejaVuSans-32" transform="translate(159.033203 0)"/>
       <use xlink:href="#DejaVuSans-35" transform="translate(222.65625 0)"/>
      </g>
     </g>
    </g>
    <g id="ytick_2">
     <g id="line2d_7">
      <g>
       <use xlink:href="#m7253dd3781" x="56.50625" y="216.334764" style="stroke: #000000; stroke-width: 0.8"/>
      </g>
     </g>
     <g id="text_8">
      <!-- 1.450 -->
      <g transform="translate(20.878125 220.133983) scale(0.1 -0.1)">
       <use xlink:href="#DejaVuSans-31"/>
       <use xlink:href="#DejaVuSans-2e" transform="translate(63.623047 0)"/>
       <use xlink:href="#DejaVuSans-34" transform="translate(95.410156 0)"/>
       <use xlink:href="#DejaVuSans-35" transform="translate(159.033203 0)"/>
       <use xlink:href="#DejaVuSans-30" transform="translate(222.65625 0)"/>
      </g>
     </g>
    </g>
    <g id="ytick_3">
     <g id="line2d_8">
      <g>
       <use xlink:href="#m7253dd3781" x="56.50625" y="183.428817" style="stroke: #000000; stroke-width: 0.8"/>
      </g>
     </g>
     <g id="text_9">
      <!-- 1.475 -->
      <g transform="translate(20.878125 187.228036) scale(0.1 -0.1)">
       <defs>
        <path id="DejaVuSans-37" d="M 525 4666 
L 3525 4666 
L 3525 4397 
L 1831 0 
L 1172 0 
L 2766 4134 
L 525 4134 
L 525 4666 
z
" transform="scale(0.015625)"/>
       </defs>
       <use xlink:href="#DejaVuSans-31"/>
       <use xlink:href="#DejaVuSans-2e" transform="translate(63.623047 0)"/>
       <use xlink:href="#DejaVuSans-34" transform="translate(95.410156 0)"/>
       <use xlink:href="#DejaVuSans-37" transform="translate(159.033203 0)"/>
       <use xlink:href="#DejaVuSans-35" transform="translate(222.65625 0)"/>
      </g>
     </g>
    </g>
    <g id="ytick_4">
     <g id="line2d_9">
      <g>
       <use xlink:href="#m7253dd3781" x="56.50625" y="150.52287" style="stroke: #000000; stroke-width: 0.8"/>
      </g>
     </g>
     <g id="text_10">
      <!-- 1.500 -->
      <g transform="translate(20.878125 154.322089) scale(0.1 -0.1)">
       <use xlink:href="#DejaVuSans-31"/>
       <use xlink:href="#DejaVuSans-2e" transform="translate(63.623047 0)"/>
       <use xlink:href="#DejaVuSans-35" transform="translate(95.410156 0)"/>
       <use xlink:href="#DejaVuSans-30" transform="translate(159.033203 0)"/>
       <use xlink:href="#DejaVuSans-30" transform="translate(222.65625 0)"/>
      </g>
     </g>
    </g>
    <g id="ytick_5">
     <g id="line2d_10">
      <g>
       <use xlink:href="#m7253dd3781" x="56.50625" y="117.616923" style="stroke: #000000; stroke-width: 0.8"/>
      </g>
     </g>
     <g id="text_11">
      <!-- 1.525 -->
      <g transform="translate(20.878125 121.416142) scale(0.1 -0.1)">
       <use xlink:href="#DejaVuSans-31"/>
       <use xlink:href="#DejaVuSans-2e" transform="translate(63.623047 0)"/>
       <use xlink:href="#DejaVuSans-35" transform="translate(95.410156 0)"/>
       <use xlink:href="#DejaVuSans-32" transform="translate(159.033203 0)"/>
       <use xlink:href="#DejaVuSans-35" transform="translate(222.65625 0)"/>
      </g>
     </g>
    </g>
    <g id="ytick_6">
     <g id="line2d_11">
      <g>
       <use xlink:href="#m7253dd3781" x="56.50625" y="84.710977" style="stroke: #000000; stroke-width: 0.8"/>
      </g>
     </g>
     <g id="text_12">
      <!-- 1.550 -->
      <g transform="translate(20.878125 88.510195) scale(0.1 -0.1)">
       <use xlink:href="#DejaVuSans-31"/>
       <use xlink:href="#DejaVuSans-2e" transform="translate(63.623047 0)"/>
       <use xlink:href="#DejaVuSans-35" transform="translate(95.410156 0)"/>
       <use xlink:href="#DejaVuSans-35" transform="translate(159.033203 0)"/>
       <use xlink:href="#DejaVuSans-30" transform="translate(222.65625 0)"/>
      </g>
     </g>
    </g>
    <g id="ytick_7">
     <g id="line2d_12">
      <g>
       <use xlink:href="#m7253dd3781" x="56.50625" y="51.80503" style="stroke: #000000; stroke-width: 0.8"/>
      </g>
     </g>
     <g id="text_13">
      <!-- 1.575 -->
      <g transform="translate(20.878125 55.604248) scale(0.1 -0.1)">
       <use xlink:href="#DejaVuSans-31"/>
       <use xlink:href="#DejaVuSans-2e" transform="translate(63.623047 0)"/>
       <use xlink:href="#DejaVuSans-35" transform="translate(95.410156 0)"/>
       <use xlink:href="#DejaVuSans-37" transform="translate(159.033203 0)"/>
       <use xlink:href="#DejaVuSans-35" transform="translate(222.65625 0)"/>
      </g>
     </g>
    </g>
    <g id="ytick_8">
     <g id="line2d_13">
      <g>
       <use xlink:href="#m7253dd3781" x="56.50625" y="18.899083" style="stroke: #000000; stroke-width: 0.8"/>
      </g>
     </g>
     <g id="text_14">
      <!-- 1.600 -->
      <g transform="translate(20.878125 22.698302) scale(0.1 -0.1)">
       <use xlink:href="#DejaVuSans-31"/>
       <use xlink:href="#DejaVuSans-2e" transform="translate(63.623047 0)"/>
       <use xlink:href="#DejaVuSans-36" transform="translate(95.410156 0)"/>
       <use xlink:href="#DejaVuSans-30" transform="translate(159.033203 0)"/>
       <use xlink:href="#DejaVuSans-30" transform="translate(222.65625 0)"/>
      </g>
     </g>
    </g>
    <g id="text_15">
     <!-- $w_0 m_\Omega$ -->
     <g transform="translate(14.798438 154.406) rotate(-90) scale(0.1 -0.1)">
      <defs>
       <path id="DejaVuSans-Oblique-77" d="M 544 3500 
L 1113 3500 
L 1259 684 
L 2566 3500 
L 3231 3500 
L 3425 684 
L 4666 3500 
L 5241 3500 
L 3641 0 
L 2969 0 
L 2797 2900 
L 1459 0 
L 781 0 
L 544 3500 
z
" transform="scale(0.015625)"/>
       <path id="DejaVuSans-Oblique-6d" d="M 5747 2113 
L 5338 0 
L 4763 0 
L 5166 2094 
Q 5191 2228 5203 2325 
Q 5216 2422 5216 2491 
Q 5216 2772 5059 2928 
Q 4903 3084 4622 3084 
Q 4203 3084 3875 2770 
Q 3547 2456 3450 1953 
L 3066 0 
L 2491 0 
L 2900 2094 
Q 2925 2209 2937 2307 
Q 2950 2406 2950 2484 
Q 2950 2769 2794 2926 
Q 2638 3084 2363 3084 
Q 1938 3084 1609 2770 
Q 1281 2456 1184 1953 
L 800 0 
L 225 0 
L 909 3500 
L 1484 3500 
L 1375 2956 
Q 1609 3263 1923 3423 
Q 2238 3584 2597 3584 
Q 2978 3584 3223 3384 
Q 3469 3184 3519 2828 
Q 3781 3197 4126 3390 
Q 4472 3584 4856 3584 
Q 5306 3584 5551 3325 
Q 5797 3066 5797 2591 
Q 5797 2488 5784 2364 
Q 5772 2241 5747 2113 
z
" transform="scale(0.015625)"/>
       <path id="DejaVuSans-3a9" d="M 4647 556 
L 4647 0 
L 2772 0 
L 2772 556 
Q 3325 859 3634 1378 
Q 3944 1897 3944 2528 
Q 3944 3278 3531 3731 
Q 3119 4184 2444 4184 
Q 1769 4184 1355 3729 
Q 941 3275 941 2528 
Q 941 1897 1250 1378 
Q 1563 859 2119 556 
L 2119 0 
L 244 0 
L 244 556 
L 1241 556 
Q 747 991 519 1456 
Q 294 1922 294 2497 
Q 294 3491 894 4106 
Q 1491 4722 2444 4722 
Q 3391 4722 3994 4106 
Q 4594 3494 4594 2528 
Q 4594 1922 4372 1459 
Q 4150 997 3647 556 
L 4647 556 
z
" transform="scale(0.015625)"/>
      </defs>
      <use xlink:href="#DejaVuSans-Oblique-77"/>
      <use xlink:href="#DejaVuSans-30" transform="translate(81.787109 -16.40625) scale(0.7)"/>
      <use xlink:href="#DejaVuSans-Oblique-6d" transform="translate(129.057617 0)"/>
      <use xlink:href="#DejaVuSans-3a9" transform="translate(226.469727 -16.40625) scale(0.7)"/>
     </g>
    </g>
   </g>
   <g id="line2d_14">
    <path d="M 96.98655 273.312 
L 96.98655 7.2 
" clip-path="url(#p7e1ef5271e)" style="fill: none; stroke-dasharray: 5.55,2.4; stroke-dashoffset: 0; stroke: #87ceeb; stroke-width: 1.5"/>
   </g>
   <g id="line2d_15">
    <path d="M 75.850985 273.312 
L 75.850985 7.2 
" clip-path="url(#p7e1ef5271e)" style="fill: none; stroke-dasharray: 5.55,2.4; stroke-dashoffset: 0; stroke: #da70d6; stroke-width: 1.5"/>
   </g>
   <g id="LineCollection_1">
    <path d="M 96.98655 233.98879 
L 96.98655 208.819916 
" clip-path="url(#p7e1ef5271e)" style="fill: none; stroke: #000000; stroke-width: 1.5"/>
   </g>
   <g id="LineCollection_2">
    <path d="M 75.850985 240.103773 
L 75.850985 212.910981 
" clip-path="url(#p7e1ef5271e)" style="fill: none; stroke: #000000; stroke-width: 1.5"/>
   </g>
   <g id="line2d_16">
    <path d="M 96.98655 221.404353 
" clip-path="url(#p7e1ef5271e)" style="fill: none; stroke: #000000; stroke-width: 1.5; stroke-linecap: square"/>
    <defs>
     <path id="m1fb98e004f" d="M 0 3 
C 0.795609 3 1.55874 2.683901 2.12132 2.12132 
C 2.683901 1.55874 3 0.795609 3 0 
C 3 -0.795609 2.683901 -1.55874 2.12132 -2.12132 
C 1.55874 -2.683901 0.795609 -3 0 -3 
C -0.795609 -3 -1.55874 -2.683901 -2.12132 -2.12132 
C -2.683901 -1.55874 -3 -0.795609 -3 0 
C -3 0.795609 -2.683901 1.55874 -2.12132 2.12132 
C -1.55874 2.683901 -0.795609 3 0 3 
z
" style="stroke: #000000"/>
    </defs>
    <g clip-path="url(#p7e1ef5271e)">
     <use xlink:href="#m1fb98e004f" x="96.98655" y="221.404353" style="stroke: #000000"/>
    </g>
   </g>
   <g id="line2d_17">
    <path d="M 75.850985 226.507377 
" clip-path="url(#p7e1ef5271e)" style="fill: none; stroke: #000000; stroke-width: 1.5; stroke-linecap: square"/>
    <g clip-path="url(#p7e1ef5271e)">
     <use xlink:href="#m1fb98e004f" x="75.850985" y="226.507377" style="stroke: #000000"/>
    </g>
   </g>
   <g id="patch_3">
    <path d="M 56.50625 273.312 
L 56.50625 7.2 
" style="fill: none; stroke: #000000; stroke-width: 0.8; stroke-linejoin: miter; stroke-linecap: square"/>
   </g>
   <g id="patch_4">
    <path d="M 413.62625 273.312 
L 413.62625 7.2 
" style="fill: none; stroke: #000000; stroke-width: 0.8; stroke-linejoin: miter; stroke-linecap: square"/>
   </g>
   <g id="patch_5">
    <path d="M 56.50625 273.312 
L 413.62625 273.312 
" style="fill: none; stroke: #000000; stroke-width: 0.8; stroke-linejoin: miter; stroke-linecap: square"/>
   </g>
   <g id="patch_6">
    <path d="M 56.50625 7.2 
L 413.62625 7.2 
" style="fill: none; stroke: #000000; stroke-width: 0.8; stroke-linejoin: miter; stroke-linecap: square"/>
   </g>
   <g id="legend_1">
    <g id="patch_7">
     <path d="M 359.22625 268.312 
L 406.62625 268.312 
Q 408.62625 268.312 408.62625 266.312 
L 408.62625 237.95575 
Q 408.62625 235.95575 406.62625 235.95575 
L 359.22625 235.95575 
Q 357.22625 235.95575 357.22625 237.95575 
L 357.22625 266.312 
Q 357.22625 268.312 359.22625 268.312 
z
" style="fill: #ffffff; opacity: 0.8; stroke: #cccccc; stroke-linejoin: miter"/>
    </g>
    <g id="patch_8">
     <path d="M 361.22625 247.554187 
L 381.22625 247.554187 
L 381.22625 240.554187 
L 361.22625 240.554187 
z
" style="fill: #87ceeb; opacity: 0.5; stroke: #87ceeb; stroke-linejoin: miter"/>
    </g>
    <g id="text_16">
     <!-- $F_\pi$ -->
     <g transform="translate(389.22625 247.554187) scale(0.1 -0.1)">
      <defs>
       <path id="DejaVuSans-Oblique-46" d="M 1081 4666 
L 3756 4666 
L 3653 4134 
L 1606 4134 
L 1338 2759 
L 3188 2759 
L 3084 2228 
L 1234 2228 
L 800 0 
L 172 0 
L 1081 4666 
z
" transform="scale(0.015625)"/>
       <path id="DejaVuSans-Oblique-3c0" d="M 584 3500 
L 3938 3500 
L 3825 2925 
L 3384 2925 
L 2966 775 
Q 2922 550 2981 450 
Q 3038 353 3209 353 
Q 3256 353 3325 363 
Q 3397 369 3419 372 
L 3338 -44 
Q 3222 -84 3103 -103 
Q 2981 -122 2866 -122 
Q 2491 -122 2388 81 
Q 2284 288 2391 838 
L 2797 2925 
L 1506 2925 
L 938 0 
L 350 0 
L 919 2925 
L 472 2925 
L 584 3500 
z
" transform="scale(0.015625)"/>
      </defs>
      <use xlink:href="#DejaVuSans-Oblique-46" transform="translate(0 0.09375)"/>
      <use xlink:href="#DejaVuSans-Oblique-3c0" transform="translate(57.519531 -16.3125) scale(0.7)"/>
     </g>
    </g>
    <g id="patch_9">
     <path d="M 361.22625 262.232312 
L 381.22625 262.232312 
L 381.22625 255.232312 
L 361.22625 255.232312 
z
" style="fill: #da70d6; opacity: 0.5; stroke: #da70d6; stroke-linejoin: miter"/>
    </g>
    <g id="text_17">
     <!-- $m_\Omega$ -->
     <g transform="translate(389.22625 262.232312) scale(0.1 -0.1)">
      <use xlink:href="#DejaVuSans-Oblique-6d"/>
      <use xlink:href="#DejaVuSans-3a9" transform="translate(97.412109 -16.40625) scale(0.7)"/>
     </g>
    </g>
   </g>
  </g>
 </g>
 <defs>
  <clipPath id="p7e1ef5271e">
   <rect x="56.50625" y="7.2" width="357.12" height="266.112"/>
  </clipPath>
 </defs>
</svg>
