<?xml version="1.0" encoding="utf-8" standalone="no"?>
<!DOCTYPE svg PUBLIC "-//W3C//DTD SVG 1.1//EN"
  "http://www.w3.org/Graphics/SVG/1.1/DTD/svg11.dtd">
<svg xmlns:xlink="http://www.w3.org/1999/xlink" width="460.308125pt" height="340.738125pt" viewBox="0 0 460.308125 340.738125" xmlns="http://www.w3.org/2000/svg" version="1.1">
 <metadata>
  <rdf:RDF xmlns:dc="http://purl.org/dc/elements/1.1/" xmlns:cc="http://creativecommons.org/ns#" xmlns:rdf="http://www.w3.org/1999/02/22-rdf-syntax-ns#">
   <cc:Work>
    <dc:type rdf:resource="http://purl.org/dc/dcmitype/StillImage"/>
    <dc:date>2025-03-01T16:01:37.644599</dc:date>
    <dc:format>image/svg+xml</dc:format>
    <dc:creator>
     <cc:Agent>
      <dc:title>Matplotlib v3.10.0, https://matplotlib.org/</dc:title>
     </cc:Agent>
    </dc:creator>
   </cc:Work>
  </rdf:RDF>
 </metadata>
 <defs>
  <style type="text/css">*{stroke-linejoin: round; stroke-linecap: butt}</style>
 </defs>
 <g id="figure_1">
  <g id="patch_1">
   <path d="M 0 340.738125 
L 460.308125 340.738125 
L 460.308125 0 
L 0 0 
z
" style="fill: #ffffff"/>
  </g>
  <g id="axes_1">
   <g id="patch_2">
    <path d="M 61.428125 300.96 
L 453.108125 300.96 
L 453.108125 7.2 
L 61.428125 7.2 
z
" style="fill: #ffffff"/>
   </g>
   <g id="FillBetweenPolyCollection_1">
    <path d="M 81.105932 140.392156 
L 81.105932 197.832987 
L 88.283548 193.714332 
L 95.461164 189.629763 
L 102.63878 185.579094 
L 109.816396 181.562145 
L 116.994011 177.578745 
L 124.171627 173.628729 
L 131.349243 169.711944 
L 138.526859 165.828248 
L 145.704475 161.977511 
L 152.88209 158.159618 
L 160.059706 154.374471 
L 167.237322 150.621989 
L 174.414938 146.902115 
L 181.592553 143.214812 
L 188.770169 139.560072 
L 195.947785 135.937917 
L 203.125401 132.348402 
L 210.303017 128.791623 
L 217.480632 125.267717 
L 224.658248 121.776873 
L 231.835864 118.319337 
L 239.01348 114.895421 
L 246.191095 111.505513 
L 253.368711 108.150086 
L 260.546327 104.829716 
L 267.723943 101.545094 
L 274.901559 98.297049 
L 282.079174 95.086565 
L 289.25679 91.914812 
L 296.434406 88.783173 
L 303.612022 85.693281 
L 310.789638 82.647055 
L 317.967253 79.646753 
L 325.144869 76.695012 
L 332.322485 73.794905 
L 339.500101 70.949988 
L 346.677716 68.164347 
L 353.855332 65.442621 
L 361.032948 62.790009 
L 368.210564 60.212223 
L 375.38818 57.715389 
L 382.565795 55.305871 
L 389.743411 52.990015 
L 396.921027 50.773818 
L 404.098643 48.662561 
L 411.276258 46.660451 
L 418.453874 44.770343 
L 425.63149 42.993586 
L 432.809106 41.330039 
L 432.809106 20.552727 
L 432.809106 20.552727 
L 425.63149 22.763532 
L 418.453874 24.940233 
L 411.276258 27.082332 
L 404.098643 29.190827 
L 396.921027 31.268216 
L 389.743411 33.318352 
L 382.565795 35.346162 
L 375.38818 37.357289 
L 368.210564 39.357725 
L 361.032948 41.353479 
L 353.855332 43.350322 
L 346.677716 45.353614 
L 339.500101 47.368198 
L 332.322485 49.398359 
L 325.144869 51.447828 
L 317.967253 53.519807 
L 310.789638 55.617015 
L 303.612022 57.741736 
L 296.434406 59.89587 
L 289.25679 62.080985 
L 282.079174 64.298358 
L 274.901559 66.549019 
L 267.723943 68.833783 
L 260.546327 71.15328 
L 253.368711 73.507983 
L 246.191095 75.89823 
L 239.01348 78.324243 
L 231.835864 80.78614 
L 224.658248 83.283955 
L 217.480632 85.817646 
L 210.303017 88.387104 
L 203.125401 90.992163 
L 195.947785 93.632608 
L 188.770169 96.308179 
L 181.592553 99.018577 
L 174.414938 101.763469 
L 167.237322 104.542493 
L 160.059706 107.355259 
L 152.88209 110.201354 
L 145.704475 113.080343 
L 138.526859 115.991774 
L 131.349243 118.935178 
L 124.171627 121.910071 
L 116.994011 124.915955 
L 109.816396 127.952323 
L 102.63878 131.018658 
L 95.461164 134.114431 
L 88.283548 137.239111 
L 81.105932 140.392156 
z
" clip-path="url(#p00f6d252bf)" style="fill: url(#hb3c8a0bc0f); stroke: #000000; stroke-opacity: 0.6"/>
   </g>
   <g id="FillBetweenPolyCollection_2">
    <defs>
     <path id="m550ba714b1" d="M 81.105932 -114.512119 
L 81.105932 -53.130852 
L 88.283548 -59.043085 
L 95.461164 -64.914435 
L 102.63878 -70.744996 
L 109.816396 -76.534872 
L 116.994011 -82.284174 
L 124.171627 -87.993021 
L 131.349243 -93.661538 
L 138.526859 -99.289858 
L 145.704475 -104.878118 
L 152.88209 -110.426463 
L 160.059706 -115.93504 
L 167.237322 -121.404002 
L 174.414938 -126.833502 
L 181.592553 -132.223698 
L 188.770169 -137.574743 
L 195.947785 -142.886795 
L 203.125401 -148.160004 
L 210.303017 -153.394517 
L 217.480632 -158.590475 
L 224.658248 -163.748007 
L 231.835864 -168.867232 
L 239.01348 -173.948253 
L 246.191095 -178.991153 
L 253.368711 -183.995992 
L 260.546327 -188.962802 
L 267.723943 -193.891582 
L 274.901559 -198.782288 
L 282.079174 -203.634831 
L 289.25679 -208.449063 
L 296.434406 -213.224768 
L 303.612022 -217.961649 
L 310.789638 -222.659313 
L 317.967253 -227.317253 
L 325.144869 -231.934826 
L 332.322485 -236.511226 
L 339.500101 -241.045457 
L 346.677716 -245.536289 
L 353.855332 -249.982221 
L 361.032948 -254.38143 
L 368.210564 -258.731709 
L 375.38818 -263.030409 
L 382.565795 -267.27437 
L 389.743411 -271.459857 
L 396.921027 -275.582512 
L 404.098643 -279.637329 
L 411.276258 -283.618684 
L 418.453874 -287.520441 
L 425.63149 -291.336159 
L 432.809106 -295.059416 
L 432.809106 -309.912528 
L 432.809106 -309.912528 
L 425.63149 -306.442901 
L 418.453874 -302.988009 
L 411.276258 -299.541785 
L 404.098643 -296.098141 
L 396.921027 -292.651295 
L 389.743411 -289.195979 
L 382.565795 -285.727541 
L 375.38818 -282.241976 
L 368.210564 -278.735905 
L 361.032948 -275.206522 
L 353.855332 -271.651531 
L 346.677716 -268.069081 
L 339.500101 -264.457702 
L 332.322485 -260.816247 
L 325.144869 -257.143843 
L 317.967253 -253.439846 
L 310.789638 -249.703805 
L 303.612022 -245.935431 
L 296.434406 -242.134571 
L 289.25679 -238.301187 
L 282.079174 -234.435336 
L 274.901559 -230.537158 
L 267.723943 -226.606857 
L 260.546327 -222.644699 
L 253.368711 -218.650995 
L 246.191095 -214.626098 
L 239.01348 -210.570394 
L 231.835864 -206.484297 
L 224.658248 -202.368245 
L 217.480632 -198.222696 
L 210.303017 -194.048122 
L 203.125401 -189.845007 
L 195.947785 -185.613846 
L 188.770169 -181.35514 
L 181.592553 -177.069396 
L 174.414938 -172.757121 
L 167.237322 -168.418828 
L 160.059706 -164.055026 
L 152.88209 -159.666223 
L 145.704475 -155.252927 
L 138.526859 -150.815639 
L 131.349243 -146.354857 
L 124.171627 -141.871075 
L 116.994011 -137.364778 
L 109.816396 -132.836446 
L 102.63878 -128.286553 
L 95.461164 -123.715564 
L 88.283548 -119.123936 
L 81.105932 -114.512119 
z
" style="stroke: #ec5d57; stroke-opacity: 0.4"/>
    </defs>
    <g clip-path="url(#p00f6d252bf)">
     <use xlink:href="#m550ba714b1" x="0" y="340.738125" style="fill: #ec5d57; fill-opacity: 0.4; stroke: #ec5d57; stroke-opacity: 0.4"/>
    </g>
   </g>
   <g id="FillBetweenPolyCollection_3">
    <defs>
     <path id="m3a65ea6614" d="M 81.105932 -125.277954 
L 81.105932 -87.757278 
L 88.283548 -92.945026 
L 95.461164 -98.090877 
L 102.63878 -103.195103 
L 109.816396 -108.257995 
L 116.994011 -113.279864 
L 124.171627 -118.261043 
L 131.349243 -123.201883 
L 138.526859 -128.102753 
L 145.704475 -132.964039 
L 152.88209 -137.786142 
L 160.059706 -142.56948 
L 167.237322 -147.314481 
L 174.414938 -152.021585 
L 181.592553 -156.69124 
L 188.770169 -161.323902 
L 195.947785 -165.920035 
L 203.125401 -170.480101 
L 210.303017 -175.004566 
L 217.480632 -179.493895 
L 224.658248 -183.948549 
L 231.835864 -188.368982 
L 239.01348 -192.755638 
L 246.191095 -197.108953 
L 253.368711 -201.429346 
L 260.546327 -205.717216 
L 267.723943 -209.972943 
L 274.901559 -214.196878 
L 282.079174 -218.38934 
L 289.25679 -222.550606 
L 296.434406 -226.680906 
L 303.612022 -230.780403 
L 310.789638 -234.849186 
L 317.967253 -238.887236 
L 325.144869 -242.894398 
L 332.322485 -246.870328 
L 339.500101 -250.814419 
L 346.677716 -254.725686 
L 353.855332 -258.602581 
L 361.032948 -262.442697 
L 368.210564 -266.24228 
L 375.38818 -269.995398 
L 382.565795 -273.692546 
L 389.743411 -277.318416 
L 396.921027 -280.848955 
L 404.098643 -284.249815 
L 411.276258 -287.482591 
L 418.453874 -290.523532 
L 425.63149 -293.379208 
L 432.809106 -296.07803 
L 432.809106 -301.40299 
L 432.809106 -301.40299 
L 425.63149 -297.99893 
L 418.453874 -294.673549 
L 411.276258 -291.455614 
L 404.098643 -288.352048 
L 396.921027 -285.339456 
L 389.743411 -282.379785 
L 382.565795 -279.439043 
L 375.38818 -276.493531 
L 368.210564 -273.528295 
L 361.032948 -270.534185 
L 353.855332 -267.505622 
L 346.677716 -264.439207 
L 339.500101 -261.332889 
L 332.322485 -258.185472 
L 325.144869 -254.996327 
L 317.967253 -251.7652 
L 310.789638 -248.492101 
L 303.612022 -245.177231 
L 296.434406 -241.820925 
L 289.25679 -238.423624 
L 282.079174 -234.985849 
L 274.901559 -231.508182 
L 267.723943 -227.991255 
L 260.546327 -224.435741 
L 253.368711 -220.842346 
L 246.191095 -217.211802 
L 239.01348 -213.544866 
L 231.835864 -209.84231 
L 224.658248 -206.104922 
L 217.480632 -202.333502 
L 210.303017 -198.52886 
L 203.125401 -194.69181 
L 195.947785 -190.823171 
L 188.770169 -186.923762 
L 181.592553 -182.994402 
L 174.414938 -179.035908 
L 167.237322 -175.04909 
L 160.059706 -171.034751 
L 152.88209 -166.993685 
L 145.704475 -162.926676 
L 138.526859 -158.834494 
L 131.349243 -154.717894 
L 124.171627 -150.577618 
L 116.994011 -146.414389 
L 109.816396 -142.228913 
L 102.63878 -138.021875 
L 95.461164 -133.793942 
L 88.283548 -129.54576 
L 81.105932 -125.277954 
z
" style="stroke: #70bf41; stroke-opacity: 0.4"/>
    </defs>
    <g clip-path="url(#p00f6d252bf)">
     <use xlink:href="#m3a65ea6614" x="0" y="340.738125" style="fill: #70bf41; fill-opacity: 0.4; stroke: #70bf41; stroke-opacity: 0.4"/>
    </g>
   </g>
   <g id="FillBetweenPolyCollection_4">
    <defs>
     <path id="mbe8d7fbadf" d="M 81.105932 -152.138934 
L 81.105932 -117.547973 
L 88.283548 -122.146801 
L 95.461164 -126.706414 
L 102.63878 -131.227221 
L 109.816396 -135.709641 
L 116.994011 -140.15411 
L 124.171627 -144.56107 
L 131.349243 -148.930973 
L 138.526859 -153.264276 
L 145.704475 -157.561441 
L 152.88209 -161.822933 
L 160.059706 -166.049216 
L 167.237322 -170.240753 
L 174.414938 -174.398001 
L 181.592553 -178.521412 
L 188.770169 -182.61143 
L 195.947785 -186.668486 
L 203.125401 -190.693 
L 210.303017 -194.685372 
L 217.480632 -198.645989 
L 224.658248 -202.57521 
L 231.835864 -206.473373 
L 239.01348 -210.340785 
L 246.191095 -214.177719 
L 253.368711 -217.984406 
L 260.546327 -221.761033 
L 267.723943 -225.507727 
L 274.901559 -229.224549 
L 282.079174 -232.911473 
L 289.25679 -236.568369 
L 296.434406 -240.19497 
L 303.612022 -243.790835 
L 310.789638 -247.355293 
L 317.967253 -250.887359 
L 325.144869 -254.38562 
L 332.322485 -257.848069 
L 339.500101 -261.271847 
L 346.677716 -264.652877 
L 353.855332 -267.985315 
L 361.032948 -271.260779 
L 368.210564 -274.467361 
L 375.38818 -277.588642 
L 382.565795 -280.603515 
L 389.743411 -283.488355 
L 396.921027 -286.222843 
L 404.098643 -288.797455 
L 411.276258 -291.216764 
L 418.453874 -293.495536 
L 425.63149 -295.651719 
L 432.809106 -297.70149 
L 432.809106 -306.543316 
L 432.809106 -306.543316 
L 425.63149 -303.518572 
L 418.453874 -300.52164 
L 411.276258 -297.56905 
L 404.098643 -294.679105 
L 396.921027 -291.866923 
L 389.743411 -289.137435 
L 382.565795 -286.481469 
L 375.38818 -283.879061 
L 368.210564 -281.30694 
L 361.032948 -278.744353 
L 353.855332 -276.175238 
L 346.677716 -273.588037 
L 339.500101 -270.974725 
L 332.322485 -268.329813 
L 325.144869 -265.649576 
L 317.967253 -262.931512 
L 310.789638 -260.173965 
L 303.612022 -257.375879 
L 296.434406 -254.536623 
L 289.25679 -251.655879 
L 282.079174 -248.733562 
L 274.901559 -245.769758 
L 267.723943 -242.764692 
L 260.546327 -239.718692 
L 253.368711 -236.632173 
L 246.191095 -233.505618 
L 239.01348 -230.339566 
L 231.835864 -227.134604 
L 224.658248 -223.89136 
L 217.480632 -220.610493 
L 210.303017 -217.292696 
L 203.125401 -213.938685 
L 195.947785 -210.549197 
L 188.770169 -207.124989 
L 181.592553 -203.666835 
L 174.414938 -200.175521 
L 167.237322 -196.651843 
L 160.059706 -193.096609 
L 152.88209 -189.510631 
L 145.704475 -185.894725 
L 138.526859 -182.249711 
L 131.349243 -178.576406 
L 124.171627 -174.875627 
L 116.994011 -171.148186 
L 109.816396 -167.394889 
L 102.63878 -163.616534 
L 95.461164 -159.813908 
L 88.283548 -155.987787 
L 81.105932 -152.138934 
z
" style="stroke: #51a7f9; stroke-opacity: 0.4"/>
    </defs>
    <g clip-path="url(#p00f6d252bf)">
     <use xlink:href="#mbe8d7fbadf" x="0" y="340.738125" style="fill: #51a7f9; fill-opacity: 0.4; stroke: #51a7f9; stroke-opacity: 0.4"/>
    </g>
   </g>
   <g id="FillBetweenPolyCollection_5">
    <defs>
     <path id="m65f87297e8" d="M 81.105932 -177.97713 
L 81.105932 -133.039277 
L 88.283548 -137.347277 
L 95.461164 -141.619642 
L 102.63878 -145.856684 
L 109.816396 -150.05871 
L 116.994011 -154.226031 
L 124.171627 -158.358953 
L 131.349243 -162.457778 
L 138.526859 -166.522804 
L 145.704475 -170.554321 
L 152.88209 -174.552614 
L 160.059706 -178.517955 
L 167.237322 -182.450607 
L 174.414938 -186.350819 
L 181.592553 -190.218824 
L 188.770169 -194.054839 
L 195.947785 -197.859058 
L 203.125401 -201.631655 
L 210.303017 -205.372775 
L 217.480632 -209.082534 
L 224.658248 -212.761011 
L 231.835864 -216.408246 
L 239.01348 -220.024229 
L 246.191095 -223.608896 
L 253.368711 -227.162116 
L 260.546327 -230.68368 
L 267.723943 -234.173285 
L 274.901559 -237.630515 
L 282.079174 -241.054815 
L 289.25679 -244.445465 
L 296.434406 -247.801535 
L 303.612022 -251.121837 
L 310.789638 -254.404865 
L 317.967253 -257.648705 
L 325.144869 -260.85094 
L 332.322485 -264.008516 
L 339.500101 -267.117584 
L 346.677716 -270.173312 
L 353.855332 -273.169685 
L 361.032948 -276.099313 
L 368.210564 -278.953313 
L 375.38818 -281.721378 
L 382.565795 -284.392153 
L 389.743411 -286.954076 
L 396.921027 -289.396664 
L 404.098643 -291.712025 
L 411.276258 -293.896096 
L 418.453874 -295.949086 
L 425.63149 -297.874971 
L 432.809106 -299.680303 
L 432.809106 -312.941434 
L 432.809106 -312.941434 
L 425.63149 -310.351579 
L 418.453874 -307.803391 
L 411.276258 -305.303777 
L 404.098643 -302.857067 
L 396.921027 -300.463826 
L 389.743411 -298.120343 
L 382.565795 -295.81908 
L 375.38818 -293.549911 
L 368.210564 -291.301625 
L 361.032948 -289.063225 
L 353.855332 -286.824755 
L 346.677716 -284.577689 
L 339.500101 -282.31499 
L 332.322485 -280.030997 
L 325.144869 -277.721233 
L 317.967253 -275.382203 
L 310.789638 -273.011208 
L 303.612022 -270.606183 
L 296.434406 -268.165572 
L 289.25679 -265.688221 
L 282.079174 -263.173297 
L 274.901559 -260.620224 
L 267.723943 -258.028636 
L 260.546327 -255.398332 
L 253.368711 -252.729252 
L 246.191095 -250.021447 
L 239.01348 -247.275061 
L 231.835864 -244.490319 
L 224.658248 -241.667509 
L 217.480632 -238.806978 
L 210.303017 -235.909119 
L 203.125401 -232.974365 
L 195.947785 -230.003187 
L 188.770169 -226.996084 
L 181.592553 -223.953584 
L 174.414938 -220.876236 
L 167.237322 -217.764611 
L 160.059706 -214.619297 
L 152.88209 -211.440896 
L 145.704475 -208.230026 
L 138.526859 -204.987315 
L 131.349243 -201.713399 
L 124.171627 -198.408924 
L 116.994011 -195.074543 
L 109.816396 -191.710912 
L 102.63878 -188.318691 
L 95.461164 -184.898545 
L 88.283548 -181.451136 
L 81.105932 -177.97713 
z
" style="stroke: #6a5acd; stroke-opacity: 0.4"/>
    </defs>
    <g clip-path="url(#p00f6d252bf)">
     <use xlink:href="#m65f87297e8" x="0" y="340.738125" style="fill: #6a5acd; fill-opacity: 0.4; stroke: #6a5acd; stroke-opacity: 0.4"/>
    </g>
   </g>
   <g id="matplotlib.axis_1">
    <g id="xtick_1">
     <g id="line2d_1">
      <defs>
       <path id="m3e93c1bd8a" d="M 0 0 
L 0 3.5 
" style="stroke: #000000; stroke-width: 0.8"/>
      </defs>
      <g>
       <use xlink:href="#m3e93c1bd8a" x="81.035506" y="300.96" style="stroke: #000000; stroke-width: 0.8"/>
      </g>
     </g>
     <g id="text_1">
      <!-- 0.20 -->
      <g transform="translate(69.902693 315.558438) scale(0.1 -0.1)">
       <defs>
        <path id="DejaVuSans-30" d="M 2034 4250 
Q 1547 4250 1301 3770 
Q 1056 3291 1056 2328 
Q 1056 1369 1301 889 
Q 1547 409 2034 409 
Q 2525 409 2770 889 
Q 3016 1369 3016 2328 
Q 3016 3291 2770 3770 
Q 2525 4250 2034 4250 
z
M 2034 4750 
Q 2819 4750 3233 4129 
Q 3647 3509 3647 2328 
Q 3647 1150 3233 529 
Q 2819 -91 2034 -91 
Q 1250 -91 836 529 
Q 422 1150 422 2328 
Q 422 3509 836 4129 
Q 1250 4750 2034 4750 
z
" transform="scale(0.015625)"/>
        <path id="DejaVuSans-2e" d="M 684 794 
L 1344 794 
L 1344 0 
L 684 0 
L 684 794 
z
" transform="scale(0.015625)"/>
        <path id="DejaVuSans-32" d="M 1228 531 
L 3431 531 
L 3431 0 
L 469 0 
L 469 531 
Q 828 903 1448 1529 
Q 2069 2156 2228 2338 
Q 2531 2678 2651 2914 
Q 2772 3150 2772 3378 
Q 2772 3750 2511 3984 
Q 2250 4219 1831 4219 
Q 1534 4219 1204 4116 
Q 875 4013 500 3803 
L 500 4441 
Q 881 4594 1212 4672 
Q 1544 4750 1819 4750 
Q 2544 4750 2975 4387 
Q 3406 4025 3406 3419 
Q 3406 3131 3298 2873 
Q 3191 2616 2906 2266 
Q 2828 2175 2409 1742 
Q 1991 1309 1228 531 
z
" transform="scale(0.015625)"/>
       </defs>
       <use xlink:href="#DejaVuSans-30"/>
       <use xlink:href="#DejaVuSans-2e" transform="translate(63.623047 0)"/>
       <use xlink:href="#DejaVuSans-32" transform="translate(95.410156 0)"/>
       <use xlink:href="#DejaVuSans-30" transform="translate(159.033203 0)"/>
      </g>
     </g>
    </g>
    <g id="xtick_2">
     <g id="line2d_2">
      <g>
       <use xlink:href="#m3e93c1bd8a" x="124.763308" y="300.96" style="stroke: #000000; stroke-width: 0.8"/>
      </g>
     </g>
     <g id="text_2">
      <!-- 0.22 -->
      <g transform="translate(113.630496 315.558438) scale(0.1 -0.1)">
       <use xlink:href="#DejaVuSans-30"/>
       <use xlink:href="#DejaVuSans-2e" transform="translate(63.623047 0)"/>
       <use xlink:href="#DejaVuSans-32" transform="translate(95.410156 0)"/>
       <use xlink:href="#DejaVuSans-32" transform="translate(159.033203 0)"/>
      </g>
     </g>
    </g>
    <g id="xtick_3">
     <g id="line2d_3">
      <g>
       <use xlink:href="#m3e93c1bd8a" x="168.491111" y="300.96" style="stroke: #000000; stroke-width: 0.8"/>
      </g>
     </g>
     <g id="text_3">
      <!-- 0.24 -->
      <g transform="translate(157.358298 315.558438) scale(0.1 -0.1)">
       <defs>
        <path id="DejaVuSans-34" d="M 2419 4116 
L 825 1625 
L 2419 1625 
L 2419 4116 
z
M 2253 4666 
L 3047 4666 
L 3047 1625 
L 3713 1625 
L 3713 1100 
L 3047 1100 
L 3047 0 
L 2419 0 
L 2419 1100 
L 313 1100 
L 313 1709 
L 2253 4666 
z
" transform="scale(0.015625)"/>
       </defs>
       <use xlink:href="#DejaVuSans-30"/>
       <use xlink:href="#DejaVuSans-2e" transform="translate(63.623047 0)"/>
       <use xlink:href="#DejaVuSans-32" transform="translate(95.410156 0)"/>
       <use xlink:href="#DejaVuSans-34" transform="translate(159.033203 0)"/>
      </g>
     </g>
    </g>
    <g id="xtick_4">
     <g id="line2d_4">
      <g>
       <use xlink:href="#m3e93c1bd8a" x="212.218913" y="300.96" style="stroke: #000000; stroke-width: 0.8"/>
      </g>
     </g>
     <g id="text_4">
      <!-- 0.26 -->
      <g transform="translate(201.086101 315.558438) scale(0.1 -0.1)">
       <defs>
        <path id="DejaVuSans-36" d="M 2113 2584 
Q 1688 2584 1439 2293 
Q 1191 2003 1191 1497 
Q 1191 994 1439 701 
Q 1688 409 2113 409 
Q 2538 409 2786 701 
Q 3034 994 3034 1497 
Q 3034 2003 2786 2293 
Q 2538 2584 2113 2584 
z
M 3366 4563 
L 3366 3988 
Q 3128 4100 2886 4159 
Q 2644 4219 2406 4219 
Q 1781 4219 1451 3797 
Q 1122 3375 1075 2522 
Q 1259 2794 1537 2939 
Q 1816 3084 2150 3084 
Q 2853 3084 3261 2657 
Q 3669 2231 3669 1497 
Q 3669 778 3244 343 
Q 2819 -91 2113 -91 
Q 1303 -91 875 529 
Q 447 1150 447 2328 
Q 447 3434 972 4092 
Q 1497 4750 2381 4750 
Q 2619 4750 2861 4703 
Q 3103 4656 3366 4563 
z
" transform="scale(0.015625)"/>
       </defs>
       <use xlink:href="#DejaVuSans-30"/>
       <use xlink:href="#DejaVuSans-2e" transform="translate(63.623047 0)"/>
       <use xlink:href="#DejaVuSans-32" transform="translate(95.410156 0)"/>
       <use xlink:href="#DejaVuSans-36" transform="translate(159.033203 0)"/>
      </g>
     </g>
    </g>
    <g id="xtick_5">
     <g id="line2d_5">
      <g>
       <use xlink:href="#m3e93c1bd8a" x="255.946716" y="300.96" style="stroke: #000000; stroke-width: 0.8"/>
      </g>
     </g>
     <g id="text_5">
      <!-- 0.28 -->
      <g transform="translate(244.813904 315.558438) scale(0.1 -0.1)">
       <defs>
        <path id="DejaVuSans-38" d="M 2034 2216 
Q 1584 2216 1326 1975 
Q 1069 1734 1069 1313 
Q 1069 891 1326 650 
Q 1584 409 2034 409 
Q 2484 409 2743 651 
Q 3003 894 3003 1313 
Q 3003 1734 2745 1975 
Q 2488 2216 2034 2216 
z
M 1403 2484 
Q 997 2584 770 2862 
Q 544 3141 544 3541 
Q 544 4100 942 4425 
Q 1341 4750 2034 4750 
Q 2731 4750 3128 4425 
Q 3525 4100 3525 3541 
Q 3525 3141 3298 2862 
Q 3072 2584 2669 2484 
Q 3125 2378 3379 2068 
Q 3634 1759 3634 1313 
Q 3634 634 3220 271 
Q 2806 -91 2034 -91 
Q 1263 -91 848 271 
Q 434 634 434 1313 
Q 434 1759 690 2068 
Q 947 2378 1403 2484 
z
M 1172 3481 
Q 1172 3119 1398 2916 
Q 1625 2713 2034 2713 
Q 2441 2713 2670 2916 
Q 2900 3119 2900 3481 
Q 2900 3844 2670 4047 
Q 2441 4250 2034 4250 
Q 1625 4250 1398 4047 
Q 1172 3844 1172 3481 
z
" transform="scale(0.015625)"/>
       </defs>
       <use xlink:href="#DejaVuSans-30"/>
       <use xlink:href="#DejaVuSans-2e" transform="translate(63.623047 0)"/>
       <use xlink:href="#DejaVuSans-32" transform="translate(95.410156 0)"/>
       <use xlink:href="#DejaVuSans-38" transform="translate(159.033203 0)"/>
      </g>
     </g>
    </g>
    <g id="xtick_6">
     <g id="line2d_6">
      <g>
       <use xlink:href="#m3e93c1bd8a" x="299.674519" y="300.96" style="stroke: #000000; stroke-width: 0.8"/>
      </g>
     </g>
     <g id="text_6">
      <!-- 0.30 -->
      <g transform="translate(288.541706 315.558438) scale(0.1 -0.1)">
       <defs>
        <path id="DejaVuSans-33" d="M 2597 2516 
Q 3050 2419 3304 2112 
Q 3559 1806 3559 1356 
Q 3559 666 3084 287 
Q 2609 -91 1734 -91 
Q 1441 -91 1130 -33 
Q 819 25 488 141 
L 488 750 
Q 750 597 1062 519 
Q 1375 441 1716 441 
Q 2309 441 2620 675 
Q 2931 909 2931 1356 
Q 2931 1769 2642 2001 
Q 2353 2234 1838 2234 
L 1294 2234 
L 1294 2753 
L 1863 2753 
Q 2328 2753 2575 2939 
Q 2822 3125 2822 3475 
Q 2822 3834 2567 4026 
Q 2313 4219 1838 4219 
Q 1578 4219 1281 4162 
Q 984 4106 628 3988 
L 628 4550 
Q 988 4650 1302 4700 
Q 1616 4750 1894 4750 
Q 2613 4750 3031 4423 
Q 3450 4097 3450 3541 
Q 3450 3153 3228 2886 
Q 3006 2619 2597 2516 
z
" transform="scale(0.015625)"/>
       </defs>
       <use xlink:href="#DejaVuSans-30"/>
       <use xlink:href="#DejaVuSans-2e" transform="translate(63.623047 0)"/>
       <use xlink:href="#DejaVuSans-33" transform="translate(95.410156 0)"/>
       <use xlink:href="#DejaVuSans-30" transform="translate(159.033203 0)"/>
      </g>
     </g>
    </g>
    <g id="xtick_7">
     <g id="line2d_7">
      <g>
       <use xlink:href="#m3e93c1bd8a" x="343.402321" y="300.96" style="stroke: #000000; stroke-width: 0.8"/>
      </g>
     </g>
     <g id="text_7">
      <!-- 0.32 -->
      <g transform="translate(332.269509 315.558438) scale(0.1 -0.1)">
       <use xlink:href="#DejaVuSans-30"/>
       <use xlink:href="#DejaVuSans-2e" transform="translate(63.623047 0)"/>
       <use xlink:href="#DejaVuSans-33" transform="translate(95.410156 0)"/>
       <use xlink:href="#DejaVuSans-32" transform="translate(159.033203 0)"/>
      </g>
     </g>
    </g>
    <g id="xtick_8">
     <g id="line2d_8">
      <g>
       <use xlink:href="#m3e93c1bd8a" x="387.130124" y="300.96" style="stroke: #000000; stroke-width: 0.8"/>
      </g>
     </g>
     <g id="text_8">
      <!-- 0.34 -->
      <g transform="translate(375.997311 315.558438) scale(0.1 -0.1)">
       <use xlink:href="#DejaVuSans-30"/>
       <use xlink:href="#DejaVuSans-2e" transform="translate(63.623047 0)"/>
       <use xlink:href="#DejaVuSans-33" transform="translate(95.410156 0)"/>
       <use xlink:href="#DejaVuSans-34" transform="translate(159.033203 0)"/>
      </g>
     </g>
    </g>
    <g id="xtick_9">
     <g id="line2d_9">
      <g>
       <use xlink:href="#m3e93c1bd8a" x="430.857926" y="300.96" style="stroke: #000000; stroke-width: 0.8"/>
      </g>
     </g>
     <g id="text_9">
      <!-- 0.36 -->
      <g transform="translate(419.725114 315.558438) scale(0.1 -0.1)">
       <use xlink:href="#DejaVuSans-30"/>
       <use xlink:href="#DejaVuSans-2e" transform="translate(63.623047 0)"/>
       <use xlink:href="#DejaVuSans-33" transform="translate(95.410156 0)"/>
       <use xlink:href="#DejaVuSans-36" transform="translate(159.033203 0)"/>
      </g>
     </g>
    </g>
    <g id="text_10">
     <!-- $s^2_F$ -->
     <g transform="translate(252.018125 330.738125) scale(0.1 -0.1)">
      <defs>
       <path id="DejaVuSans-Oblique-73" d="M 3200 3397 
L 3091 2853 
Q 2863 2978 2609 3040 
Q 2356 3103 2088 3103 
Q 1634 3103 1373 2948 
Q 1113 2794 1113 2528 
Q 1113 2219 1719 2053 
Q 1766 2041 1788 2034 
L 1972 1978 
Q 2547 1819 2739 1644 
Q 2931 1469 2931 1166 
Q 2931 609 2489 259 
Q 2047 -91 1331 -91 
Q 1053 -91 747 -37 
Q 441 16 72 128 
L 184 722 
Q 500 559 806 475 
Q 1113 391 1394 391 
Q 1816 391 2080 572 
Q 2344 753 2344 1031 
Q 2344 1331 1650 1516 
L 1591 1531 
L 1394 1581 
Q 956 1697 753 1886 
Q 550 2075 550 2369 
Q 550 2928 970 3256 
Q 1391 3584 2113 3584 
Q 2397 3584 2667 3537 
Q 2938 3491 3200 3397 
z
" transform="scale(0.015625)"/>
       <path id="DejaVuSans-Oblique-46" d="M 1081 4666 
L 3756 4666 
L 3653 4134 
L 1606 4134 
L 1338 2759 
L 3188 2759 
L 3084 2228 
L 1234 2228 
L 800 0 
L 172 0 
L 1081 4666 
z
" transform="scale(0.015625)"/>
      </defs>
      <use xlink:href="#DejaVuSans-Oblique-73" transform="translate(0 0.765625)"/>
      <use xlink:href="#DejaVuSans-32" transform="translate(56.749505 39.046875) scale(0.7)"/>
      <use xlink:href="#DejaVuSans-Oblique-46" transform="translate(52.099609 -26.578125) scale(0.7)"/>
     </g>
    </g>
   </g>
   <g id="matplotlib.axis_2">
    <g id="ytick_1">
     <g id="line2d_10">
      <defs>
       <path id="m447b925903" d="M 0 0 
L -3.5 0 
" style="stroke: #000000; stroke-width: 0.8"/>
      </defs>
      <g>
       <use xlink:href="#m447b925903" x="61.428125" y="279.022774" style="stroke: #000000; stroke-width: 0.8"/>
      </g>
     </g>
     <g id="text_11">
      <!-- 1.025 -->
      <g transform="translate(25.8 282.821993) scale(0.1 -0.1)">
       <defs>
        <path id="DejaVuSans-31" d="M 794 531 
L 1825 531 
L 1825 4091 
L 703 3866 
L 703 4441 
L 1819 4666 
L 2450 4666 
L 2450 531 
L 3481 531 
L 3481 0 
L 794 0 
L 794 531 
z
" transform="scale(0.015625)"/>
        <path id="DejaVuSans-35" d="M 691 4666 
L 3169 4666 
L 3169 4134 
L 1269 4134 
L 1269 2991 
Q 1406 3038 1543 3061 
Q 1681 3084 1819 3084 
Q 2600 3084 3056 2656 
Q 3513 2228 3513 1497 
Q 3513 744 3044 326 
Q 2575 -91 1722 -91 
Q 1428 -91 1123 -41 
Q 819 9 494 109 
L 494 744 
Q 775 591 1075 516 
Q 1375 441 1709 441 
Q 2250 441 2565 725 
Q 2881 1009 2881 1497 
Q 2881 1984 2565 2268 
Q 2250 2553 1709 2553 
Q 1456 2553 1204 2497 
Q 953 2441 691 2322 
L 691 4666 
z
" transform="scale(0.015625)"/>
       </defs>
       <use xlink:href="#DejaVuSans-31"/>
       <use xlink:href="#DejaVuSans-2e" transform="translate(63.623047 0)"/>
       <use xlink:href="#DejaVuSans-30" transform="translate(95.410156 0)"/>
       <use xlink:href="#DejaVuSans-32" transform="translate(159.033203 0)"/>
       <use xlink:href="#DejaVuSans-35" transform="translate(222.65625 0)"/>
      </g>
     </g>
    </g>
    <g id="ytick_2">
     <g id="line2d_11">
      <g>
       <use xlink:href="#m447b925903" x="61.428125" y="245.72918" style="stroke: #000000; stroke-width: 0.8"/>
      </g>
     </g>
     <g id="text_12">
      <!-- 1.050 -->
      <g transform="translate(25.8 249.528399) scale(0.1 -0.1)">
       <use xlink:href="#DejaVuSans-31"/>
       <use xlink:href="#DejaVuSans-2e" transform="translate(63.623047 0)"/>
       <use xlink:href="#DejaVuSans-30" transform="translate(95.410156 0)"/>
       <use xlink:href="#DejaVuSans-35" transform="translate(159.033203 0)"/>
       <use xlink:href="#DejaVuSans-30" transform="translate(222.65625 0)"/>
      </g>
     </g>
    </g>
    <g id="ytick_3">
     <g id="line2d_12">
      <g>
       <use xlink:href="#m447b925903" x="61.428125" y="212.435585" style="stroke: #000000; stroke-width: 0.8"/>
      </g>
     </g>
     <g id="text_13">
      <!-- 1.075 -->
      <g transform="translate(25.8 216.234804) scale(0.1 -0.1)">
       <defs>
        <path id="DejaVuSans-37" d="M 525 4666 
L 3525 4666 
L 3525 4397 
L 1831 0 
L 1172 0 
L 2766 4134 
L 525 4134 
L 525 4666 
z
" transform="scale(0.015625)"/>
       </defs>
       <use xlink:href="#DejaVuSans-31"/>
       <use xlink:href="#DejaVuSans-2e" transform="translate(63.623047 0)"/>
       <use xlink:href="#DejaVuSans-30" transform="translate(95.410156 0)"/>
       <use xlink:href="#DejaVuSans-37" transform="translate(159.033203 0)"/>
       <use xlink:href="#DejaVuSans-35" transform="translate(222.65625 0)"/>
      </g>
     </g>
    </g>
    <g id="ytick_4">
     <g id="line2d_13">
      <g>
       <use xlink:href="#m447b925903" x="61.428125" y="179.141991" style="stroke: #000000; stroke-width: 0.8"/>
      </g>
     </g>
     <g id="text_14">
      <!-- 1.100 -->
      <g transform="translate(25.8 182.94121) scale(0.1 -0.1)">
       <use xlink:href="#DejaVuSans-31"/>
       <use xlink:href="#DejaVuSans-2e" transform="translate(63.623047 0)"/>
       <use xlink:href="#DejaVuSans-31" transform="translate(95.410156 0)"/>
       <use xlink:href="#DejaVuSans-30" transform="translate(159.033203 0)"/>
       <use xlink:href="#DejaVuSans-30" transform="translate(222.65625 0)"/>
      </g>
     </g>
    </g>
    <g id="ytick_5">
     <g id="line2d_14">
      <g>
       <use xlink:href="#m447b925903" x="61.428125" y="145.848396" style="stroke: #000000; stroke-width: 0.8"/>
      </g>
     </g>
     <g id="text_15">
      <!-- 1.125 -->
      <g transform="translate(25.8 149.647615) scale(0.1 -0.1)">
       <use xlink:href="#DejaVuSans-31"/>
       <use xlink:href="#DejaVuSans-2e" transform="translate(63.623047 0)"/>
       <use xlink:href="#DejaVuSans-31" transform="translate(95.410156 0)"/>
       <use xlink:href="#DejaVuSans-32" transform="translate(159.033203 0)"/>
       <use xlink:href="#DejaVuSans-35" transform="translate(222.65625 0)"/>
      </g>
     </g>
    </g>
    <g id="ytick_6">
     <g id="line2d_15">
      <g>
       <use xlink:href="#m447b925903" x="61.428125" y="112.554802" style="stroke: #000000; stroke-width: 0.8"/>
      </g>
     </g>
     <g id="text_16">
      <!-- 1.150 -->
      <g transform="translate(25.8 116.354021) scale(0.1 -0.1)">
       <use xlink:href="#DejaVuSans-31"/>
       <use xlink:href="#DejaVuSans-2e" transform="translate(63.623047 0)"/>
       <use xlink:href="#DejaVuSans-31" transform="translate(95.410156 0)"/>
       <use xlink:href="#DejaVuSans-35" transform="translate(159.033203 0)"/>
       <use xlink:href="#DejaVuSans-30" transform="translate(222.65625 0)"/>
      </g>
     </g>
    </g>
    <g id="ytick_7">
     <g id="line2d_16">
      <g>
       <use xlink:href="#m447b925903" x="61.428125" y="79.261207" style="stroke: #000000; stroke-width: 0.8"/>
      </g>
     </g>
     <g id="text_17">
      <!-- 1.175 -->
      <g transform="translate(25.8 83.060426) scale(0.1 -0.1)">
       <use xlink:href="#DejaVuSans-31"/>
       <use xlink:href="#DejaVuSans-2e" transform="translate(63.623047 0)"/>
       <use xlink:href="#DejaVuSans-31" transform="translate(95.410156 0)"/>
       <use xlink:href="#DejaVuSans-37" transform="translate(159.033203 0)"/>
       <use xlink:href="#DejaVuSans-35" transform="translate(222.65625 0)"/>
      </g>
     </g>
    </g>
    <g id="ytick_8">
     <g id="line2d_17">
      <g>
       <use xlink:href="#m447b925903" x="61.428125" y="45.967613" style="stroke: #000000; stroke-width: 0.8"/>
      </g>
     </g>
     <g id="text_18">
      <!-- 1.200 -->
      <g transform="translate(25.8 49.766831) scale(0.1 -0.1)">
       <use xlink:href="#DejaVuSans-31"/>
       <use xlink:href="#DejaVuSans-2e" transform="translate(63.623047 0)"/>
       <use xlink:href="#DejaVuSans-32" transform="translate(95.410156 0)"/>
       <use xlink:href="#DejaVuSans-30" transform="translate(159.033203 0)"/>
       <use xlink:href="#DejaVuSans-30" transform="translate(222.65625 0)"/>
      </g>
     </g>
    </g>
    <g id="ytick_9">
     <g id="line2d_18">
      <g>
       <use xlink:href="#m447b925903" x="61.428125" y="12.674018" style="stroke: #000000; stroke-width: 0.8"/>
      </g>
     </g>
     <g id="text_19">
      <!-- 1.225 -->
      <g transform="translate(25.8 16.473237) scale(0.1 -0.1)">
       <use xlink:href="#DejaVuSans-31"/>
       <use xlink:href="#DejaVuSans-2e" transform="translate(63.623047 0)"/>
       <use xlink:href="#DejaVuSans-32" transform="translate(95.410156 0)"/>
       <use xlink:href="#DejaVuSans-32" transform="translate(159.033203 0)"/>
       <use xlink:href="#DejaVuSans-35" transform="translate(222.65625 0)"/>
      </g>
     </g>
    </g>
    <g id="text_20">
     <!-- $m_\Omega \sqrt{t_0 / a^2}$ -->
     <g transform="translate(19.720313 178.68) rotate(-90) scale(0.1 -0.1)">
      <defs>
       <path id="DejaVuSans-Oblique-6d" d="M 5747 2113 
L 5338 0 
L 4763 0 
L 5166 2094 
Q 5191 2228 5203 2325 
Q 5216 2422 5216 2491 
Q 5216 2772 5059 2928 
Q 4903 3084 4622 3084 
Q 4203 3084 3875 2770 
Q 3547 2456 3450 1953 
L 3066 0 
L 2491 0 
L 2900 2094 
Q 2925 2209 2937 2307 
Q 2950 2406 2950 2484 
Q 2950 2769 2794 2926 
Q 2638 3084 2363 3084 
Q 1938 3084 1609 2770 
Q 1281 2456 1184 1953 
L 800 0 
L 225 0 
L 909 3500 
L 1484 3500 
L 1375 2956 
Q 1609 3263 1923 3423 
Q 2238 3584 2597 3584 
Q 2978 3584 3223 3384 
Q 3469 3184 3519 2828 
Q 3781 3197 4126 3390 
Q 4472 3584 4856 3584 
Q 5306 3584 5551 3325 
Q 5797 3066 5797 2591 
Q 5797 2488 5784 2364 
Q 5772 2241 5747 2113 
z
" transform="scale(0.015625)"/>
       <path id="DejaVuSans-3a9" d="M 4647 556 
L 4647 0 
L 2772 0 
L 2772 556 
Q 3325 859 3634 1378 
Q 3944 1897 3944 2528 
Q 3944 3278 3531 3731 
Q 3119 4184 2444 4184 
Q 1769 4184 1355 3729 
Q 941 3275 941 2528 
Q 941 1897 1250 1378 
Q 1563 859 2119 556 
L 2119 0 
L 244 0 
L 244 556 
L 1241 556 
Q 747 991 519 1456 
Q 294 1922 294 2497 
Q 294 3491 894 4106 
Q 1491 4722 2444 4722 
Q 3391 4722 3994 4106 
Q 4594 3494 4594 2528 
Q 4594 1922 4372 1459 
Q 4150 997 3647 556 
L 4647 556 
z
" transform="scale(0.015625)"/>
       <path id="STIXSizeOneSym-Regular-221a" d="M 6970 9933 
L 3373 -1888 
L 3104 -1888 
L 1626 2918 
Q 1555 3149 1465 3251 
Q 1376 3354 1229 3354 
Q 1011 3354 794 3181 
L 717 3309 
L 1766 4115 
L 1926 4115 
L 3379 -602 
L 3405 -602 
L 6605 9933 
L 6970 9933 
z
" transform="scale(0.015625)"/>
       <path id="DejaVuSans-Oblique-74" d="M 2706 3500 
L 2619 3053 
L 1472 3053 
L 1100 1153 
Q 1081 1047 1072 975 
Q 1063 903 1063 863 
Q 1063 663 1183 572 
Q 1303 481 1569 481 
L 2150 481 
L 2053 0 
L 1503 0 
Q 991 0 739 200 
Q 488 400 488 806 
Q 488 878 497 964 
Q 506 1050 525 1153 
L 897 3053 
L 409 3053 
L 500 3500 
L 978 3500 
L 1172 4494 
L 1747 4494 
L 1556 3500 
L 2706 3500 
z
" transform="scale(0.015625)"/>
       <path id="DejaVuSans-2f" d="M 1625 4666 
L 2156 4666 
L 531 -594 
L 0 -594 
L 1625 4666 
z
" transform="scale(0.015625)"/>
       <path id="DejaVuSans-Oblique-61" d="M 3438 1997 
L 3047 0 
L 2472 0 
L 2578 531 
Q 2325 219 2001 64 
Q 1678 -91 1281 -91 
Q 834 -91 548 182 
Q 263 456 263 884 
Q 263 1497 752 1853 
Q 1241 2209 2100 2209 
L 2900 2209 
L 2931 2363 
Q 2938 2388 2941 2417 
Q 2944 2447 2944 2509 
Q 2944 2788 2717 2942 
Q 2491 3097 2081 3097 
Q 1800 3097 1504 3025 
Q 1209 2953 897 2809 
L 997 3341 
Q 1322 3463 1633 3523 
Q 1944 3584 2234 3584 
Q 2853 3584 3176 3315 
Q 3500 3047 3500 2534 
Q 3500 2431 3484 2292 
Q 3469 2153 3438 1997 
z
M 2816 1759 
L 2241 1759 
Q 1534 1759 1195 1570 
Q 856 1381 856 984 
Q 856 709 1029 553 
Q 1203 397 1509 397 
Q 1978 397 2328 733 
Q 2678 1069 2791 1631 
L 2816 1759 
z
" transform="scale(0.015625)"/>
      </defs>
      <use xlink:href="#DejaVuSans-Oblique-6d" transform="translate(0 0.870312)"/>
      <use xlink:href="#DejaVuSans-3a9" transform="translate(97.412109 -15.535937) scale(0.7)"/>
      <use xlink:href="#STIXSizeOneSym-Regular-221a" transform="translate(153.637695 5.59375) scale(0.751941)"/>
      <use xlink:href="#DejaVuSans-Oblique-74" transform="translate(245.676941 0.515625)"/>
      <use xlink:href="#DejaVuSans-30" transform="translate(284.885925 -15.890625) scale(0.7)"/>
      <use xlink:href="#DejaVuSans-2f" transform="translate(332.156433 0.515625)"/>
      <use xlink:href="#DejaVuSans-Oblique-61" transform="translate(365.847839 0.515625)"/>
      <use xlink:href="#DejaVuSans-32" transform="translate(431.777032 38.796875) scale(0.7)"/>
      <path d="M 233.176941 115.5 
L 233.176941 121.75 
L 491.54754 121.75 
L 491.54754 115.5 
L 233.176941 115.5 
z
"/>
     </g>
    </g>
   </g>
   <g id="line2d_19">
    <path d="M 409.651241 300.96 
L 409.651241 7.2 
" clip-path="url(#p00f6d252bf)" style="fill: none; stroke-dasharray: 5.55,2.4; stroke-dashoffset: 0; stroke: #1f77b4; stroke-width: 1.5"/>
   </g>
   <g id="line2d_20">
    <path d="M 409.651241 300.96 
L 409.651241 7.2 
" clip-path="url(#p00f6d252bf)" style="fill: none; stroke-dasharray: 5.55,2.4; stroke-dashoffset: 0; stroke: #1f77b4; stroke-width: 1.5"/>
   </g>
   <g id="line2d_21">
    <path d="M 409.651241 300.96 
L 409.651241 7.2 
" clip-path="url(#p00f6d252bf)" style="fill: none; stroke-dasharray: 5.55,2.4; stroke-dashoffset: 0; stroke: #1f77b4; stroke-width: 1.5"/>
   </g>
   <g id="line2d_22">
    <path d="M 409.651241 300.96 
L 409.651241 7.2 
" clip-path="url(#p00f6d252bf)" style="fill: none; stroke-dasharray: 5.55,2.4; stroke-dashoffset: 0; stroke: #1f77b4; stroke-width: 1.5"/>
   </g>
   <g id="line2d_23">
    <path d="M 409.651241 300.96 
L 409.651241 7.2 
" clip-path="url(#p00f6d252bf)" style="fill: none; stroke-dasharray: 5.55,2.4; stroke-dashoffset: 0; stroke: #1f77b4; stroke-width: 1.5"/>
   </g>
   <g id="line2d_24">
    <path d="M 246.49469 142.504431 
L 242.348218 142.496507 
" clip-path="url(#p00f6d252bf)" style="fill: none; stroke: #ec5d57; stroke-width: 2; stroke-linecap: square"/>
   </g>
   <g id="line2d_25">
    <path d="M 244.489368 129.315643 
L 244.35354 155.685296 
" clip-path="url(#p00f6d252bf)" style="fill: none; stroke: #ec5d57; stroke-width: 2; stroke-linecap: square"/>
   </g>
   <g id="line2d_26">
    <path d="M 283.077852 123.737579 
L 278.986267 123.728976 
" clip-path="url(#p00f6d252bf)" style="fill: none; stroke: #ec5d57; stroke-width: 2; stroke-linecap: square"/>
   </g>
   <g id="line2d_27">
    <path d="M 281.092556 113.058683 
L 280.971563 134.407873 
" clip-path="url(#p00f6d252bf)" style="fill: none; stroke: #ec5d57; stroke-width: 2; stroke-linecap: square"/>
   </g>
   <g id="line2d_28">
    <path d="M 298.615058 103.191525 
L 293.709513 103.221311 
" clip-path="url(#p00f6d252bf)" style="fill: none; stroke: #ec5d57; stroke-width: 2; stroke-linecap: square"/>
   </g>
   <g id="line2d_29">
    <path d="M 296.005539 93.628798 
L 296.319032 112.784038 
" clip-path="url(#p00f6d252bf)" style="fill: none; stroke: #ec5d57; stroke-width: 2; stroke-linecap: square"/>
   </g>
   <g id="line2d_30">
    <path d="M 309.125833 102.176788 
L 305.398482 102.171295 
" clip-path="url(#p00f6d252bf)" style="fill: none; stroke: #ec5d57; stroke-width: 2; stroke-linecap: square"/>
   </g>
   <g id="line2d_31">
    <path d="M 307.299338 92.813338 
L 307.224978 111.534745 
" clip-path="url(#p00f6d252bf)" style="fill: none; stroke: #ec5d57; stroke-width: 2; stroke-linecap: square"/>
   </g>
   <g id="line2d_32">
    <path d="M 356.983736 78.415546 
L 353.153635 78.451021 
" clip-path="url(#p00f6d252bf)" style="fill: none; stroke: #ec5d57; stroke-width: 2; stroke-linecap: square"/>
   </g>
   <g id="line2d_33">
    <path d="M 354.920447 72.495429 
L 355.216924 84.371138 
" clip-path="url(#p00f6d252bf)" style="fill: none; stroke: #ec5d57; stroke-width: 2; stroke-linecap: square"/>
   </g>
   <g id="line2d_34">
    <path d="M 435.304489 42.893695 
L 430.313723 42.93454 
" clip-path="url(#p00f6d252bf)" style="fill: none; stroke: #ec5d57; stroke-width: 2; stroke-linecap: square"/>
   </g>
   <g id="line2d_35">
    <path d="M 432.754185 40.424409 
L 432.864027 45.403826 
" clip-path="url(#p00f6d252bf)" style="fill: none; stroke: #ec5d57; stroke-width: 2; stroke-linecap: square"/>
   </g>
   <g id="line2d_36">
    <path d="M 224.832019 137.66397 
L 220.615907 137.644952 
" clip-path="url(#p00f6d252bf)" style="fill: none; stroke: #70bf41; stroke-width: 2; stroke-linecap: square"/>
   </g>
   <g id="line2d_37">
    <path d="M 222.850438 127.25234 
L 222.597488 148.056582 
" clip-path="url(#p00f6d252bf)" style="fill: none; stroke: #70bf41; stroke-width: 2; stroke-linecap: square"/>
   </g>
   <g id="line2d_38">
    <path d="M 261.050759 127.694741 
L 255.22758 127.687737 
" clip-path="url(#p00f6d252bf)" style="fill: none; stroke: #70bf41; stroke-width: 2; stroke-linecap: square"/>
   </g>
   <g id="line2d_39">
    <path d="M 258.169207 118.425986 
L 258.109132 136.956492 
" clip-path="url(#p00f6d252bf)" style="fill: none; stroke: #70bf41; stroke-width: 2; stroke-linecap: square"/>
   </g>
   <g id="line2d_40">
    <path d="M 282.239961 110.25005 
L 277.168884 110.264892 
" clip-path="url(#p00f6d252bf)" style="fill: none; stroke: #70bf41; stroke-width: 2; stroke-linecap: square"/>
   </g>
   <g id="line2d_41">
    <path d="M 279.627376 100.490744 
L 279.781469 120.024199 
" clip-path="url(#p00f6d252bf)" style="fill: none; stroke: #70bf41; stroke-width: 2; stroke-linecap: square"/>
   </g>
   <g id="line2d_42">
    <path d="M 287.540339 105.497349 
L 282.503564 105.509769 
" clip-path="url(#p00f6d252bf)" style="fill: none; stroke: #70bf41; stroke-width: 2; stroke-linecap: square"/>
   </g>
   <g id="line2d_43">
    <path d="M 284.965074 96.946323 
L 285.078829 114.060795 
" clip-path="url(#p00f6d252bf)" style="fill: none; stroke: #70bf41; stroke-width: 2; stroke-linecap: square"/>
   </g>
   <g id="line2d_44">
    <path d="M 82.980104 228.989103 
L 79.231761 228.995239 
" clip-path="url(#p00f6d252bf)" style="fill: none; stroke: #70bf41; stroke-width: 2; stroke-linecap: square"/>
   </g>
   <g id="line2d_45">
    <path d="M 81.029032 211.565349 
L 81.182833 246.418993 
" clip-path="url(#p00f6d252bf)" style="fill: none; stroke: #70bf41; stroke-width: 2; stroke-linecap: square"/>
   </g>
   <g id="line2d_46">
    <path d="M 349.704688 73.553301 
L 341.425259 73.590398 
" clip-path="url(#p00f6d252bf)" style="fill: none; stroke: #70bf41; stroke-width: 2; stroke-linecap: square"/>
   </g>
   <g id="line2d_47">
    <path d="M 345.499106 68.11787 
L 345.630841 79.025829 
" clip-path="url(#p00f6d252bf)" style="fill: none; stroke: #70bf41; stroke-width: 2; stroke-linecap: square"/>
   </g>
   <g id="line2d_48">
    <path d="M 345.523838 75.160482 
L 339.224418 75.181949 
" clip-path="url(#p00f6d252bf)" style="fill: none; stroke: #70bf41; stroke-width: 2; stroke-linecap: square"/>
   </g>
   <g id="line2d_49">
    <path d="M 342.317071 68.959463 
L 342.431185 81.382968 
" clip-path="url(#p00f6d252bf)" style="fill: none; stroke: #70bf41; stroke-width: 2; stroke-linecap: square"/>
   </g>
   <g id="line2d_50">
    <path d="M 347.066522 78.354973 
L 340.515342 78.383153 
" clip-path="url(#p00f6d252bf)" style="fill: none; stroke: #70bf41; stroke-width: 2; stroke-linecap: square"/>
   </g>
   <g id="line2d_51">
    <path d="M 343.67023 67.958152 
L 343.911634 88.779974 
" clip-path="url(#p00f6d252bf)" style="fill: none; stroke: #70bf41; stroke-width: 2; stroke-linecap: square"/>
   </g>
   <g id="line2d_52">
    <path d="M 372.199774 58.39484 
L 366.633048 58.445769 
" clip-path="url(#p00f6d252bf)" style="fill: none; stroke: #70bf41; stroke-width: 2; stroke-linecap: square"/>
   </g>
   <g id="line2d_53">
    <path d="M 369.298581 53.642054 
L 369.534241 63.198555 
" clip-path="url(#p00f6d252bf)" style="fill: none; stroke: #70bf41; stroke-width: 2; stroke-linecap: square"/>
   </g>
   <g id="line2d_54">
    <path d="M 396.456735 57.727705 
L 390.447652 57.766918 
" clip-path="url(#p00f6d252bf)" style="fill: none; stroke: #70bf41; stroke-width: 2; stroke-linecap: square"/>
   </g>
   <g id="line2d_55">
    <path d="M 393.37978 53.63025 
L 393.524607 61.864373 
" clip-path="url(#p00f6d252bf)" style="fill: none; stroke: #70bf41; stroke-width: 2; stroke-linecap: square"/>
   </g>
   <g id="line2d_56">
    <path d="M 222.54096 118.015954 
L 218.656748 118.018547 
" clip-path="url(#p00f6d252bf)" style="fill: none; stroke: #51a7f9; stroke-width: 2; stroke-linecap: square"/>
   </g>
   <g id="line2d_57">
    <path d="M 220.576453 105.570891 
L 220.621255 130.463611 
" clip-path="url(#p00f6d252bf)" style="fill: none; stroke: #51a7f9; stroke-width: 2; stroke-linecap: square"/>
   </g>
   <g id="line2d_58">
    <path d="M 264.15934 115.400129 
L 259.325855 115.411313 
" clip-path="url(#p00f6d252bf)" style="fill: none; stroke: #51a7f9; stroke-width: 2; stroke-linecap: square"/>
   </g>
   <g id="line2d_59">
    <path d="M 261.666218 103.158266 
L 261.818977 127.653176 
" clip-path="url(#p00f6d252bf)" style="fill: none; stroke: #51a7f9; stroke-width: 2; stroke-linecap: square"/>
   </g>
   <g id="line2d_60">
    <path d="M 290.070334 92.009939 
L 285.808362 92.020037 
" clip-path="url(#p00f6d252bf)" style="fill: none; stroke: #51a7f9; stroke-width: 2; stroke-linecap: square"/>
   </g>
   <g id="line2d_61">
    <path d="M 287.866971 80.681892 
L 288.011724 103.348084 
" clip-path="url(#p00f6d252bf)" style="fill: none; stroke: #51a7f9; stroke-width: 2; stroke-linecap: square"/>
   </g>
   <g id="line2d_62">
    <path d="M 363.305216 66.637262 
L 357.778905 66.642645 
" clip-path="url(#p00f6d252bf)" style="fill: none; stroke: #51a7f9; stroke-width: 2; stroke-linecap: square"/>
   </g>
   <g id="line2d_63">
    <path d="M 360.522073 59.026871 
L 360.562049 74.253036 
" clip-path="url(#p00f6d252bf)" style="fill: none; stroke: #51a7f9; stroke-width: 2; stroke-linecap: square"/>
   </g>
   <g id="line2d_64">
    <path d="M 412.885179 54.231387 
L 405.260595 54.309302 
" clip-path="url(#p00f6d252bf)" style="fill: none; stroke: #51a7f9; stroke-width: 2; stroke-linecap: square"/>
   </g>
   <g id="line2d_65">
    <path d="M 408.9206 48.74138 
L 409.225174 59.799308 
" clip-path="url(#p00f6d252bf)" style="fill: none; stroke: #51a7f9; stroke-width: 2; stroke-linecap: square"/>
   </g>
   <g id="line2d_66">
    <path d="M 301.781151 71.178419 
L 294.445024 71.20235 
" clip-path="url(#p00f6d252bf)" style="fill: none; stroke: #6a5acd; stroke-width: 2; stroke-linecap: square"/>
   </g>
   <g id="line2d_67">
    <path d="M 298.007625 59.195953 
L 298.21855 83.184816 
" clip-path="url(#p00f6d252bf)" style="fill: none; stroke: #6a5acd; stroke-width: 2; stroke-linecap: square"/>
   </g>
   <g id="LineCollection_1"/>
   <g id="LineCollection_2"/>
   <g id="LineCollection_3"/>
   <g id="LineCollection_4"/>
   <g id="LineCollection_5"/>
   <g id="LineCollection_6"/>
   <g id="LineCollection_7"/>
   <g id="LineCollection_8"/>
   <g id="line2d_68"/>
   <g id="line2d_69"/>
   <g id="line2d_70"/>
   <g id="line2d_71"/>
   <g id="patch_3">
    <path d="M 61.428125 300.96 
L 61.428125 7.2 
" style="fill: none; stroke: #000000; stroke-width: 0.8; stroke-linejoin: miter; stroke-linecap: square"/>
   </g>
   <g id="patch_4">
    <path d="M 453.108125 300.96 
L 453.108125 7.2 
" style="fill: none; stroke: #000000; stroke-width: 0.8; stroke-linejoin: miter; stroke-linecap: square"/>
   </g>
   <g id="patch_5">
    <path d="M 61.428125 300.96 
L 453.108125 300.96 
" style="fill: none; stroke: #000000; stroke-width: 0.8; stroke-linejoin: miter; stroke-linecap: square"/>
   </g>
   <g id="patch_6">
    <path d="M 61.428125 7.2 
L 453.108125 7.2 
" style="fill: none; stroke: #000000; stroke-width: 0.8; stroke-linejoin: miter; stroke-linecap: square"/>
   </g>
   <g id="line2d_72">
    <path d="M 244.421454 142.500469 
" clip-path="url(#p00f6d252bf)" style="fill: none; stroke: #ec5d57; stroke-width: 1.5; stroke-linecap: square"/>
    <defs>
     <path id="m5dd53dfea1" d="M 0 3 
C 0.795609 3 1.55874 2.683901 2.12132 2.12132 
C 2.683901 1.55874 3 0.795609 3 0 
C 3 -0.795609 2.683901 -1.55874 2.12132 -2.12132 
C 1.55874 -2.683901 0.795609 -3 0 -3 
C -0.795609 -3 -1.55874 -2.683901 -2.12132 -2.12132 
C -2.683901 -1.55874 -3 -0.795609 -3 0 
C -3 0.795609 -2.683901 1.55874 -2.12132 2.12132 
C -1.55874 2.683901 -0.795609 3 0 3 
z
" style="stroke: #ffffff"/>
    </defs>
    <g clip-path="url(#p00f6d252bf)">
     <use xlink:href="#m5dd53dfea1" x="244.421454" y="142.500469" style="fill: #ec5d57; stroke: #ffffff"/>
    </g>
   </g>
   <g id="line2d_73">
    <path d="M 244.421454 142.500469 
" clip-path="url(#p00f6d252bf)" style="fill: none; stroke: #ec5d57; stroke-width: 1.5; stroke-linecap: square"/>
    <g clip-path="url(#p00f6d252bf)">
     <use xlink:href="#m5dd53dfea1" x="244.421454" y="142.500469" style="fill: #ec5d57; stroke: #ffffff"/>
    </g>
   </g>
   <g id="line2d_74">
    <path d="M 281.03206 123.733278 
" clip-path="url(#p00f6d252bf)" style="fill: none; stroke: #ec5d57; stroke-width: 1.5; stroke-linecap: square"/>
    <g clip-path="url(#p00f6d252bf)">
     <use xlink:href="#m5dd53dfea1" x="281.03206" y="123.733278" style="fill: #ec5d57; stroke: #ffffff"/>
    </g>
   </g>
   <g id="line2d_75">
    <path d="M 281.03206 123.733278 
" clip-path="url(#p00f6d252bf)" style="fill: none; stroke: #ec5d57; stroke-width: 1.5; stroke-linecap: square"/>
    <g clip-path="url(#p00f6d252bf)">
     <use xlink:href="#m5dd53dfea1" x="281.03206" y="123.733278" style="fill: #ec5d57; stroke: #ffffff"/>
    </g>
   </g>
   <g id="line2d_76">
    <path d="M 296.162286 103.206418 
" clip-path="url(#p00f6d252bf)" style="fill: none; stroke: #ec5d57; stroke-width: 1.5; stroke-linecap: square"/>
    <g clip-path="url(#p00f6d252bf)">
     <use xlink:href="#m5dd53dfea1" x="296.162286" y="103.206418" style="fill: #ec5d57; stroke: #ffffff"/>
    </g>
   </g>
   <g id="line2d_77">
    <path d="M 296.162286 103.206418 
" clip-path="url(#p00f6d252bf)" style="fill: none; stroke: #ec5d57; stroke-width: 1.5; stroke-linecap: square"/>
    <g clip-path="url(#p00f6d252bf)">
     <use xlink:href="#m5dd53dfea1" x="296.162286" y="103.206418" style="fill: #ec5d57; stroke: #ffffff"/>
    </g>
   </g>
   <g id="line2d_78">
    <path d="M 307.262158 102.174041 
" clip-path="url(#p00f6d252bf)" style="fill: none; stroke: #ec5d57; stroke-width: 1.5; stroke-linecap: square"/>
    <g clip-path="url(#p00f6d252bf)">
     <use xlink:href="#m5dd53dfea1" x="307.262158" y="102.174041" style="fill: #ec5d57; stroke: #ffffff"/>
    </g>
   </g>
   <g id="line2d_79">
    <path d="M 307.262158 102.174041 
" clip-path="url(#p00f6d252bf)" style="fill: none; stroke: #ec5d57; stroke-width: 1.5; stroke-linecap: square"/>
    <g clip-path="url(#p00f6d252bf)">
     <use xlink:href="#m5dd53dfea1" x="307.262158" y="102.174041" style="fill: #ec5d57; stroke: #ffffff"/>
    </g>
   </g>
   <g id="line2d_80">
    <path d="M 355.068685 78.433284 
" clip-path="url(#p00f6d252bf)" style="fill: none; stroke: #ec5d57; stroke-width: 1.5; stroke-linecap: square"/>
    <g clip-path="url(#p00f6d252bf)">
     <use xlink:href="#m5dd53dfea1" x="355.068685" y="78.433284" style="fill: #ec5d57; stroke: #ffffff"/>
    </g>
   </g>
   <g id="line2d_81">
    <path d="M 355.068685 78.433284 
" clip-path="url(#p00f6d252bf)" style="fill: none; stroke: #ec5d57; stroke-width: 1.5; stroke-linecap: square"/>
    <g clip-path="url(#p00f6d252bf)">
     <use xlink:href="#m5dd53dfea1" x="355.068685" y="78.433284" style="fill: #ec5d57; stroke: #ffffff"/>
    </g>
   </g>
   <g id="line2d_82">
    <path d="M 432.809106 42.914118 
" clip-path="url(#p00f6d252bf)" style="fill: none; stroke: #ec5d57; stroke-width: 1.5; stroke-linecap: square"/>
    <g clip-path="url(#p00f6d252bf)">
     <use xlink:href="#m5dd53dfea1" x="432.809106" y="42.914118" style="fill: #ec5d57; stroke: #ffffff"/>
    </g>
   </g>
   <g id="line2d_83">
    <path d="M 432.809106 42.914118 
" clip-path="url(#p00f6d252bf)" style="fill: none; stroke: #ec5d57; stroke-width: 1.5; stroke-linecap: square"/>
    <g clip-path="url(#p00f6d252bf)">
     <use xlink:href="#m5dd53dfea1" x="432.809106" y="42.914118" style="fill: #ec5d57; stroke: #ffffff"/>
    </g>
   </g>
   <g id="line2d_84">
    <path d="M 222.723963 137.654461 
" clip-path="url(#p00f6d252bf)" style="fill: none; stroke: #70bf41; stroke-width: 1.5; stroke-linecap: square"/>
    <defs>
     <path id="m793d891008" d="M 0 3 
C 0.795609 3 1.55874 2.683901 2.12132 2.12132 
C 2.683901 1.55874 3 0.795609 3 0 
C 3 -0.795609 2.683901 -1.55874 2.12132 -2.12132 
C 1.55874 -2.683901 0.795609 -3 0 -3 
C -0.795609 -3 -1.55874 -2.683901 -2.12132 -2.12132 
C -2.683901 -1.55874 -3 -0.795609 -3 0 
C -3 0.795609 -2.683901 1.55874 -2.12132 2.12132 
C -1.55874 2.683901 -0.795609 3 0 3 
z
" style="stroke: #ffffff"/>
    </defs>
    <g clip-path="url(#p00f6d252bf)">
     <use xlink:href="#m793d891008" x="222.723963" y="137.654461" style="fill: #70bf41; stroke: #ffffff"/>
    </g>
   </g>
   <g id="line2d_85">
    <path d="M 222.723963 137.654461 
" clip-path="url(#p00f6d252bf)" style="fill: none; stroke: #70bf41; stroke-width: 1.5; stroke-linecap: square"/>
    <g clip-path="url(#p00f6d252bf)">
     <use xlink:href="#m793d891008" x="222.723963" y="137.654461" style="fill: #70bf41; stroke: #ffffff"/>
    </g>
   </g>
   <g id="line2d_86">
    <path d="M 258.139169 127.691239 
" clip-path="url(#p00f6d252bf)" style="fill: none; stroke: #70bf41; stroke-width: 1.5; stroke-linecap: square"/>
    <g clip-path="url(#p00f6d252bf)">
     <use xlink:href="#m793d891008" x="258.139169" y="127.691239" style="fill: #70bf41; stroke: #ffffff"/>
    </g>
   </g>
   <g id="line2d_87">
    <path d="M 258.139169 127.691239 
" clip-path="url(#p00f6d252bf)" style="fill: none; stroke: #70bf41; stroke-width: 1.5; stroke-linecap: square"/>
    <g clip-path="url(#p00f6d252bf)">
     <use xlink:href="#m793d891008" x="258.139169" y="127.691239" style="fill: #70bf41; stroke: #ffffff"/>
    </g>
   </g>
   <g id="line2d_88">
    <path d="M 279.704423 110.257471 
" clip-path="url(#p00f6d252bf)" style="fill: none; stroke: #70bf41; stroke-width: 1.5; stroke-linecap: square"/>
    <g clip-path="url(#p00f6d252bf)">
     <use xlink:href="#m793d891008" x="279.704423" y="110.257471" style="fill: #70bf41; stroke: #ffffff"/>
    </g>
   </g>
   <g id="line2d_89">
    <path d="M 279.704423 110.257471 
" clip-path="url(#p00f6d252bf)" style="fill: none; stroke: #70bf41; stroke-width: 1.5; stroke-linecap: square"/>
    <g clip-path="url(#p00f6d252bf)">
     <use xlink:href="#m793d891008" x="279.704423" y="110.257471" style="fill: #70bf41; stroke: #ffffff"/>
    </g>
   </g>
   <g id="line2d_90">
    <path d="M 285.021951 105.503559 
" clip-path="url(#p00f6d252bf)" style="fill: none; stroke: #70bf41; stroke-width: 1.5; stroke-linecap: square"/>
    <g clip-path="url(#p00f6d252bf)">
     <use xlink:href="#m793d891008" x="285.021951" y="105.503559" style="fill: #70bf41; stroke: #ffffff"/>
    </g>
   </g>
   <g id="line2d_91">
    <path d="M 285.021951 105.503559 
" clip-path="url(#p00f6d252bf)" style="fill: none; stroke: #70bf41; stroke-width: 1.5; stroke-linecap: square"/>
    <g clip-path="url(#p00f6d252bf)">
     <use xlink:href="#m793d891008" x="285.021951" y="105.503559" style="fill: #70bf41; stroke: #ffffff"/>
    </g>
   </g>
   <g id="line2d_92">
    <path d="M 81.105932 228.992171 
" clip-path="url(#p00f6d252bf)" style="fill: none; stroke: #70bf41; stroke-width: 1.5; stroke-linecap: square"/>
    <g clip-path="url(#p00f6d252bf)">
     <use xlink:href="#m793d891008" x="81.105932" y="228.992171" style="fill: #70bf41; stroke: #ffffff"/>
    </g>
   </g>
   <g id="line2d_93">
    <path d="M 81.105932 228.992171 
" clip-path="url(#p00f6d252bf)" style="fill: none; stroke: #70bf41; stroke-width: 1.5; stroke-linecap: square"/>
    <g clip-path="url(#p00f6d252bf)">
     <use xlink:href="#m793d891008" x="81.105932" y="228.992171" style="fill: #70bf41; stroke: #ffffff"/>
    </g>
   </g>
   <g id="line2d_94">
    <path d="M 345.564973 73.57185 
" clip-path="url(#p00f6d252bf)" style="fill: none; stroke: #70bf41; stroke-width: 1.5; stroke-linecap: square"/>
    <g clip-path="url(#p00f6d252bf)">
     <use xlink:href="#m793d891008" x="345.564973" y="73.57185" style="fill: #70bf41; stroke: #ffffff"/>
    </g>
   </g>
   <g id="line2d_95">
    <path d="M 345.564973 73.57185 
" clip-path="url(#p00f6d252bf)" style="fill: none; stroke: #70bf41; stroke-width: 1.5; stroke-linecap: square"/>
    <g clip-path="url(#p00f6d252bf)">
     <use xlink:href="#m793d891008" x="345.564973" y="73.57185" style="fill: #70bf41; stroke: #ffffff"/>
    </g>
   </g>
   <g id="line2d_96">
    <path d="M 342.374128 75.171216 
" clip-path="url(#p00f6d252bf)" style="fill: none; stroke: #70bf41; stroke-width: 1.5; stroke-linecap: square"/>
    <g clip-path="url(#p00f6d252bf)">
     <use xlink:href="#m793d891008" x="342.374128" y="75.171216" style="fill: #70bf41; stroke: #ffffff"/>
    </g>
   </g>
   <g id="line2d_97">
    <path d="M 342.374128 75.171216 
" clip-path="url(#p00f6d252bf)" style="fill: none; stroke: #70bf41; stroke-width: 1.5; stroke-linecap: square"/>
    <g clip-path="url(#p00f6d252bf)">
     <use xlink:href="#m793d891008" x="342.374128" y="75.171216" style="fill: #70bf41; stroke: #ffffff"/>
    </g>
   </g>
   <g id="line2d_98">
    <path d="M 343.790932 78.369063 
" clip-path="url(#p00f6d252bf)" style="fill: none; stroke: #70bf41; stroke-width: 1.5; stroke-linecap: square"/>
    <g clip-path="url(#p00f6d252bf)">
     <use xlink:href="#m793d891008" x="343.790932" y="78.369063" style="fill: #70bf41; stroke: #ffffff"/>
    </g>
   </g>
   <g id="line2d_99">
    <path d="M 343.790932 78.369063 
" clip-path="url(#p00f6d252bf)" style="fill: none; stroke: #70bf41; stroke-width: 1.5; stroke-linecap: square"/>
    <g clip-path="url(#p00f6d252bf)">
     <use xlink:href="#m793d891008" x="343.790932" y="78.369063" style="fill: #70bf41; stroke: #ffffff"/>
    </g>
   </g>
   <g id="line2d_100">
    <path d="M 369.416411 58.420304 
" clip-path="url(#p00f6d252bf)" style="fill: none; stroke: #70bf41; stroke-width: 1.5; stroke-linecap: square"/>
    <g clip-path="url(#p00f6d252bf)">
     <use xlink:href="#m793d891008" x="369.416411" y="58.420304" style="fill: #70bf41; stroke: #ffffff"/>
    </g>
   </g>
   <g id="line2d_101">
    <path d="M 369.416411 58.420304 
" clip-path="url(#p00f6d252bf)" style="fill: none; stroke: #70bf41; stroke-width: 1.5; stroke-linecap: square"/>
    <g clip-path="url(#p00f6d252bf)">
     <use xlink:href="#m793d891008" x="369.416411" y="58.420304" style="fill: #70bf41; stroke: #ffffff"/>
    </g>
   </g>
   <g id="line2d_102">
    <path d="M 393.452193 57.747311 
" clip-path="url(#p00f6d252bf)" style="fill: none; stroke: #70bf41; stroke-width: 1.5; stroke-linecap: square"/>
    <g clip-path="url(#p00f6d252bf)">
     <use xlink:href="#m793d891008" x="393.452193" y="57.747311" style="fill: #70bf41; stroke: #ffffff"/>
    </g>
   </g>
   <g id="line2d_103">
    <path d="M 393.452193 57.747311 
" clip-path="url(#p00f6d252bf)" style="fill: none; stroke: #70bf41; stroke-width: 1.5; stroke-linecap: square"/>
    <g clip-path="url(#p00f6d252bf)">
     <use xlink:href="#m793d891008" x="393.452193" y="57.747311" style="fill: #70bf41; stroke: #ffffff"/>
    </g>
   </g>
   <g id="line2d_104">
    <path d="M 220.598854 118.017251 
" clip-path="url(#p00f6d252bf)" style="fill: none; stroke: #51a7f9; stroke-width: 1.5; stroke-linecap: square"/>
    <defs>
     <path id="mdc3b31bd41" d="M 0 3 
C 0.795609 3 1.55874 2.683901 2.12132 2.12132 
C 2.683901 1.55874 3 0.795609 3 0 
C 3 -0.795609 2.683901 -1.55874 2.12132 -2.12132 
C 1.55874 -2.683901 0.795609 -3 0 -3 
C -0.795609 -3 -1.55874 -2.683901 -2.12132 -2.12132 
C -2.683901 -1.55874 -3 -0.795609 -3 0 
C -3 0.795609 -2.683901 1.55874 -2.12132 2.12132 
C -1.55874 2.683901 -0.795609 3 0 3 
z
" style="stroke: #ffffff"/>
    </defs>
    <g clip-path="url(#p00f6d252bf)">
     <use xlink:href="#mdc3b31bd41" x="220.598854" y="118.017251" style="fill: #51a7f9; stroke: #ffffff"/>
    </g>
   </g>
   <g id="line2d_105">
    <path d="M 220.598854 118.017251 
" clip-path="url(#p00f6d252bf)" style="fill: none; stroke: #51a7f9; stroke-width: 1.5; stroke-linecap: square"/>
    <g clip-path="url(#p00f6d252bf)">
     <use xlink:href="#mdc3b31bd41" x="220.598854" y="118.017251" style="fill: #51a7f9; stroke: #ffffff"/>
    </g>
   </g>
   <g id="line2d_106">
    <path d="M 261.742598 115.405721 
" clip-path="url(#p00f6d252bf)" style="fill: none; stroke: #51a7f9; stroke-width: 1.5; stroke-linecap: square"/>
    <g clip-path="url(#p00f6d252bf)">
     <use xlink:href="#mdc3b31bd41" x="261.742598" y="115.405721" style="fill: #51a7f9; stroke: #ffffff"/>
    </g>
   </g>
   <g id="line2d_107">
    <path d="M 261.742598 115.405721 
" clip-path="url(#p00f6d252bf)" style="fill: none; stroke: #51a7f9; stroke-width: 1.5; stroke-linecap: square"/>
    <g clip-path="url(#p00f6d252bf)">
     <use xlink:href="#mdc3b31bd41" x="261.742598" y="115.405721" style="fill: #51a7f9; stroke: #ffffff"/>
    </g>
   </g>
   <g id="line2d_108">
    <path d="M 287.939348 92.014988 
" clip-path="url(#p00f6d252bf)" style="fill: none; stroke: #51a7f9; stroke-width: 1.5; stroke-linecap: square"/>
    <g clip-path="url(#p00f6d252bf)">
     <use xlink:href="#mdc3b31bd41" x="287.939348" y="92.014988" style="fill: #51a7f9; stroke: #ffffff"/>
    </g>
   </g>
   <g id="line2d_109">
    <path d="M 287.939348 92.014988 
" clip-path="url(#p00f6d252bf)" style="fill: none; stroke: #51a7f9; stroke-width: 1.5; stroke-linecap: square"/>
    <g clip-path="url(#p00f6d252bf)">
     <use xlink:href="#mdc3b31bd41" x="287.939348" y="92.014988" style="fill: #51a7f9; stroke: #ffffff"/>
    </g>
   </g>
   <g id="line2d_110">
    <path d="M 360.542061 66.639953 
" clip-path="url(#p00f6d252bf)" style="fill: none; stroke: #51a7f9; stroke-width: 1.5; stroke-linecap: square"/>
    <g clip-path="url(#p00f6d252bf)">
     <use xlink:href="#mdc3b31bd41" x="360.542061" y="66.639953" style="fill: #51a7f9; stroke: #ffffff"/>
    </g>
   </g>
   <g id="line2d_111">
    <path d="M 360.542061 66.639953 
" clip-path="url(#p00f6d252bf)" style="fill: none; stroke: #51a7f9; stroke-width: 1.5; stroke-linecap: square"/>
    <g clip-path="url(#p00f6d252bf)">
     <use xlink:href="#mdc3b31bd41" x="360.542061" y="66.639953" style="fill: #51a7f9; stroke: #ffffff"/>
    </g>
   </g>
   <g id="line2d_112">
    <path d="M 409.072887 54.270344 
" clip-path="url(#p00f6d252bf)" style="fill: none; stroke: #51a7f9; stroke-width: 1.5; stroke-linecap: square"/>
    <g clip-path="url(#p00f6d252bf)">
     <use xlink:href="#mdc3b31bd41" x="409.072887" y="54.270344" style="fill: #51a7f9; stroke: #ffffff"/>
    </g>
   </g>
   <g id="line2d_113">
    <path d="M 409.072887 54.270344 
" clip-path="url(#p00f6d252bf)" style="fill: none; stroke: #51a7f9; stroke-width: 1.5; stroke-linecap: square"/>
    <g clip-path="url(#p00f6d252bf)">
     <use xlink:href="#mdc3b31bd41" x="409.072887" y="54.270344" style="fill: #51a7f9; stroke: #ffffff"/>
    </g>
   </g>
   <g id="line2d_114">
    <path d="M 298.113088 71.190385 
" clip-path="url(#p00f6d252bf)" style="fill: none; stroke: #6a5acd; stroke-width: 1.5; stroke-linecap: square"/>
    <defs>
     <path id="m3944e9d185" d="M 0 3 
C 0.795609 3 1.55874 2.683901 2.12132 2.12132 
C 2.683901 1.55874 3 0.795609 3 0 
C 3 -0.795609 2.683901 -1.55874 2.12132 -2.12132 
C 1.55874 -2.683901 0.795609 -3 0 -3 
C -0.795609 -3 -1.55874 -2.683901 -2.12132 -2.12132 
C -2.683901 -1.55874 -3 -0.795609 -3 0 
C -3 0.795609 -2.683901 1.55874 -2.12132 2.12132 
C -1.55874 2.683901 -0.795609 3 0 3 
z
" style="stroke: #ffffff"/>
    </defs>
    <g clip-path="url(#p00f6d252bf)">
     <use xlink:href="#m3944e9d185" x="298.113088" y="71.190385" style="fill: #6a5acd; stroke: #ffffff"/>
    </g>
   </g>
   <g id="line2d_115">
    <path d="M 298.113088 71.190385 
" clip-path="url(#p00f6d252bf)" style="fill: none; stroke: #6a5acd; stroke-width: 1.5; stroke-linecap: square"/>
    <g clip-path="url(#p00f6d252bf)">
     <use xlink:href="#m3944e9d185" x="298.113088" y="71.190385" style="fill: #6a5acd; stroke: #ffffff"/>
    </g>
   </g>
   <g id="legend_1">
    <g id="patch_7">
     <path d="M 68.428125 51.6 
L 265.028125 51.6 
Q 267.028125 51.6 267.028125 49.6 
L 267.028125 14.2 
Q 267.028125 12.2 265.028125 12.2 
L 68.428125 12.2 
Q 66.428125 12.2 66.428125 14.2 
L 66.428125 49.6 
Q 66.428125 51.6 68.428125 51.6 
z
" style="fill: #ffffff; opacity: 0.8; stroke: #cccccc; stroke-linejoin: miter"/>
    </g>
    <g id="LineCollection_9">
     <path d="M 75.428125 23.1 
L 85.428125 23.1 
" style="fill: none; stroke: #6a5acd; stroke-width: 3"/>
    </g>
    <g id="LineCollection_10">
     <path d="M 80.428125 28.1 
L 80.428125 18.1 
" style="fill: none; stroke: #6a5acd; stroke-width: 3"/>
    </g>
    <g id="line2d_116">
     <path d="M 70.428125 23.1 
L 90.428125 23.1 
" style="fill: none; stroke: #6a5acd; stroke-width: 1.5; stroke-linecap: square"/>
    </g>
    <g id="line2d_117">
     <defs>
      <path id="mfab5543037" d="M 0 4 
C 1.060812 4 2.078319 3.578535 2.828427 2.828427 
C 3.578535 2.078319 4 1.060812 4 0 
C 4 -1.060812 3.578535 -2.078319 2.828427 -2.828427 
C 2.078319 -3.578535 1.060812 -4 0 -4 
C -1.060812 -4 -2.078319 -3.578535 -2.828427 -2.828427 
C -3.578535 -2.078319 -4 -1.060812 -4 0 
C -4 1.060812 -3.578535 2.078319 -2.828427 2.828427 
C -2.078319 3.578535 -1.060812 4 0 4 
z
" style="stroke: #ffffff; stroke-width: 2"/>
     </defs>
     <g>
      <use xlink:href="#mfab5543037" x="80.428125" y="23.1" style="fill: #6a5acd; stroke: #ffffff; stroke-width: 2"/>
     </g>
    </g>
    <g id="text_21">
     <!-- $a_{06}(l_F^{\rm phys},s_F)$ -->
     <g transform="translate(98.428125 26.6) scale(0.1 -0.1)">
      <defs>
       <path id="DejaVuSans-28" d="M 1984 4856 
Q 1566 4138 1362 3434 
Q 1159 2731 1159 2009 
Q 1159 1288 1364 580 
Q 1569 -128 1984 -844 
L 1484 -844 
Q 1016 -109 783 600 
Q 550 1309 550 2009 
Q 550 2706 781 3412 
Q 1013 4119 1484 4856 
L 1984 4856 
z
" transform="scale(0.015625)"/>
       <path id="DejaVuSans-Oblique-6c" d="M 1172 4863 
L 1747 4863 
L 800 0 
L 225 0 
L 1172 4863 
z
" transform="scale(0.015625)"/>
       <path id="DejaVuSans-70" d="M 1159 525 
L 1159 -1331 
L 581 -1331 
L 581 3500 
L 1159 3500 
L 1159 2969 
Q 1341 3281 1617 3432 
Q 1894 3584 2278 3584 
Q 2916 3584 3314 3078 
Q 3713 2572 3713 1747 
Q 3713 922 3314 415 
Q 2916 -91 2278 -91 
Q 1894 -91 1617 61 
Q 1341 213 1159 525 
z
M 3116 1747 
Q 3116 2381 2855 2742 
Q 2594 3103 2138 3103 
Q 1681 3103 1420 2742 
Q 1159 2381 1159 1747 
Q 1159 1113 1420 752 
Q 1681 391 2138 391 
Q 2594 391 2855 752 
Q 3116 1113 3116 1747 
z
" transform="scale(0.015625)"/>
       <path id="DejaVuSans-68" d="M 3513 2113 
L 3513 0 
L 2938 0 
L 2938 2094 
Q 2938 2591 2744 2837 
Q 2550 3084 2163 3084 
Q 1697 3084 1428 2787 
Q 1159 2491 1159 1978 
L 1159 0 
L 581 0 
L 581 4863 
L 1159 4863 
L 1159 2956 
Q 1366 3272 1645 3428 
Q 1925 3584 2291 3584 
Q 2894 3584 3203 3211 
Q 3513 2838 3513 2113 
z
" transform="scale(0.015625)"/>
       <path id="DejaVuSans-79" d="M 2059 -325 
Q 1816 -950 1584 -1140 
Q 1353 -1331 966 -1331 
L 506 -1331 
L 506 -850 
L 844 -850 
Q 1081 -850 1212 -737 
Q 1344 -625 1503 -206 
L 1606 56 
L 191 3500 
L 800 3500 
L 1894 763 
L 2988 3500 
L 3597 3500 
L 2059 -325 
z
" transform="scale(0.015625)"/>
       <path id="DejaVuSans-73" d="M 2834 3397 
L 2834 2853 
Q 2591 2978 2328 3040 
Q 2066 3103 1784 3103 
Q 1356 3103 1142 2972 
Q 928 2841 928 2578 
Q 928 2378 1081 2264 
Q 1234 2150 1697 2047 
L 1894 2003 
Q 2506 1872 2764 1633 
Q 3022 1394 3022 966 
Q 3022 478 2636 193 
Q 2250 -91 1575 -91 
Q 1294 -91 989 -36 
Q 684 19 347 128 
L 347 722 
Q 666 556 975 473 
Q 1284 391 1588 391 
Q 1994 391 2212 530 
Q 2431 669 2431 922 
Q 2431 1156 2273 1281 
Q 2116 1406 1581 1522 
L 1381 1569 
Q 847 1681 609 1914 
Q 372 2147 372 2553 
Q 372 3047 722 3315 
Q 1072 3584 1716 3584 
Q 2034 3584 2315 3537 
Q 2597 3491 2834 3397 
z
" transform="scale(0.015625)"/>
       <path id="DejaVuSans-2c" d="M 750 794 
L 1409 794 
L 1409 256 
L 897 -744 
L 494 -744 
L 750 256 
L 750 794 
z
" transform="scale(0.015625)"/>
       <path id="DejaVuSans-29" d="M 513 4856 
L 1013 4856 
Q 1481 4119 1714 3412 
Q 1947 2706 1947 2009 
Q 1947 1309 1714 600 
Q 1481 -109 1013 -844 
L 513 -844 
Q 928 -128 1133 580 
Q 1338 1288 1338 2009 
Q 1338 2731 1133 3434 
Q 928 4138 513 4856 
z
" transform="scale(0.015625)"/>
      </defs>
      <use xlink:href="#DejaVuSans-Oblique-61" transform="translate(0 0.0625)"/>
      <use xlink:href="#DejaVuSans-30" transform="translate(61.279297 -16.34375) scale(0.7)"/>
      <use xlink:href="#DejaVuSans-36" transform="translate(105.81543 -16.34375) scale(0.7)"/>
      <use xlink:href="#DejaVuSans-28" transform="translate(153.085938 0.0625)"/>
      <use xlink:href="#DejaVuSans-Oblique-6c" transform="translate(192.099609 0.0625)"/>
      <use xlink:href="#DejaVuSans-70" transform="translate(227.330521 50.810938) scale(0.7)"/>
      <use xlink:href="#DejaVuSans-68" transform="translate(271.764115 50.810938) scale(0.7)"/>
      <use xlink:href="#DejaVuSans-79" transform="translate(316.129349 50.810938) scale(0.7)"/>
      <use xlink:href="#DejaVuSans-73" transform="translate(357.55513 50.810938) scale(0.7)"/>
      <use xlink:href="#DejaVuSans-Oblique-46" transform="translate(219.882812 -27.28125) scale(0.7)"/>
      <use xlink:href="#DejaVuSans-2c" transform="translate(396.759232 0.0625)"/>
      <use xlink:href="#DejaVuSans-Oblique-73" transform="translate(448.028763 0.0625)"/>
      <use xlink:href="#DejaVuSans-Oblique-46" transform="translate(500.128372 -16.34375) scale(0.7)"/>
      <use xlink:href="#DejaVuSans-29" transform="translate(543.126419 0.0625)"/>
     </g>
    </g>
    <g id="LineCollection_11">
     <path d="M 75.428125 41.3 
L 85.428125 41.3 
" style="fill: none; stroke: #51a7f9; stroke-width: 3"/>
    </g>
    <g id="LineCollection_12">
     <path d="M 80.428125 46.3 
L 80.428125 36.3 
" style="fill: none; stroke: #51a7f9; stroke-width: 3"/>
    </g>
    <g id="line2d_118">
     <path d="M 70.428125 41.3 
L 90.428125 41.3 
" style="fill: none; stroke: #51a7f9; stroke-width: 1.5; stroke-linecap: square"/>
    </g>
    <g id="line2d_119">
     <defs>
      <path id="me431c70394" d="M 0 4 
C 1.060812 4 2.078319 3.578535 2.828427 2.828427 
C 3.578535 2.078319 4 1.060812 4 0 
C 4 -1.060812 3.578535 -2.078319 2.828427 -2.828427 
C 2.078319 -3.578535 1.060812 -4 0 -4 
C -1.060812 -4 -2.078319 -3.578535 -2.828427 -2.828427 
C -3.578535 -2.078319 -4 -1.060812 -4 0 
C -4 1.060812 -3.578535 2.078319 -2.828427 2.828427 
C -2.078319 3.578535 -1.060812 4 0 4 
z
" style="stroke: #ffffff; stroke-width: 2"/>
     </defs>
     <g>
      <use xlink:href="#me431c70394" x="80.428125" y="41.3" style="fill: #51a7f9; stroke: #ffffff; stroke-width: 2"/>
     </g>
    </g>
    <g id="text_22">
     <!-- $a_{09}(l_F^{\rm phys},s_F)$ -->
     <g transform="translate(98.428125 44.8) scale(0.1 -0.1)">
      <defs>
       <path id="DejaVuSans-39" d="M 703 97 
L 703 672 
Q 941 559 1184 500 
Q 1428 441 1663 441 
Q 2288 441 2617 861 
Q 2947 1281 2994 2138 
Q 2813 1869 2534 1725 
Q 2256 1581 1919 1581 
Q 1219 1581 811 2004 
Q 403 2428 403 3163 
Q 403 3881 828 4315 
Q 1253 4750 1959 4750 
Q 2769 4750 3195 4129 
Q 3622 3509 3622 2328 
Q 3622 1225 3098 567 
Q 2575 -91 1691 -91 
Q 1453 -91 1209 -44 
Q 966 3 703 97 
z
M 1959 2075 
Q 2384 2075 2632 2365 
Q 2881 2656 2881 3163 
Q 2881 3666 2632 3958 
Q 2384 4250 1959 4250 
Q 1534 4250 1286 3958 
Q 1038 3666 1038 3163 
Q 1038 2656 1286 2365 
Q 1534 2075 1959 2075 
z
" transform="scale(0.015625)"/>
      </defs>
      <use xlink:href="#DejaVuSans-Oblique-61" transform="translate(0 0.0625)"/>
      <use xlink:href="#DejaVuSans-30" transform="translate(61.279297 -16.34375) scale(0.7)"/>
      <use xlink:href="#DejaVuSans-39" transform="translate(105.81543 -16.34375) scale(0.7)"/>
      <use xlink:href="#DejaVuSans-28" transform="translate(153.085938 0.0625)"/>
      <use xlink:href="#DejaVuSans-Oblique-6c" transform="translate(192.099609 0.0625)"/>
      <use xlink:href="#DejaVuSans-70" transform="translate(227.330521 50.810938) scale(0.7)"/>
      <use xlink:href="#DejaVuSans-68" transform="translate(271.764115 50.810938) scale(0.7)"/>
      <use xlink:href="#DejaVuSans-79" transform="translate(316.129349 50.810938) scale(0.7)"/>
      <use xlink:href="#DejaVuSans-73" transform="translate(357.55513 50.810938) scale(0.7)"/>
      <use xlink:href="#DejaVuSans-Oblique-46" transform="translate(219.882812 -27.28125) scale(0.7)"/>
      <use xlink:href="#DejaVuSans-2c" transform="translate(396.759232 0.0625)"/>
      <use xlink:href="#DejaVuSans-Oblique-73" transform="translate(448.028763 0.0625)"/>
      <use xlink:href="#DejaVuSans-Oblique-46" transform="translate(500.128372 -16.34375) scale(0.7)"/>
      <use xlink:href="#DejaVuSans-29" transform="translate(543.126419 0.0625)"/>
     </g>
    </g>
    <g id="LineCollection_13">
     <path d="M 181.728125 23.1 
L 191.728125 23.1 
" style="fill: none; stroke: #70bf41; stroke-width: 3"/>
    </g>
    <g id="LineCollection_14">
     <path d="M 186.728125 28.1 
L 186.728125 18.1 
" style="fill: none; stroke: #70bf41; stroke-width: 3"/>
    </g>
    <g id="line2d_120">
     <path d="M 176.728125 23.1 
L 196.728125 23.1 
" style="fill: none; stroke: #70bf41; stroke-width: 1.5; stroke-linecap: square"/>
    </g>
    <g id="line2d_121">
     <defs>
      <path id="m492da08dcc" d="M 0 4 
C 1.060812 4 2.078319 3.578535 2.828427 2.828427 
C 3.578535 2.078319 4 1.060812 4 0 
C 4 -1.060812 3.578535 -2.078319 2.828427 -2.828427 
C 2.078319 -3.578535 1.060812 -4 0 -4 
C -1.060812 -4 -2.078319 -3.578535 -2.828427 -2.828427 
C -3.578535 -2.078319 -4 -1.060812 -4 0 
C -4 1.060812 -3.578535 2.078319 -2.828427 2.828427 
C -2.078319 3.578535 -1.060812 4 0 4 
z
" style="stroke: #ffffff; stroke-width: 2"/>
     </defs>
     <g>
      <use xlink:href="#m492da08dcc" x="186.728125" y="23.1" style="fill: #70bf41; stroke: #ffffff; stroke-width: 2"/>
     </g>
    </g>
    <g id="text_23">
     <!-- $a_{12}(l_F^{\rm phys},s_F)$ -->
     <g transform="translate(204.728125 26.6) scale(0.1 -0.1)">
      <use xlink:href="#DejaVuSans-Oblique-61" transform="translate(0 0.0625)"/>
      <use xlink:href="#DejaVuSans-31" transform="translate(61.279297 -16.34375) scale(0.7)"/>
      <use xlink:href="#DejaVuSans-32" transform="translate(105.81543 -16.34375) scale(0.7)"/>
      <use xlink:href="#DejaVuSans-28" transform="translate(153.085938 0.0625)"/>
      <use xlink:href="#DejaVuSans-Oblique-6c" transform="translate(192.099609 0.0625)"/>
      <use xlink:href="#DejaVuSans-70" transform="translate(227.330521 50.810938) scale(0.7)"/>
      <use xlink:href="#DejaVuSans-68" transform="translate(271.764115 50.810938) scale(0.7)"/>
      <use xlink:href="#DejaVuSans-79" transform="translate(316.129349 50.810938) scale(0.7)"/>
      <use xlink:href="#DejaVuSans-73" transform="translate(357.55513 50.810938) scale(0.7)"/>
      <use xlink:href="#DejaVuSans-Oblique-46" transform="translate(219.882812 -27.28125) scale(0.7)"/>
      <use xlink:href="#DejaVuSans-2c" transform="translate(396.759232 0.0625)"/>
      <use xlink:href="#DejaVuSans-Oblique-73" transform="translate(448.028763 0.0625)"/>
      <use xlink:href="#DejaVuSans-Oblique-46" transform="translate(500.128372 -16.34375) scale(0.7)"/>
      <use xlink:href="#DejaVuSans-29" transform="translate(543.126419 0.0625)"/>
     </g>
    </g>
    <g id="LineCollection_15">
     <path d="M 181.728125 41.3 
L 191.728125 41.3 
" style="fill: none; stroke: #ec5d57; stroke-width: 3"/>
    </g>
    <g id="LineCollection_16">
     <path d="M 186.728125 46.3 
L 186.728125 36.3 
" style="fill: none; stroke: #ec5d57; stroke-width: 3"/>
    </g>
    <g id="line2d_122">
     <path d="M 176.728125 41.3 
L 196.728125 41.3 
" style="fill: none; stroke: #ec5d57; stroke-width: 1.5; stroke-linecap: square"/>
    </g>
    <g id="line2d_123">
     <defs>
      <path id="m961c1002df" d="M 0 4 
C 1.060812 4 2.078319 3.578535 2.828427 2.828427 
C 3.578535 2.078319 4 1.060812 4 0 
C 4 -1.060812 3.578535 -2.078319 2.828427 -2.828427 
C 2.078319 -3.578535 1.060812 -4 0 -4 
C -1.060812 -4 -2.078319 -3.578535 -2.828427 -2.828427 
C -3.578535 -2.078319 -4 -1.060812 -4 0 
C -4 1.060812 -3.578535 2.078319 -2.828427 2.828427 
C -2.078319 3.578535 -1.060812 4 0 4 
z
" style="stroke: #ffffff; stroke-width: 2"/>
     </defs>
     <g>
      <use xlink:href="#m961c1002df" x="186.728125" y="41.3" style="fill: #ec5d57; stroke: #ffffff; stroke-width: 2"/>
     </g>
    </g>
    <g id="text_24">
     <!-- $a_{15}(l_F^{\rm phys},s_F)$ -->
     <g transform="translate(204.728125 44.8) scale(0.1 -0.1)">
      <use xlink:href="#DejaVuSans-Oblique-61" transform="translate(0 0.0625)"/>
      <use xlink:href="#DejaVuSans-31" transform="translate(61.279297 -16.34375) scale(0.7)"/>
      <use xlink:href="#DejaVuSans-35" transform="translate(105.81543 -16.34375) scale(0.7)"/>
      <use xlink:href="#DejaVuSans-28" transform="translate(153.085938 0.0625)"/>
      <use xlink:href="#DejaVuSans-Oblique-6c" transform="translate(192.099609 0.0625)"/>
      <use xlink:href="#DejaVuSans-70" transform="translate(227.330521 50.810938) scale(0.7)"/>
      <use xlink:href="#DejaVuSans-68" transform="translate(271.764115 50.810938) scale(0.7)"/>
      <use xlink:href="#DejaVuSans-79" transform="translate(316.129349 50.810938) scale(0.7)"/>
      <use xlink:href="#DejaVuSans-73" transform="translate(357.55513 50.810938) scale(0.7)"/>
      <use xlink:href="#DejaVuSans-Oblique-46" transform="translate(219.882812 -27.28125) scale(0.7)"/>
      <use xlink:href="#DejaVuSans-2c" transform="translate(396.759232 0.0625)"/>
      <use xlink:href="#DejaVuSans-Oblique-73" transform="translate(448.028763 0.0625)"/>
      <use xlink:href="#DejaVuSans-Oblique-46" transform="translate(500.128372 -16.34375) scale(0.7)"/>
      <use xlink:href="#DejaVuSans-29" transform="translate(543.126419 0.0625)"/>
     </g>
    </g>
   </g>
  </g>
 </g>
 <defs>
  <clipPath id="p00f6d252bf">
   <rect x="61.428125" y="7.2" width="391.68" height="293.76"/>
  </clipPath>
 </defs>
 <defs>
  <pattern id="hb3c8a0bc0f" patternUnits="userSpaceOnUse" x="0" y="0" width="72" height="72">
   <rect x="0" y="0" width="73" height="73" fill="none"/>
   <path d="M -36 36 
L 36 -36 
M -24 48 
L 48 -24 
M -12 60 
L 60 -12 
M 0 72 
L 72 0 
M 12 84 
L 84 12 
M 24 96 
L 96 24 
M 36 108 
L 108 36 
" style="fill: #000000; stroke: #000000; stroke-width: 1.0; stroke-linecap: butt; stroke-linejoin: miter; stroke-opacity: 0.6"/>
  </pattern>
 </defs>
</svg>
