<?xml version="1.0" encoding="utf-8" standalone="no"?>
<!DOCTYPE svg PUBLIC "-//W3C//DTD SVG 1.1//EN"
  "http://www.w3.org/Graphics/SVG/1.1/DTD/svg11.dtd">
<svg xmlns:xlink="http://www.w3.org/1999/xlink" width="453.945625pt" height="342.375771pt" viewBox="0 0 453.945625 342.375771" xmlns="http://www.w3.org/2000/svg" version="1.1">
 <metadata>
  <rdf:RDF xmlns:dc="http://purl.org/dc/elements/1.1/" xmlns:cc="http://creativecommons.org/ns#" xmlns:rdf="http://www.w3.org/1999/02/22-rdf-syntax-ns#">
   <cc:Work>
    <dc:type rdf:resource="http://purl.org/dc/dcmitype/StillImage"/>
    <dc:date>2025-03-01T16:01:36.978570</dc:date>
    <dc:format>image/svg+xml</dc:format>
    <dc:creator>
     <cc:Agent>
      <dc:title>Matplotlib v3.10.0, https://matplotlib.org/</dc:title>
     </cc:Agent>
    </dc:creator>
   </cc:Work>
  </rdf:RDF>
 </metadata>
 <defs>
  <style type="text/css">*{stroke-linejoin: round; stroke-linecap: butt}</style>
 </defs>
 <g id="figure_1">
  <g id="patch_1">
   <path d="M 0 342.375771 
L 453.945625 342.375771 
L 453.945625 0 
L 0 0 
z
" style="fill: #ffffff"/>
  </g>
  <g id="axes_1">
   <g id="patch_2">
    <path d="M 55.065625 302.497646 
L 446.745625 302.497646 
L 446.745625 8.737646 
L 55.065625 8.737646 
z
" style="fill: #ffffff"/>
   </g>
   <g id="FillBetweenPolyCollection_1">
    <path d="M 72.869261 253.184489 
L 72.869261 282.042066 
L 80.110386 276.951482 
L 87.35151 271.910171 
L 94.592634 266.915964 
L 101.833759 261.967898 
L 109.074883 257.065453 
L 116.316007 252.208307 
L 123.557132 247.396207 
L 130.798256 242.628888 
L 138.03938 237.906016 
L 145.280505 233.227143 
L 152.521629 228.591682 
L 159.762753 223.998891 
L 167.003878 219.447869 
L 174.245002 214.937567 
L 181.486126 210.466797 
L 188.727251 206.034258 
L 195.968375 201.638564 
L 203.2095 197.278269 
L 210.450624 192.951896 
L 217.691748 188.657965 
L 224.932873 184.395017 
L 232.173997 180.161629 
L 239.415121 175.956438 
L 246.656246 171.778144 
L 253.89737 167.625527 
L 261.138494 163.497444 
L 268.379619 159.392837 
L 275.620743 155.31073 
L 282.861867 151.250228 
L 290.102992 147.210516 
L 297.344116 143.190851 
L 304.58524 139.190562 
L 311.826365 135.209041 
L 319.067489 131.245743 
L 326.308613 127.300177 
L 333.549738 123.371903 
L 340.790862 119.460528 
L 348.031986 115.565699 
L 355.273111 111.687105 
L 362.514235 107.824466 
L 369.755359 103.977535 
L 376.996484 100.146091 
L 384.237608 96.329942 
L 391.478732 92.528914 
L 398.719857 88.742856 
L 405.960981 84.971636 
L 413.202105 81.215135 
L 420.44323 77.473252 
L 427.684354 73.745896 
L 427.684354 22.090373 
L 427.684354 22.090373 
L 420.44323 26.986284 
L 413.202105 31.881076 
L 405.960981 36.774706 
L 398.719857 41.667123 
L 391.478732 46.558258 
L 384.237608 51.448028 
L 376.996484 56.336331 
L 369.755359 61.223047 
L 362.514235 66.108032 
L 355.273111 70.991118 
L 348.031986 75.87211 
L 340.790862 80.750782 
L 333.549738 85.626874 
L 326.308613 90.500088 
L 319.067489 95.370086 
L 311.826365 100.236484 
L 304.58524 105.098845 
L 297.344116 109.956682 
L 290.102992 114.809445 
L 282.861867 119.656522 
L 275.620743 124.497229 
L 268.379619 129.330812 
L 261.138494 134.156438 
L 253.89737 138.973196 
L 246.656246 143.780091 
L 239.415121 148.576048 
L 232.173997 153.359915 
L 224.932873 158.130464 
L 217.691748 162.886401 
L 210.450624 167.626383 
L 203.2095 172.349027 
L 195.968375 177.052934 
L 188.727251 181.736714 
L 181.486126 186.39901 
L 174.245002 191.03853 
L 167.003878 195.654074 
L 159.762753 200.244563 
L 152.521629 204.809062 
L 145.280505 209.346797 
L 138.03938 213.857165 
L 130.798256 218.339732 
L 123.557132 222.794224 
L 116.316007 227.220507 
L 109.074883 231.618551 
L 101.833759 235.988389 
L 94.592634 240.330061 
L 87.35151 244.643534 
L 80.110386 248.92858 
L 72.869261 253.184489 
z
" clip-path="url(#pf63ed01997)" style="fill: url(#hcd9fbf72cf); stroke: #000000; stroke-opacity: 0.6"/>
   </g>
   <g id="FillBetweenPolyCollection_2">
    <defs>
     <path id="m66008cfe28" d="M 72.869261 -79.94237 
L 72.869261 -53.230852 
L 80.110386 -57.383695 
L 87.35151 -61.492333 
L 94.592634 -65.559306 
L 101.833759 -69.585568 
L 109.074883 -73.571385 
L 116.316007 -77.516586 
L 123.557132 -81.4207 
L 130.798256 -85.283034 
L 138.03938 -89.102747 
L 145.280505 -92.878921 
L 152.521629 -96.610631 
L 159.762753 -100.297024 
L 167.003878 -103.937393 
L 174.245002 -107.531254 
L 181.486126 -111.078411 
L 188.727251 -114.579003 
L 195.968375 -118.033532 
L 203.2095 -121.442864 
L 210.450624 -124.808205 
L 217.691748 -128.131055 
L 224.932873 -131.413147 
L 232.173997 -134.656379 
L 239.415121 -137.86274 
L 246.656246 -141.034251 
L 253.89737 -144.172901 
L 261.138494 -147.280612 
L 268.379619 -150.359198 
L 275.620743 -153.41035 
L 282.861867 -156.435623 
L 290.102992 -159.436428 
L 297.344116 -162.414036 
L 304.58524 -165.369585 
L 311.826365 -168.304084 
L 319.067489 -171.218426 
L 326.308613 -174.113395 
L 333.549738 -176.989678 
L 340.790862 -179.847874 
L 348.031986 -182.688507 
L 355.273111 -185.512028 
L 362.514235 -188.318828 
L 369.755359 -191.109244 
L 376.996484 -193.883567 
L 384.237608 -196.642042 
L 391.478732 -199.384882 
L 398.719857 -202.112265 
L 405.960981 -204.824342 
L 413.202105 -207.521238 
L 420.44323 -210.203058 
L 427.684354 -212.869887 
L 427.684354 -251.964103 
L 427.684354 -251.964103 
L 420.44323 -248.251955 
L 413.202105 -244.539485 
L 405.960981 -240.826729 
L 398.719857 -237.113742 
L 391.478732 -233.400601 
L 384.237608 -229.687407 
L 376.996484 -225.974287 
L 369.755359 -222.261403 
L 362.514235 -218.54895 
L 355.273111 -214.837166 
L 348.031986 -211.126337 
L 340.790862 -207.4168 
L 333.549738 -203.708956 
L 326.308613 -200.00327 
L 319.067489 -196.30029 
L 311.826365 -192.600646 
L 304.58524 -188.905067 
L 297.344116 -185.214389 
L 290.102992 -181.529563 
L 282.861867 -177.851668 
L 275.620743 -174.181914 
L 268.379619 -170.521655 
L 261.138494 -166.87238 
L 253.89737 -163.235717 
L 246.656246 -159.613416 
L 239.415121 -156.007332 
L 232.173997 -152.419386 
L 224.932873 -148.851528 
L 217.691748 -145.305674 
L 210.450624 -141.783646 
L 203.2095 -138.2871 
L 195.968375 -134.817454 
L 188.727251 -131.375828 
L 181.486126 -127.962999 
L 174.245002 -124.579374 
L 167.003878 -121.224991 
L 159.762753 -117.899547 
L 152.521629 -114.602442 
L 145.280505 -111.332843 
L 138.03938 -108.089757 
L 130.798256 -104.872107 
L 123.557132 -101.678801 
L 116.316007 -98.508797 
L 109.074883 -95.361169 
L 101.833759 -92.235156 
L 94.592634 -89.130231 
L 87.35151 -86.046168 
L 80.110386 -82.983188 
L 72.869261 -79.94237 
z
" style="stroke: #ec5d57; stroke-opacity: 0.4"/>
    </defs>
    <g clip-path="url(#pf63ed01997)">
     <use xlink:href="#m66008cfe28" x="0" y="342.375771" style="fill: #ec5d57; fill-opacity: 0.4; stroke: #ec5d57; stroke-opacity: 0.4"/>
    </g>
   </g>
   <g id="FillBetweenPolyCollection_3">
    <defs>
     <path id="ma98046f1aa" d="M 72.869261 -67.181114 
L 72.869261 -55.856252 
L 80.110386 -60.4152 
L 87.35151 -64.92059 
L 94.592634 -69.371884 
L 101.833759 -73.763908 
L 109.074883 -78.087247 
L 116.316007 -82.327894 
L 123.557132 -86.468077 
L 130.798256 -90.490392 
L 138.03938 -94.385633 
L 145.280505 -98.159333 
L 152.521629 -101.830131 
L 159.762753 -105.421541 
L 167.003878 -108.954772 
L 174.245002 -112.445996 
L 181.486126 -115.906578 
L 188.727251 -119.344219 
L 195.968375 -122.764085 
L 203.2095 -126.169628 
L 210.450624 -129.56316 
L 217.691748 -132.946223 
L 224.932873 -136.319838 
L 232.173997 -139.684661 
L 239.415121 -143.041097 
L 246.656246 -146.389368 
L 253.89737 -149.72957 
L 261.138494 -153.061701 
L 268.379619 -156.385695 
L 275.620743 -159.701432 
L 282.861867 -163.008757 
L 290.102992 -166.307488 
L 297.344116 -169.597422 
L 304.58524 -172.878345 
L 311.826365 -176.150031 
L 319.067489 -179.412249 
L 326.308613 -182.664765 
L 333.549738 -185.907343 
L 340.790862 -189.139747 
L 348.031986 -192.361743 
L 355.273111 -195.573101 
L 362.514235 -198.773592 
L 369.755359 -201.962993 
L 376.996484 -205.141086 
L 384.237608 -208.307656 
L 391.478732 -211.462495 
L 398.719857 -214.605401 
L 405.960981 -217.736178 
L 413.202105 -220.854634 
L 420.44323 -223.960586 
L 427.684354 -227.053855 
L 427.684354 -263.462905 
L 427.684354 -263.462905 
L 420.44323 -259.431345 
L 413.202105 -255.397774 
L 405.960981 -251.361965 
L 398.719857 -247.323683 
L 391.478732 -243.28269 
L 384.237608 -239.238739 
L 376.996484 -235.191577 
L 369.755359 -231.140945 
L 362.514235 -227.086579 
L 355.273111 -223.028207 
L 348.031986 -218.965554 
L 340.790862 -214.89834 
L 333.549738 -210.82628 
L 326.308613 -206.749087 
L 319.067489 -202.66647 
L 311.826365 -198.578138 
L 304.58524 -194.4838 
L 297.344116 -190.383169 
L 290.102992 -186.275962 
L 282.861867 -182.161905 
L 275.620743 -178.040735 
L 268.379619 -173.91221 
L 261.138494 -169.776112 
L 253.89737 -165.632258 
L 246.656246 -161.480517 
L 239.415121 -157.32082 
L 232.173997 -153.153194 
L 224.932873 -148.977792 
L 217.691748 -144.794945 
L 210.450624 -140.605235 
L 203.2095 -136.409602 
L 195.968375 -132.209508 
L 188.727251 -128.00718 
L 181.486126 -123.805981 
L 174.245002 -119.610979 
L 167.003878 -115.429778 
L 159.762753 -111.273633 
L 152.521629 -107.158601 
L 145.280505 -103.105766 
L 138.03938 -99.138501 
L 130.798256 -95.275293 
L 123.557132 -91.521501 
L 116.316007 -87.867719 
L 109.074883 -84.296307 
L 101.833759 -80.789209 
L 94.592634 -77.332054 
L 87.35151 -73.914941 
L 80.110386 -70.53196 
L 72.869261 -67.181114 
z
" style="stroke: #70bf41; stroke-opacity: 0.4"/>
    </defs>
    <g clip-path="url(#pf63ed01997)">
     <use xlink:href="#ma98046f1aa" x="0" y="342.375771" style="fill: #70bf41; fill-opacity: 0.4; stroke: #70bf41; stroke-opacity: 0.4"/>
    </g>
   </g>
   <g id="FillBetweenPolyCollection_4">
    <defs>
     <path id="m9bff3f6dc8" d="M 72.869261 -71.271196 
L 72.869261 -59.634357 
L 80.110386 -64.41076 
L 87.35151 -69.112919 
L 94.592634 -73.737848 
L 101.833759 -78.280011 
L 109.074883 -82.733684 
L 116.316007 -87.094867 
L 123.557132 -91.363019 
L 130.798256 -95.541979 
L 138.03938 -99.639586 
L 145.280505 -103.666219 
L 152.521629 -107.633017 
L 159.762753 -111.550478 
L 167.003878 -115.427685 
L 174.245002 -119.272078 
L 181.486126 -123.089537 
L 188.727251 -126.884612 
L 195.968375 -130.660776 
L 203.2095 -134.420656 
L 210.450624 -138.166225 
L 217.691748 -141.898961 
L 224.932873 -145.619957 
L 232.173997 -149.330014 
L 239.415121 -153.029708 
L 246.656246 -156.719444 
L 253.89737 -160.399491 
L 261.138494 -164.070014 
L 268.379619 -167.731097 
L 275.620743 -171.382763 
L 282.861867 -175.024981 
L 290.102992 -178.657685 
L 297.344116 -182.280777 
L 304.58524 -185.894135 
L 311.826365 -189.49762 
L 319.067489 -193.091078 
L 326.308613 -196.674347 
L 333.549738 -200.247256 
L 340.790862 -203.809629 
L 348.031986 -207.361287 
L 355.273111 -210.90205 
L 362.514235 -214.431736 
L 369.755359 -217.950166 
L 376.996484 -221.457161 
L 384.237608 -224.952545 
L 391.478732 -228.436145 
L 398.719857 -231.907791 
L 405.960981 -235.367317 
L 413.202105 -238.814562 
L 420.44323 -242.249367 
L 427.684354 -245.67158 
L 427.684354 -286.122038 
L 427.684354 -286.122038 
L 420.44323 -281.723451 
L 413.202105 -277.323353 
L 405.960981 -272.921541 
L 398.719857 -268.517808 
L 391.478732 -264.111944 
L 384.237608 -259.703733 
L 376.996484 -255.292954 
L 369.755359 -250.879384 
L 362.514235 -246.462796 
L 355.273111 -242.042958 
L 348.031986 -237.61964 
L 340.790862 -233.192607 
L 333.549738 -228.761626 
L 326.308613 -224.326463 
L 319.067489 -219.886889 
L 311.826365 -215.442678 
L 304.58524 -210.993609 
L 297.344116 -206.539473 
L 290.102992 -202.080073 
L 282.861867 -197.615229 
L 275.620743 -193.144783 
L 268.379619 -188.668606 
L 261.138494 -184.186608 
L 253.89737 -179.698747 
L 246.656246 -175.205041 
L 239.415121 -170.705589 
L 232.173997 -166.200592 
L 224.932873 -161.690384 
L 217.691748 -157.175469 
L 210.450624 -152.656571 
L 203.2095 -148.134707 
L 195.968375 -143.611271 
L 188.727251 -139.088152 
L 181.486126 -134.567887 
L 174.245002 -130.053854 
L 167.003878 -125.550502 
L 159.762753 -121.063605 
L 152.521629 -116.600485 
L 145.280505 -112.170101 
L 138.03938 -107.782811 
L 130.798256 -103.4496 
L 123.557132 -99.180674 
L 116.316007 -94.983672 
L 109.074883 -90.862197 
L 101.833759 -86.815424 
L 94.592634 -82.838991 
L 87.35151 -78.926684 
L 80.110386 -75.072234 
L 72.869261 -71.271196 
z
" style="stroke: #51a7f9; stroke-opacity: 0.4"/>
    </defs>
    <g clip-path="url(#pf63ed01997)">
     <use xlink:href="#m9bff3f6dc8" x="0" y="342.375771" style="fill: #51a7f9; fill-opacity: 0.4; stroke: #51a7f9; stroke-opacity: 0.4"/>
    </g>
   </g>
   <g id="FillBetweenPolyCollection_5">
    <defs>
     <path id="m6e4f68877b" d="M 72.869261 -79.730123 
L 72.869261 -61.314347 
L 80.110386 -66.268573 
L 87.35151 -71.162601 
L 94.592634 -75.997667 
L 101.833759 -80.773472 
L 109.074883 -85.489291 
L 116.316007 -90.144438 
L 123.557132 -94.738574 
L 130.798256 -99.27194 
L 138.03938 -103.745509 
L 145.280505 -108.161036 
L 152.521629 -112.521016 
L 159.762753 -116.828552 
L 167.003878 -121.087175 
L 174.245002 -125.300644 
L 181.486126 -129.472756 
L 188.727251 -133.60719 
L 195.968375 -137.707402 
L 203.2095 -141.776548 
L 210.450624 -145.817456 
L 217.691748 -149.832617 
L 224.932873 -153.824197 
L 232.173997 -157.794063 
L 239.415121 -161.743806 
L 246.656246 -165.674777 
L 253.89737 -169.588117 
L 261.138494 -173.48478 
L 268.379619 -177.365567 
L 275.620743 -181.231141 
L 282.861867 -185.08205 
L 290.102992 -188.918747 
L 297.344116 -192.741599 
L 304.58524 -196.550905 
L 311.826365 -200.346903 
L 319.067489 -204.129781 
L 326.308613 -207.899686 
L 333.549738 -211.656726 
L 340.790862 -215.40098 
L 348.031986 -219.132503 
L 355.273111 -222.851326 
L 362.514235 -226.557463 
L 369.755359 -230.250913 
L 376.996484 -233.931661 
L 384.237608 -237.599684 
L 391.478732 -241.254949 
L 398.719857 -244.897414 
L 405.960981 -248.527033 
L 413.202105 -252.143757 
L 420.44323 -255.747531 
L 427.684354 -259.338298 
L 427.684354 -304.45321 
L 427.684354 -304.45321 
L 420.44323 -299.767643 
L 413.202105 -295.081372 
L 405.960981 -290.394291 
L 398.719857 -285.706297 
L 391.478732 -281.01729 
L 384.237608 -276.327174 
L 376.996484 -271.635858 
L 369.755359 -266.943259 
L 362.514235 -262.2493 
L 355.273111 -257.553917 
L 348.031986 -252.857055 
L 340.790862 -248.158676 
L 333.549738 -243.458759 
L 326.308613 -238.757303 
L 319.067489 -234.054332 
L 311.826365 -229.349902 
L 304.58524 -224.6441 
L 297.344116 -219.93706 
L 290.102992 -215.228961 
L 282.861867 -210.520043 
L 275.620743 -205.810614 
L 268.379619 -201.101065 
L 261.138494 -196.391883 
L 253.89737 -191.683667 
L 246.656246 -186.977152 
L 239.415121 -182.273228 
L 232.173997 -177.572964 
L 224.932873 -172.877643 
L 217.691748 -168.188783 
L 210.450624 -163.508174 
L 203.2095 -158.837905 
L 195.968375 -154.180385 
L 188.727251 -149.538356 
L 181.486126 -144.914886 
L 174.245002 -140.313334 
L 167.003878 -135.73728 
L 159.762753 -131.190414 
L 152.521629 -126.676377 
L 145.280505 -122.198575 
L 138.03938 -117.759973 
L 130.798256 -113.362911 
L 123.557132 -109.008972 
L 116.316007 -104.698926 
L 109.074883 -100.432782 
L 101.833759 -96.209914 
L 94.592634 -92.029274 
L 87.35151 -87.88965 
L 80.110386 -83.790007 
L 72.869261 -79.730123 
z
" style="stroke: #6a5acd; stroke-opacity: 0.4"/>
    </defs>
    <g clip-path="url(#pf63ed01997)">
     <use xlink:href="#m6e4f68877b" x="0" y="342.375771" style="fill: #6a5acd; fill-opacity: 0.4; stroke: #6a5acd; stroke-opacity: 0.4"/>
    </g>
   </g>
   <g id="matplotlib.axis_1">
    <g id="xtick_1">
     <g id="line2d_1">
      <defs>
       <path id="m8195a84051" d="M 0 0 
L 0 3.5 
" style="stroke: #000000; stroke-width: 0.8"/>
      </defs>
      <g>
       <use xlink:href="#m8195a84051" x="72.483847" y="302.497646" style="stroke: #000000; stroke-width: 0.8"/>
      </g>
     </g>
     <g id="text_1">
      <!-- 0.00 -->
      <g transform="translate(61.351034 317.096083) scale(0.1 -0.1)">
       <defs>
        <path id="DejaVuSans-30" d="M 2034 4250 
Q 1547 4250 1301 3770 
Q 1056 3291 1056 2328 
Q 1056 1369 1301 889 
Q 1547 409 2034 409 
Q 2525 409 2770 889 
Q 3016 1369 3016 2328 
Q 3016 3291 2770 3770 
Q 2525 4250 2034 4250 
z
M 2034 4750 
Q 2819 4750 3233 4129 
Q 3647 3509 3647 2328 
Q 3647 1150 3233 529 
Q 2819 -91 2034 -91 
Q 1250 -91 836 529 
Q 422 1150 422 2328 
Q 422 3509 836 4129 
Q 1250 4750 2034 4750 
z
" transform="scale(0.015625)"/>
        <path id="DejaVuSans-2e" d="M 684 794 
L 1344 794 
L 1344 0 
L 684 0 
L 684 794 
z
" transform="scale(0.015625)"/>
       </defs>
       <use xlink:href="#DejaVuSans-30"/>
       <use xlink:href="#DejaVuSans-2e" transform="translate(63.623047 0)"/>
       <use xlink:href="#DejaVuSans-30" transform="translate(95.410156 0)"/>
       <use xlink:href="#DejaVuSans-30" transform="translate(159.033203 0)"/>
      </g>
     </g>
    </g>
    <g id="xtick_2">
     <g id="line2d_2">
      <g>
       <use xlink:href="#m8195a84051" x="149.566772" y="302.497646" style="stroke: #000000; stroke-width: 0.8"/>
      </g>
     </g>
     <g id="text_2">
      <!-- 0.02 -->
      <g transform="translate(138.43396 317.096083) scale(0.1 -0.1)">
       <defs>
        <path id="DejaVuSans-32" d="M 1228 531 
L 3431 531 
L 3431 0 
L 469 0 
L 469 531 
Q 828 903 1448 1529 
Q 2069 2156 2228 2338 
Q 2531 2678 2651 2914 
Q 2772 3150 2772 3378 
Q 2772 3750 2511 3984 
Q 2250 4219 1831 4219 
Q 1534 4219 1204 4116 
Q 875 4013 500 3803 
L 500 4441 
Q 881 4594 1212 4672 
Q 1544 4750 1819 4750 
Q 2544 4750 2975 4387 
Q 3406 4025 3406 3419 
Q 3406 3131 3298 2873 
Q 3191 2616 2906 2266 
Q 2828 2175 2409 1742 
Q 1991 1309 1228 531 
z
" transform="scale(0.015625)"/>
       </defs>
       <use xlink:href="#DejaVuSans-30"/>
       <use xlink:href="#DejaVuSans-2e" transform="translate(63.623047 0)"/>
       <use xlink:href="#DejaVuSans-30" transform="translate(95.410156 0)"/>
       <use xlink:href="#DejaVuSans-32" transform="translate(159.033203 0)"/>
      </g>
     </g>
    </g>
    <g id="xtick_3">
     <g id="line2d_3">
      <g>
       <use xlink:href="#m8195a84051" x="226.649698" y="302.497646" style="stroke: #000000; stroke-width: 0.8"/>
      </g>
     </g>
     <g id="text_3">
      <!-- 0.04 -->
      <g transform="translate(215.516886 317.096083) scale(0.1 -0.1)">
       <defs>
        <path id="DejaVuSans-34" d="M 2419 4116 
L 825 1625 
L 2419 1625 
L 2419 4116 
z
M 2253 4666 
L 3047 4666 
L 3047 1625 
L 3713 1625 
L 3713 1100 
L 3047 1100 
L 3047 0 
L 2419 0 
L 2419 1100 
L 313 1100 
L 313 1709 
L 2253 4666 
z
" transform="scale(0.015625)"/>
       </defs>
       <use xlink:href="#DejaVuSans-30"/>
       <use xlink:href="#DejaVuSans-2e" transform="translate(63.623047 0)"/>
       <use xlink:href="#DejaVuSans-30" transform="translate(95.410156 0)"/>
       <use xlink:href="#DejaVuSans-34" transform="translate(159.033203 0)"/>
      </g>
     </g>
    </g>
    <g id="xtick_4">
     <g id="line2d_4">
      <g>
       <use xlink:href="#m8195a84051" x="303.732624" y="302.497646" style="stroke: #000000; stroke-width: 0.8"/>
      </g>
     </g>
     <g id="text_4">
      <!-- 0.06 -->
      <g transform="translate(292.599811 317.096083) scale(0.1 -0.1)">
       <defs>
        <path id="DejaVuSans-36" d="M 2113 2584 
Q 1688 2584 1439 2293 
Q 1191 2003 1191 1497 
Q 1191 994 1439 701 
Q 1688 409 2113 409 
Q 2538 409 2786 701 
Q 3034 994 3034 1497 
Q 3034 2003 2786 2293 
Q 2538 2584 2113 2584 
z
M 3366 4563 
L 3366 3988 
Q 3128 4100 2886 4159 
Q 2644 4219 2406 4219 
Q 1781 4219 1451 3797 
Q 1122 3375 1075 2522 
Q 1259 2794 1537 2939 
Q 1816 3084 2150 3084 
Q 2853 3084 3261 2657 
Q 3669 2231 3669 1497 
Q 3669 778 3244 343 
Q 2819 -91 2113 -91 
Q 1303 -91 875 529 
Q 447 1150 447 2328 
Q 447 3434 972 4092 
Q 1497 4750 2381 4750 
Q 2619 4750 2861 4703 
Q 3103 4656 3366 4563 
z
" transform="scale(0.015625)"/>
       </defs>
       <use xlink:href="#DejaVuSans-30"/>
       <use xlink:href="#DejaVuSans-2e" transform="translate(63.623047 0)"/>
       <use xlink:href="#DejaVuSans-30" transform="translate(95.410156 0)"/>
       <use xlink:href="#DejaVuSans-36" transform="translate(159.033203 0)"/>
      </g>
     </g>
    </g>
    <g id="xtick_5">
     <g id="line2d_5">
      <g>
       <use xlink:href="#m8195a84051" x="380.815549" y="302.497646" style="stroke: #000000; stroke-width: 0.8"/>
      </g>
     </g>
     <g id="text_5">
      <!-- 0.08 -->
      <g transform="translate(369.682737 317.096083) scale(0.1 -0.1)">
       <defs>
        <path id="DejaVuSans-38" d="M 2034 2216 
Q 1584 2216 1326 1975 
Q 1069 1734 1069 1313 
Q 1069 891 1326 650 
Q 1584 409 2034 409 
Q 2484 409 2743 651 
Q 3003 894 3003 1313 
Q 3003 1734 2745 1975 
Q 2488 2216 2034 2216 
z
M 1403 2484 
Q 997 2584 770 2862 
Q 544 3141 544 3541 
Q 544 4100 942 4425 
Q 1341 4750 2034 4750 
Q 2731 4750 3128 4425 
Q 3525 4100 3525 3541 
Q 3525 3141 3298 2862 
Q 3072 2584 2669 2484 
Q 3125 2378 3379 2068 
Q 3634 1759 3634 1313 
Q 3634 634 3220 271 
Q 2806 -91 2034 -91 
Q 1263 -91 848 271 
Q 434 634 434 1313 
Q 434 1759 690 2068 
Q 947 2378 1403 2484 
z
M 1172 3481 
Q 1172 3119 1398 2916 
Q 1625 2713 2034 2713 
Q 2441 2713 2670 2916 
Q 2900 3119 2900 3481 
Q 2900 3844 2670 4047 
Q 2441 4250 2034 4250 
Q 1625 4250 1398 4047 
Q 1172 3844 1172 3481 
z
" transform="scale(0.015625)"/>
       </defs>
       <use xlink:href="#DejaVuSans-30"/>
       <use xlink:href="#DejaVuSans-2e" transform="translate(63.623047 0)"/>
       <use xlink:href="#DejaVuSans-30" transform="translate(95.410156 0)"/>
       <use xlink:href="#DejaVuSans-38" transform="translate(159.033203 0)"/>
      </g>
     </g>
    </g>
    <g id="text_6">
     <!-- $l^2_F = m_\pi^2 / (4 \pi F_\pi)^2$ -->
     <g transform="translate(213.855625 332.275771) scale(0.1 -0.1)">
      <defs>
       <path id="DejaVuSans-Oblique-6c" d="M 1172 4863 
L 1747 4863 
L 800 0 
L 225 0 
L 1172 4863 
z
" transform="scale(0.015625)"/>
       <path id="DejaVuSans-Oblique-46" d="M 1081 4666 
L 3756 4666 
L 3653 4134 
L 1606 4134 
L 1338 2759 
L 3188 2759 
L 3084 2228 
L 1234 2228 
L 800 0 
L 172 0 
L 1081 4666 
z
" transform="scale(0.015625)"/>
       <path id="DejaVuSans-3d" d="M 678 2906 
L 4684 2906 
L 4684 2381 
L 678 2381 
L 678 2906 
z
M 678 1631 
L 4684 1631 
L 4684 1100 
L 678 1100 
L 678 1631 
z
" transform="scale(0.015625)"/>
       <path id="DejaVuSans-Oblique-6d" d="M 5747 2113 
L 5338 0 
L 4763 0 
L 5166 2094 
Q 5191 2228 5203 2325 
Q 5216 2422 5216 2491 
Q 5216 2772 5059 2928 
Q 4903 3084 4622 3084 
Q 4203 3084 3875 2770 
Q 3547 2456 3450 1953 
L 3066 0 
L 2491 0 
L 2900 2094 
Q 2925 2209 2937 2307 
Q 2950 2406 2950 2484 
Q 2950 2769 2794 2926 
Q 2638 3084 2363 3084 
Q 1938 3084 1609 2770 
Q 1281 2456 1184 1953 
L 800 0 
L 225 0 
L 909 3500 
L 1484 3500 
L 1375 2956 
Q 1609 3263 1923 3423 
Q 2238 3584 2597 3584 
Q 2978 3584 3223 3384 
Q 3469 3184 3519 2828 
Q 3781 3197 4126 3390 
Q 4472 3584 4856 3584 
Q 5306 3584 5551 3325 
Q 5797 3066 5797 2591 
Q 5797 2488 5784 2364 
Q 5772 2241 5747 2113 
z
" transform="scale(0.015625)"/>
       <path id="DejaVuSans-Oblique-3c0" d="M 584 3500 
L 3938 3500 
L 3825 2925 
L 3384 2925 
L 2966 775 
Q 2922 550 2981 450 
Q 3038 353 3209 353 
Q 3256 353 3325 363 
Q 3397 369 3419 372 
L 3338 -44 
Q 3222 -84 3103 -103 
Q 2981 -122 2866 -122 
Q 2491 -122 2388 81 
Q 2284 288 2391 838 
L 2797 2925 
L 1506 2925 
L 938 0 
L 350 0 
L 919 2925 
L 472 2925 
L 584 3500 
z
" transform="scale(0.015625)"/>
       <path id="DejaVuSans-2f" d="M 1625 4666 
L 2156 4666 
L 531 -594 
L 0 -594 
L 1625 4666 
z
" transform="scale(0.015625)"/>
       <path id="DejaVuSans-28" d="M 1984 4856 
Q 1566 4138 1362 3434 
Q 1159 2731 1159 2009 
Q 1159 1288 1364 580 
Q 1569 -128 1984 -844 
L 1484 -844 
Q 1016 -109 783 600 
Q 550 1309 550 2009 
Q 550 2706 781 3412 
Q 1013 4119 1484 4856 
L 1984 4856 
z
" transform="scale(0.015625)"/>
       <path id="DejaVuSans-29" d="M 513 4856 
L 1013 4856 
Q 1481 4119 1714 3412 
Q 1947 2706 1947 2009 
Q 1947 1309 1714 600 
Q 1481 -109 1013 -844 
L 513 -844 
Q 928 -128 1133 580 
Q 1338 1288 1338 2009 
Q 1338 2731 1133 3434 
Q 928 4138 513 4856 
z
" transform="scale(0.015625)"/>
      </defs>
      <use xlink:href="#DejaVuSans-Oblique-6c" transform="translate(0 0.765625)"/>
      <use xlink:href="#DejaVuSans-32" transform="translate(35.230911 39.046875) scale(0.7)"/>
      <use xlink:href="#DejaVuSans-Oblique-46" transform="translate(27.783203 -26.578125) scale(0.7)"/>
      <use xlink:href="#DejaVuSans-3d" transform="translate(101.983841 0.765625)"/>
      <use xlink:href="#DejaVuSans-Oblique-6d" transform="translate(205.255326 0.765625)"/>
      <use xlink:href="#DejaVuSans-32" transform="translate(307.317331 39.046875) scale(0.7)"/>
      <use xlink:href="#DejaVuSans-Oblique-3c0" transform="translate(302.667435 -26.578125) scale(0.7)"/>
      <use xlink:href="#DejaVuSans-2f" transform="translate(354.587839 0.765625)"/>
      <use xlink:href="#DejaVuSans-28" transform="translate(388.279245 0.765625)"/>
      <use xlink:href="#DejaVuSans-34" transform="translate(427.292917 0.765625)"/>
      <use xlink:href="#DejaVuSans-Oblique-3c0" transform="translate(490.915964 0.765625)"/>
      <use xlink:href="#DejaVuSans-Oblique-46" transform="translate(551.121042 0.765625)"/>
      <use xlink:href="#DejaVuSans-Oblique-3c0" transform="translate(608.640573 -15.640625) scale(0.7)"/>
      <use xlink:href="#DejaVuSans-29" transform="translate(653.518503 0.765625)"/>
      <use xlink:href="#DejaVuSans-32" transform="translate(693.489206 39.046875) scale(0.7)"/>
     </g>
    </g>
   </g>
   <g id="matplotlib.axis_2">
    <g id="ytick_1">
     <g id="line2d_6">
      <defs>
       <path id="m51daf19338" d="M 0 0 
L -3.5 0 
" style="stroke: #000000; stroke-width: 0.8"/>
      </defs>
      <g>
       <use xlink:href="#m51daf19338" x="55.065625" y="278.656162" style="stroke: #000000; stroke-width: 0.8"/>
      </g>
     </g>
     <g id="text_7">
      <!-- 1.18 -->
      <g transform="translate(25.8 282.455381) scale(0.1 -0.1)">
       <defs>
        <path id="DejaVuSans-31" d="M 794 531 
L 1825 531 
L 1825 4091 
L 703 3866 
L 703 4441 
L 1819 4666 
L 2450 4666 
L 2450 531 
L 3481 531 
L 3481 0 
L 794 0 
L 794 531 
z
" transform="scale(0.015625)"/>
       </defs>
       <use xlink:href="#DejaVuSans-31"/>
       <use xlink:href="#DejaVuSans-2e" transform="translate(63.623047 0)"/>
       <use xlink:href="#DejaVuSans-31" transform="translate(95.410156 0)"/>
       <use xlink:href="#DejaVuSans-38" transform="translate(159.033203 0)"/>
      </g>
     </g>
    </g>
    <g id="ytick_2">
     <g id="line2d_7">
      <g>
       <use xlink:href="#m51daf19338" x="55.065625" y="245.199044" style="stroke: #000000; stroke-width: 0.8"/>
      </g>
     </g>
     <g id="text_8">
      <!-- 1.20 -->
      <g transform="translate(25.8 248.998263) scale(0.1 -0.1)">
       <use xlink:href="#DejaVuSans-31"/>
       <use xlink:href="#DejaVuSans-2e" transform="translate(63.623047 0)"/>
       <use xlink:href="#DejaVuSans-32" transform="translate(95.410156 0)"/>
       <use xlink:href="#DejaVuSans-30" transform="translate(159.033203 0)"/>
      </g>
     </g>
    </g>
    <g id="ytick_3">
     <g id="line2d_8">
      <g>
       <use xlink:href="#m51daf19338" x="55.065625" y="211.741926" style="stroke: #000000; stroke-width: 0.8"/>
      </g>
     </g>
     <g id="text_9">
      <!-- 1.22 -->
      <g transform="translate(25.8 215.541145) scale(0.1 -0.1)">
       <use xlink:href="#DejaVuSans-31"/>
       <use xlink:href="#DejaVuSans-2e" transform="translate(63.623047 0)"/>
       <use xlink:href="#DejaVuSans-32" transform="translate(95.410156 0)"/>
       <use xlink:href="#DejaVuSans-32" transform="translate(159.033203 0)"/>
      </g>
     </g>
    </g>
    <g id="ytick_4">
     <g id="line2d_9">
      <g>
       <use xlink:href="#m51daf19338" x="55.065625" y="178.284808" style="stroke: #000000; stroke-width: 0.8"/>
      </g>
     </g>
     <g id="text_10">
      <!-- 1.24 -->
      <g transform="translate(25.8 182.084027) scale(0.1 -0.1)">
       <use xlink:href="#DejaVuSans-31"/>
       <use xlink:href="#DejaVuSans-2e" transform="translate(63.623047 0)"/>
       <use xlink:href="#DejaVuSans-32" transform="translate(95.410156 0)"/>
       <use xlink:href="#DejaVuSans-34" transform="translate(159.033203 0)"/>
      </g>
     </g>
    </g>
    <g id="ytick_5">
     <g id="line2d_10">
      <g>
       <use xlink:href="#m51daf19338" x="55.065625" y="144.82769" style="stroke: #000000; stroke-width: 0.8"/>
      </g>
     </g>
     <g id="text_11">
      <!-- 1.26 -->
      <g transform="translate(25.8 148.626909) scale(0.1 -0.1)">
       <use xlink:href="#DejaVuSans-31"/>
       <use xlink:href="#DejaVuSans-2e" transform="translate(63.623047 0)"/>
       <use xlink:href="#DejaVuSans-32" transform="translate(95.410156 0)"/>
       <use xlink:href="#DejaVuSans-36" transform="translate(159.033203 0)"/>
      </g>
     </g>
    </g>
    <g id="ytick_6">
     <g id="line2d_11">
      <g>
       <use xlink:href="#m51daf19338" x="55.065625" y="111.370572" style="stroke: #000000; stroke-width: 0.8"/>
      </g>
     </g>
     <g id="text_12">
      <!-- 1.28 -->
      <g transform="translate(25.8 115.169791) scale(0.1 -0.1)">
       <use xlink:href="#DejaVuSans-31"/>
       <use xlink:href="#DejaVuSans-2e" transform="translate(63.623047 0)"/>
       <use xlink:href="#DejaVuSans-32" transform="translate(95.410156 0)"/>
       <use xlink:href="#DejaVuSans-38" transform="translate(159.033203 0)"/>
      </g>
     </g>
    </g>
    <g id="ytick_7">
     <g id="line2d_12">
      <g>
       <use xlink:href="#m51daf19338" x="55.065625" y="77.913455" style="stroke: #000000; stroke-width: 0.8"/>
      </g>
     </g>
     <g id="text_13">
      <!-- 1.30 -->
      <g transform="translate(25.8 81.712673) scale(0.1 -0.1)">
       <defs>
        <path id="DejaVuSans-33" d="M 2597 2516 
Q 3050 2419 3304 2112 
Q 3559 1806 3559 1356 
Q 3559 666 3084 287 
Q 2609 -91 1734 -91 
Q 1441 -91 1130 -33 
Q 819 25 488 141 
L 488 750 
Q 750 597 1062 519 
Q 1375 441 1716 441 
Q 2309 441 2620 675 
Q 2931 909 2931 1356 
Q 2931 1769 2642 2001 
Q 2353 2234 1838 2234 
L 1294 2234 
L 1294 2753 
L 1863 2753 
Q 2328 2753 2575 2939 
Q 2822 3125 2822 3475 
Q 2822 3834 2567 4026 
Q 2313 4219 1838 4219 
Q 1578 4219 1281 4162 
Q 984 4106 628 3988 
L 628 4550 
Q 988 4650 1302 4700 
Q 1616 4750 1894 4750 
Q 2613 4750 3031 4423 
Q 3450 4097 3450 3541 
Q 3450 3153 3228 2886 
Q 3006 2619 2597 2516 
z
" transform="scale(0.015625)"/>
       </defs>
       <use xlink:href="#DejaVuSans-31"/>
       <use xlink:href="#DejaVuSans-2e" transform="translate(63.623047 0)"/>
       <use xlink:href="#DejaVuSans-33" transform="translate(95.410156 0)"/>
       <use xlink:href="#DejaVuSans-30" transform="translate(159.033203 0)"/>
      </g>
     </g>
    </g>
    <g id="ytick_8">
     <g id="line2d_13">
      <g>
       <use xlink:href="#m51daf19338" x="55.065625" y="44.456337" style="stroke: #000000; stroke-width: 0.8"/>
      </g>
     </g>
     <g id="text_14">
      <!-- 1.32 -->
      <g transform="translate(25.8 48.255555) scale(0.1 -0.1)">
       <use xlink:href="#DejaVuSans-31"/>
       <use xlink:href="#DejaVuSans-2e" transform="translate(63.623047 0)"/>
       <use xlink:href="#DejaVuSans-33" transform="translate(95.410156 0)"/>
       <use xlink:href="#DejaVuSans-32" transform="translate(159.033203 0)"/>
      </g>
     </g>
    </g>
    <g id="ytick_9">
     <g id="line2d_14">
      <g>
       <use xlink:href="#m51daf19338" x="55.065625" y="10.999219" style="stroke: #000000; stroke-width: 0.8"/>
      </g>
     </g>
     <g id="text_15">
      <!-- 1.34 -->
      <g transform="translate(25.8 14.798438) scale(0.1 -0.1)">
       <use xlink:href="#DejaVuSans-31"/>
       <use xlink:href="#DejaVuSans-2e" transform="translate(63.623047 0)"/>
       <use xlink:href="#DejaVuSans-33" transform="translate(95.410156 0)"/>
       <use xlink:href="#DejaVuSans-34" transform="translate(159.033203 0)"/>
      </g>
     </g>
    </g>
    <g id="text_16">
     <!-- $m_\Omega \sqrt{t_0 / a^2}$ -->
     <g transform="translate(19.720313 180.217646) rotate(-90) scale(0.1 -0.1)">
      <defs>
       <path id="DejaVuSans-3a9" d="M 4647 556 
L 4647 0 
L 2772 0 
L 2772 556 
Q 3325 859 3634 1378 
Q 3944 1897 3944 2528 
Q 3944 3278 3531 3731 
Q 3119 4184 2444 4184 
Q 1769 4184 1355 3729 
Q 941 3275 941 2528 
Q 941 1897 1250 1378 
Q 1563 859 2119 556 
L 2119 0 
L 244 0 
L 244 556 
L 1241 556 
Q 747 991 519 1456 
Q 294 1922 294 2497 
Q 294 3491 894 4106 
Q 1491 4722 2444 4722 
Q 3391 4722 3994 4106 
Q 4594 3494 4594 2528 
Q 4594 1922 4372 1459 
Q 4150 997 3647 556 
L 4647 556 
z
" transform="scale(0.015625)"/>
       <path id="STIXSizeOneSym-Regular-221a" d="M 6970 9933 
L 3373 -1888 
L 3104 -1888 
L 1626 2918 
Q 1555 3149 1465 3251 
Q 1376 3354 1229 3354 
Q 1011 3354 794 3181 
L 717 3309 
L 1766 4115 
L 1926 4115 
L 3379 -602 
L 3405 -602 
L 6605 9933 
L 6970 9933 
z
" transform="scale(0.015625)"/>
       <path id="DejaVuSans-Oblique-74" d="M 2706 3500 
L 2619 3053 
L 1472 3053 
L 1100 1153 
Q 1081 1047 1072 975 
Q 1063 903 1063 863 
Q 1063 663 1183 572 
Q 1303 481 1569 481 
L 2150 481 
L 2053 0 
L 1503 0 
Q 991 0 739 200 
Q 488 400 488 806 
Q 488 878 497 964 
Q 506 1050 525 1153 
L 897 3053 
L 409 3053 
L 500 3500 
L 978 3500 
L 1172 4494 
L 1747 4494 
L 1556 3500 
L 2706 3500 
z
" transform="scale(0.015625)"/>
       <path id="DejaVuSans-Oblique-61" d="M 3438 1997 
L 3047 0 
L 2472 0 
L 2578 531 
Q 2325 219 2001 64 
Q 1678 -91 1281 -91 
Q 834 -91 548 182 
Q 263 456 263 884 
Q 263 1497 752 1853 
Q 1241 2209 2100 2209 
L 2900 2209 
L 2931 2363 
Q 2938 2388 2941 2417 
Q 2944 2447 2944 2509 
Q 2944 2788 2717 2942 
Q 2491 3097 2081 3097 
Q 1800 3097 1504 3025 
Q 1209 2953 897 2809 
L 997 3341 
Q 1322 3463 1633 3523 
Q 1944 3584 2234 3584 
Q 2853 3584 3176 3315 
Q 3500 3047 3500 2534 
Q 3500 2431 3484 2292 
Q 3469 2153 3438 1997 
z
M 2816 1759 
L 2241 1759 
Q 1534 1759 1195 1570 
Q 856 1381 856 984 
Q 856 709 1029 553 
Q 1203 397 1509 397 
Q 1978 397 2328 733 
Q 2678 1069 2791 1631 
L 2816 1759 
z
" transform="scale(0.015625)"/>
      </defs>
      <use xlink:href="#DejaVuSans-Oblique-6d" transform="translate(0 0.870312)"/>
      <use xlink:href="#DejaVuSans-3a9" transform="translate(97.412109 -15.535937) scale(0.7)"/>
      <use xlink:href="#STIXSizeOneSym-Regular-221a" transform="translate(153.637695 5.59375) scale(0.751941)"/>
      <use xlink:href="#DejaVuSans-Oblique-74" transform="translate(245.676941 0.515625)"/>
      <use xlink:href="#DejaVuSans-30" transform="translate(284.885925 -15.890625) scale(0.7)"/>
      <use xlink:href="#DejaVuSans-2f" transform="translate(332.156433 0.515625)"/>
      <use xlink:href="#DejaVuSans-Oblique-61" transform="translate(365.847839 0.515625)"/>
      <use xlink:href="#DejaVuSans-32" transform="translate(431.777032 38.796875) scale(0.7)"/>
      <path d="M 233.176941 115.5 
L 233.176941 121.75 
L 491.54754 121.75 
L 491.54754 115.5 
L 233.176941 115.5 
z
"/>
     </g>
    </g>
   </g>
   <g id="line2d_15">
    <path d="M 124.721658 302.497646 
L 124.721658 8.737646 
" clip-path="url(#pf63ed01997)" style="fill: none; stroke-dasharray: 5.55,2.4; stroke-dashoffset: 0; stroke: #1f77b4; stroke-width: 1.5"/>
   </g>
   <g id="line2d_16">
    <path d="M 124.721658 302.497646 
L 124.721658 8.737646 
" clip-path="url(#pf63ed01997)" style="fill: none; stroke-dasharray: 5.55,2.4; stroke-dashoffset: 0; stroke: #1f77b4; stroke-width: 1.5"/>
   </g>
   <g id="line2d_17">
    <path d="M 124.721658 302.497646 
L 124.721658 8.737646 
" clip-path="url(#pf63ed01997)" style="fill: none; stroke-dasharray: 5.55,2.4; stroke-dashoffset: 0; stroke: #1f77b4; stroke-width: 1.5"/>
   </g>
   <g id="line2d_18">
    <path d="M 124.721658 302.497646 
L 124.721658 8.737646 
" clip-path="url(#pf63ed01997)" style="fill: none; stroke-dasharray: 5.55,2.4; stroke-dashoffset: 0; stroke: #1f77b4; stroke-width: 1.5"/>
   </g>
   <g id="line2d_19">
    <path d="M 124.721658 302.497646 
L 124.721658 8.737646 
" clip-path="url(#pf63ed01997)" style="fill: none; stroke-dasharray: 5.55,2.4; stroke-dashoffset: 0; stroke: #1f77b4; stroke-width: 1.5"/>
   </g>
   <g id="line2d_20">
    <path d="M 428.941989 106.891133 
L 426.42672 106.893051 
" clip-path="url(#pf63ed01997)" style="fill: none; stroke: #ec5d57; stroke-width: 2; stroke-linecap: square"/>
   </g>
   <g id="line2d_21">
    <path d="M 427.608943 88.26003 
L 427.759765 125.524154 
" clip-path="url(#pf63ed01997)" style="fill: none; stroke: #ec5d57; stroke-width: 2; stroke-linecap: square"/>
   </g>
   <g id="line2d_22">
    <path d="M 362.808307 140.89042 
L 360.648292 140.893254 
" clip-path="url(#pf63ed01997)" style="fill: none; stroke: #ec5d57; stroke-width: 2; stroke-linecap: square"/>
   </g>
   <g id="line2d_23">
    <path d="M 361.629599 126.715913 
L 361.826999 155.067761 
" clip-path="url(#pf63ed01997)" style="fill: none; stroke: #ec5d57; stroke-width: 2; stroke-linecap: square"/>
   </g>
   <g id="line2d_24">
    <path d="M 305.306639 154.870475 
L 303.521227 154.872134 
" clip-path="url(#pf63ed01997)" style="fill: none; stroke: #ec5d57; stroke-width: 2; stroke-linecap: square"/>
   </g>
   <g id="line2d_25">
    <path d="M 304.359717 143.87802 
L 304.468149 165.86459 
" clip-path="url(#pf63ed01997)" style="fill: none; stroke: #ec5d57; stroke-width: 2; stroke-linecap: square"/>
   </g>
   <g id="line2d_26">
    <path d="M 312.981003 156.358614 
L 311.662261 156.359566 
" clip-path="url(#pf63ed01997)" style="fill: none; stroke: #ec5d57; stroke-width: 2; stroke-linecap: square"/>
   </g>
   <g id="line2d_27">
    <path d="M 312.276142 144.482615 
L 312.367123 168.235565 
" clip-path="url(#pf63ed01997)" style="fill: none; stroke: #ec5d57; stroke-width: 2; stroke-linecap: square"/>
   </g>
   <g id="line2d_28">
    <path d="M 198.890389 214.852729 
L 198.045263 214.853848 
" clip-path="url(#pf63ed01997)" style="fill: none; stroke: #ec5d57; stroke-width: 2; stroke-linecap: square"/>
   </g>
   <g id="line2d_29">
    <path d="M 198.429303 209.374902 
L 198.506348 220.331676 
" clip-path="url(#pf63ed01997)" style="fill: none; stroke: #ec5d57; stroke-width: 2; stroke-linecap: square"/>
   </g>
   <g id="line2d_30">
    <path d="M 123.501281 254.991542 
L 123.164342 254.99244 
" clip-path="url(#pf63ed01997)" style="fill: none; stroke: #ec5d57; stroke-width: 2; stroke-linecap: square"/>
   </g>
   <g id="line2d_31">
    <path d="M 123.285976 251.68133 
L 123.379647 258.302652 
" clip-path="url(#pf63ed01997)" style="fill: none; stroke: #ec5d57; stroke-width: 2; stroke-linecap: square"/>
   </g>
   <g id="line2d_32">
    <path d="M 416.249182 93.148301 
L 413.905225 93.149969 
" clip-path="url(#pf63ed01997)" style="fill: none; stroke: #70bf41; stroke-width: 2; stroke-linecap: square"/>
   </g>
   <g id="line2d_33">
    <path d="M 415.007348 74.651416 
L 415.147059 111.646853 
" clip-path="url(#pf63ed01997)" style="fill: none; stroke: #70bf41; stroke-width: 2; stroke-linecap: square"/>
   </g>
   <g id="line2d_34">
    <path d="M 355.511828 135.045217 
L 352.681795 135.05019 
" clip-path="url(#pf63ed01997)" style="fill: none; stroke: #70bf41; stroke-width: 2; stroke-linecap: square"/>
   </g>
   <g id="line2d_35">
    <path d="M 353.955558 119.903832 
L 354.238066 150.191575 
" clip-path="url(#pf63ed01997)" style="fill: none; stroke: #70bf41; stroke-width: 2; stroke-linecap: square"/>
   </g>
   <g id="line2d_36">
    <path d="M 300.928646 156.419082 
L 299.158525 156.421138 
" clip-path="url(#pf63ed01997)" style="fill: none; stroke: #70bf41; stroke-width: 2; stroke-linecap: square"/>
   </g>
   <g id="line2d_37">
    <path d="M 299.957583 142.475595 
L 300.129588 170.364625 
" clip-path="url(#pf63ed01997)" style="fill: none; stroke: #70bf41; stroke-width: 2; stroke-linecap: square"/>
   </g>
   <g id="line2d_38">
    <path d="M 304.056925 152.120848 
L 302.176327 152.123861 
" clip-path="url(#pf63ed01997)" style="fill: none; stroke: #70bf41; stroke-width: 2; stroke-linecap: square"/>
   </g>
   <g id="line2d_39">
    <path d="M 303.005294 139.033792 
L 303.227958 165.210916 
" clip-path="url(#pf63ed01997)" style="fill: none; stroke: #70bf41; stroke-width: 2; stroke-linecap: square"/>
   </g>
   <g id="line2d_40">
    <path d="M 204.161241 220.180813 
L 202.903708 220.180251 
" clip-path="url(#pf63ed01997)" style="fill: none; stroke: #70bf41; stroke-width: 2; stroke-linecap: square"/>
   </g>
   <g id="line2d_41">
    <path d="M 203.556216 210.166997 
L 203.508732 230.194068 
" clip-path="url(#pf63ed01997)" style="fill: none; stroke: #70bf41; stroke-width: 2; stroke-linecap: square"/>
   </g>
   <g id="line2d_42">
    <path d="M 203.628754 202.872821 
L 202.157003 202.877046 
" clip-path="url(#pf63ed01997)" style="fill: none; stroke: #70bf41; stroke-width: 2; stroke-linecap: square"/>
   </g>
   <g id="line2d_43">
    <path d="M 202.775021 195.140546 
L 203.010736 210.609321 
" clip-path="url(#pf63ed01997)" style="fill: none; stroke: #70bf41; stroke-width: 2; stroke-linecap: square"/>
   </g>
   <g id="line2d_44">
    <path d="M 199.822552 204.514713 
L 198.65894 204.516619 
" clip-path="url(#pf63ed01997)" style="fill: none; stroke: #70bf41; stroke-width: 2; stroke-linecap: square"/>
   </g>
   <g id="line2d_45">
    <path d="M 199.169443 196.313421 
L 199.312049 212.717911 
" clip-path="url(#pf63ed01997)" style="fill: none; stroke: #70bf41; stroke-width: 2; stroke-linecap: square"/>
   </g>
   <g id="line2d_46">
    <path d="M 200.796818 208.571907 
L 199.63967 208.573001 
" clip-path="url(#pf63ed01997)" style="fill: none; stroke: #70bf41; stroke-width: 2; stroke-linecap: square"/>
   </g>
   <g id="line2d_47">
    <path d="M 200.151264 195.226334 
L 200.285224 221.918574 
" clip-path="url(#pf63ed01997)" style="fill: none; stroke: #70bf41; stroke-width: 2; stroke-linecap: square"/>
   </g>
   <g id="line2d_48">
    <path d="M 160.5903 220.676294 
L 159.885089 220.677824 
" clip-path="url(#pf63ed01997)" style="fill: none; stroke: #70bf41; stroke-width: 2; stroke-linecap: square"/>
   </g>
   <g id="line2d_49">
    <path d="M 160.165891 214.441565 
L 160.309499 226.912554 
" clip-path="url(#pf63ed01997)" style="fill: none; stroke: #70bf41; stroke-width: 2; stroke-linecap: square"/>
   </g>
   <g id="line2d_50">
    <path d="M 122.358875 253.118755 
L 121.785959 253.119848 
" clip-path="url(#pf63ed01997)" style="fill: none; stroke: #70bf41; stroke-width: 2; stroke-linecap: square"/>
   </g>
   <g id="line2d_51">
    <path d="M 122.019344 247.878828 
L 122.12549 258.359775 
" clip-path="url(#pf63ed01997)" style="fill: none; stroke: #70bf41; stroke-width: 2; stroke-linecap: square"/>
   </g>
   <g id="line2d_52">
    <path d="M 416.081277 70.043549 
L 413.624815 70.044043 
" clip-path="url(#pf63ed01997)" style="fill: none; stroke: #51a7f9; stroke-width: 2; stroke-linecap: square"/>
   </g>
   <g id="line2d_53">
    <path d="M 414.831028 49.420936 
L 414.875065 90.666657 
" clip-path="url(#pf63ed01997)" style="fill: none; stroke: #51a7f9; stroke-width: 2; stroke-linecap: square"/>
   </g>
   <g id="line2d_54">
    <path d="M 353.366378 125.693608 
L 350.938724 125.695121 
" clip-path="url(#pf63ed01997)" style="fill: none; stroke: #51a7f9; stroke-width: 2; stroke-linecap: square"/>
   </g>
   <g id="line2d_55">
    <path d="M 352.092102 107.420242 
L 352.212999 143.968488 
" clip-path="url(#pf63ed01997)" style="fill: none; stroke: #51a7f9; stroke-width: 2; stroke-linecap: square"/>
   </g>
   <g id="line2d_56">
    <path d="M 306.55615 137.553944 
L 304.838947 137.555088 
" clip-path="url(#pf63ed01997)" style="fill: none; stroke: #51a7f9; stroke-width: 2; stroke-linecap: square"/>
   </g>
   <g id="line2d_57">
    <path d="M 305.640624 121.46137 
L 305.754473 153.647662 
" clip-path="url(#pf63ed01997)" style="fill: none; stroke: #51a7f9; stroke-width: 2; stroke-linecap: square"/>
   </g>
   <g id="line2d_58">
    <path d="M 200.446503 204.095405 
L 199.407338 204.096521 
" clip-path="url(#pf63ed01997)" style="fill: none; stroke: #51a7f9; stroke-width: 2; stroke-linecap: square"/>
   </g>
   <g id="line2d_59">
    <path d="M 199.8679 193.74707 
L 199.985941 214.444856 
" clip-path="url(#pf63ed01997)" style="fill: none; stroke: #51a7f9; stroke-width: 2; stroke-linecap: square"/>
   </g>
   <g id="line2d_60">
    <path d="M 124.639221 255.003725 
L 124.071741 255.00471 
" clip-path="url(#pf63ed01997)" style="fill: none; stroke: #51a7f9; stroke-width: 2; stroke-linecap: square"/>
   </g>
   <g id="line2d_61">
    <path d="M 124.290892 247.989769 
L 124.42007 262.018666 
" clip-path="url(#pf63ed01997)" style="fill: none; stroke: #51a7f9; stroke-width: 2; stroke-linecap: square"/>
   </g>
   <g id="line2d_62">
    <path d="M 310.504225 115.738537 
L 307.826023 115.741895 
" clip-path="url(#pf63ed01997)" style="fill: none; stroke: #6a5acd; stroke-width: 2; stroke-linecap: square"/>
   </g>
   <g id="line2d_63">
    <path d="M 309.05806 99.652928 
L 309.272188 131.827504 
" clip-path="url(#pf63ed01997)" style="fill: none; stroke: #6a5acd; stroke-width: 2; stroke-linecap: square"/>
   </g>
   <g id="LineCollection_1"/>
   <g id="LineCollection_2"/>
   <g id="LineCollection_3"/>
   <g id="LineCollection_4"/>
   <g id="LineCollection_5"/>
   <g id="LineCollection_6"/>
   <g id="LineCollection_7"/>
   <g id="LineCollection_8"/>
   <g id="line2d_64"/>
   <g id="line2d_65"/>
   <g id="line2d_66"/>
   <g id="line2d_67"/>
   <g id="patch_3">
    <path d="M 55.065625 302.497646 
L 55.065625 8.737646 
" style="fill: none; stroke: #000000; stroke-width: 0.8; stroke-linejoin: miter; stroke-linecap: square"/>
   </g>
   <g id="patch_4">
    <path d="M 446.745625 302.497646 
L 446.745625 8.737646 
" style="fill: none; stroke: #000000; stroke-width: 0.8; stroke-linejoin: miter; stroke-linecap: square"/>
   </g>
   <g id="patch_5">
    <path d="M 55.065625 302.497646 
L 446.745625 302.497646 
" style="fill: none; stroke: #000000; stroke-width: 0.8; stroke-linejoin: miter; stroke-linecap: square"/>
   </g>
   <g id="patch_6">
    <path d="M 55.065625 8.737646 
L 446.745625 8.737646 
" style="fill: none; stroke: #000000; stroke-width: 0.8; stroke-linejoin: miter; stroke-linecap: square"/>
   </g>
   <g id="line2d_68">
    <path d="M 427.684354 106.892092 
" clip-path="url(#pf63ed01997)" style="fill: none; stroke: #ec5d57; stroke-width: 1.5; stroke-linecap: square"/>
    <defs>
     <path id="m308afb38df" d="M 0 3 
C 0.795609 3 1.55874 2.683901 2.12132 2.12132 
C 2.683901 1.55874 3 0.795609 3 0 
C 3 -0.795609 2.683901 -1.55874 2.12132 -2.12132 
C 1.55874 -2.683901 0.795609 -3 0 -3 
C -0.795609 -3 -1.55874 -2.683901 -2.12132 -2.12132 
C -2.683901 -1.55874 -3 -0.795609 -3 0 
C -3 0.795609 -2.683901 1.55874 -2.12132 2.12132 
C -1.55874 2.683901 -0.795609 3 0 3 
z
" style="stroke: #ffffff"/>
    </defs>
    <g clip-path="url(#pf63ed01997)">
     <use xlink:href="#m308afb38df" x="427.684354" y="106.892092" style="fill: #ec5d57; stroke: #ffffff"/>
    </g>
   </g>
   <g id="line2d_69">
    <path d="M 427.684354 106.892092 
" clip-path="url(#pf63ed01997)" style="fill: none; stroke: #ec5d57; stroke-width: 1.5; stroke-linecap: square"/>
    <g clip-path="url(#pf63ed01997)">
     <use xlink:href="#m308afb38df" x="427.684354" y="106.892092" style="fill: #ec5d57; stroke: #ffffff"/>
    </g>
   </g>
   <g id="line2d_70">
    <path d="M 361.728299 140.891837 
" clip-path="url(#pf63ed01997)" style="fill: none; stroke: #ec5d57; stroke-width: 1.5; stroke-linecap: square"/>
    <g clip-path="url(#pf63ed01997)">
     <use xlink:href="#m308afb38df" x="361.728299" y="140.891837" style="fill: #ec5d57; stroke: #ffffff"/>
    </g>
   </g>
   <g id="line2d_71">
    <path d="M 361.728299 140.891837 
" clip-path="url(#pf63ed01997)" style="fill: none; stroke: #ec5d57; stroke-width: 1.5; stroke-linecap: square"/>
    <g clip-path="url(#pf63ed01997)">
     <use xlink:href="#m308afb38df" x="361.728299" y="140.891837" style="fill: #ec5d57; stroke: #ffffff"/>
    </g>
   </g>
   <g id="line2d_72">
    <path d="M 304.413933 154.871305 
" clip-path="url(#pf63ed01997)" style="fill: none; stroke: #ec5d57; stroke-width: 1.5; stroke-linecap: square"/>
    <g clip-path="url(#pf63ed01997)">
     <use xlink:href="#m308afb38df" x="304.413933" y="154.871305" style="fill: #ec5d57; stroke: #ffffff"/>
    </g>
   </g>
   <g id="line2d_73">
    <path d="M 304.413933 154.871305 
" clip-path="url(#pf63ed01997)" style="fill: none; stroke: #ec5d57; stroke-width: 1.5; stroke-linecap: square"/>
    <g clip-path="url(#pf63ed01997)">
     <use xlink:href="#m308afb38df" x="304.413933" y="154.871305" style="fill: #ec5d57; stroke: #ffffff"/>
    </g>
   </g>
   <g id="line2d_74">
    <path d="M 312.321632 156.35909 
" clip-path="url(#pf63ed01997)" style="fill: none; stroke: #ec5d57; stroke-width: 1.5; stroke-linecap: square"/>
    <g clip-path="url(#pf63ed01997)">
     <use xlink:href="#m308afb38df" x="312.321632" y="156.35909" style="fill: #ec5d57; stroke: #ffffff"/>
    </g>
   </g>
   <g id="line2d_75">
    <path d="M 312.321632 156.35909 
" clip-path="url(#pf63ed01997)" style="fill: none; stroke: #ec5d57; stroke-width: 1.5; stroke-linecap: square"/>
    <g clip-path="url(#pf63ed01997)">
     <use xlink:href="#m308afb38df" x="312.321632" y="156.35909" style="fill: #ec5d57; stroke: #ffffff"/>
    </g>
   </g>
   <g id="line2d_76">
    <path d="M 198.467826 214.853289 
" clip-path="url(#pf63ed01997)" style="fill: none; stroke: #ec5d57; stroke-width: 1.5; stroke-linecap: square"/>
    <g clip-path="url(#pf63ed01997)">
     <use xlink:href="#m308afb38df" x="198.467826" y="214.853289" style="fill: #ec5d57; stroke: #ffffff"/>
    </g>
   </g>
   <g id="line2d_77">
    <path d="M 198.467826 214.853289 
" clip-path="url(#pf63ed01997)" style="fill: none; stroke: #ec5d57; stroke-width: 1.5; stroke-linecap: square"/>
    <g clip-path="url(#pf63ed01997)">
     <use xlink:href="#m308afb38df" x="198.467826" y="214.853289" style="fill: #ec5d57; stroke: #ffffff"/>
    </g>
   </g>
   <g id="line2d_78">
    <path d="M 123.332812 254.991991 
" clip-path="url(#pf63ed01997)" style="fill: none; stroke: #ec5d57; stroke-width: 1.5; stroke-linecap: square"/>
    <g clip-path="url(#pf63ed01997)">
     <use xlink:href="#m308afb38df" x="123.332812" y="254.991991" style="fill: #ec5d57; stroke: #ffffff"/>
    </g>
   </g>
   <g id="line2d_79">
    <path d="M 123.332812 254.991991 
" clip-path="url(#pf63ed01997)" style="fill: none; stroke: #ec5d57; stroke-width: 1.5; stroke-linecap: square"/>
    <g clip-path="url(#pf63ed01997)">
     <use xlink:href="#m308afb38df" x="123.332812" y="254.991991" style="fill: #ec5d57; stroke: #ffffff"/>
    </g>
   </g>
   <g id="line2d_80">
    <path d="M 415.077204 93.149135 
" clip-path="url(#pf63ed01997)" style="fill: none; stroke: #70bf41; stroke-width: 1.5; stroke-linecap: square"/>
    <defs>
     <path id="m1d03aed936" d="M 0 3 
C 0.795609 3 1.55874 2.683901 2.12132 2.12132 
C 2.683901 1.55874 3 0.795609 3 0 
C 3 -0.795609 2.683901 -1.55874 2.12132 -2.12132 
C 1.55874 -2.683901 0.795609 -3 0 -3 
C -0.795609 -3 -1.55874 -2.683901 -2.12132 -2.12132 
C -2.683901 -1.55874 -3 -0.795609 -3 0 
C -3 0.795609 -2.683901 1.55874 -2.12132 2.12132 
C -1.55874 2.683901 -0.795609 3 0 3 
z
" style="stroke: #ffffff"/>
    </defs>
    <g clip-path="url(#pf63ed01997)">
     <use xlink:href="#m1d03aed936" x="415.077204" y="93.149135" style="fill: #70bf41; stroke: #ffffff"/>
    </g>
   </g>
   <g id="line2d_81">
    <path d="M 415.077204 93.149135 
" clip-path="url(#pf63ed01997)" style="fill: none; stroke: #70bf41; stroke-width: 1.5; stroke-linecap: square"/>
    <g clip-path="url(#pf63ed01997)">
     <use xlink:href="#m1d03aed936" x="415.077204" y="93.149135" style="fill: #70bf41; stroke: #ffffff"/>
    </g>
   </g>
   <g id="line2d_82">
    <path d="M 354.096812 135.047703 
" clip-path="url(#pf63ed01997)" style="fill: none; stroke: #70bf41; stroke-width: 1.5; stroke-linecap: square"/>
    <g clip-path="url(#pf63ed01997)">
     <use xlink:href="#m1d03aed936" x="354.096812" y="135.047703" style="fill: #70bf41; stroke: #ffffff"/>
    </g>
   </g>
   <g id="line2d_83">
    <path d="M 354.096812 135.047703 
" clip-path="url(#pf63ed01997)" style="fill: none; stroke: #70bf41; stroke-width: 1.5; stroke-linecap: square"/>
    <g clip-path="url(#pf63ed01997)">
     <use xlink:href="#m1d03aed936" x="354.096812" y="135.047703" style="fill: #70bf41; stroke: #ffffff"/>
    </g>
   </g>
   <g id="line2d_84">
    <path d="M 300.043585 156.42011 
" clip-path="url(#pf63ed01997)" style="fill: none; stroke: #70bf41; stroke-width: 1.5; stroke-linecap: square"/>
    <g clip-path="url(#pf63ed01997)">
     <use xlink:href="#m1d03aed936" x="300.043585" y="156.42011" style="fill: #70bf41; stroke: #ffffff"/>
    </g>
   </g>
   <g id="line2d_85">
    <path d="M 300.043585 156.42011 
" clip-path="url(#pf63ed01997)" style="fill: none; stroke: #70bf41; stroke-width: 1.5; stroke-linecap: square"/>
    <g clip-path="url(#pf63ed01997)">
     <use xlink:href="#m1d03aed936" x="300.043585" y="156.42011" style="fill: #70bf41; stroke: #ffffff"/>
    </g>
   </g>
   <g id="line2d_86">
    <path d="M 303.116626 152.122354 
" clip-path="url(#pf63ed01997)" style="fill: none; stroke: #70bf41; stroke-width: 1.5; stroke-linecap: square"/>
    <g clip-path="url(#pf63ed01997)">
     <use xlink:href="#m1d03aed936" x="303.116626" y="152.122354" style="fill: #70bf41; stroke: #ffffff"/>
    </g>
   </g>
   <g id="line2d_87">
    <path d="M 303.116626 152.122354 
" clip-path="url(#pf63ed01997)" style="fill: none; stroke: #70bf41; stroke-width: 1.5; stroke-linecap: square"/>
    <g clip-path="url(#pf63ed01997)">
     <use xlink:href="#m1d03aed936" x="303.116626" y="152.122354" style="fill: #70bf41; stroke: #ffffff"/>
    </g>
   </g>
   <g id="line2d_88">
    <path d="M 203.532474 220.180532 
" clip-path="url(#pf63ed01997)" style="fill: none; stroke: #70bf41; stroke-width: 1.5; stroke-linecap: square"/>
    <g clip-path="url(#pf63ed01997)">
     <use xlink:href="#m1d03aed936" x="203.532474" y="220.180532" style="fill: #70bf41; stroke: #ffffff"/>
    </g>
   </g>
   <g id="line2d_89">
    <path d="M 203.532474 220.180532 
" clip-path="url(#pf63ed01997)" style="fill: none; stroke: #70bf41; stroke-width: 1.5; stroke-linecap: square"/>
    <g clip-path="url(#pf63ed01997)">
     <use xlink:href="#m1d03aed936" x="203.532474" y="220.180532" style="fill: #70bf41; stroke: #ffffff"/>
    </g>
   </g>
   <g id="line2d_90">
    <path d="M 202.892879 202.874934 
" clip-path="url(#pf63ed01997)" style="fill: none; stroke: #70bf41; stroke-width: 1.5; stroke-linecap: square"/>
    <g clip-path="url(#pf63ed01997)">
     <use xlink:href="#m1d03aed936" x="202.892879" y="202.874934" style="fill: #70bf41; stroke: #ffffff"/>
    </g>
   </g>
   <g id="line2d_91">
    <path d="M 202.892879 202.874934 
" clip-path="url(#pf63ed01997)" style="fill: none; stroke: #70bf41; stroke-width: 1.5; stroke-linecap: square"/>
    <g clip-path="url(#pf63ed01997)">
     <use xlink:href="#m1d03aed936" x="202.892879" y="202.874934" style="fill: #70bf41; stroke: #ffffff"/>
    </g>
   </g>
   <g id="line2d_92">
    <path d="M 199.240746 204.515666 
" clip-path="url(#pf63ed01997)" style="fill: none; stroke: #70bf41; stroke-width: 1.5; stroke-linecap: square"/>
    <g clip-path="url(#pf63ed01997)">
     <use xlink:href="#m1d03aed936" x="199.240746" y="204.515666" style="fill: #70bf41; stroke: #ffffff"/>
    </g>
   </g>
   <g id="line2d_93">
    <path d="M 199.240746 204.515666 
" clip-path="url(#pf63ed01997)" style="fill: none; stroke: #70bf41; stroke-width: 1.5; stroke-linecap: square"/>
    <g clip-path="url(#pf63ed01997)">
     <use xlink:href="#m1d03aed936" x="199.240746" y="204.515666" style="fill: #70bf41; stroke: #ffffff"/>
    </g>
   </g>
   <g id="line2d_94">
    <path d="M 200.218244 208.572454 
" clip-path="url(#pf63ed01997)" style="fill: none; stroke: #70bf41; stroke-width: 1.5; stroke-linecap: square"/>
    <g clip-path="url(#pf63ed01997)">
     <use xlink:href="#m1d03aed936" x="200.218244" y="208.572454" style="fill: #70bf41; stroke: #ffffff"/>
    </g>
   </g>
   <g id="line2d_95">
    <path d="M 200.218244 208.572454 
" clip-path="url(#pf63ed01997)" style="fill: none; stroke: #70bf41; stroke-width: 1.5; stroke-linecap: square"/>
    <g clip-path="url(#pf63ed01997)">
     <use xlink:href="#m1d03aed936" x="200.218244" y="208.572454" style="fill: #70bf41; stroke: #ffffff"/>
    </g>
   </g>
   <g id="line2d_96">
    <path d="M 160.237695 220.677059 
" clip-path="url(#pf63ed01997)" style="fill: none; stroke: #70bf41; stroke-width: 1.5; stroke-linecap: square"/>
    <g clip-path="url(#pf63ed01997)">
     <use xlink:href="#m1d03aed936" x="160.237695" y="220.677059" style="fill: #70bf41; stroke: #ffffff"/>
    </g>
   </g>
   <g id="line2d_97">
    <path d="M 160.237695 220.677059 
" clip-path="url(#pf63ed01997)" style="fill: none; stroke: #70bf41; stroke-width: 1.5; stroke-linecap: square"/>
    <g clip-path="url(#pf63ed01997)">
     <use xlink:href="#m1d03aed936" x="160.237695" y="220.677059" style="fill: #70bf41; stroke: #ffffff"/>
    </g>
   </g>
   <g id="line2d_98">
    <path d="M 122.072417 253.119301 
" clip-path="url(#pf63ed01997)" style="fill: none; stroke: #70bf41; stroke-width: 1.5; stroke-linecap: square"/>
    <g clip-path="url(#pf63ed01997)">
     <use xlink:href="#m1d03aed936" x="122.072417" y="253.119301" style="fill: #70bf41; stroke: #ffffff"/>
    </g>
   </g>
   <g id="line2d_99">
    <path d="M 122.072417 253.119301 
" clip-path="url(#pf63ed01997)" style="fill: none; stroke: #70bf41; stroke-width: 1.5; stroke-linecap: square"/>
    <g clip-path="url(#pf63ed01997)">
     <use xlink:href="#m1d03aed936" x="122.072417" y="253.119301" style="fill: #70bf41; stroke: #ffffff"/>
    </g>
   </g>
   <g id="line2d_100">
    <path d="M 414.853046 70.043796 
" clip-path="url(#pf63ed01997)" style="fill: none; stroke: #51a7f9; stroke-width: 1.5; stroke-linecap: square"/>
    <defs>
     <path id="mcc9df67d1c" d="M 0 3 
C 0.795609 3 1.55874 2.683901 2.12132 2.12132 
C 2.683901 1.55874 3 0.795609 3 0 
C 3 -0.795609 2.683901 -1.55874 2.12132 -2.12132 
C 1.55874 -2.683901 0.795609 -3 0 -3 
C -0.795609 -3 -1.55874 -2.683901 -2.12132 -2.12132 
C -2.683901 -1.55874 -3 -0.795609 -3 0 
C -3 0.795609 -2.683901 1.55874 -2.12132 2.12132 
C -1.55874 2.683901 -0.795609 3 0 3 
z
" style="stroke: #ffffff"/>
    </defs>
    <g clip-path="url(#pf63ed01997)">
     <use xlink:href="#mcc9df67d1c" x="414.853046" y="70.043796" style="fill: #51a7f9; stroke: #ffffff"/>
    </g>
   </g>
   <g id="line2d_101">
    <path d="M 414.853046 70.043796 
" clip-path="url(#pf63ed01997)" style="fill: none; stroke: #51a7f9; stroke-width: 1.5; stroke-linecap: square"/>
    <g clip-path="url(#pf63ed01997)">
     <use xlink:href="#mcc9df67d1c" x="414.853046" y="70.043796" style="fill: #51a7f9; stroke: #ffffff"/>
    </g>
   </g>
   <g id="line2d_102">
    <path d="M 352.152551 125.694365 
" clip-path="url(#pf63ed01997)" style="fill: none; stroke: #51a7f9; stroke-width: 1.5; stroke-linecap: square"/>
    <g clip-path="url(#pf63ed01997)">
     <use xlink:href="#mcc9df67d1c" x="352.152551" y="125.694365" style="fill: #51a7f9; stroke: #ffffff"/>
    </g>
   </g>
   <g id="line2d_103">
    <path d="M 352.152551 125.694365 
" clip-path="url(#pf63ed01997)" style="fill: none; stroke: #51a7f9; stroke-width: 1.5; stroke-linecap: square"/>
    <g clip-path="url(#pf63ed01997)">
     <use xlink:href="#mcc9df67d1c" x="352.152551" y="125.694365" style="fill: #51a7f9; stroke: #ffffff"/>
    </g>
   </g>
   <g id="line2d_104">
    <path d="M 305.697548 137.554516 
" clip-path="url(#pf63ed01997)" style="fill: none; stroke: #51a7f9; stroke-width: 1.5; stroke-linecap: square"/>
    <g clip-path="url(#pf63ed01997)">
     <use xlink:href="#mcc9df67d1c" x="305.697548" y="137.554516" style="fill: #51a7f9; stroke: #ffffff"/>
    </g>
   </g>
   <g id="line2d_105">
    <path d="M 305.697548 137.554516 
" clip-path="url(#pf63ed01997)" style="fill: none; stroke: #51a7f9; stroke-width: 1.5; stroke-linecap: square"/>
    <g clip-path="url(#pf63ed01997)">
     <use xlink:href="#mcc9df67d1c" x="305.697548" y="137.554516" style="fill: #51a7f9; stroke: #ffffff"/>
    </g>
   </g>
   <g id="line2d_106">
    <path d="M 199.92692 204.095963 
" clip-path="url(#pf63ed01997)" style="fill: none; stroke: #51a7f9; stroke-width: 1.5; stroke-linecap: square"/>
    <g clip-path="url(#pf63ed01997)">
     <use xlink:href="#mcc9df67d1c" x="199.92692" y="204.095963" style="fill: #51a7f9; stroke: #ffffff"/>
    </g>
   </g>
   <g id="line2d_107">
    <path d="M 199.92692 204.095963 
" clip-path="url(#pf63ed01997)" style="fill: none; stroke: #51a7f9; stroke-width: 1.5; stroke-linecap: square"/>
    <g clip-path="url(#pf63ed01997)">
     <use xlink:href="#mcc9df67d1c" x="199.92692" y="204.095963" style="fill: #51a7f9; stroke: #ffffff"/>
    </g>
   </g>
   <g id="line2d_108">
    <path d="M 124.355481 255.004218 
" clip-path="url(#pf63ed01997)" style="fill: none; stroke: #51a7f9; stroke-width: 1.5; stroke-linecap: square"/>
    <g clip-path="url(#pf63ed01997)">
     <use xlink:href="#mcc9df67d1c" x="124.355481" y="255.004218" style="fill: #51a7f9; stroke: #ffffff"/>
    </g>
   </g>
   <g id="line2d_109">
    <path d="M 124.355481 255.004218 
" clip-path="url(#pf63ed01997)" style="fill: none; stroke: #51a7f9; stroke-width: 1.5; stroke-linecap: square"/>
    <g clip-path="url(#pf63ed01997)">
     <use xlink:href="#mcc9df67d1c" x="124.355481" y="255.004218" style="fill: #51a7f9; stroke: #ffffff"/>
    </g>
   </g>
   <g id="line2d_110">
    <path d="M 309.165124 115.740216 
" clip-path="url(#pf63ed01997)" style="fill: none; stroke: #6a5acd; stroke-width: 1.5; stroke-linecap: square"/>
    <defs>
     <path id="me649513352" d="M 0 3 
C 0.795609 3 1.55874 2.683901 2.12132 2.12132 
C 2.683901 1.55874 3 0.795609 3 0 
C 3 -0.795609 2.683901 -1.55874 2.12132 -2.12132 
C 1.55874 -2.683901 0.795609 -3 0 -3 
C -0.795609 -3 -1.55874 -2.683901 -2.12132 -2.12132 
C -2.683901 -1.55874 -3 -0.795609 -3 0 
C -3 0.795609 -2.683901 1.55874 -2.12132 2.12132 
C -1.55874 2.683901 -0.795609 3 0 3 
z
" style="stroke: #ffffff"/>
    </defs>
    <g clip-path="url(#pf63ed01997)">
     <use xlink:href="#me649513352" x="309.165124" y="115.740216" style="fill: #6a5acd; stroke: #ffffff"/>
    </g>
   </g>
   <g id="line2d_111">
    <path d="M 309.165124 115.740216 
" clip-path="url(#pf63ed01997)" style="fill: none; stroke: #6a5acd; stroke-width: 1.5; stroke-linecap: square"/>
    <g clip-path="url(#pf63ed01997)">
     <use xlink:href="#me649513352" x="309.165124" y="115.740216" style="fill: #6a5acd; stroke: #ffffff"/>
    </g>
   </g>
   <g id="legend_1">
    <g id="patch_7">
     <path d="M 243.745625 297.497646 
L 439.745625 297.497646 
Q 441.745625 297.497646 441.745625 295.497646 
L 441.745625 260.097646 
Q 441.745625 258.097646 439.745625 258.097646 
L 243.745625 258.097646 
Q 241.745625 258.097646 241.745625 260.097646 
L 241.745625 295.497646 
Q 241.745625 297.497646 243.745625 297.497646 
z
" style="fill: #ffffff; opacity: 0.8; stroke: #cccccc; stroke-linejoin: miter"/>
    </g>
    <g id="LineCollection_9">
     <path d="M 250.745625 268.997646 
L 260.745625 268.997646 
" style="fill: none; stroke: #6a5acd; stroke-width: 3"/>
    </g>
    <g id="LineCollection_10">
     <path d="M 255.745625 273.997646 
L 255.745625 263.997646 
" style="fill: none; stroke: #6a5acd; stroke-width: 3"/>
    </g>
    <g id="line2d_112">
     <path d="M 245.745625 268.997646 
L 265.745625 268.997646 
" style="fill: none; stroke: #6a5acd; stroke-width: 1.5; stroke-linecap: square"/>
    </g>
    <g id="line2d_113">
     <defs>
      <path id="m28815cb0a7" d="M 0 4 
C 1.060812 4 2.078319 3.578535 2.828427 2.828427 
C 3.578535 2.078319 4 1.060812 4 0 
C 4 -1.060812 3.578535 -2.078319 2.828427 -2.828427 
C 2.078319 -3.578535 1.060812 -4 0 -4 
C -1.060812 -4 -2.078319 -3.578535 -2.828427 -2.828427 
C -3.578535 -2.078319 -4 -1.060812 -4 0 
C -4 1.060812 -3.578535 2.078319 -2.828427 2.828427 
C -2.078319 3.578535 -1.060812 4 0 4 
z
" style="stroke: #ffffff; stroke-width: 2"/>
     </defs>
     <g>
      <use xlink:href="#m28815cb0a7" x="255.745625" y="268.997646" style="fill: #6a5acd; stroke: #ffffff; stroke-width: 2"/>
     </g>
    </g>
    <g id="text_17">
     <!-- $a_{06}(l_F,s_F^{\rm phys})$ -->
     <g transform="translate(273.745625 272.497646) scale(0.1 -0.1)">
      <defs>
       <path id="DejaVuSans-2c" d="M 750 794 
L 1409 794 
L 1409 256 
L 897 -744 
L 494 -744 
L 750 256 
L 750 794 
z
" transform="scale(0.015625)"/>
       <path id="DejaVuSans-Oblique-73" d="M 3200 3397 
L 3091 2853 
Q 2863 2978 2609 3040 
Q 2356 3103 2088 3103 
Q 1634 3103 1373 2948 
Q 1113 2794 1113 2528 
Q 1113 2219 1719 2053 
Q 1766 2041 1788 2034 
L 1972 1978 
Q 2547 1819 2739 1644 
Q 2931 1469 2931 1166 
Q 2931 609 2489 259 
Q 2047 -91 1331 -91 
Q 1053 -91 747 -37 
Q 441 16 72 128 
L 184 722 
Q 500 559 806 475 
Q 1113 391 1394 391 
Q 1816 391 2080 572 
Q 2344 753 2344 1031 
Q 2344 1331 1650 1516 
L 1591 1531 
L 1394 1581 
Q 956 1697 753 1886 
Q 550 2075 550 2369 
Q 550 2928 970 3256 
Q 1391 3584 2113 3584 
Q 2397 3584 2667 3537 
Q 2938 3491 3200 3397 
z
" transform="scale(0.015625)"/>
       <path id="DejaVuSans-70" d="M 1159 525 
L 1159 -1331 
L 581 -1331 
L 581 3500 
L 1159 3500 
L 1159 2969 
Q 1341 3281 1617 3432 
Q 1894 3584 2278 3584 
Q 2916 3584 3314 3078 
Q 3713 2572 3713 1747 
Q 3713 922 3314 415 
Q 2916 -91 2278 -91 
Q 1894 -91 1617 61 
Q 1341 213 1159 525 
z
M 3116 1747 
Q 3116 2381 2855 2742 
Q 2594 3103 2138 3103 
Q 1681 3103 1420 2742 
Q 1159 2381 1159 1747 
Q 1159 1113 1420 752 
Q 1681 391 2138 391 
Q 2594 391 2855 752 
Q 3116 1113 3116 1747 
z
" transform="scale(0.015625)"/>
       <path id="DejaVuSans-68" d="M 3513 2113 
L 3513 0 
L 2938 0 
L 2938 2094 
Q 2938 2591 2744 2837 
Q 2550 3084 2163 3084 
Q 1697 3084 1428 2787 
Q 1159 2491 1159 1978 
L 1159 0 
L 581 0 
L 581 4863 
L 1159 4863 
L 1159 2956 
Q 1366 3272 1645 3428 
Q 1925 3584 2291 3584 
Q 2894 3584 3203 3211 
Q 3513 2838 3513 2113 
z
" transform="scale(0.015625)"/>
       <path id="DejaVuSans-79" d="M 2059 -325 
Q 1816 -950 1584 -1140 
Q 1353 -1331 966 -1331 
L 506 -1331 
L 506 -850 
L 844 -850 
Q 1081 -850 1212 -737 
Q 1344 -625 1503 -206 
L 1606 56 
L 191 3500 
L 800 3500 
L 1894 763 
L 2988 3500 
L 3597 3500 
L 2059 -325 
z
" transform="scale(0.015625)"/>
       <path id="DejaVuSans-73" d="M 2834 3397 
L 2834 2853 
Q 2591 2978 2328 3040 
Q 2066 3103 1784 3103 
Q 1356 3103 1142 2972 
Q 928 2841 928 2578 
Q 928 2378 1081 2264 
Q 1234 2150 1697 2047 
L 1894 2003 
Q 2506 1872 2764 1633 
Q 3022 1394 3022 966 
Q 3022 478 2636 193 
Q 2250 -91 1575 -91 
Q 1294 -91 989 -36 
Q 684 19 347 128 
L 347 722 
Q 666 556 975 473 
Q 1284 391 1588 391 
Q 1994 391 2212 530 
Q 2431 669 2431 922 
Q 2431 1156 2273 1281 
Q 2116 1406 1581 1522 
L 1381 1569 
Q 847 1681 609 1914 
Q 372 2147 372 2553 
Q 372 3047 722 3315 
Q 1072 3584 1716 3584 
Q 2034 3584 2315 3537 
Q 2597 3491 2834 3397 
z
" transform="scale(0.015625)"/>
      </defs>
      <use xlink:href="#DejaVuSans-Oblique-61" transform="translate(0 0.0625)"/>
      <use xlink:href="#DejaVuSans-30" transform="translate(61.279297 -16.34375) scale(0.7)"/>
      <use xlink:href="#DejaVuSans-36" transform="translate(105.81543 -16.34375) scale(0.7)"/>
      <use xlink:href="#DejaVuSans-28" transform="translate(153.085938 0.0625)"/>
      <use xlink:href="#DejaVuSans-Oblique-6c" transform="translate(192.099609 0.0625)"/>
      <use xlink:href="#DejaVuSans-Oblique-46" transform="translate(219.882812 -16.34375) scale(0.7)"/>
      <use xlink:href="#DejaVuSans-2c" transform="translate(262.880859 0.0625)"/>
      <use xlink:href="#DejaVuSans-Oblique-73" transform="translate(314.150391 0.0625)"/>
      <use xlink:href="#DejaVuSans-70" transform="translate(370.899896 50.810938) scale(0.7)"/>
      <use xlink:href="#DejaVuSans-68" transform="translate(415.33349 50.810938) scale(0.7)"/>
      <use xlink:href="#DejaVuSans-79" transform="translate(459.698724 50.810938) scale(0.7)"/>
      <use xlink:href="#DejaVuSans-73" transform="translate(501.124505 50.810938) scale(0.7)"/>
      <use xlink:href="#DejaVuSans-Oblique-46" transform="translate(366.25 -27.28125) scale(0.7)"/>
      <use xlink:href="#DejaVuSans-29" transform="translate(540.328607 0.0625)"/>
     </g>
    </g>
    <g id="LineCollection_11">
     <path d="M 250.745625 287.197646 
L 260.745625 287.197646 
" style="fill: none; stroke: #51a7f9; stroke-width: 3"/>
    </g>
    <g id="LineCollection_12">
     <path d="M 255.745625 292.197646 
L 255.745625 282.197646 
" style="fill: none; stroke: #51a7f9; stroke-width: 3"/>
    </g>
    <g id="line2d_114">
     <path d="M 245.745625 287.197646 
L 265.745625 287.197646 
" style="fill: none; stroke: #51a7f9; stroke-width: 1.5; stroke-linecap: square"/>
    </g>
    <g id="line2d_115">
     <defs>
      <path id="m57d930487e" d="M 0 4 
C 1.060812 4 2.078319 3.578535 2.828427 2.828427 
C 3.578535 2.078319 4 1.060812 4 0 
C 4 -1.060812 3.578535 -2.078319 2.828427 -2.828427 
C 2.078319 -3.578535 1.060812 -4 0 -4 
C -1.060812 -4 -2.078319 -3.578535 -2.828427 -2.828427 
C -3.578535 -2.078319 -4 -1.060812 -4 0 
C -4 1.060812 -3.578535 2.078319 -2.828427 2.828427 
C -2.078319 3.578535 -1.060812 4 0 4 
z
" style="stroke: #ffffff; stroke-width: 2"/>
     </defs>
     <g>
      <use xlink:href="#m57d930487e" x="255.745625" y="287.197646" style="fill: #51a7f9; stroke: #ffffff; stroke-width: 2"/>
     </g>
    </g>
    <g id="text_18">
     <!-- $a_{09}(l_F,s_F^{\rm phys})$ -->
     <g transform="translate(273.745625 290.697646) scale(0.1 -0.1)">
      <defs>
       <path id="DejaVuSans-39" d="M 703 97 
L 703 672 
Q 941 559 1184 500 
Q 1428 441 1663 441 
Q 2288 441 2617 861 
Q 2947 1281 2994 2138 
Q 2813 1869 2534 1725 
Q 2256 1581 1919 1581 
Q 1219 1581 811 2004 
Q 403 2428 403 3163 
Q 403 3881 828 4315 
Q 1253 4750 1959 4750 
Q 2769 4750 3195 4129 
Q 3622 3509 3622 2328 
Q 3622 1225 3098 567 
Q 2575 -91 1691 -91 
Q 1453 -91 1209 -44 
Q 966 3 703 97 
z
M 1959 2075 
Q 2384 2075 2632 2365 
Q 2881 2656 2881 3163 
Q 2881 3666 2632 3958 
Q 2384 4250 1959 4250 
Q 1534 4250 1286 3958 
Q 1038 3666 1038 3163 
Q 1038 2656 1286 2365 
Q 1534 2075 1959 2075 
z
" transform="scale(0.015625)"/>
      </defs>
      <use xlink:href="#DejaVuSans-Oblique-61" transform="translate(0 0.0625)"/>
      <use xlink:href="#DejaVuSans-30" transform="translate(61.279297 -16.34375) scale(0.7)"/>
      <use xlink:href="#DejaVuSans-39" transform="translate(105.81543 -16.34375) scale(0.7)"/>
      <use xlink:href="#DejaVuSans-28" transform="translate(153.085938 0.0625)"/>
      <use xlink:href="#DejaVuSans-Oblique-6c" transform="translate(192.099609 0.0625)"/>
      <use xlink:href="#DejaVuSans-Oblique-46" transform="translate(219.882812 -16.34375) scale(0.7)"/>
      <use xlink:href="#DejaVuSans-2c" transform="translate(262.880859 0.0625)"/>
      <use xlink:href="#DejaVuSans-Oblique-73" transform="translate(314.150391 0.0625)"/>
      <use xlink:href="#DejaVuSans-70" transform="translate(370.899896 50.810938) scale(0.7)"/>
      <use xlink:href="#DejaVuSans-68" transform="translate(415.33349 50.810938) scale(0.7)"/>
      <use xlink:href="#DejaVuSans-79" transform="translate(459.698724 50.810938) scale(0.7)"/>
      <use xlink:href="#DejaVuSans-73" transform="translate(501.124505 50.810938) scale(0.7)"/>
      <use xlink:href="#DejaVuSans-Oblique-46" transform="translate(366.25 -27.28125) scale(0.7)"/>
      <use xlink:href="#DejaVuSans-29" transform="translate(540.328607 0.0625)"/>
     </g>
    </g>
    <g id="LineCollection_13">
     <path d="M 356.745625 268.997646 
L 366.745625 268.997646 
" style="fill: none; stroke: #70bf41; stroke-width: 3"/>
    </g>
    <g id="LineCollection_14">
     <path d="M 361.745625 273.997646 
L 361.745625 263.997646 
" style="fill: none; stroke: #70bf41; stroke-width: 3"/>
    </g>
    <g id="line2d_116">
     <path d="M 351.745625 268.997646 
L 371.745625 268.997646 
" style="fill: none; stroke: #70bf41; stroke-width: 1.5; stroke-linecap: square"/>
    </g>
    <g id="line2d_117">
     <defs>
      <path id="m4325856820" d="M 0 4 
C 1.060812 4 2.078319 3.578535 2.828427 2.828427 
C 3.578535 2.078319 4 1.060812 4 0 
C 4 -1.060812 3.578535 -2.078319 2.828427 -2.828427 
C 2.078319 -3.578535 1.060812 -4 0 -4 
C -1.060812 -4 -2.078319 -3.578535 -2.828427 -2.828427 
C -3.578535 -2.078319 -4 -1.060812 -4 0 
C -4 1.060812 -3.578535 2.078319 -2.828427 2.828427 
C -2.078319 3.578535 -1.060812 4 0 4 
z
" style="stroke: #ffffff; stroke-width: 2"/>
     </defs>
     <g>
      <use xlink:href="#m4325856820" x="361.745625" y="268.997646" style="fill: #70bf41; stroke: #ffffff; stroke-width: 2"/>
     </g>
    </g>
    <g id="text_19">
     <!-- $a_{12}(l_F,s_F^{\rm phys})$ -->
     <g transform="translate(379.745625 272.497646) scale(0.1 -0.1)">
      <use xlink:href="#DejaVuSans-Oblique-61" transform="translate(0 0.0625)"/>
      <use xlink:href="#DejaVuSans-31" transform="translate(61.279297 -16.34375) scale(0.7)"/>
      <use xlink:href="#DejaVuSans-32" transform="translate(105.81543 -16.34375) scale(0.7)"/>
      <use xlink:href="#DejaVuSans-28" transform="translate(153.085938 0.0625)"/>
      <use xlink:href="#DejaVuSans-Oblique-6c" transform="translate(192.099609 0.0625)"/>
      <use xlink:href="#DejaVuSans-Oblique-46" transform="translate(219.882812 -16.34375) scale(0.7)"/>
      <use xlink:href="#DejaVuSans-2c" transform="translate(262.880859 0.0625)"/>
      <use xlink:href="#DejaVuSans-Oblique-73" transform="translate(314.150391 0.0625)"/>
      <use xlink:href="#DejaVuSans-70" transform="translate(370.899896 50.810938) scale(0.7)"/>
      <use xlink:href="#DejaVuSans-68" transform="translate(415.33349 50.810938) scale(0.7)"/>
      <use xlink:href="#DejaVuSans-79" transform="translate(459.698724 50.810938) scale(0.7)"/>
      <use xlink:href="#DejaVuSans-73" transform="translate(501.124505 50.810938) scale(0.7)"/>
      <use xlink:href="#DejaVuSans-Oblique-46" transform="translate(366.25 -27.28125) scale(0.7)"/>
      <use xlink:href="#DejaVuSans-29" transform="translate(540.328607 0.0625)"/>
     </g>
    </g>
    <g id="LineCollection_15">
     <path d="M 356.745625 287.197646 
L 366.745625 287.197646 
" style="fill: none; stroke: #ec5d57; stroke-width: 3"/>
    </g>
    <g id="LineCollection_16">
     <path d="M 361.745625 292.197646 
L 361.745625 282.197646 
" style="fill: none; stroke: #ec5d57; stroke-width: 3"/>
    </g>
    <g id="line2d_118">
     <path d="M 351.745625 287.197646 
L 371.745625 287.197646 
" style="fill: none; stroke: #ec5d57; stroke-width: 1.5; stroke-linecap: square"/>
    </g>
    <g id="line2d_119">
     <defs>
      <path id="m7655916e98" d="M 0 4 
C 1.060812 4 2.078319 3.578535 2.828427 2.828427 
C 3.578535 2.078319 4 1.060812 4 0 
C 4 -1.060812 3.578535 -2.078319 2.828427 -2.828427 
C 2.078319 -3.578535 1.060812 -4 0 -4 
C -1.060812 -4 -2.078319 -3.578535 -2.828427 -2.828427 
C -3.578535 -2.078319 -4 -1.060812 -4 0 
C -4 1.060812 -3.578535 2.078319 -2.828427 2.828427 
C -2.078319 3.578535 -1.060812 4 0 4 
z
" style="stroke: #ffffff; stroke-width: 2"/>
     </defs>
     <g>
      <use xlink:href="#m7655916e98" x="361.745625" y="287.197646" style="fill: #ec5d57; stroke: #ffffff; stroke-width: 2"/>
     </g>
    </g>
    <g id="text_20">
     <!-- $a_{15}(l_F,s_F^{\rm phys})$ -->
     <g transform="translate(379.745625 290.697646) scale(0.1 -0.1)">
      <defs>
       <path id="DejaVuSans-35" d="M 691 4666 
L 3169 4666 
L 3169 4134 
L 1269 4134 
L 1269 2991 
Q 1406 3038 1543 3061 
Q 1681 3084 1819 3084 
Q 2600 3084 3056 2656 
Q 3513 2228 3513 1497 
Q 3513 744 3044 326 
Q 2575 -91 1722 -91 
Q 1428 -91 1123 -41 
Q 819 9 494 109 
L 494 744 
Q 775 591 1075 516 
Q 1375 441 1709 441 
Q 2250 441 2565 725 
Q 2881 1009 2881 1497 
Q 2881 1984 2565 2268 
Q 2250 2553 1709 2553 
Q 1456 2553 1204 2497 
Q 953 2441 691 2322 
L 691 4666 
z
" transform="scale(0.015625)"/>
      </defs>
      <use xlink:href="#DejaVuSans-Oblique-61" transform="translate(0 0.0625)"/>
      <use xlink:href="#DejaVuSans-31" transform="translate(61.279297 -16.34375) scale(0.7)"/>
      <use xlink:href="#DejaVuSans-35" transform="translate(105.81543 -16.34375) scale(0.7)"/>
      <use xlink:href="#DejaVuSans-28" transform="translate(153.085938 0.0625)"/>
      <use xlink:href="#DejaVuSans-Oblique-6c" transform="translate(192.099609 0.0625)"/>
      <use xlink:href="#DejaVuSans-Oblique-46" transform="translate(219.882812 -16.34375) scale(0.7)"/>
      <use xlink:href="#DejaVuSans-2c" transform="translate(262.880859 0.0625)"/>
      <use xlink:href="#DejaVuSans-Oblique-73" transform="translate(314.150391 0.0625)"/>
      <use xlink:href="#DejaVuSans-70" transform="translate(370.899896 50.810938) scale(0.7)"/>
      <use xlink:href="#DejaVuSans-68" transform="translate(415.33349 50.810938) scale(0.7)"/>
      <use xlink:href="#DejaVuSans-79" transform="translate(459.698724 50.810938) scale(0.7)"/>
      <use xlink:href="#DejaVuSans-73" transform="translate(501.124505 50.810938) scale(0.7)"/>
      <use xlink:href="#DejaVuSans-Oblique-46" transform="translate(366.25 -27.28125) scale(0.7)"/>
      <use xlink:href="#DejaVuSans-29" transform="translate(540.328607 0.0625)"/>
     </g>
    </g>
   </g>
  </g>
 </g>
 <defs>
  <clipPath id="pf63ed01997">
   <rect x="55.065625" y="8.737646" width="391.68" height="293.76"/>
  </clipPath>
 </defs>
 <defs>
  <pattern id="hcd9fbf72cf" patternUnits="userSpaceOnUse" x="0" y="0" width="72" height="72">
   <rect x="0" y="0" width="73" height="73" fill="none"/>
   <path d="M -36 36 
L 36 -36 
M -24 48 
L 48 -24 
M -12 60 
L 60 -12 
M 0 72 
L 72 0 
M 12 84 
L 84 12 
M 24 96 
L 96 24 
M 36 108 
L 108 36 
" style="fill: #000000; stroke: #000000; stroke-width: 1.0; stroke-linecap: butt; stroke-linejoin: miter; stroke-opacity: 0.6"/>
  </pattern>
 </defs>
</svg>
