<?xml version="1.0" encoding="utf-8" standalone="no"?>
<!DOCTYPE svg PUBLIC "-//W3C//DTD SVG 1.1//EN"
  "http://www.w3.org/Graphics/SVG/1.1/DTD/svg11.dtd">
<svg xmlns:xlink="http://www.w3.org/1999/xlink" width="449.02375pt" height="340.838125pt" viewBox="0 0 449.02375 340.838125" xmlns="http://www.w3.org/2000/svg" version="1.1">
 <metadata>
  <rdf:RDF xmlns:dc="http://purl.org/dc/elements/1.1/" xmlns:cc="http://creativecommons.org/ns#" xmlns:rdf="http://www.w3.org/1999/02/22-rdf-syntax-ns#">
   <cc:Work>
    <dc:type rdf:resource="http://purl.org/dc/dcmitype/StillImage"/>
    <dc:date>2025-03-01T16:01:36.571272</dc:date>
    <dc:format>image/svg+xml</dc:format>
    <dc:creator>
     <cc:Agent>
      <dc:title>Matplotlib v3.10.0, https://matplotlib.org/</dc:title>
     </cc:Agent>
    </dc:creator>
   </cc:Work>
  </rdf:RDF>
 </metadata>
 <defs>
  <style type="text/css">*{stroke-linejoin: round; stroke-linecap: butt}</style>
 </defs>
 <g id="figure_1">
  <g id="patch_1">
   <path d="M 0 340.838125 
L 449.02375 340.838125 
L 449.02375 0 
L 0 0 
z
" style="fill: #ffffff"/>
  </g>
  <g id="axes_1">
   <g id="patch_2">
    <path d="M 50.14375 300.96 
L 441.82375 300.96 
L 441.82375 7.2 
L 50.14375 7.2 
z
" style="fill: #ffffff"/>
   </g>
   <g id="FillBetweenPolyCollection_1">
    <path d="M 67.947386 168.970823 
L 67.947386 192.764637 
L 75.18849 189.27136 
L 82.429594 185.833241 
L 89.670698 182.445325 
L 96.911801 179.104942 
L 104.152905 175.810247 
L 111.394009 172.559817 
L 118.635113 169.352458 
L 125.876216 166.187103 
L 133.11732 163.06274 
L 140.358424 159.978374 
L 147.599528 156.932991 
L 154.840631 153.925549 
L 162.081735 150.954962 
L 169.322839 148.020102 
L 176.563943 145.119801 
L 183.805046 142.252862 
L 191.04615 139.418063 
L 198.287254 136.614176 
L 205.528358 133.839975 
L 212.769462 131.094247 
L 220.010565 128.375809 
L 227.251669 125.68351 
L 234.492773 123.016245 
L 241.733877 120.372956 
L 248.97498 117.75264 
L 256.216084 115.154351 
L 263.457188 112.577198 
L 270.698292 110.020349 
L 277.939395 107.483029 
L 285.180499 104.964517 
L 292.421603 102.464146 
L 299.662707 99.981298 
L 306.90381 97.515403 
L 314.144914 95.065936 
L 321.386018 92.632412 
L 328.627122 90.214385 
L 335.868225 87.811445 
L 343.109329 85.423214 
L 350.350433 83.049344 
L 357.591537 80.689514 
L 364.83264 78.343429 
L 372.073744 76.010817 
L 379.314848 73.691425 
L 386.555952 71.38502 
L 393.797055 69.091388 
L 401.038159 66.810327 
L 408.279263 64.541653 
L 415.520367 62.285192 
L 422.76147 60.040783 
L 422.76147 20.552727 
L 422.76147 20.552727 
L 415.520367 23.637314 
L 408.279263 26.721908 
L 401.038159 29.806568 
L 393.797055 32.891348 
L 386.555952 35.976292 
L 379.314848 39.061436 
L 372.073744 42.146805 
L 364.83264 45.232409 
L 357.591537 48.318248 
L 350.350433 51.404305 
L 343.109329 54.490545 
L 335.868225 57.576917 
L 328.627122 60.663347 
L 321.386018 63.749737 
L 314.144914 66.835966 
L 306.90381 69.921883 
L 299.662707 73.007309 
L 292.421603 76.09203 
L 285.180499 79.175797 
L 277.939395 82.258325 
L 270.698292 85.339287 
L 263.457188 88.418316 
L 256.216084 91.495001 
L 248.97498 94.568887 
L 241.733877 97.639476 
L 234.492773 100.706225 
L 227.251669 103.768556 
L 220.010565 106.825849 
L 212.769462 109.877459 
L 205.528358 112.922715 
L 198.287254 115.960938 
L 191.04615 118.991445 
L 183.805046 122.01357 
L 176.563943 125.026673 
L 169.322839 128.030162 
L 162.081735 131.02351 
L 154.840631 134.006265 
L 147.599528 136.978073 
L 140.358424 139.93869 
L 133.11732 142.887988 
L 125.876216 145.825971 
L 118.635113 148.752772 
L 111.394009 151.668662 
L 104.152905 154.574052 
L 96.911801 157.469499 
L 89.670698 160.355722 
L 82.429594 163.233654 
L 75.18849 166.104586 
L 67.947386 168.970823 
z
" clip-path="url(#pd258026e2b)" style="fill: url(#hb2cdcd6f8d); stroke: #000000; stroke-opacity: 0.6"/>
   </g>
   <g id="FillBetweenPolyCollection_2">
    <defs>
     <path id="m6efff2f493" d="M 67.947386 -64.377597 
L 67.947386 -53.230852 
L 75.18849 -56.189159 
L 82.429594 -59.093746 
L 89.670698 -61.948848 
L 96.911801 -64.754885 
L 104.152905 -67.509928 
L 111.394009 -70.209738 
L 118.635113 -72.847553 
L 125.876216 -75.414097 
L 133.11732 -77.898511 
L 140.358424 -80.290964 
L 147.599528 -82.586668 
L 154.840631 -84.788938 
L 162.081735 -86.908601 
L 169.322839 -88.960198 
L 176.563943 -90.958026 
L 183.805046 -92.91401 
L 191.04615 -94.837248 
L 198.287254 -96.734387 
L 205.528358 -98.610199 
L 212.769462 -100.468099 
L 220.010565 -102.310541 
L 227.251669 -104.139303 
L 234.492773 -105.955683 
L 241.733877 -107.760636 
L 248.97498 -109.554868 
L 256.216084 -111.338905 
L 263.457188 -113.113137 
L 270.698292 -114.877852 
L 277.939395 -116.633263 
L 285.180499 -118.379523 
L 292.421603 -120.11674 
L 299.662707 -121.844986 
L 306.90381 -123.564308 
L 314.144914 -125.274728 
L 321.386018 -126.976253 
L 328.627122 -128.668877 
L 335.868225 -130.352583 
L 343.109329 -132.027345 
L 350.350433 -133.693132 
L 357.591537 -135.349909 
L 364.83264 -136.997637 
L 372.073744 -138.636273 
L 379.314848 -140.265775 
L 386.555952 -141.886099 
L 393.797055 -143.497201 
L 401.038159 -145.099037 
L 408.279263 -146.691565 
L 415.520367 -148.274741 
L 422.76147 -149.848527 
L 422.76147 -178.16521 
L 422.76147 -178.16521 
L 415.520367 -175.848532 
L 408.279263 -173.529399 
L 401.038159 -171.207548 
L 393.797055 -168.882711 
L 386.555952 -166.554614 
L 379.314848 -164.222979 
L 372.073744 -161.887522 
L 364.83264 -159.547954 
L 357.591537 -157.203982 
L 350.350433 -154.855308 
L 343.109329 -152.501631 
L 335.868225 -150.142648 
L 328.627122 -147.778053 
L 321.386018 -145.40754 
L 314.144914 -143.030804 
L 306.90381 -140.647543 
L 299.662707 -138.257458 
L 292.421603 -135.860262 
L 285.180499 -133.455678 
L 277.939395 -131.043447 
L 270.698292 -128.623335 
L 263.457188 -126.195144 
L 256.216084 -123.75872 
L 248.97498 -121.313976 
L 241.733877 -118.86091 
L 234.492773 -116.39964 
L 227.251669 -113.930453 
L 220.010565 -111.453862 
L 212.769462 -108.970707 
L 205.528358 -106.482285 
L 198.287254 -103.990546 
L 191.04615 -101.498376 
L 183.805046 -99.009987 
L 176.563943 -96.531435 
L 169.322839 -94.071192 
L 162.081735 -91.640512 
L 154.840631 -89.252975 
L 147.599528 -86.922347 
L 140.358424 -84.658616 
L 133.11732 -82.464179 
L 125.876216 -80.333235 
L 118.635113 -78.254821 
L 111.394009 -76.216797 
L 104.152905 -74.208407 
L 96.911801 -72.221141 
L 89.670698 -70.248616 
L 82.429594 -68.286123 
L 75.18849 -66.330126 
L 67.947386 -64.377597 
z
" style="stroke: #ec5d57; stroke-opacity: 0.4"/>
    </defs>
    <g clip-path="url(#pd258026e2b)">
     <use xlink:href="#m6efff2f493" x="0" y="340.838125" style="fill: #ec5d57; fill-opacity: 0.4; stroke: #ec5d57; stroke-opacity: 0.4"/>
    </g>
   </g>
   <g id="FillBetweenPolyCollection_3">
    <defs>
     <path id="m46f358b1a7" d="M 67.947386 -111.163868 
L 67.947386 -102.688462 
L 75.18849 -105.825001 
L 82.429594 -108.886022 
L 89.670698 -111.870445 
L 96.911801 -114.77277 
L 104.152905 -117.586113 
L 111.394009 -120.30491 
L 118.635113 -122.927832 
L 125.876216 -125.459566 
L 133.11732 -127.910166 
L 140.358424 -130.292486 
L 147.599528 -132.619419 
L 154.840631 -134.902188 
L 162.081735 -137.149776 
L 169.322839 -139.369047 
L 176.563943 -141.565126 
L 183.805046 -143.741803 
L 191.04615 -145.901881 
L 198.287254 -148.047434 
L 205.528358 -150.180011 
L 212.769462 -152.300768 
L 220.010565 -154.410576 
L 227.251669 -156.51009 
L 234.492773 -158.599802 
L 241.733877 -160.680083 
L 248.97498 -162.751208 
L 256.216084 -164.813379 
L 263.457188 -166.866739 
L 270.698292 -168.911387 
L 277.939395 -170.947387 
L 285.180499 -172.974773 
L 292.421603 -174.993556 
L 299.662707 -177.003731 
L 306.90381 -179.005275 
L 314.144914 -180.998158 
L 321.386018 -182.982336 
L 328.627122 -184.957762 
L 335.868225 -186.924381 
L 343.109329 -188.882135 
L 350.350433 -190.830962 
L 357.591537 -192.770798 
L 364.83264 -194.70158 
L 372.073744 -196.623242 
L 379.314848 -198.535719 
L 386.555952 -200.438947 
L 393.797055 -202.332863 
L 401.038159 -204.217404 
L 408.279263 -206.092511 
L 415.520367 -207.958124 
L 422.76147 -209.814189 
L 422.76147 -240.104913 
L 422.76147 -240.104913 
L 415.520367 -237.548631 
L 408.279263 -234.989976 
L 401.038159 -232.428669 
L 393.797055 -229.864426 
L 386.555952 -227.296956 
L 379.314848 -224.725962 
L 372.073744 -222.151142 
L 364.83264 -219.572186 
L 357.591537 -216.988778 
L 350.350433 -214.400597 
L 343.109329 -211.807318 
L 335.868225 -209.208608 
L 328.627122 -206.604134 
L 321.386018 -203.993553 
L 314.144914 -201.376526 
L 306.90381 -198.752705 
L 299.662707 -196.121747 
L 292.421603 -193.483306 
L 285.180499 -190.837039 
L 277.939395 -188.182609 
L 270.698292 -185.519686 
L 263.457188 -182.847952 
L 256.216084 -180.167105 
L 248.97498 -177.476866 
L 241.733877 -174.776989 
L 234.492773 -172.067269 
L 227.251669 -169.347558 
L 220.010565 -166.617788 
L 212.769462 -163.877991 
L 205.528358 -161.128343 
L 198.287254 -158.36921 
L 191.04615 -155.601219 
L 183.805046 -152.825359 
L 176.563943 -150.043115 
L 169.322839 -147.256661 
L 162.081735 -144.469117 
L 154.840631 -141.68489 
L 147.599528 -138.91007 
L 140.358424 -136.152803 
L 133.11732 -133.423392 
L 125.876216 -130.733716 
L 118.635113 -128.095499 
L 111.394009 -125.517513 
L 104.152905 -123.002965 
L 96.911801 -120.548779 
L 89.670698 -118.147244 
L 82.429594 -115.7887 
L 75.18849 -113.463689 
L 67.947386 -111.163868 
z
" style="stroke: #70bf41; stroke-opacity: 0.4"/>
    </defs>
    <g clip-path="url(#pd258026e2b)">
     <use xlink:href="#m46f358b1a7" x="0" y="340.838125" style="fill: #70bf41; fill-opacity: 0.4; stroke: #70bf41; stroke-opacity: 0.4"/>
    </g>
   </g>
   <g id="FillBetweenPolyCollection_4">
    <defs>
     <path id="maa761f49f7" d="M 67.947386 -142.651102 
L 67.947386 -130.907522 
L 75.18849 -134.206796 
L 82.429594 -137.43529 
L 89.670698 -140.596015 
L 96.911801 -143.689306 
L 104.152905 -146.714874 
L 111.394009 -149.672642 
L 118.635113 -152.563315 
L 125.876216 -155.388721 
L 133.11732 -158.151916 
L 140.358424 -160.857031 
L 147.599528 -163.508953 
L 154.840631 -166.112919 
L 162.081735 -168.674146 
L 169.322839 -171.19755 
L 176.563943 -173.687576 
L 183.805046 -176.148118 
L 191.04615 -178.582519 
L 198.287254 -180.993603 
L 205.528358 -183.383728 
L 212.769462 -185.754857 
L 220.010565 -188.10861 
L 227.251669 -190.446325 
L 234.492773 -192.769106 
L 241.733877 -195.077862 
L 248.97498 -197.373343 
L 256.216084 -199.656167 
L 263.457188 -201.926843 
L 270.698292 -204.185792 
L 277.939395 -206.43336 
L 285.180499 -208.669832 
L 292.421603 -210.895442 
L 299.662707 -213.110382 
L 306.90381 -215.314808 
L 314.144914 -217.508848 
L 321.386018 -219.692604 
L 328.627122 -221.866157 
L 335.868225 -224.029573 
L 343.109329 -226.182903 
L 350.350433 -228.326185 
L 357.591537 -230.459448 
L 364.83264 -232.582712 
L 372.073744 -234.695993 
L 379.314848 -236.799299 
L 386.555952 -238.892635 
L 393.797055 -240.976001 
L 401.038159 -243.049395 
L 408.279263 -245.112816 
L 415.520367 -247.166256 
L 422.76147 -249.209712 
L 422.76147 -281.983842 
L 422.76147 -281.983842 
L 415.520367 -279.176332 
L 408.279263 -276.36682 
L 401.038159 -273.555078 
L 393.797055 -270.740876 
L 386.555952 -267.923979 
L 379.314848 -265.104152 
L 372.073744 -262.281154 
L 364.83264 -259.454746 
L 357.591537 -256.624686 
L 350.350433 -253.790732 
L 343.109329 -250.952643 
L 335.868225 -248.110182 
L 328.627122 -245.263111 
L 321.386018 -242.411201 
L 314.144914 -239.554229 
L 306.90381 -236.691979 
L 299.662707 -233.824252 
L 292.421603 -230.950861 
L 285.180499 -228.071642 
L 277.939395 -225.186454 
L 270.698292 -222.295191 
L 263.457188 -219.397784 
L 256.216084 -216.494215 
L 248.97498 -213.584528 
L 241.733877 -210.66884 
L 234.492773 -207.747363 
L 227.251669 -204.820426 
L 220.010565 -201.888497 
L 212.769462 -198.952221 
L 205.528358 -196.012456 
L 198.287254 -193.070318 
L 191.04615 -190.12724 
L 183.805046 -187.185021 
L 176.563943 -184.245896 
L 169.322839 -181.312576 
L 162.081735 -178.38829 
L 154.840631 -175.476762 
L 147.599528 -172.582136 
L 140.358424 -169.708788 
L 133.11732 -166.861038 
L 125.876216 -164.042759 
L 118.635113 -161.256952 
L 111.394009 -158.50539 
L 104.152905 -155.788423 
L 96.911801 -153.105004 
L 89.670698 -150.452916 
L 82.429594 -147.82909 
L 75.18849 -145.229902 
L 67.947386 -142.651102 
z
" style="stroke: #51a7f9; stroke-opacity: 0.4"/>
    </defs>
    <g clip-path="url(#pd258026e2b)">
     <use xlink:href="#maa761f49f7" x="0" y="340.838125" style="fill: #51a7f9; fill-opacity: 0.4; stroke: #51a7f9; stroke-opacity: 0.4"/>
    </g>
   </g>
   <g id="FillBetweenPolyCollection_5">
    <defs>
     <path id="mef2b7d2486" d="M 67.947386 -159.910171 
L 67.947386 -142.497859 
L 75.18849 -145.906586 
L 82.429594 -149.254134 
L 89.670698 -152.545166 
L 96.911801 -155.781934 
L 104.152905 -158.965883 
L 111.394009 -162.098133 
L 118.635113 -165.179723 
L 125.876216 -168.211754 
L 133.11732 -171.195483 
L 140.358424 -174.13237 
L 147.599528 -177.024095 
L 154.840631 -179.872543 
L 162.081735 -182.679766 
L 169.322839 -185.447935 
L 176.563943 -188.179285 
L 183.805046 -190.876052 
L 191.04615 -193.540433 
L 198.287254 -196.174536 
L 205.528358 -198.780355 
L 212.769462 -201.359749 
L 220.010565 -203.91443 
L 227.251669 -206.445959 
L 234.492773 -208.955748 
L 241.733877 -211.445069 
L 248.97498 -213.915057 
L 256.216084 -216.366727 
L 263.457188 -218.800979 
L 270.698292 -221.21861 
L 277.939395 -223.620327 
L 285.180499 -226.006756 
L 292.421603 -228.37845 
L 299.662707 -230.735897 
L 306.90381 -233.079529 
L 314.144914 -235.409728 
L 321.386018 -237.726833 
L 328.627122 -240.031145 
L 335.868225 -242.322928 
L 343.109329 -244.602421 
L 350.350433 -246.869833 
L 357.591537 -249.125352 
L 364.83264 -251.369146 
L 372.073744 -253.601366 
L 379.314848 -255.822147 
L 386.555952 -258.03161 
L 393.797055 -260.229866 
L 401.038159 -262.417013 
L 408.279263 -264.593144 
L 415.520367 -266.758341 
L 422.76147 -268.91268 
L 422.76147 -304.656593 
L 422.76147 -304.656593 
L 415.520367 -301.684897 
L 408.279263 -298.712032 
L 401.038159 -295.73785 
L 393.797055 -292.76221 
L 386.555952 -289.784972 
L 379.314848 -286.805999 
L 372.073744 -283.825163 
L 364.83264 -280.84234 
L 357.591537 -277.857414 
L 350.350433 -274.870281 
L 343.109329 -271.880846 
L 335.868225 -268.88903 
L 328.627122 -265.894769 
L 321.386018 -262.898018 
L 314.144914 -259.898756 
L 306.90381 -256.896986 
L 299.662707 -253.892743 
L 292.421603 -250.886098 
L 285.180499 -247.877159 
L 277.939395 -244.866085 
L 270.698292 -241.853087 
L 263.457188 -238.838437 
L 256.216084 -235.822478 
L 248.97498 -232.80563 
L 241.733877 -229.788403 
L 234.492773 -226.771403 
L 227.251669 -223.755346 
L 220.010565 -220.741061 
L 212.769462 -217.729503 
L 205.528358 -214.721752 
L 198.287254 -211.719016 
L 191.04615 -208.722624 
L 183.805046 -205.734012 
L 176.563943 -202.754697 
L 169.322839 -199.786247 
L 162.081735 -196.83023 
L 154.840631 -193.888161 
L 147.599528 -190.961439 
L 140.358424 -188.051277 
L 133.11732 -185.158641 
L 125.876216 -182.284196 
L 118.635113 -179.428274 
L 111.394009 -176.590847 
L 104.152905 -173.77154 
L 96.911801 -170.969641 
L 89.670698 -168.184125 
L 82.429594 -165.413662 
L 75.18849 -162.656543 
L 67.947386 -159.910171 
z
" style="stroke: #6a5acd; stroke-opacity: 0.4"/>
    </defs>
    <g clip-path="url(#pd258026e2b)">
     <use xlink:href="#mef2b7d2486" x="0" y="340.838125" style="fill: #6a5acd; fill-opacity: 0.4; stroke: #6a5acd; stroke-opacity: 0.4"/>
    </g>
   </g>
   <g id="matplotlib.axis_1">
    <g id="xtick_1">
     <g id="line2d_1">
      <defs>
       <path id="m518395c280" d="M 0 0 
L 0 3.5 
" style="stroke: #000000; stroke-width: 0.8"/>
      </defs>
      <g>
       <use xlink:href="#m518395c280" x="67.561973" y="300.96" style="stroke: #000000; stroke-width: 0.8"/>
      </g>
     </g>
     <g id="text_1">
      <!-- 0.00 -->
      <g transform="translate(56.42916 315.558437) scale(0.1 -0.1)">
       <defs>
        <path id="DejaVuSans-30" d="M 2034 4250 
Q 1547 4250 1301 3770 
Q 1056 3291 1056 2328 
Q 1056 1369 1301 889 
Q 1547 409 2034 409 
Q 2525 409 2770 889 
Q 3016 1369 3016 2328 
Q 3016 3291 2770 3770 
Q 2525 4250 2034 4250 
z
M 2034 4750 
Q 2819 4750 3233 4129 
Q 3647 3509 3647 2328 
Q 3647 1150 3233 529 
Q 2819 -91 2034 -91 
Q 1250 -91 836 529 
Q 422 1150 422 2328 
Q 422 3509 836 4129 
Q 1250 4750 2034 4750 
z
" transform="scale(0.015625)"/>
        <path id="DejaVuSans-2e" d="M 684 794 
L 1344 794 
L 1344 0 
L 684 0 
L 684 794 
z
" transform="scale(0.015625)"/>
       </defs>
       <use xlink:href="#DejaVuSans-30"/>
       <use xlink:href="#DejaVuSans-2e" transform="translate(63.623047 0)"/>
       <use xlink:href="#DejaVuSans-30" transform="translate(95.410156 0)"/>
       <use xlink:href="#DejaVuSans-30" transform="translate(159.033203 0)"/>
      </g>
     </g>
    </g>
    <g id="xtick_2">
     <g id="line2d_2">
      <g>
       <use xlink:href="#m518395c280" x="144.644679" y="300.96" style="stroke: #000000; stroke-width: 0.8"/>
      </g>
     </g>
     <g id="text_2">
      <!-- 0.02 -->
      <g transform="translate(133.511867 315.558437) scale(0.1 -0.1)">
       <defs>
        <path id="DejaVuSans-32" d="M 1228 531 
L 3431 531 
L 3431 0 
L 469 0 
L 469 531 
Q 828 903 1448 1529 
Q 2069 2156 2228 2338 
Q 2531 2678 2651 2914 
Q 2772 3150 2772 3378 
Q 2772 3750 2511 3984 
Q 2250 4219 1831 4219 
Q 1534 4219 1204 4116 
Q 875 4013 500 3803 
L 500 4441 
Q 881 4594 1212 4672 
Q 1544 4750 1819 4750 
Q 2544 4750 2975 4387 
Q 3406 4025 3406 3419 
Q 3406 3131 3298 2873 
Q 3191 2616 2906 2266 
Q 2828 2175 2409 1742 
Q 1991 1309 1228 531 
z
" transform="scale(0.015625)"/>
       </defs>
       <use xlink:href="#DejaVuSans-30"/>
       <use xlink:href="#DejaVuSans-2e" transform="translate(63.623047 0)"/>
       <use xlink:href="#DejaVuSans-30" transform="translate(95.410156 0)"/>
       <use xlink:href="#DejaVuSans-32" transform="translate(159.033203 0)"/>
      </g>
     </g>
    </g>
    <g id="xtick_3">
     <g id="line2d_3">
      <g>
       <use xlink:href="#m518395c280" x="221.727386" y="300.96" style="stroke: #000000; stroke-width: 0.8"/>
      </g>
     </g>
     <g id="text_3">
      <!-- 0.04 -->
      <g transform="translate(210.594573 315.558437) scale(0.1 -0.1)">
       <defs>
        <path id="DejaVuSans-34" d="M 2419 4116 
L 825 1625 
L 2419 1625 
L 2419 4116 
z
M 2253 4666 
L 3047 4666 
L 3047 1625 
L 3713 1625 
L 3713 1100 
L 3047 1100 
L 3047 0 
L 2419 0 
L 2419 1100 
L 313 1100 
L 313 1709 
L 2253 4666 
z
" transform="scale(0.015625)"/>
       </defs>
       <use xlink:href="#DejaVuSans-30"/>
       <use xlink:href="#DejaVuSans-2e" transform="translate(63.623047 0)"/>
       <use xlink:href="#DejaVuSans-30" transform="translate(95.410156 0)"/>
       <use xlink:href="#DejaVuSans-34" transform="translate(159.033203 0)"/>
      </g>
     </g>
    </g>
    <g id="xtick_4">
     <g id="line2d_4">
      <g>
       <use xlink:href="#m518395c280" x="298.810093" y="300.96" style="stroke: #000000; stroke-width: 0.8"/>
      </g>
     </g>
     <g id="text_4">
      <!-- 0.06 -->
      <g transform="translate(287.67728 315.558437) scale(0.1 -0.1)">
       <defs>
        <path id="DejaVuSans-36" d="M 2113 2584 
Q 1688 2584 1439 2293 
Q 1191 2003 1191 1497 
Q 1191 994 1439 701 
Q 1688 409 2113 409 
Q 2538 409 2786 701 
Q 3034 994 3034 1497 
Q 3034 2003 2786 2293 
Q 2538 2584 2113 2584 
z
M 3366 4563 
L 3366 3988 
Q 3128 4100 2886 4159 
Q 2644 4219 2406 4219 
Q 1781 4219 1451 3797 
Q 1122 3375 1075 2522 
Q 1259 2794 1537 2939 
Q 1816 3084 2150 3084 
Q 2853 3084 3261 2657 
Q 3669 2231 3669 1497 
Q 3669 778 3244 343 
Q 2819 -91 2113 -91 
Q 1303 -91 875 529 
Q 447 1150 447 2328 
Q 447 3434 972 4092 
Q 1497 4750 2381 4750 
Q 2619 4750 2861 4703 
Q 3103 4656 3366 4563 
z
" transform="scale(0.015625)"/>
       </defs>
       <use xlink:href="#DejaVuSans-30"/>
       <use xlink:href="#DejaVuSans-2e" transform="translate(63.623047 0)"/>
       <use xlink:href="#DejaVuSans-30" transform="translate(95.410156 0)"/>
       <use xlink:href="#DejaVuSans-36" transform="translate(159.033203 0)"/>
      </g>
     </g>
    </g>
    <g id="xtick_5">
     <g id="line2d_5">
      <g>
       <use xlink:href="#m518395c280" x="375.892799" y="300.96" style="stroke: #000000; stroke-width: 0.8"/>
      </g>
     </g>
     <g id="text_5">
      <!-- 0.08 -->
      <g transform="translate(364.759987 315.558437) scale(0.1 -0.1)">
       <defs>
        <path id="DejaVuSans-38" d="M 2034 2216 
Q 1584 2216 1326 1975 
Q 1069 1734 1069 1313 
Q 1069 891 1326 650 
Q 1584 409 2034 409 
Q 2484 409 2743 651 
Q 3003 894 3003 1313 
Q 3003 1734 2745 1975 
Q 2488 2216 2034 2216 
z
M 1403 2484 
Q 997 2584 770 2862 
Q 544 3141 544 3541 
Q 544 4100 942 4425 
Q 1341 4750 2034 4750 
Q 2731 4750 3128 4425 
Q 3525 4100 3525 3541 
Q 3525 3141 3298 2862 
Q 3072 2584 2669 2484 
Q 3125 2378 3379 2068 
Q 3634 1759 3634 1313 
Q 3634 634 3220 271 
Q 2806 -91 2034 -91 
Q 1263 -91 848 271 
Q 434 634 434 1313 
Q 434 1759 690 2068 
Q 947 2378 1403 2484 
z
M 1172 3481 
Q 1172 3119 1398 2916 
Q 1625 2713 2034 2713 
Q 2441 2713 2670 2916 
Q 2900 3119 2900 3481 
Q 2900 3844 2670 4047 
Q 2441 4250 2034 4250 
Q 1625 4250 1398 4047 
Q 1172 3844 1172 3481 
z
" transform="scale(0.015625)"/>
       </defs>
       <use xlink:href="#DejaVuSans-30"/>
       <use xlink:href="#DejaVuSans-2e" transform="translate(63.623047 0)"/>
       <use xlink:href="#DejaVuSans-30" transform="translate(95.410156 0)"/>
       <use xlink:href="#DejaVuSans-38" transform="translate(159.033203 0)"/>
      </g>
     </g>
    </g>
    <g id="text_6">
     <!-- $l^2_F = m_\pi^2 / (4 \pi F_\pi)^2$ -->
     <g transform="translate(208.93375 330.738125) scale(0.1 -0.1)">
      <defs>
       <path id="DejaVuSans-Oblique-6c" d="M 1172 4863 
L 1747 4863 
L 800 0 
L 225 0 
L 1172 4863 
z
" transform="scale(0.015625)"/>
       <path id="DejaVuSans-Oblique-46" d="M 1081 4666 
L 3756 4666 
L 3653 4134 
L 1606 4134 
L 1338 2759 
L 3188 2759 
L 3084 2228 
L 1234 2228 
L 800 0 
L 172 0 
L 1081 4666 
z
" transform="scale(0.015625)"/>
       <path id="DejaVuSans-3d" d="M 678 2906 
L 4684 2906 
L 4684 2381 
L 678 2381 
L 678 2906 
z
M 678 1631 
L 4684 1631 
L 4684 1100 
L 678 1100 
L 678 1631 
z
" transform="scale(0.015625)"/>
       <path id="DejaVuSans-Oblique-6d" d="M 5747 2113 
L 5338 0 
L 4763 0 
L 5166 2094 
Q 5191 2228 5203 2325 
Q 5216 2422 5216 2491 
Q 5216 2772 5059 2928 
Q 4903 3084 4622 3084 
Q 4203 3084 3875 2770 
Q 3547 2456 3450 1953 
L 3066 0 
L 2491 0 
L 2900 2094 
Q 2925 2209 2937 2307 
Q 2950 2406 2950 2484 
Q 2950 2769 2794 2926 
Q 2638 3084 2363 3084 
Q 1938 3084 1609 2770 
Q 1281 2456 1184 1953 
L 800 0 
L 225 0 
L 909 3500 
L 1484 3500 
L 1375 2956 
Q 1609 3263 1923 3423 
Q 2238 3584 2597 3584 
Q 2978 3584 3223 3384 
Q 3469 3184 3519 2828 
Q 3781 3197 4126 3390 
Q 4472 3584 4856 3584 
Q 5306 3584 5551 3325 
Q 5797 3066 5797 2591 
Q 5797 2488 5784 2364 
Q 5772 2241 5747 2113 
z
" transform="scale(0.015625)"/>
       <path id="DejaVuSans-Oblique-3c0" d="M 584 3500 
L 3938 3500 
L 3825 2925 
L 3384 2925 
L 2966 775 
Q 2922 550 2981 450 
Q 3038 353 3209 353 
Q 3256 353 3325 363 
Q 3397 369 3419 372 
L 3338 -44 
Q 3222 -84 3103 -103 
Q 2981 -122 2866 -122 
Q 2491 -122 2388 81 
Q 2284 288 2391 838 
L 2797 2925 
L 1506 2925 
L 938 0 
L 350 0 
L 919 2925 
L 472 2925 
L 584 3500 
z
" transform="scale(0.015625)"/>
       <path id="DejaVuSans-2f" d="M 1625 4666 
L 2156 4666 
L 531 -594 
L 0 -594 
L 1625 4666 
z
" transform="scale(0.015625)"/>
       <path id="DejaVuSans-28" d="M 1984 4856 
Q 1566 4138 1362 3434 
Q 1159 2731 1159 2009 
Q 1159 1288 1364 580 
Q 1569 -128 1984 -844 
L 1484 -844 
Q 1016 -109 783 600 
Q 550 1309 550 2009 
Q 550 2706 781 3412 
Q 1013 4119 1484 4856 
L 1984 4856 
z
" transform="scale(0.015625)"/>
       <path id="DejaVuSans-29" d="M 513 4856 
L 1013 4856 
Q 1481 4119 1714 3412 
Q 1947 2706 1947 2009 
Q 1947 1309 1714 600 
Q 1481 -109 1013 -844 
L 513 -844 
Q 928 -128 1133 580 
Q 1338 1288 1338 2009 
Q 1338 2731 1133 3434 
Q 928 4138 513 4856 
z
" transform="scale(0.015625)"/>
      </defs>
      <use xlink:href="#DejaVuSans-Oblique-6c" transform="translate(0 0.765625)"/>
      <use xlink:href="#DejaVuSans-32" transform="translate(35.230911 39.046875) scale(0.7)"/>
      <use xlink:href="#DejaVuSans-Oblique-46" transform="translate(27.783203 -26.578125) scale(0.7)"/>
      <use xlink:href="#DejaVuSans-3d" transform="translate(101.983841 0.765625)"/>
      <use xlink:href="#DejaVuSans-Oblique-6d" transform="translate(205.255326 0.765625)"/>
      <use xlink:href="#DejaVuSans-32" transform="translate(307.317331 39.046875) scale(0.7)"/>
      <use xlink:href="#DejaVuSans-Oblique-3c0" transform="translate(302.667435 -26.578125) scale(0.7)"/>
      <use xlink:href="#DejaVuSans-2f" transform="translate(354.587839 0.765625)"/>
      <use xlink:href="#DejaVuSans-28" transform="translate(388.279245 0.765625)"/>
      <use xlink:href="#DejaVuSans-34" transform="translate(427.292917 0.765625)"/>
      <use xlink:href="#DejaVuSans-Oblique-3c0" transform="translate(490.915964 0.765625)"/>
      <use xlink:href="#DejaVuSans-Oblique-46" transform="translate(551.121042 0.765625)"/>
      <use xlink:href="#DejaVuSans-Oblique-3c0" transform="translate(608.640573 -15.640625) scale(0.7)"/>
      <use xlink:href="#DejaVuSans-29" transform="translate(653.518503 0.765625)"/>
      <use xlink:href="#DejaVuSans-32" transform="translate(693.489206 39.046875) scale(0.7)"/>
     </g>
    </g>
   </g>
   <g id="matplotlib.axis_2">
    <g id="ytick_1">
     <g id="line2d_6">
      <defs>
       <path id="mb7a4d42153" d="M 0 0 
L -3.5 0 
" style="stroke: #000000; stroke-width: 0.8"/>
      </defs>
      <g>
       <use xlink:href="#mb7a4d42153" x="50.14375" y="274.973745" style="stroke: #000000; stroke-width: 0.8"/>
      </g>
     </g>
     <g id="text_7">
      <!-- 1.35 -->
      <g transform="translate(20.878125 278.772964) scale(0.1 -0.1)">
       <defs>
        <path id="DejaVuSans-31" d="M 794 531 
L 1825 531 
L 1825 4091 
L 703 3866 
L 703 4441 
L 1819 4666 
L 2450 4666 
L 2450 531 
L 3481 531 
L 3481 0 
L 794 0 
L 794 531 
z
" transform="scale(0.015625)"/>
        <path id="DejaVuSans-33" d="M 2597 2516 
Q 3050 2419 3304 2112 
Q 3559 1806 3559 1356 
Q 3559 666 3084 287 
Q 2609 -91 1734 -91 
Q 1441 -91 1130 -33 
Q 819 25 488 141 
L 488 750 
Q 750 597 1062 519 
Q 1375 441 1716 441 
Q 2309 441 2620 675 
Q 2931 909 2931 1356 
Q 2931 1769 2642 2001 
Q 2353 2234 1838 2234 
L 1294 2234 
L 1294 2753 
L 1863 2753 
Q 2328 2753 2575 2939 
Q 2822 3125 2822 3475 
Q 2822 3834 2567 4026 
Q 2313 4219 1838 4219 
Q 1578 4219 1281 4162 
Q 984 4106 628 3988 
L 628 4550 
Q 988 4650 1302 4700 
Q 1616 4750 1894 4750 
Q 2613 4750 3031 4423 
Q 3450 4097 3450 3541 
Q 3450 3153 3228 2886 
Q 3006 2619 2597 2516 
z
" transform="scale(0.015625)"/>
        <path id="DejaVuSans-35" d="M 691 4666 
L 3169 4666 
L 3169 4134 
L 1269 4134 
L 1269 2991 
Q 1406 3038 1543 3061 
Q 1681 3084 1819 3084 
Q 2600 3084 3056 2656 
Q 3513 2228 3513 1497 
Q 3513 744 3044 326 
Q 2575 -91 1722 -91 
Q 1428 -91 1123 -41 
Q 819 9 494 109 
L 494 744 
Q 775 591 1075 516 
Q 1375 441 1709 441 
Q 2250 441 2565 725 
Q 2881 1009 2881 1497 
Q 2881 1984 2565 2268 
Q 2250 2553 1709 2553 
Q 1456 2553 1204 2497 
Q 953 2441 691 2322 
L 691 4666 
z
" transform="scale(0.015625)"/>
       </defs>
       <use xlink:href="#DejaVuSans-31"/>
       <use xlink:href="#DejaVuSans-2e" transform="translate(63.623047 0)"/>
       <use xlink:href="#DejaVuSans-33" transform="translate(95.410156 0)"/>
       <use xlink:href="#DejaVuSans-35" transform="translate(159.033203 0)"/>
      </g>
     </g>
    </g>
    <g id="ytick_2">
     <g id="line2d_7">
      <g>
       <use xlink:href="#mb7a4d42153" x="50.14375" y="215.390039" style="stroke: #000000; stroke-width: 0.8"/>
      </g>
     </g>
     <g id="text_8">
      <!-- 1.40 -->
      <g transform="translate(20.878125 219.189258) scale(0.1 -0.1)">
       <use xlink:href="#DejaVuSans-31"/>
       <use xlink:href="#DejaVuSans-2e" transform="translate(63.623047 0)"/>
       <use xlink:href="#DejaVuSans-34" transform="translate(95.410156 0)"/>
       <use xlink:href="#DejaVuSans-30" transform="translate(159.033203 0)"/>
      </g>
     </g>
    </g>
    <g id="ytick_3">
     <g id="line2d_8">
      <g>
       <use xlink:href="#mb7a4d42153" x="50.14375" y="155.806333" style="stroke: #000000; stroke-width: 0.8"/>
      </g>
     </g>
     <g id="text_9">
      <!-- 1.45 -->
      <g transform="translate(20.878125 159.605552) scale(0.1 -0.1)">
       <use xlink:href="#DejaVuSans-31"/>
       <use xlink:href="#DejaVuSans-2e" transform="translate(63.623047 0)"/>
       <use xlink:href="#DejaVuSans-34" transform="translate(95.410156 0)"/>
       <use xlink:href="#DejaVuSans-35" transform="translate(159.033203 0)"/>
      </g>
     </g>
    </g>
    <g id="ytick_4">
     <g id="line2d_9">
      <g>
       <use xlink:href="#mb7a4d42153" x="50.14375" y="96.222627" style="stroke: #000000; stroke-width: 0.8"/>
      </g>
     </g>
     <g id="text_10">
      <!-- 1.50 -->
      <g transform="translate(20.878125 100.021846) scale(0.1 -0.1)">
       <use xlink:href="#DejaVuSans-31"/>
       <use xlink:href="#DejaVuSans-2e" transform="translate(63.623047 0)"/>
       <use xlink:href="#DejaVuSans-35" transform="translate(95.410156 0)"/>
       <use xlink:href="#DejaVuSans-30" transform="translate(159.033203 0)"/>
      </g>
     </g>
    </g>
    <g id="ytick_5">
     <g id="line2d_10">
      <g>
       <use xlink:href="#mb7a4d42153" x="50.14375" y="36.638921" style="stroke: #000000; stroke-width: 0.8"/>
      </g>
     </g>
     <g id="text_11">
      <!-- 1.55 -->
      <g transform="translate(20.878125 40.43814) scale(0.1 -0.1)">
       <use xlink:href="#DejaVuSans-31"/>
       <use xlink:href="#DejaVuSans-2e" transform="translate(63.623047 0)"/>
       <use xlink:href="#DejaVuSans-35" transform="translate(95.410156 0)"/>
       <use xlink:href="#DejaVuSans-35" transform="translate(159.033203 0)"/>
      </g>
     </g>
    </g>
    <g id="text_12">
     <!-- $w_0 m_\Omega$ -->
     <g transform="translate(14.798437 168.23) rotate(-90) scale(0.1 -0.1)">
      <defs>
       <path id="DejaVuSans-Oblique-77" d="M 544 3500 
L 1113 3500 
L 1259 684 
L 2566 3500 
L 3231 3500 
L 3425 684 
L 4666 3500 
L 5241 3500 
L 3641 0 
L 2969 0 
L 2797 2900 
L 1459 0 
L 781 0 
L 544 3500 
z
" transform="scale(0.015625)"/>
       <path id="DejaVuSans-3a9" d="M 4647 556 
L 4647 0 
L 2772 0 
L 2772 556 
Q 3325 859 3634 1378 
Q 3944 1897 3944 2528 
Q 3944 3278 3531 3731 
Q 3119 4184 2444 4184 
Q 1769 4184 1355 3729 
Q 941 3275 941 2528 
Q 941 1897 1250 1378 
Q 1563 859 2119 556 
L 2119 0 
L 244 0 
L 244 556 
L 1241 556 
Q 747 991 519 1456 
Q 294 1922 294 2497 
Q 294 3491 894 4106 
Q 1491 4722 2444 4722 
Q 3391 4722 3994 4106 
Q 4594 3494 4594 2528 
Q 4594 1922 4372 1459 
Q 4150 997 3647 556 
L 4647 556 
z
" transform="scale(0.015625)"/>
      </defs>
      <use xlink:href="#DejaVuSans-Oblique-77"/>
      <use xlink:href="#DejaVuSans-30" transform="translate(81.787109 -16.40625) scale(0.7)"/>
      <use xlink:href="#DejaVuSans-Oblique-6d" transform="translate(129.057617 0)"/>
      <use xlink:href="#DejaVuSans-3a9" transform="translate(226.469727 -16.40625) scale(0.7)"/>
     </g>
    </g>
   </g>
   <g id="line2d_11">
    <path d="M 119.799636 300.96 
L 119.799636 7.2 
" clip-path="url(#pd258026e2b)" style="fill: none; stroke-dasharray: 5.55,2.4; stroke-dashoffset: 0; stroke: #1f77b4; stroke-width: 1.5"/>
   </g>
   <g id="line2d_12">
    <path d="M 119.799636 300.96 
L 119.799636 7.2 
" clip-path="url(#pd258026e2b)" style="fill: none; stroke-dasharray: 5.55,2.4; stroke-dashoffset: 0; stroke: #1f77b4; stroke-width: 1.5"/>
   </g>
   <g id="line2d_13">
    <path d="M 119.799636 300.96 
L 119.799636 7.2 
" clip-path="url(#pd258026e2b)" style="fill: none; stroke-dasharray: 5.55,2.4; stroke-dashoffset: 0; stroke: #1f77b4; stroke-width: 1.5"/>
   </g>
   <g id="line2d_14">
    <path d="M 119.799636 300.96 
L 119.799636 7.2 
" clip-path="url(#pd258026e2b)" style="fill: none; stroke-dasharray: 5.55,2.4; stroke-dashoffset: 0; stroke: #1f77b4; stroke-width: 1.5"/>
   </g>
   <g id="line2d_15">
    <path d="M 119.799636 300.96 
L 119.799636 7.2 
" clip-path="url(#pd258026e2b)" style="fill: none; stroke-dasharray: 5.55,2.4; stroke-dashoffset: 0; stroke: #1f77b4; stroke-width: 1.5"/>
   </g>
   <g id="line2d_16">
    <path d="M 424.020114 189.117695 
L 421.502827 189.118606 
" clip-path="url(#pd258026e2b)" style="fill: none; stroke: #ec5d57; stroke-width: 2; stroke-linecap: square"/>
   </g>
   <g id="line2d_17">
    <path d="M 422.705436 174.305365 
L 422.817505 203.930936 
" clip-path="url(#pd258026e2b)" style="fill: none; stroke: #ec5d57; stroke-width: 2; stroke-linecap: square"/>
   </g>
   <g id="line2d_18">
    <path d="M 357.887381 205.766286 
L 355.723825 205.767678 
" clip-path="url(#pd258026e2b)" style="fill: none; stroke: #ec5d57; stroke-width: 2; stroke-linecap: square"/>
   </g>
   <g id="line2d_19">
    <path d="M 356.728742 194.342871 
L 356.882464 217.191093 
" clip-path="url(#pd258026e2b)" style="fill: none; stroke: #ec5d57; stroke-width: 2; stroke-linecap: square"/>
   </g>
   <g id="line2d_20">
    <path d="M 300.383324 210.244353 
L 298.599476 210.245621 
" clip-path="url(#pd258026e2b)" style="fill: none; stroke: #ec5d57; stroke-width: 2; stroke-linecap: square"/>
   </g>
   <g id="line2d_21">
    <path d="M 299.425588 201.396248 
L 299.557211 219.093726 
" clip-path="url(#pd258026e2b)" style="fill: none; stroke: #ec5d57; stroke-width: 2; stroke-linecap: square"/>
   </g>
   <g id="line2d_22">
    <path d="M 308.059073 209.631038 
L 306.73908 209.631501 
" clip-path="url(#pd258026e2b)" style="fill: none; stroke: #ec5d57; stroke-width: 2; stroke-linecap: square"/>
   </g>
   <g id="line2d_23">
    <path d="M 307.363835 200.030339 
L 307.434318 219.2322 
" clip-path="url(#pd258026e2b)" style="fill: none; stroke: #ec5d57; stroke-width: 2; stroke-linecap: square"/>
   </g>
   <g id="line2d_24">
    <path d="M 193.967618 240.786339 
L 193.123569 240.787125 
" clip-path="url(#pd258026e2b)" style="fill: none; stroke: #ec5d57; stroke-width: 2; stroke-linecap: square"/>
   </g>
   <g id="line2d_25">
    <path d="M 193.501576 236.264468 
L 193.589611 245.308996 
" clip-path="url(#pd258026e2b)" style="fill: none; stroke: #ec5d57; stroke-width: 2; stroke-linecap: square"/>
   </g>
   <g id="line2d_26">
    <path d="M 118.579867 263.723497 
L 118.241719 263.724028 
" clip-path="url(#pd258026e2b)" style="fill: none; stroke: #ec5d57; stroke-width: 2; stroke-linecap: square"/>
   </g>
   <g id="line2d_27">
    <path d="M 118.366189 261.007797 
L 118.455397 266.439727 
" clip-path="url(#pd258026e2b)" style="fill: none; stroke: #ec5d57; stroke-width: 2; stroke-linecap: square"/>
   </g>
   <g id="line2d_28">
    <path d="M 411.326457 124.887334 
L 408.982255 124.88837 
" clip-path="url(#pd258026e2b)" style="fill: none; stroke: #70bf41; stroke-width: 2; stroke-linecap: square"/>
   </g>
   <g id="line2d_29">
    <path d="M 410.086646 110.235323 
L 410.222066 139.540381 
" clip-path="url(#pd258026e2b)" style="fill: none; stroke: #70bf41; stroke-width: 2; stroke-linecap: square"/>
   </g>
   <g id="line2d_30">
    <path d="M 350.591772 151.767316 
L 347.756502 151.769807 
" clip-path="url(#pd258026e2b)" style="fill: none; stroke: #70bf41; stroke-width: 2; stroke-linecap: square"/>
   </g>
   <g id="line2d_31">
    <path d="M 349.062228 139.591207 
L 349.286047 163.945917 
" clip-path="url(#pd258026e2b)" style="fill: none; stroke: #70bf41; stroke-width: 2; stroke-linecap: square"/>
   </g>
   <g id="line2d_32">
    <path d="M 296.007052 162.054965 
L 294.235077 162.056101 
" clip-path="url(#pd258026e2b)" style="fill: none; stroke: #70bf41; stroke-width: 2; stroke-linecap: square"/>
   </g>
   <g id="line2d_33">
    <path d="M 295.04523 150.746705 
L 295.196899 173.36436 
" clip-path="url(#pd258026e2b)" style="fill: none; stroke: #70bf41; stroke-width: 2; stroke-linecap: square"/>
   </g>
   <g id="line2d_34">
    <path d="M 299.136012 158.045041 
L 297.252182 158.046677 
" clip-path="url(#pd258026e2b)" style="fill: none; stroke: #70bf41; stroke-width: 2; stroke-linecap: square"/>
   </g>
   <g id="line2d_35">
    <path d="M 298.097415 147.402863 
L 298.290779 168.688855 
" clip-path="url(#pd258026e2b)" style="fill: none; stroke: #70bf41; stroke-width: 2; stroke-linecap: square"/>
   </g>
   <g id="line2d_36">
    <path d="M 199.239235 197.930707 
L 197.98122 197.930474 
" clip-path="url(#pd258026e2b)" style="fill: none; stroke: #70bf41; stroke-width: 2; stroke-linecap: square"/>
   </g>
   <g id="line2d_37">
    <path d="M 198.626305 189.629642 
L 198.594151 206.23154 
" clip-path="url(#pd258026e2b)" style="fill: none; stroke: #70bf41; stroke-width: 2; stroke-linecap: square"/>
   </g>
   <g id="line2d_38">
    <path d="M 198.708777 186.314885 
L 197.232491 186.317092 
" clip-path="url(#pd258026e2b)" style="fill: none; stroke: #70bf41; stroke-width: 2; stroke-linecap: square"/>
   </g>
   <g id="line2d_39">
    <path d="M 197.867948 179.748621 
L 198.07332 192.883356 
" clip-path="url(#pd258026e2b)" style="fill: none; stroke: #70bf41; stroke-width: 2; stroke-linecap: square"/>
   </g>
   <g id="line2d_40">
    <path d="M 194.900843 186.474788 
L 193.736181 186.475886 
" clip-path="url(#pd258026e2b)" style="fill: none; stroke: #70bf41; stroke-width: 2; stroke-linecap: square"/>
   </g>
   <g id="line2d_41">
    <path d="M 194.251644 179.690182 
L 194.385379 193.260493 
" clip-path="url(#pd258026e2b)" style="fill: none; stroke: #70bf41; stroke-width: 2; stroke-linecap: square"/>
   </g>
   <g id="line2d_42">
    <path d="M 195.875173 189.472155 
L 194.716842 189.47277 
" clip-path="url(#pd258026e2b)" style="fill: none; stroke: #70bf41; stroke-width: 2; stroke-linecap: square"/>
   </g>
   <g id="line2d_43">
    <path d="M 195.234363 178.370935 
L 195.357652 200.573991 
" clip-path="url(#pd258026e2b)" style="fill: none; stroke: #70bf41; stroke-width: 2; stroke-linecap: square"/>
   </g>
   <g id="line2d_44">
    <path d="M 155.669176 195.497914 
L 154.961967 195.498783 
" clip-path="url(#pd258026e2b)" style="fill: none; stroke: #70bf41; stroke-width: 2; stroke-linecap: square"/>
   </g>
   <g id="line2d_45">
    <path d="M 155.248867 190.307354 
L 155.382276 200.689343 
" clip-path="url(#pd258026e2b)" style="fill: none; stroke: #70bf41; stroke-width: 2; stroke-linecap: square"/>
   </g>
   <g id="line2d_46">
    <path d="M 117.437281 217.529291 
L 116.863523 217.529922 
" clip-path="url(#pd258026e2b)" style="fill: none; stroke: #70bf41; stroke-width: 2; stroke-linecap: square"/>
   </g>
   <g id="line2d_47">
    <path d="M 117.09966 213.120244 
L 117.201144 221.938968 
" clip-path="url(#pd258026e2b)" style="fill: none; stroke: #70bf41; stroke-width: 2; stroke-linecap: square"/>
   </g>
   <g id="line2d_48">
    <path d="M 411.158064 83.020063 
L 408.702334 83.020601 
" clip-path="url(#pd258026e2b)" style="fill: none; stroke: #51a7f9; stroke-width: 2; stroke-linecap: square"/>
   </g>
   <g id="line2d_49">
    <path d="M 409.893115 66.86696 
L 409.967283 99.173704 
" clip-path="url(#pd258026e2b)" style="fill: none; stroke: #51a7f9; stroke-width: 2; stroke-linecap: square"/>
   </g>
   <g id="line2d_50">
    <path d="M 348.443459 118.376115 
L 346.016305 118.377147 
" clip-path="url(#pd258026e2b)" style="fill: none; stroke: #51a7f9; stroke-width: 2; stroke-linecap: square"/>
   </g>
   <g id="line2d_51">
    <path d="M 347.164671 103.719611 
L 347.295093 133.033651 
" clip-path="url(#pd258026e2b)" style="fill: none; stroke: #51a7f9; stroke-width: 2; stroke-linecap: square"/>
   </g>
   <g id="line2d_52">
    <path d="M 301.633271 120.571859 
L 299.916752 120.572635 
" clip-path="url(#pd258026e2b)" style="fill: none; stroke: #51a7f9; stroke-width: 2; stroke-linecap: square"/>
   </g>
   <g id="line2d_53">
    <path d="M 300.713178 107.496341 
L 300.836845 133.648152 
" clip-path="url(#pd258026e2b)" style="fill: none; stroke: #51a7f9; stroke-width: 2; stroke-linecap: square"/>
   </g>
   <g id="line2d_54">
    <path d="M 195.524881 160.985616 
L 194.484487 160.986229 
" clip-path="url(#pd258026e2b)" style="fill: none; stroke: #51a7f9; stroke-width: 2; stroke-linecap: square"/>
   </g>
   <g id="line2d_55">
    <path d="M 194.951366 152.33986 
L 195.058002 169.631986 
" clip-path="url(#pd258026e2b)" style="fill: none; stroke: #51a7f9; stroke-width: 2; stroke-linecap: square"/>
   </g>
   <g id="line2d_56">
    <path d="M 119.718032 194.169536 
L 119.148887 194.170089 
" clip-path="url(#pd258026e2b)" style="fill: none; stroke: #51a7f9; stroke-width: 2; stroke-linecap: square"/>
   </g>
   <g id="line2d_57">
    <path d="M 119.372645 188.179601 
L 119.494274 200.160023 
" clip-path="url(#pd258026e2b)" style="fill: none; stroke: #51a7f9; stroke-width: 2; stroke-linecap: square"/>
   </g>
   <g id="line2d_58">
    <path d="M 305.580902 86.511872 
L 302.904253 86.514197 
" clip-path="url(#pd258026e2b)" style="fill: none; stroke: #6a5acd; stroke-width: 2; stroke-linecap: square"/>
   </g>
   <g id="line2d_59">
    <path d="M 304.12626 73.713167 
L 304.358895 99.312902 
" clip-path="url(#pd258026e2b)" style="fill: none; stroke: #6a5acd; stroke-width: 2; stroke-linecap: square"/>
   </g>
   <g id="LineCollection_1"/>
   <g id="LineCollection_2"/>
   <g id="LineCollection_3"/>
   <g id="LineCollection_4"/>
   <g id="LineCollection_5"/>
   <g id="LineCollection_6"/>
   <g id="LineCollection_7"/>
   <g id="LineCollection_8"/>
   <g id="line2d_60"/>
   <g id="line2d_61"/>
   <g id="line2d_62"/>
   <g id="line2d_63"/>
   <g id="patch_3">
    <path d="M 50.14375 300.96 
L 50.14375 7.2 
" style="fill: none; stroke: #000000; stroke-width: 0.8; stroke-linejoin: miter; stroke-linecap: square"/>
   </g>
   <g id="patch_4">
    <path d="M 441.82375 300.96 
L 441.82375 7.2 
" style="fill: none; stroke: #000000; stroke-width: 0.8; stroke-linejoin: miter; stroke-linecap: square"/>
   </g>
   <g id="patch_5">
    <path d="M 50.14375 300.96 
L 441.82375 300.96 
" style="fill: none; stroke: #000000; stroke-width: 0.8; stroke-linejoin: miter; stroke-linecap: square"/>
   </g>
   <g id="patch_6">
    <path d="M 50.14375 7.2 
L 441.82375 7.2 
" style="fill: none; stroke: #000000; stroke-width: 0.8; stroke-linejoin: miter; stroke-linecap: square"/>
   </g>
   <g id="line2d_64">
    <path d="M 422.76147 189.118151 
" clip-path="url(#pd258026e2b)" style="fill: none; stroke: #ec5d57; stroke-width: 1.5; stroke-linecap: square"/>
    <defs>
     <path id="m7324eaedf9" d="M 0 3 
C 0.795609 3 1.55874 2.683901 2.12132 2.12132 
C 2.683901 1.55874 3 0.795609 3 0 
C 3 -0.795609 2.683901 -1.55874 2.12132 -2.12132 
C 1.55874 -2.683901 0.795609 -3 0 -3 
C -0.795609 -3 -1.55874 -2.683901 -2.12132 -2.12132 
C -2.683901 -1.55874 -3 -0.795609 -3 0 
C -3 0.795609 -2.683901 1.55874 -2.12132 2.12132 
C -1.55874 2.683901 -0.795609 3 0 3 
z
" style="stroke: #ffffff"/>
    </defs>
    <g clip-path="url(#pd258026e2b)">
     <use xlink:href="#m7324eaedf9" x="422.76147" y="189.118151" style="fill: #ec5d57; stroke: #ffffff"/>
    </g>
   </g>
   <g id="line2d_65">
    <path d="M 422.76147 189.118151 
" clip-path="url(#pd258026e2b)" style="fill: none; stroke: #ec5d57; stroke-width: 1.5; stroke-linecap: square"/>
    <g clip-path="url(#pd258026e2b)">
     <use xlink:href="#m7324eaedf9" x="422.76147" y="189.118151" style="fill: #ec5d57; stroke: #ffffff"/>
    </g>
   </g>
   <g id="line2d_66">
    <path d="M 356.805603 205.766982 
" clip-path="url(#pd258026e2b)" style="fill: none; stroke: #ec5d57; stroke-width: 1.5; stroke-linecap: square"/>
    <g clip-path="url(#pd258026e2b)">
     <use xlink:href="#m7324eaedf9" x="356.805603" y="205.766982" style="fill: #ec5d57; stroke: #ffffff"/>
    </g>
   </g>
   <g id="line2d_67">
    <path d="M 356.805603 205.766982 
" clip-path="url(#pd258026e2b)" style="fill: none; stroke: #ec5d57; stroke-width: 1.5; stroke-linecap: square"/>
    <g clip-path="url(#pd258026e2b)">
     <use xlink:href="#m7324eaedf9" x="356.805603" y="205.766982" style="fill: #ec5d57; stroke: #ffffff"/>
    </g>
   </g>
   <g id="line2d_68">
    <path d="M 299.4914 210.244987 
" clip-path="url(#pd258026e2b)" style="fill: none; stroke: #ec5d57; stroke-width: 1.5; stroke-linecap: square"/>
    <g clip-path="url(#pd258026e2b)">
     <use xlink:href="#m7324eaedf9" x="299.4914" y="210.244987" style="fill: #ec5d57; stroke: #ffffff"/>
    </g>
   </g>
   <g id="line2d_69">
    <path d="M 299.4914 210.244987 
" clip-path="url(#pd258026e2b)" style="fill: none; stroke: #ec5d57; stroke-width: 1.5; stroke-linecap: square"/>
    <g clip-path="url(#pd258026e2b)">
     <use xlink:href="#m7324eaedf9" x="299.4914" y="210.244987" style="fill: #ec5d57; stroke: #ffffff"/>
    </g>
   </g>
   <g id="line2d_70">
    <path d="M 307.399076 209.631269 
" clip-path="url(#pd258026e2b)" style="fill: none; stroke: #ec5d57; stroke-width: 1.5; stroke-linecap: square"/>
    <g clip-path="url(#pd258026e2b)">
     <use xlink:href="#m7324eaedf9" x="307.399076" y="209.631269" style="fill: #ec5d57; stroke: #ffffff"/>
    </g>
   </g>
   <g id="line2d_71">
    <path d="M 307.399076 209.631269 
" clip-path="url(#pd258026e2b)" style="fill: none; stroke: #ec5d57; stroke-width: 1.5; stroke-linecap: square"/>
    <g clip-path="url(#pd258026e2b)">
     <use xlink:href="#m7324eaedf9" x="307.399076" y="209.631269" style="fill: #ec5d57; stroke: #ffffff"/>
    </g>
   </g>
   <g id="line2d_72">
    <path d="M 193.545594 240.786732 
" clip-path="url(#pd258026e2b)" style="fill: none; stroke: #ec5d57; stroke-width: 1.5; stroke-linecap: square"/>
    <g clip-path="url(#pd258026e2b)">
     <use xlink:href="#m7324eaedf9" x="193.545594" y="240.786732" style="fill: #ec5d57; stroke: #ffffff"/>
    </g>
   </g>
   <g id="line2d_73">
    <path d="M 193.545594 240.786732 
" clip-path="url(#pd258026e2b)" style="fill: none; stroke: #ec5d57; stroke-width: 1.5; stroke-linecap: square"/>
    <g clip-path="url(#pd258026e2b)">
     <use xlink:href="#m7324eaedf9" x="193.545594" y="240.786732" style="fill: #ec5d57; stroke: #ffffff"/>
    </g>
   </g>
   <g id="line2d_74">
    <path d="M 118.410793 263.723762 
" clip-path="url(#pd258026e2b)" style="fill: none; stroke: #ec5d57; stroke-width: 1.5; stroke-linecap: square"/>
    <g clip-path="url(#pd258026e2b)">
     <use xlink:href="#m7324eaedf9" x="118.410793" y="263.723762" style="fill: #ec5d57; stroke: #ffffff"/>
    </g>
   </g>
   <g id="line2d_75">
    <path d="M 118.410793 263.723762 
" clip-path="url(#pd258026e2b)" style="fill: none; stroke: #ec5d57; stroke-width: 1.5; stroke-linecap: square"/>
    <g clip-path="url(#pd258026e2b)">
     <use xlink:href="#m7324eaedf9" x="118.410793" y="263.723762" style="fill: #ec5d57; stroke: #ffffff"/>
    </g>
   </g>
   <g id="line2d_76">
    <path d="M 410.154356 124.887852 
" clip-path="url(#pd258026e2b)" style="fill: none; stroke: #70bf41; stroke-width: 1.5; stroke-linecap: square"/>
    <defs>
     <path id="m2067485df7" d="M 0 3 
C 0.795609 3 1.55874 2.683901 2.12132 2.12132 
C 2.683901 1.55874 3 0.795609 3 0 
C 3 -0.795609 2.683901 -1.55874 2.12132 -2.12132 
C 1.55874 -2.683901 0.795609 -3 0 -3 
C -0.795609 -3 -1.55874 -2.683901 -2.12132 -2.12132 
C -2.683901 -1.55874 -3 -0.795609 -3 0 
C -3 0.795609 -2.683901 1.55874 -2.12132 2.12132 
C -1.55874 2.683901 -0.795609 3 0 3 
z
" style="stroke: #ffffff"/>
    </defs>
    <g clip-path="url(#pd258026e2b)">
     <use xlink:href="#m2067485df7" x="410.154356" y="124.887852" style="fill: #70bf41; stroke: #ffffff"/>
    </g>
   </g>
   <g id="line2d_77">
    <path d="M 410.154356 124.887852 
" clip-path="url(#pd258026e2b)" style="fill: none; stroke: #70bf41; stroke-width: 1.5; stroke-linecap: square"/>
    <g clip-path="url(#pd258026e2b)">
     <use xlink:href="#m2067485df7" x="410.154356" y="124.887852" style="fill: #70bf41; stroke: #ffffff"/>
    </g>
   </g>
   <g id="line2d_78">
    <path d="M 349.174137 151.768562 
" clip-path="url(#pd258026e2b)" style="fill: none; stroke: #70bf41; stroke-width: 1.5; stroke-linecap: square"/>
    <g clip-path="url(#pd258026e2b)">
     <use xlink:href="#m2067485df7" x="349.174137" y="151.768562" style="fill: #70bf41; stroke: #ffffff"/>
    </g>
   </g>
   <g id="line2d_79">
    <path d="M 349.174137 151.768562 
" clip-path="url(#pd258026e2b)" style="fill: none; stroke: #70bf41; stroke-width: 1.5; stroke-linecap: square"/>
    <g clip-path="url(#pd258026e2b)">
     <use xlink:href="#m2067485df7" x="349.174137" y="151.768562" style="fill: #70bf41; stroke: #ffffff"/>
    </g>
   </g>
   <g id="line2d_80">
    <path d="M 295.121065 162.055533 
" clip-path="url(#pd258026e2b)" style="fill: none; stroke: #70bf41; stroke-width: 1.5; stroke-linecap: square"/>
    <g clip-path="url(#pd258026e2b)">
     <use xlink:href="#m2067485df7" x="295.121065" y="162.055533" style="fill: #70bf41; stroke: #ffffff"/>
    </g>
   </g>
   <g id="line2d_81">
    <path d="M 295.121065 162.055533 
" clip-path="url(#pd258026e2b)" style="fill: none; stroke: #70bf41; stroke-width: 1.5; stroke-linecap: square"/>
    <g clip-path="url(#pd258026e2b)">
     <use xlink:href="#m2067485df7" x="295.121065" y="162.055533" style="fill: #70bf41; stroke: #ffffff"/>
    </g>
   </g>
   <g id="line2d_82">
    <path d="M 298.194097 158.045859 
" clip-path="url(#pd258026e2b)" style="fill: none; stroke: #70bf41; stroke-width: 1.5; stroke-linecap: square"/>
    <g clip-path="url(#pd258026e2b)">
     <use xlink:href="#m2067485df7" x="298.194097" y="158.045859" style="fill: #70bf41; stroke: #ffffff"/>
    </g>
   </g>
   <g id="line2d_83">
    <path d="M 298.194097 158.045859 
" clip-path="url(#pd258026e2b)" style="fill: none; stroke: #70bf41; stroke-width: 1.5; stroke-linecap: square"/>
    <g clip-path="url(#pd258026e2b)">
     <use xlink:href="#m2067485df7" x="298.194097" y="158.045859" style="fill: #70bf41; stroke: #ffffff"/>
    </g>
   </g>
   <g id="line2d_84">
    <path d="M 198.610228 197.930591 
" clip-path="url(#pd258026e2b)" style="fill: none; stroke: #70bf41; stroke-width: 1.5; stroke-linecap: square"/>
    <g clip-path="url(#pd258026e2b)">
     <use xlink:href="#m2067485df7" x="198.610228" y="197.930591" style="fill: #70bf41; stroke: #ffffff"/>
    </g>
   </g>
   <g id="line2d_85">
    <path d="M 198.610228 197.930591 
" clip-path="url(#pd258026e2b)" style="fill: none; stroke: #70bf41; stroke-width: 1.5; stroke-linecap: square"/>
    <g clip-path="url(#pd258026e2b)">
     <use xlink:href="#m2067485df7" x="198.610228" y="197.930591" style="fill: #70bf41; stroke: #ffffff"/>
    </g>
   </g>
   <g id="line2d_86">
    <path d="M 197.970634 186.315989 
" clip-path="url(#pd258026e2b)" style="fill: none; stroke: #70bf41; stroke-width: 1.5; stroke-linecap: square"/>
    <g clip-path="url(#pd258026e2b)">
     <use xlink:href="#m2067485df7" x="197.970634" y="186.315989" style="fill: #70bf41; stroke: #ffffff"/>
    </g>
   </g>
   <g id="line2d_87">
    <path d="M 197.970634 186.315989 
" clip-path="url(#pd258026e2b)" style="fill: none; stroke: #70bf41; stroke-width: 1.5; stroke-linecap: square"/>
    <g clip-path="url(#pd258026e2b)">
     <use xlink:href="#m2067485df7" x="197.970634" y="186.315989" style="fill: #70bf41; stroke: #ffffff"/>
    </g>
   </g>
   <g id="line2d_88">
    <path d="M 194.318512 186.475337 
" clip-path="url(#pd258026e2b)" style="fill: none; stroke: #70bf41; stroke-width: 1.5; stroke-linecap: square"/>
    <g clip-path="url(#pd258026e2b)">
     <use xlink:href="#m2067485df7" x="194.318512" y="186.475337" style="fill: #70bf41; stroke: #ffffff"/>
    </g>
   </g>
   <g id="line2d_89">
    <path d="M 194.318512 186.475337 
" clip-path="url(#pd258026e2b)" style="fill: none; stroke: #70bf41; stroke-width: 1.5; stroke-linecap: square"/>
    <g clip-path="url(#pd258026e2b)">
     <use xlink:href="#m2067485df7" x="194.318512" y="186.475337" style="fill: #70bf41; stroke: #ffffff"/>
    </g>
   </g>
   <g id="line2d_90">
    <path d="M 195.296007 189.472463 
" clip-path="url(#pd258026e2b)" style="fill: none; stroke: #70bf41; stroke-width: 1.5; stroke-linecap: square"/>
    <g clip-path="url(#pd258026e2b)">
     <use xlink:href="#m2067485df7" x="195.296007" y="189.472463" style="fill: #70bf41; stroke: #ffffff"/>
    </g>
   </g>
   <g id="line2d_91">
    <path d="M 195.296007 189.472463 
" clip-path="url(#pd258026e2b)" style="fill: none; stroke: #70bf41; stroke-width: 1.5; stroke-linecap: square"/>
    <g clip-path="url(#pd258026e2b)">
     <use xlink:href="#m2067485df7" x="195.296007" y="189.472463" style="fill: #70bf41; stroke: #ffffff"/>
    </g>
   </g>
   <g id="line2d_92">
    <path d="M 155.315571 195.498349 
" clip-path="url(#pd258026e2b)" style="fill: none; stroke: #70bf41; stroke-width: 1.5; stroke-linecap: square"/>
    <g clip-path="url(#pd258026e2b)">
     <use xlink:href="#m2067485df7" x="155.315571" y="195.498349" style="fill: #70bf41; stroke: #ffffff"/>
    </g>
   </g>
   <g id="line2d_93">
    <path d="M 155.315571 195.498349 
" clip-path="url(#pd258026e2b)" style="fill: none; stroke: #70bf41; stroke-width: 1.5; stroke-linecap: square"/>
    <g clip-path="url(#pd258026e2b)">
     <use xlink:href="#m2067485df7" x="155.315571" y="195.498349" style="fill: #70bf41; stroke: #ffffff"/>
    </g>
   </g>
   <g id="line2d_94">
    <path d="M 117.150402 217.529606 
" clip-path="url(#pd258026e2b)" style="fill: none; stroke: #70bf41; stroke-width: 1.5; stroke-linecap: square"/>
    <g clip-path="url(#pd258026e2b)">
     <use xlink:href="#m2067485df7" x="117.150402" y="217.529606" style="fill: #70bf41; stroke: #ffffff"/>
    </g>
   </g>
   <g id="line2d_95">
    <path d="M 117.150402 217.529606 
" clip-path="url(#pd258026e2b)" style="fill: none; stroke: #70bf41; stroke-width: 1.5; stroke-linecap: square"/>
    <g clip-path="url(#pd258026e2b)">
     <use xlink:href="#m2067485df7" x="117.150402" y="217.529606" style="fill: #70bf41; stroke: #ffffff"/>
    </g>
   </g>
   <g id="line2d_96">
    <path d="M 409.930199 83.020332 
" clip-path="url(#pd258026e2b)" style="fill: none; stroke: #51a7f9; stroke-width: 1.5; stroke-linecap: square"/>
    <defs>
     <path id="mfca8200fa4" d="M 0 3 
C 0.795609 3 1.55874 2.683901 2.12132 2.12132 
C 2.683901 1.55874 3 0.795609 3 0 
C 3 -0.795609 2.683901 -1.55874 2.12132 -2.12132 
C 1.55874 -2.683901 0.795609 -3 0 -3 
C -0.795609 -3 -1.55874 -2.683901 -2.12132 -2.12132 
C -2.683901 -1.55874 -3 -0.795609 -3 0 
C -3 0.795609 -2.683901 1.55874 -2.12132 2.12132 
C -1.55874 2.683901 -0.795609 3 0 3 
z
" style="stroke: #ffffff"/>
    </defs>
    <g clip-path="url(#pd258026e2b)">
     <use xlink:href="#mfca8200fa4" x="409.930199" y="83.020332" style="fill: #51a7f9; stroke: #ffffff"/>
    </g>
   </g>
   <g id="line2d_97">
    <path d="M 409.930199 83.020332 
" clip-path="url(#pd258026e2b)" style="fill: none; stroke: #51a7f9; stroke-width: 1.5; stroke-linecap: square"/>
    <g clip-path="url(#pd258026e2b)">
     <use xlink:href="#mfca8200fa4" x="409.930199" y="83.020332" style="fill: #51a7f9; stroke: #ffffff"/>
    </g>
   </g>
   <g id="line2d_98">
    <path d="M 347.229882 118.376631 
" clip-path="url(#pd258026e2b)" style="fill: none; stroke: #51a7f9; stroke-width: 1.5; stroke-linecap: square"/>
    <g clip-path="url(#pd258026e2b)">
     <use xlink:href="#mfca8200fa4" x="347.229882" y="118.376631" style="fill: #51a7f9; stroke: #ffffff"/>
    </g>
   </g>
   <g id="line2d_99">
    <path d="M 347.229882 118.376631 
" clip-path="url(#pd258026e2b)" style="fill: none; stroke: #51a7f9; stroke-width: 1.5; stroke-linecap: square"/>
    <g clip-path="url(#pd258026e2b)">
     <use xlink:href="#mfca8200fa4" x="347.229882" y="118.376631" style="fill: #51a7f9; stroke: #ffffff"/>
    </g>
   </g>
   <g id="line2d_100">
    <path d="M 300.775012 120.572247 
" clip-path="url(#pd258026e2b)" style="fill: none; stroke: #51a7f9; stroke-width: 1.5; stroke-linecap: square"/>
    <g clip-path="url(#pd258026e2b)">
     <use xlink:href="#mfca8200fa4" x="300.775012" y="120.572247" style="fill: #51a7f9; stroke: #ffffff"/>
    </g>
   </g>
   <g id="line2d_101">
    <path d="M 300.775012 120.572247 
" clip-path="url(#pd258026e2b)" style="fill: none; stroke: #51a7f9; stroke-width: 1.5; stroke-linecap: square"/>
    <g clip-path="url(#pd258026e2b)">
     <use xlink:href="#mfca8200fa4" x="300.775012" y="120.572247" style="fill: #51a7f9; stroke: #ffffff"/>
    </g>
   </g>
   <g id="line2d_102">
    <path d="M 195.004684 160.985923 
" clip-path="url(#pd258026e2b)" style="fill: none; stroke: #51a7f9; stroke-width: 1.5; stroke-linecap: square"/>
    <g clip-path="url(#pd258026e2b)">
     <use xlink:href="#mfca8200fa4" x="195.004684" y="160.985923" style="fill: #51a7f9; stroke: #ffffff"/>
    </g>
   </g>
   <g id="line2d_103">
    <path d="M 195.004684 160.985923 
" clip-path="url(#pd258026e2b)" style="fill: none; stroke: #51a7f9; stroke-width: 1.5; stroke-linecap: square"/>
    <g clip-path="url(#pd258026e2b)">
     <use xlink:href="#mfca8200fa4" x="195.004684" y="160.985923" style="fill: #51a7f9; stroke: #ffffff"/>
    </g>
   </g>
   <g id="line2d_104">
    <path d="M 119.43346 194.169812 
" clip-path="url(#pd258026e2b)" style="fill: none; stroke: #51a7f9; stroke-width: 1.5; stroke-linecap: square"/>
    <g clip-path="url(#pd258026e2b)">
     <use xlink:href="#mfca8200fa4" x="119.43346" y="194.169812" style="fill: #51a7f9; stroke: #ffffff"/>
    </g>
   </g>
   <g id="line2d_105">
    <path d="M 119.43346 194.169812 
" clip-path="url(#pd258026e2b)" style="fill: none; stroke: #51a7f9; stroke-width: 1.5; stroke-linecap: square"/>
    <g clip-path="url(#pd258026e2b)">
     <use xlink:href="#mfca8200fa4" x="119.43346" y="194.169812" style="fill: #51a7f9; stroke: #ffffff"/>
    </g>
   </g>
   <g id="line2d_106">
    <path d="M 304.242577 86.513034 
" clip-path="url(#pd258026e2b)" style="fill: none; stroke: #6a5acd; stroke-width: 1.5; stroke-linecap: square"/>
    <defs>
     <path id="mb02c39d08f" d="M 0 3 
C 0.795609 3 1.55874 2.683901 2.12132 2.12132 
C 2.683901 1.55874 3 0.795609 3 0 
C 3 -0.795609 2.683901 -1.55874 2.12132 -2.12132 
C 1.55874 -2.683901 0.795609 -3 0 -3 
C -0.795609 -3 -1.55874 -2.683901 -2.12132 -2.12132 
C -2.683901 -1.55874 -3 -0.795609 -3 0 
C -3 0.795609 -2.683901 1.55874 -2.12132 2.12132 
C -1.55874 2.683901 -0.795609 3 0 3 
z
" style="stroke: #ffffff"/>
    </defs>
    <g clip-path="url(#pd258026e2b)">
     <use xlink:href="#mb02c39d08f" x="304.242577" y="86.513034" style="fill: #6a5acd; stroke: #ffffff"/>
    </g>
   </g>
   <g id="line2d_107">
    <path d="M 304.242577 86.513034 
" clip-path="url(#pd258026e2b)" style="fill: none; stroke: #6a5acd; stroke-width: 1.5; stroke-linecap: square"/>
    <g clip-path="url(#pd258026e2b)">
     <use xlink:href="#mb02c39d08f" x="304.242577" y="86.513034" style="fill: #6a5acd; stroke: #ffffff"/>
    </g>
   </g>
   <g id="legend_1">
    <g id="patch_7">
     <path d="M 238.82375 295.96 
L 434.82375 295.96 
Q 436.82375 295.96 436.82375 293.96 
L 436.82375 258.56 
Q 436.82375 256.56 434.82375 256.56 
L 238.82375 256.56 
Q 236.82375 256.56 236.82375 258.56 
L 236.82375 293.96 
Q 236.82375 295.96 238.82375 295.96 
z
" style="fill: #ffffff; opacity: 0.8; stroke: #cccccc; stroke-linejoin: miter"/>
    </g>
    <g id="LineCollection_9">
     <path d="M 245.82375 267.46 
L 255.82375 267.46 
" style="fill: none; stroke: #6a5acd; stroke-width: 3"/>
    </g>
    <g id="LineCollection_10">
     <path d="M 250.82375 272.46 
L 250.82375 262.46 
" style="fill: none; stroke: #6a5acd; stroke-width: 3"/>
    </g>
    <g id="line2d_108">
     <path d="M 240.82375 267.46 
L 260.82375 267.46 
" style="fill: none; stroke: #6a5acd; stroke-width: 1.5; stroke-linecap: square"/>
    </g>
    <g id="line2d_109">
     <defs>
      <path id="m3987f15dc4" d="M 0 4 
C 1.060812 4 2.078319 3.578535 2.828427 2.828427 
C 3.578535 2.078319 4 1.060812 4 0 
C 4 -1.060812 3.578535 -2.078319 2.828427 -2.828427 
C 2.078319 -3.578535 1.060812 -4 0 -4 
C -1.060812 -4 -2.078319 -3.578535 -2.828427 -2.828427 
C -3.578535 -2.078319 -4 -1.060812 -4 0 
C -4 1.060812 -3.578535 2.078319 -2.828427 2.828427 
C -2.078319 3.578535 -1.060812 4 0 4 
z
" style="stroke: #ffffff; stroke-width: 2"/>
     </defs>
     <g>
      <use xlink:href="#m3987f15dc4" x="250.82375" y="267.46" style="fill: #6a5acd; stroke: #ffffff; stroke-width: 2"/>
     </g>
    </g>
    <g id="text_13">
     <!-- $a_{06}(l_F,s_F^{\rm phys})$ -->
     <g transform="translate(268.82375 270.96) scale(0.1 -0.1)">
      <defs>
       <path id="DejaVuSans-Oblique-61" d="M 3438 1997 
L 3047 0 
L 2472 0 
L 2578 531 
Q 2325 219 2001 64 
Q 1678 -91 1281 -91 
Q 834 -91 548 182 
Q 263 456 263 884 
Q 263 1497 752 1853 
Q 1241 2209 2100 2209 
L 2900 2209 
L 2931 2363 
Q 2938 2388 2941 2417 
Q 2944 2447 2944 2509 
Q 2944 2788 2717 2942 
Q 2491 3097 2081 3097 
Q 1800 3097 1504 3025 
Q 1209 2953 897 2809 
L 997 3341 
Q 1322 3463 1633 3523 
Q 1944 3584 2234 3584 
Q 2853 3584 3176 3315 
Q 3500 3047 3500 2534 
Q 3500 2431 3484 2292 
Q 3469 2153 3438 1997 
z
M 2816 1759 
L 2241 1759 
Q 1534 1759 1195 1570 
Q 856 1381 856 984 
Q 856 709 1029 553 
Q 1203 397 1509 397 
Q 1978 397 2328 733 
Q 2678 1069 2791 1631 
L 2816 1759 
z
" transform="scale(0.015625)"/>
       <path id="DejaVuSans-2c" d="M 750 794 
L 1409 794 
L 1409 256 
L 897 -744 
L 494 -744 
L 750 256 
L 750 794 
z
" transform="scale(0.015625)"/>
       <path id="DejaVuSans-Oblique-73" d="M 3200 3397 
L 3091 2853 
Q 2863 2978 2609 3040 
Q 2356 3103 2088 3103 
Q 1634 3103 1373 2948 
Q 1113 2794 1113 2528 
Q 1113 2219 1719 2053 
Q 1766 2041 1788 2034 
L 1972 1978 
Q 2547 1819 2739 1644 
Q 2931 1469 2931 1166 
Q 2931 609 2489 259 
Q 2047 -91 1331 -91 
Q 1053 -91 747 -37 
Q 441 16 72 128 
L 184 722 
Q 500 559 806 475 
Q 1113 391 1394 391 
Q 1816 391 2080 572 
Q 2344 753 2344 1031 
Q 2344 1331 1650 1516 
L 1591 1531 
L 1394 1581 
Q 956 1697 753 1886 
Q 550 2075 550 2369 
Q 550 2928 970 3256 
Q 1391 3584 2113 3584 
Q 2397 3584 2667 3537 
Q 2938 3491 3200 3397 
z
" transform="scale(0.015625)"/>
       <path id="DejaVuSans-70" d="M 1159 525 
L 1159 -1331 
L 581 -1331 
L 581 3500 
L 1159 3500 
L 1159 2969 
Q 1341 3281 1617 3432 
Q 1894 3584 2278 3584 
Q 2916 3584 3314 3078 
Q 3713 2572 3713 1747 
Q 3713 922 3314 415 
Q 2916 -91 2278 -91 
Q 1894 -91 1617 61 
Q 1341 213 1159 525 
z
M 3116 1747 
Q 3116 2381 2855 2742 
Q 2594 3103 2138 3103 
Q 1681 3103 1420 2742 
Q 1159 2381 1159 1747 
Q 1159 1113 1420 752 
Q 1681 391 2138 391 
Q 2594 391 2855 752 
Q 3116 1113 3116 1747 
z
" transform="scale(0.015625)"/>
       <path id="DejaVuSans-68" d="M 3513 2113 
L 3513 0 
L 2938 0 
L 2938 2094 
Q 2938 2591 2744 2837 
Q 2550 3084 2163 3084 
Q 1697 3084 1428 2787 
Q 1159 2491 1159 1978 
L 1159 0 
L 581 0 
L 581 4863 
L 1159 4863 
L 1159 2956 
Q 1366 3272 1645 3428 
Q 1925 3584 2291 3584 
Q 2894 3584 3203 3211 
Q 3513 2838 3513 2113 
z
" transform="scale(0.015625)"/>
       <path id="DejaVuSans-79" d="M 2059 -325 
Q 1816 -950 1584 -1140 
Q 1353 -1331 966 -1331 
L 506 -1331 
L 506 -850 
L 844 -850 
Q 1081 -850 1212 -737 
Q 1344 -625 1503 -206 
L 1606 56 
L 191 3500 
L 800 3500 
L 1894 763 
L 2988 3500 
L 3597 3500 
L 2059 -325 
z
" transform="scale(0.015625)"/>
       <path id="DejaVuSans-73" d="M 2834 3397 
L 2834 2853 
Q 2591 2978 2328 3040 
Q 2066 3103 1784 3103 
Q 1356 3103 1142 2972 
Q 928 2841 928 2578 
Q 928 2378 1081 2264 
Q 1234 2150 1697 2047 
L 1894 2003 
Q 2506 1872 2764 1633 
Q 3022 1394 3022 966 
Q 3022 478 2636 193 
Q 2250 -91 1575 -91 
Q 1294 -91 989 -36 
Q 684 19 347 128 
L 347 722 
Q 666 556 975 473 
Q 1284 391 1588 391 
Q 1994 391 2212 530 
Q 2431 669 2431 922 
Q 2431 1156 2273 1281 
Q 2116 1406 1581 1522 
L 1381 1569 
Q 847 1681 609 1914 
Q 372 2147 372 2553 
Q 372 3047 722 3315 
Q 1072 3584 1716 3584 
Q 2034 3584 2315 3537 
Q 2597 3491 2834 3397 
z
" transform="scale(0.015625)"/>
      </defs>
      <use xlink:href="#DejaVuSans-Oblique-61" transform="translate(0 0.0625)"/>
      <use xlink:href="#DejaVuSans-30" transform="translate(61.279297 -16.34375) scale(0.7)"/>
      <use xlink:href="#DejaVuSans-36" transform="translate(105.81543 -16.34375) scale(0.7)"/>
      <use xlink:href="#DejaVuSans-28" transform="translate(153.085938 0.0625)"/>
      <use xlink:href="#DejaVuSans-Oblique-6c" transform="translate(192.099609 0.0625)"/>
      <use xlink:href="#DejaVuSans-Oblique-46" transform="translate(219.882812 -16.34375) scale(0.7)"/>
      <use xlink:href="#DejaVuSans-2c" transform="translate(262.880859 0.0625)"/>
      <use xlink:href="#DejaVuSans-Oblique-73" transform="translate(314.150391 0.0625)"/>
      <use xlink:href="#DejaVuSans-70" transform="translate(370.899896 50.810938) scale(0.7)"/>
      <use xlink:href="#DejaVuSans-68" transform="translate(415.33349 50.810938) scale(0.7)"/>
      <use xlink:href="#DejaVuSans-79" transform="translate(459.698724 50.810938) scale(0.7)"/>
      <use xlink:href="#DejaVuSans-73" transform="translate(501.124505 50.810938) scale(0.7)"/>
      <use xlink:href="#DejaVuSans-Oblique-46" transform="translate(366.25 -27.28125) scale(0.7)"/>
      <use xlink:href="#DejaVuSans-29" transform="translate(540.328607 0.0625)"/>
     </g>
    </g>
    <g id="LineCollection_11">
     <path d="M 245.82375 285.66 
L 255.82375 285.66 
" style="fill: none; stroke: #51a7f9; stroke-width: 3"/>
    </g>
    <g id="LineCollection_12">
     <path d="M 250.82375 290.66 
L 250.82375 280.66 
" style="fill: none; stroke: #51a7f9; stroke-width: 3"/>
    </g>
    <g id="line2d_110">
     <path d="M 240.82375 285.66 
L 260.82375 285.66 
" style="fill: none; stroke: #51a7f9; stroke-width: 1.5; stroke-linecap: square"/>
    </g>
    <g id="line2d_111">
     <defs>
      <path id="m285e990451" d="M 0 4 
C 1.060812 4 2.078319 3.578535 2.828427 2.828427 
C 3.578535 2.078319 4 1.060812 4 0 
C 4 -1.060812 3.578535 -2.078319 2.828427 -2.828427 
C 2.078319 -3.578535 1.060812 -4 0 -4 
C -1.060812 -4 -2.078319 -3.578535 -2.828427 -2.828427 
C -3.578535 -2.078319 -4 -1.060812 -4 0 
C -4 1.060812 -3.578535 2.078319 -2.828427 2.828427 
C -2.078319 3.578535 -1.060812 4 0 4 
z
" style="stroke: #ffffff; stroke-width: 2"/>
     </defs>
     <g>
      <use xlink:href="#m285e990451" x="250.82375" y="285.66" style="fill: #51a7f9; stroke: #ffffff; stroke-width: 2"/>
     </g>
    </g>
    <g id="text_14">
     <!-- $a_{09}(l_F,s_F^{\rm phys})$ -->
     <g transform="translate(268.82375 289.16) scale(0.1 -0.1)">
      <defs>
       <path id="DejaVuSans-39" d="M 703 97 
L 703 672 
Q 941 559 1184 500 
Q 1428 441 1663 441 
Q 2288 441 2617 861 
Q 2947 1281 2994 2138 
Q 2813 1869 2534 1725 
Q 2256 1581 1919 1581 
Q 1219 1581 811 2004 
Q 403 2428 403 3163 
Q 403 3881 828 4315 
Q 1253 4750 1959 4750 
Q 2769 4750 3195 4129 
Q 3622 3509 3622 2328 
Q 3622 1225 3098 567 
Q 2575 -91 1691 -91 
Q 1453 -91 1209 -44 
Q 966 3 703 97 
z
M 1959 2075 
Q 2384 2075 2632 2365 
Q 2881 2656 2881 3163 
Q 2881 3666 2632 3958 
Q 2384 4250 1959 4250 
Q 1534 4250 1286 3958 
Q 1038 3666 1038 3163 
Q 1038 2656 1286 2365 
Q 1534 2075 1959 2075 
z
" transform="scale(0.015625)"/>
      </defs>
      <use xlink:href="#DejaVuSans-Oblique-61" transform="translate(0 0.0625)"/>
      <use xlink:href="#DejaVuSans-30" transform="translate(61.279297 -16.34375) scale(0.7)"/>
      <use xlink:href="#DejaVuSans-39" transform="translate(105.81543 -16.34375) scale(0.7)"/>
      <use xlink:href="#DejaVuSans-28" transform="translate(153.085938 0.0625)"/>
      <use xlink:href="#DejaVuSans-Oblique-6c" transform="translate(192.099609 0.0625)"/>
      <use xlink:href="#DejaVuSans-Oblique-46" transform="translate(219.882812 -16.34375) scale(0.7)"/>
      <use xlink:href="#DejaVuSans-2c" transform="translate(262.880859 0.0625)"/>
      <use xlink:href="#DejaVuSans-Oblique-73" transform="translate(314.150391 0.0625)"/>
      <use xlink:href="#DejaVuSans-70" transform="translate(370.899896 50.810938) scale(0.7)"/>
      <use xlink:href="#DejaVuSans-68" transform="translate(415.33349 50.810938) scale(0.7)"/>
      <use xlink:href="#DejaVuSans-79" transform="translate(459.698724 50.810938) scale(0.7)"/>
      <use xlink:href="#DejaVuSans-73" transform="translate(501.124505 50.810938) scale(0.7)"/>
      <use xlink:href="#DejaVuSans-Oblique-46" transform="translate(366.25 -27.28125) scale(0.7)"/>
      <use xlink:href="#DejaVuSans-29" transform="translate(540.328607 0.0625)"/>
     </g>
    </g>
    <g id="LineCollection_13">
     <path d="M 351.82375 267.46 
L 361.82375 267.46 
" style="fill: none; stroke: #70bf41; stroke-width: 3"/>
    </g>
    <g id="LineCollection_14">
     <path d="M 356.82375 272.46 
L 356.82375 262.46 
" style="fill: none; stroke: #70bf41; stroke-width: 3"/>
    </g>
    <g id="line2d_112">
     <path d="M 346.82375 267.46 
L 366.82375 267.46 
" style="fill: none; stroke: #70bf41; stroke-width: 1.5; stroke-linecap: square"/>
    </g>
    <g id="line2d_113">
     <defs>
      <path id="md493695821" d="M 0 4 
C 1.060812 4 2.078319 3.578535 2.828427 2.828427 
C 3.578535 2.078319 4 1.060812 4 0 
C 4 -1.060812 3.578535 -2.078319 2.828427 -2.828427 
C 2.078319 -3.578535 1.060812 -4 0 -4 
C -1.060812 -4 -2.078319 -3.578535 -2.828427 -2.828427 
C -3.578535 -2.078319 -4 -1.060812 -4 0 
C -4 1.060812 -3.578535 2.078319 -2.828427 2.828427 
C -2.078319 3.578535 -1.060812 4 0 4 
z
" style="stroke: #ffffff; stroke-width: 2"/>
     </defs>
     <g>
      <use xlink:href="#md493695821" x="356.82375" y="267.46" style="fill: #70bf41; stroke: #ffffff; stroke-width: 2"/>
     </g>
    </g>
    <g id="text_15">
     <!-- $a_{12}(l_F,s_F^{\rm phys})$ -->
     <g transform="translate(374.82375 270.96) scale(0.1 -0.1)">
      <use xlink:href="#DejaVuSans-Oblique-61" transform="translate(0 0.0625)"/>
      <use xlink:href="#DejaVuSans-31" transform="translate(61.279297 -16.34375) scale(0.7)"/>
      <use xlink:href="#DejaVuSans-32" transform="translate(105.81543 -16.34375) scale(0.7)"/>
      <use xlink:href="#DejaVuSans-28" transform="translate(153.085938 0.0625)"/>
      <use xlink:href="#DejaVuSans-Oblique-6c" transform="translate(192.099609 0.0625)"/>
      <use xlink:href="#DejaVuSans-Oblique-46" transform="translate(219.882812 -16.34375) scale(0.7)"/>
      <use xlink:href="#DejaVuSans-2c" transform="translate(262.880859 0.0625)"/>
      <use xlink:href="#DejaVuSans-Oblique-73" transform="translate(314.150391 0.0625)"/>
      <use xlink:href="#DejaVuSans-70" transform="translate(370.899896 50.810938) scale(0.7)"/>
      <use xlink:href="#DejaVuSans-68" transform="translate(415.33349 50.810938) scale(0.7)"/>
      <use xlink:href="#DejaVuSans-79" transform="translate(459.698724 50.810938) scale(0.7)"/>
      <use xlink:href="#DejaVuSans-73" transform="translate(501.124505 50.810938) scale(0.7)"/>
      <use xlink:href="#DejaVuSans-Oblique-46" transform="translate(366.25 -27.28125) scale(0.7)"/>
      <use xlink:href="#DejaVuSans-29" transform="translate(540.328607 0.0625)"/>
     </g>
    </g>
    <g id="LineCollection_15">
     <path d="M 351.82375 285.66 
L 361.82375 285.66 
" style="fill: none; stroke: #ec5d57; stroke-width: 3"/>
    </g>
    <g id="LineCollection_16">
     <path d="M 356.82375 290.66 
L 356.82375 280.66 
" style="fill: none; stroke: #ec5d57; stroke-width: 3"/>
    </g>
    <g id="line2d_114">
     <path d="M 346.82375 285.66 
L 366.82375 285.66 
" style="fill: none; stroke: #ec5d57; stroke-width: 1.5; stroke-linecap: square"/>
    </g>
    <g id="line2d_115">
     <defs>
      <path id="me7fdedb6d8" d="M 0 4 
C 1.060812 4 2.078319 3.578535 2.828427 2.828427 
C 3.578535 2.078319 4 1.060812 4 0 
C 4 -1.060812 3.578535 -2.078319 2.828427 -2.828427 
C 2.078319 -3.578535 1.060812 -4 0 -4 
C -1.060812 -4 -2.078319 -3.578535 -2.828427 -2.828427 
C -3.578535 -2.078319 -4 -1.060812 -4 0 
C -4 1.060812 -3.578535 2.078319 -2.828427 2.828427 
C -2.078319 3.578535 -1.060812 4 0 4 
z
" style="stroke: #ffffff; stroke-width: 2"/>
     </defs>
     <g>
      <use xlink:href="#me7fdedb6d8" x="356.82375" y="285.66" style="fill: #ec5d57; stroke: #ffffff; stroke-width: 2"/>
     </g>
    </g>
    <g id="text_16">
     <!-- $a_{15}(l_F,s_F^{\rm phys})$ -->
     <g transform="translate(374.82375 289.16) scale(0.1 -0.1)">
      <use xlink:href="#DejaVuSans-Oblique-61" transform="translate(0 0.0625)"/>
      <use xlink:href="#DejaVuSans-31" transform="translate(61.279297 -16.34375) scale(0.7)"/>
      <use xlink:href="#DejaVuSans-35" transform="translate(105.81543 -16.34375) scale(0.7)"/>
      <use xlink:href="#DejaVuSans-28" transform="translate(153.085938 0.0625)"/>
      <use xlink:href="#DejaVuSans-Oblique-6c" transform="translate(192.099609 0.0625)"/>
      <use xlink:href="#DejaVuSans-Oblique-46" transform="translate(219.882812 -16.34375) scale(0.7)"/>
      <use xlink:href="#DejaVuSans-2c" transform="translate(262.880859 0.0625)"/>
      <use xlink:href="#DejaVuSans-Oblique-73" transform="translate(314.150391 0.0625)"/>
      <use xlink:href="#DejaVuSans-70" transform="translate(370.899896 50.810938) scale(0.7)"/>
      <use xlink:href="#DejaVuSans-68" transform="translate(415.33349 50.810938) scale(0.7)"/>
      <use xlink:href="#DejaVuSans-79" transform="translate(459.698724 50.810938) scale(0.7)"/>
      <use xlink:href="#DejaVuSans-73" transform="translate(501.124505 50.810938) scale(0.7)"/>
      <use xlink:href="#DejaVuSans-Oblique-46" transform="translate(366.25 -27.28125) scale(0.7)"/>
      <use xlink:href="#DejaVuSans-29" transform="translate(540.328607 0.0625)"/>
     </g>
    </g>
   </g>
  </g>
 </g>
 <defs>
  <clipPath id="pd258026e2b">
   <rect x="50.14375" y="7.2" width="391.68" height="293.76"/>
  </clipPath>
 </defs>
 <defs>
  <pattern id="hb2cdcd6f8d" patternUnits="userSpaceOnUse" x="0" y="0" width="72" height="72">
   <rect x="0" y="0" width="73" height="73" fill="none"/>
   <path d="M -36 36 
L 36 -36 
M -24 48 
L 48 -24 
M -12 60 
L 60 -12 
M 0 72 
L 72 0 
M 12 84 
L 84 12 
M 24 96 
L 96 24 
M 36 108 
L 108 36 
" style="fill: #000000; stroke: #000000; stroke-width: 1.0; stroke-linecap: butt; stroke-linejoin: miter; stroke-opacity: 0.6"/>
  </pattern>
 </defs>
</svg>
