<?xml version="1.0" encoding="utf-8" standalone="no"?>
<!DOCTYPE svg PUBLIC "-//W3C//DTD SVG 1.1//EN"
  "http://www.w3.org/Graphics/SVG/1.1/DTD/svg11.dtd">
<svg xmlns:xlink="http://www.w3.org/1999/xlink" width="449.02375pt" height="340.738125pt" viewBox="0 0 449.02375 340.738125" xmlns="http://www.w3.org/2000/svg" version="1.1">
 <metadata>
  <rdf:RDF xmlns:dc="http://purl.org/dc/elements/1.1/" xmlns:cc="http://creativecommons.org/ns#" xmlns:rdf="http://www.w3.org/1999/02/22-rdf-syntax-ns#">
   <cc:Work>
    <dc:type rdf:resource="http://purl.org/dc/dcmitype/StillImage"/>
    <dc:date>2025-03-01T16:01:37.315295</dc:date>
    <dc:format>image/svg+xml</dc:format>
    <dc:creator>
     <cc:Agent>
      <dc:title>Matplotlib v3.10.0, https://matplotlib.org/</dc:title>
     </cc:Agent>
    </dc:creator>
   </cc:Work>
  </rdf:RDF>
 </metadata>
 <defs>
  <style type="text/css">*{stroke-linejoin: round; stroke-linecap: butt}</style>
 </defs>
 <g id="figure_1">
  <g id="patch_1">
   <path d="M 0 340.738125 
L 449.02375 340.738125 
L 449.02375 0 
L 0 0 
z
" style="fill: #ffffff"/>
  </g>
  <g id="axes_1">
   <g id="patch_2">
    <path d="M 50.14375 300.96 
L 441.82375 300.96 
L 441.82375 7.2 
L 50.14375 7.2 
z
" style="fill: #ffffff"/>
   </g>
   <g id="FillBetweenPolyCollection_1">
    <path d="M 69.82198 124.844858 
L 69.82198 173.193743 
L 76.999577 169.769495 
L 84.177174 166.370001 
L 91.354771 162.995118 
L 98.532368 159.644707 
L 105.709965 156.318633 
L 112.887562 153.016771 
L 120.06516 149.739001 
L 127.242757 146.485214 
L 134.420354 143.255311 
L 141.597951 140.049206 
L 148.775548 136.866827 
L 155.953145 133.708118 
L 163.130742 130.573043 
L 170.308339 127.461584 
L 177.485936 124.37375 
L 184.663533 121.309575 
L 191.84113 118.269124 
L 199.018727 115.252499 
L 206.196324 112.259839 
L 213.373921 109.291331 
L 220.551519 106.347211 
L 227.729116 103.427778 
L 234.906713 100.533397 
L 242.08431 97.664512 
L 249.261907 94.821657 
L 256.439504 92.005469 
L 263.617101 89.216707 
L 270.794698 86.456266 
L 277.972295 83.725201 
L 285.149892 81.024752 
L 292.327489 78.356365 
L 299.505086 75.721732 
L 306.682683 73.122811 
L 313.86028 70.56187 
L 321.037877 68.04151 
L 328.215475 65.564699 
L 335.393072 63.134784 
L 342.570669 60.755495 
L 349.748266 58.430923 
L 356.925863 56.16546 
L 364.10346 53.963699 
L 371.281057 51.830287 
L 378.458654 49.769729 
L 385.636251 47.786166 
L 392.813848 45.883136 
L 399.991445 44.06337 
L 407.169042 42.328642 
L 414.346639 40.679707 
L 421.524236 39.116337 
L 421.524236 20.552727 
L 421.524236 20.552727 
L 414.346639 22.599289 
L 407.169042 24.617016 
L 399.991445 26.605394 
L 392.813848 28.564897 
L 385.636251 30.497012 
L 378.458654 32.404187 
L 371.281057 34.289678 
L 364.10346 36.15734 
L 356.925863 38.011394 
L 349.748266 39.856205 
L 342.570669 41.696081 
L 335.393072 43.53513 
L 328.215475 45.377159 
L 321.037877 47.225614 
L 313.86028 49.083559 
L 306.682683 50.953677 
L 299.505086 52.838286 
L 292.327489 54.739369 
L 285.149892 56.658602 
L 277.972295 58.59739 
L 270.794698 60.556898 
L 263.617101 62.538082 
L 256.439504 64.541711 
L 249.261907 66.568398 
L 242.08431 68.618617 
L 234.906713 70.692721 
L 227.729116 72.790962 
L 220.551519 74.913498 
L 213.373921 77.060412 
L 206.196324 79.231716 
L 199.018727 81.427365 
L 191.84113 83.647261 
L 184.663533 85.891259 
L 177.485936 88.159178 
L 170.308339 90.450797 
L 163.130742 92.765869 
L 155.953145 95.104117 
L 148.775548 97.46524 
L 141.597951 99.848918 
L 134.420354 102.254811 
L 127.242757 104.682563 
L 120.06516 107.131804 
L 112.887562 109.602151 
L 105.709965 112.093211 
L 98.532368 114.604582 
L 91.354771 117.135852 
L 84.177174 119.686604 
L 76.999577 122.256416 
L 69.82198 124.844858 
z
" clip-path="url(#pb2b72b7a0a)" style="fill: url(#h8fe0a5363d); stroke: #000000; stroke-opacity: 0.6"/>
   </g>
   <g id="FillBetweenPolyCollection_2">
    <defs>
     <path id="m1253ad847e" d="M 69.82198 -89.861296 
L 69.82198 -53.130852 
L 76.999577 -57.185907 
L 84.177174 -61.212142 
L 91.354771 -65.209751 
L 98.532368 -69.178941 
L 105.709965 -73.119935 
L 112.887562 -77.032968 
L 120.06516 -80.91829 
L 127.242757 -84.776164 
L 134.420354 -88.606862 
L 141.597951 -92.41067 
L 148.775548 -96.187886 
L 155.953145 -99.938812 
L 163.130742 -103.663765 
L 170.308339 -107.363064 
L 177.485936 -111.037037 
L 184.663533 -114.686015 
L 191.84113 -118.310336 
L 199.018727 -121.910334 
L 206.196324 -125.48635 
L 213.373921 -129.038718 
L 220.551519 -132.567772 
L 227.729116 -136.073841 
L 234.906713 -139.557245 
L 242.08431 -143.018296 
L 249.261907 -146.457293 
L 256.439504 -149.87452 
L 263.617101 -153.27024 
L 270.794698 -156.644695 
L 277.972295 -159.998095 
L 285.149892 -163.330617 
L 292.327489 -166.64239 
L 299.505086 -169.933485 
L 306.682683 -173.203904 
L 313.86028 -176.453548 
L 321.037877 -179.682196 
L 328.215475 -182.889455 
L 335.393072 -186.074697 
L 342.570669 -189.236965 
L 349.748266 -192.374826 
L 356.925863 -195.486149 
L 364.10346 -198.567752 
L 371.281057 -201.614845 
L 378.458654 -204.620161 
L 385.636251 -207.572668 
L 392.813848 -210.455967 
L 399.991445 -213.247241 
L 407.169042 -215.919349 
L 414.346639 -218.449133 
L 421.524236 -220.828922 
L 421.524236 -225.297573 
L 421.524236 -225.297573 
L 414.346639 -222.662972 
L 407.169042 -220.125084 
L 399.991445 -217.676521 
L 392.813848 -215.29441 
L 385.636251 -212.951894 
L 378.458654 -210.626439 
L 371.281057 -208.301931 
L 364.10346 -205.96762 
L 356.925863 -203.616525 
L 349.748266 -201.244139 
L 342.570669 -198.847564 
L 335.393072 -196.424953 
L 328.215475 -193.975157 
L 321.037877 -191.497502 
L 313.86028 -188.991646 
L 306.682683 -186.457477 
L 299.505086 -183.89506 
L 292.327489 -181.304579 
L 285.149892 -178.68632 
L 277.972295 -176.040638 
L 270.794698 -173.367947 
L 263.617101 -170.668706 
L 256.439504 -167.94341 
L 249.261907 -165.192584 
L 242.08431 -162.416776 
L 234.906713 -159.616554 
L 227.729116 -156.7925 
L 220.551519 -153.945209 
L 213.373921 -151.075288 
L 206.196324 -148.183347 
L 199.018727 -145.270005 
L 191.84113 -142.33588 
L 184.663533 -139.381596 
L 177.485936 -136.407773 
L 170.308339 -133.415031 
L 163.130742 -130.403985 
L 155.953145 -127.375247 
L 148.775548 -124.329421 
L 141.597951 -121.267106 
L 134.420354 -118.188891 
L 127.242757 -115.095355 
L 120.06516 -111.987068 
L 112.887562 -108.864587 
L 105.709965 -105.728459 
L 98.532368 -102.579217 
L 91.354771 -99.417381 
L 84.177174 -96.243457 
L 76.999577 -93.057936 
L 69.82198 -89.861296 
z
" style="stroke: #ec5d57; stroke-opacity: 0.4"/>
    </defs>
    <g clip-path="url(#pb2b72b7a0a)">
     <use xlink:href="#m1253ad847e" x="0" y="340.738125" style="fill: #ec5d57; fill-opacity: 0.4; stroke: #ec5d57; stroke-opacity: 0.4"/>
    </g>
   </g>
   <g id="FillBetweenPolyCollection_3">
    <defs>
     <path id="m98a2c8cd76" d="M 69.82198 -139.243267 
L 69.82198 -110.067509 
L 76.999577 -113.818736 
L 84.177174 -117.540981 
L 91.354771 -121.234538 
L 98.532368 -124.899717 
L 105.709965 -128.536846 
L 112.887562 -132.146267 
L 120.06516 -135.728335 
L 127.242757 -139.283419 
L 134.420354 -142.811899 
L 141.597951 -146.314162 
L 148.775548 -149.790604 
L 155.953145 -153.241629 
L 163.130742 -156.66764 
L 170.308339 -160.069046 
L 177.485936 -163.446254 
L 184.663533 -166.799669 
L 191.84113 -170.129692 
L 199.018727 -173.436717 
L 206.196324 -176.721129 
L 213.373921 -179.9833 
L 220.551519 -183.223589 
L 227.729116 -186.442337 
L 234.906713 -189.639864 
L 242.08431 -192.816464 
L 249.261907 -195.972401 
L 256.439504 -199.107902 
L 263.617101 -202.22315 
L 270.794698 -205.318274 
L 277.972295 -208.393333 
L 285.149892 -211.448302 
L 292.327489 -214.483041 
L 299.505086 -217.497264 
L 306.682683 -220.490486 
L 313.86028 -223.461944 
L 321.037877 -226.410488 
L 328.215475 -229.334405 
L 335.393072 -232.231155 
L 342.570669 -235.096953 
L 349.748266 -237.926127 
L 356.925863 -240.71016 
L 364.10346 -243.436419 
L 371.281057 -246.087002 
L 378.458654 -248.639161 
L 385.636251 -251.069929 
L 392.813848 -253.365247 
L 399.991445 -255.526799 
L 407.169042 -257.569124 
L 414.346639 -259.510849 
L 421.524236 -261.368313 
L 421.524236 -267.86239 
L 421.524236 -267.86239 
L 414.346639 -265.208919 
L 407.169042 -262.585188 
L 399.991445 -260.007824 
L 392.813848 -257.495734 
L 385.636251 -255.063743 
L 378.458654 -252.713818 
L 371.281057 -250.432185 
L 364.10346 -248.196159 
L 356.925863 -245.983279 
L 349.748266 -243.775923 
L 342.570669 -241.561745 
L 335.393072 -239.33251 
L 328.215475 -237.082831 
L 321.037877 -234.809207 
L 313.86028 -232.50938 
L 306.682683 -230.181924 
L 299.505086 -227.82597 
L 292.327489 -225.441041 
L 285.149892 -223.026935 
L 277.972295 -220.583649 
L 270.794698 -218.111329 
L 263.617101 -215.610232 
L 256.439504 -213.080702 
L 249.261907 -210.523151 
L 242.08431 -207.938047 
L 234.906713 -205.3259 
L 227.729116 -202.687258 
L 220.551519 -200.022699 
L 213.373921 -197.332828 
L 206.196324 -194.618268 
L 199.018727 -191.879663 
L 191.84113 -189.117668 
L 184.663533 -186.332954 
L 177.485936 -183.526197 
L 170.308339 -180.698082 
L 163.130742 -177.849298 
L 155.953145 -174.980537 
L 148.775548 -172.09249 
L 141.597951 -169.185846 
L 134.420354 -166.261292 
L 127.242757 -163.319507 
L 120.06516 -160.361163 
L 112.887562 -157.386924 
L 105.709965 -154.397442 
L 98.532368 -151.393356 
L 91.354771 -148.375293 
L 84.177174 -145.343863 
L 76.999577 -142.299662 
L 69.82198 -139.243267 
z
" style="stroke: #70bf41; stroke-opacity: 0.4"/>
    </defs>
    <g clip-path="url(#pb2b72b7a0a)">
     <use xlink:href="#m98a2c8cd76" x="0" y="340.738125" style="fill: #70bf41; fill-opacity: 0.4; stroke: #70bf41; stroke-opacity: 0.4"/>
    </g>
   </g>
   <g id="FillBetweenPolyCollection_4">
    <defs>
     <path id="m3ddf4537a7" d="M 69.82198 -177.37087 
L 69.82198 -143.578639 
L 76.999577 -147.143662 
L 84.177174 -150.682077 
L 91.354771 -154.19417 
L 98.532368 -157.680235 
L 105.709965 -161.140567 
L 112.887562 -164.575467 
L 120.06516 -167.985239 
L 127.242757 -171.370187 
L 134.420354 -174.730616 
L 141.597951 -178.066829 
L 148.775548 -181.379127 
L 155.953145 -184.667805 
L 163.130742 -187.933153 
L 170.308339 -191.175454 
L 177.485936 -194.394978 
L 184.663533 -197.591985 
L 191.84113 -200.766722 
L 199.018727 -203.919415 
L 206.196324 -207.050274 
L 213.373921 -210.159482 
L 220.551519 -213.247195 
L 227.729116 -216.313538 
L 234.906713 -219.358593 
L 242.08431 -222.382398 
L 249.261907 -225.384933 
L 256.439504 -228.366111 
L 263.617101 -231.32576 
L 270.794698 -234.263605 
L 277.972295 -237.179238 
L 285.149892 -240.072091 
L 292.327489 -242.941382 
L 299.505086 -245.78606 
L 306.682683 -248.604715 
L 313.86028 -251.395475 
L 321.037877 -254.155849 
L 328.215475 -256.882529 
L 335.393072 -259.571133 
L 342.570669 -262.215893 
L 349.748266 -264.809309 
L 356.925863 -267.341892 
L 364.10346 -269.802171 
L 371.281057 -272.17732 
L 378.458654 -274.454693 
L 385.636251 -276.6242 
L 392.813848 -278.680643 
L 399.991445 -280.624755 
L 407.169042 -282.4623 
L 414.346639 -284.201933 
L 421.524236 -285.853027 
L 421.524236 -295.260621 
L 421.524236 -295.260621 
L 414.346639 -292.829193 
L 407.169042 -290.430732 
L 399.991445 -288.074898 
L 392.813848 -285.770627 
L 385.636251 -283.523969 
L 378.458654 -281.335939 
L 371.281057 -279.201625 
L 364.10346 -277.111219 
L 356.925863 -275.05236 
L 349.748266 -273.012505 
L 342.570669 -270.980468 
L 335.393072 -268.947042 
L 328.215475 -266.905014 
L 321.037877 -264.848897 
L 313.86028 -262.774594 
L 306.682683 -260.679082 
L 299.505086 -258.560152 
L 292.327489 -256.416216 
L 285.149892 -254.24615 
L 277.972295 -252.049185 
L 270.794698 -249.824824 
L 263.617101 -247.572781 
L 256.439504 -245.292934 
L 249.261907 -242.985291 
L 242.08431 -240.649965 
L 234.906713 -238.28715 
L 227.729116 -235.897113 
L 220.551519 -233.480174 
L 213.373921 -231.036701 
L 206.196324 -228.5671 
L 199.018727 -226.071812 
L 191.84113 -223.551306 
L 184.663533 -221.006073 
L 177.485936 -218.436625 
L 170.308339 -215.843491 
L 163.130742 -213.227216 
L 155.953145 -210.588355 
L 148.775548 -207.927473 
L 141.597951 -205.245144 
L 134.420354 -202.541948 
L 127.242757 -199.818469 
L 120.06516 -197.075294 
L 112.887562 -194.313013 
L 105.709965 -191.532212 
L 98.532368 -188.733481 
L 91.354771 -185.917403 
L 84.177174 -183.084559 
L 76.999577 -180.235525 
L 69.82198 -177.37087 
z
" style="stroke: #51a7f9; stroke-opacity: 0.4"/>
    </defs>
    <g clip-path="url(#pb2b72b7a0a)">
     <use xlink:href="#m3ddf4537a7" x="0" y="340.738125" style="fill: #51a7f9; fill-opacity: 0.4; stroke: #51a7f9; stroke-opacity: 0.4"/>
    </g>
   </g>
   <g id="FillBetweenPolyCollection_5">
    <defs>
     <path id="mcbbf231a4d" d="M 69.82198 -199.934193 
L 69.82198 -158.770528 
L 76.999577 -162.250132 
L 84.177174 -165.704477 
L 91.354771 -169.133776 
L 98.532368 -172.538242 
L 105.709965 -175.918085 
L 112.887562 -179.273513 
L 120.06516 -182.60473 
L 127.242757 -185.911935 
L 134.420354 -189.195321 
L 141.597951 -192.455073 
L 148.775548 -195.691365 
L 155.953145 -198.904363 
L 163.130742 -202.094217 
L 170.308339 -205.261062 
L 177.485936 -208.405018 
L 184.663533 -211.526182 
L 191.84113 -214.624628 
L 199.018727 -217.700402 
L 206.196324 -220.753519 
L 213.373921 -223.783958 
L 220.551519 -226.791653 
L 227.729116 -229.776491 
L 234.906713 -232.738299 
L 242.08431 -235.676836 
L 249.261907 -238.59178 
L 256.439504 -241.482713 
L 263.617101 -244.349103 
L 270.794698 -247.19028 
L 277.972295 -250.005413 
L 285.149892 -252.793469 
L 292.327489 -255.553181 
L 299.505086 -258.282992 
L 306.682683 -260.980999 
L 313.86028 -263.644885 
L 321.037877 -266.271838 
L 328.215475 -268.858469 
L 335.393072 -271.400728 
L 342.570669 -273.893838 
L 349.748266 -276.332264 
L 356.925863 -278.709763 
L 364.10346 -281.019539 
L 371.281057 -283.254558 
L 378.458654 -285.408025 
L 385.636251 -287.473977 
L 392.813848 -289.447897 
L 399.991445 -291.327179 
L 407.169042 -293.111316 
L 414.346639 -294.801754 
L 421.524236 -296.40148 
L 421.524236 -309.960482 
L 421.524236 -309.960482 
L 414.346639 -307.748888 
L 407.169042 -305.571769 
L 399.991445 -303.432399 
L 392.813848 -301.332505 
L 385.636251 -299.271865 
L 378.458654 -297.248157 
L 371.281057 -295.257148 
L 364.10346 -293.29316 
L 356.925863 -291.34968 
L 349.748266 -289.419958 
L 342.570669 -287.497483 
L 335.393072 -285.576294 
L 328.215475 -283.651143 
L 321.037877 -281.717535 
L 313.86028 -279.771704 
L 306.682683 -277.810544 
L 299.505086 -275.831529 
L 292.327489 -273.832624 
L 285.149892 -271.812211 
L 277.972295 -269.769017 
L 270.794698 -267.702057 
L 263.617101 -265.610585 
L 256.439504 -263.494052 
L 249.261907 -261.352071 
L 242.08431 -259.184396 
L 234.906713 -256.990892 
L 227.729116 -254.771521 
L 220.551519 -252.526325 
L 213.373921 -250.255417 
L 206.196324 -247.958965 
L 199.018727 -245.637189 
L 191.84113 -243.290351 
L 184.663533 -240.91875 
L 177.485936 -238.522717 
L 170.308339 -236.102609 
L 163.130742 -233.658807 
L 155.953145 -231.191714 
L 148.775548 -228.70175 
L 141.597951 -226.189349 
L 134.420354 -223.65496 
L 127.242757 -221.099042 
L 120.06516 -218.522063 
L 112.887562 -215.9245 
L 105.709965 -213.306836 
L 98.532368 -210.669559 
L 91.354771 -208.013162 
L 84.177174 -205.338137 
L 76.999577 -202.644982 
L 69.82198 -199.934193 
z
" style="stroke: #6a5acd; stroke-opacity: 0.4"/>
    </defs>
    <g clip-path="url(#pb2b72b7a0a)">
     <use xlink:href="#mcbbf231a4d" x="0" y="340.738125" style="fill: #6a5acd; fill-opacity: 0.4; stroke: #6a5acd; stroke-opacity: 0.4"/>
    </g>
   </g>
   <g id="matplotlib.axis_1">
    <g id="xtick_1">
     <g id="line2d_1">
      <defs>
       <path id="mddc9e55966" d="M 0 0 
L 0 3.5 
" style="stroke: #000000; stroke-width: 0.8"/>
      </defs>
      <g>
       <use xlink:href="#mddc9e55966" x="69.751553" y="300.96" style="stroke: #000000; stroke-width: 0.8"/>
      </g>
     </g>
     <g id="text_1">
      <!-- 0.20 -->
      <g transform="translate(58.618741 315.558438) scale(0.1 -0.1)">
       <defs>
        <path id="DejaVuSans-30" d="M 2034 4250 
Q 1547 4250 1301 3770 
Q 1056 3291 1056 2328 
Q 1056 1369 1301 889 
Q 1547 409 2034 409 
Q 2525 409 2770 889 
Q 3016 1369 3016 2328 
Q 3016 3291 2770 3770 
Q 2525 4250 2034 4250 
z
M 2034 4750 
Q 2819 4750 3233 4129 
Q 3647 3509 3647 2328 
Q 3647 1150 3233 529 
Q 2819 -91 2034 -91 
Q 1250 -91 836 529 
Q 422 1150 422 2328 
Q 422 3509 836 4129 
Q 1250 4750 2034 4750 
z
" transform="scale(0.015625)"/>
        <path id="DejaVuSans-2e" d="M 684 794 
L 1344 794 
L 1344 0 
L 684 0 
L 684 794 
z
" transform="scale(0.015625)"/>
        <path id="DejaVuSans-32" d="M 1228 531 
L 3431 531 
L 3431 0 
L 469 0 
L 469 531 
Q 828 903 1448 1529 
Q 2069 2156 2228 2338 
Q 2531 2678 2651 2914 
Q 2772 3150 2772 3378 
Q 2772 3750 2511 3984 
Q 2250 4219 1831 4219 
Q 1534 4219 1204 4116 
Q 875 4013 500 3803 
L 500 4441 
Q 881 4594 1212 4672 
Q 1544 4750 1819 4750 
Q 2544 4750 2975 4387 
Q 3406 4025 3406 3419 
Q 3406 3131 3298 2873 
Q 3191 2616 2906 2266 
Q 2828 2175 2409 1742 
Q 1991 1309 1228 531 
z
" transform="scale(0.015625)"/>
       </defs>
       <use xlink:href="#DejaVuSans-30"/>
       <use xlink:href="#DejaVuSans-2e" transform="translate(63.623047 0)"/>
       <use xlink:href="#DejaVuSans-32" transform="translate(95.410156 0)"/>
       <use xlink:href="#DejaVuSans-30" transform="translate(159.033203 0)"/>
      </g>
     </g>
    </g>
    <g id="xtick_2">
     <g id="line2d_2">
      <g>
       <use xlink:href="#mddc9e55966" x="113.479242" y="300.96" style="stroke: #000000; stroke-width: 0.8"/>
      </g>
     </g>
     <g id="text_2">
      <!-- 0.22 -->
      <g transform="translate(102.346429 315.558438) scale(0.1 -0.1)">
       <use xlink:href="#DejaVuSans-30"/>
       <use xlink:href="#DejaVuSans-2e" transform="translate(63.623047 0)"/>
       <use xlink:href="#DejaVuSans-32" transform="translate(95.410156 0)"/>
       <use xlink:href="#DejaVuSans-32" transform="translate(159.033203 0)"/>
      </g>
     </g>
    </g>
    <g id="xtick_3">
     <g id="line2d_3">
      <g>
       <use xlink:href="#mddc9e55966" x="157.206931" y="300.96" style="stroke: #000000; stroke-width: 0.8"/>
      </g>
     </g>
     <g id="text_3">
      <!-- 0.24 -->
      <g transform="translate(146.074118 315.558438) scale(0.1 -0.1)">
       <defs>
        <path id="DejaVuSans-34" d="M 2419 4116 
L 825 1625 
L 2419 1625 
L 2419 4116 
z
M 2253 4666 
L 3047 4666 
L 3047 1625 
L 3713 1625 
L 3713 1100 
L 3047 1100 
L 3047 0 
L 2419 0 
L 2419 1100 
L 313 1100 
L 313 1709 
L 2253 4666 
z
" transform="scale(0.015625)"/>
       </defs>
       <use xlink:href="#DejaVuSans-30"/>
       <use xlink:href="#DejaVuSans-2e" transform="translate(63.623047 0)"/>
       <use xlink:href="#DejaVuSans-32" transform="translate(95.410156 0)"/>
       <use xlink:href="#DejaVuSans-34" transform="translate(159.033203 0)"/>
      </g>
     </g>
    </g>
    <g id="xtick_4">
     <g id="line2d_4">
      <g>
       <use xlink:href="#mddc9e55966" x="200.934619" y="300.96" style="stroke: #000000; stroke-width: 0.8"/>
      </g>
     </g>
     <g id="text_4">
      <!-- 0.26 -->
      <g transform="translate(189.801807 315.558438) scale(0.1 -0.1)">
       <defs>
        <path id="DejaVuSans-36" d="M 2113 2584 
Q 1688 2584 1439 2293 
Q 1191 2003 1191 1497 
Q 1191 994 1439 701 
Q 1688 409 2113 409 
Q 2538 409 2786 701 
Q 3034 994 3034 1497 
Q 3034 2003 2786 2293 
Q 2538 2584 2113 2584 
z
M 3366 4563 
L 3366 3988 
Q 3128 4100 2886 4159 
Q 2644 4219 2406 4219 
Q 1781 4219 1451 3797 
Q 1122 3375 1075 2522 
Q 1259 2794 1537 2939 
Q 1816 3084 2150 3084 
Q 2853 3084 3261 2657 
Q 3669 2231 3669 1497 
Q 3669 778 3244 343 
Q 2819 -91 2113 -91 
Q 1303 -91 875 529 
Q 447 1150 447 2328 
Q 447 3434 972 4092 
Q 1497 4750 2381 4750 
Q 2619 4750 2861 4703 
Q 3103 4656 3366 4563 
z
" transform="scale(0.015625)"/>
       </defs>
       <use xlink:href="#DejaVuSans-30"/>
       <use xlink:href="#DejaVuSans-2e" transform="translate(63.623047 0)"/>
       <use xlink:href="#DejaVuSans-32" transform="translate(95.410156 0)"/>
       <use xlink:href="#DejaVuSans-36" transform="translate(159.033203 0)"/>
      </g>
     </g>
    </g>
    <g id="xtick_5">
     <g id="line2d_5">
      <g>
       <use xlink:href="#mddc9e55966" x="244.662308" y="300.96" style="stroke: #000000; stroke-width: 0.8"/>
      </g>
     </g>
     <g id="text_5">
      <!-- 0.28 -->
      <g transform="translate(233.529495 315.558438) scale(0.1 -0.1)">
       <defs>
        <path id="DejaVuSans-38" d="M 2034 2216 
Q 1584 2216 1326 1975 
Q 1069 1734 1069 1313 
Q 1069 891 1326 650 
Q 1584 409 2034 409 
Q 2484 409 2743 651 
Q 3003 894 3003 1313 
Q 3003 1734 2745 1975 
Q 2488 2216 2034 2216 
z
M 1403 2484 
Q 997 2584 770 2862 
Q 544 3141 544 3541 
Q 544 4100 942 4425 
Q 1341 4750 2034 4750 
Q 2731 4750 3128 4425 
Q 3525 4100 3525 3541 
Q 3525 3141 3298 2862 
Q 3072 2584 2669 2484 
Q 3125 2378 3379 2068 
Q 3634 1759 3634 1313 
Q 3634 634 3220 271 
Q 2806 -91 2034 -91 
Q 1263 -91 848 271 
Q 434 634 434 1313 
Q 434 1759 690 2068 
Q 947 2378 1403 2484 
z
M 1172 3481 
Q 1172 3119 1398 2916 
Q 1625 2713 2034 2713 
Q 2441 2713 2670 2916 
Q 2900 3119 2900 3481 
Q 2900 3844 2670 4047 
Q 2441 4250 2034 4250 
Q 1625 4250 1398 4047 
Q 1172 3844 1172 3481 
z
" transform="scale(0.015625)"/>
       </defs>
       <use xlink:href="#DejaVuSans-30"/>
       <use xlink:href="#DejaVuSans-2e" transform="translate(63.623047 0)"/>
       <use xlink:href="#DejaVuSans-32" transform="translate(95.410156 0)"/>
       <use xlink:href="#DejaVuSans-38" transform="translate(159.033203 0)"/>
      </g>
     </g>
    </g>
    <g id="xtick_6">
     <g id="line2d_6">
      <g>
       <use xlink:href="#mddc9e55966" x="288.389996" y="300.96" style="stroke: #000000; stroke-width: 0.8"/>
      </g>
     </g>
     <g id="text_6">
      <!-- 0.30 -->
      <g transform="translate(277.257184 315.558438) scale(0.1 -0.1)">
       <defs>
        <path id="DejaVuSans-33" d="M 2597 2516 
Q 3050 2419 3304 2112 
Q 3559 1806 3559 1356 
Q 3559 666 3084 287 
Q 2609 -91 1734 -91 
Q 1441 -91 1130 -33 
Q 819 25 488 141 
L 488 750 
Q 750 597 1062 519 
Q 1375 441 1716 441 
Q 2309 441 2620 675 
Q 2931 909 2931 1356 
Q 2931 1769 2642 2001 
Q 2353 2234 1838 2234 
L 1294 2234 
L 1294 2753 
L 1863 2753 
Q 2328 2753 2575 2939 
Q 2822 3125 2822 3475 
Q 2822 3834 2567 4026 
Q 2313 4219 1838 4219 
Q 1578 4219 1281 4162 
Q 984 4106 628 3988 
L 628 4550 
Q 988 4650 1302 4700 
Q 1616 4750 1894 4750 
Q 2613 4750 3031 4423 
Q 3450 4097 3450 3541 
Q 3450 3153 3228 2886 
Q 3006 2619 2597 2516 
z
" transform="scale(0.015625)"/>
       </defs>
       <use xlink:href="#DejaVuSans-30"/>
       <use xlink:href="#DejaVuSans-2e" transform="translate(63.623047 0)"/>
       <use xlink:href="#DejaVuSans-33" transform="translate(95.410156 0)"/>
       <use xlink:href="#DejaVuSans-30" transform="translate(159.033203 0)"/>
      </g>
     </g>
    </g>
    <g id="xtick_7">
     <g id="line2d_7">
      <g>
       <use xlink:href="#mddc9e55966" x="332.117685" y="300.96" style="stroke: #000000; stroke-width: 0.8"/>
      </g>
     </g>
     <g id="text_7">
      <!-- 0.32 -->
      <g transform="translate(320.984872 315.558438) scale(0.1 -0.1)">
       <use xlink:href="#DejaVuSans-30"/>
       <use xlink:href="#DejaVuSans-2e" transform="translate(63.623047 0)"/>
       <use xlink:href="#DejaVuSans-33" transform="translate(95.410156 0)"/>
       <use xlink:href="#DejaVuSans-32" transform="translate(159.033203 0)"/>
      </g>
     </g>
    </g>
    <g id="xtick_8">
     <g id="line2d_8">
      <g>
       <use xlink:href="#mddc9e55966" x="375.845374" y="300.96" style="stroke: #000000; stroke-width: 0.8"/>
      </g>
     </g>
     <g id="text_8">
      <!-- 0.34 -->
      <g transform="translate(364.712561 315.558438) scale(0.1 -0.1)">
       <use xlink:href="#DejaVuSans-30"/>
       <use xlink:href="#DejaVuSans-2e" transform="translate(63.623047 0)"/>
       <use xlink:href="#DejaVuSans-33" transform="translate(95.410156 0)"/>
       <use xlink:href="#DejaVuSans-34" transform="translate(159.033203 0)"/>
      </g>
     </g>
    </g>
    <g id="xtick_9">
     <g id="line2d_9">
      <g>
       <use xlink:href="#mddc9e55966" x="419.573062" y="300.96" style="stroke: #000000; stroke-width: 0.8"/>
      </g>
     </g>
     <g id="text_9">
      <!-- 0.36 -->
      <g transform="translate(408.44025 315.558438) scale(0.1 -0.1)">
       <use xlink:href="#DejaVuSans-30"/>
       <use xlink:href="#DejaVuSans-2e" transform="translate(63.623047 0)"/>
       <use xlink:href="#DejaVuSans-33" transform="translate(95.410156 0)"/>
       <use xlink:href="#DejaVuSans-36" transform="translate(159.033203 0)"/>
      </g>
     </g>
    </g>
    <g id="text_10">
     <!-- $s^2_F$ -->
     <g transform="translate(240.73375 330.738125) scale(0.1 -0.1)">
      <defs>
       <path id="DejaVuSans-Oblique-73" d="M 3200 3397 
L 3091 2853 
Q 2863 2978 2609 3040 
Q 2356 3103 2088 3103 
Q 1634 3103 1373 2948 
Q 1113 2794 1113 2528 
Q 1113 2219 1719 2053 
Q 1766 2041 1788 2034 
L 1972 1978 
Q 2547 1819 2739 1644 
Q 2931 1469 2931 1166 
Q 2931 609 2489 259 
Q 2047 -91 1331 -91 
Q 1053 -91 747 -37 
Q 441 16 72 128 
L 184 722 
Q 500 559 806 475 
Q 1113 391 1394 391 
Q 1816 391 2080 572 
Q 2344 753 2344 1031 
Q 2344 1331 1650 1516 
L 1591 1531 
L 1394 1581 
Q 956 1697 753 1886 
Q 550 2075 550 2369 
Q 550 2928 970 3256 
Q 1391 3584 2113 3584 
Q 2397 3584 2667 3537 
Q 2938 3491 3200 3397 
z
" transform="scale(0.015625)"/>
       <path id="DejaVuSans-Oblique-46" d="M 1081 4666 
L 3756 4666 
L 3653 4134 
L 1606 4134 
L 1338 2759 
L 3188 2759 
L 3084 2228 
L 1234 2228 
L 800 0 
L 172 0 
L 1081 4666 
z
" transform="scale(0.015625)"/>
      </defs>
      <use xlink:href="#DejaVuSans-Oblique-73" transform="translate(0 0.765625)"/>
      <use xlink:href="#DejaVuSans-32" transform="translate(56.749505 39.046875) scale(0.7)"/>
      <use xlink:href="#DejaVuSans-Oblique-46" transform="translate(52.099609 -26.578125) scale(0.7)"/>
     </g>
    </g>
   </g>
   <g id="matplotlib.axis_2">
    <g id="ytick_1">
     <g id="line2d_10">
      <defs>
       <path id="m212e0779fe" d="M 0 0 
L -3.5 0 
" style="stroke: #000000; stroke-width: 0.8"/>
      </defs>
      <g>
       <use xlink:href="#m212e0779fe" x="50.14375" y="285.820617" style="stroke: #000000; stroke-width: 0.8"/>
      </g>
     </g>
     <g id="text_11">
      <!-- 1.20 -->
      <g transform="translate(20.878125 289.619836) scale(0.1 -0.1)">
       <defs>
        <path id="DejaVuSans-31" d="M 794 531 
L 1825 531 
L 1825 4091 
L 703 3866 
L 703 4441 
L 1819 4666 
L 2450 4666 
L 2450 531 
L 3481 531 
L 3481 0 
L 794 0 
L 794 531 
z
" transform="scale(0.015625)"/>
       </defs>
       <use xlink:href="#DejaVuSans-31"/>
       <use xlink:href="#DejaVuSans-2e" transform="translate(63.623047 0)"/>
       <use xlink:href="#DejaVuSans-32" transform="translate(95.410156 0)"/>
       <use xlink:href="#DejaVuSans-30" transform="translate(159.033203 0)"/>
      </g>
     </g>
    </g>
    <g id="ytick_2">
     <g id="line2d_11">
      <g>
       <use xlink:href="#m212e0779fe" x="50.14375" y="235.341574" style="stroke: #000000; stroke-width: 0.8"/>
      </g>
     </g>
     <g id="text_12">
      <!-- 1.25 -->
      <g transform="translate(20.878125 239.140792) scale(0.1 -0.1)">
       <defs>
        <path id="DejaVuSans-35" d="M 691 4666 
L 3169 4666 
L 3169 4134 
L 1269 4134 
L 1269 2991 
Q 1406 3038 1543 3061 
Q 1681 3084 1819 3084 
Q 2600 3084 3056 2656 
Q 3513 2228 3513 1497 
Q 3513 744 3044 326 
Q 2575 -91 1722 -91 
Q 1428 -91 1123 -41 
Q 819 9 494 109 
L 494 744 
Q 775 591 1075 516 
Q 1375 441 1709 441 
Q 2250 441 2565 725 
Q 2881 1009 2881 1497 
Q 2881 1984 2565 2268 
Q 2250 2553 1709 2553 
Q 1456 2553 1204 2497 
Q 953 2441 691 2322 
L 691 4666 
z
" transform="scale(0.015625)"/>
       </defs>
       <use xlink:href="#DejaVuSans-31"/>
       <use xlink:href="#DejaVuSans-2e" transform="translate(63.623047 0)"/>
       <use xlink:href="#DejaVuSans-32" transform="translate(95.410156 0)"/>
       <use xlink:href="#DejaVuSans-35" transform="translate(159.033203 0)"/>
      </g>
     </g>
    </g>
    <g id="ytick_3">
     <g id="line2d_12">
      <g>
       <use xlink:href="#m212e0779fe" x="50.14375" y="184.86253" style="stroke: #000000; stroke-width: 0.8"/>
      </g>
     </g>
     <g id="text_13">
      <!-- 1.30 -->
      <g transform="translate(20.878125 188.661749) scale(0.1 -0.1)">
       <use xlink:href="#DejaVuSans-31"/>
       <use xlink:href="#DejaVuSans-2e" transform="translate(63.623047 0)"/>
       <use xlink:href="#DejaVuSans-33" transform="translate(95.410156 0)"/>
       <use xlink:href="#DejaVuSans-30" transform="translate(159.033203 0)"/>
      </g>
     </g>
    </g>
    <g id="ytick_4">
     <g id="line2d_13">
      <g>
       <use xlink:href="#m212e0779fe" x="50.14375" y="134.383487" style="stroke: #000000; stroke-width: 0.8"/>
      </g>
     </g>
     <g id="text_14">
      <!-- 1.35 -->
      <g transform="translate(20.878125 138.182706) scale(0.1 -0.1)">
       <use xlink:href="#DejaVuSans-31"/>
       <use xlink:href="#DejaVuSans-2e" transform="translate(63.623047 0)"/>
       <use xlink:href="#DejaVuSans-33" transform="translate(95.410156 0)"/>
       <use xlink:href="#DejaVuSans-35" transform="translate(159.033203 0)"/>
      </g>
     </g>
    </g>
    <g id="ytick_5">
     <g id="line2d_14">
      <g>
       <use xlink:href="#m212e0779fe" x="50.14375" y="83.904444" style="stroke: #000000; stroke-width: 0.8"/>
      </g>
     </g>
     <g id="text_15">
      <!-- 1.40 -->
      <g transform="translate(20.878125 87.703662) scale(0.1 -0.1)">
       <use xlink:href="#DejaVuSans-31"/>
       <use xlink:href="#DejaVuSans-2e" transform="translate(63.623047 0)"/>
       <use xlink:href="#DejaVuSans-34" transform="translate(95.410156 0)"/>
       <use xlink:href="#DejaVuSans-30" transform="translate(159.033203 0)"/>
      </g>
     </g>
    </g>
    <g id="ytick_6">
     <g id="line2d_15">
      <g>
       <use xlink:href="#m212e0779fe" x="50.14375" y="33.4254" style="stroke: #000000; stroke-width: 0.8"/>
      </g>
     </g>
     <g id="text_16">
      <!-- 1.45 -->
      <g transform="translate(20.878125 37.224619) scale(0.1 -0.1)">
       <use xlink:href="#DejaVuSans-31"/>
       <use xlink:href="#DejaVuSans-2e" transform="translate(63.623047 0)"/>
       <use xlink:href="#DejaVuSans-34" transform="translate(95.410156 0)"/>
       <use xlink:href="#DejaVuSans-35" transform="translate(159.033203 0)"/>
      </g>
     </g>
    </g>
    <g id="text_17">
     <!-- $w_0 m_\Omega$ -->
     <g transform="translate(14.798437 168.23) rotate(-90) scale(0.1 -0.1)">
      <defs>
       <path id="DejaVuSans-Oblique-77" d="M 544 3500 
L 1113 3500 
L 1259 684 
L 2566 3500 
L 3231 3500 
L 3425 684 
L 4666 3500 
L 5241 3500 
L 3641 0 
L 2969 0 
L 2797 2900 
L 1459 0 
L 781 0 
L 544 3500 
z
" transform="scale(0.015625)"/>
       <path id="DejaVuSans-Oblique-6d" d="M 5747 2113 
L 5338 0 
L 4763 0 
L 5166 2094 
Q 5191 2228 5203 2325 
Q 5216 2422 5216 2491 
Q 5216 2772 5059 2928 
Q 4903 3084 4622 3084 
Q 4203 3084 3875 2770 
Q 3547 2456 3450 1953 
L 3066 0 
L 2491 0 
L 2900 2094 
Q 2925 2209 2937 2307 
Q 2950 2406 2950 2484 
Q 2950 2769 2794 2926 
Q 2638 3084 2363 3084 
Q 1938 3084 1609 2770 
Q 1281 2456 1184 1953 
L 800 0 
L 225 0 
L 909 3500 
L 1484 3500 
L 1375 2956 
Q 1609 3263 1923 3423 
Q 2238 3584 2597 3584 
Q 2978 3584 3223 3384 
Q 3469 3184 3519 2828 
Q 3781 3197 4126 3390 
Q 4472 3584 4856 3584 
Q 5306 3584 5551 3325 
Q 5797 3066 5797 2591 
Q 5797 2488 5784 2364 
Q 5772 2241 5747 2113 
z
" transform="scale(0.015625)"/>
       <path id="DejaVuSans-3a9" d="M 4647 556 
L 4647 0 
L 2772 0 
L 2772 556 
Q 3325 859 3634 1378 
Q 3944 1897 3944 2528 
Q 3944 3278 3531 3731 
Q 3119 4184 2444 4184 
Q 1769 4184 1355 3729 
Q 941 3275 941 2528 
Q 941 1897 1250 1378 
Q 1563 859 2119 556 
L 2119 0 
L 244 0 
L 244 556 
L 1241 556 
Q 747 991 519 1456 
Q 294 1922 294 2497 
Q 294 3491 894 4106 
Q 1491 4722 2444 4722 
Q 3391 4722 3994 4106 
Q 4594 3494 4594 2528 
Q 4594 1922 4372 1459 
Q 4150 997 3647 556 
L 4647 556 
z
" transform="scale(0.015625)"/>
      </defs>
      <use xlink:href="#DejaVuSans-Oblique-77"/>
      <use xlink:href="#DejaVuSans-30" transform="translate(81.787109 -16.40625) scale(0.7)"/>
      <use xlink:href="#DejaVuSans-Oblique-6d" transform="translate(129.057617 0)"/>
      <use xlink:href="#DejaVuSans-3a9" transform="translate(226.469727 -16.40625) scale(0.7)"/>
     </g>
    </g>
   </g>
   <g id="line2d_16">
    <path d="M 398.366432 300.96 
L 398.366432 7.2 
" clip-path="url(#pb2b72b7a0a)" style="fill: none; stroke-dasharray: 5.55,2.4; stroke-dashoffset: 0; stroke: #1f77b4; stroke-width: 1.5"/>
   </g>
   <g id="line2d_17">
    <path d="M 398.366432 300.96 
L 398.366432 7.2 
" clip-path="url(#pb2b72b7a0a)" style="fill: none; stroke-dasharray: 5.55,2.4; stroke-dashoffset: 0; stroke: #1f77b4; stroke-width: 1.5"/>
   </g>
   <g id="line2d_18">
    <path d="M 398.366432 300.96 
L 398.366432 7.2 
" clip-path="url(#pb2b72b7a0a)" style="fill: none; stroke-dasharray: 5.55,2.4; stroke-dashoffset: 0; stroke: #1f77b4; stroke-width: 1.5"/>
   </g>
   <g id="line2d_19">
    <path d="M 398.366432 300.96 
L 398.366432 7.2 
" clip-path="url(#pb2b72b7a0a)" style="fill: none; stroke-dasharray: 5.55,2.4; stroke-dashoffset: 0; stroke: #1f77b4; stroke-width: 1.5"/>
   </g>
   <g id="line2d_20">
    <path d="M 398.366432 300.96 
L 398.366432 7.2 
" clip-path="url(#pb2b72b7a0a)" style="fill: none; stroke-dasharray: 5.55,2.4; stroke-dashoffset: 0; stroke: #1f77b4; stroke-width: 1.5"/>
   </g>
   <g id="line2d_21">
    <path d="M 235.210839 201.545459 
L 231.063313 201.541659 
" clip-path="url(#pb2b72b7a0a)" style="fill: none; stroke: #ec5d57; stroke-width: 2; stroke-linecap: square"/>
   </g>
   <g id="line2d_22">
    <path d="M 233.18612 190.130206 
L 233.088032 212.956911 
" clip-path="url(#pb2b72b7a0a)" style="fill: none; stroke: #ec5d57; stroke-width: 2; stroke-linecap: square"/>
   </g>
   <g id="line2d_23">
    <path d="M 271.793709 185.155453 
L 267.701463 185.150968 
" clip-path="url(#pb2b72b7a0a)" style="fill: none; stroke: #ec5d57; stroke-width: 2; stroke-linecap: square"/>
   </g>
   <g id="line2d_24">
    <path d="M 269.795399 175.853113 
L 269.699773 194.453308 
" clip-path="url(#pb2b72b7a0a)" style="fill: none; stroke: #ec5d57; stroke-width: 2; stroke-linecap: square"/>
   </g>
   <g id="line2d_25">
    <path d="M 287.333566 168.522653 
L 282.421979 168.535032 
" clip-path="url(#pb2b72b7a0a)" style="fill: none; stroke: #ec5d57; stroke-width: 2; stroke-linecap: square"/>
   </g>
   <g id="line2d_26">
    <path d="M 284.779253 160.194274 
L 284.976292 176.863411 
" clip-path="url(#pb2b72b7a0a)" style="fill: none; stroke: #ec5d57; stroke-width: 2; stroke-linecap: square"/>
   </g>
   <g id="line2d_27">
    <path d="M 297.841566 165.743745 
L 294.113665 165.741939 
" clip-path="url(#pb2b72b7a0a)" style="fill: none; stroke: #ec5d57; stroke-width: 2; stroke-linecap: square"/>
   </g>
   <g id="line2d_28">
    <path d="M 295.996072 157.616816 
L 295.95916 173.868868 
" clip-path="url(#pb2b72b7a0a)" style="fill: none; stroke: #ec5d57; stroke-width: 2; stroke-linecap: square"/>
   </g>
   <g id="line2d_29">
    <path d="M 345.702293 145.211589 
L 341.865745 145.226908 
" clip-path="url(#pb2b72b7a0a)" style="fill: none; stroke: #ec5d57; stroke-width: 2; stroke-linecap: square"/>
   </g>
   <g id="line2d_30">
    <path d="M 343.686038 139.986929 
L 343.882 150.451568 
" clip-path="url(#pb2b72b7a0a)" style="fill: none; stroke: #ec5d57; stroke-width: 2; stroke-linecap: square"/>
   </g>
   <g id="line2d_31">
    <path d="M 424.020114 116.45061 
L 419.028359 116.461692 
" clip-path="url(#pb2b72b7a0a)" style="fill: none; stroke: #ec5d57; stroke-width: 2; stroke-linecap: square"/>
   </g>
   <g id="line2d_32">
    <path d="M 421.50151 114.273504 
L 421.546962 118.638797 
" clip-path="url(#pb2b72b7a0a)" style="fill: none; stroke: #ec5d57; stroke-width: 2; stroke-linecap: square"/>
   </g>
   <g id="line2d_33">
    <path d="M 213.549038 156.773294 
L 209.330244 156.76331 
" clip-path="url(#pb2b72b7a0a)" style="fill: none; stroke: #70bf41; stroke-width: 2; stroke-linecap: square"/>
   </g>
   <g id="line2d_34">
    <path d="M 211.541215 147.616453 
L 211.338068 165.920151 
" clip-path="url(#pb2b72b7a0a)" style="fill: none; stroke: #70bf41; stroke-width: 2; stroke-linecap: square"/>
   </g>
   <g id="line2d_35">
    <path d="M 249.766461 149.846291 
L 243.943051 149.844227 
" clip-path="url(#pb2b72b7a0a)" style="fill: none; stroke: #70bf41; stroke-width: 2; stroke-linecap: square"/>
   </g>
   <g id="line2d_36">
    <path d="M 246.868325 141.680826 
L 246.841186 158.009691 
" clip-path="url(#pb2b72b7a0a)" style="fill: none; stroke: #70bf41; stroke-width: 2; stroke-linecap: square"/>
   </g>
   <g id="line2d_37">
    <path d="M 270.954555 135.17908 
L 265.88535 135.192123 
" clip-path="url(#pb2b72b7a0a)" style="fill: none; stroke: #70bf41; stroke-width: 2; stroke-linecap: square"/>
   </g>
   <g id="line2d_38">
    <path d="M 268.316769 126.635239 
L 268.523135 143.735965 
" clip-path="url(#pb2b72b7a0a)" style="fill: none; stroke: #70bf41; stroke-width: 2; stroke-linecap: square"/>
   </g>
   <g id="line2d_39">
    <path d="M 276.255771 130.413157 
L 271.219164 130.421721 
" clip-path="url(#pb2b72b7a0a)" style="fill: none; stroke: #70bf41; stroke-width: 2; stroke-linecap: square"/>
   </g>
   <g id="line2d_40">
    <path d="M 273.677259 122.867234 
L 273.797676 137.967644 
" clip-path="url(#pb2b72b7a0a)" style="fill: none; stroke: #70bf41; stroke-width: 2; stroke-linecap: square"/>
   </g>
   <g id="line2d_41">
    <path d="M 71.696574 224.567602 
L 67.947386 224.570985 
" clip-path="url(#pb2b72b7a0a)" style="fill: none; stroke: #70bf41; stroke-width: 2; stroke-linecap: square"/>
   </g>
   <g id="line2d_42">
    <path d="M 69.75632 209.05701 
L 69.887641 240.081577 
" clip-path="url(#pb2b72b7a0a)" style="fill: none; stroke: #70bf41; stroke-width: 2; stroke-linecap: square"/>
   </g>
   <g id="line2d_43">
    <path d="M 338.419929 103.614777 
L 330.140735 103.640461 
" clip-path="url(#pb2b72b7a0a)" style="fill: none; stroke: #70bf41; stroke-width: 2; stroke-linecap: square"/>
   </g>
   <g id="line2d_44">
    <path d="M 334.208051 98.659718 
L 334.352613 108.595519 
" clip-path="url(#pb2b72b7a0a)" style="fill: none; stroke: #70bf41; stroke-width: 2; stroke-linecap: square"/>
   </g>
   <g id="line2d_45">
    <path d="M 334.239554 104.311254 
L 327.939435 104.318996 
" clip-path="url(#pb2b72b7a0a)" style="fill: none; stroke: #70bf41; stroke-width: 2; stroke-linecap: square"/>
   </g>
   <g id="line2d_46">
    <path d="M 331.05787 98.828426 
L 331.121118 109.801824 
" clip-path="url(#pb2b72b7a0a)" style="fill: none; stroke: #70bf41; stroke-width: 2; stroke-linecap: square"/>
   </g>
   <g id="line2d_47">
    <path d="M 335.78224 106.74444 
L 329.23035 106.76116 
" clip-path="url(#pb2b72b7a0a)" style="fill: none; stroke: #70bf41; stroke-width: 2; stroke-linecap: square"/>
   </g>
   <g id="line2d_48">
    <path d="M 332.395905 97.529546 
L 332.616685 115.976054 
" clip-path="url(#pb2b72b7a0a)" style="fill: none; stroke: #70bf41; stroke-width: 2; stroke-linecap: square"/>
   </g>
   <g id="line2d_49">
    <path d="M 360.916151 90.677423 
L 355.347263 90.702211 
" clip-path="url(#pb2b72b7a0a)" style="fill: none; stroke: #70bf41; stroke-width: 2; stroke-linecap: square"/>
   </g>
   <g id="line2d_50">
    <path d="M 358.043247 86.45234 
L 358.220167 94.927294 
" clip-path="url(#pb2b72b7a0a)" style="fill: none; stroke: #70bf41; stroke-width: 2; stroke-linecap: square"/>
   </g>
   <g id="line2d_51">
    <path d="M 385.172306 90.326471 
L 379.162548 90.34605 
" clip-path="url(#pb2b72b7a0a)" style="fill: none; stroke: #70bf41; stroke-width: 2; stroke-linecap: square"/>
   </g>
   <g id="line2d_52">
    <path d="M 382.111108 86.650225 
L 382.223746 94.022296 
" clip-path="url(#pb2b72b7a0a)" style="fill: none; stroke: #70bf41; stroke-width: 2; stroke-linecap: square"/>
   </g>
   <g id="line2d_53">
    <path d="M 211.256765 124.083065 
L 207.372311 124.083334 
" clip-path="url(#pb2b72b7a0a)" style="fill: none; stroke: #51a7f9; stroke-width: 2; stroke-linecap: square"/>
   </g>
   <g id="line2d_54">
    <path d="M 209.311025 113.267551 
L 209.318051 134.898848 
" clip-path="url(#pb2b72b7a0a)" style="fill: none; stroke: #51a7f9; stroke-width: 2; stroke-linecap: square"/>
   </g>
   <g id="line2d_55">
    <path d="M 252.875526 120.788051 
L 248.040823 120.793201 
" clip-path="url(#pb2b72b7a0a)" style="fill: none; stroke: #51a7f9; stroke-width: 2; stroke-linecap: square"/>
   </g>
   <g id="line2d_56">
    <path d="M 250.404718 110.089667 
L 250.511631 131.491585 
" clip-path="url(#pb2b72b7a0a)" style="fill: none; stroke: #51a7f9; stroke-width: 2; stroke-linecap: square"/>
   </g>
   <g id="line2d_57">
    <path d="M 278.786486 99.372935 
L 274.523226 99.377485 
" clip-path="url(#pb2b72b7a0a)" style="fill: none; stroke: #51a7f9; stroke-width: 2; stroke-linecap: square"/>
   </g>
   <g id="line2d_58">
    <path d="M 276.605178 89.449478 
L 276.704534 109.300942 
" clip-path="url(#pb2b72b7a0a)" style="fill: none; stroke: #51a7f9; stroke-width: 2; stroke-linecap: square"/>
   </g>
   <g id="line2d_59">
    <path d="M 352.020487 77.041453 
L 346.494273 77.04582 
" clip-path="url(#pb2b72b7a0a)" style="fill: none; stroke: #51a7f9; stroke-width: 2; stroke-linecap: square"/>
   </g>
   <g id="line2d_60">
    <path d="M 349.232344 70.289159 
L 349.282415 83.798114 
" clip-path="url(#pb2b72b7a0a)" style="fill: none; stroke: #51a7f9; stroke-width: 2; stroke-linecap: square"/>
   </g>
   <g id="line2d_61">
    <path d="M 401.601559 66.37103 
L 393.974601 66.409363 
" clip-path="url(#pb2b72b7a0a)" style="fill: none; stroke: #51a7f9; stroke-width: 2; stroke-linecap: square"/>
   </g>
   <g id="line2d_62">
    <path d="M 397.669489 61.359186 
L 397.906671 71.421207 
" clip-path="url(#pb2b72b7a0a)" style="fill: none; stroke: #51a7f9; stroke-width: 2; stroke-linecap: square"/>
   </g>
   <g id="line2d_63">
    <path d="M 290.497498 68.947069 
L 283.159641 68.957549 
" clip-path="url(#pb2b72b7a0a)" style="fill: none; stroke: #6a5acd; stroke-width: 2; stroke-linecap: square"/>
   </g>
   <g id="line2d_64">
    <path d="M 286.759969 58.710286 
L 286.897169 79.194332 
" clip-path="url(#pb2b72b7a0a)" style="fill: none; stroke: #6a5acd; stroke-width: 2; stroke-linecap: square"/>
   </g>
   <g id="LineCollection_1"/>
   <g id="LineCollection_2"/>
   <g id="LineCollection_3"/>
   <g id="LineCollection_4"/>
   <g id="LineCollection_5"/>
   <g id="LineCollection_6"/>
   <g id="LineCollection_7"/>
   <g id="LineCollection_8"/>
   <g id="line2d_65"/>
   <g id="line2d_66"/>
   <g id="line2d_67"/>
   <g id="line2d_68"/>
   <g id="patch_3">
    <path d="M 50.14375 300.96 
L 50.14375 7.2 
" style="fill: none; stroke: #000000; stroke-width: 0.8; stroke-linejoin: miter; stroke-linecap: square"/>
   </g>
   <g id="patch_4">
    <path d="M 441.82375 300.96 
L 441.82375 7.2 
" style="fill: none; stroke: #000000; stroke-width: 0.8; stroke-linejoin: miter; stroke-linecap: square"/>
   </g>
   <g id="patch_5">
    <path d="M 50.14375 300.96 
L 441.82375 300.96 
" style="fill: none; stroke: #000000; stroke-width: 0.8; stroke-linejoin: miter; stroke-linecap: square"/>
   </g>
   <g id="patch_6">
    <path d="M 50.14375 7.2 
L 441.82375 7.2 
" style="fill: none; stroke: #000000; stroke-width: 0.8; stroke-linejoin: miter; stroke-linecap: square"/>
   </g>
   <g id="line2d_69">
    <path d="M 233.137076 201.543559 
" clip-path="url(#pb2b72b7a0a)" style="fill: none; stroke: #ec5d57; stroke-width: 1.5; stroke-linecap: square"/>
    <defs>
     <path id="m58160222cf" d="M 0 3 
C 0.795609 3 1.55874 2.683901 2.12132 2.12132 
C 2.683901 1.55874 3 0.795609 3 0 
C 3 -0.795609 2.683901 -1.55874 2.12132 -2.12132 
C 1.55874 -2.683901 0.795609 -3 0 -3 
C -0.795609 -3 -1.55874 -2.683901 -2.12132 -2.12132 
C -2.683901 -1.55874 -3 -0.795609 -3 0 
C -3 0.795609 -2.683901 1.55874 -2.12132 2.12132 
C -1.55874 2.683901 -0.795609 3 0 3 
z
" style="stroke: #ffffff"/>
    </defs>
    <g clip-path="url(#pb2b72b7a0a)">
     <use xlink:href="#m58160222cf" x="233.137076" y="201.543559" style="fill: #ec5d57; stroke: #ffffff"/>
    </g>
   </g>
   <g id="line2d_70">
    <path d="M 233.137076 201.543559 
" clip-path="url(#pb2b72b7a0a)" style="fill: none; stroke: #ec5d57; stroke-width: 1.5; stroke-linecap: square"/>
    <g clip-path="url(#pb2b72b7a0a)">
     <use xlink:href="#m58160222cf" x="233.137076" y="201.543559" style="fill: #ec5d57; stroke: #ffffff"/>
    </g>
   </g>
   <g id="line2d_71">
    <path d="M 269.747586 185.15321 
" clip-path="url(#pb2b72b7a0a)" style="fill: none; stroke: #ec5d57; stroke-width: 1.5; stroke-linecap: square"/>
    <g clip-path="url(#pb2b72b7a0a)">
     <use xlink:href="#m58160222cf" x="269.747586" y="185.15321" style="fill: #ec5d57; stroke: #ffffff"/>
    </g>
   </g>
   <g id="line2d_72">
    <path d="M 269.747586 185.15321 
" clip-path="url(#pb2b72b7a0a)" style="fill: none; stroke: #ec5d57; stroke-width: 1.5; stroke-linecap: square"/>
    <g clip-path="url(#pb2b72b7a0a)">
     <use xlink:href="#m58160222cf" x="269.747586" y="185.15321" style="fill: #ec5d57; stroke: #ffffff"/>
    </g>
   </g>
   <g id="line2d_73">
    <path d="M 284.877772 168.528843 
" clip-path="url(#pb2b72b7a0a)" style="fill: none; stroke: #ec5d57; stroke-width: 1.5; stroke-linecap: square"/>
    <g clip-path="url(#pb2b72b7a0a)">
     <use xlink:href="#m58160222cf" x="284.877772" y="168.528843" style="fill: #ec5d57; stroke: #ffffff"/>
    </g>
   </g>
   <g id="line2d_74">
    <path d="M 284.877772 168.528843 
" clip-path="url(#pb2b72b7a0a)" style="fill: none; stroke: #ec5d57; stroke-width: 1.5; stroke-linecap: square"/>
    <g clip-path="url(#pb2b72b7a0a)">
     <use xlink:href="#m58160222cf" x="284.877772" y="168.528843" style="fill: #ec5d57; stroke: #ffffff"/>
    </g>
   </g>
   <g id="line2d_75">
    <path d="M 295.977616 165.742842 
" clip-path="url(#pb2b72b7a0a)" style="fill: none; stroke: #ec5d57; stroke-width: 1.5; stroke-linecap: square"/>
    <g clip-path="url(#pb2b72b7a0a)">
     <use xlink:href="#m58160222cf" x="295.977616" y="165.742842" style="fill: #ec5d57; stroke: #ffffff"/>
    </g>
   </g>
   <g id="line2d_76">
    <path d="M 295.977616 165.742842 
" clip-path="url(#pb2b72b7a0a)" style="fill: none; stroke: #ec5d57; stroke-width: 1.5; stroke-linecap: square"/>
    <g clip-path="url(#pb2b72b7a0a)">
     <use xlink:href="#m58160222cf" x="295.977616" y="165.742842" style="fill: #ec5d57; stroke: #ffffff"/>
    </g>
   </g>
   <g id="line2d_77">
    <path d="M 343.784019 145.219248 
" clip-path="url(#pb2b72b7a0a)" style="fill: none; stroke: #ec5d57; stroke-width: 1.5; stroke-linecap: square"/>
    <g clip-path="url(#pb2b72b7a0a)">
     <use xlink:href="#m58160222cf" x="343.784019" y="145.219248" style="fill: #ec5d57; stroke: #ffffff"/>
    </g>
   </g>
   <g id="line2d_78">
    <path d="M 343.784019 145.219248 
" clip-path="url(#pb2b72b7a0a)" style="fill: none; stroke: #ec5d57; stroke-width: 1.5; stroke-linecap: square"/>
    <g clip-path="url(#pb2b72b7a0a)">
     <use xlink:href="#m58160222cf" x="343.784019" y="145.219248" style="fill: #ec5d57; stroke: #ffffff"/>
    </g>
   </g>
   <g id="line2d_79">
    <path d="M 421.524236 116.456151 
" clip-path="url(#pb2b72b7a0a)" style="fill: none; stroke: #ec5d57; stroke-width: 1.5; stroke-linecap: square"/>
    <g clip-path="url(#pb2b72b7a0a)">
     <use xlink:href="#m58160222cf" x="421.524236" y="116.456151" style="fill: #ec5d57; stroke: #ffffff"/>
    </g>
   </g>
   <g id="line2d_80">
    <path d="M 421.524236 116.456151 
" clip-path="url(#pb2b72b7a0a)" style="fill: none; stroke: #ec5d57; stroke-width: 1.5; stroke-linecap: square"/>
    <g clip-path="url(#pb2b72b7a0a)">
     <use xlink:href="#m58160222cf" x="421.524236" y="116.456151" style="fill: #ec5d57; stroke: #ffffff"/>
    </g>
   </g>
   <g id="line2d_81">
    <path d="M 211.439641 156.768302 
" clip-path="url(#pb2b72b7a0a)" style="fill: none; stroke: #70bf41; stroke-width: 1.5; stroke-linecap: square"/>
    <defs>
     <path id="m8b1bcc4b64" d="M 0 3 
C 0.795609 3 1.55874 2.683901 2.12132 2.12132 
C 2.683901 1.55874 3 0.795609 3 0 
C 3 -0.795609 2.683901 -1.55874 2.12132 -2.12132 
C 1.55874 -2.683901 0.795609 -3 0 -3 
C -0.795609 -3 -1.55874 -2.683901 -2.12132 -2.12132 
C -2.683901 -1.55874 -3 -0.795609 -3 0 
C -3 0.795609 -2.683901 1.55874 -2.12132 2.12132 
C -1.55874 2.683901 -0.795609 3 0 3 
z
" style="stroke: #ffffff"/>
    </defs>
    <g clip-path="url(#pb2b72b7a0a)">
     <use xlink:href="#m8b1bcc4b64" x="211.439641" y="156.768302" style="fill: #70bf41; stroke: #ffffff"/>
    </g>
   </g>
   <g id="line2d_82">
    <path d="M 211.439641 156.768302 
" clip-path="url(#pb2b72b7a0a)" style="fill: none; stroke: #70bf41; stroke-width: 1.5; stroke-linecap: square"/>
    <g clip-path="url(#pb2b72b7a0a)">
     <use xlink:href="#m8b1bcc4b64" x="211.439641" y="156.768302" style="fill: #70bf41; stroke: #ffffff"/>
    </g>
   </g>
   <g id="line2d_83">
    <path d="M 246.854756 149.845259 
" clip-path="url(#pb2b72b7a0a)" style="fill: none; stroke: #70bf41; stroke-width: 1.5; stroke-linecap: square"/>
    <g clip-path="url(#pb2b72b7a0a)">
     <use xlink:href="#m8b1bcc4b64" x="246.854756" y="149.845259" style="fill: #70bf41; stroke: #ffffff"/>
    </g>
   </g>
   <g id="line2d_84">
    <path d="M 246.854756 149.845259 
" clip-path="url(#pb2b72b7a0a)" style="fill: none; stroke: #70bf41; stroke-width: 1.5; stroke-linecap: square"/>
    <g clip-path="url(#pb2b72b7a0a)">
     <use xlink:href="#m8b1bcc4b64" x="246.854756" y="149.845259" style="fill: #70bf41; stroke: #ffffff"/>
    </g>
   </g>
   <g id="line2d_85">
    <path d="M 268.419952 135.185602 
" clip-path="url(#pb2b72b7a0a)" style="fill: none; stroke: #70bf41; stroke-width: 1.5; stroke-linecap: square"/>
    <g clip-path="url(#pb2b72b7a0a)">
     <use xlink:href="#m8b1bcc4b64" x="268.419952" y="135.185602" style="fill: #70bf41; stroke: #ffffff"/>
    </g>
   </g>
   <g id="line2d_86">
    <path d="M 268.419952 135.185602 
" clip-path="url(#pb2b72b7a0a)" style="fill: none; stroke: #70bf41; stroke-width: 1.5; stroke-linecap: square"/>
    <g clip-path="url(#pb2b72b7a0a)">
     <use xlink:href="#m8b1bcc4b64" x="268.419952" y="135.185602" style="fill: #70bf41; stroke: #ffffff"/>
    </g>
   </g>
   <g id="line2d_87">
    <path d="M 273.737467 130.417439 
" clip-path="url(#pb2b72b7a0a)" style="fill: none; stroke: #70bf41; stroke-width: 1.5; stroke-linecap: square"/>
    <g clip-path="url(#pb2b72b7a0a)">
     <use xlink:href="#m8b1bcc4b64" x="273.737467" y="130.417439" style="fill: #70bf41; stroke: #ffffff"/>
    </g>
   </g>
   <g id="line2d_88">
    <path d="M 273.737467 130.417439 
" clip-path="url(#pb2b72b7a0a)" style="fill: none; stroke: #70bf41; stroke-width: 1.5; stroke-linecap: square"/>
    <g clip-path="url(#pb2b72b7a0a)">
     <use xlink:href="#m8b1bcc4b64" x="273.737467" y="130.417439" style="fill: #70bf41; stroke: #ffffff"/>
    </g>
   </g>
   <g id="line2d_89">
    <path d="M 69.82198 224.569293 
" clip-path="url(#pb2b72b7a0a)" style="fill: none; stroke: #70bf41; stroke-width: 1.5; stroke-linecap: square"/>
    <g clip-path="url(#pb2b72b7a0a)">
     <use xlink:href="#m8b1bcc4b64" x="69.82198" y="224.569293" style="fill: #70bf41; stroke: #ffffff"/>
    </g>
   </g>
   <g id="line2d_90">
    <path d="M 69.82198 224.569293 
" clip-path="url(#pb2b72b7a0a)" style="fill: none; stroke: #70bf41; stroke-width: 1.5; stroke-linecap: square"/>
    <g clip-path="url(#pb2b72b7a0a)">
     <use xlink:href="#m8b1bcc4b64" x="69.82198" y="224.569293" style="fill: #70bf41; stroke: #ffffff"/>
    </g>
   </g>
   <g id="line2d_91">
    <path d="M 334.280332 103.627619 
" clip-path="url(#pb2b72b7a0a)" style="fill: none; stroke: #70bf41; stroke-width: 1.5; stroke-linecap: square"/>
    <g clip-path="url(#pb2b72b7a0a)">
     <use xlink:href="#m8b1bcc4b64" x="334.280332" y="103.627619" style="fill: #70bf41; stroke: #ffffff"/>
    </g>
   </g>
   <g id="line2d_92">
    <path d="M 334.280332 103.627619 
" clip-path="url(#pb2b72b7a0a)" style="fill: none; stroke: #70bf41; stroke-width: 1.5; stroke-linecap: square"/>
    <g clip-path="url(#pb2b72b7a0a)">
     <use xlink:href="#m8b1bcc4b64" x="334.280332" y="103.627619" style="fill: #70bf41; stroke: #ffffff"/>
    </g>
   </g>
   <g id="line2d_93">
    <path d="M 331.089494 104.315125 
" clip-path="url(#pb2b72b7a0a)" style="fill: none; stroke: #70bf41; stroke-width: 1.5; stroke-linecap: square"/>
    <g clip-path="url(#pb2b72b7a0a)">
     <use xlink:href="#m8b1bcc4b64" x="331.089494" y="104.315125" style="fill: #70bf41; stroke: #ffffff"/>
    </g>
   </g>
   <g id="line2d_94">
    <path d="M 331.089494 104.315125 
" clip-path="url(#pb2b72b7a0a)" style="fill: none; stroke: #70bf41; stroke-width: 1.5; stroke-linecap: square"/>
    <g clip-path="url(#pb2b72b7a0a)">
     <use xlink:href="#m8b1bcc4b64" x="331.089494" y="104.315125" style="fill: #70bf41; stroke: #ffffff"/>
    </g>
   </g>
   <g id="line2d_95">
    <path d="M 332.506295 106.7528 
" clip-path="url(#pb2b72b7a0a)" style="fill: none; stroke: #70bf41; stroke-width: 1.5; stroke-linecap: square"/>
    <g clip-path="url(#pb2b72b7a0a)">
     <use xlink:href="#m8b1bcc4b64" x="332.506295" y="106.7528" style="fill: #70bf41; stroke: #ffffff"/>
    </g>
   </g>
   <g id="line2d_96">
    <path d="M 332.506295 106.7528 
" clip-path="url(#pb2b72b7a0a)" style="fill: none; stroke: #70bf41; stroke-width: 1.5; stroke-linecap: square"/>
    <g clip-path="url(#pb2b72b7a0a)">
     <use xlink:href="#m8b1bcc4b64" x="332.506295" y="106.7528" style="fill: #70bf41; stroke: #ffffff"/>
    </g>
   </g>
   <g id="line2d_97">
    <path d="M 358.131707 90.689817 
" clip-path="url(#pb2b72b7a0a)" style="fill: none; stroke: #70bf41; stroke-width: 1.5; stroke-linecap: square"/>
    <g clip-path="url(#pb2b72b7a0a)">
     <use xlink:href="#m8b1bcc4b64" x="358.131707" y="90.689817" style="fill: #70bf41; stroke: #ffffff"/>
    </g>
   </g>
   <g id="line2d_98">
    <path d="M 358.131707 90.689817 
" clip-path="url(#pb2b72b7a0a)" style="fill: none; stroke: #70bf41; stroke-width: 1.5; stroke-linecap: square"/>
    <g clip-path="url(#pb2b72b7a0a)">
     <use xlink:href="#m8b1bcc4b64" x="358.131707" y="90.689817" style="fill: #70bf41; stroke: #ffffff"/>
    </g>
   </g>
   <g id="line2d_99">
    <path d="M 382.167427 90.33626 
" clip-path="url(#pb2b72b7a0a)" style="fill: none; stroke: #70bf41; stroke-width: 1.5; stroke-linecap: square"/>
    <g clip-path="url(#pb2b72b7a0a)">
     <use xlink:href="#m8b1bcc4b64" x="382.167427" y="90.33626" style="fill: #70bf41; stroke: #ffffff"/>
    </g>
   </g>
   <g id="line2d_100">
    <path d="M 382.167427 90.33626 
" clip-path="url(#pb2b72b7a0a)" style="fill: none; stroke: #70bf41; stroke-width: 1.5; stroke-linecap: square"/>
    <g clip-path="url(#pb2b72b7a0a)">
     <use xlink:href="#m8b1bcc4b64" x="382.167427" y="90.33626" style="fill: #70bf41; stroke: #ffffff"/>
    </g>
   </g>
   <g id="line2d_101">
    <path d="M 209.314538 124.0832 
" clip-path="url(#pb2b72b7a0a)" style="fill: none; stroke: #51a7f9; stroke-width: 1.5; stroke-linecap: square"/>
    <defs>
     <path id="m155994f801" d="M 0 3 
C 0.795609 3 1.55874 2.683901 2.12132 2.12132 
C 2.683901 1.55874 3 0.795609 3 0 
C 3 -0.795609 2.683901 -1.55874 2.12132 -2.12132 
C 1.55874 -2.683901 0.795609 -3 0 -3 
C -0.795609 -3 -1.55874 -2.683901 -2.12132 -2.12132 
C -2.683901 -1.55874 -3 -0.795609 -3 0 
C -3 0.795609 -2.683901 1.55874 -2.12132 2.12132 
C -1.55874 2.683901 -0.795609 3 0 3 
z
" style="stroke: #ffffff"/>
    </defs>
    <g clip-path="url(#pb2b72b7a0a)">
     <use xlink:href="#m155994f801" x="209.314538" y="124.0832" style="fill: #51a7f9; stroke: #ffffff"/>
    </g>
   </g>
   <g id="line2d_102">
    <path d="M 209.314538 124.0832 
" clip-path="url(#pb2b72b7a0a)" style="fill: none; stroke: #51a7f9; stroke-width: 1.5; stroke-linecap: square"/>
    <g clip-path="url(#pb2b72b7a0a)">
     <use xlink:href="#m155994f801" x="209.314538" y="124.0832" style="fill: #51a7f9; stroke: #ffffff"/>
    </g>
   </g>
   <g id="line2d_103">
    <path d="M 250.458174 120.790626 
" clip-path="url(#pb2b72b7a0a)" style="fill: none; stroke: #51a7f9; stroke-width: 1.5; stroke-linecap: square"/>
    <g clip-path="url(#pb2b72b7a0a)">
     <use xlink:href="#m155994f801" x="250.458174" y="120.790626" style="fill: #51a7f9; stroke: #ffffff"/>
    </g>
   </g>
   <g id="line2d_104">
    <path d="M 250.458174 120.790626 
" clip-path="url(#pb2b72b7a0a)" style="fill: none; stroke: #51a7f9; stroke-width: 1.5; stroke-linecap: square"/>
    <g clip-path="url(#pb2b72b7a0a)">
     <use xlink:href="#m155994f801" x="250.458174" y="120.790626" style="fill: #51a7f9; stroke: #ffffff"/>
    </g>
   </g>
   <g id="line2d_105">
    <path d="M 276.654856 99.37521 
" clip-path="url(#pb2b72b7a0a)" style="fill: none; stroke: #51a7f9; stroke-width: 1.5; stroke-linecap: square"/>
    <g clip-path="url(#pb2b72b7a0a)">
     <use xlink:href="#m155994f801" x="276.654856" y="99.37521" style="fill: #51a7f9; stroke: #ffffff"/>
    </g>
   </g>
   <g id="line2d_106">
    <path d="M 276.654856 99.37521 
" clip-path="url(#pb2b72b7a0a)" style="fill: none; stroke: #51a7f9; stroke-width: 1.5; stroke-linecap: square"/>
    <g clip-path="url(#pb2b72b7a0a)">
     <use xlink:href="#m155994f801" x="276.654856" y="99.37521" style="fill: #51a7f9; stroke: #ffffff"/>
    </g>
   </g>
   <g id="line2d_107">
    <path d="M 349.25738 77.043637 
" clip-path="url(#pb2b72b7a0a)" style="fill: none; stroke: #51a7f9; stroke-width: 1.5; stroke-linecap: square"/>
    <g clip-path="url(#pb2b72b7a0a)">
     <use xlink:href="#m155994f801" x="349.25738" y="77.043637" style="fill: #51a7f9; stroke: #ffffff"/>
    </g>
   </g>
   <g id="line2d_108">
    <path d="M 349.25738 77.043637 
" clip-path="url(#pb2b72b7a0a)" style="fill: none; stroke: #51a7f9; stroke-width: 1.5; stroke-linecap: square"/>
    <g clip-path="url(#pb2b72b7a0a)">
     <use xlink:href="#m155994f801" x="349.25738" y="77.043637" style="fill: #51a7f9; stroke: #ffffff"/>
    </g>
   </g>
   <g id="line2d_109">
    <path d="M 397.78808 66.390196 
" clip-path="url(#pb2b72b7a0a)" style="fill: none; stroke: #51a7f9; stroke-width: 1.5; stroke-linecap: square"/>
    <g clip-path="url(#pb2b72b7a0a)">
     <use xlink:href="#m155994f801" x="397.78808" y="66.390196" style="fill: #51a7f9; stroke: #ffffff"/>
    </g>
   </g>
   <g id="line2d_110">
    <path d="M 397.78808 66.390196 
" clip-path="url(#pb2b72b7a0a)" style="fill: none; stroke: #51a7f9; stroke-width: 1.5; stroke-linecap: square"/>
    <g clip-path="url(#pb2b72b7a0a)">
     <use xlink:href="#m155994f801" x="397.78808" y="66.390196" style="fill: #51a7f9; stroke: #ffffff"/>
    </g>
   </g>
   <g id="line2d_111">
    <path d="M 286.828569 68.952309 
" clip-path="url(#pb2b72b7a0a)" style="fill: none; stroke: #6a5acd; stroke-width: 1.5; stroke-linecap: square"/>
    <defs>
     <path id="md86575e205" d="M 0 3 
C 0.795609 3 1.55874 2.683901 2.12132 2.12132 
C 2.683901 1.55874 3 0.795609 3 0 
C 3 -0.795609 2.683901 -1.55874 2.12132 -2.12132 
C 1.55874 -2.683901 0.795609 -3 0 -3 
C -0.795609 -3 -1.55874 -2.683901 -2.12132 -2.12132 
C -2.683901 -1.55874 -3 -0.795609 -3 0 
C -3 0.795609 -2.683901 1.55874 -2.12132 2.12132 
C -1.55874 2.683901 -0.795609 3 0 3 
z
" style="stroke: #ffffff"/>
    </defs>
    <g clip-path="url(#pb2b72b7a0a)">
     <use xlink:href="#md86575e205" x="286.828569" y="68.952309" style="fill: #6a5acd; stroke: #ffffff"/>
    </g>
   </g>
   <g id="line2d_112">
    <path d="M 286.828569 68.952309 
" clip-path="url(#pb2b72b7a0a)" style="fill: none; stroke: #6a5acd; stroke-width: 1.5; stroke-linecap: square"/>
    <g clip-path="url(#pb2b72b7a0a)">
     <use xlink:href="#md86575e205" x="286.828569" y="68.952309" style="fill: #6a5acd; stroke: #ffffff"/>
    </g>
   </g>
   <g id="legend_1">
    <g id="patch_7">
     <path d="M 57.14375 51.6 
L 253.74375 51.6 
Q 255.74375 51.6 255.74375 49.6 
L 255.74375 14.2 
Q 255.74375 12.2 253.74375 12.2 
L 57.14375 12.2 
Q 55.14375 12.2 55.14375 14.2 
L 55.14375 49.6 
Q 55.14375 51.6 57.14375 51.6 
z
" style="fill: #ffffff; opacity: 0.8; stroke: #cccccc; stroke-linejoin: miter"/>
    </g>
    <g id="LineCollection_9">
     <path d="M 64.14375 23.1 
L 74.14375 23.1 
" style="fill: none; stroke: #6a5acd; stroke-width: 3"/>
    </g>
    <g id="LineCollection_10">
     <path d="M 69.14375 28.1 
L 69.14375 18.1 
" style="fill: none; stroke: #6a5acd; stroke-width: 3"/>
    </g>
    <g id="line2d_113">
     <path d="M 59.14375 23.1 
L 79.14375 23.1 
" style="fill: none; stroke: #6a5acd; stroke-width: 1.5; stroke-linecap: square"/>
    </g>
    <g id="line2d_114">
     <defs>
      <path id="mb90175cb8a" d="M 0 4 
C 1.060812 4 2.078319 3.578535 2.828427 2.828427 
C 3.578535 2.078319 4 1.060812 4 0 
C 4 -1.060812 3.578535 -2.078319 2.828427 -2.828427 
C 2.078319 -3.578535 1.060812 -4 0 -4 
C -1.060812 -4 -2.078319 -3.578535 -2.828427 -2.828427 
C -3.578535 -2.078319 -4 -1.060812 -4 0 
C -4 1.060812 -3.578535 2.078319 -2.828427 2.828427 
C -2.078319 3.578535 -1.060812 4 0 4 
z
" style="stroke: #ffffff; stroke-width: 2"/>
     </defs>
     <g>
      <use xlink:href="#mb90175cb8a" x="69.14375" y="23.1" style="fill: #6a5acd; stroke: #ffffff; stroke-width: 2"/>
     </g>
    </g>
    <g id="text_18">
     <!-- $a_{06}(l_F^{\rm phys},s_F)$ -->
     <g transform="translate(87.14375 26.6) scale(0.1 -0.1)">
      <defs>
       <path id="DejaVuSans-Oblique-61" d="M 3438 1997 
L 3047 0 
L 2472 0 
L 2578 531 
Q 2325 219 2001 64 
Q 1678 -91 1281 -91 
Q 834 -91 548 182 
Q 263 456 263 884 
Q 263 1497 752 1853 
Q 1241 2209 2100 2209 
L 2900 2209 
L 2931 2363 
Q 2938 2388 2941 2417 
Q 2944 2447 2944 2509 
Q 2944 2788 2717 2942 
Q 2491 3097 2081 3097 
Q 1800 3097 1504 3025 
Q 1209 2953 897 2809 
L 997 3341 
Q 1322 3463 1633 3523 
Q 1944 3584 2234 3584 
Q 2853 3584 3176 3315 
Q 3500 3047 3500 2534 
Q 3500 2431 3484 2292 
Q 3469 2153 3438 1997 
z
M 2816 1759 
L 2241 1759 
Q 1534 1759 1195 1570 
Q 856 1381 856 984 
Q 856 709 1029 553 
Q 1203 397 1509 397 
Q 1978 397 2328 733 
Q 2678 1069 2791 1631 
L 2816 1759 
z
" transform="scale(0.015625)"/>
       <path id="DejaVuSans-28" d="M 1984 4856 
Q 1566 4138 1362 3434 
Q 1159 2731 1159 2009 
Q 1159 1288 1364 580 
Q 1569 -128 1984 -844 
L 1484 -844 
Q 1016 -109 783 600 
Q 550 1309 550 2009 
Q 550 2706 781 3412 
Q 1013 4119 1484 4856 
L 1984 4856 
z
" transform="scale(0.015625)"/>
       <path id="DejaVuSans-Oblique-6c" d="M 1172 4863 
L 1747 4863 
L 800 0 
L 225 0 
L 1172 4863 
z
" transform="scale(0.015625)"/>
       <path id="DejaVuSans-70" d="M 1159 525 
L 1159 -1331 
L 581 -1331 
L 581 3500 
L 1159 3500 
L 1159 2969 
Q 1341 3281 1617 3432 
Q 1894 3584 2278 3584 
Q 2916 3584 3314 3078 
Q 3713 2572 3713 1747 
Q 3713 922 3314 415 
Q 2916 -91 2278 -91 
Q 1894 -91 1617 61 
Q 1341 213 1159 525 
z
M 3116 1747 
Q 3116 2381 2855 2742 
Q 2594 3103 2138 3103 
Q 1681 3103 1420 2742 
Q 1159 2381 1159 1747 
Q 1159 1113 1420 752 
Q 1681 391 2138 391 
Q 2594 391 2855 752 
Q 3116 1113 3116 1747 
z
" transform="scale(0.015625)"/>
       <path id="DejaVuSans-68" d="M 3513 2113 
L 3513 0 
L 2938 0 
L 2938 2094 
Q 2938 2591 2744 2837 
Q 2550 3084 2163 3084 
Q 1697 3084 1428 2787 
Q 1159 2491 1159 1978 
L 1159 0 
L 581 0 
L 581 4863 
L 1159 4863 
L 1159 2956 
Q 1366 3272 1645 3428 
Q 1925 3584 2291 3584 
Q 2894 3584 3203 3211 
Q 3513 2838 3513 2113 
z
" transform="scale(0.015625)"/>
       <path id="DejaVuSans-79" d="M 2059 -325 
Q 1816 -950 1584 -1140 
Q 1353 -1331 966 -1331 
L 506 -1331 
L 506 -850 
L 844 -850 
Q 1081 -850 1212 -737 
Q 1344 -625 1503 -206 
L 1606 56 
L 191 3500 
L 800 3500 
L 1894 763 
L 2988 3500 
L 3597 3500 
L 2059 -325 
z
" transform="scale(0.015625)"/>
       <path id="DejaVuSans-73" d="M 2834 3397 
L 2834 2853 
Q 2591 2978 2328 3040 
Q 2066 3103 1784 3103 
Q 1356 3103 1142 2972 
Q 928 2841 928 2578 
Q 928 2378 1081 2264 
Q 1234 2150 1697 2047 
L 1894 2003 
Q 2506 1872 2764 1633 
Q 3022 1394 3022 966 
Q 3022 478 2636 193 
Q 2250 -91 1575 -91 
Q 1294 -91 989 -36 
Q 684 19 347 128 
L 347 722 
Q 666 556 975 473 
Q 1284 391 1588 391 
Q 1994 391 2212 530 
Q 2431 669 2431 922 
Q 2431 1156 2273 1281 
Q 2116 1406 1581 1522 
L 1381 1569 
Q 847 1681 609 1914 
Q 372 2147 372 2553 
Q 372 3047 722 3315 
Q 1072 3584 1716 3584 
Q 2034 3584 2315 3537 
Q 2597 3491 2834 3397 
z
" transform="scale(0.015625)"/>
       <path id="DejaVuSans-2c" d="M 750 794 
L 1409 794 
L 1409 256 
L 897 -744 
L 494 -744 
L 750 256 
L 750 794 
z
" transform="scale(0.015625)"/>
       <path id="DejaVuSans-29" d="M 513 4856 
L 1013 4856 
Q 1481 4119 1714 3412 
Q 1947 2706 1947 2009 
Q 1947 1309 1714 600 
Q 1481 -109 1013 -844 
L 513 -844 
Q 928 -128 1133 580 
Q 1338 1288 1338 2009 
Q 1338 2731 1133 3434 
Q 928 4138 513 4856 
z
" transform="scale(0.015625)"/>
      </defs>
      <use xlink:href="#DejaVuSans-Oblique-61" transform="translate(0 0.0625)"/>
      <use xlink:href="#DejaVuSans-30" transform="translate(61.279297 -16.34375) scale(0.7)"/>
      <use xlink:href="#DejaVuSans-36" transform="translate(105.81543 -16.34375) scale(0.7)"/>
      <use xlink:href="#DejaVuSans-28" transform="translate(153.085938 0.0625)"/>
      <use xlink:href="#DejaVuSans-Oblique-6c" transform="translate(192.099609 0.0625)"/>
      <use xlink:href="#DejaVuSans-70" transform="translate(227.330521 50.810938) scale(0.7)"/>
      <use xlink:href="#DejaVuSans-68" transform="translate(271.764115 50.810938) scale(0.7)"/>
      <use xlink:href="#DejaVuSans-79" transform="translate(316.129349 50.810938) scale(0.7)"/>
      <use xlink:href="#DejaVuSans-73" transform="translate(357.55513 50.810938) scale(0.7)"/>
      <use xlink:href="#DejaVuSans-Oblique-46" transform="translate(219.882812 -27.28125) scale(0.7)"/>
      <use xlink:href="#DejaVuSans-2c" transform="translate(396.759232 0.0625)"/>
      <use xlink:href="#DejaVuSans-Oblique-73" transform="translate(448.028763 0.0625)"/>
      <use xlink:href="#DejaVuSans-Oblique-46" transform="translate(500.128372 -16.34375) scale(0.7)"/>
      <use xlink:href="#DejaVuSans-29" transform="translate(543.126419 0.0625)"/>
     </g>
    </g>
    <g id="LineCollection_11">
     <path d="M 64.14375 41.3 
L 74.14375 41.3 
" style="fill: none; stroke: #51a7f9; stroke-width: 3"/>
    </g>
    <g id="LineCollection_12">
     <path d="M 69.14375 46.3 
L 69.14375 36.3 
" style="fill: none; stroke: #51a7f9; stroke-width: 3"/>
    </g>
    <g id="line2d_115">
     <path d="M 59.14375 41.3 
L 79.14375 41.3 
" style="fill: none; stroke: #51a7f9; stroke-width: 1.5; stroke-linecap: square"/>
    </g>
    <g id="line2d_116">
     <defs>
      <path id="me593a0ff82" d="M 0 4 
C 1.060812 4 2.078319 3.578535 2.828427 2.828427 
C 3.578535 2.078319 4 1.060812 4 0 
C 4 -1.060812 3.578535 -2.078319 2.828427 -2.828427 
C 2.078319 -3.578535 1.060812 -4 0 -4 
C -1.060812 -4 -2.078319 -3.578535 -2.828427 -2.828427 
C -3.578535 -2.078319 -4 -1.060812 -4 0 
C -4 1.060812 -3.578535 2.078319 -2.828427 2.828427 
C -2.078319 3.578535 -1.060812 4 0 4 
z
" style="stroke: #ffffff; stroke-width: 2"/>
     </defs>
     <g>
      <use xlink:href="#me593a0ff82" x="69.14375" y="41.3" style="fill: #51a7f9; stroke: #ffffff; stroke-width: 2"/>
     </g>
    </g>
    <g id="text_19">
     <!-- $a_{09}(l_F^{\rm phys},s_F)$ -->
     <g transform="translate(87.14375 44.8) scale(0.1 -0.1)">
      <defs>
       <path id="DejaVuSans-39" d="M 703 97 
L 703 672 
Q 941 559 1184 500 
Q 1428 441 1663 441 
Q 2288 441 2617 861 
Q 2947 1281 2994 2138 
Q 2813 1869 2534 1725 
Q 2256 1581 1919 1581 
Q 1219 1581 811 2004 
Q 403 2428 403 3163 
Q 403 3881 828 4315 
Q 1253 4750 1959 4750 
Q 2769 4750 3195 4129 
Q 3622 3509 3622 2328 
Q 3622 1225 3098 567 
Q 2575 -91 1691 -91 
Q 1453 -91 1209 -44 
Q 966 3 703 97 
z
M 1959 2075 
Q 2384 2075 2632 2365 
Q 2881 2656 2881 3163 
Q 2881 3666 2632 3958 
Q 2384 4250 1959 4250 
Q 1534 4250 1286 3958 
Q 1038 3666 1038 3163 
Q 1038 2656 1286 2365 
Q 1534 2075 1959 2075 
z
" transform="scale(0.015625)"/>
      </defs>
      <use xlink:href="#DejaVuSans-Oblique-61" transform="translate(0 0.0625)"/>
      <use xlink:href="#DejaVuSans-30" transform="translate(61.279297 -16.34375) scale(0.7)"/>
      <use xlink:href="#DejaVuSans-39" transform="translate(105.81543 -16.34375) scale(0.7)"/>
      <use xlink:href="#DejaVuSans-28" transform="translate(153.085938 0.0625)"/>
      <use xlink:href="#DejaVuSans-Oblique-6c" transform="translate(192.099609 0.0625)"/>
      <use xlink:href="#DejaVuSans-70" transform="translate(227.330521 50.810938) scale(0.7)"/>
      <use xlink:href="#DejaVuSans-68" transform="translate(271.764115 50.810938) scale(0.7)"/>
      <use xlink:href="#DejaVuSans-79" transform="translate(316.129349 50.810938) scale(0.7)"/>
      <use xlink:href="#DejaVuSans-73" transform="translate(357.55513 50.810938) scale(0.7)"/>
      <use xlink:href="#DejaVuSans-Oblique-46" transform="translate(219.882812 -27.28125) scale(0.7)"/>
      <use xlink:href="#DejaVuSans-2c" transform="translate(396.759232 0.0625)"/>
      <use xlink:href="#DejaVuSans-Oblique-73" transform="translate(448.028763 0.0625)"/>
      <use xlink:href="#DejaVuSans-Oblique-46" transform="translate(500.128372 -16.34375) scale(0.7)"/>
      <use xlink:href="#DejaVuSans-29" transform="translate(543.126419 0.0625)"/>
     </g>
    </g>
    <g id="LineCollection_13">
     <path d="M 170.44375 23.1 
L 180.44375 23.1 
" style="fill: none; stroke: #70bf41; stroke-width: 3"/>
    </g>
    <g id="LineCollection_14">
     <path d="M 175.44375 28.1 
L 175.44375 18.1 
" style="fill: none; stroke: #70bf41; stroke-width: 3"/>
    </g>
    <g id="line2d_117">
     <path d="M 165.44375 23.1 
L 185.44375 23.1 
" style="fill: none; stroke: #70bf41; stroke-width: 1.5; stroke-linecap: square"/>
    </g>
    <g id="line2d_118">
     <defs>
      <path id="m56461fba79" d="M 0 4 
C 1.060812 4 2.078319 3.578535 2.828427 2.828427 
C 3.578535 2.078319 4 1.060812 4 0 
C 4 -1.060812 3.578535 -2.078319 2.828427 -2.828427 
C 2.078319 -3.578535 1.060812 -4 0 -4 
C -1.060812 -4 -2.078319 -3.578535 -2.828427 -2.828427 
C -3.578535 -2.078319 -4 -1.060812 -4 0 
C -4 1.060812 -3.578535 2.078319 -2.828427 2.828427 
C -2.078319 3.578535 -1.060812 4 0 4 
z
" style="stroke: #ffffff; stroke-width: 2"/>
     </defs>
     <g>
      <use xlink:href="#m56461fba79" x="175.44375" y="23.1" style="fill: #70bf41; stroke: #ffffff; stroke-width: 2"/>
     </g>
    </g>
    <g id="text_20">
     <!-- $a_{12}(l_F^{\rm phys},s_F)$ -->
     <g transform="translate(193.44375 26.6) scale(0.1 -0.1)">
      <use xlink:href="#DejaVuSans-Oblique-61" transform="translate(0 0.0625)"/>
      <use xlink:href="#DejaVuSans-31" transform="translate(61.279297 -16.34375) scale(0.7)"/>
      <use xlink:href="#DejaVuSans-32" transform="translate(105.81543 -16.34375) scale(0.7)"/>
      <use xlink:href="#DejaVuSans-28" transform="translate(153.085938 0.0625)"/>
      <use xlink:href="#DejaVuSans-Oblique-6c" transform="translate(192.099609 0.0625)"/>
      <use xlink:href="#DejaVuSans-70" transform="translate(227.330521 50.810938) scale(0.7)"/>
      <use xlink:href="#DejaVuSans-68" transform="translate(271.764115 50.810938) scale(0.7)"/>
      <use xlink:href="#DejaVuSans-79" transform="translate(316.129349 50.810938) scale(0.7)"/>
      <use xlink:href="#DejaVuSans-73" transform="translate(357.55513 50.810938) scale(0.7)"/>
      <use xlink:href="#DejaVuSans-Oblique-46" transform="translate(219.882812 -27.28125) scale(0.7)"/>
      <use xlink:href="#DejaVuSans-2c" transform="translate(396.759232 0.0625)"/>
      <use xlink:href="#DejaVuSans-Oblique-73" transform="translate(448.028763 0.0625)"/>
      <use xlink:href="#DejaVuSans-Oblique-46" transform="translate(500.128372 -16.34375) scale(0.7)"/>
      <use xlink:href="#DejaVuSans-29" transform="translate(543.126419 0.0625)"/>
     </g>
    </g>
    <g id="LineCollection_15">
     <path d="M 170.44375 41.3 
L 180.44375 41.3 
" style="fill: none; stroke: #ec5d57; stroke-width: 3"/>
    </g>
    <g id="LineCollection_16">
     <path d="M 175.44375 46.3 
L 175.44375 36.3 
" style="fill: none; stroke: #ec5d57; stroke-width: 3"/>
    </g>
    <g id="line2d_119">
     <path d="M 165.44375 41.3 
L 185.44375 41.3 
" style="fill: none; stroke: #ec5d57; stroke-width: 1.5; stroke-linecap: square"/>
    </g>
    <g id="line2d_120">
     <defs>
      <path id="m52ec98defe" d="M 0 4 
C 1.060812 4 2.078319 3.578535 2.828427 2.828427 
C 3.578535 2.078319 4 1.060812 4 0 
C 4 -1.060812 3.578535 -2.078319 2.828427 -2.828427 
C 2.078319 -3.578535 1.060812 -4 0 -4 
C -1.060812 -4 -2.078319 -3.578535 -2.828427 -2.828427 
C -3.578535 -2.078319 -4 -1.060812 -4 0 
C -4 1.060812 -3.578535 2.078319 -2.828427 2.828427 
C -2.078319 3.578535 -1.060812 4 0 4 
z
" style="stroke: #ffffff; stroke-width: 2"/>
     </defs>
     <g>
      <use xlink:href="#m52ec98defe" x="175.44375" y="41.3" style="fill: #ec5d57; stroke: #ffffff; stroke-width: 2"/>
     </g>
    </g>
    <g id="text_21">
     <!-- $a_{15}(l_F^{\rm phys},s_F)$ -->
     <g transform="translate(193.44375 44.8) scale(0.1 -0.1)">
      <use xlink:href="#DejaVuSans-Oblique-61" transform="translate(0 0.0625)"/>
      <use xlink:href="#DejaVuSans-31" transform="translate(61.279297 -16.34375) scale(0.7)"/>
      <use xlink:href="#DejaVuSans-35" transform="translate(105.81543 -16.34375) scale(0.7)"/>
      <use xlink:href="#DejaVuSans-28" transform="translate(153.085938 0.0625)"/>
      <use xlink:href="#DejaVuSans-Oblique-6c" transform="translate(192.099609 0.0625)"/>
      <use xlink:href="#DejaVuSans-70" transform="translate(227.330521 50.810938) scale(0.7)"/>
      <use xlink:href="#DejaVuSans-68" transform="translate(271.764115 50.810938) scale(0.7)"/>
      <use xlink:href="#DejaVuSans-79" transform="translate(316.129349 50.810938) scale(0.7)"/>
      <use xlink:href="#DejaVuSans-73" transform="translate(357.55513 50.810938) scale(0.7)"/>
      <use xlink:href="#DejaVuSans-Oblique-46" transform="translate(219.882812 -27.28125) scale(0.7)"/>
      <use xlink:href="#DejaVuSans-2c" transform="translate(396.759232 0.0625)"/>
      <use xlink:href="#DejaVuSans-Oblique-73" transform="translate(448.028763 0.0625)"/>
      <use xlink:href="#DejaVuSans-Oblique-46" transform="translate(500.128372 -16.34375) scale(0.7)"/>
      <use xlink:href="#DejaVuSans-29" transform="translate(543.126419 0.0625)"/>
     </g>
    </g>
   </g>
  </g>
 </g>
 <defs>
  <clipPath id="pb2b72b7a0a">
   <rect x="50.14375" y="7.2" width="391.68" height="293.76"/>
  </clipPath>
 </defs>
 <defs>
  <pattern id="h8fe0a5363d" patternUnits="userSpaceOnUse" x="0" y="0" width="72" height="72">
   <rect x="0" y="0" width="73" height="73" fill="none"/>
   <path d="M -36 36 
L 36 -36 
M -24 48 
L 48 -24 
M -12 60 
L 60 -12 
M 0 72 
L 72 0 
M 12 84 
L 84 12 
M 24 96 
L 96 24 
M 36 108 
L 108 36 
" style="fill: #000000; stroke: #000000; stroke-width: 1.0; stroke-linecap: butt; stroke-linejoin: miter; stroke-opacity: 0.6"/>
  </pattern>
 </defs>
</svg>
