<?xml version="1.0" encoding="utf-8" standalone="no"?>
<!DOCTYPE svg PUBLIC "-//W3C//DTD SVG 1.1//EN"
  "http://www.w3.org/Graphics/SVG/1.1/DTD/svg11.dtd">
<svg xmlns:xlink="http://www.w3.org/1999/xlink" width="460.308125pt" height="340.838125pt" viewBox="0 0 460.308125 340.838125" xmlns="http://www.w3.org/2000/svg" version="1.1">
 <metadata>
  <rdf:RDF xmlns:dc="http://purl.org/dc/elements/1.1/" xmlns:cc="http://creativecommons.org/ns#" xmlns:rdf="http://www.w3.org/1999/02/22-rdf-syntax-ns#">
   <cc:Work>
    <dc:type rdf:resource="http://purl.org/dc/dcmitype/StillImage"/>
    <dc:date>2025-03-01T20:43:04.112781</dc:date>
    <dc:format>image/svg+xml</dc:format>
    <dc:creator>
     <cc:Agent>
      <dc:title>Matplotlib v3.10.0, https://matplotlib.org/</dc:title>
     </cc:Agent>
    </dc:creator>
   </cc:Work>
  </rdf:RDF>
 </metadata>
 <defs>
  <style type="text/css">*{stroke-linejoin: round; stroke-linecap: butt}</style>
 </defs>
 <g id="figure_1">
  <g id="patch_1">
   <path d="M 0 340.838125 
L 460.308125 340.838125 
L 460.308125 0 
L 0 0 
L 0 340.838125 
z
" style="fill: none"/>
  </g>
  <g id="axes_1">
   <g id="patch_2">
    <path d="M 61.428125 300.96 
L 453.108125 300.96 
L 453.108125 7.2 
L 61.428125 7.2 
L 61.428125 300.96 
z
" style="fill: none"/>
   </g>
   <g id="FillBetweenPolyCollection_1">
    <path d="M 79.231761 257.059306 
L 79.231761 286.718101 
L 86.472868 281.432079 
L 93.713975 276.212151 
L 100.955081 271.054071 
L 108.196188 265.955641 
L 115.437294 260.915351 
L 122.678401 255.931973 
L 129.919507 251.004354 
L 137.160614 246.131295 
L 144.401721 241.311481 
L 151.642827 236.543431 
L 158.883934 231.825489 
L 166.12504 227.155819 
L 173.366147 222.532431 
L 180.607253 217.953207 
L 187.84836 213.415944 
L 195.089467 208.918393 
L 202.330573 204.458305 
L 209.57168 200.033462 
L 216.812786 195.641718 
L 224.053893 191.281018 
L 231.294999 186.949422 
L 238.536106 182.645117 
L 245.777213 178.366424 
L 253.018319 174.111799 
L 260.259426 169.879835 
L 267.500532 165.669257 
L 274.741639 161.478914 
L 281.982745 157.307774 
L 289.223852 153.154915 
L 296.464959 149.019515 
L 303.706065 144.900846 
L 310.947172 140.798262 
L 318.188278 136.711197 
L 325.429385 132.639149 
L 332.670491 128.581681 
L 339.911598 124.538411 
L 347.152705 120.509003 
L 354.393811 116.49317 
L 361.634918 112.490658 
L 368.876024 108.501253 
L 376.117131 104.524769 
L 383.358237 100.561048 
L 390.599344 96.609954 
L 397.840451 92.671374 
L 405.081557 88.745214 
L 412.322664 84.831394 
L 419.56377 80.92985 
L 426.804877 77.040531 
L 434.045984 73.163395 
L 434.045984 20.552727 
L 434.045984 20.552727 
L 426.804877 25.556951 
L 419.56377 30.558669 
L 412.322664 35.557972 
L 405.081557 40.554942 
L 397.840451 45.549653 
L 390.599344 50.542167 
L 383.358237 55.532532 
L 376.117131 60.52078 
L 368.876024 65.506927 
L 361.634918 70.490966 
L 354.393811 75.472869 
L 347.152705 80.452579 
L 339.911598 85.430009 
L 332.670491 90.405037 
L 325.429385 95.377502 
L 318.188278 100.347198 
L 310.947172 105.313868 
L 303.706065 110.277199 
L 296.464959 115.236816 
L 289.223852 120.192272 
L 281.982745 125.143043 
L 274.741639 130.088519 
L 267.500532 135.027995 
L 260.259426 139.960665 
L 253.018319 144.885613 
L 245.777213 149.801806 
L 238.536106 154.708092 
L 231.294999 159.603189 
L 224.053893 164.485695 
L 216.812786 169.354085 
L 209.57168 174.206719 
L 202.330573 179.041862 
L 195.089467 183.857703 
L 187.84836 188.65238 
L 180.607253 193.424019 
L 173.366147 198.170777 
L 166.12504 202.89088 
L 158.883934 207.582677 
L 151.642827 212.244683 
L 144.401721 216.875615 
L 137.160614 221.474428 
L 129.919507 226.040323 
L 122.678401 230.572759 
L 115.437294 235.071429 
L 108.196188 239.536238 
L 100.955081 243.967252 
L 93.713975 248.364643 
L 86.472868 252.72861 
L 79.231761 257.059306 
z
" clip-path="url(#p97f7936a37)" style="fill: url(#hcddf2c8553); stroke: #000000; stroke-opacity: 0.6"/>
   </g>
   <g id="FillBetweenPolyCollection_2">
    <defs>
     <path id="mc74fd4e66c" d="M 79.231761 -82.485693 
L 79.231761 -53.230852 
L 86.472868 -57.318662 
L 93.713975 -61.348001 
L 100.955081 -65.323269 
L 108.196188 -69.246191 
L 115.437294 -73.117356 
L 122.678401 -76.936648 
L 129.919507 -80.703447 
L 137.160614 -84.416769 
L 144.401721 -88.075387 
L 151.642827 -91.677951 
L 158.883934 -95.223127 
L 166.12504 -98.709746 
L 173.366147 -102.13696 
L 180.607253 -105.50439 
L 187.84836 -108.812247 
L 195.089467 -112.061401 
L 202.330573 -115.253405 
L 209.57168 -118.390445 
L 216.812786 -121.47524 
L 224.053893 -124.510905 
L 231.294999 -127.5008 
L 238.536106 -130.448382 
L 245.777213 -133.357072 
L 253.018319 -136.230156 
L 260.259426 -139.070714 
L 267.500532 -141.881572 
L 274.741639 -144.665286 
L 281.982745 -147.424134 
L 289.223852 -150.160128 
L 296.464959 -152.875027 
L 303.706065 -155.570361 
L 310.947172 -158.247451 
L 318.188278 -160.907434 
L 325.429385 -163.551282 
L 332.670491 -166.179825 
L 339.911598 -168.793769 
L 347.152705 -171.393709 
L 354.393811 -173.980147 
L 361.634918 -176.553505 
L 368.876024 -179.114134 
L 376.117131 -181.662324 
L 383.358237 -184.198314 
L 390.599344 -186.722297 
L 397.840451 -189.234429 
L 405.081557 -191.734832 
L 412.322664 -194.223599 
L 419.56377 -196.700799 
L 426.804877 -199.166481 
L 434.045984 -201.620677 
L 434.045984 -243.312396 
L 434.045984 -243.312396 
L 426.804877 -239.778037 
L 419.56377 -236.244721 
L 412.322664 -232.712346 
L 405.081557 -229.180826 
L 397.840451 -225.650092 
L 390.599344 -222.120098 
L 383.358237 -218.590823 
L 376.117131 -215.062276 
L 368.876024 -211.5345 
L 361.634918 -208.007582 
L 354.393811 -204.481656 
L 347.152705 -200.956913 
L 339.911598 -197.433609 
L 332.670491 -193.912081 
L 325.429385 -190.392751 
L 318.188278 -186.876147 
L 310.947172 -183.362918 
L 303.706065 -179.85385 
L 296.464959 -176.349886 
L 289.223852 -172.85215 
L 281.982745 -169.361967 
L 274.741639 -165.880886 
L 267.500532 -162.410699 
L 260.259426 -158.95346 
L 253.018319 -155.511488 
L 245.777213 -152.087369 
L 238.536106 -148.683927 
L 231.294999 -145.304186 
L 224.053893 -141.951293 
L 216.812786 -138.628413 
L 209.57168 -135.338606 
L 202.330573 -132.084669 
L 195.089467 -128.868986 
L 187.84836 -125.693387 
L 180.607253 -122.559047 
L 173.366147 -119.466435 
L 166.12504 -116.415329 
L 158.883934 -113.404885 
L 151.642827 -110.433748 
L 144.401721 -107.500198 
L 137.160614 -104.60229 
L 129.919507 -101.737991 
L 122.678401 -98.905301 
L 115.437294 -96.102342 
L 108.196188 -93.327439 
L 100.955081 -90.579178 
L 93.713975 -87.85647 
L 86.472868 -85.158642 
L 79.231761 -82.485693 
z
" style="stroke: #ec5d57; stroke-opacity: 0.4"/>
    </defs>
    <g clip-path="url(#p97f7936a37)">
     <use xlink:href="#mc74fd4e66c" x="0" y="340.838125" style="fill: #ec5d57; fill-opacity: 0.4; stroke: #ec5d57; stroke-opacity: 0.4"/>
    </g>
   </g>
   <g id="FillBetweenPolyCollection_3">
    <defs>
     <path id="mffb6577e71" d="M 79.231761 -69.311572 
L 79.231761 -56.14602 
L 86.472868 -60.748096 
L 93.713975 -65.285921 
L 100.955081 -69.76124 
L 108.196188 -74.169659 
L 115.437294 -78.500914 
L 122.678401 -82.737117 
L 129.919507 -86.851479 
L 137.160614 -90.812219 
L 144.401721 -94.597391 
L 151.642827 -98.212972 
L 158.883934 -101.691812 
L 166.12504 -105.074118 
L 173.366147 -108.392663 
L 180.607253 -111.669783 
L 187.84836 -114.919696 
L 195.089467 -118.151312 
L 202.330573 -121.370244 
L 209.57168 -124.580069 
L 216.812786 -127.783092 
L 224.053893 -130.980796 
L 231.294999 -134.174129 
L 238.536106 -137.363676 
L 245.777213 -140.549772 
L 253.018319 -143.73258 
L 260.259426 -146.912136 
L 267.500532 -150.088385 
L 274.741639 -153.261207 
L 281.982745 -156.430431 
L 289.223852 -159.595849 
L 296.464959 -162.757225 
L 303.706065 -165.914304 
L 310.947172 -169.066811 
L 318.188278 -172.214464 
L 325.429385 -175.356968 
L 332.670491 -178.494026 
L 339.911598 -181.625334 
L 347.152705 -184.750589 
L 354.393811 -187.869483 
L 361.634918 -190.981714 
L 368.876024 -194.086977 
L 376.117131 -197.184972 
L 383.358237 -200.275401 
L 390.599344 -203.357971 
L 397.840451 -206.432394 
L 405.081557 -209.498385 
L 412.322664 -212.555667 
L 419.56377 -215.603968 
L 426.804877 -218.643023 
L 434.045984 -221.672574 
L 434.045984 -259.346696 
L 434.045984 -259.346696 
L 426.804877 -255.435886 
L 419.56377 -251.524384 
L 412.322664 -247.611802 
L 405.081557 -243.697738 
L 397.840451 -239.781784 
L 390.599344 -235.863521 
L 383.358237 -231.942523 
L 376.117131 -228.018354 
L 368.876024 -224.090571 
L 361.634918 -220.158726 
L 354.393811 -216.22236 
L 347.152705 -212.28101 
L 339.911598 -208.334208 
L 332.670491 -204.38148 
L 325.429385 -200.42235 
L 318.188278 -196.456338 
L 310.947172 -192.482964 
L 303.706065 -188.501747 
L 296.464959 -184.512211 
L 289.223852 -180.513886 
L 281.982745 -176.50631 
L 274.741639 -172.489036 
L 267.500532 -168.461639 
L 260.259426 -164.423721 
L 253.018319 -160.374928 
L 245.777213 -156.314963 
L 238.536106 -152.243608 
L 231.294999 -148.160761 
L 224.053893 -144.066483 
L 216.812786 -139.961071 
L 209.57168 -135.84517 
L 202.330573 -131.719946 
L 195.089467 -127.587366 
L 187.84836 -123.450654 
L 180.607253 -119.315047 
L 173.366147 -115.18905 
L 166.12504 -111.086449 
L 158.883934 -107.029116 
L 151.642827 -103.049317 
L 144.401721 -99.186707 
L 137.160614 -95.473525 
L 129.919507 -91.915066 
L 122.678401 -88.488609 
L 115.437294 -85.161483 
L 108.196188 -81.905841 
L 100.955081 -78.702497 
L 93.713975 -75.539509 
L 86.472868 -72.410086 
L 79.231761 -69.311572 
z
" style="stroke: #70bf41; stroke-opacity: 0.4"/>
    </defs>
    <g clip-path="url(#p97f7936a37)">
     <use xlink:href="#mffb6577e71" x="0" y="340.838125" style="fill: #70bf41; fill-opacity: 0.4; stroke: #70bf41; stroke-opacity: 0.4"/>
    </g>
   </g>
   <g id="FillBetweenPolyCollection_4">
    <defs>
     <path id="me7f7529e68" d="M 79.231761 -69.002761 
L 79.231761 -56.37035 
L 86.472868 -61.270744 
L 93.713975 -66.078832 
L 100.955081 -70.790737 
L 108.196188 -75.398101 
L 115.437294 -79.891625 
L 122.678401 -84.264415 
L 129.919507 -88.51541 
L 137.160614 -92.65126 
L 144.401721 -96.685345 
L 151.642827 -100.634614 
L 158.883934 -104.516185 
L 166.12504 -108.34515 
L 173.366147 -112.133755 
L 180.607253 -115.891462 
L 187.84836 -119.62538 
L 195.089467 -123.340782 
L 202.330573 -127.041549 
L 209.57168 -130.73053 
L 216.812786 -134.409811 
L 224.053893 -138.080913 
L 231.294999 -141.744939 
L 238.536106 -145.402672 
L 245.777213 -149.054662 
L 253.018319 -152.701273 
L 260.259426 -156.342732 
L 267.500532 -159.979155 
L 274.741639 -163.610576 
L 281.982745 -167.23696 
L 289.223852 -170.858222 
L 296.464959 -174.474234 
L 303.706065 -178.084835 
L 310.947172 -181.689838 
L 318.188278 -185.289035 
L 325.429385 -188.882203 
L 332.670491 -192.469106 
L 339.911598 -196.049497 
L 347.152705 -199.623123 
L 354.393811 -203.189727 
L 361.634918 -206.749047 
L 368.876024 -210.300821 
L 376.117131 -213.844786 
L 383.358237 -217.380679 
L 390.599344 -220.908241 
L 397.840451 -224.427215 
L 405.081557 -227.937345 
L 412.322664 -231.438384 
L 419.56377 -234.930084 
L 426.804877 -238.412208 
L 434.045984 -241.88452 
L 434.045984 -282.698849 
L 434.045984 -282.698849 
L 426.804877 -278.334308 
L 419.56377 -273.969621 
L 412.322664 -269.604421 
L 405.081557 -265.238334 
L 397.840451 -260.870977 
L 390.599344 -256.501961 
L 383.358237 -252.130888 
L 376.117131 -247.757355 
L 368.876024 -243.380952 
L 361.634918 -239.001264 
L 354.393811 -234.617872 
L 347.152705 -230.230354 
L 339.911598 -225.838284 
L 332.670491 -221.441237 
L 325.429385 -217.038787 
L 318.188278 -212.630511 
L 310.947172 -208.215993 
L 303.706065 -203.79482 
L 296.464959 -199.366593 
L 289.223852 -194.930927 
L 281.982745 -190.487457 
L 274.741639 -186.035843 
L 267.500532 -181.575782 
L 260.259426 -177.107014 
L 253.018319 -172.629336 
L 245.777213 -168.142624 
L 238.536106 -163.64685 
L 231.294999 -159.142116 
L 224.053893 -154.628694 
L 216.812786 -150.107082 
L 209.57168 -145.578078 
L 202.330573 -141.042885 
L 195.089467 -136.503255 
L 187.84836 -131.961682 
L 180.607253 -127.42167 
L 173.366147 -122.888086 
L 166.12504 -118.367612 
L 158.883934 -113.86924 
L 151.642827 -109.404713 
L 144.401721 -104.988569 
L 137.160614 -100.637317 
L 129.919507 -96.367221 
L 122.678401 -92.19089 
L 115.437294 -88.11408 
L 108.196188 -84.134673 
L 100.955081 -80.244479 
L 93.713975 -76.432519 
L 86.472868 -72.688039 
L 79.231761 -69.002761 
z
" style="stroke: #51a7f9; stroke-opacity: 0.4"/>
    </defs>
    <g clip-path="url(#p97f7936a37)">
     <use xlink:href="#me7f7529e68" x="0" y="340.838125" style="fill: #51a7f9; fill-opacity: 0.4; stroke: #51a7f9; stroke-opacity: 0.4"/>
    </g>
   </g>
   <g id="FillBetweenPolyCollection_5">
    <defs>
     <path id="mb39a48800e" d="M 79.231761 -74.97355 
L 79.231761 -55.762383 
L 86.472868 -60.877655 
L 93.713975 -65.913638 
L 100.955081 -70.872868 
L 108.196188 -75.755484 
L 115.437294 -80.56107 
L 122.678401 -85.289402 
L 129.919507 -89.940955 
L 137.160614 -94.517231 
L 144.401721 -99.020919 
L 151.642827 -103.455864 
L 158.883934 -107.826861 
L 166.12504 -112.139346 
L 173.366147 -116.399047 
L 180.607253 -120.611667 
L 187.84836 -124.782632 
L 195.089467 -128.916925 
L 202.330573 -133.019005 
L 209.57168 -137.092768 
L 216.812786 -141.141574 
L 224.053893 -145.168277 
L 231.294999 -149.175281 
L 238.536106 -153.164596 
L 245.777213 -157.137891 
L 253.018319 -161.096545 
L 260.259426 -165.041689 
L 267.500532 -168.974248 
L 274.741639 -172.894972 
L 281.982745 -176.804465 
L 289.223852 -180.703207 
L 296.464959 -184.591577 
L 303.706065 -188.469866 
L 310.947172 -192.338292 
L 318.188278 -196.197016 
L 325.429385 -200.046145 
L 332.670491 -203.885743 
L 339.911598 -207.71584 
L 347.152705 -211.536437 
L 354.393811 -215.347508 
L 361.634918 -219.149007 
L 368.876024 -222.940872 
L 376.117131 -226.723027 
L 383.358237 -230.495384 
L 390.599344 -234.257845 
L 397.840451 -238.010308 
L 405.081557 -241.752664 
L 412.322664 -245.484799 
L 419.56377 -249.206598 
L 426.804877 -252.917943 
L 434.045984 -256.618717 
L 434.045984 -302.133159 
L 434.045984 -302.133159 
L 426.804877 -297.405406 
L 419.56377 -292.678427 
L 412.322664 -287.951969 
L 405.081557 -283.225782 
L 397.840451 -278.499612 
L 390.599344 -273.773205 
L 383.358237 -269.04631 
L 376.117131 -264.318676 
L 368.876024 -259.590057 
L 361.634918 -254.860214 
L 354.393811 -250.128912 
L 347.152705 -245.395931 
L 339.911598 -240.66106 
L 332.670491 -235.924106 
L 325.429385 -231.184897 
L 318.188278 -226.443285 
L 310.947172 -221.699155 
L 303.706065 -216.952426 
L 296.464959 -212.203066 
L 289.223852 -207.451094 
L 281.982745 -202.6966 
L 274.741639 -197.939748 
L 267.500532 -193.180803 
L 260.259426 -188.42014 
L 253.018319 -183.658278 
L 245.777213 -178.895895 
L 238.536106 -174.133873 
L 231.294999 -169.373324 
L 224.053893 -164.615643 
L 216.812786 -159.862552 
L 209.57168 -155.116151 
L 202.330573 -150.37898 
L 195.089467 -145.654058 
L 187.84836 -140.944931 
L 180.607253 -136.255678 
L 173.366147 -131.590879 
L 166.12504 -126.955529 
L 158.883934 -122.354866 
L 151.642827 -117.794111 
L 144.401721 -113.278148 
L 137.160614 -108.811162 
L 129.919507 -104.396313 
L 122.678401 -100.03552 
L 115.437294 -95.72939 
L 108.196188 -91.477341 
L 100.955081 -87.277854 
L 93.713975 -83.128833 
L 86.472868 -79.028019 
L 79.231761 -74.97355 
z
" style="stroke: #6a5acd; stroke-opacity: 0.4"/>
    </defs>
    <g clip-path="url(#p97f7936a37)">
     <use xlink:href="#mb39a48800e" x="0" y="340.838125" style="fill: #6a5acd; fill-opacity: 0.4; stroke: #6a5acd; stroke-opacity: 0.4"/>
    </g>
   </g>
   <g id="matplotlib.axis_1">
    <g id="xtick_1">
     <g id="line2d_1">
      <defs>
       <path id="mc10af9bf29" d="M 0 0 
L 0 3.5 
" style="stroke: #000000; stroke-width: 0.8"/>
      </defs>
      <g>
       <use xlink:href="#mc10af9bf29" x="78.846348" y="300.96" style="stroke: #000000; stroke-width: 0.8"/>
      </g>
     </g>
     <g id="text_1">
      <!-- 0.00 -->
      <g transform="translate(67.713535 315.558438) scale(0.1 -0.1)">
       <defs>
        <path id="DejaVuSans-30" d="M 2034 4250 
Q 1547 4250 1301 3770 
Q 1056 3291 1056 2328 
Q 1056 1369 1301 889 
Q 1547 409 2034 409 
Q 2525 409 2770 889 
Q 3016 1369 3016 2328 
Q 3016 3291 2770 3770 
Q 2525 4250 2034 4250 
z
M 2034 4750 
Q 2819 4750 3233 4129 
Q 3647 3509 3647 2328 
Q 3647 1150 3233 529 
Q 2819 -91 2034 -91 
Q 1250 -91 836 529 
Q 422 1150 422 2328 
Q 422 3509 836 4129 
Q 1250 4750 2034 4750 
z
" transform="scale(0.015625)"/>
        <path id="DejaVuSans-2e" d="M 684 794 
L 1344 794 
L 1344 0 
L 684 0 
L 684 794 
z
" transform="scale(0.015625)"/>
       </defs>
       <use xlink:href="#DejaVuSans-30"/>
       <use xlink:href="#DejaVuSans-2e" transform="translate(63.623047 0)"/>
       <use xlink:href="#DejaVuSans-30" transform="translate(95.410156 0)"/>
       <use xlink:href="#DejaVuSans-30" transform="translate(159.033203 0)"/>
      </g>
     </g>
    </g>
    <g id="xtick_2">
     <g id="line2d_2">
      <g>
       <use xlink:href="#mc10af9bf29" x="155.929084" y="300.96" style="stroke: #000000; stroke-width: 0.8"/>
      </g>
     </g>
     <g id="text_2">
      <!-- 0.02 -->
      <g transform="translate(144.796272 315.558438) scale(0.1 -0.1)">
       <defs>
        <path id="DejaVuSans-32" d="M 1228 531 
L 3431 531 
L 3431 0 
L 469 0 
L 469 531 
Q 828 903 1448 1529 
Q 2069 2156 2228 2338 
Q 2531 2678 2651 2914 
Q 2772 3150 2772 3378 
Q 2772 3750 2511 3984 
Q 2250 4219 1831 4219 
Q 1534 4219 1204 4116 
Q 875 4013 500 3803 
L 500 4441 
Q 881 4594 1212 4672 
Q 1544 4750 1819 4750 
Q 2544 4750 2975 4387 
Q 3406 4025 3406 3419 
Q 3406 3131 3298 2873 
Q 3191 2616 2906 2266 
Q 2828 2175 2409 1742 
Q 1991 1309 1228 531 
z
" transform="scale(0.015625)"/>
       </defs>
       <use xlink:href="#DejaVuSans-30"/>
       <use xlink:href="#DejaVuSans-2e" transform="translate(63.623047 0)"/>
       <use xlink:href="#DejaVuSans-30" transform="translate(95.410156 0)"/>
       <use xlink:href="#DejaVuSans-32" transform="translate(159.033203 0)"/>
      </g>
     </g>
    </g>
    <g id="xtick_3">
     <g id="line2d_3">
      <g>
       <use xlink:href="#mc10af9bf29" x="233.011821" y="300.96" style="stroke: #000000; stroke-width: 0.8"/>
      </g>
     </g>
     <g id="text_3">
      <!-- 0.04 -->
      <g transform="translate(221.879008 315.558438) scale(0.1 -0.1)">
       <defs>
        <path id="DejaVuSans-34" d="M 2419 4116 
L 825 1625 
L 2419 1625 
L 2419 4116 
z
M 2253 4666 
L 3047 4666 
L 3047 1625 
L 3713 1625 
L 3713 1100 
L 3047 1100 
L 3047 0 
L 2419 0 
L 2419 1100 
L 313 1100 
L 313 1709 
L 2253 4666 
z
" transform="scale(0.015625)"/>
       </defs>
       <use xlink:href="#DejaVuSans-30"/>
       <use xlink:href="#DejaVuSans-2e" transform="translate(63.623047 0)"/>
       <use xlink:href="#DejaVuSans-30" transform="translate(95.410156 0)"/>
       <use xlink:href="#DejaVuSans-34" transform="translate(159.033203 0)"/>
      </g>
     </g>
    </g>
    <g id="xtick_4">
     <g id="line2d_4">
      <g>
       <use xlink:href="#mc10af9bf29" x="310.094557" y="300.96" style="stroke: #000000; stroke-width: 0.8"/>
      </g>
     </g>
     <g id="text_4">
      <!-- 0.06 -->
      <g transform="translate(298.961745 315.558438) scale(0.1 -0.1)">
       <defs>
        <path id="DejaVuSans-36" d="M 2113 2584 
Q 1688 2584 1439 2293 
Q 1191 2003 1191 1497 
Q 1191 994 1439 701 
Q 1688 409 2113 409 
Q 2538 409 2786 701 
Q 3034 994 3034 1497 
Q 3034 2003 2786 2293 
Q 2538 2584 2113 2584 
z
M 3366 4563 
L 3366 3988 
Q 3128 4100 2886 4159 
Q 2644 4219 2406 4219 
Q 1781 4219 1451 3797 
Q 1122 3375 1075 2522 
Q 1259 2794 1537 2939 
Q 1816 3084 2150 3084 
Q 2853 3084 3261 2657 
Q 3669 2231 3669 1497 
Q 3669 778 3244 343 
Q 2819 -91 2113 -91 
Q 1303 -91 875 529 
Q 447 1150 447 2328 
Q 447 3434 972 4092 
Q 1497 4750 2381 4750 
Q 2619 4750 2861 4703 
Q 3103 4656 3366 4563 
z
" transform="scale(0.015625)"/>
       </defs>
       <use xlink:href="#DejaVuSans-30"/>
       <use xlink:href="#DejaVuSans-2e" transform="translate(63.623047 0)"/>
       <use xlink:href="#DejaVuSans-30" transform="translate(95.410156 0)"/>
       <use xlink:href="#DejaVuSans-36" transform="translate(159.033203 0)"/>
      </g>
     </g>
    </g>
    <g id="xtick_5">
     <g id="line2d_5">
      <g>
       <use xlink:href="#mc10af9bf29" x="387.177294" y="300.96" style="stroke: #000000; stroke-width: 0.8"/>
      </g>
     </g>
     <g id="text_5">
      <!-- 0.08 -->
      <g transform="translate(376.044481 315.558438) scale(0.1 -0.1)">
       <defs>
        <path id="DejaVuSans-38" d="M 2034 2216 
Q 1584 2216 1326 1975 
Q 1069 1734 1069 1313 
Q 1069 891 1326 650 
Q 1584 409 2034 409 
Q 2484 409 2743 651 
Q 3003 894 3003 1313 
Q 3003 1734 2745 1975 
Q 2488 2216 2034 2216 
z
M 1403 2484 
Q 997 2584 770 2862 
Q 544 3141 544 3541 
Q 544 4100 942 4425 
Q 1341 4750 2034 4750 
Q 2731 4750 3128 4425 
Q 3525 4100 3525 3541 
Q 3525 3141 3298 2862 
Q 3072 2584 2669 2484 
Q 3125 2378 3379 2068 
Q 3634 1759 3634 1313 
Q 3634 634 3220 271 
Q 2806 -91 2034 -91 
Q 1263 -91 848 271 
Q 434 634 434 1313 
Q 434 1759 690 2068 
Q 947 2378 1403 2484 
z
M 1172 3481 
Q 1172 3119 1398 2916 
Q 1625 2713 2034 2713 
Q 2441 2713 2670 2916 
Q 2900 3119 2900 3481 
Q 2900 3844 2670 4047 
Q 2441 4250 2034 4250 
Q 1625 4250 1398 4047 
Q 1172 3844 1172 3481 
z
" transform="scale(0.015625)"/>
       </defs>
       <use xlink:href="#DejaVuSans-30"/>
       <use xlink:href="#DejaVuSans-2e" transform="translate(63.623047 0)"/>
       <use xlink:href="#DejaVuSans-30" transform="translate(95.410156 0)"/>
       <use xlink:href="#DejaVuSans-38" transform="translate(159.033203 0)"/>
      </g>
     </g>
    </g>
    <g id="text_6">
     <!-- $l^2_F = m_\pi^2 / (4 \pi F_\pi)^2$ -->
     <g transform="translate(220.218125 330.738125) scale(0.1 -0.1)">
      <defs>
       <path id="DejaVuSans-Oblique-6c" d="M 1172 4863 
L 1747 4863 
L 800 0 
L 225 0 
L 1172 4863 
z
" transform="scale(0.015625)"/>
       <path id="DejaVuSans-Oblique-46" d="M 1081 4666 
L 3756 4666 
L 3653 4134 
L 1606 4134 
L 1338 2759 
L 3188 2759 
L 3084 2228 
L 1234 2228 
L 800 0 
L 172 0 
L 1081 4666 
z
" transform="scale(0.015625)"/>
       <path id="DejaVuSans-3d" d="M 678 2906 
L 4684 2906 
L 4684 2381 
L 678 2381 
L 678 2906 
z
M 678 1631 
L 4684 1631 
L 4684 1100 
L 678 1100 
L 678 1631 
z
" transform="scale(0.015625)"/>
       <path id="DejaVuSans-Oblique-6d" d="M 5747 2113 
L 5338 0 
L 4763 0 
L 5166 2094 
Q 5191 2228 5203 2325 
Q 5216 2422 5216 2491 
Q 5216 2772 5059 2928 
Q 4903 3084 4622 3084 
Q 4203 3084 3875 2770 
Q 3547 2456 3450 1953 
L 3066 0 
L 2491 0 
L 2900 2094 
Q 2925 2209 2937 2307 
Q 2950 2406 2950 2484 
Q 2950 2769 2794 2926 
Q 2638 3084 2363 3084 
Q 1938 3084 1609 2770 
Q 1281 2456 1184 1953 
L 800 0 
L 225 0 
L 909 3500 
L 1484 3500 
L 1375 2956 
Q 1609 3263 1923 3423 
Q 2238 3584 2597 3584 
Q 2978 3584 3223 3384 
Q 3469 3184 3519 2828 
Q 3781 3197 4126 3390 
Q 4472 3584 4856 3584 
Q 5306 3584 5551 3325 
Q 5797 3066 5797 2591 
Q 5797 2488 5784 2364 
Q 5772 2241 5747 2113 
z
" transform="scale(0.015625)"/>
       <path id="DejaVuSans-Oblique-3c0" d="M 584 3500 
L 3938 3500 
L 3825 2925 
L 3384 2925 
L 2966 775 
Q 2922 550 2981 450 
Q 3038 353 3209 353 
Q 3256 353 3325 363 
Q 3397 369 3419 372 
L 3338 -44 
Q 3222 -84 3103 -103 
Q 2981 -122 2866 -122 
Q 2491 -122 2388 81 
Q 2284 288 2391 838 
L 2797 2925 
L 1506 2925 
L 938 0 
L 350 0 
L 919 2925 
L 472 2925 
L 584 3500 
z
" transform="scale(0.015625)"/>
       <path id="DejaVuSans-2f" d="M 1625 4666 
L 2156 4666 
L 531 -594 
L 0 -594 
L 1625 4666 
z
" transform="scale(0.015625)"/>
       <path id="DejaVuSans-28" d="M 1984 4856 
Q 1566 4138 1362 3434 
Q 1159 2731 1159 2009 
Q 1159 1288 1364 580 
Q 1569 -128 1984 -844 
L 1484 -844 
Q 1016 -109 783 600 
Q 550 1309 550 2009 
Q 550 2706 781 3412 
Q 1013 4119 1484 4856 
L 1984 4856 
z
" transform="scale(0.015625)"/>
       <path id="DejaVuSans-29" d="M 513 4856 
L 1013 4856 
Q 1481 4119 1714 3412 
Q 1947 2706 1947 2009 
Q 1947 1309 1714 600 
Q 1481 -109 1013 -844 
L 513 -844 
Q 928 -128 1133 580 
Q 1338 1288 1338 2009 
Q 1338 2731 1133 3434 
Q 928 4138 513 4856 
z
" transform="scale(0.015625)"/>
      </defs>
      <use xlink:href="#DejaVuSans-Oblique-6c" transform="translate(0 0.765625)"/>
      <use xlink:href="#DejaVuSans-32" transform="translate(35.230911 39.046875) scale(0.7)"/>
      <use xlink:href="#DejaVuSans-Oblique-46" transform="translate(27.783203 -26.578125) scale(0.7)"/>
      <use xlink:href="#DejaVuSans-3d" transform="translate(101.983841 0.765625)"/>
      <use xlink:href="#DejaVuSans-Oblique-6d" transform="translate(205.255326 0.765625)"/>
      <use xlink:href="#DejaVuSans-32" transform="translate(307.317331 39.046875) scale(0.7)"/>
      <use xlink:href="#DejaVuSans-Oblique-3c0" transform="translate(302.667435 -26.578125) scale(0.7)"/>
      <use xlink:href="#DejaVuSans-2f" transform="translate(354.587839 0.765625)"/>
      <use xlink:href="#DejaVuSans-28" transform="translate(388.279245 0.765625)"/>
      <use xlink:href="#DejaVuSans-34" transform="translate(427.292917 0.765625)"/>
      <use xlink:href="#DejaVuSans-Oblique-3c0" transform="translate(490.915964 0.765625)"/>
      <use xlink:href="#DejaVuSans-Oblique-46" transform="translate(551.121042 0.765625)"/>
      <use xlink:href="#DejaVuSans-Oblique-3c0" transform="translate(608.640573 -15.640625) scale(0.7)"/>
      <use xlink:href="#DejaVuSans-29" transform="translate(653.518503 0.765625)"/>
      <use xlink:href="#DejaVuSans-32" transform="translate(693.489206 39.046875) scale(0.7)"/>
     </g>
    </g>
   </g>
   <g id="matplotlib.axis_2">
    <g id="ytick_1">
     <g id="line2d_6">
      <defs>
       <path id="m6e4f0c9093" d="M 0 0 
L -3.5 0 
" style="stroke: #000000; stroke-width: 0.8"/>
      </defs>
      <g>
       <use xlink:href="#m6e4f0c9093" x="61.428125" y="284.139093" style="stroke: #000000; stroke-width: 0.8"/>
      </g>
     </g>
     <g id="text_7">
      <!-- 1.175 -->
      <g transform="translate(25.8 287.938312) scale(0.1 -0.1)">
       <defs>
        <path id="DejaVuSans-31" d="M 794 531 
L 1825 531 
L 1825 4091 
L 703 3866 
L 703 4441 
L 1819 4666 
L 2450 4666 
L 2450 531 
L 3481 531 
L 3481 0 
L 794 0 
L 794 531 
z
" transform="scale(0.015625)"/>
        <path id="DejaVuSans-37" d="M 525 4666 
L 3525 4666 
L 3525 4397 
L 1831 0 
L 1172 0 
L 2766 4134 
L 525 4134 
L 525 4666 
z
" transform="scale(0.015625)"/>
        <path id="DejaVuSans-35" d="M 691 4666 
L 3169 4666 
L 3169 4134 
L 1269 4134 
L 1269 2991 
Q 1406 3038 1543 3061 
Q 1681 3084 1819 3084 
Q 2600 3084 3056 2656 
Q 3513 2228 3513 1497 
Q 3513 744 3044 326 
Q 2575 -91 1722 -91 
Q 1428 -91 1123 -41 
Q 819 9 494 109 
L 494 744 
Q 775 591 1075 516 
Q 1375 441 1709 441 
Q 2250 441 2565 725 
Q 2881 1009 2881 1497 
Q 2881 1984 2565 2268 
Q 2250 2553 1709 2553 
Q 1456 2553 1204 2497 
Q 953 2441 691 2322 
L 691 4666 
z
" transform="scale(0.015625)"/>
       </defs>
       <use xlink:href="#DejaVuSans-31"/>
       <use xlink:href="#DejaVuSans-2e" transform="translate(63.623047 0)"/>
       <use xlink:href="#DejaVuSans-31" transform="translate(95.410156 0)"/>
       <use xlink:href="#DejaVuSans-37" transform="translate(159.033203 0)"/>
       <use xlink:href="#DejaVuSans-35" transform="translate(222.65625 0)"/>
      </g>
     </g>
    </g>
    <g id="ytick_2">
     <g id="line2d_7">
      <g>
       <use xlink:href="#m6e4f0c9093" x="61.428125" y="243.790131" style="stroke: #000000; stroke-width: 0.8"/>
      </g>
     </g>
     <g id="text_8">
      <!-- 1.200 -->
      <g transform="translate(25.8 247.58935) scale(0.1 -0.1)">
       <use xlink:href="#DejaVuSans-31"/>
       <use xlink:href="#DejaVuSans-2e" transform="translate(63.623047 0)"/>
       <use xlink:href="#DejaVuSans-32" transform="translate(95.410156 0)"/>
       <use xlink:href="#DejaVuSans-30" transform="translate(159.033203 0)"/>
       <use xlink:href="#DejaVuSans-30" transform="translate(222.65625 0)"/>
      </g>
     </g>
    </g>
    <g id="ytick_3">
     <g id="line2d_8">
      <g>
       <use xlink:href="#m6e4f0c9093" x="61.428125" y="203.441169" style="stroke: #000000; stroke-width: 0.8"/>
      </g>
     </g>
     <g id="text_9">
      <!-- 1.225 -->
      <g transform="translate(25.8 207.240387) scale(0.1 -0.1)">
       <use xlink:href="#DejaVuSans-31"/>
       <use xlink:href="#DejaVuSans-2e" transform="translate(63.623047 0)"/>
       <use xlink:href="#DejaVuSans-32" transform="translate(95.410156 0)"/>
       <use xlink:href="#DejaVuSans-32" transform="translate(159.033203 0)"/>
       <use xlink:href="#DejaVuSans-35" transform="translate(222.65625 0)"/>
      </g>
     </g>
    </g>
    <g id="ytick_4">
     <g id="line2d_9">
      <g>
       <use xlink:href="#m6e4f0c9093" x="61.428125" y="163.092206" style="stroke: #000000; stroke-width: 0.8"/>
      </g>
     </g>
     <g id="text_10">
      <!-- 1.250 -->
      <g transform="translate(25.8 166.891425) scale(0.1 -0.1)">
       <use xlink:href="#DejaVuSans-31"/>
       <use xlink:href="#DejaVuSans-2e" transform="translate(63.623047 0)"/>
       <use xlink:href="#DejaVuSans-32" transform="translate(95.410156 0)"/>
       <use xlink:href="#DejaVuSans-35" transform="translate(159.033203 0)"/>
       <use xlink:href="#DejaVuSans-30" transform="translate(222.65625 0)"/>
      </g>
     </g>
    </g>
    <g id="ytick_5">
     <g id="line2d_10">
      <g>
       <use xlink:href="#m6e4f0c9093" x="61.428125" y="122.743244" style="stroke: #000000; stroke-width: 0.8"/>
      </g>
     </g>
     <g id="text_11">
      <!-- 1.275 -->
      <g transform="translate(25.8 126.542463) scale(0.1 -0.1)">
       <use xlink:href="#DejaVuSans-31"/>
       <use xlink:href="#DejaVuSans-2e" transform="translate(63.623047 0)"/>
       <use xlink:href="#DejaVuSans-32" transform="translate(95.410156 0)"/>
       <use xlink:href="#DejaVuSans-37" transform="translate(159.033203 0)"/>
       <use xlink:href="#DejaVuSans-35" transform="translate(222.65625 0)"/>
      </g>
     </g>
    </g>
    <g id="ytick_6">
     <g id="line2d_11">
      <g>
       <use xlink:href="#m6e4f0c9093" x="61.428125" y="82.394282" style="stroke: #000000; stroke-width: 0.8"/>
      </g>
     </g>
     <g id="text_12">
      <!-- 1.300 -->
      <g transform="translate(25.8 86.1935) scale(0.1 -0.1)">
       <defs>
        <path id="DejaVuSans-33" d="M 2597 2516 
Q 3050 2419 3304 2112 
Q 3559 1806 3559 1356 
Q 3559 666 3084 287 
Q 2609 -91 1734 -91 
Q 1441 -91 1130 -33 
Q 819 25 488 141 
L 488 750 
Q 750 597 1062 519 
Q 1375 441 1716 441 
Q 2309 441 2620 675 
Q 2931 909 2931 1356 
Q 2931 1769 2642 2001 
Q 2353 2234 1838 2234 
L 1294 2234 
L 1294 2753 
L 1863 2753 
Q 2328 2753 2575 2939 
Q 2822 3125 2822 3475 
Q 2822 3834 2567 4026 
Q 2313 4219 1838 4219 
Q 1578 4219 1281 4162 
Q 984 4106 628 3988 
L 628 4550 
Q 988 4650 1302 4700 
Q 1616 4750 1894 4750 
Q 2613 4750 3031 4423 
Q 3450 4097 3450 3541 
Q 3450 3153 3228 2886 
Q 3006 2619 2597 2516 
z
" transform="scale(0.015625)"/>
       </defs>
       <use xlink:href="#DejaVuSans-31"/>
       <use xlink:href="#DejaVuSans-2e" transform="translate(63.623047 0)"/>
       <use xlink:href="#DejaVuSans-33" transform="translate(95.410156 0)"/>
       <use xlink:href="#DejaVuSans-30" transform="translate(159.033203 0)"/>
       <use xlink:href="#DejaVuSans-30" transform="translate(222.65625 0)"/>
      </g>
     </g>
    </g>
    <g id="ytick_7">
     <g id="line2d_12">
      <g>
       <use xlink:href="#m6e4f0c9093" x="61.428125" y="42.045319" style="stroke: #000000; stroke-width: 0.8"/>
      </g>
     </g>
     <g id="text_13">
      <!-- 1.325 -->
      <g transform="translate(25.8 45.844538) scale(0.1 -0.1)">
       <use xlink:href="#DejaVuSans-31"/>
       <use xlink:href="#DejaVuSans-2e" transform="translate(63.623047 0)"/>
       <use xlink:href="#DejaVuSans-33" transform="translate(95.410156 0)"/>
       <use xlink:href="#DejaVuSans-32" transform="translate(159.033203 0)"/>
       <use xlink:href="#DejaVuSans-35" transform="translate(222.65625 0)"/>
      </g>
     </g>
    </g>
    <g id="text_14">
     <!-- $m_\Omega \sqrt{t_0 / a^2}$ -->
     <g transform="translate(19.720313 178.68) rotate(-90) scale(0.1 -0.1)">
      <defs>
       <path id="DejaVuSans-3a9" d="M 4647 556 
L 4647 0 
L 2772 0 
L 2772 556 
Q 3325 859 3634 1378 
Q 3944 1897 3944 2528 
Q 3944 3278 3531 3731 
Q 3119 4184 2444 4184 
Q 1769 4184 1355 3729 
Q 941 3275 941 2528 
Q 941 1897 1250 1378 
Q 1563 859 2119 556 
L 2119 0 
L 244 0 
L 244 556 
L 1241 556 
Q 747 991 519 1456 
Q 294 1922 294 2497 
Q 294 3491 894 4106 
Q 1491 4722 2444 4722 
Q 3391 4722 3994 4106 
Q 4594 3494 4594 2528 
Q 4594 1922 4372 1459 
Q 4150 997 3647 556 
L 4647 556 
z
" transform="scale(0.015625)"/>
       <path id="STIXSizeOneSym-Regular-221a" d="M 6970 9933 
L 3373 -1888 
L 3104 -1888 
L 1626 2918 
Q 1555 3149 1465 3251 
Q 1376 3354 1229 3354 
Q 1011 3354 794 3181 
L 717 3309 
L 1766 4115 
L 1926 4115 
L 3379 -602 
L 3405 -602 
L 6605 9933 
L 6970 9933 
z
" transform="scale(0.015625)"/>
       <path id="DejaVuSans-Oblique-74" d="M 2706 3500 
L 2619 3053 
L 1472 3053 
L 1100 1153 
Q 1081 1047 1072 975 
Q 1063 903 1063 863 
Q 1063 663 1183 572 
Q 1303 481 1569 481 
L 2150 481 
L 2053 0 
L 1503 0 
Q 991 0 739 200 
Q 488 400 488 806 
Q 488 878 497 964 
Q 506 1050 525 1153 
L 897 3053 
L 409 3053 
L 500 3500 
L 978 3500 
L 1172 4494 
L 1747 4494 
L 1556 3500 
L 2706 3500 
z
" transform="scale(0.015625)"/>
       <path id="DejaVuSans-Oblique-61" d="M 3438 1997 
L 3047 0 
L 2472 0 
L 2578 531 
Q 2325 219 2001 64 
Q 1678 -91 1281 -91 
Q 834 -91 548 182 
Q 263 456 263 884 
Q 263 1497 752 1853 
Q 1241 2209 2100 2209 
L 2900 2209 
L 2931 2363 
Q 2938 2388 2941 2417 
Q 2944 2447 2944 2509 
Q 2944 2788 2717 2942 
Q 2491 3097 2081 3097 
Q 1800 3097 1504 3025 
Q 1209 2953 897 2809 
L 997 3341 
Q 1322 3463 1633 3523 
Q 1944 3584 2234 3584 
Q 2853 3584 3176 3315 
Q 3500 3047 3500 2534 
Q 3500 2431 3484 2292 
Q 3469 2153 3438 1997 
z
M 2816 1759 
L 2241 1759 
Q 1534 1759 1195 1570 
Q 856 1381 856 984 
Q 856 709 1029 553 
Q 1203 397 1509 397 
Q 1978 397 2328 733 
Q 2678 1069 2791 1631 
L 2816 1759 
z
" transform="scale(0.015625)"/>
      </defs>
      <use xlink:href="#DejaVuSans-Oblique-6d" transform="translate(0 0.870312)"/>
      <use xlink:href="#DejaVuSans-3a9" transform="translate(97.412109 -15.535937) scale(0.7)"/>
      <use xlink:href="#STIXSizeOneSym-Regular-221a" transform="translate(153.637695 5.59375) scale(0.751941)"/>
      <use xlink:href="#DejaVuSans-Oblique-74" transform="translate(245.676941 0.515625)"/>
      <use xlink:href="#DejaVuSans-30" transform="translate(284.885925 -15.890625) scale(0.7)"/>
      <use xlink:href="#DejaVuSans-2f" transform="translate(332.156433 0.515625)"/>
      <use xlink:href="#DejaVuSans-Oblique-61" transform="translate(365.847839 0.515625)"/>
      <use xlink:href="#DejaVuSans-32" transform="translate(431.777032 38.796875) scale(0.7)"/>
      <path d="M 233.176941 115.5 
L 233.176941 121.75 
L 491.54754 121.75 
L 491.54754 115.5 
L 233.176941 115.5 
z
"/>
     </g>
    </g>
   </g>
   <g id="line2d_13">
    <path d="M 131.084031 300.96 
L 131.084031 7.2 
" clip-path="url(#p97f7936a37)" style="fill: none; stroke-dasharray: 5.55,2.4; stroke-dashoffset: 0; stroke: #1f77b4; stroke-width: 1.5"/>
   </g>
   <g id="line2d_14">
    <path d="M 131.084031 300.96 
L 131.084031 7.2 
" clip-path="url(#p97f7936a37)" style="fill: none; stroke-dasharray: 5.55,2.4; stroke-dashoffset: 0; stroke: #1f77b4; stroke-width: 1.5"/>
   </g>
   <g id="line2d_15">
    <path d="M 131.084031 300.96 
L 131.084031 7.2 
" clip-path="url(#p97f7936a37)" style="fill: none; stroke-dasharray: 5.55,2.4; stroke-dashoffset: 0; stroke: #1f77b4; stroke-width: 1.5"/>
   </g>
   <g id="line2d_16">
    <path d="M 131.084031 300.96 
L 131.084031 7.2 
" clip-path="url(#p97f7936a37)" style="fill: none; stroke-dasharray: 5.55,2.4; stroke-dashoffset: 0; stroke: #1f77b4; stroke-width: 1.5"/>
   </g>
   <g id="line2d_17">
    <path d="M 131.084031 300.96 
L 131.084031 7.2 
" clip-path="url(#p97f7936a37)" style="fill: none; stroke-dasharray: 5.55,2.4; stroke-dashoffset: 0; stroke: #1f77b4; stroke-width: 1.5"/>
   </g>
   <g id="line2d_18">
    <path d="M 435.304489 108.771162 
L 432.787478 108.7725 
" clip-path="url(#p97f7936a37)" style="fill: none; stroke: #ec5d57; stroke-width: 2; stroke-linecap: square"/>
   </g>
   <g id="line2d_19">
    <path d="M 433.98692 89.287678 
L 434.105047 128.255984 
" clip-path="url(#p97f7936a37)" style="fill: none; stroke: #ec5d57; stroke-width: 2; stroke-linecap: square"/>
   </g>
   <g id="line2d_20">
    <path d="M 369.170598 143.051441 
L 367.009583 143.053768 
" clip-path="url(#p97f7936a37)" style="fill: none; stroke: #ec5d57; stroke-width: 2; stroke-linecap: square"/>
   </g>
   <g id="line2d_21">
    <path d="M 367.997054 127.901049 
L 368.183127 158.204159 
" clip-path="url(#p97f7936a37)" style="fill: none; stroke: #ec5d57; stroke-width: 2; stroke-linecap: square"/>
   </g>
   <g id="line2d_22">
    <path d="M 311.668959 156.943229 
L 309.882771 156.944485 
" clip-path="url(#p97f7936a37)" style="fill: none; stroke: #ec5d57; stroke-width: 2; stroke-linecap: square"/>
   </g>
   <g id="line2d_23">
    <path d="M 310.728495 145.135317 
L 310.823234 168.752397 
" clip-path="url(#p97f7936a37)" style="fill: none; stroke: #ec5d57; stroke-width: 2; stroke-linecap: square"/>
   </g>
   <g id="line2d_24">
    <path d="M 319.343071 158.710923 
L 318.024018 158.711706 
" clip-path="url(#p97f7936a37)" style="fill: none; stroke: #ec5d57; stroke-width: 2; stroke-linecap: square"/>
   </g>
   <g id="line2d_25">
    <path d="M 318.64039 145.959157 
L 318.726699 171.463472 
" clip-path="url(#p97f7936a37)" style="fill: none; stroke: #ec5d57; stroke-width: 2; stroke-linecap: square"/>
   </g>
   <g id="line2d_26">
    <path d="M 205.253376 215.538158 
L 204.406659 215.538905 
" clip-path="url(#p97f7936a37)" style="fill: none; stroke: #ec5d57; stroke-width: 2; stroke-linecap: square"/>
   </g>
   <g id="line2d_27">
    <path d="M 204.801552 209.878428 
L 204.858483 221.198634 
" clip-path="url(#p97f7936a37)" style="fill: none; stroke: #ec5d57; stroke-width: 2; stroke-linecap: square"/>
   </g>
   <g id="line2d_28">
    <path d="M 129.865544 252.441493 
L 129.524831 252.442191 
" clip-path="url(#p97f7936a37)" style="fill: none; stroke: #ec5d57; stroke-width: 2; stroke-linecap: square"/>
   </g>
   <g id="line2d_29">
    <path d="M 129.655764 249.069522 
L 129.734611 255.814162 
" clip-path="url(#p97f7936a37)" style="fill: none; stroke: #ec5d57; stroke-width: 2; stroke-linecap: square"/>
   </g>
   <g id="line2d_30">
    <path d="M 422.610774 95.315019 
L 420.266954 95.316561 
" clip-path="url(#p97f7936a37)" style="fill: none; stroke: #70bf41; stroke-width: 2; stroke-linecap: square"/>
   </g>
   <g id="line2d_31">
    <path d="M 421.367923 76.399417 
L 421.509805 114.232163 
" clip-path="url(#p97f7936a37)" style="fill: none; stroke: #70bf41; stroke-width: 2; stroke-linecap: square"/>
   </g>
   <g id="line2d_32">
    <path d="M 361.87365 137.030575 
L 359.043594 137.035012 
" clip-path="url(#p97f7936a37)" style="fill: none; stroke: #70bf41; stroke-width: 2; stroke-linecap: square"/>
   </g>
   <g id="line2d_33">
    <path d="M 360.31752 121.252979 
L 360.599723 152.812609 
" clip-path="url(#p97f7936a37)" style="fill: none; stroke: #70bf41; stroke-width: 2; stroke-linecap: square"/>
   </g>
   <g id="line2d_34">
    <path d="M 307.290787 158.57119 
L 305.520269 158.572992 
" clip-path="url(#p97f7936a37)" style="fill: none; stroke: #70bf41; stroke-width: 2; stroke-linecap: square"/>
   </g>
   <g id="line2d_35">
    <path d="M 306.321613 144.117138 
L 306.489443 173.027044 
" clip-path="url(#p97f7936a37)" style="fill: none; stroke: #70bf41; stroke-width: 2; stroke-linecap: square"/>
   </g>
   <g id="line2d_36">
    <path d="M 310.419094 154.603699 
L 308.538029 154.606322 
" clip-path="url(#p97f7936a37)" style="fill: none; stroke: #70bf41; stroke-width: 2; stroke-linecap: square"/>
   </g>
   <g id="line2d_37">
    <path d="M 309.36924 140.861384 
L 309.587883 168.348637 
" clip-path="url(#p97f7936a37)" style="fill: none; stroke: #70bf41; stroke-width: 2; stroke-linecap: square"/>
   </g>
   <g id="line2d_38">
    <path d="M 210.52316 215.811462 
L 209.266148 215.810755 
" clip-path="url(#p97f7936a37)" style="fill: none; stroke: #70bf41; stroke-width: 2; stroke-linecap: square"/>
   </g>
   <g id="line2d_39">
    <path d="M 209.924475 206.511728 
L 209.864832 225.110488 
" clip-path="url(#p97f7936a37)" style="fill: none; stroke: #70bf41; stroke-width: 2; stroke-linecap: square"/>
   </g>
   <g id="line2d_40">
    <path d="M 209.992192 204.14603 
L 208.517928 204.149499 
" clip-path="url(#p97f7936a37)" style="fill: none; stroke: #70bf41; stroke-width: 2; stroke-linecap: square"/>
   </g>
   <g id="line2d_41">
    <path d="M 209.145348 195.970493 
L 209.364771 212.325036 
" clip-path="url(#p97f7936a37)" style="fill: none; stroke: #70bf41; stroke-width: 2; stroke-linecap: square"/>
   </g>
   <g id="line2d_42">
    <path d="M 206.185118 206.120617 
L 205.020754 206.122258 
" clip-path="url(#p97f7936a37)" style="fill: none; stroke: #70bf41; stroke-width: 2; stroke-linecap: square"/>
   </g>
   <g id="line2d_43">
    <path d="M 205.53478 197.638984 
L 205.671092 214.60389 
" clip-path="url(#p97f7936a37)" style="fill: none; stroke: #70bf41; stroke-width: 2; stroke-linecap: square"/>
   </g>
   <g id="line2d_44">
    <path d="M 207.159273 209.989895 
L 206.001591 209.990885 
" clip-path="url(#p97f7936a37)" style="fill: none; stroke: #70bf41; stroke-width: 2; stroke-linecap: square"/>
   </g>
   <g id="line2d_45">
    <path d="M 206.515808 196.742208 
L 206.645055 223.238573 
" clip-path="url(#p97f7936a37)" style="fill: none; stroke: #70bf41; stroke-width: 2; stroke-linecap: square"/>
   </g>
   <g id="line2d_46">
    <path d="M 166.953497 221.200988 
L 166.246463 221.202319 
" clip-path="url(#p97f7936a37)" style="fill: none; stroke: #70bf41; stroke-width: 2; stroke-linecap: square"/>
   </g>
   <g id="line2d_47">
    <path d="M 166.532812 214.944173 
L 166.667149 227.459135 
" clip-path="url(#p97f7936a37)" style="fill: none; stroke: #70bf41; stroke-width: 2; stroke-linecap: square"/>
   </g>
   <g id="line2d_48">
    <path d="M 128.721673 252.059931 
L 128.147919 252.060947 
" clip-path="url(#p97f7936a37)" style="fill: none; stroke: #70bf41; stroke-width: 2; stroke-linecap: square"/>
   </g>
   <g id="line2d_49">
    <path d="M 128.384041 247.035412 
L 128.485551 257.085467 
" clip-path="url(#p97f7936a37)" style="fill: none; stroke: #70bf41; stroke-width: 2; stroke-linecap: square"/>
   </g>
   <g id="line2d_50">
    <path d="M 422.443052 72.687924 
L 419.986362 72.688215 
" clip-path="url(#p97f7936a37)" style="fill: none; stroke: #51a7f9; stroke-width: 2; stroke-linecap: square"/>
   </g>
   <g id="line2d_51">
    <path d="M 421.200703 51.910853 
L 421.228711 93.465285 
" clip-path="url(#p97f7936a37)" style="fill: none; stroke: #51a7f9; stroke-width: 2; stroke-linecap: square"/>
   </g>
   <g id="line2d_52">
    <path d="M 359.728253 128.277634 
L 357.300478 128.27899 
" clip-path="url(#p97f7936a37)" style="fill: none; stroke: #51a7f9; stroke-width: 2; stroke-linecap: square"/>
   </g>
   <g id="line2d_53">
    <path d="M 358.455212 109.703099 
L 358.57352 146.853525 
" clip-path="url(#p97f7936a37)" style="fill: none; stroke: #51a7f9; stroke-width: 2; stroke-linecap: square"/>
   </g>
   <g id="line2d_54">
    <path d="M 312.918103 140.684405 
L 311.200852 140.68544 
" clip-path="url(#p97f7936a37)" style="fill: none; stroke: #51a7f9; stroke-width: 2; stroke-linecap: square"/>
   </g>
   <g id="line2d_55">
    <path d="M 312.002951 124.229865 
L 312.116003 157.13998 
" clip-path="url(#p97f7936a37)" style="fill: none; stroke: #51a7f9; stroke-width: 2; stroke-linecap: square"/>
   </g>
   <g id="line2d_56">
    <path d="M 206.809242 205.351075 
L 205.768975 205.352011 
" clip-path="url(#p97f7936a37)" style="fill: none; stroke: #51a7f9; stroke-width: 2; stroke-linecap: square"/>
   </g>
   <g id="line2d_57">
    <path d="M 206.235172 194.843285 
L 206.343045 215.859801 
" clip-path="url(#p97f7936a37)" style="fill: none; stroke: #51a7f9; stroke-width: 2; stroke-linecap: square"/>
   </g>
   <g id="line2d_58">
    <path d="M 131.002753 253.495166 
L 130.432956 253.496039 
" clip-path="url(#p97f7936a37)" style="fill: none; stroke: #51a7f9; stroke-width: 2; stroke-linecap: square"/>
   </g>
   <g id="line2d_59">
    <path d="M 130.658587 246.714147 
L 130.777122 260.277058 
" clip-path="url(#p97f7936a37)" style="fill: none; stroke: #51a7f9; stroke-width: 2; stroke-linecap: square"/>
   </g>
   <g id="line2d_60">
    <path d="M 316.866538 120.117078 
L 314.18755 120.119975 
" clip-path="url(#p97f7936a37)" style="fill: none; stroke: #6a5acd; stroke-width: 2; stroke-linecap: square"/>
   </g>
   <g id="line2d_61">
    <path d="M 315.425062 103.579276 
L 315.629026 136.657778 
" clip-path="url(#p97f7936a37)" style="fill: none; stroke: #6a5acd; stroke-width: 2; stroke-linecap: square"/>
   </g>
   <g id="LineCollection_1"/>
   <g id="LineCollection_2"/>
   <g id="LineCollection_3"/>
   <g id="LineCollection_4"/>
   <g id="LineCollection_5"/>
   <g id="LineCollection_6"/>
   <g id="LineCollection_7"/>
   <g id="LineCollection_8"/>
   <g id="line2d_62"/>
   <g id="line2d_63"/>
   <g id="line2d_64"/>
   <g id="line2d_65"/>
   <g id="patch_3">
    <path d="M 61.428125 300.96 
L 61.428125 7.2 
" style="fill: none; stroke: #000000; stroke-width: 0.8; stroke-linejoin: miter; stroke-linecap: square"/>
   </g>
   <g id="patch_4">
    <path d="M 453.108125 300.96 
L 453.108125 7.2 
" style="fill: none; stroke: #000000; stroke-width: 0.8; stroke-linejoin: miter; stroke-linecap: square"/>
   </g>
   <g id="patch_5">
    <path d="M 61.428125 300.96 
L 453.108125 300.96 
" style="fill: none; stroke: #000000; stroke-width: 0.8; stroke-linejoin: miter; stroke-linecap: square"/>
   </g>
   <g id="patch_6">
    <path d="M 61.428125 7.2 
L 453.108125 7.2 
" style="fill: none; stroke: #000000; stroke-width: 0.8; stroke-linejoin: miter; stroke-linecap: square"/>
   </g>
   <g id="line2d_66">
    <path d="M 434.045984 108.771831 
" clip-path="url(#p97f7936a37)" style="fill: none; stroke: #ec5d57; stroke-width: 1.5; stroke-linecap: square"/>
    <defs>
     <path id="m9c23a1b896" d="M 0 3 
C 0.795609 3 1.55874 2.683901 2.12132 2.12132 
C 2.683901 1.55874 3 0.795609 3 0 
C 3 -0.795609 2.683901 -1.55874 2.12132 -2.12132 
C 1.55874 -2.683901 0.795609 -3 0 -3 
C -0.795609 -3 -1.55874 -2.683901 -2.12132 -2.12132 
C -2.683901 -1.55874 -3 -0.795609 -3 0 
C -3 0.795609 -2.683901 1.55874 -2.12132 2.12132 
C -1.55874 2.683901 -0.795609 3 0 3 
z
" style="stroke: #ffffff"/>
    </defs>
    <g clip-path="url(#p97f7936a37)">
     <use xlink:href="#m9c23a1b896" x="434.045984" y="108.771831" style="fill: #ec5d57; stroke: #ffffff"/>
    </g>
   </g>
   <g id="line2d_67">
    <path d="M 434.045984 108.771831 
" clip-path="url(#p97f7936a37)" style="fill: none; stroke: #ec5d57; stroke-width: 1.5; stroke-linecap: square"/>
    <g clip-path="url(#p97f7936a37)">
     <use xlink:href="#m9c23a1b896" x="434.045984" y="108.771831" style="fill: #ec5d57; stroke: #ffffff"/>
    </g>
   </g>
   <g id="line2d_68">
    <path d="M 368.09009 143.052604 
" clip-path="url(#p97f7936a37)" style="fill: none; stroke: #ec5d57; stroke-width: 1.5; stroke-linecap: square"/>
    <g clip-path="url(#p97f7936a37)">
     <use xlink:href="#m9c23a1b896" x="368.09009" y="143.052604" style="fill: #ec5d57; stroke: #ffffff"/>
    </g>
   </g>
   <g id="line2d_69">
    <path d="M 368.09009 143.052604 
" clip-path="url(#p97f7936a37)" style="fill: none; stroke: #ec5d57; stroke-width: 1.5; stroke-linecap: square"/>
    <g clip-path="url(#p97f7936a37)">
     <use xlink:href="#m9c23a1b896" x="368.09009" y="143.052604" style="fill: #ec5d57; stroke: #ffffff"/>
    </g>
   </g>
   <g id="line2d_70">
    <path d="M 310.775865 156.943857 
" clip-path="url(#p97f7936a37)" style="fill: none; stroke: #ec5d57; stroke-width: 1.5; stroke-linecap: square"/>
    <g clip-path="url(#p97f7936a37)">
     <use xlink:href="#m9c23a1b896" x="310.775865" y="156.943857" style="fill: #ec5d57; stroke: #ffffff"/>
    </g>
   </g>
   <g id="line2d_71">
    <path d="M 310.775865 156.943857 
" clip-path="url(#p97f7936a37)" style="fill: none; stroke: #ec5d57; stroke-width: 1.5; stroke-linecap: square"/>
    <g clip-path="url(#p97f7936a37)">
     <use xlink:href="#m9c23a1b896" x="310.775865" y="156.943857" style="fill: #ec5d57; stroke: #ffffff"/>
    </g>
   </g>
   <g id="line2d_72">
    <path d="M 318.683545 158.711315 
" clip-path="url(#p97f7936a37)" style="fill: none; stroke: #ec5d57; stroke-width: 1.5; stroke-linecap: square"/>
    <g clip-path="url(#p97f7936a37)">
     <use xlink:href="#m9c23a1b896" x="318.683545" y="158.711315" style="fill: #ec5d57; stroke: #ffffff"/>
    </g>
   </g>
   <g id="line2d_73">
    <path d="M 318.683545 158.711315 
" clip-path="url(#p97f7936a37)" style="fill: none; stroke: #ec5d57; stroke-width: 1.5; stroke-linecap: square"/>
    <g clip-path="url(#p97f7936a37)">
     <use xlink:href="#m9c23a1b896" x="318.683545" y="158.711315" style="fill: #ec5d57; stroke: #ffffff"/>
    </g>
   </g>
   <g id="line2d_74">
    <path d="M 204.830017 215.538531 
" clip-path="url(#p97f7936a37)" style="fill: none; stroke: #ec5d57; stroke-width: 1.5; stroke-linecap: square"/>
    <g clip-path="url(#p97f7936a37)">
     <use xlink:href="#m9c23a1b896" x="204.830017" y="215.538531" style="fill: #ec5d57; stroke: #ffffff"/>
    </g>
   </g>
   <g id="line2d_75">
    <path d="M 204.830017 215.538531 
" clip-path="url(#p97f7936a37)" style="fill: none; stroke: #ec5d57; stroke-width: 1.5; stroke-linecap: square"/>
    <g clip-path="url(#p97f7936a37)">
     <use xlink:href="#m9c23a1b896" x="204.830017" y="215.538531" style="fill: #ec5d57; stroke: #ffffff"/>
    </g>
   </g>
   <g id="line2d_76">
    <path d="M 129.695188 252.441842 
" clip-path="url(#p97f7936a37)" style="fill: none; stroke: #ec5d57; stroke-width: 1.5; stroke-linecap: square"/>
    <g clip-path="url(#p97f7936a37)">
     <use xlink:href="#m9c23a1b896" x="129.695188" y="252.441842" style="fill: #ec5d57; stroke: #ffffff"/>
    </g>
   </g>
   <g id="line2d_77">
    <path d="M 129.695188 252.441842 
" clip-path="url(#p97f7936a37)" style="fill: none; stroke: #ec5d57; stroke-width: 1.5; stroke-linecap: square"/>
    <g clip-path="url(#p97f7936a37)">
     <use xlink:href="#m9c23a1b896" x="129.695188" y="252.441842" style="fill: #ec5d57; stroke: #ffffff"/>
    </g>
   </g>
   <g id="line2d_78">
    <path d="M 421.438864 95.31579 
" clip-path="url(#p97f7936a37)" style="fill: none; stroke: #70bf41; stroke-width: 1.5; stroke-linecap: square"/>
    <defs>
     <path id="m1f012762e0" d="M 0 3 
C 0.795609 3 1.55874 2.683901 2.12132 2.12132 
C 2.683901 1.55874 3 0.795609 3 0 
C 3 -0.795609 2.683901 -1.55874 2.12132 -2.12132 
C 1.55874 -2.683901 0.795609 -3 0 -3 
C -0.795609 -3 -1.55874 -2.683901 -2.12132 -2.12132 
C -2.683901 -1.55874 -3 -0.795609 -3 0 
C -3 0.795609 -2.683901 1.55874 -2.12132 2.12132 
C -1.55874 2.683901 -0.795609 3 0 3 
z
" style="stroke: #ffffff"/>
    </defs>
    <g clip-path="url(#p97f7936a37)">
     <use xlink:href="#m1f012762e0" x="421.438864" y="95.31579" style="fill: #70bf41; stroke: #ffffff"/>
    </g>
   </g>
   <g id="line2d_79">
    <path d="M 421.438864 95.31579 
" clip-path="url(#p97f7936a37)" style="fill: none; stroke: #70bf41; stroke-width: 1.5; stroke-linecap: square"/>
    <g clip-path="url(#p97f7936a37)">
     <use xlink:href="#m1f012762e0" x="421.438864" y="95.31579" style="fill: #70bf41; stroke: #ffffff"/>
    </g>
   </g>
   <g id="line2d_80">
    <path d="M 360.458622 137.032794 
" clip-path="url(#p97f7936a37)" style="fill: none; stroke: #70bf41; stroke-width: 1.5; stroke-linecap: square"/>
    <g clip-path="url(#p97f7936a37)">
     <use xlink:href="#m1f012762e0" x="360.458622" y="137.032794" style="fill: #70bf41; stroke: #ffffff"/>
    </g>
   </g>
   <g id="line2d_81">
    <path d="M 360.458622 137.032794 
" clip-path="url(#p97f7936a37)" style="fill: none; stroke: #70bf41; stroke-width: 1.5; stroke-linecap: square"/>
    <g clip-path="url(#p97f7936a37)">
     <use xlink:href="#m1f012762e0" x="360.458622" y="137.032794" style="fill: #70bf41; stroke: #ffffff"/>
    </g>
   </g>
   <g id="line2d_82">
    <path d="M 306.405528 158.572091 
" clip-path="url(#p97f7936a37)" style="fill: none; stroke: #70bf41; stroke-width: 1.5; stroke-linecap: square"/>
    <g clip-path="url(#p97f7936a37)">
     <use xlink:href="#m1f012762e0" x="306.405528" y="158.572091" style="fill: #70bf41; stroke: #ffffff"/>
    </g>
   </g>
   <g id="line2d_83">
    <path d="M 306.405528 158.572091 
" clip-path="url(#p97f7936a37)" style="fill: none; stroke: #70bf41; stroke-width: 1.5; stroke-linecap: square"/>
    <g clip-path="url(#p97f7936a37)">
     <use xlink:href="#m1f012762e0" x="306.405528" y="158.572091" style="fill: #70bf41; stroke: #ffffff"/>
    </g>
   </g>
   <g id="line2d_84">
    <path d="M 309.478561 154.60501 
" clip-path="url(#p97f7936a37)" style="fill: none; stroke: #70bf41; stroke-width: 1.5; stroke-linecap: square"/>
    <g clip-path="url(#p97f7936a37)">
     <use xlink:href="#m1f012762e0" x="309.478561" y="154.60501" style="fill: #70bf41; stroke: #ffffff"/>
    </g>
   </g>
   <g id="line2d_85">
    <path d="M 309.478561 154.60501 
" clip-path="url(#p97f7936a37)" style="fill: none; stroke: #70bf41; stroke-width: 1.5; stroke-linecap: square"/>
    <g clip-path="url(#p97f7936a37)">
     <use xlink:href="#m1f012762e0" x="309.478561" y="154.60501" style="fill: #70bf41; stroke: #ffffff"/>
    </g>
   </g>
   <g id="line2d_86">
    <path d="M 209.894654 215.811108 
" clip-path="url(#p97f7936a37)" style="fill: none; stroke: #70bf41; stroke-width: 1.5; stroke-linecap: square"/>
    <g clip-path="url(#p97f7936a37)">
     <use xlink:href="#m1f012762e0" x="209.894654" y="215.811108" style="fill: #70bf41; stroke: #ffffff"/>
    </g>
   </g>
   <g id="line2d_87">
    <path d="M 209.894654 215.811108 
" clip-path="url(#p97f7936a37)" style="fill: none; stroke: #70bf41; stroke-width: 1.5; stroke-linecap: square"/>
    <g clip-path="url(#p97f7936a37)">
     <use xlink:href="#m1f012762e0" x="209.894654" y="215.811108" style="fill: #70bf41; stroke: #ffffff"/>
    </g>
   </g>
   <g id="line2d_88">
    <path d="M 209.25506 204.147764 
" clip-path="url(#p97f7936a37)" style="fill: none; stroke: #70bf41; stroke-width: 1.5; stroke-linecap: square"/>
    <g clip-path="url(#p97f7936a37)">
     <use xlink:href="#m1f012762e0" x="209.25506" y="204.147764" style="fill: #70bf41; stroke: #ffffff"/>
    </g>
   </g>
   <g id="line2d_89">
    <path d="M 209.25506 204.147764 
" clip-path="url(#p97f7936a37)" style="fill: none; stroke: #70bf41; stroke-width: 1.5; stroke-linecap: square"/>
    <g clip-path="url(#p97f7936a37)">
     <use xlink:href="#m1f012762e0" x="209.25506" y="204.147764" style="fill: #70bf41; stroke: #ffffff"/>
    </g>
   </g>
   <g id="line2d_90">
    <path d="M 205.602936 206.121437 
" clip-path="url(#p97f7936a37)" style="fill: none; stroke: #70bf41; stroke-width: 1.5; stroke-linecap: square"/>
    <g clip-path="url(#p97f7936a37)">
     <use xlink:href="#m1f012762e0" x="205.602936" y="206.121437" style="fill: #70bf41; stroke: #ffffff"/>
    </g>
   </g>
   <g id="line2d_91">
    <path d="M 205.602936 206.121437 
" clip-path="url(#p97f7936a37)" style="fill: none; stroke: #70bf41; stroke-width: 1.5; stroke-linecap: square"/>
    <g clip-path="url(#p97f7936a37)">
     <use xlink:href="#m1f012762e0" x="205.602936" y="206.121437" style="fill: #70bf41; stroke: #ffffff"/>
    </g>
   </g>
   <g id="line2d_92">
    <path d="M 206.580432 209.99039 
" clip-path="url(#p97f7936a37)" style="fill: none; stroke: #70bf41; stroke-width: 1.5; stroke-linecap: square"/>
    <g clip-path="url(#p97f7936a37)">
     <use xlink:href="#m1f012762e0" x="206.580432" y="209.99039" style="fill: #70bf41; stroke: #ffffff"/>
    </g>
   </g>
   <g id="line2d_93">
    <path d="M 206.580432 209.99039 
" clip-path="url(#p97f7936a37)" style="fill: none; stroke: #70bf41; stroke-width: 1.5; stroke-linecap: square"/>
    <g clip-path="url(#p97f7936a37)">
     <use xlink:href="#m1f012762e0" x="206.580432" y="209.99039" style="fill: #70bf41; stroke: #ffffff"/>
    </g>
   </g>
   <g id="line2d_94">
    <path d="M 166.59998 221.201654 
" clip-path="url(#p97f7936a37)" style="fill: none; stroke: #70bf41; stroke-width: 1.5; stroke-linecap: square"/>
    <g clip-path="url(#p97f7936a37)">
     <use xlink:href="#m1f012762e0" x="166.59998" y="221.201654" style="fill: #70bf41; stroke: #ffffff"/>
    </g>
   </g>
   <g id="line2d_95">
    <path d="M 166.59998 221.201654 
" clip-path="url(#p97f7936a37)" style="fill: none; stroke: #70bf41; stroke-width: 1.5; stroke-linecap: square"/>
    <g clip-path="url(#p97f7936a37)">
     <use xlink:href="#m1f012762e0" x="166.59998" y="221.201654" style="fill: #70bf41; stroke: #ffffff"/>
    </g>
   </g>
   <g id="line2d_96">
    <path d="M 128.434796 252.060439 
" clip-path="url(#p97f7936a37)" style="fill: none; stroke: #70bf41; stroke-width: 1.5; stroke-linecap: square"/>
    <g clip-path="url(#p97f7936a37)">
     <use xlink:href="#m1f012762e0" x="128.434796" y="252.060439" style="fill: #70bf41; stroke: #ffffff"/>
    </g>
   </g>
   <g id="line2d_97">
    <path d="M 128.434796 252.060439 
" clip-path="url(#p97f7936a37)" style="fill: none; stroke: #70bf41; stroke-width: 1.5; stroke-linecap: square"/>
    <g clip-path="url(#p97f7936a37)">
     <use xlink:href="#m1f012762e0" x="128.434796" y="252.060439" style="fill: #70bf41; stroke: #ffffff"/>
    </g>
   </g>
   <g id="line2d_98">
    <path d="M 421.214707 72.688069 
" clip-path="url(#p97f7936a37)" style="fill: none; stroke: #51a7f9; stroke-width: 1.5; stroke-linecap: square"/>
    <defs>
     <path id="m23c388143e" d="M 0 3 
C 0.795609 3 1.55874 2.683901 2.12132 2.12132 
C 2.683901 1.55874 3 0.795609 3 0 
C 3 -0.795609 2.683901 -1.55874 2.12132 -2.12132 
C 1.55874 -2.683901 0.795609 -3 0 -3 
C -0.795609 -3 -1.55874 -2.683901 -2.12132 -2.12132 
C -2.683901 -1.55874 -3 -0.795609 -3 0 
C -3 0.795609 -2.683901 1.55874 -2.12132 2.12132 
C -1.55874 2.683901 -0.795609 3 0 3 
z
" style="stroke: #ffffff"/>
    </defs>
    <g clip-path="url(#p97f7936a37)">
     <use xlink:href="#m23c388143e" x="421.214707" y="72.688069" style="fill: #51a7f9; stroke: #ffffff"/>
    </g>
   </g>
   <g id="line2d_99">
    <path d="M 421.214707 72.688069 
" clip-path="url(#p97f7936a37)" style="fill: none; stroke: #51a7f9; stroke-width: 1.5; stroke-linecap: square"/>
    <g clip-path="url(#p97f7936a37)">
     <use xlink:href="#m23c388143e" x="421.214707" y="72.688069" style="fill: #51a7f9; stroke: #ffffff"/>
    </g>
   </g>
   <g id="line2d_100">
    <path d="M 358.514366 128.278312 
" clip-path="url(#p97f7936a37)" style="fill: none; stroke: #51a7f9; stroke-width: 1.5; stroke-linecap: square"/>
    <g clip-path="url(#p97f7936a37)">
     <use xlink:href="#m23c388143e" x="358.514366" y="128.278312" style="fill: #51a7f9; stroke: #ffffff"/>
    </g>
   </g>
   <g id="line2d_101">
    <path d="M 358.514366 128.278312 
" clip-path="url(#p97f7936a37)" style="fill: none; stroke: #51a7f9; stroke-width: 1.5; stroke-linecap: square"/>
    <g clip-path="url(#p97f7936a37)">
     <use xlink:href="#m23c388143e" x="358.514366" y="128.278312" style="fill: #51a7f9; stroke: #ffffff"/>
    </g>
   </g>
   <g id="line2d_102">
    <path d="M 312.059477 140.684923 
" clip-path="url(#p97f7936a37)" style="fill: none; stroke: #51a7f9; stroke-width: 1.5; stroke-linecap: square"/>
    <g clip-path="url(#p97f7936a37)">
     <use xlink:href="#m23c388143e" x="312.059477" y="140.684923" style="fill: #51a7f9; stroke: #ffffff"/>
    </g>
   </g>
   <g id="line2d_103">
    <path d="M 312.059477 140.684923 
" clip-path="url(#p97f7936a37)" style="fill: none; stroke: #51a7f9; stroke-width: 1.5; stroke-linecap: square"/>
    <g clip-path="url(#p97f7936a37)">
     <use xlink:href="#m23c388143e" x="312.059477" y="140.684923" style="fill: #51a7f9; stroke: #ffffff"/>
    </g>
   </g>
   <g id="line2d_104">
    <path d="M 206.289109 205.351543 
" clip-path="url(#p97f7936a37)" style="fill: none; stroke: #51a7f9; stroke-width: 1.5; stroke-linecap: square"/>
    <g clip-path="url(#p97f7936a37)">
     <use xlink:href="#m23c388143e" x="206.289109" y="205.351543" style="fill: #51a7f9; stroke: #ffffff"/>
    </g>
   </g>
   <g id="line2d_105">
    <path d="M 206.289109 205.351543 
" clip-path="url(#p97f7936a37)" style="fill: none; stroke: #51a7f9; stroke-width: 1.5; stroke-linecap: square"/>
    <g clip-path="url(#p97f7936a37)">
     <use xlink:href="#m23c388143e" x="206.289109" y="205.351543" style="fill: #51a7f9; stroke: #ffffff"/>
    </g>
   </g>
   <g id="line2d_106">
    <path d="M 130.717855 253.495603 
" clip-path="url(#p97f7936a37)" style="fill: none; stroke: #51a7f9; stroke-width: 1.5; stroke-linecap: square"/>
    <g clip-path="url(#p97f7936a37)">
     <use xlink:href="#m23c388143e" x="130.717855" y="253.495603" style="fill: #51a7f9; stroke: #ffffff"/>
    </g>
   </g>
   <g id="line2d_107">
    <path d="M 130.717855 253.495603 
" clip-path="url(#p97f7936a37)" style="fill: none; stroke: #51a7f9; stroke-width: 1.5; stroke-linecap: square"/>
    <g clip-path="url(#p97f7936a37)">
     <use xlink:href="#m23c388143e" x="130.717855" y="253.495603" style="fill: #51a7f9; stroke: #ffffff"/>
    </g>
   </g>
   <g id="line2d_108">
    <path d="M 315.527044 120.118527 
" clip-path="url(#p97f7936a37)" style="fill: none; stroke: #6a5acd; stroke-width: 1.5; stroke-linecap: square"/>
    <defs>
     <path id="m7ebae533b8" d="M 0 3 
C 0.795609 3 1.55874 2.683901 2.12132 2.12132 
C 2.683901 1.55874 3 0.795609 3 0 
C 3 -0.795609 2.683901 -1.55874 2.12132 -2.12132 
C 1.55874 -2.683901 0.795609 -3 0 -3 
C -0.795609 -3 -1.55874 -2.683901 -2.12132 -2.12132 
C -2.683901 -1.55874 -3 -0.795609 -3 0 
C -3 0.795609 -2.683901 1.55874 -2.12132 2.12132 
C -1.55874 2.683901 -0.795609 3 0 3 
z
" style="stroke: #ffffff"/>
    </defs>
    <g clip-path="url(#p97f7936a37)">
     <use xlink:href="#m7ebae533b8" x="315.527044" y="120.118527" style="fill: #6a5acd; stroke: #ffffff"/>
    </g>
   </g>
   <g id="line2d_109">
    <path d="M 315.527044 120.118527 
" clip-path="url(#p97f7936a37)" style="fill: none; stroke: #6a5acd; stroke-width: 1.5; stroke-linecap: square"/>
    <g clip-path="url(#p97f7936a37)">
     <use xlink:href="#m7ebae533b8" x="315.527044" y="120.118527" style="fill: #6a5acd; stroke: #ffffff"/>
    </g>
   </g>
   <g id="legend_1">
    <g id="patch_7">
     <path d="M 250.108125 295.96 
L 446.108125 295.96 
Q 448.108125 295.96 448.108125 293.96 
L 448.108125 258.56 
Q 448.108125 256.56 446.108125 256.56 
L 250.108125 256.56 
Q 248.108125 256.56 248.108125 258.56 
L 248.108125 293.96 
Q 248.108125 295.96 250.108125 295.96 
z
" style="fill: #ffffff; opacity: 0.8; stroke: #cccccc; stroke-linejoin: miter"/>
    </g>
    <g id="LineCollection_9">
     <path d="M 257.108125 267.46 
L 267.108125 267.46 
" style="fill: none; stroke: #6a5acd; stroke-width: 3"/>
    </g>
    <g id="LineCollection_10">
     <path d="M 262.108125 272.46 
L 262.108125 262.46 
" style="fill: none; stroke: #6a5acd; stroke-width: 3"/>
    </g>
    <g id="line2d_110">
     <path d="M 252.108125 267.46 
L 272.108125 267.46 
" style="fill: none; stroke: #6a5acd; stroke-width: 1.5; stroke-linecap: square"/>
    </g>
    <g id="line2d_111">
     <defs>
      <path id="m8de9a4bb04" d="M 0 4 
C 1.060812 4 2.078319 3.578535 2.828427 2.828427 
C 3.578535 2.078319 4 1.060812 4 0 
C 4 -1.060812 3.578535 -2.078319 2.828427 -2.828427 
C 2.078319 -3.578535 1.060812 -4 0 -4 
C -1.060812 -4 -2.078319 -3.578535 -2.828427 -2.828427 
C -3.578535 -2.078319 -4 -1.060812 -4 0 
C -4 1.060812 -3.578535 2.078319 -2.828427 2.828427 
C -2.078319 3.578535 -1.060812 4 0 4 
z
" style="stroke: #ffffff; stroke-width: 2"/>
     </defs>
     <g>
      <use xlink:href="#m8de9a4bb04" x="262.108125" y="267.46" style="fill: #6a5acd; stroke: #ffffff; stroke-width: 2"/>
     </g>
    </g>
    <g id="text_15">
     <!-- $a_{06}(l_F,s_F^{\rm phys})$ -->
     <g transform="translate(280.108125 270.96) scale(0.1 -0.1)">
      <defs>
       <path id="DejaVuSans-2c" d="M 750 794 
L 1409 794 
L 1409 256 
L 897 -744 
L 494 -744 
L 750 256 
L 750 794 
z
" transform="scale(0.015625)"/>
       <path id="DejaVuSans-Oblique-73" d="M 3200 3397 
L 3091 2853 
Q 2863 2978 2609 3040 
Q 2356 3103 2088 3103 
Q 1634 3103 1373 2948 
Q 1113 2794 1113 2528 
Q 1113 2219 1719 2053 
Q 1766 2041 1788 2034 
L 1972 1978 
Q 2547 1819 2739 1644 
Q 2931 1469 2931 1166 
Q 2931 609 2489 259 
Q 2047 -91 1331 -91 
Q 1053 -91 747 -37 
Q 441 16 72 128 
L 184 722 
Q 500 559 806 475 
Q 1113 391 1394 391 
Q 1816 391 2080 572 
Q 2344 753 2344 1031 
Q 2344 1331 1650 1516 
L 1591 1531 
L 1394 1581 
Q 956 1697 753 1886 
Q 550 2075 550 2369 
Q 550 2928 970 3256 
Q 1391 3584 2113 3584 
Q 2397 3584 2667 3537 
Q 2938 3491 3200 3397 
z
" transform="scale(0.015625)"/>
       <path id="DejaVuSans-70" d="M 1159 525 
L 1159 -1331 
L 581 -1331 
L 581 3500 
L 1159 3500 
L 1159 2969 
Q 1341 3281 1617 3432 
Q 1894 3584 2278 3584 
Q 2916 3584 3314 3078 
Q 3713 2572 3713 1747 
Q 3713 922 3314 415 
Q 2916 -91 2278 -91 
Q 1894 -91 1617 61 
Q 1341 213 1159 525 
z
M 3116 1747 
Q 3116 2381 2855 2742 
Q 2594 3103 2138 3103 
Q 1681 3103 1420 2742 
Q 1159 2381 1159 1747 
Q 1159 1113 1420 752 
Q 1681 391 2138 391 
Q 2594 391 2855 752 
Q 3116 1113 3116 1747 
z
" transform="scale(0.015625)"/>
       <path id="DejaVuSans-68" d="M 3513 2113 
L 3513 0 
L 2938 0 
L 2938 2094 
Q 2938 2591 2744 2837 
Q 2550 3084 2163 3084 
Q 1697 3084 1428 2787 
Q 1159 2491 1159 1978 
L 1159 0 
L 581 0 
L 581 4863 
L 1159 4863 
L 1159 2956 
Q 1366 3272 1645 3428 
Q 1925 3584 2291 3584 
Q 2894 3584 3203 3211 
Q 3513 2838 3513 2113 
z
" transform="scale(0.015625)"/>
       <path id="DejaVuSans-79" d="M 2059 -325 
Q 1816 -950 1584 -1140 
Q 1353 -1331 966 -1331 
L 506 -1331 
L 506 -850 
L 844 -850 
Q 1081 -850 1212 -737 
Q 1344 -625 1503 -206 
L 1606 56 
L 191 3500 
L 800 3500 
L 1894 763 
L 2988 3500 
L 3597 3500 
L 2059 -325 
z
" transform="scale(0.015625)"/>
       <path id="DejaVuSans-73" d="M 2834 3397 
L 2834 2853 
Q 2591 2978 2328 3040 
Q 2066 3103 1784 3103 
Q 1356 3103 1142 2972 
Q 928 2841 928 2578 
Q 928 2378 1081 2264 
Q 1234 2150 1697 2047 
L 1894 2003 
Q 2506 1872 2764 1633 
Q 3022 1394 3022 966 
Q 3022 478 2636 193 
Q 2250 -91 1575 -91 
Q 1294 -91 989 -36 
Q 684 19 347 128 
L 347 722 
Q 666 556 975 473 
Q 1284 391 1588 391 
Q 1994 391 2212 530 
Q 2431 669 2431 922 
Q 2431 1156 2273 1281 
Q 2116 1406 1581 1522 
L 1381 1569 
Q 847 1681 609 1914 
Q 372 2147 372 2553 
Q 372 3047 722 3315 
Q 1072 3584 1716 3584 
Q 2034 3584 2315 3537 
Q 2597 3491 2834 3397 
z
" transform="scale(0.015625)"/>
      </defs>
      <use xlink:href="#DejaVuSans-Oblique-61" transform="translate(0 0.0625)"/>
      <use xlink:href="#DejaVuSans-30" transform="translate(61.279297 -16.34375) scale(0.7)"/>
      <use xlink:href="#DejaVuSans-36" transform="translate(105.81543 -16.34375) scale(0.7)"/>
      <use xlink:href="#DejaVuSans-28" transform="translate(153.085938 0.0625)"/>
      <use xlink:href="#DejaVuSans-Oblique-6c" transform="translate(192.099609 0.0625)"/>
      <use xlink:href="#DejaVuSans-Oblique-46" transform="translate(219.882812 -16.34375) scale(0.7)"/>
      <use xlink:href="#DejaVuSans-2c" transform="translate(262.880859 0.0625)"/>
      <use xlink:href="#DejaVuSans-Oblique-73" transform="translate(314.150391 0.0625)"/>
      <use xlink:href="#DejaVuSans-70" transform="translate(370.899896 50.810938) scale(0.7)"/>
      <use xlink:href="#DejaVuSans-68" transform="translate(415.33349 50.810938) scale(0.7)"/>
      <use xlink:href="#DejaVuSans-79" transform="translate(459.698724 50.810938) scale(0.7)"/>
      <use xlink:href="#DejaVuSans-73" transform="translate(501.124505 50.810938) scale(0.7)"/>
      <use xlink:href="#DejaVuSans-Oblique-46" transform="translate(366.25 -27.28125) scale(0.7)"/>
      <use xlink:href="#DejaVuSans-29" transform="translate(540.328607 0.0625)"/>
     </g>
    </g>
    <g id="LineCollection_11">
     <path d="M 257.108125 285.66 
L 267.108125 285.66 
" style="fill: none; stroke: #51a7f9; stroke-width: 3"/>
    </g>
    <g id="LineCollection_12">
     <path d="M 262.108125 290.66 
L 262.108125 280.66 
" style="fill: none; stroke: #51a7f9; stroke-width: 3"/>
    </g>
    <g id="line2d_112">
     <path d="M 252.108125 285.66 
L 272.108125 285.66 
" style="fill: none; stroke: #51a7f9; stroke-width: 1.5; stroke-linecap: square"/>
    </g>
    <g id="line2d_113">
     <defs>
      <path id="m09c8636a68" d="M 0 4 
C 1.060812 4 2.078319 3.578535 2.828427 2.828427 
C 3.578535 2.078319 4 1.060812 4 0 
C 4 -1.060812 3.578535 -2.078319 2.828427 -2.828427 
C 2.078319 -3.578535 1.060812 -4 0 -4 
C -1.060812 -4 -2.078319 -3.578535 -2.828427 -2.828427 
C -3.578535 -2.078319 -4 -1.060812 -4 0 
C -4 1.060812 -3.578535 2.078319 -2.828427 2.828427 
C -2.078319 3.578535 -1.060812 4 0 4 
z
" style="stroke: #ffffff; stroke-width: 2"/>
     </defs>
     <g>
      <use xlink:href="#m09c8636a68" x="262.108125" y="285.66" style="fill: #51a7f9; stroke: #ffffff; stroke-width: 2"/>
     </g>
    </g>
    <g id="text_16">
     <!-- $a_{09}(l_F,s_F^{\rm phys})$ -->
     <g transform="translate(280.108125 289.16) scale(0.1 -0.1)">
      <defs>
       <path id="DejaVuSans-39" d="M 703 97 
L 703 672 
Q 941 559 1184 500 
Q 1428 441 1663 441 
Q 2288 441 2617 861 
Q 2947 1281 2994 2138 
Q 2813 1869 2534 1725 
Q 2256 1581 1919 1581 
Q 1219 1581 811 2004 
Q 403 2428 403 3163 
Q 403 3881 828 4315 
Q 1253 4750 1959 4750 
Q 2769 4750 3195 4129 
Q 3622 3509 3622 2328 
Q 3622 1225 3098 567 
Q 2575 -91 1691 -91 
Q 1453 -91 1209 -44 
Q 966 3 703 97 
z
M 1959 2075 
Q 2384 2075 2632 2365 
Q 2881 2656 2881 3163 
Q 2881 3666 2632 3958 
Q 2384 4250 1959 4250 
Q 1534 4250 1286 3958 
Q 1038 3666 1038 3163 
Q 1038 2656 1286 2365 
Q 1534 2075 1959 2075 
z
" transform="scale(0.015625)"/>
      </defs>
      <use xlink:href="#DejaVuSans-Oblique-61" transform="translate(0 0.0625)"/>
      <use xlink:href="#DejaVuSans-30" transform="translate(61.279297 -16.34375) scale(0.7)"/>
      <use xlink:href="#DejaVuSans-39" transform="translate(105.81543 -16.34375) scale(0.7)"/>
      <use xlink:href="#DejaVuSans-28" transform="translate(153.085938 0.0625)"/>
      <use xlink:href="#DejaVuSans-Oblique-6c" transform="translate(192.099609 0.0625)"/>
      <use xlink:href="#DejaVuSans-Oblique-46" transform="translate(219.882812 -16.34375) scale(0.7)"/>
      <use xlink:href="#DejaVuSans-2c" transform="translate(262.880859 0.0625)"/>
      <use xlink:href="#DejaVuSans-Oblique-73" transform="translate(314.150391 0.0625)"/>
      <use xlink:href="#DejaVuSans-70" transform="translate(370.899896 50.810938) scale(0.7)"/>
      <use xlink:href="#DejaVuSans-68" transform="translate(415.33349 50.810938) scale(0.7)"/>
      <use xlink:href="#DejaVuSans-79" transform="translate(459.698724 50.810938) scale(0.7)"/>
      <use xlink:href="#DejaVuSans-73" transform="translate(501.124505 50.810938) scale(0.7)"/>
      <use xlink:href="#DejaVuSans-Oblique-46" transform="translate(366.25 -27.28125) scale(0.7)"/>
      <use xlink:href="#DejaVuSans-29" transform="translate(540.328607 0.0625)"/>
     </g>
    </g>
    <g id="LineCollection_13">
     <path d="M 363.108125 267.46 
L 373.108125 267.46 
" style="fill: none; stroke: #70bf41; stroke-width: 3"/>
    </g>
    <g id="LineCollection_14">
     <path d="M 368.108125 272.46 
L 368.108125 262.46 
" style="fill: none; stroke: #70bf41; stroke-width: 3"/>
    </g>
    <g id="line2d_114">
     <path d="M 358.108125 267.46 
L 378.108125 267.46 
" style="fill: none; stroke: #70bf41; stroke-width: 1.5; stroke-linecap: square"/>
    </g>
    <g id="line2d_115">
     <defs>
      <path id="m4211a9348d" d="M 0 4 
C 1.060812 4 2.078319 3.578535 2.828427 2.828427 
C 3.578535 2.078319 4 1.060812 4 0 
C 4 -1.060812 3.578535 -2.078319 2.828427 -2.828427 
C 2.078319 -3.578535 1.060812 -4 0 -4 
C -1.060812 -4 -2.078319 -3.578535 -2.828427 -2.828427 
C -3.578535 -2.078319 -4 -1.060812 -4 0 
C -4 1.060812 -3.578535 2.078319 -2.828427 2.828427 
C -2.078319 3.578535 -1.060812 4 0 4 
z
" style="stroke: #ffffff; stroke-width: 2"/>
     </defs>
     <g>
      <use xlink:href="#m4211a9348d" x="368.108125" y="267.46" style="fill: #70bf41; stroke: #ffffff; stroke-width: 2"/>
     </g>
    </g>
    <g id="text_17">
     <!-- $a_{12}(l_F,s_F^{\rm phys})$ -->
     <g transform="translate(386.108125 270.96) scale(0.1 -0.1)">
      <use xlink:href="#DejaVuSans-Oblique-61" transform="translate(0 0.0625)"/>
      <use xlink:href="#DejaVuSans-31" transform="translate(61.279297 -16.34375) scale(0.7)"/>
      <use xlink:href="#DejaVuSans-32" transform="translate(105.81543 -16.34375) scale(0.7)"/>
      <use xlink:href="#DejaVuSans-28" transform="translate(153.085938 0.0625)"/>
      <use xlink:href="#DejaVuSans-Oblique-6c" transform="translate(192.099609 0.0625)"/>
      <use xlink:href="#DejaVuSans-Oblique-46" transform="translate(219.882812 -16.34375) scale(0.7)"/>
      <use xlink:href="#DejaVuSans-2c" transform="translate(262.880859 0.0625)"/>
      <use xlink:href="#DejaVuSans-Oblique-73" transform="translate(314.150391 0.0625)"/>
      <use xlink:href="#DejaVuSans-70" transform="translate(370.899896 50.810938) scale(0.7)"/>
      <use xlink:href="#DejaVuSans-68" transform="translate(415.33349 50.810938) scale(0.7)"/>
      <use xlink:href="#DejaVuSans-79" transform="translate(459.698724 50.810938) scale(0.7)"/>
      <use xlink:href="#DejaVuSans-73" transform="translate(501.124505 50.810938) scale(0.7)"/>
      <use xlink:href="#DejaVuSans-Oblique-46" transform="translate(366.25 -27.28125) scale(0.7)"/>
      <use xlink:href="#DejaVuSans-29" transform="translate(540.328607 0.0625)"/>
     </g>
    </g>
    <g id="LineCollection_15">
     <path d="M 363.108125 285.66 
L 373.108125 285.66 
" style="fill: none; stroke: #ec5d57; stroke-width: 3"/>
    </g>
    <g id="LineCollection_16">
     <path d="M 368.108125 290.66 
L 368.108125 280.66 
" style="fill: none; stroke: #ec5d57; stroke-width: 3"/>
    </g>
    <g id="line2d_116">
     <path d="M 358.108125 285.66 
L 378.108125 285.66 
" style="fill: none; stroke: #ec5d57; stroke-width: 1.5; stroke-linecap: square"/>
    </g>
    <g id="line2d_117">
     <defs>
      <path id="m51d51007da" d="M 0 4 
C 1.060812 4 2.078319 3.578535 2.828427 2.828427 
C 3.578535 2.078319 4 1.060812 4 0 
C 4 -1.060812 3.578535 -2.078319 2.828427 -2.828427 
C 2.078319 -3.578535 1.060812 -4 0 -4 
C -1.060812 -4 -2.078319 -3.578535 -2.828427 -2.828427 
C -3.578535 -2.078319 -4 -1.060812 -4 0 
C -4 1.060812 -3.578535 2.078319 -2.828427 2.828427 
C -2.078319 3.578535 -1.060812 4 0 4 
z
" style="stroke: #ffffff; stroke-width: 2"/>
     </defs>
     <g>
      <use xlink:href="#m51d51007da" x="368.108125" y="285.66" style="fill: #ec5d57; stroke: #ffffff; stroke-width: 2"/>
     </g>
    </g>
    <g id="text_18">
     <!-- $a_{15}(l_F,s_F^{\rm phys})$ -->
     <g transform="translate(386.108125 289.16) scale(0.1 -0.1)">
      <use xlink:href="#DejaVuSans-Oblique-61" transform="translate(0 0.0625)"/>
      <use xlink:href="#DejaVuSans-31" transform="translate(61.279297 -16.34375) scale(0.7)"/>
      <use xlink:href="#DejaVuSans-35" transform="translate(105.81543 -16.34375) scale(0.7)"/>
      <use xlink:href="#DejaVuSans-28" transform="translate(153.085938 0.0625)"/>
      <use xlink:href="#DejaVuSans-Oblique-6c" transform="translate(192.099609 0.0625)"/>
      <use xlink:href="#DejaVuSans-Oblique-46" transform="translate(219.882812 -16.34375) scale(0.7)"/>
      <use xlink:href="#DejaVuSans-2c" transform="translate(262.880859 0.0625)"/>
      <use xlink:href="#DejaVuSans-Oblique-73" transform="translate(314.150391 0.0625)"/>
      <use xlink:href="#DejaVuSans-70" transform="translate(370.899896 50.810938) scale(0.7)"/>
      <use xlink:href="#DejaVuSans-68" transform="translate(415.33349 50.810938) scale(0.7)"/>
      <use xlink:href="#DejaVuSans-79" transform="translate(459.698724 50.810938) scale(0.7)"/>
      <use xlink:href="#DejaVuSans-73" transform="translate(501.124505 50.810938) scale(0.7)"/>
      <use xlink:href="#DejaVuSans-Oblique-46" transform="translate(366.25 -27.28125) scale(0.7)"/>
      <use xlink:href="#DejaVuSans-29" transform="translate(540.328607 0.0625)"/>
     </g>
    </g>
   </g>
  </g>
 </g>
 <defs>
  <clipPath id="p97f7936a37">
   <rect x="61.428125" y="7.2" width="391.68" height="293.76"/>
  </clipPath>
 </defs>
 <defs>
  <pattern id="hcddf2c8553" patternUnits="userSpaceOnUse" x="0" y="0" width="72" height="72">
   <rect x="0" y="0" width="73" height="73" fill="none"/>
   <path d="M -36 36 
L 36 -36 
M -24 48 
L 48 -24 
M -12 60 
L 60 -12 
M 0 72 
L 72 0 
M 12 84 
L 84 12 
M 24 96 
L 96 24 
M 36 108 
L 108 36 
" style="fill: #000000; stroke: #000000; stroke-width: 1.0; stroke-linecap: butt; stroke-linejoin: miter; stroke-opacity: 0.6"/>
  </pattern>
 </defs>
</svg>
